<?xml version="1.0" encoding="utf-8"?>
<!-- Generator: Adobe Illustrator 17.0.2, SVG Export Plug-In . SVG Version: 6.00 Build 0)  -->
<!DOCTYPE svg PUBLIC "-//W3C//DTD SVG 1.1//EN" "http://www.w3.org/Graphics/SVG/1.1/DTD/svg11.dtd">
<svg version="1.1" id="Layer_1" xmlns="http://www.w3.org/2000/svg" xmlns:xlink="http://www.w3.org/1999/xlink" x="0px" y="0px"
	 width="410px" height="130px" viewBox="0 0 410 130" enable-background="new 0 0 410 130" xml:space="preserve">
<g id="BK">
</g>
<g id="Comp">
	<path fill="#888888" d="M223.841,92.405c-25.452,0-46.157-20.707-46.157-46.158c0-25.452,20.706-46.158,46.157-46.158
		S270,20.796,270,46.247S249.292,92.405,223.841,92.405"/>
	<path fill="#888888" d="M172.019,49.569c1.058,16.659,10.004,31.21,23.138,39.946l0.002-0.003l-32.077,18.521l8.455-31.54
		L140,68.059l32.024-18.489L172.019,49.569z"/>
	<path fill="#888888" d="M200.756,92.756c6.958,3.467,14.797,5.419,23.086,5.419c8.283,0,16.121-1.951,23.077-5.415l-0.002-0.004
		v37.155l-23.086-23.092l-23.072,23.092V92.754L200.756,92.756z"/>
	<path fill="#DD4814" d="M83.841,92.405c-25.452,0-46.157-20.707-46.157-46.158c0-25.452,20.706-46.158,46.157-46.158
		S130,20.796,130,46.247S109.292,92.405,83.841,92.405"/>
	<path fill="#DD4814" d="M32.019,49.569c1.058,16.659,10.004,31.21,23.138,39.946l0.002-0.003l-32.077,18.521l8.455-31.54L0,68.059
		L32.024,49.57L32.019,49.569z"/>
	<path fill="#DD4814" d="M60.756,92.756c6.958,3.467,14.797,5.419,23.086,5.419c8.283,0,16.121-1.951,23.077-5.415l-0.002-0.004
		v37.155L83.83,106.819l-23.072,23.092V92.754L60.756,92.756z"/>
	<path fill="#5E2750" d="M363.841,92.405c-25.452,0-46.157-20.707-46.157-46.158c0-25.452,20.706-46.158,46.157-46.158
		S410,20.796,410,46.247S389.292,92.405,363.841,92.405"/>
	<path fill="#5E2750" d="M312.019,49.569c1.058,16.659,10.004,31.21,23.138,39.946l0.002-0.003l-32.077,18.521l8.455-31.54
		L280,68.059l32.024-18.489L312.019,49.569z"/>
	<path fill="#5E2750" d="M340.756,92.756c6.958,3.467,14.797,5.419,23.086,5.419c8.283,0,16.121-1.951,23.077-5.415l-0.002-0.004
		v37.155l-23.086-23.092l-23.072,23.092V92.754L340.756,92.756z"/>
</g>
<g id="Grid" display="none">
	<g id="Grid_1_" display="inline">
	</g>
</g>
<g id="Labels">
</g>
</svg>
