<?xml version="1.0" encoding="utf-8"?>
<!-- Generator: Adobe Illustrator 17.0.2, SVG Export Plug-In . SVG Version: 6.00 Build 0)  -->
<!DOCTYPE svg PUBLIC "-//W3C//DTD SVG 1.1//EN" "http://www.w3.org/Graphics/SVG/1.1/DTD/svg11.dtd">
<svg version="1.1" id="Layer_1" xmlns="http://www.w3.org/2000/svg" xmlns:xlink="http://www.w3.org/1999/xlink" x="0px" y="0px"
	 width="443px" height="135px" viewBox="0 0 443 135" enable-background="new 0 0 443 135" xml:space="preserve">
<g id="BK">
</g>
<g id="Comp">
	<path fill="#888888" d="M120.957,26.297L61.615,85.638L49.682,73.704l59.381-59.379C97.241,5.048,82.763,0,67.495,0
		c-18.03,0-34.981,7.021-47.729,19.769C7.019,32.518-0.001,49.469,0,67.499c0,18.031,7.021,34.982,19.769,47.731
		c12.749,12.749,29.7,19.77,47.73,19.77c18.032,0,34.983-7.021,47.732-19.77C127.98,102.479,135,85.528,135,67.499
		C135.001,52.392,130.054,38.054,120.957,26.297z M41.132,94.02l4.397-16.412l12.015,12.015L41.132,94.02z"/>
	<path fill="#5E2750" d="M233.437,55.53c3.187,3.186,4.942,7.425,4.942,11.932s-1.756,8.744-4.942,11.931s-7.424,4.942-11.93,4.942
		c-4.508,0-8.745-1.756-11.931-4.942c-3.187-3.188-4.943-7.425-4.943-11.931s1.756-8.743,4.945-11.931
		c3.187-3.188,7.425-4.943,11.931-4.943C226.012,50.587,230.25,52.342,233.437,55.53z M269.229,115.229
		c-26.362,26.362-69.096,26.362-95.458,0c-26.359-26.364-26.36-69.096,0-95.457c26.363-26.36,69.099-26.363,95.458-0.002
		C295.59,46.133,295.59,88.868,269.229,115.229z M272.084,75.801V58.928h-17.917c-0.795-3.062-2.012-5.988-3.634-8.706l12.687-12.69
		l-11.932-11.931L238.56,38.329c-2.706-1.592-5.617-2.792-8.661-3.568V16.74h-16.875v18.048c-3.033,0.782-5.933,1.984-8.63,3.577
		l-12.762-12.764l-11.934,11.931l12.749,12.749c-1.604,2.7-2.812,5.605-3.6,8.645h-18.012V75.8h17.956
		c0.775,3.063,1.982,5.992,3.583,8.717l-12.678,12.677l11.934,11.931l12.637-12.637c2.731,1.629,5.675,2.853,8.755,3.646v17.852
		h16.875V100.16c3.092-0.788,6.045-2.01,8.789-3.64l12.603,12.604l11.932-11.931l-12.617-12.619c1.617-2.74,2.835-5.689,3.616-8.775
		h17.863v0.002H272.084z"/>
	<path fill="#DD4814" d="M415.661,13.276h-80.318C318.763,25.587,308,45.31,308,67.499C308,104.717,338.287,135,375.504,135
		S443,104.717,443,67.499C443,45.307,432.24,25.586,415.661,13.276z M317.1,67.72c-1.507-2.607-1.507-5.819,0-8.425
		c6.772-11.696,19.359-18.96,32.85-18.96c9.558,0,18.667,3.648,25.569,9.933l-0.023,0.027c6.906-6.292,16.018-9.947,25.583-9.947
		c4.643,0,8.408,3.767,8.408,8.408c0,4.645-3.765,8.409-8.408,8.409c-5.727,0-11.157,2.353-15.088,6.356
		c3.93,4.004,9.361,6.358,15.088,6.358c4.643,0,8.408,3.767,8.408,8.408c0,4.643-3.765,8.408-8.408,8.408
		c-9.566,0-18.67-3.648-25.571-9.942v0.002c-6.906,6.278-16.002,9.923-25.558,9.923C336.455,86.684,323.872,79.416,317.1,67.72z
		 M413.171,107.833c-3.386,5.846-9.677,9.481-16.424,9.481c-4.777,0-9.327-1.82-12.78-4.96l0.015-0.017
		c-3.453,3.153-8.013,4.982-12.798,4.982c-2.322,0-4.209-1.879-4.209-4.202c0-2.321,1.887-4.204,4.209-4.204
		c2.86,0,5.577-1.174,7.54-3.179c-1.965-2.003-4.68-3.177-7.54-3.177c-2.322,0-4.209-1.884-4.209-4.204
		c0-2.323,1.887-4.207,4.209-4.207c4.791,0,9.357,1.837,12.809,4.995l-0.029-0.037c3.452-3.142,7.999-4.963,12.783-4.963
		c6.746,0,13.037,3.63,16.424,9.479C413.922,104.925,413.922,106.532,413.171,107.833z M407.206,103.655
		c0,2.33-1.89,4.218-4.218,4.218c-2.33,0-4.22-1.888-4.22-4.218c0-2.332,1.89-4.221,4.22-4.221
		C405.316,99.435,407.206,101.323,407.206,103.655z M345.905,59.364c0,4.658-3.777,8.437-8.438,8.437
		c-4.658,0-8.436-3.779-8.436-8.437c0-4.66,3.778-8.438,8.436-8.438C342.13,50.926,345.905,54.704,345.905,59.364z"/>
</g>
<g id="Grid" display="none">
	<g id="Grid_1_" display="inline">
	</g>
</g>
<g id="Labels">
</g>
</svg>
