<?xml version="1.0" encoding="utf-8"?>
<!-- Generator: Adobe Illustrator 17.0.2, SVG Export Plug-In . SVG Version: 6.00 Build 0)  -->
<!DOCTYPE svg PUBLIC "-//W3C//DTD SVG 1.1//EN" "http://www.w3.org/Graphics/SVG/1.1/DTD/svg11.dtd">
<svg version="1.1" id="Layer_1" xmlns="http://www.w3.org/2000/svg" xmlns:xlink="http://www.w3.org/1999/xlink" x="0px" y="0px"
	 width="191px" height="119px" viewBox="0 0 191 119" enable-background="new 0 0 191 119" xml:space="preserve">
<symbol  id="Grid_1_" viewBox="-492 -1587.5 984 3175">
	<polygon opacity="0.2" fill="#3081FF" enable-background="new    " points="492,-1587.5 -492,-1587.5 -492,1587.5 492,1587.5 	"/>
	<polygon opacity="0.8" fill="#3081FF" enable-background="new    " points="-452,-1587.5 -492,-1587.5 -492,1587.5 -452,1587.5 	
		"/>
	<polygon opacity="0.8" fill="#3081FF" enable-background="new    " points="492,-1587.5 452,-1587.5 452,1587.5 492,1587.5 	"/>
	<polygon opacity="0.3" fill="#3081FF" enable-background="new    " points="-395,-1587.5 -452,-1587.5 -452,1587.5 -395,1587.5 	
		"/>
	<polygon opacity="0.5" fill="#3081FF" enable-background="new    " points="-318,-1587.5 -375,-1587.5 -375,1587.5 -318,1587.5 	
		"/>
	<polygon opacity="0.3" fill="#3081FF" enable-background="new    " points="-241,-1587.5 -298,-1587.5 -298,1587.5 -241,1587.5 	
		"/>
	<polygon opacity="0.5" fill="#3081FF" enable-background="new    " points="-164,-1587.5 -221,-1587.5 -221,1587.5 -164,1587.5 	
		"/>
	<polygon opacity="0.3" fill="#3081FF" enable-background="new    " points="-87,-1587.5 -144,-1587.5 -144,1587.5 -87,1587.5 	"/>
	<polygon opacity="0.5" fill="#3081FF" enable-background="new    " points="-10,-1587.5 -67,-1587.5 -67,1587.5 -10,1587.5 	"/>
	<polygon opacity="0.3" fill="#3081FF" enable-background="new    " points="67,-1587.5 10,-1587.5 10,1587.5 67,1587.5 	"/>
	<polygon opacity="0.5" fill="#3081FF" enable-background="new    " points="144,-1587.5 87,-1587.5 87,1587.5 144,1587.5 	"/>
	<polygon opacity="0.3" fill="#3081FF" enable-background="new    " points="221,-1587.5 164,-1587.5 164,1587.5 221,1587.5 	"/>
	<polygon opacity="0.5" fill="#3081FF" enable-background="new    " points="298,-1587.5 241,-1587.5 241,1587.5 298,1587.5 	"/>
	<polygon opacity="0.3" fill="#3081FF" enable-background="new    " points="375,-1587.5 318,-1587.5 318,1587.5 375,1587.5 	"/>
	<polygon opacity="0.5" fill="#3081FF" enable-background="new    " points="452,-1587.5 395,-1587.5 395,1587.5 452,1587.5 	"/>
</symbol>
<g id="BK">
</g>
<g id="Comp">
	<path fill="#77216F" d="M82.715,5.322L82.715,5.322L67.432,35.506c-0.453,0.904-1.371,1.451-2.35,1.451h-0.001
		c-0.977,0-1.896-0.549-2.348-1.451L47.566,5.154v0.004C37.077,11.207,30,22.543,30,35.498c0,19.301,15.7,35,35,35s35-15.699,35-35
		C100,22.658,93.05,11.412,82.715,5.322z M56.227,53.223c-1.208,0-2.186-0.979-2.186-2.188s0.978-2.188,2.186-2.188
		c1.209,0,2.188,0.979,2.188,2.188S57.436,53.223,56.227,53.223z M56.227,44.334c-1.208,0-2.186-0.979-2.186-2.188
		c0-1.207,0.978-2.188,2.186-2.188c1.209,0,2.188,0.98,2.188,2.188C58.415,43.355,57.436,44.334,56.227,44.334z M89.676,35.498
		h-6.193l-6.264-0.023c-0.354,0-0.682-0.182-0.866-0.483c-0.186-0.301-0.204-0.676-0.046-0.992l6.264-12.443
		c0.176-0.35,0.532-0.562,0.912-0.562c0.381,0,0.736,0.213,0.912,0.562l6.192,12.467c0.158,0.316,0.142,0.691-0.043,0.992
		C90.356,35.314,90.029,35.498,89.676,35.498z M73.465,1.533l-3.261,6.258V7.789l3.9,8.072v-0.059l-7.362,14.375
		c-0.314,0.625-0.953,1.006-1.632,1.006l0,0c-0.68,0-1.318-0.381-1.633-1.008l-7.248-14.338v0.059l3.901-7.971l-3.32-6.457V1.467
		c2.629-0.633,5.371-0.969,8.19-0.969C67.918,0.498,70.752,0.857,73.465,1.533"/>
	<path fill="#888888" d="M25,69C11.215,69,0,80.215,0,94s11.215,25,25,25s25-11.215,25-25S38.785,69,25,69z M42.201,103.414
		c0,1.725-1.4,3.125-3.126,3.125H26.582v4.6h3.125c0.863,0,1.562,0.699,1.562,1.562s-0.699,1.562-1.562,1.562h-9.375
		c-0.863,0-1.563-0.699-1.563-1.562s0.699-1.562,1.563-1.562h3.125v-4.6H10.951c-1.727,0-3.125-1.4-3.125-3.125v-18.75
		c0-1.727,1.398-3.123,3.125-3.123h28.124c1.726,0,3.126,1.396,3.126,3.123V103.414z"/>
	<circle fill="#888888" cx="39.838" cy="92.438" r="1.563"/>
	<path fill="#888888" d="M39.838,86.189c-0.863,0-1.562,0.697-1.562,1.562c0,0.861,0.699,1.561,1.562,1.561s1.562-0.699,1.562-1.561
		C41.4,86.887,40.701,86.189,39.838,86.189z"/>
	<rect x="12.514" y="86.227" fill="#888888" width="25" height="15.625"/>
	<path fill="#DD4814" d="M153.959,66.018c2.125,2.123,3.295,4.949,3.295,7.955c0,3.006-1.17,5.828-3.295,7.955
		c-2.125,2.123-4.949,3.293-7.955,3.293c-3.004,0-5.829-1.17-7.953-3.293c-2.125-2.127-3.297-4.951-3.297-7.955
		c0-3.004,1.172-5.83,3.297-7.955s4.95-3.293,7.955-3.293C149.01,62.725,151.834,63.893,153.959,66.018z M177.82,105.816
		c-17.574,17.574-46.065,17.574-63.641,0c-17.572-17.576-17.573-46.062,0-63.637c17.575-17.572,46.066-17.576,63.641-0.002
		C195.394,59.754,195.394,88.244,177.82,105.816z M179.723,79.533v-11.25h-11.944c-0.53-2.043-1.341-3.992-2.423-5.805l8.459-8.459
		l-7.955-7.955l-8.486,8.486c-1.804-1.062-3.744-1.861-5.773-2.377V40.158h-11.25l-0.001,12.033c-2.021,0.52-3.955,1.32-5.753,2.381
		l-8.508-8.508l-7.957,7.955l8.5,8.498c-1.068,1.803-1.874,3.74-2.4,5.766h-12.007v11.25h11.971c0.518,2.041,1.321,3.994,2.388,5.81
		l-8.451,8.449l7.957,7.957l8.424-8.426c1.821,1.084,3.783,1.902,5.836,2.432v11.902h11.25V95.773
		c2.061-0.525,4.03-1.34,5.859-2.426l8.402,8.402l7.955-7.957l-8.412-8.41c1.08-1.828,1.891-3.793,2.412-5.85L179.723,79.533
		L179.723,79.533z"/>
</g>
<g id="Grid" display="none">
	
		<use xlink:href="#Grid_1_"  width="984" height="3175" id="XMLID_1_" x="-492" y="-1587.5" transform="matrix(1 0 0 -1 392 -378.5)" display="inline" overflow="visible"/>
</g>
</svg>
