<?xml version="1.0" encoding="UTF-8" standalone="no"?>
<!-- Created with Inkscape (http://www.inkscape.org/) -->
<svg
   xmlns:svg="http://www.w3.org/2000/svg"
   xmlns="http://www.w3.org/2000/svg"
   version="1.0"
   width="780.23621"
   height="318.18896"
   id="svg2287">
  <defs
     id="defs2289" />
  <g
     transform="translate(909.17314,-426.64787)"
     id="layer1">
    <g
       transform="translate(17.660436,17.722501)"
       id="g17393">
      <path
         d="M -657.32945,597.40962 C -657.32945,597.40962 -687.68745,563.57413 -758.40396,555.12876 L -758.02597,568.96318 C -758.02597,568.96318 -738.80248,575.875 -717.66745,595.86527 C -696.53241,615.85553 -673.85302,642.36883 -671.54187,653.90292 C -665.77483,643.1356 -658.47422,625.84526 -657.32945,597.40962 z "
         style="fill:#abacaf;fill-rule:evenodd;stroke:none"
         id="path4150" />
      <path
         d="M -816.05822,558.19586 C -816.05822,558.19586 -845.2682,558.58466 -851.80095,569.72997 C -851.80095,569.72997 -861.02606,582.79762 -831.43053,612.77762 C -825.66673,619.31144 -801.83608,648.13588 -766.86121,664.65942 C -760.32847,669.6597 -740.34684,680.41621 -719.5898,682.72735 C -719.5898,682.72735 -783.00462,684.26091 -832.5861,663.89265 C -882.16434,643.52439 -904.45926,614.31118 -908.30072,604.32144 C -910.22091,592.40935 -913.68114,569.35197 -860.2582,557.81788 C -838.34991,555.12876 -816.05822,553.2064 -816.05822,553.2064 L -816.05822,558.19586 z "
         style="fill:#abacaf;fill-rule:evenodd;stroke:none"
         id="path4152" />
      <path
         d="M -706.52215,426.75258 C -706.52215,426.75258 -781.46674,420.60754 -809.13885,502.46936 C -809.13885,502.46936 -826.43567,554.73997 -806.83311,610.85526 C -787.23379,666.97057 -737.26893,684.6497 -709.97805,682.72735 C -683.07597,682.72735 -659.24101,678.11588 -638.87275,659.66997 C -618.50449,641.21325 -597.74745,607.78814 -597.74745,550.89527 C -597.74745,494.01318 -630.03859,426.75258 -706.52215,426.75258 z M -656.17389,588.95345 C -660.39657,641.99083 -670.00831,672.34882 -708.0557,673.1156 C -747.64745,676.58231 -754.94805,616.62232 -754.94805,616.62232 C -756.10363,614.31118 -758.79275,595.09849 -758.40396,555.12876 C -758.02597,515.915 -754.55926,489.40171 -754.55926,489.40171 C -745.33631,431.36405 -707.28892,436.36432 -707.28892,436.36432 C -673.85302,436.36432 -665.39684,463.2664 -659.6298,489.7905 C -653.86275,516.30379 -656.17389,588.95345 -656.17389,588.95345 z "
         style="fill:#b82507;fill-rule:evenodd;stroke:none"
         id="path4154" />
      <path
         d="M -518.69356,505.12609 C -518.69356,505.12609 -554.87259,504.81289 -557.36733,550.97086 C -555.65017,597.59322 -520.7239,597.59322 -519.48193,597.59322 C -518.22916,597.59322 -483.76729,599.14838 -480.64618,552.52602 C -481.58575,505.12609 -518.69356,505.12609 -518.69356,505.12609 z M -518.85555,579.03932 C -520.41071,579.03932 -536.15669,579.96809 -536.15669,551.12206 C -536.15669,522.27603 -518.54236,524.14438 -518.54236,524.14438 C -518.54236,524.14438 -501.38161,522.58922 -501.38161,551.12206 C -501.38161,579.6549 -517.30039,579.03932 -518.85555,579.03932 z "
         style="fill:#b82507;fill-rule:evenodd;stroke:none"
         id="path4156" />
      <path
         d="M -404.86459,539.27478 C -404.86459,510.11555 -437.77132,507.93401 -437.77132,507.93401 L -465.21338,507.93401 L -465.21338,595.09849 L -444.16474,595.09849 L -444.16474,570.15115 C -404.55141,570.30235 -404.86459,539.27478 -404.86459,539.27478 z M -444.31594,551.28406 L -444.31594,527.42749 C -444.31594,527.42749 -427.94357,525.39715 -425.92403,538.6484 C -425.92403,538.6484 -424.98445,551.58644 -444.31594,551.28406 z "
         style="fill:#b82507;fill-rule:evenodd;stroke:none"
         id="path4158" />
      <path
         d="M -339.06195,507.93401 L -339.06195,527.2655 L -368.68556,527.2655 L -368.68556,539.73916 L -343.73823,539.73916 L -343.73823,559.23265 L -368.68556,559.23265 L -368.68556,575.60501 L -337.50679,575.60501 L -337.50679,594.94729 L -389.4318,594.94729 L -389.4318,507.93401 L -339.06195,507.93401 z "
         style="fill:#b82507;fill-rule:evenodd;stroke:none"
         id="path4160" />
      <path
         d="M -276.68281,560.78781 C -260.93684,551.89964 -262.34079,536.62885 -262.34079,536.62885 C -262.34079,511.05513 -292.59079,507.93401 -292.59079,507.93401 L -320.49725,507.93401 L -320.49725,594.94729 L -299.7618,594.94729 L -299.7618,566.09046 L -296.3383,566.09046 L -271.85534,597.74442 L -253.76582,588.54307 L -276.68281,560.78781 z M -299.92379,546.92097 L -300.07499,527.2655 C -300.07499,527.2655 -283.40024,524.77076 -282.46066,536.74764 C -282.46066,536.74764 -282.93585,548.31413 -299.92379,546.92097 z "
         style="fill:#b82507;fill-rule:evenodd;stroke:none"
         id="path4162" />
      <path
         d="M -195.28539,508.08521 L -213.06171,508.08521 L -244.10008,592.91694 L -223.35383,597.74442 L -218.05118,580.13008 L -190.61991,580.13008 L -184.69087,597.74442 L -164.25781,593.23013 L -195.28539,508.08521 z M -212.13294,560.9498 L -205.11312,536.15366 L -203.70916,536.15366 L -196.53815,560.9498 L -212.13294,560.9498 z "
         style="fill:#b82507;fill-rule:evenodd;stroke:none"
         id="path4164" />
      <path
         d="M -187.1856,671.34445 C -196.38696,670.88007 -197.16454,662.3051 -197.16454,662.3051 C -197.16454,662.3051 -181.73175,661.6787 -175.01433,655.91167 C -168.30771,650.14462 -164.57101,642.81161 -164.57101,642.81161 C -164.57101,642.81161 -169.56047,625.85606 -185.00406,625.66167 C -197.47772,625.49968 -203.87116,632.67069 -203.87116,632.67069 C -212.28413,641.87204 -212.28413,652.49895 -211.81975,659.96155 C -211.35536,667.45655 -201.99201,684.44451 -187.81199,684.44451 C -173.62116,684.44451 -167.37893,674.15238 -167.37893,674.15238 L -175.01433,666.83017 C -175.01433,666.83017 -177.98425,671.81964 -187.1856,671.34445 z M -191.23549,639.85249 C -189.20515,639.06412 -182.97372,637.67095 -178.44863,642.81161 C -178.44863,642.81161 -183.75129,653.56813 -198.2553,652.01297 C -197.94212,644.99315 -193.26584,640.63007 -191.23549,639.85249 z "
         style="fill:#abacaf;fill-rule:evenodd;stroke:none"
         id="path4166" />
      <path
         d="M -213.5369,639.53929 C -213.5369,639.53929 -221.33429,640.16569 -228.5053,649.51824 L -228.66729,682.26296 L -242.06974,682.26296 L -242.06974,648.11427 C -242.06974,648.11427 -243.63569,638.91291 -250.8067,633.14588 L -239.8882,626.12606 L -232.86838,634.39864 C -232.86838,634.39864 -224.14222,625.81287 -215.71844,626.43925 L -213.5369,639.53929 z "
         style="fill:#abacaf;fill-rule:evenodd;stroke:none"
         id="path4168" />
      <path
         d="M -256.73575,664.79983 C -258.29091,661.9919 -255.33178,650.609 -258.4421,639.6905 C -261.56321,628.78279 -271.07776,626.27726 -279.50154,626.12606 C -287.91451,625.97486 -293.84356,630.33795 -293.84356,630.33795 L -289.16729,640.94327 C -289.16729,640.94327 -286.35936,638.76173 -279.65274,638.44853 C -269.36062,638.44853 -270.92657,646.71031 -270.92657,646.71031 C -270.92657,646.71031 -276.69361,646.71031 -283.86462,647.3367 C -291.03563,647.95228 -300.86337,656.37605 -300.86337,666.05259 C -300.86337,675.71833 -290.88444,684.2933 -281.0567,684.2933 C -271.22896,684.2933 -265.31072,676.9603 -265.31072,676.9603 C -264.99753,678.82865 -259.54367,683.66692 -259.54367,683.66692 L -248.62517,676.9603 C -252.98825,674.31438 -255.16979,667.60775 -256.73575,664.79983 z M -270.61337,666.98137 C -270.61337,666.98137 -274.66327,671.50645 -279.65274,671.50645 C -284.6422,671.50645 -286.97494,669.47611 -286.97494,664.64863 C -286.97494,659.81036 -280.7435,657.31563 -280.7435,657.31563 L -270.61337,657.31563 L -270.61337,666.98137 z "
         style="fill:#abacaf;fill-rule:evenodd;stroke:none"
         id="path4170" />
      <path
         d="M -303.35811,630.48915 L -323.15397,682.42496 L -332.35533,682.42496 L -343.90022,655.91167 L -355.59631,682.42496 L -364.94886,682.42496 L -384.90673,630.65114 L -371.96867,626.43925 L -359.95939,660.90113 L -348.26331,629.09598 L -339.68834,629.09598 L -327.52786,661.05233 L -316.29615,626.43925 L -303.35811,630.48915 z "
         style="fill:#abacaf;fill-rule:evenodd;stroke:none"
         id="path4172" />
      <path
         d="M -449.7806,617.23789 L -449.7806,627.69202 L -459.13314,627.69202 L -459.13314,641.09445 L -449.6186,641.09445 L -449.6186,688.192 C -451.96213,699.72609 -458.35557,702.37203 -458.35557,702.37203 L -447.43706,709.39183 C -437.45812,702.06964 -436.20536,687.56562 -436.20536,687.56562 L -436.20536,641.09445 L -414.37914,641.09445 C -414.37914,641.09445 -414.22794,657.46682 -413.43957,667.13256 C -412.66199,676.80911 -402.68305,684.44451 -402.68305,684.44451 L -391.76454,677.73788 C -398.78435,673.06161 -400.6635,664.64863 -400.6635,664.64863 L -400.6635,640.94327 L -389.583,640.94327 L -389.583,627.69202 L -400.35032,627.69202 L -400.35032,610.69327 L -414.22794,610.69327 L -414.22794,627.53001 L -435.89216,627.53001 L -435.89216,618.80385 C -435.89216,618.80385 -434.81219,609.12732 -423.7317,605.7038 L -430.75151,598.522 C -430.75151,598.522 -434.81219,598.05761 -442.44759,603.82465 C -450.09379,609.6025 -449.7806,617.23789 -449.7806,617.23789 z "
         style="fill:#abacaf;fill-rule:evenodd;stroke:none"
         id="path4174" />
      <path
         d="M -488.29236,625.51047 C -488.29236,625.51047 -513.86609,626.90363 -513.86609,655.13409 C -513.86609,684.2933 -487.51479,684.44451 -487.51479,684.44451 C -487.51479,684.44451 -461.46589,683.81811 -461.94107,654.6697 C -462.40546,625.35928 -488.29236,625.51047 -488.29236,625.51047 z M -487.66599,670.88007 C -487.66599,670.88007 -500.13965,670.88007 -500.13965,655.28528 C -500.13965,639.6905 -488.14117,639.07491 -488.14117,639.07491 C -488.14117,639.07491 -475.6567,639.22611 -475.6567,654.97209 C -475.6567,670.72886 -487.66599,670.88007 -487.66599,670.88007 z "
         style="fill:#abacaf;fill-rule:evenodd;stroke:none"
         id="path4176" />
      <path
         d="M -519.94632,632.2063 L -527.74372,642.49843 C -527.74372,642.49843 -529.61207,638.44853 -537.09627,638.44853 C -544.58046,638.44853 -543.1765,642.66042 -543.1765,642.66042 C -543.1765,642.66042 -543.80288,645.93273 -529.92526,650.7602 C -516.04762,655.59847 -519.00674,666.98137 -519.48193,670.88007 C -519.94632,674.77876 -527.11733,684.13131 -538.96461,684.13131 C -550.82271,684.13131 -557.84252,676.80911 -557.84252,676.80911 L -550.19631,666.05259 C -550.19631,666.05259 -546.29762,671.96004 -537.40945,672.13284 C -533.12197,672.20843 -532.51719,670.09168 -532.0852,668.06134 C -531.32922,664.48664 -534.75273,662.76948 -534.75273,662.76948 C -534.75273,662.76948 -535.54111,661.9919 -543.4897,658.4064 C -545.10965,657.67202 -553.78182,653.25494 -555.03458,648.89186 C -556.27655,644.52876 -557.84252,636.58017 -549.73193,629.87356 C -541.62134,623.16694 -524.7738,625.81287 -519.94632,632.2063 z "
         style="fill:#abacaf;fill-rule:evenodd;stroke:none"
         id="path4178" />
    </g>
  </g>
</svg>
