<?xml version="1.0" encoding="UTF-8"?>
<!DOCTYPE svg PUBLIC "-//W3C//DTD SVG 1.1//EN" "http://www.w3.org/Graphics/SVG/1.1/DTD/svg11.dtd">
<!-- Creator: CorelDRAW X6 -->
<svg xmlns="http://www.w3.org/2000/svg" xml:space="preserve" width="297mm" height="210mm" version="1.1" style="shape-rendering:geometricPrecision; text-rendering:geometricPrecision; image-rendering:optimizeQuality; fill-rule:evenodd; clip-rule:evenodd"
viewBox="0 0 29700 21000"
 xmlns:xlink="http://www.w3.org/1999/xlink">
 <defs>
  <style type="text/css">
   <![CDATA[
    .fil1 {fill:#1A1A1A;fill-rule:nonzero}
    .fil0 {fill:url(#id0);fill-rule:nonzero}
   ]]>
  </style>
  <radialGradient id="id0" gradientUnits="objectBoundingBox" cx="50.0001%" cy="-25.9998%" r="50.0001%" fx="50.0001%" fy="-25.9998%">
   <stop offset="0" style="stop-color:#6BC4FF"/>
   <stop offset="0.439216" style="stop-color:#0099FF"/>
   <stop offset="1" style="stop-color:#0088E3"/>
  </radialGradient>
 </defs>
 <g id="Layer_x0020_1">
  <metadata id="CorelCorpID_0Corel-Layer"/>
  <g id="_696601776">
   <path class="fil0" d="M18769 10113c1,-85 -25,-189 -83,-346 -42,-114 -101,-257 -208,-252 -186,0 -174,432 -392,432 -275,0 -268,-979 -543,-979 -287,0 -270,988 -557,988 -385,0 -287,-1534 -651,-1534 -396,0 -295,1490 -714,1490 -426,0 -345,-1782 -771,-1782 -426,0 -345,1782 -771,1782 -419,0 -318,-1490 -714,-1490 -364,0 -266,1534 -651,1534 -287,0 -270,-988 -557,-988 -275,0 -268,1035 -543,1035 -218,0 -206,-489 -392,-489 -107,-4 -166,138 -208,252 -58,158 -84,261 -83,346 1,66 20,119 55,178 47,80 121,172 235,172 170,0 194,-238 379,-238 230,0 306,488 556,488 261,0 293,-414 557,-409 330,0 320,655 651,655 360,0 354,-589 714,-589 366,0 345,726 771,726 426,0 405,-726 771,-726 360,0 354,589 714,589 331,0 322,-655 651,-655 264,-4 296,409 557,409 250,0 326,-442 556,-442 185,0 209,192 379,192 115,0 189,-92 235,-172 35,-60 55,-113 55,-178z"/>
   <path class="fil1" d="M18117 12709c76,31 157,49 241,55 112,7 170,-23 174,-90 4,-62 -31,-96 -105,-100l-101 -6c-156,-9 -230,-83 -222,-221 8,-134 114,-195 318,-183 61,4 113,15 167,37l0 110c-58,-28 -108,-42 -173,-46 -130,-8 -198,22 -202,89 -4,62 36,96 118,101l101 6c156,9 230,83 222,221 -8,134 -109,195 -304,183 -82,-5 -160,-20 -235,-46l0 -109z"/>
   <path class="fil1" d="M17513 12161c195,0 285,106 269,319 -3,39 -35,68 -74,68l-409 0c0,144 91,216 272,216 62,0 124,-7 186,-20l0 100c-62,14 -138,20 -227,20 -237,0 -356,-120 -356,-360 0,-229 112,-344 337,-344zm-213 284l361 0c6,-123 -50,-185 -168,-185 -121,0 -185,62 -193,185z"/>
   <path class="fil1" d="M16250 12161l134 0 202 552 200 -552 134 0 -275 675c-7,18 -24,29 -43,29l-52 0c-20,0 -36,-11 -43,-30l-258 -674z"/>
   <path class="fil1" d="M13996 12161l125 0 131 545 176 -545 112 0 189 545 119 -545 131 0 -175 669c-5,21 -23,35 -45,35l-58 0c-20,0 -37,-12 -44,-31l-178 -496 -168 495c-6,19 -24,31 -44,31l-60 0c-21,0 -40,-14 -45,-35l-170 -669z"/>
   <path class="fil1" d="M12817 12161l0 667c0,20 -17,37 -37,37l-87 0 0 -667c0,-20 17,-37 37,-37l87 0zm7 -241l0 71c0,6 -2,11 -6,15 -4,4 -9,6 -15,6 -31,-2 -62,-2 -94,0 -6,0 -11,-2 -15,-6 -4,-4 -6,-9 -6,-15l0 -71c0,-11 8,-20 19,-21 33,-2 66,-2 99,0 11,1 19,10 19,21z"/>
   <path class="fil1" d="M11032 12869l0 -742c0,-170 88,-255 263,-255 58,0 110,9 157,27l0 101c-44,-18 -97,-27 -157,-27 -92,0 -138,39 -138,116l0 73 143 0 68 0 0 64 0 37 -37 0 -31 0 -143 0 0 568c0,20 -16,37 -36,37l-88 2z"/>
   <path class="fil1" d="M13353 12443l0 -33 0 -33c0,-76 63,-115 190,-115 51,0 102,5 154,16l0 -101c-52,-11 -104,-16 -154,-16 -209,0 -314,75 -314,225l0 479 87 0c20,0 37,-17 37,-37l0 -385z"/>
   <path class="fil1" d="M11691 12646c0,-144 95,-216 286,-216 70,0 131,4 184,13l0 -66c0,-76 -63,-115 -190,-115 -73,0 -147,11 -223,34l0 -101c76,-22 150,-33 223,-33 209,0 314,75 314,225l0 260c0,41 0,90 0,133 0,37 -27,68 -63,73 -80,12 -172,18 -244,18 -190,0 -286,-80 -286,-224zm469 0l0 -83 0 -20c-49,-9 -111,-14 -184,-14 -108,0 -162,38 -162,114l0 2 0 2c0,76 54,122 162,122 69,0 122,-4 184,-12l0 -112z"/>
   <path class="fil1" d="M15325 12646c0,-144 95,-216 286,-216 70,0 131,4 184,13l0 -66c0,-76 -63,-115 -190,-115 -73,0 -147,11 -223,34l0 -101c76,-22 150,-33 223,-33 209,0 314,75 314,225l0 260c0,41 0,90 0,133 0,37 -27,68 -63,73 -80,12 -172,18 -245,18 -190,0 -286,-80 -286,-224zm469 0l0 -83 0 -20c-49,-9 -111,-14 -184,-14 -108,0 -162,38 -162,114l0 2 0 2c0,76 54,122 162,122 69,0 122,-4 184,-12l0 -112z"/>
  </g>
 </g>
</svg>
