<?xml version="1.0" encoding="UTF-8"?>
<!-- Generator: Adobe Illustrator 16.0.0, SVG Export Plug-In . SVG Version: 6.00 Build 0)  -->
<!DOCTYPE svg PUBLIC "-//W3C//DTD SVG 1.1//EN" "http://www.w3.org/Graphics/SVG/1.1/DTD/svg11.dtd">
<svg version="1.1" id="Layer_1" xmlns="http://www.w3.org/2000/svg" xmlns:xlink="http://www.w3.org/1999/xlink" x="0px" y="0px" width="162.167px" height="54px" viewBox="0 0 162.167 54" enable-background="new 0 0 162.167 54" xml:space="preserve" hola_ext_inject="disabled">
<g>
	<polyline fill="#82BC00" points="46.551,14.027 46.551,52.778 0.92,52.778 0.92,7.149 40.7,7.149 46.551,14.027  "/>
	<path fill="#82BC00" d="M53.035,12.216c0.255-4.226,4.035-5.497,7.72-5.497c3.273,0,7.213,0.73,7.213,4.671v8.547   c0,1.492,0.158,2.985,0.571,3.652h-4.574c-0.159-0.51-0.286-1.048-0.317-1.589c-1.43,1.492-3.527,2.033-5.528,2.033   c-3.114,0-5.593-1.557-5.593-4.925c0-3.716,2.797-4.606,5.593-4.986c2.763-0.415,5.336-0.319,5.336-2.163   c0-1.937-1.334-2.224-2.923-2.224c-1.713,0-2.826,0.699-2.985,2.479H53.035 M63.456,15.552c-0.763,0.667-2.352,0.698-3.748,0.952   c-1.399,0.286-2.669,0.763-2.669,2.415c0,1.685,1.303,2.096,2.766,2.096c3.526,0,3.651-2.796,3.651-3.781V15.552z"/>
	<path fill="#82BC00" d="M71.46,7.164h4.29v2.099h0.065c1.08-1.748,2.859-2.543,4.892-2.543c5.147,0,7.466,4.161,7.466,8.833   c0,4.385-2.415,8.482-7.212,8.482c-1.97,0-3.844-0.858-4.923-2.478h-0.065v7.815H71.46V7.164 M83.661,15.426   c0-2.606-1.047-5.306-3.94-5.306c-2.952,0-3.905,2.635-3.905,5.306c0,2.668,1.016,5.21,3.938,5.21   C82.708,20.636,83.661,18.094,83.661,15.426z"/>
	<path fill="#82BC00" d="M90.873,7.164h4.288v2.099h0.063c1.079-1.748,2.859-2.543,4.893-2.543c5.147,0,7.465,4.161,7.465,8.833   c0,4.385-2.412,8.482-7.211,8.482c-1.971,0-3.845-0.858-4.923-2.478h-0.065v7.815h-4.51V7.164 M103.073,15.426   c0-2.606-1.052-5.306-3.942-5.306c-2.954,0-3.906,2.635-3.906,5.306c0,2.668,1.018,5.21,3.938,5.21   C102.118,20.636,103.073,18.094,103.073,15.426z"/>
	<rect x="110.41" y="0.905" fill="#82BC00" width="4.511" height="22.685"/>
	<path fill="#82BC00" d="M123.116,4.623h-4.512V0.905h4.512V4.623z M118.604,7.164h4.512V23.59h-4.512V7.164z"/>
	<path fill="#82BC00" d="M130.391,16.472c0.127,2.86,1.524,4.164,4.034,4.164c1.812,0,3.275-1.113,3.558-2.128h3.974   c-1.271,3.875-3.974,5.527-7.688,5.527c-5.181,0-8.389-3.557-8.389-8.641c0-4.925,3.399-8.674,8.389-8.674   c5.59,0,8.291,4.701,7.974,9.753H130.391 M137.73,13.613c-0.413-2.287-1.398-3.493-3.591-3.493c-2.859,0-3.684,2.224-3.748,3.493   H137.73z"/>
	<path fill="#82BC00" d="M156.632,21.493h-0.062c-1.05,1.778-2.891,2.541-4.989,2.541c-4.957,0-7.372-4.258-7.372-8.8   c0-4.417,2.447-8.515,7.278-8.515c1.938,0,3.844,0.826,4.893,2.446h-0.032h0.063v-8.26h4.51V23.59h-4.288V21.493 M152.693,10.12   c-2.955,0-3.972,2.54-3.972,5.24c0,2.574,1.175,5.275,3.972,5.275c2.986,0,3.877-2.605,3.877-5.307   C156.57,12.66,155.616,10.12,152.693,10.12z"/>
	<path fill="#555759" d="M53.299,36.011h4.257v2.224h0.062c1.176-1.685,2.893-2.668,5.021-2.668c2.065,0,3.906,0.761,4.797,2.731   c0.953-1.43,2.67-2.731,4.957-2.731c3.495,0,6.003,1.62,6.003,5.877v10.993h-4.51v-9.31c0-2.19-0.191-4.002-2.764-4.002   c-2.542,0-3.019,2.097-3.019,4.161v9.15h-4.511v-9.214c0-1.906,0.126-4.098-2.732-4.098c-0.889,0-3.05,0.571-3.05,3.78v9.531h-4.51   V36.011"/>
	<path fill="#555759" d="M86.593,33.469h-4.512V29.75h4.512V33.469z M82.082,36.011h4.512v16.426h-4.512V36.011z"/>
	<path fill="#555759" d="M101.332,41.794c-0.284-1.844-1.461-2.828-3.334-2.828c-2.892,0-3.846,2.923-3.846,5.338   c0,2.351,0.922,5.178,3.749,5.178c2.097,0,3.305-1.334,3.591-3.336h4.353c-0.572,4.353-3.591,6.737-7.91,6.737   c-4.959,0-8.294-3.497-8.294-8.423c0-5.112,3.052-8.894,8.389-8.894c3.876,0,7.434,2.034,7.72,6.228H101.332"/>
	<path fill="#555759" d="M108.384,36.011h4.29v3.051h0.062c0.827-2.066,3.05-3.495,5.241-3.495c0.318,0,0.699,0.063,0.986,0.159   v4.193c-0.415-0.096-1.082-0.16-1.622-0.16c-3.303,0-4.446,2.384-4.446,5.275v7.402h-4.512V36.011"/>
	<path fill="#555759" d="M128.152,35.566c5.177,0,8.514,3.431,8.514,8.672c0,5.213-3.337,8.645-8.514,8.645   c-5.147,0-8.484-3.432-8.484-8.645C119.667,38.997,123.004,35.566,128.152,35.566 M128.152,49.481c3.081,0,4.002-2.637,4.002-5.243   c0-2.636-0.921-5.273-4.002-5.273c-3.051,0-3.975,2.638-3.975,5.273C124.177,46.845,125.101,49.481,128.152,49.481z"/>
	<path fill="#FFFFFF" d="M41.16,29.775v-3.347c0-2.448-1.58-3.431-3.936-3.431c-1.509,0-2.904,0.754-3.705,2.015   c-0.481-1.443-1.807-2.015-3.249-2.015c-1.623,0-2.949,0.687-3.818,2.015h-0.047v-1.742h-1.829v5.887   c-0.022-3.313-1.827-6.161-5.443-6.161c-1.62,0-3.255,0.674-3.995,2.1h-0.001c-0.565-1.754-2.478-2.1-4.268-2.1   c-2.629,0-4.895,1.03-5.009,3.958h1.944c0.09-1.74,1.306-2.241,2.951-2.241c1.161,0,2.461,0.242,2.616,1.674v0.481   c-0.158,1.26-1.914,1.157-3.965,1.548c-2.012,0.39-4.003,0.964-4.003,3.638c0,2.354,1.76,3.317,3.912,3.317   c1.595,0,2.992-0.542,4.056-1.719v6.72h1.945v-6.854h0.044c0.87,1.396,2.609,1.854,3.82,1.854c3.592,0,5.373-2.778,5.396-6.089   V35.1h1.946v-7.366c0-0.893,0.844-3.019,3.156-3.019c1.739,0,2.219,1.096,2.219,2.629V35.1h1.941v-7.366   c0-1.831,1.215-3.019,3.09-3.019c1.898,0,2.288,1.165,2.288,2.629v2.431c-1.114,0.399-1.914,1.461-1.914,2.715   c0,1.594,1.292,2.885,2.886,2.885c1.595,0,2.886-1.291,2.886-2.885C43.074,31.236,42.275,30.175,41.16,29.775 M13.362,30.981   c0,1.075-1.052,2.676-3.613,2.676c-1.189,0-2.288-0.458-2.288-1.738c0-1.442,1.099-1.899,2.38-2.127   c1.303-0.229,2.766-0.252,3.521-0.801V30.981z M18.976,33.657c-2.678,0-3.729-2.149-3.729-4.482c0-2.219,1.007-4.459,3.616-4.459   c2.516,0,3.659,2.148,3.659,4.368C22.521,31.393,21.628,33.657,18.976,33.657z M40.188,33.95c-0.806,0-1.46-0.655-1.46-1.46   c0-0.806,0.654-1.459,1.46-1.459c0.806,0,1.46,0.654,1.46,1.459C41.648,33.295,40.994,33.95,40.188,33.95z"/>
	<g>
		<g>
			<path fill="#929497" d="M137.037,34.346c0.138-0.312,0.324-0.581,0.561-0.811c0.235-0.229,0.511-0.409,0.825-0.54     c0.313-0.131,0.647-0.195,1-0.195s0.686,0.064,0.997,0.195s0.584,0.311,0.817,0.54c0.234,0.229,0.42,0.499,0.558,0.811     c0.138,0.312,0.206,0.649,0.206,1.011c0,0.371-0.068,0.714-0.206,1.028s-0.323,0.587-0.558,0.817     c-0.233,0.232-0.506,0.412-0.817,0.54c-0.312,0.129-0.645,0.192-0.997,0.192s-0.687-0.063-1-0.192     c-0.314-0.128-0.59-0.308-0.825-0.54c-0.236-0.23-0.423-0.503-0.561-0.817s-0.206-0.657-0.206-1.028     C136.831,34.995,136.899,34.658,137.037,34.346z M137.459,36.233c0.107,0.269,0.257,0.501,0.446,0.698     c0.19,0.196,0.416,0.352,0.674,0.464c0.26,0.112,0.54,0.168,0.843,0.168c0.298,0,0.575-0.056,0.832-0.168s0.479-0.268,0.67-0.464     c0.19-0.197,0.34-0.43,0.447-0.698s0.161-0.561,0.161-0.877c0-0.307-0.054-0.593-0.161-0.859     c-0.107-0.266-0.257-0.495-0.447-0.69s-0.413-0.349-0.67-0.461s-0.534-0.168-0.832-0.168c-0.303,0-0.583,0.056-0.843,0.168     c-0.258,0.112-0.483,0.266-0.674,0.461c-0.189,0.195-0.339,0.425-0.446,0.69c-0.107,0.267-0.162,0.553-0.162,0.859     C137.297,35.673,137.352,35.965,137.459,36.233z M139.581,33.865c0.357,0,0.622,0.07,0.794,0.213     c0.172,0.142,0.258,0.357,0.258,0.646c0,0.271-0.076,0.468-0.227,0.595c-0.151,0.126-0.34,0.2-0.564,0.223l0.859,1.327H140.2     l-0.818-1.293h-0.495v1.293h-0.468v-3.004H139.581z M139.374,35.198c0.106,0,0.206-0.003,0.3-0.01s0.178-0.026,0.251-0.059     s0.132-0.081,0.175-0.147c0.044-0.066,0.066-0.159,0.066-0.279c0-0.1-0.021-0.181-0.06-0.24s-0.089-0.105-0.151-0.138     c-0.062-0.031-0.133-0.054-0.213-0.065c-0.08-0.011-0.159-0.017-0.237-0.017h-0.618v0.955H139.374z"/>
		</g>
	</g>
</g>
</svg>