<?xml version="1.0" encoding="utf-8"?>
<!-- Generator: Adobe Illustrator 17.0.2, SVG Export Plug-In . SVG Version: 6.00 Build 0)  -->
<!DOCTYPE svg PUBLIC "-//W3C//DTD SVG 1.1//EN" "http://www.w3.org/Graphics/SVG/1.1/DTD/svg11.dtd">
<svg version="1.1" xmlns="http://www.w3.org/2000/svg" xmlns:xlink="http://www.w3.org/1999/xlink" x="0px" y="0px" width="481px"
	 height="384px" viewBox="0 0 481 384" enable-background="new 0 0 481 384" xml:space="preserve">
<g id="BK">
</g>
<g id="Comp">
	<circle fill="#77216F" cx="51" cy="51" r="51"/>
	<path fill-rule="evenodd" clip-rule="evenodd" fill="#FFFFFF" d="M70.124,73.95c0,4.225-3.42,7.649-7.648,7.649H39.529
		c-4.23,0-7.653-3.424-7.653-7.649V28.048c0-4.223,3.423-7.649,7.653-7.649h22.946c4.228,0,7.648,3.426,7.648,7.649L70.124,73.95
		L70.124,73.95z M59.476,38.566H42.527c-1.658,0-2.998-1.285-2.998-2.87c0-1.581,1.341-2.87,2.998-2.87h16.949
		c1.652,0,2.999,1.288,2.999,2.87C62.475,37.281,61.128,38.566,59.476,38.566L59.476,38.566z M59.476,30.917H42.527
		c-1.658,0-2.998-1.283-2.998-2.87c0-1.584,1.341-2.87,2.998-2.87h16.949c1.652,0,2.999,1.285,2.999,2.87
		C62.475,29.635,61.128,30.917,59.476,30.917L59.476,30.917z M59.476,46.216H42.527c-1.658,0-2.998-1.283-2.998-2.867
		s1.341-2.868,2.998-2.868h16.949c1.652,0,2.999,1.283,2.999,2.868S61.128,46.216,59.476,46.216L59.476,46.216z M47.172,66.3
		c0,2.112-1.71,3.822-3.824,3.822c-2.109,0-3.819-1.71-3.819-3.822c0-2.111,1.71-3.827,3.819-3.827
		C45.462,62.474,47.172,64.19,47.172,66.3z"/>
	<circle fill="#2C001E" cx="159" cy="51" r="51"/>
	<path fill-rule="evenodd" clip-rule="evenodd" fill="#FFFFFF" d="M178.124,73.95c0,4.225-3.42,7.649-7.648,7.649h-22.946
		c-4.23,0-7.653-3.424-7.653-7.649V28.048c0-4.223,3.423-7.649,7.653-7.649h22.946c4.228,0,7.648,3.426,7.648,7.649L178.124,73.95
		L178.124,73.95z M167.476,38.566h-16.949c-1.658,0-2.998-1.285-2.998-2.87c0-1.581,1.341-2.87,2.998-2.87h16.949
		c1.652,0,2.999,1.288,2.999,2.87C170.475,37.281,169.128,38.566,167.476,38.566L167.476,38.566z M167.476,30.917h-16.949
		c-1.658,0-2.998-1.283-2.998-2.87c0-1.584,1.341-2.87,2.998-2.87h16.949c1.652,0,2.999,1.285,2.999,2.87
		C170.475,29.635,169.128,30.917,167.476,30.917L167.476,30.917z M167.476,46.216h-16.949c-1.658,0-2.998-1.283-2.998-2.867
		s1.341-2.868,2.998-2.868h16.949c1.652,0,2.999,1.283,2.999,2.868S169.128,46.216,167.476,46.216L167.476,46.216z M155.172,66.3
		c0,2.112-1.71,3.822-3.824,3.822c-2.109,0-3.819-1.71-3.819-3.822c0-2.111,1.71-3.827,3.819-3.827
		C153.462,62.474,155.172,64.19,155.172,66.3z"/>
	<circle fill="#77216F" cx="267" cy="51" r="51"/>
	<path fill-rule="evenodd" clip-rule="evenodd" fill="#FFFFFF" d="M286.124,73.95c0,4.225-3.42,7.649-7.648,7.649h-22.946
		c-4.23,0-7.653-3.424-7.653-7.649V28.048c0-4.223,3.423-7.649,7.653-7.649h22.946c4.228,0,7.648,3.426,7.648,7.649V73.95
		L286.124,73.95z M275.476,38.566h-16.949c-1.658,0-2.998-1.285-2.998-2.87c0-1.581,1.341-2.87,2.998-2.87h16.949
		c1.652,0,2.999,1.288,2.999,2.87C278.475,37.281,277.128,38.566,275.476,38.566L275.476,38.566z M275.476,30.917h-16.949
		c-1.658,0-2.998-1.283-2.998-2.87c0-1.584,1.341-2.87,2.998-2.87h16.949c1.652,0,2.999,1.285,2.999,2.87
		C278.475,29.635,277.128,30.917,275.476,30.917L275.476,30.917z M275.476,46.216h-16.949c-1.658,0-2.998-1.283-2.998-2.867
		s1.341-2.868,2.998-2.868h16.949c1.652,0,2.999,1.283,2.999,2.868S277.128,46.216,275.476,46.216L275.476,46.216z M263.172,66.3
		c0,2.112-1.71,3.822-3.824,3.822c-2.109,0-3.819-1.71-3.819-3.822c0-2.111,1.71-3.827,3.819-3.827
		C261.462,62.474,263.172,64.19,263.172,66.3z"/>
	<circle fill="#2C001E" cx="51" cy="239" r="51"/>
	<path fill-rule="evenodd" clip-rule="evenodd" fill="#FFFFFF" d="M70.124,261.95c0,4.225-3.42,7.649-7.648,7.649H39.529
		c-4.23,0-7.653-3.424-7.653-7.649v-45.903c0-4.223,3.423-7.649,7.653-7.649h22.946c4.228,0,7.648,3.426,7.648,7.649L70.124,261.95
		L70.124,261.95z M59.476,226.566H42.527c-1.658,0-2.998-1.285-2.998-2.87c0-1.581,1.341-2.87,2.998-2.87h16.949
		c1.652,0,2.999,1.288,2.999,2.87C62.475,225.281,61.128,226.566,59.476,226.566L59.476,226.566z M59.476,218.917H42.527
		c-1.658,0-2.998-1.283-2.998-2.87c0-1.584,1.341-2.87,2.998-2.87h16.949c1.652,0,2.999,1.285,2.999,2.87
		C62.475,217.635,61.128,218.917,59.476,218.917L59.476,218.917z M59.476,234.216H42.527c-1.658,0-2.998-1.283-2.998-2.867
		c0-1.584,1.341-2.868,2.998-2.868h16.949c1.652,0,2.999,1.283,2.999,2.868C62.475,232.934,61.128,234.216,59.476,234.216
		L59.476,234.216z M47.172,254.3c0,2.112-1.71,3.822-3.824,3.822c-2.109,0-3.819-1.71-3.819-3.822c0-2.111,1.71-3.827,3.819-3.827
		C45.462,250.474,47.172,252.19,47.172,254.3z"/>
	<circle fill="#5E2750" cx="159" cy="239" r="51"/>
	<path fill-rule="evenodd" clip-rule="evenodd" fill="#FFFFFF" d="M178.124,261.95c0,4.225-3.42,7.649-7.648,7.649h-22.946
		c-4.23,0-7.653-3.424-7.653-7.649v-45.903c0-4.223,3.423-7.649,7.653-7.649h22.946c4.228,0,7.648,3.426,7.648,7.649L178.124,261.95
		L178.124,261.95z M167.476,226.566h-16.949c-1.658,0-2.998-1.285-2.998-2.87c0-1.581,1.341-2.87,2.998-2.87h16.949
		c1.652,0,2.999,1.288,2.999,2.87C170.475,225.281,169.128,226.566,167.476,226.566L167.476,226.566z M167.476,218.917h-16.949
		c-1.658,0-2.998-1.283-2.998-2.87c0-1.584,1.341-2.87,2.998-2.87h16.949c1.652,0,2.999,1.285,2.999,2.87
		C170.475,217.635,169.128,218.917,167.476,218.917L167.476,218.917z M167.476,234.216h-16.949c-1.658,0-2.998-1.283-2.998-2.867
		c0-1.584,1.341-2.868,2.998-2.868h16.949c1.652,0,2.999,1.283,2.999,2.868C170.475,232.934,169.128,234.216,167.476,234.216
		L167.476,234.216z M155.172,254.3c0,2.112-1.71,3.822-3.824,3.822c-2.109,0-3.819-1.71-3.819-3.822c0-2.111,1.71-3.827,3.819-3.827
		C153.462,250.474,155.172,252.19,155.172,254.3z"/>
	<circle fill="#5E2750" cx="375" cy="239" r="51"/>
	<path fill-rule="evenodd" clip-rule="evenodd" fill="#FFFFFF" d="M394.124,261.95c0,4.225-3.42,7.649-7.648,7.649h-22.946
		c-4.23,0-7.653-3.424-7.653-7.649v-45.903c0-4.223,3.423-7.649,7.653-7.649h22.946c4.228,0,7.648,3.426,7.648,7.649V261.95
		L394.124,261.95z M383.476,226.566h-16.949c-1.658,0-2.998-1.285-2.998-2.87c0-1.581,1.341-2.87,2.998-2.87h16.949
		c1.652,0,2.999,1.288,2.999,2.87C386.475,225.281,385.128,226.566,383.476,226.566L383.476,226.566z M383.476,218.917h-16.949
		c-1.658,0-2.998-1.283-2.998-2.87c0-1.584,1.341-2.87,2.998-2.87h16.949c1.652,0,2.999,1.285,2.999,2.87
		C386.475,217.635,385.128,218.917,383.476,218.917L383.476,218.917z M383.476,234.216h-16.949c-1.658,0-2.998-1.283-2.998-2.867
		c0-1.584,1.341-2.868,2.998-2.868h16.949c1.652,0,2.999,1.283,2.999,2.868C386.475,232.934,385.128,234.216,383.476,234.216
		L383.476,234.216z M371.172,254.3c0,2.112-1.71,3.822-3.824,3.822c-2.109,0-3.819-1.71-3.819-3.822c0-2.111,1.71-3.827,3.819-3.827
		C369.462,250.474,371.172,252.19,371.172,254.3z"/>
	<circle fill="#77216F" cx="106" cy="333" r="51"/>
	<path fill-rule="evenodd" clip-rule="evenodd" fill="#FFFFFF" d="M125.124,355.95c0,4.225-3.42,7.649-7.648,7.649H94.529
		c-4.23,0-7.653-3.424-7.653-7.649v-45.903c0-4.223,3.423-7.649,7.653-7.649h22.946c4.228,0,7.648,3.426,7.648,7.649L125.124,355.95
		L125.124,355.95z M114.476,320.566H97.527c-1.658,0-2.998-1.285-2.998-2.87c0-1.581,1.341-2.87,2.998-2.87h16.949
		c1.652,0,2.999,1.288,2.999,2.87C117.475,319.281,116.128,320.566,114.476,320.566L114.476,320.566z M114.476,312.917H97.527
		c-1.658,0-2.998-1.283-2.998-2.87c0-1.584,1.341-2.87,2.998-2.87h16.949c1.652,0,2.999,1.285,2.999,2.87
		C117.475,311.635,116.128,312.917,114.476,312.917L114.476,312.917z M114.476,328.216H97.527c-1.658,0-2.998-1.283-2.998-2.867
		c0-1.584,1.341-2.868,2.998-2.868h16.949c1.652,0,2.999,1.283,2.999,2.868C117.475,326.934,116.128,328.216,114.476,328.216
		L114.476,328.216z M102.172,348.3c0,2.112-1.71,3.822-3.824,3.822c-2.109,0-3.819-1.71-3.819-3.822c0-2.111,1.71-3.827,3.819-3.827
		C100.462,344.474,102.172,346.19,102.172,348.3z"/>
	<circle fill="#77216F" cx="214" cy="333" r="51"/>
	<path fill-rule="evenodd" clip-rule="evenodd" fill="#FFFFFF" d="M233.124,355.95c0,4.225-3.42,7.649-7.648,7.649h-22.946
		c-4.23,0-7.653-3.424-7.653-7.649v-45.903c0-4.223,3.423-7.649,7.653-7.649h22.946c4.228,0,7.648,3.426,7.648,7.649L233.124,355.95
		L233.124,355.95z M222.476,320.566h-16.949c-1.658,0-2.998-1.285-2.998-2.87c0-1.581,1.341-2.87,2.998-2.87h16.949
		c1.652,0,2.999,1.288,2.999,2.87C225.475,319.281,224.128,320.566,222.476,320.566L222.476,320.566z M222.476,312.917h-16.949
		c-1.658,0-2.998-1.283-2.998-2.87c0-1.584,1.341-2.87,2.998-2.87h16.949c1.652,0,2.999,1.285,2.999,2.87
		C225.475,311.635,224.128,312.917,222.476,312.917L222.476,312.917z M222.476,328.216h-16.949c-1.658,0-2.998-1.283-2.998-2.867
		c0-1.584,1.341-2.868,2.998-2.868h16.949c1.652,0,2.999,1.283,2.999,2.868C225.475,326.934,224.128,328.216,222.476,328.216
		L222.476,328.216z M210.172,348.3c0,2.112-1.71,3.822-3.824,3.822c-2.109,0-3.819-1.71-3.819-3.822c0-2.111,1.71-3.827,3.819-3.827
		C208.462,344.474,210.172,346.19,210.172,348.3z"/>
	<circle fill="#2C001E" cx="322" cy="333" r="51"/>
	<path fill-rule="evenodd" clip-rule="evenodd" fill="#FFFFFF" d="M341.124,355.95c0,4.225-3.42,7.649-7.648,7.649h-22.946
		c-4.23,0-7.653-3.424-7.653-7.649v-45.903c0-4.223,3.423-7.649,7.653-7.649h22.946c4.228,0,7.648,3.426,7.648,7.649V355.95
		L341.124,355.95z M330.476,320.566h-16.949c-1.658,0-2.998-1.285-2.998-2.87c0-1.581,1.341-2.87,2.998-2.87h16.949
		c1.652,0,2.999,1.288,2.999,2.87C333.475,319.281,332.128,320.566,330.476,320.566L330.476,320.566z M330.476,312.917h-16.949
		c-1.658,0-2.998-1.283-2.998-2.87c0-1.584,1.341-2.87,2.998-2.87h16.949c1.652,0,2.999,1.285,2.999,2.87
		C333.475,311.635,332.128,312.917,330.476,312.917L330.476,312.917z M330.476,328.216h-16.949c-1.658,0-2.998-1.283-2.998-2.867
		c0-1.584,1.341-2.868,2.998-2.868h16.949c1.652,0,2.999,1.283,2.999,2.868C333.475,326.934,332.128,328.216,330.476,328.216
		L330.476,328.216z M318.172,348.3c0,2.112-1.71,3.822-3.824,3.822c-2.109,0-3.819-1.71-3.819-3.822c0-2.111,1.71-3.827,3.819-3.827
		C316.462,344.474,318.172,346.19,318.172,348.3z"/>
	<circle fill="#5E2750" cx="214" cy="145" r="51"/>
	<path fill-rule="evenodd" clip-rule="evenodd" fill="#FFFFFF" d="M233.124,167.95c0,4.225-3.42,7.649-7.648,7.649h-22.946
		c-4.23,0-7.653-3.424-7.653-7.649v-45.903c0-4.223,3.423-7.649,7.653-7.649h22.946c4.228,0,7.648,3.426,7.648,7.649V167.95
		L233.124,167.95z M222.476,132.566h-16.949c-1.658,0-2.998-1.285-2.998-2.87c0-1.581,1.341-2.87,2.998-2.87h16.949
		c1.652,0,2.999,1.288,2.999,2.87C225.475,131.281,224.128,132.566,222.476,132.566L222.476,132.566z M222.476,124.917h-16.949
		c-1.658,0-2.998-1.283-2.998-2.87c0-1.584,1.341-2.87,2.998-2.87h16.949c1.652,0,2.999,1.285,2.999,2.87
		C225.475,123.635,224.128,124.917,222.476,124.917L222.476,124.917z M222.476,140.216h-16.949c-1.658,0-2.998-1.283-2.998-2.867
		c0-1.584,1.341-2.868,2.998-2.868h16.949c1.652,0,2.999,1.283,2.999,2.868C225.475,138.934,224.128,140.216,222.476,140.216
		L222.476,140.216z M210.172,160.3c0,2.112-1.71,3.822-3.824,3.822c-2.109,0-3.819-1.71-3.819-3.822c0-2.111,1.71-3.827,3.819-3.827
		C208.462,156.474,210.172,158.19,210.172,160.3z"/>
	<circle fill="#2C001E" cx="322" cy="145" r="51"/>
	<path fill-rule="evenodd" clip-rule="evenodd" fill="#FFFFFF" d="M341.124,167.95c0,4.225-3.42,7.649-7.648,7.649h-22.946
		c-4.23,0-7.653-3.424-7.653-7.649v-45.903c0-4.223,3.423-7.649,7.653-7.649h22.946c4.228,0,7.648,3.426,7.648,7.649V167.95
		L341.124,167.95z M330.476,132.566h-16.949c-1.658,0-2.998-1.285-2.998-2.87c0-1.581,1.341-2.87,2.998-2.87h16.949
		c1.652,0,2.999,1.288,2.999,2.87C333.475,131.281,332.128,132.566,330.476,132.566L330.476,132.566z M330.476,124.917h-16.949
		c-1.658,0-2.998-1.283-2.998-2.87c0-1.584,1.341-2.87,2.998-2.87h16.949c1.652,0,2.999,1.285,2.999,2.87
		C333.475,123.635,332.128,124.917,330.476,124.917L330.476,124.917z M330.476,140.216h-16.949c-1.658,0-2.998-1.283-2.998-2.867
		c0-1.584,1.341-2.868,2.998-2.868h16.949c1.652,0,2.999,1.283,2.999,2.868C333.475,138.934,332.128,140.216,330.476,140.216
		L330.476,140.216z M318.172,160.3c0,2.112-1.71,3.822-3.824,3.822c-2.109,0-3.819-1.71-3.819-3.822c0-2.111,1.71-3.827,3.819-3.827
		C316.462,156.474,318.172,158.19,318.172,160.3z"/>
	<circle fill="#77216F" cx="430" cy="145" r="51"/>
	<path fill-rule="evenodd" clip-rule="evenodd" fill="#FFFFFF" d="M449.124,167.95c0,4.225-3.42,7.649-7.648,7.649h-22.946
		c-4.23,0-7.653-3.424-7.653-7.649v-45.903c0-4.223,3.423-7.649,7.653-7.649h22.946c4.228,0,7.648,3.426,7.648,7.649V167.95
		L449.124,167.95z M438.476,132.566h-16.949c-1.658,0-2.998-1.285-2.998-2.87c0-1.581,1.341-2.87,2.998-2.87h16.949
		c1.652,0,2.999,1.288,2.999,2.87C441.475,131.281,440.128,132.566,438.476,132.566L438.476,132.566z M438.476,124.917h-16.949
		c-1.658,0-2.998-1.283-2.998-2.87c0-1.584,1.341-2.87,2.998-2.87h16.949c1.652,0,2.999,1.285,2.999,2.87
		C441.475,123.635,440.128,124.917,438.476,124.917L438.476,124.917z M438.476,140.216h-16.949c-1.658,0-2.998-1.283-2.998-2.867
		c0-1.584,1.341-2.868,2.998-2.868h16.949c1.652,0,2.999,1.283,2.999,2.868C441.475,138.934,440.128,140.216,438.476,140.216
		L438.476,140.216z M426.172,160.3c0,2.112-1.71,3.822-3.824,3.822c-2.109,0-3.819-1.71-3.819-3.822c0-2.111,1.71-3.827,3.819-3.827
		C424.462,156.474,426.172,158.19,426.172,160.3z"/>
</g>
<g id="Grid" display="none">
	<g id="Grid_1_" display="inline">
	</g>
</g>
<g id="Labels">
</g>
</svg>
