<?xml version="1.0" encoding="utf-8"?>
<!-- Generator: Adobe Illustrator 17.0.2, SVG Export Plug-In . SVG Version: 6.00 Build 0)  -->
<!DOCTYPE svg PUBLIC "-//W3C//DTD SVG 1.1//EN" "http://www.w3.org/Graphics/SVG/1.1/DTD/svg11.dtd">
<svg version="1.1" xmlns="http://www.w3.org/2000/svg" xmlns:xlink="http://www.w3.org/1999/xlink" x="0px" y="0px" width="171px"
	 height="176px" viewBox="0 0 171 176" enable-background="new 0 0 171 176" xml:space="preserve">
<g id="BK">
</g>
<g id="Comp">
	<g>
		<g>
			<path fill="#DD4814" d="M106.404,0.363c-24.641,0-44.616,19.975-44.616,44.616s19.976,44.618,44.616,44.618
				c24.641,0,44.617-19.977,44.617-44.618S131.046,0.363,106.404,0.363z"/>
			<path fill="#FFFFFF" d="M84.751,72.568c-0.378,0.378-0.883,0.587-1.419,0.587l0,0c-0.538,0-1.043-0.209-1.423-0.589
				c-0.379-0.378-0.587-0.883-0.587-1.42c0-0.537,0.209-1.041,0.587-1.42c0.38-0.38,0.885-0.589,1.423-0.589
				c0.537,0,1.041,0.209,1.419,0.587c0.379,0.379,0.588,0.884,0.588,1.422C85.339,71.685,85.13,72.189,84.751,72.568z"/>
			<path fill="#FFFFFF" d="M93.506,42.564c-0.202-0.644-0.493-1.173-0.865-1.573c-0.37-0.4-0.819-0.699-1.334-0.89
				c-0.517-0.192-1.103-0.29-1.742-0.29c-0.638,0-1.219,0.097-1.726,0.289c-0.506,0.191-0.95,0.49-1.321,0.89
				c-0.371,0.399-0.662,0.928-0.864,1.573c-0.203,0.648-0.306,1.441-0.306,2.358v23.382h-4.036v-23.74
				c0-1.198,0.162-2.312,0.482-3.313c0.321-1.005,0.826-1.891,1.5-2.636c0.676-0.746,1.538-1.333,2.563-1.745
				c1.023-0.411,2.261-0.62,3.679-0.62c1.418,0,2.665,0.209,3.708,0.619c1.044,0.411,1.917,0.999,2.593,1.745
				c0.674,0.744,1.184,1.631,1.516,2.636c0.33,1.001,0.498,2.116,0.498,3.313v3.222h-4.036v-2.865
				C93.814,44.009,93.71,43.215,93.506,42.564z"/>
			<path fill="#FFFFFF" d="M110.352,58.955c0,1.2-0.167,2.315-0.497,3.314c-0.33,1.003-0.841,1.889-1.516,2.635
				c-0.676,0.746-1.548,1.333-2.593,1.745c-1.043,0.411-2.291,0.62-3.708,0.62s-2.655-0.209-3.679-0.62
				c-1.024-0.411-1.886-0.998-2.562-1.744c-0.675-0.746-1.18-1.634-1.501-2.637c-0.32-1-0.482-2.115-0.482-3.313V48.753h4.036v9.845
				c0,0.917,0.104,1.71,0.306,2.357c0.202,0.645,0.493,1.174,0.864,1.574c0.371,0.4,0.816,0.7,1.32,0.89
				c0.507,0.192,1.087,0.289,1.726,0.289c0.638,0,1.224-0.098,1.741-0.29c0.514-0.19,0.963-0.49,1.334-0.89
				c0.372-0.4,0.664-0.93,0.865-1.574c0.204-0.65,0.307-1.443,0.307-2.357v-9.845h4.036v10.202H110.352z"/>
			<path fill="#FFFFFF" d="M106.326,45.808c0-1.107,0.9-2.008,2.007-2.008c1.108,0,2.01,0.901,2.01,2.008
				c0,1.108-0.902,2.01-2.01,2.01C107.226,47.818,106.326,46.916,106.326,45.808z"/>
			<path fill="#FFFFFF" d="M118.51,17.329c-0.202-0.644-0.494-1.173-0.865-1.574c-0.371-0.4-0.82-0.699-1.334-0.889
				c-0.516-0.192-1.102-0.289-1.741-0.289c-0.638,0-1.219,0.097-1.725,0.289c-0.506,0.191-0.95,0.49-1.321,0.89
				c-0.37,0.4-0.662,0.929-0.863,1.574c-0.203,0.648-0.306,1.441-0.306,2.358v23.382h-4.036V19.329c0-1.197,0.162-2.312,0.482-3.313
				c0.321-1.005,0.826-1.892,1.501-2.636c0.675-0.746,1.537-1.333,2.563-1.744c1.024-0.411,2.261-0.62,3.678-0.62
				c1.417,0,2.665,0.209,3.708,0.62c1.046,0.412,1.918,0.999,2.592,1.745c0.675,0.744,1.185,1.631,1.516,2.635
				c0.33,1.002,0.497,2.117,0.497,3.314v3.222h-4.037v-2.864C118.817,18.772,118.714,17.978,118.51,17.329z"/>
			<path fill="#FFFFFF" d="M135.355,33.72c0,1.199-0.167,2.315-0.497,3.314c-0.331,1.004-0.84,1.89-1.515,2.635
				c-0.677,0.746-1.549,1.333-2.593,1.745c-1.044,0.411-2.292,0.62-3.708,0.62c-1.418,0-2.656-0.209-3.68-0.62
				c-1.025-0.411-1.886-0.998-2.562-1.744c-0.675-0.745-1.18-1.632-1.501-2.636c-0.32-1.002-0.482-2.117-0.482-3.313V23.518h4.036
				v9.845c0,0.915,0.103,1.708,0.307,2.358c0.202,0.644,0.493,1.173,0.865,1.573c0.371,0.4,0.815,0.7,1.32,0.89
				c0.507,0.192,1.087,0.289,1.725,0.289c0.639,0,1.225-0.098,1.742-0.29c0.514-0.19,0.963-0.489,1.335-0.89
				c0.371-0.399,0.662-0.928,0.864-1.573c0.204-0.649,0.307-1.442,0.307-2.358v-9.845h4.036L135.355,33.72L135.355,33.72z"/>
		</g>
		<g>
			<path d="M6.775,175.637c-0.86,0-1.971-0.107-3.334-0.323c-1.361-0.215-2.509-0.502-3.442-0.86l1.291-8.174
				c0.718,0.215,1.543,0.393,2.474,0.538c0.932,0.143,1.793,0.215,2.581,0.215c3.442,0,5.897-1.059,7.367-3.172
				c1.469-2.116,2.205-5.216,2.205-9.303V99.6h10.002v54.85c0,7.169-1.632,12.492-4.893,15.971
				C17.762,173.898,13.013,175.637,6.775,175.637z"/>
			<path d="M85.608,153.912c-2.296,0.575-5.324,1.183-9.088,1.829c-3.764,0.645-8.12,0.968-13.067,0.968
				c-4.302,0-7.923-0.629-10.862-1.882c-2.941-1.253-5.306-3.028-7.098-5.323c-1.793-2.294-3.084-5.001-3.872-8.12
				c-0.79-3.119-1.183-6.577-1.183-10.378V99.6H50.44v29.253c0,6.812,1.076,11.687,3.226,14.627
				c2.151,2.941,5.771,4.409,10.862,4.409c1.076,0,2.186-0.035,3.334-0.107c1.146-0.071,2.221-0.161,3.227-0.269
				c1.003-0.108,1.917-0.215,2.742-0.323c0.824-0.107,1.415-0.232,1.775-0.376V99.6h10.002L85.608,153.912L85.608,153.912z"/>
			<path d="M92.168,175.637c-0.86,0-1.971-0.107-3.334-0.323c-1.361-0.215-2.509-0.502-3.442-0.86l1.291-8.174
				c0.718,0.215,1.543,0.393,2.474,0.538c0.933,0.143,1.793,0.215,2.581,0.215c3.442,0,5.897-1.059,7.367-3.172
				c1.469-2.116,2.205-5.216,2.205-9.303V99.6h10.002v54.85c0,7.169-1.632,12.492-4.894,15.971
				C103.155,173.898,98.406,175.637,92.168,175.637z"/>
			<path d="M171,153.912c-2.295,0.575-5.324,1.183-9.088,1.829c-3.764,0.645-8.12,0.968-13.067,0.968
				c-4.302,0-7.923-0.629-10.862-1.882c-2.941-1.253-5.307-3.028-7.098-5.323c-1.793-2.294-3.083-5.001-3.872-8.12
				c-0.79-3.119-1.183-6.577-1.183-10.378V99.6h10.002v29.253c0,6.812,1.075,11.687,3.226,14.627
				c2.151,2.941,5.771,4.409,10.862,4.409c1.075,0,2.187-0.035,3.334-0.107c1.146-0.071,2.222-0.161,3.227-0.269
				c1.003-0.108,1.917-0.215,2.742-0.323c0.823-0.107,1.415-0.232,1.774-0.376V99.6h10.002L171,153.912L171,153.912z"/>
		</g>
	</g>
</g>
<g id="Grid" display="none">
</g>
</svg>
