<?xml version="1.0" encoding="utf-8"?>
<!-- Generator: Adobe Illustrator 17.0.2, SVG Export Plug-In . SVG Version: 6.00 Build 0)  -->
<!DOCTYPE svg PUBLIC "-//W3C//DTD SVG 1.1//EN" "http://www.w3.org/Graphics/SVG/1.1/DTD/svg11.dtd">
<svg version="1.1" xmlns="http://www.w3.org/2000/svg" xmlns:xlink="http://www.w3.org/1999/xlink" x="0px" y="0px" width="100px"
	 height="100px" viewBox="0 0 100 100" enable-background="new 0 0 100 100" xml:space="preserve">
<g id="BK">
</g>
<g id="Comp">
	<path fill="#DD4814" d="M50,0C22.385,0,0,22.383,0,49.997C0,77.611,22.385,100,50,100c27.613,0,50-22.389,50-50.003
		C100,22.383,77.613,0,50,0z"/>
	<path fill="#FFFFFF" d="M25.733,80.915c-0.425,0.427-0.987,0.659-1.59,0.659l0,0c-0.603,0-1.169-0.234-1.594-0.662
		c-0.424-0.424-0.66-0.987-0.66-1.59c0-0.6,0.236-1.166,0.66-1.594c0.424-0.424,0.991-0.658,1.594-0.658s1.165,0.234,1.59,0.658
		c0.424,0.424,0.658,0.99,0.658,1.594C26.392,79.925,26.158,80.488,25.733,80.915z"/>
	<path fill="#FFFFFF" d="M35.545,47.291c-0.226-0.721-0.553-1.314-0.968-1.764c-0.416-0.446-0.919-0.784-1.498-0.996
		c-0.579-0.215-1.234-0.324-1.949-0.324c-0.717,0-1.368,0.109-1.935,0.324c-0.566,0.212-1.063,0.55-1.481,0.996
		c-0.413,0.449-0.741,1.043-0.965,1.764c-0.23,0.729-0.346,1.615-0.346,2.645v26.203H21.88V49.531c0-1.34,0.18-2.59,0.539-3.711
		c0.36-1.125,0.926-2.117,1.683-2.955c0.757-0.837,1.723-1.492,2.871-1.953c1.145-0.463,2.534-0.697,4.123-0.697
		c1.59,0,2.989,0.234,4.156,0.697c1.17,0.461,2.15,1.116,2.907,1.953c0.753,0.838,1.326,1.828,1.699,2.955
		c0.367,1.121,0.558,2.371,0.558,3.711v3.613h-4.521v-3.209C35.89,48.909,35.774,48.021,35.545,47.291z"/>
	<path fill="#FFFFFF" d="M54.425,65.658c0,1.348-0.188,2.598-0.56,3.717c-0.37,1.125-0.94,2.117-1.697,2.955
		c-0.757,0.834-1.736,1.492-2.905,1.953c-1.169,0.46-2.569,0.694-4.156,0.694c-1.589,0-2.974-0.234-4.121-0.694
		c-1.151-0.461-2.115-1.119-2.875-1.953c-0.755-0.838-1.319-1.83-1.68-2.955c-0.358-1.121-0.542-2.371-0.542-3.717V54.227h4.523
		v11.035c0,1.024,0.117,1.914,0.346,2.641c0.228,0.725,0.552,1.317,0.966,1.763c0.419,0.449,0.915,0.784,1.48,0.999
		c0.569,0.215,1.219,0.324,1.937,0.324c0.713,0,1.372-0.112,1.95-0.327c0.575-0.212,1.079-0.55,1.495-0.996
		c0.417-0.449,0.744-1.04,0.97-1.761c0.23-0.73,0.346-1.621,0.346-2.643V54.227h4.522v11.432H54.425z"/>
	<path fill="#FFFFFF" d="M49.912,50.93c0-1.245,1.008-2.252,2.25-2.252c1.241,0,2.252,1.007,2.252,2.252
		c0,1.238-1.011,2.248-2.252,2.248C50.919,53.178,49.912,52.168,49.912,50.93z"/>
	<path fill="#FFFFFF" d="M63.565,19.012c-0.226-0.719-0.552-1.316-0.968-1.763c-0.416-0.449-0.92-0.784-1.495-0.996
		c-0.58-0.218-1.235-0.323-1.952-0.323c-0.714,0-1.366,0.106-1.935,0.32c-0.565,0.215-1.064,0.552-1.479,0.999
		c-0.416,0.446-0.741,1.04-0.967,1.763c-0.23,0.729-0.345,1.613-0.345,2.643v26.203h-4.524V21.255c0-1.341,0.181-2.591,0.541-3.713
		c0.36-1.128,0.925-2.12,1.682-2.958c0.755-0.834,1.722-1.49,2.871-1.953c1.148-0.46,2.535-0.697,4.122-0.697
		c1.587,0,2.985,0.237,4.154,0.697c1.173,0.463,2.149,1.119,2.905,1.953c0.759,0.838,1.329,1.83,1.701,2.955
		c0.369,1.125,0.556,2.375,0.556,3.716v3.608h-4.523v-3.209C63.911,20.63,63.793,19.74,63.565,19.012z"/>
	<path fill="#FFFFFF" d="M82.446,37.38c0,1.345-0.188,2.595-0.56,3.714c-0.371,1.127-0.94,2.121-1.695,2.955
		c-0.761,0.834-1.737,1.492-2.906,1.955c-1.172,0.458-2.569,0.692-4.156,0.692c-1.591,0-2.978-0.234-4.125-0.692
		c-1.147-0.463-2.114-1.121-2.872-1.955c-0.755-0.834-1.322-1.828-1.683-2.955c-0.355-1.121-0.538-2.371-0.538-3.714V25.949h4.523
		V36.98c0,1.024,0.116,1.914,0.345,2.643c0.226,0.723,0.551,1.314,0.969,1.764c0.415,0.446,0.915,0.781,1.479,0.996
		c0.568,0.215,1.218,0.326,1.934,0.326c0.717,0,1.374-0.111,1.953-0.326c0.576-0.215,1.078-0.55,1.494-0.996
		c0.415-0.449,0.743-1.041,0.97-1.764c0.228-0.729,0.346-1.618,0.346-2.643V25.949h4.52V37.38H82.446z"/>
</g>
<g id="Grid" display="none">
</g>
</svg>
