<svg xmlns="http://www.w3.org/2000/svg" width="256" height="240" viewBox="0 0 256 240"><g><path fill="#2C001E" d="M157.996 8.05C129.306-8.52 92.616 1.31 76.048 30c-16.567 28.698-6.738 65.39 21.96 81.952 28.69 16.565 65.38 6.732 81.945-21.958 16.566-28.698 6.734-65.383-21.957-81.945zM150.498 87c0 4.97-4.024 9-8.998 9h-26.996c-4.976 0-9.003-4.03-9.003-9V32.997c0-4.968 4.028-9 9.004-9H141.5c4.974 0 8.998 4.032 8.998 9V87zm-12.526-41.628h-19.94c-1.95 0-3.527-1.512-3.527-3.376 0-1.86 1.578-3.376 3.527-3.376h19.94c1.943 0 3.528 1.516 3.528 3.376 0 1.864-1.585 3.376-3.528 3.376zm0-9h-19.94c-1.95 0-3.527-1.508-3.527-3.375 0-1.864 1.578-3.376 3.527-3.376h19.94c1.943 0 3.528 1.513 3.528 3.377 0 1.867-1.585 3.376-3.528 3.376zm0 18h-19.94c-1.95 0-3.527-1.51-3.527-3.374s1.578-3.374 3.527-3.374h19.94c1.943 0 3.528 1.51 3.528 3.374 0 1.865-1.585 3.373-3.528 3.373zM123.496 78c0 2.485-2.012 4.497-4.5 4.497-2.48 0-4.492-2.012-4.492-4.497 0-2.484 2.012-4.502 4.493-4.502 2.487 0 4.5 2.02 4.5 4.502z"/><path fill="#DD4814" d="M256 180c0 33.136-26.863 60-59.998 60-33.14 0-60.002-26.864-60.002-60 0-33.137 26.862-60 60.002-60C229.138 120 256 146.863 256 180zm-100.798-8.012c-4.426 0-8.014 3.587-8.014 8.013 0 4.425 3.59 8.01 8.014 8.01 4.424 0 8.01-3.585 8.01-8.01s-3.585-8.012-8.01-8.012zm57.195 36.41c-3.832 2.213-5.143 7.11-2.932 10.938 2.21 3.832 7.11 5.145 10.938 2.93 3.832-2.21 5.146-7.105 2.932-10.938-2.208-3.828-7.11-5.14-10.938-2.93zM172.602 180c0-7.916 3.932-14.91 9.95-19.145l-5.86-9.81c-7.007 4.687-12.222 11.845-14.39 20.23 2.53 2.064 4.15 5.204 4.15 8.725 0 3.52-1.62 6.66-4.15 8.724 2.164 8.388 7.38 15.547 14.39 20.23l5.86-9.81c-6.018-4.233-9.95-11.227-9.95-19.143zm23.4-23.4c12.22 0 22.25 9.373 23.303 21.325l11.415-.167c-.562-8.824-4.418-16.746-10.34-22.572-3.046 1.15-6.564.975-9.605-.778-3.047-1.758-4.958-4.724-5.478-7.943-2.96-.817-6.077-1.264-9.3-1.264-5.536 0-10.77 1.302-15.42 3.603l5.567 9.974c2.995-1.394 6.336-2.177 9.858-2.177zm0 46.798c-3.523 0-6.864-.783-9.858-2.176l-5.567 9.974c4.65 2.304 9.884 3.605 15.425 3.605 3.22 0 6.335-.447 9.295-1.266.523-3.22 2.432-6.182 5.478-7.943 3.044-1.754 6.56-1.928 9.604-.777 5.922-5.826 9.777-13.747 10.34-22.57l-11.418-.17c-1.05 11.956-11.078 21.325-23.3 21.325zm16.392-51.8c3.832 2.214 8.73.903 10.94-2.928 2.214-3.832.9-8.73-2.93-10.943-3.83-2.21-8.73-.896-10.942 2.935-2.208 3.83-.897 8.727 2.932 10.937z"/><path fill="#0095D9" d="M59.833 120.156c1.782-.01 3.557-.414 5.325-.038 7.828.694 15.546 2.845 22.51 6.51 9.007 4.614 16.756 11.628 22.378 20.034 5.735 8.55 9.13 18.617 9.897 28.877-.126 2.714-.205 5.447.058 8.155-.56 7.8-2.513 15.536-5.994 22.56-3.97 8.163-9.85 15.386-17.007 20.967-8.92 6.993-19.863 11.367-31.155 12.404-1.72.123-3.437.44-5.167.308-1.146-.076-2.32.29-3.42-.178 4.217-11.863 8.43-23.73 12.684-35.583 4.63-.085 9.264.03 13.894-.055 2.955-.103 5.876-1.902 6.847-4.774 3.916-11.025 7.93-22.02 11.723-33.093.622-1.67.968-3.535.472-5.286-.67-2.22-2.7-3.79-4.883-4.377-1.895-.588-3.895-.373-5.844-.407-5.943-.017-11.886.03-17.826-.027l-.386.787c-9.624 27.03-19.23 54.067-28.89 81.083-9.924-2.575-19.17-7.732-26.544-14.86-8.88-8.497-15.047-19.8-17.328-31.88-.718-3.63-.978-7.323-1.176-11.007.16-7.67 1.42-15.375 4.31-22.51 7.047-18.018 23.356-32.207 42.315-36.263-9.705 26.91-19.185 53.903-28.887 80.816.62.187 1.27.115 1.905.122 3.536-.017 7.076.007 10.612-.007.482-.003.43-.674.633-.98 4.26-12.032 8.573-24.046 12.848-36.07.256-.745.496-1.497.838-2.205 2.216.038 4.432-.01 6.648.024-4.647 13.033-9.254 26.086-13.97 39.095.492.197 1.03.136 1.546.146 3.714-.035 7.428.024 11.142-.027 4.196-11.844 8.443-23.666 12.65-35.502.9-2.42.978-5.284-.45-7.517-1.25-1.976-3.62-2.92-5.88-3.012-3.09-.092-6.186.007-9.28-.048 4.252-12.07 8.633-24.098 12.853-36.184zM84.472 163.334c.37-.417 1.026-.164 1.518-.236 1.717.03 3.433-.014 5.15.024-3.998 11.412-8.184 22.76-12.116 34.194-2.223.157-4.463.062-6.69.048 4.06-11.336 8.08-22.69 12.138-34.03z"/></g></svg>