<svg xmlns="http://www.w3.org/2000/svg" width="100" height="100" viewBox="0 0 100 100"><g><path fill="#DD4814" d="M50 0C22.385 0 0 22.383 0 49.997S22.385 100 50 100c27.613 0 50-22.39 50-50.003C100 22.383 77.613 0 50 0z"/><path fill="#fff" d="M25.733 80.915c-.425.427-.987.66-1.59.66-.603 0-1.17-.235-1.594-.663-.425-.424-.66-.987-.66-1.59 0-.6.235-1.166.66-1.594.423-.424.99-.658 1.593-.658s1.165.234 1.59.658c.424.424.658.99.658 1.594.002.603-.232 1.166-.657 1.593zM35.545 47.29c-.226-.72-.553-1.313-.968-1.763-.416-.446-.92-.784-1.498-.996-.58-.214-1.235-.323-1.95-.323-.717 0-1.368.11-1.935.324-.566.213-1.063.55-1.48.997-.414.45-.742 1.043-.966 1.764-.23.73-.347 1.616-.347 2.646V76.14H21.88V49.53c0-1.34.18-2.59.54-3.71.36-1.125.925-2.117 1.682-2.955.757-.837 1.723-1.492 2.87-1.953 1.146-.463 2.535-.697 4.124-.697 1.59 0 2.99.234 4.156.697 1.17.46 2.15 1.116 2.907 1.953.752.838 1.325 1.828 1.698 2.955.367 1.12.558 2.37.558 3.71v3.614h-4.52v-3.21c-.006-1.025-.122-1.913-.35-2.643zM54.425 65.658c0 1.348-.188 2.598-.56 3.717-.37 1.125-.94 2.117-1.697 2.955-.757.834-1.736 1.492-2.905 1.953-1.17.46-2.57.694-4.156.694-1.59 0-2.974-.234-4.12-.694-1.152-.46-2.116-1.12-2.876-1.953-.754-.838-1.318-1.83-1.68-2.955-.357-1.12-.54-2.37-.54-3.717v-11.43h4.522V65.26c0 1.024.117 1.914.346 2.64.228.726.552 1.318.966 1.764.42.45.915.784 1.48 1 .57.214 1.22.323 1.937.323.714 0 1.373-.113 1.95-.328.576-.212 1.08-.55 1.496-.996.417-.45.744-1.04.97-1.76.23-.73.346-1.622.346-2.644V54.227h4.522V65.66zM49.912 50.93c0-1.245 1.008-2.252 2.25-2.252 1.24 0 2.252 1.007 2.252 2.252 0 1.238-1.01 2.248-2.252 2.248-1.243 0-2.25-1.01-2.25-2.248zM63.565 19.012c-.226-.72-.552-1.316-.968-1.763-.416-.45-.92-.785-1.495-.997-.58-.218-1.235-.323-1.952-.323-.714 0-1.366.106-1.935.32-.565.215-1.064.552-1.48 1-.415.445-.74 1.04-.966 1.762-.23.73-.346 1.613-.346 2.643v26.203H49.9V21.255c0-1.34.18-2.59.54-3.713.36-1.128.926-2.12 1.683-2.958.755-.834 1.722-1.49 2.87-1.953 1.15-.46 2.536-.696 4.123-.696 1.587 0 2.985.237 4.154.697 1.173.464 2.15 1.12 2.905 1.954.76.838 1.33 1.83 1.7 2.955.37 1.124.557 2.374.557 3.715v3.608H63.91v-3.21c0-1.023-.117-1.913-.345-2.64zM82.446 37.38c0 1.345-.188 2.595-.56 3.714-.37 1.127-.94 2.12-1.695 2.955-.76.833-1.736 1.49-2.905 1.954-1.172.458-2.57.692-4.156.692-1.592 0-2.98-.234-4.126-.692-1.147-.463-2.114-1.12-2.872-1.955-.755-.835-1.322-1.83-1.683-2.956-.356-1.12-.54-2.37-.54-3.714V25.95h4.524v11.03c0 1.024.116 1.914.345 2.643.225.723.55 1.314.968 1.764.415.446.915.78 1.48.996.567.215 1.217.326 1.933.326.718 0 1.375-.112 1.954-.327.576-.215 1.078-.55 1.494-.996.415-.45.743-1.04.97-1.764.228-.73.346-1.618.346-2.643V25.95h4.52v11.43h.002z"/></g></svg>