<?xml version="1.0" encoding="utf-8"?>
<!-- Generator: Adobe Illustrator 17.0.2, SVG Export Plug-In . SVG Version: 6.00 Build 0)  -->
<!DOCTYPE svg PUBLIC "-//W3C//DTD SVG 1.1//EN" "http://www.w3.org/Graphics/SVG/1.1/DTD/svg11.dtd">
<svg version="1.1" id="Layer_1" xmlns="http://www.w3.org/2000/svg" xmlns:xlink="http://www.w3.org/1999/xlink" x="0px" y="0px"
	 width="400px" height="121px" viewBox="0 0 400 121" enable-background="new 0 0 400 121" xml:space="preserve">
<g id="BK">
</g>
<g id="Comp">
	<path fill="#888888" d="M194.759,67.284c1.466,1.465,3.384,2.196,5.303,2.196c1.919,0,3.838-0.731,5.301-2.196l13.404-13.404
		v25.858h-37.5V53.791L194.759,67.284z M230.027,9.055c-2.321-1.344-5.182-1.346-7.505-0.007s-3.755,3.816-3.755,6.498v22.712
		l-13.404-13.402c-2.926-2.928-7.674-2.928-10.605,0l-13.492,13.492v-22.82c0-2.681-1.431-5.157-3.752-6.498
		c-2.321-1.338-5.181-1.338-7.502,0.004C151.503,19.738,140,39.649,140,60.996C140,94.081,166.918,121,200.001,121
		S260,94.081,260,60.996C260,39.669,248.516,19.765,230.027,9.055"/>
	<path fill="#5E2750" d="M350.611,49.86c2.833,2.832,4.393,6.6,4.393,10.607c0,4.007-1.561,7.772-4.393,10.606
		s-6.599,4.393-10.605,4.393c-4.007,0-7.773-1.561-10.606-4.393c-2.833-2.834-4.394-6.6-4.394-10.606s1.561-7.771,4.395-10.606
		c2.833-2.834,6.6-4.394,10.606-4.394C344.011,45.466,347.778,47.026,350.611,49.86z M382.426,102.926
		c-23.433,23.433-61.418,23.433-84.852,0c-23.43-23.435-23.432-61.418,0-84.851c23.434-23.432,61.421-23.434,84.852-0.002
		C405.858,41.507,405.858,79.494,382.426,102.926z M384.963,67.879V52.88h-15.926c-0.707-2.722-1.789-5.322-3.23-7.739l11.278-11.28
		l-10.607-10.606L355.165,34.57c-2.406-1.415-4.993-2.482-7.698-3.172V15.38h-15v16.042c-2.696,0.695-5.274,1.763-7.671,3.179
		l-11.344-11.345l-10.608,10.606l11.333,11.333c-1.426,2.4-2.5,4.983-3.2,7.685h-16.01v14.999h15.961
		c0.689,2.723,1.762,5.327,3.185,7.748l-11.269,11.268l10.608,10.606l11.233-11.233c2.428,1.448,5.044,2.536,7.782,3.241v15.869h15
		V89.53c2.748-0.701,5.373-1.786,7.813-3.235l11.202,11.204l10.607-10.606l-11.215-11.217c1.437-2.435,2.52-5.057,3.214-7.8h15.878
		v0.003H384.963z"/>
	<path fill="#2C001E" d="M89.996,8.55C61.305-8.018,24.616,1.811,8.048,30.501C-8.519,59.198,1.31,95.89,30.008,112.453
		c28.692,16.565,65.382,6.732,81.946-21.958C128.519,61.797,118.687,25.112,89.996,8.55z M82.498,87.501
		c0,4.971-4.024,8.999-8.998,8.999H46.505c-4.976,0-9.003-4.028-9.003-8.999V33.498c0-4.968,4.027-8.999,9.003-8.999H73.5
		c4.974,0,8.998,4.031,8.998,8.999V87.501L82.498,87.501z M69.972,45.873h-19.94c-1.95,0-3.527-1.512-3.527-3.376
		c0-1.861,1.578-3.376,3.527-3.376h19.94c1.943,0,3.528,1.516,3.528,3.376C73.5,44.361,71.915,45.873,69.972,45.873L69.972,45.873z
		 M69.972,36.874h-19.94c-1.95,0-3.527-1.509-3.527-3.376c0-1.864,1.578-3.376,3.527-3.376h19.94c1.943,0,3.528,1.512,3.528,3.376
		C73.5,35.365,71.915,36.874,69.972,36.874L69.972,36.874z M69.972,54.872h-19.94c-1.95,0-3.527-1.509-3.527-3.373
		c0-1.864,1.578-3.374,3.527-3.374h19.94c1.943,0,3.528,1.509,3.528,3.374S71.915,54.872,69.972,54.872L69.972,54.872z
		 M55.496,78.501c0,2.485-2.012,4.497-4.499,4.497c-2.481,0-4.493-2.012-4.493-4.497c0-2.484,2.012-4.502,4.493-4.502
		C53.484,73.999,55.496,76.018,55.496,78.501z"/>
</g>
<g id="Grid" display="none">
	<g id="Grid_1_" display="inline">
	</g>
</g>
<g id="Labels">
</g>
</svg>
