<svg xmlns="http://www.w3.org/2000/svg" width="400" height="121" viewBox="0 0 400 121"><g><path fill="#888" d="M194.76 67.284c1.465 1.465 3.383 2.196 5.302 2.196 1.92 0 3.838-.73 5.3-2.196l13.405-13.404v25.858h-37.5V53.79l13.492 13.494zm35.267-58.23c-2.32-1.343-5.182-1.345-7.505-.006s-3.755 3.816-3.755 6.498v22.712l-13.404-13.402c-2.926-2.928-7.674-2.928-10.605 0l-13.492 13.492v-22.82c0-2.68-1.43-5.157-3.752-6.498-2.32-1.338-5.18-1.338-7.502.004C151.502 19.738 140 39.65 140 60.996 140 94.08 166.918 121 200 121s60-26.92 60-60.004c0-21.327-11.484-41.23-29.973-51.94"/><path fill="#5E2750" d="M350.61 49.86c2.834 2.832 4.394 6.6 4.394 10.607s-1.56 7.772-4.393 10.606-6.598 4.393-10.604 4.393c-4.007 0-7.773-1.56-10.606-4.393-2.833-2.834-4.394-6.6-4.394-10.606s1.56-7.77 4.395-10.606c2.834-2.833 6.6-4.393 10.607-4.393 4.004 0 7.77 1.56 10.604 4.393zm31.816 53.066c-23.433 23.433-61.418 23.433-84.852 0-23.43-23.435-23.432-61.418 0-84.85 23.434-23.433 61.42-23.435 84.852-.003 23.432 23.434 23.432 61.42 0 84.853zm2.537-35.047v-15h-15.926c-.707-2.722-1.79-5.322-3.23-7.74l11.278-11.28-10.607-10.605-11.313 11.315c-2.406-1.415-4.993-2.482-7.698-3.172V15.38h-15v16.042c-2.696.695-5.274 1.763-7.67 3.18L313.45 23.255l-10.608 10.606 11.333 11.333c-1.426 2.4-2.5 4.983-3.2 7.685h-16.01v15h15.96c.69 2.722 1.763 5.326 3.186 7.747l-11.27 11.268 10.61 10.606 11.232-11.232c2.428 1.448 5.044 2.536 7.782 3.24v15.87h15V89.53c2.748-.7 5.373-1.786 7.813-3.235L366.482 97.5l10.607-10.607-11.216-11.217c1.437-2.435 2.52-5.057 3.214-7.8h15.878v.003h-.003z"/><path fill="#2C001E" d="M89.996 8.55C61.306-8.018 24.616 1.81 8.048 30.5-8.52 59.2 1.31 95.89 30.008 112.454c28.692 16.565 65.382 6.732 81.946-21.958 16.565-28.698 6.733-65.383-21.958-81.945zM82.498 87.5c0 4.972-4.024 9-8.998 9H46.505c-4.976 0-9.003-4.028-9.003-9V33.5c0-4.968 4.027-9 9.003-9H73.5c4.974 0 8.998 4.032 8.998 9V87.5zM69.972 45.874h-19.94c-1.95 0-3.527-1.512-3.527-3.376 0-1.86 1.578-3.376 3.527-3.376h19.94c1.943 0 3.528 1.517 3.528 3.377 0 1.864-1.585 3.376-3.528 3.376zm0-9h-19.94c-1.95 0-3.527-1.508-3.527-3.375 0-1.864 1.578-3.376 3.527-3.376h19.94c1.943 0 3.528 1.512 3.528 3.376 0 1.867-1.585 3.376-3.528 3.376zm0 18h-19.94c-1.95 0-3.527-1.51-3.527-3.374 0-1.865 1.578-3.375 3.527-3.375h19.94c1.943 0 3.528 1.51 3.528 3.374s-1.585 3.372-3.528 3.372zM55.496 78.5c0 2.486-2.012 4.498-4.5 4.498-2.48 0-4.492-2.012-4.492-4.497 0-2.483 2.012-4.5 4.493-4.5 2.487 0 4.5 2.018 4.5 4.5z"/></g></svg>