<?xml version="1.0" encoding="utf-8"?>
<!-- Generator: Adobe Illustrator 15.1.0, SVG Export Plug-In . SVG Version: 6.00 Build 0)  -->
<!DOCTYPE svg PUBLIC "-//W3C//DTD SVG 1.1//EN" "http://www.w3.org/Graphics/SVG/1.1/DTD/svg11.dtd">
<svg version="1.1" id="premier" xmlns="http://www.w3.org/2000/svg" xmlns:xlink="http://www.w3.org/1999/xlink" x="0px" y="0px"
	 width="212.6px" height="306.141px" viewBox="92.126 92.126 212.6 306.141" enable-background="new 92.126 92.126 212.6 306.141"
	 xml:space="preserve">
<g>
	<g>
		<path fill="#2C001E" d="M304.725,381.259c0,9.393-7.615,17.008-17.009,17.008H109.134c-9.393,0-17.008-7.615-17.008-17.008
			V109.134c0-9.393,7.615-17.008,17.008-17.008h178.583c9.394,0,17.009,7.615,17.009,17.008V381.259L304.725,381.259z"/>
	</g>
	<g>
		<path fill="#FFFFFF" d="M138.113,262.052c3.432,0,6.069,0.652,7.914,1.957c1.845,1.303,2.768,3.25,2.768,5.832
			c0,1.41-0.253,2.617-0.758,3.613c-0.506,1-1.232,1.811-2.187,2.434c-0.951,0.623-2.108,1.074-3.473,1.357
			c-1.362,0.28-2.901,0.422-4.616,0.422h-2.716v9.06h-3.419v-24.074c0.963-0.235,2.039-0.394,3.227-0.479
			C136.039,262.091,137.127,262.052,138.113,262.052z M138.396,265.048c-1.457,0-2.572,0.037-3.35,0.105v9.59h2.573
			c1.175,0,2.232-0.078,3.173-0.229c0.939-0.153,1.732-0.413,2.38-0.776c0.646-0.363,1.146-0.861,1.498-1.498
			c0.354-0.633,0.528-1.445,0.528-2.434c0-0.938-0.183-1.715-0.547-2.324c-0.364-0.613-0.857-1.098-1.479-1.465
			c-0.623-0.364-1.347-0.617-2.168-0.758C140.182,265.119,139.312,265.048,138.396,265.048z"/>
		<path fill="#FFFFFF" d="M159.387,268.009c0.281,0,0.604,0.018,0.97,0.053c0.364,0.036,0.723,0.082,1.075,0.143
			c0.353,0.059,0.676,0.117,0.969,0.176c0.295,0.06,0.512,0.111,0.652,0.158l-0.563,2.854c-0.259-0.093-0.688-0.206-1.287-0.334
			s-1.369-0.192-2.309-0.192c-0.611,0-1.218,0.064-1.815,0.192c-0.6,0.128-0.992,0.216-1.181,0.267v15.401h-3.278v-17.554
			c0.775-0.281,1.738-0.547,2.891-0.793C156.661,268.134,157.953,268.009,159.387,268.009z"/>
		<path fill="#FFFFFF" d="M164.843,277.596c0-1.619,0.235-3.036,0.706-4.245c0.471-1.21,1.094-2.217,1.868-3.014
			c0.775-0.801,1.668-1.399,2.68-1.801c1.01-0.398,2.045-0.6,3.102-0.6c2.468,0,4.359,0.771,5.676,2.312
			c1.315,1.537,1.975,3.881,1.975,7.031c0,0.141,0,0.321,0,0.545c0,0.227-0.013,0.43-0.035,0.618h-12.549
			c0.141,1.902,0.692,3.349,1.656,4.335c0.963,0.986,2.468,1.48,4.513,1.48c1.15,0,2.12-0.102,2.907-0.301
			c0.787-0.201,1.381-0.395,1.78-0.58l0.458,2.746c-0.399,0.215-1.099,0.438-2.098,0.674c-0.999,0.232-2.133,0.351-3.401,0.351
			c-1.599,0-2.979-0.239-4.142-0.722c-1.163-0.48-2.122-1.146-2.873-1.993c-0.753-0.847-1.312-1.849-1.675-3.013
			C165.026,280.257,164.843,278.986,164.843,277.596z M177.428,275.798c0.021-1.479-0.348-2.693-1.11-3.647
			c-0.765-0.95-1.815-1.427-3.155-1.427c-0.752,0-1.415,0.148-1.991,0.439c-0.575,0.295-1.062,0.676-1.463,1.146
			c-0.398,0.469-0.711,1.01-0.934,1.62c-0.226,0.612-0.371,1.235-0.441,1.868H177.428L177.428,275.798z"/>
		<path fill="#FFFFFF" d="M185.362,268.923c0.752-0.187,1.745-0.387,2.979-0.596c1.233-0.213,2.661-0.318,4.282-0.318
			c1.176,0,2.162,0.158,2.962,0.477c0.798,0.317,1.47,0.779,2.01,1.393c0.163-0.116,0.424-0.28,0.774-0.494
			c0.354-0.211,0.787-0.416,1.305-0.616c0.517-0.198,1.093-0.373,1.728-0.526c0.635-0.154,1.315-0.229,2.045-0.229
			c1.41,0,2.562,0.206,3.455,0.616c0.893,0.412,1.592,0.992,2.097,1.744c0.505,0.754,0.848,1.646,1.022,2.678
			c0.176,1.037,0.264,2.164,0.264,3.388v10.291h-3.277v-9.587c0-1.082-0.054-2.01-0.158-2.786c-0.105-0.774-0.307-1.42-0.6-1.938
			c-0.295-0.519-0.692-0.897-1.197-1.146c-0.507-0.246-1.158-0.367-1.957-0.367c-1.104,0-2.017,0.145-2.731,0.439
			c-0.717,0.295-1.205,0.557-1.463,0.793c0.188,0.609,0.328,1.281,0.423,2.01c0.094,0.729,0.141,1.492,0.141,2.292v10.291h-3.277
			v-9.587c0-1.082-0.06-2.01-0.176-2.786c-0.118-0.774-0.323-1.42-0.617-1.938s-0.693-0.897-1.198-1.146
			c-0.506-0.246-1.146-0.367-1.922-0.367c-0.329,0-0.683,0.01-1.058,0.032c-0.377,0.026-0.733,0.054-1.075,0.089
			c-0.342,0.036-0.651,0.078-0.935,0.125c-0.282,0.045-0.47,0.082-0.563,0.104v15.476h-3.277v-17.806H185.362z"/>
		<path fill="#FFFFFF" d="M217.14,265.085c-0.588,0-1.088-0.196-1.498-0.584c-0.412-0.387-0.616-0.912-0.616-1.566
			c0-0.659,0.204-1.184,0.616-1.57c0.41-0.387,0.91-0.58,1.498-0.58c0.587,0,1.087,0.193,1.498,0.58
			c0.41,0.387,0.615,0.911,0.615,1.57c0,0.654-0.205,1.18-0.615,1.566C218.227,264.889,217.727,265.085,217.14,265.085z
			 M218.796,286.727h-3.276v-18.33h3.276V286.727z"/>
		<path fill="#FFFFFF" d="M223.23,277.596c0-1.619,0.234-3.036,0.705-4.245c0.47-1.21,1.093-2.217,1.868-3.014
			c0.774-0.801,1.668-1.399,2.68-1.801c1.01-0.398,2.044-0.6,3.102-0.6c2.469,0,4.359,0.771,5.677,2.312
			c1.314,1.537,1.974,3.881,1.974,7.031c0,0.141,0,0.321,0,0.545c0,0.227-0.013,0.43-0.035,0.618h-12.55
			c0.142,1.902,0.692,3.349,1.657,4.335c0.963,0.986,2.467,1.48,4.513,1.48c1.15,0,2.12-0.102,2.907-0.301
			c0.787-0.201,1.381-0.395,1.779-0.58l0.458,2.746c-0.398,0.215-1.099,0.438-2.097,0.674c-0.999,0.232-2.133,0.351-3.401,0.351
			c-1.6,0-2.979-0.239-4.143-0.722c-1.163-0.48-2.121-1.146-2.873-1.993s-1.311-1.849-1.675-3.013S223.23,278.986,223.23,277.596z
			 M235.814,275.798c0.022-1.479-0.348-2.693-1.109-3.647c-0.765-0.95-1.814-1.427-3.156-1.427c-0.752,0-1.415,0.148-1.99,0.439
			c-0.576,0.295-1.063,0.676-1.462,1.146c-0.4,0.469-0.713,1.01-0.936,1.62c-0.224,0.612-0.37,1.235-0.44,1.868H235.814
			L235.814,275.798z"/>
		<path fill="#FFFFFF" d="M250.517,268.009c0.281,0,0.604,0.018,0.97,0.053c0.364,0.036,0.723,0.082,1.075,0.143
			c0.353,0.059,0.676,0.117,0.969,0.176c0.295,0.06,0.512,0.111,0.652,0.158l-0.563,2.854c-0.259-0.093-0.688-0.206-1.287-0.334
			c-0.599-0.128-1.369-0.192-2.309-0.192c-0.611,0-1.216,0.064-1.815,0.192c-0.599,0.128-0.992,0.216-1.181,0.267v15.401h-3.278
			v-17.554c0.775-0.281,1.738-0.547,2.892-0.793C247.791,268.134,249.083,268.009,250.517,268.009z"/>
		<path fill="#FFFFFF" d="M139.383,325.757c-1.479,0-2.777-0.233-3.896-0.705c-1.116-0.469-2.056-1.129-2.82-1.975
			c-0.764-0.846-1.333-1.85-1.708-3.013c-0.377-1.164-0.564-2.448-0.564-3.862c0-1.41,0.206-2.701,0.617-3.875
			c0.41-1.177,0.992-2.193,1.744-3.049c0.752-0.859,1.676-1.527,2.768-2.01c1.093-0.482,2.31-0.725,3.647-0.725
			c0.823,0,1.646,0.072,2.469,0.213c0.821,0.141,1.609,0.363,2.36,0.668l-0.74,2.787c-0.492-0.235-1.062-0.424-1.709-0.563
			c-0.646-0.14-1.334-0.213-2.062-0.213c-1.833,0-3.237,0.577-4.212,1.728c-0.977,1.15-1.463,2.834-1.463,5.039
			c0,0.99,0.11,1.896,0.335,2.715c0.223,0.822,0.575,1.527,1.058,2.117c0.48,0.588,1.099,1.041,1.852,1.354
			c0.751,0.317,1.668,0.479,2.75,0.479c0.867,0,1.655-0.082,2.36-0.25c0.704-0.164,1.257-0.338,1.656-0.527l0.459,2.75
			c-0.188,0.119-0.459,0.23-0.812,0.334c-0.354,0.105-0.753,0.201-1.198,0.283c-0.447,0.082-0.922,0.149-1.428,0.209
			C140.34,325.727,139.853,325.757,139.383,325.757z"/>
		<path fill="#FFFFFF" d="M153.105,325.688c-2.021-0.049-3.455-0.481-4.301-1.306c-0.847-0.823-1.27-2.102-1.27-3.842v-21.996
			l3.277-0.562v22.031c0,0.541,0.047,0.986,0.142,1.338c0.094,0.354,0.246,0.637,0.459,0.846c0.211,0.213,0.493,0.37,0.846,0.475
			c0.354,0.109,0.786,0.197,1.305,0.267L153.105,325.688z"/>
		<path fill="#FFFFFF" d="M173.007,316.169c0,1.457-0.211,2.774-0.634,3.947c-0.423,1.174-1.017,2.188-1.78,3.033
			s-1.675,1.498-2.73,1.954c-1.058,0.459-2.209,0.688-3.455,0.688s-2.396-0.229-3.454-0.688c-1.058-0.456-1.969-1.108-2.731-1.954
			c-0.765-0.848-1.356-1.859-1.779-3.033c-0.424-1.173-0.635-2.49-0.635-3.947c0-1.433,0.211-2.744,0.635-3.93
			c0.423-1.188,1.016-2.203,1.779-3.05c0.763-0.847,1.675-1.498,2.731-1.957s2.208-0.688,3.454-0.688s2.397,0.229,3.455,0.688
			c1.057,0.459,1.968,1.11,2.73,1.957c0.764,0.847,1.357,1.862,1.78,3.05C172.796,313.425,173.007,314.738,173.007,316.169z
			 M169.589,316.169c0-2.067-0.465-3.707-1.393-4.916c-0.929-1.211-2.191-1.816-3.79-1.816s-2.861,0.605-3.789,1.816
			c-0.929,1.209-1.393,2.849-1.393,4.916c0,2.07,0.464,3.709,1.393,4.918c0.928,1.211,2.19,1.813,3.789,1.813
			s2.861-0.604,3.79-1.813C169.124,319.878,169.589,318.24,169.589,316.169z"/>
		<path fill="#FFFFFF" d="M192.063,324.806c-0.753,0.188-1.745,0.387-2.979,0.6c-1.233,0.211-2.661,0.318-4.283,0.318
			c-1.409,0-2.597-0.207-3.561-0.619c-0.964-0.41-1.739-0.99-2.326-1.744c-0.588-0.751-1.011-1.64-1.269-2.662
			c-0.259-1.02-0.389-2.154-0.389-3.4v-10.293h3.277v9.588c0,2.234,0.354,3.83,1.059,4.794c0.704,0.965,1.892,1.446,3.561,1.446
			c0.353,0,0.717-0.014,1.093-0.037c0.376-0.021,0.729-0.053,1.059-0.088c0.328-0.037,0.629-0.068,0.898-0.104
			c0.271-0.036,0.463-0.075,0.581-0.125v-15.474h3.278L192.063,324.806L192.063,324.806z"/>
		<path fill="#FFFFFF" d="M209.462,298.544l3.278-0.562v26.824c-0.752,0.21-1.715,0.423-2.891,0.636
			c-1.176,0.21-2.525,0.315-4.055,0.315c-1.408,0-2.679-0.225-3.806-0.67c-1.129-0.445-2.093-1.082-2.892-1.904
			c-0.8-0.818-1.416-1.826-1.852-3.014c-0.435-1.187-0.651-2.521-0.651-4c0-1.408,0.183-2.701,0.547-3.877
			c0.363-1.174,0.898-2.188,1.604-3.033s1.569-1.502,2.591-1.975c1.022-0.469,2.191-0.703,3.509-0.703
			c1.058,0,1.99,0.141,2.802,0.422s1.416,0.555,1.814,0.812L209.462,298.544L209.462,298.544z M209.462,310.882
			c-0.398-0.328-0.975-0.646-1.727-0.95c-0.753-0.306-1.574-0.459-2.468-0.459c-0.94,0-1.745,0.17-2.415,0.511
			c-0.669,0.342-1.215,0.811-1.64,1.41c-0.423,0.6-0.729,1.312-0.917,2.131c-0.188,0.823-0.28,1.705-0.28,2.646
			c0,2.138,0.527,3.789,1.587,4.951c1.057,1.162,2.467,1.746,4.229,1.746c0.894,0,1.64-0.043,2.238-0.125s1.062-0.17,1.392-0.266
			L209.462,310.882L209.462,310.882z"/>
		<path fill="#FFFFFF" d="M147.561,354.811c0,1.39-0.183,2.668-0.546,3.842c-0.364,1.177-0.899,2.187-1.604,3.033
			s-1.569,1.505-2.591,1.974c-1.023,0.473-2.192,0.705-3.508,0.705c-1.059,0-1.992-0.142-2.804-0.424
			c-0.811-0.281-1.414-0.551-1.814-0.811v7.332h-3.277v-24.287c0.775-0.188,1.745-0.395,2.907-0.616
			c1.163-0.224,2.509-0.335,4.036-0.335c1.411,0,2.68,0.225,3.808,0.669c1.127,0.446,2.091,1.082,2.892,1.905
			c0.798,0.822,1.415,1.826,1.851,3.013C147.344,351.998,147.561,353.333,147.561,354.811z M144.142,354.811
			c0-2.138-0.529-3.784-1.586-4.935c-1.059-1.15-2.469-1.729-4.23-1.729c-0.986,0-1.757,0.036-2.309,0.107
			c-0.554,0.068-0.993,0.15-1.322,0.246v11.562c0.4,0.328,0.976,0.646,1.728,0.951s1.574,0.459,2.468,0.459
			c0.939,0,1.744-0.171,2.415-0.512c0.671-0.342,1.216-0.812,1.64-1.41c0.423-0.6,0.729-1.305,0.916-2.114
			C144.048,356.626,144.142,355.751,144.142,354.811z"/>
		<path fill="#FFFFFF" d="M158.029,345.152c1.315,0,2.427,0.174,3.331,0.512c0.905,0.342,1.634,0.823,2.187,1.446
			c0.552,0.623,0.945,1.363,1.182,2.224c0.233,0.854,0.353,1.803,0.353,2.836v11.455c-0.282,0.049-0.677,0.113-1.182,0.195
			s-1.075,0.157-1.709,0.229c-0.635,0.07-1.322,0.136-2.062,0.193c-0.739,0.057-1.476,0.09-2.203,0.09
			c-1.033,0-1.985-0.108-2.854-0.318c-0.869-0.213-1.621-0.547-2.256-1.006c-0.634-0.457-1.128-1.062-1.48-1.813
			c-0.353-0.754-0.528-1.659-0.528-2.715c0-1.011,0.206-1.882,0.616-2.608c0.411-0.728,0.971-1.314,1.676-1.765
			c0.705-0.446,1.526-0.772,2.467-0.987c0.939-0.209,1.927-0.313,2.962-0.313c0.328,0,0.669,0.017,1.021,0.053
			c0.354,0.032,0.688,0.082,1.006,0.142c0.316,0.06,0.594,0.11,0.828,0.156c0.234,0.051,0.398,0.082,0.493,0.105v-0.915
			c0-0.541-0.06-1.075-0.177-1.604s-0.329-1-0.634-1.408c-0.307-0.414-0.724-0.742-1.252-0.99c-0.528-0.246-1.216-0.367-2.062-0.367
			c-1.081,0-2.026,0.074-2.838,0.227c-0.811,0.153-1.416,0.314-1.814,0.479l-0.389-2.716c0.423-0.189,1.128-0.369,2.114-0.547
			C155.809,345.242,156.878,345.152,158.029,345.152z M158.312,361.582c0.774,0,1.463-0.021,2.062-0.053
			c0.6-0.035,1.099-0.104,1.498-0.193v-5.465c-0.234-0.119-0.617-0.217-1.146-0.299c-0.529-0.082-1.17-0.125-1.922-0.125
			c-0.493,0-1.017,0.036-1.568,0.104c-0.553,0.072-1.058,0.221-1.516,0.443s-0.842,0.527-1.146,0.914
			c-0.306,0.387-0.458,0.898-0.458,1.534c0,1.175,0.375,1.99,1.127,2.449C155.997,361.351,157.019,361.582,158.312,361.582z"/>
		<path fill="#FFFFFF" d="M177.135,345.224c0.282,0,0.605,0.018,0.971,0.053c0.365,0.036,0.723,0.082,1.075,0.141
			c0.353,0.061,0.676,0.119,0.969,0.179c0.295,0.059,0.512,0.11,0.651,0.157l-0.562,2.854c-0.259-0.092-0.688-0.206-1.287-0.335
			c-0.599-0.127-1.369-0.193-2.309-0.193c-0.611,0-1.218,0.066-1.815,0.193c-0.6,0.129-0.993,0.217-1.182,0.266v15.402h-3.277
			v-17.553c0.775-0.281,1.738-0.547,2.89-0.793S175.701,345.224,177.135,345.224z"/>
		<path fill="#FFFFFF" d="M187.251,345.611h6.944v2.751h-6.944v8.459c0,0.918,0.07,1.675,0.211,2.274
			c0.143,0.601,0.354,1.068,0.637,1.41c0.28,0.341,0.634,0.58,1.057,0.722s0.917,0.213,1.48,0.213c0.986,0,1.779-0.11,2.38-0.335
			c0.599-0.223,1.016-0.383,1.251-0.475l0.635,2.711c-0.33,0.166-0.905,0.369-1.729,0.619c-0.821,0.246-1.763,0.371-2.819,0.371
			c-1.245,0-2.273-0.162-3.084-0.479c-0.812-0.315-1.463-0.794-1.956-1.427c-0.494-0.637-0.841-1.416-1.04-2.344
			c-0.2-0.929-0.3-2.004-0.3-3.227V340.5l3.277-0.563V345.611L187.251,345.611z"/>
		<path fill="#FFFFFF" d="M198.299,346.139c0.752-0.187,1.75-0.388,2.996-0.597c1.246-0.213,2.68-0.318,4.302-0.318
			c1.457,0,2.667,0.207,3.631,0.617c0.963,0.412,1.731,0.986,2.309,1.728c0.575,0.741,0.981,1.626,1.216,2.662
			c0.234,1.032,0.354,2.173,0.354,3.419v10.291h-3.278v-9.586c0-1.128-0.076-2.092-0.229-2.893
			c-0.153-0.799-0.405-1.445-0.759-1.938c-0.353-0.494-0.822-0.854-1.409-1.074c-0.589-0.224-1.316-0.336-2.187-0.336
			c-0.353,0-0.718,0.012-1.093,0.033c-0.376,0.025-0.734,0.053-1.075,0.089c-0.341,0.035-0.646,0.078-0.917,0.124
			c-0.271,0.047-0.464,0.082-0.581,0.105v15.474H198.3L198.299,346.139L198.299,346.139z"/>
		<path fill="#FFFFFF" d="M217.399,354.811c0-1.62,0.234-3.036,0.706-4.246c0.47-1.21,1.092-2.216,1.867-3.013
			c0.774-0.801,1.668-1.4,2.68-1.801c1.01-0.399,2.044-0.601,3.102-0.601c2.469,0,4.359,0.771,5.677,2.312
			c1.314,1.539,1.974,3.883,1.974,7.033c0,0.142,0,0.32,0,0.545c0,0.226-0.013,0.43-0.035,0.619H220.82
			c0.141,1.9,0.693,3.348,1.657,4.334c0.963,0.986,2.467,1.481,4.512,1.481c1.15,0,2.12-0.103,2.908-0.302
			c0.786-0.2,1.38-0.395,1.779-0.58l0.458,2.746c-0.399,0.214-1.1,0.437-2.098,0.673c-0.999,0.233-2.133,0.351-3.401,0.351
			c-1.6,0-2.979-0.238-4.143-0.721c-1.163-0.482-2.121-1.146-2.873-1.993c-0.752-0.846-1.311-1.851-1.674-3.014
			C217.581,357.473,217.399,356.201,217.399,354.811z M229.983,353.014c0.022-1.479-0.347-2.695-1.109-3.649
			c-0.765-0.949-1.814-1.426-3.154-1.426c-0.754,0-1.416,0.146-1.992,0.439c-0.576,0.295-1.062,0.676-1.462,1.146
			c-0.4,0.469-0.711,1.01-0.936,1.619c-0.224,0.613-0.37,1.236-0.439,1.869L229.983,353.014L229.983,353.014z"/>
		<path fill="#FFFFFF" d="M244.687,345.224c0.282,0,0.604,0.018,0.97,0.053c0.365,0.036,0.724,0.082,1.075,0.141
			c0.353,0.061,0.676,0.119,0.969,0.179c0.295,0.059,0.512,0.11,0.653,0.157l-0.564,2.854c-0.259-0.092-0.688-0.206-1.287-0.335
			c-0.599-0.127-1.369-0.193-2.309-0.193c-0.611,0-1.216,0.066-1.815,0.193c-0.599,0.129-0.991,0.217-1.181,0.266v15.402h-3.278
			v-17.553c0.775-0.281,1.739-0.547,2.892-0.793C241.963,345.349,243.253,345.224,244.687,345.224z"/>
	</g>
	<g>
		<path fill="#FFFFFF" d="M248.029,231.023h-99.207c-16.439,0-29.767-13.416-29.767-29.964c0-15.93,12.343-28.943,27.923-29.905
			c-6.967-14.06-1.938-31.331,11.766-39.296c13.699-7.961,31.067-3.709,39.683,9.392c8.617-13.101,25.985-17.353,39.688-9.39
			c13.702,7.963,18.727,25.232,11.762,39.294c15.584,0.962,27.921,13.976,27.921,29.905
			C277.796,217.607,264.469,231.023,248.029,231.023z"/>
		<g>
			<path fill="#DD4814" d="M230.174,183.403c0,17.528-14.216,31.744-31.748,31.744c-17.53,0-31.747-14.216-31.747-31.744
				c0-17.539,14.217-31.751,31.747-31.751C215.958,151.652,230.174,165.864,230.174,183.403z"/>
			<path fill="#FFFFFF" d="M178.624,179.582c-2.106,0-3.81,1.708-3.81,3.817c0,2.1,1.702,3.811,3.81,3.811
				c2.11,0,3.814-1.711,3.814-3.811C182.438,181.29,180.734,179.582,178.624,179.582z M205.859,196.92
				c-1.825,1.045-2.445,3.382-1.396,5.201c1.053,1.827,3.385,2.45,5.207,1.4c1.825-1.054,2.453-3.384,1.4-5.209
				C210.016,196.489,207.684,195.865,205.859,196.92z M186.914,183.399c0-3.772,1.865-7.105,4.732-9.12l-2.785-4.675
				c-3.338,2.229-5.824,5.641-6.857,9.635c1.21,0.983,1.976,2.478,1.976,4.16c0,1.669-0.766,3.164-1.976,4.151
				c1.033,3.991,3.521,7.4,6.857,9.631l2.785-4.673C188.779,190.496,186.914,187.167,186.914,183.399z M198.053,172.25
				c5.821,0,10.596,4.463,11.098,10.162l5.436-0.088c-0.269-4.2-2.104-7.973-4.922-10.745c-1.454,0.544-3.129,0.467-4.578-0.373
				c-1.444-0.838-2.356-2.244-2.604-3.779c-1.41-0.388-2.896-0.603-4.428-0.603c-2.638,0-5.13,0.62-7.341,1.717l2.649,4.748
				C194.787,172.624,196.377,172.25,198.053,172.25z M198.053,194.534c-1.677,0-3.267-0.368-4.69-1.034l-2.649,4.747
				c2.211,1.101,4.703,1.715,7.341,1.715c1.532,0,3.018-0.207,4.428-0.599c0.248-1.535,1.16-2.941,2.604-3.783
				c1.453-0.838,3.124-0.917,4.578-0.364c2.818-2.779,4.653-6.551,4.922-10.755l-5.436-0.075
				C208.648,190.077,203.875,194.534,198.053,194.534z M205.859,169.871c1.824,1.05,4.156,0.428,5.208-1.398
				c1.055-1.817,0.429-4.153-1.396-5.205c-1.822-1.053-4.154-0.428-5.207,1.396C203.414,166.487,204.034,168.819,205.859,169.871z"
				/>
		</g>
	</g>
</g>
</svg>
