<?xml version="1.0" encoding="iso-8859-1"?>
<!-- Generator: Adobe Illustrator 17.0.2, SVG Export Plug-In . SVG Version: 6.00 Build 0)  -->
<!DOCTYPE svg PUBLIC "-//W3C//DTD SVG 1.1//EN" "http://www.w3.org/Graphics/SVG/1.1/DTD/svg11.dtd">
<svg version="1.1" id="image-background-grid-layer"
	 xmlns="http://www.w3.org/2000/svg" xmlns:xlink="http://www.w3.org/1999/xlink" x="0px" y="0px" width="40px" height="40px"
	 viewBox="0 0 40 40" style="enable-background:new 0 0 40 40;" xml:space="preserve">
<g id="image-background-grid">
	<rect style="fill:#2C001E;" width="40" height="40"/>
	<g style="opacity:0.2;">
		<rect x="39" y="39" style="fill:#FFFFFF;" width="1" height="1"/>
		<rect x="34" y="39" style="fill:#FFFFFF;" width="1" height="1"/>
		<rect x="29" y="39" style="fill:#FFFFFF;" width="1" height="1"/>
		<rect x="24" y="39" style="fill:#FFFFFF;" width="1" height="1"/>
		<rect x="19" y="39" style="fill:#FFFFFF;" width="1" height="1"/>
		<rect x="14" y="39" style="fill:#FFFFFF;" width="1" height="1"/>
		<rect x="9" y="39" style="fill:#FFFFFF;" width="1" height="1"/>
		<rect x="4" y="39" style="fill:#FFFFFF;" width="1" height="1"/>
		<rect x="39" y="34" style="fill:#FFFFFF;" width="1" height="1"/>
		<rect x="39" y="29" style="fill:#FFFFFF;" width="1" height="1"/>
		<rect x="39" y="24" style="fill:#FFFFFF;" width="1" height="1"/>
		<rect x="39" y="19" style="fill:#FFFFFF;" width="1" height="1"/>
		<rect x="39" y="14" style="fill:#FFFFFF;" width="1" height="1"/>
		<rect x="39" y="9" style="fill:#FFFFFF;" width="1" height="1"/>
		<rect x="39" y="4" style="fill:#FFFFFF;" width="1" height="1"/>
	</g>
</g>
</svg>
