<svg xmlns="http://www.w3.org/2000/svg" width="113" height="113" viewBox="0 0 113 113"><g><g fill="#888"><path d="M56.5 0C25.296 0 0 25.295 0 56.502c0 17.54 7.996 33.213 20.538 43.578V28.69H33.63v6.525h-3.318v6.54H43.39v-6.54h-3.22V28.69h13.076v6.525h-3.293v6.54H63.03v-6.54h-3.243V28.69H72.86v6.525h-3.29v6.54h13.075v-6.54h-3.247V28.69h13.064v71.39C105.007 89.718 113 74.043 113 56.502 113 25.295 87.705 0 56.5 0zM49.27 98.774c-.385.117-.868.224-1.45.32-.58.096-1.192.144-1.833.144-.662 0-1.254-.102-1.777-.304s-.968-.494-1.336-.873-.65-.837-.85-1.376c-.196-.54-.295-1.145-.295-1.817 0-.662.082-1.262.247-1.8s.408-1.002.728-1.386.71-.68 1.17-.887.986-.312 1.584-.312c.404 0 .762.05 1.07.145.31.096.577.203.8.32v-4.017l1.938-.32v12.166zm-5.555-3.954c0 .854.203 1.524.61 2.01.404.485.965.727 1.68.727.31 0 .573-.013.792-.04.22-.026.397-.056.536-.088v-4.804c-.17-.117-.398-.226-.68-.328-.283-.102-.584-.152-.905-.152-.704 0-1.22.24-1.545.72s-.488 1.132-.488 1.954zM54.52 90.45c.64 0 1.18.08 1.617.24.437.16.787.383 1.05.672.26.288.447.638.56 1.048.11.41.167.862.167 1.353v5.075c-.3.064-.75.14-1.353.232s-1.282.137-2.04.137c-.502 0-.96-.048-1.377-.144-.417-.096-.77-.25-1.065-.465-.293-.213-.523-.49-.688-.833-.166-.34-.248-.763-.248-1.265 0-.48.093-.886.28-1.217s.44-.6.76-.81c.32-.207.69-.356 1.112-.447.42-.09.862-.136 1.32-.136.214 0 .438.013.674.04.235.027.485.072.753.136v-.32c0-.224-.026-.437-.08-.64-.053-.203-.146-.382-.28-.536-.133-.155-.31-.275-.528-.36-.22-.086-.494-.128-.825-.128-.448 0-.86.032-1.233.096s-.678.14-.912.224l-.24-1.57c.246-.085.603-.17 1.072-.255.47-.085.973-.128 1.506-.128zm.16 7.22c.598 0 1.05-.033 1.36-.097v-2.145c-.106-.032-.26-.064-.464-.096s-.427-.048-.673-.048c-.213 0-.43.016-.648.048s-.416.09-.592.176-.318.205-.424.36c-.108.155-.16.35-.16.584 0 .46.143.776.43.952.29.177.68.265 1.17.265zM66.91 90.657c-.862 3.18-1.864 6.062-3.003 8.645-.214.48-.433.89-.657 1.233-.224.34-.476.625-.753.85-.278.223-.588.385-.93.487-.342.1-.737.152-1.186.152-.298 0-.595-.032-.888-.096-.294-.064-.515-.134-.665-.208l.352-1.553c.385.15.766.224 1.14.224.505 0 .9-.12 1.183-.36s.533-.61.748-1.11c-.61-1.175-1.197-2.456-1.76-3.843s-1.064-2.86-1.503-4.42h2.065c.107.45.238.935.394 1.458.155.523.324 1.054.506 1.593s.375 1.075.58 1.61c.203.533.406 1.03.61 1.488.34-.95.66-1.96.956-3.033.298-1.073.57-2.11.813-3.114l2-.003zM70.48 97.637c.513 0 .887-.06 1.122-.184.235-.122.352-.334.352-.632 0-.276-.126-.506-.376-.687-.25-.18-.664-.38-1.24-.592-.353-.127-.676-.263-.97-.407-.293-.144-.547-.312-.76-.504-.214-.193-.382-.425-.504-.697-.123-.272-.184-.605-.184-1 0-.77.283-1.375.85-1.818.564-.443 1.333-.664 2.304-.664.49 0 .96.047 1.41.137.447.09.784.18 1.008.264l-.352 1.57c-.213-.096-.485-.184-.816-.264s-.715-.12-1.153-.12c-.394 0-.714.067-.96.2-.246.134-.368.34-.368.617 0 .14.024.262.072.368.048.108.13.207.248.297s.272.182.465.272c.192.09.427.183.704.28.46.17.85.338 1.17.503.32.166.584.352.793.56s.36.447.456.713.143.587.143.96c0 .8-.296 1.407-.89 1.818-.59.41-1.437.616-2.536.616-.736 0-1.33-.06-1.777-.184s-.763-.22-.944-.296l.336-1.617c.288.118.632.23 1.033.336.397.104.853.157 1.366.157zM72.154 83.135H42.73c-4.876 0-8.83-3.953-8.83-8.828 0-4.694 3.66-8.528 8.282-8.812-2.065-4.142-.573-9.23 3.49-11.58 4.063-2.344 9.215-1.09 11.77 2.77 2.558-3.86 7.706-5.113 11.772-2.766 4.063 2.345 5.554 7.433 3.49 11.576 4.62.282 8.28 4.118 8.28 8.812 0 4.874-3.954 8.827-8.83 8.827zm-12.57-8.194c-.127.307-.327.578-.6.813-.276.235-.633.42-1.072.553s-.965.2-1.578.2c-.894 0-1.652-.09-2.272-.27-.62-.18-1.095-.35-1.424-.507l-.54 2.4c.156.078.39.165.705.26.314.093.67.184 1.07.27.4.086.82.16 1.26.224.44.062.87.094 1.295.094 1.052 0 1.97-.13 2.755-.388.784-.26 1.436-.616 1.954-1.07.518-.456.902-.998 1.154-1.625.252-.628.378-1.31.378-2.048 0-1.616-.553-2.892-1.66-3.826-1.106-.932-2.82-1.462-5.144-1.588.03-.22.063-.486.094-.8.03-.314.06-.643.082-.99l.07-1.023c.025-.338.044-.64.06-.907h5.908v-2.4h-8.334c-.063 1.364-.14 2.726-.236 4.083-.094 1.358-.228 2.79-.4 4.296 1.302 0 2.38.07 3.237.212.855.14 1.538.353 2.048.636s.867.628 1.07 1.036c.205.408.307.87.307 1.39.002.344-.06.67-.187.975z"/></g></g></svg>