<?xml version="1.0" encoding="utf-8"?>
<!-- Generator: Adobe Illustrator 17.0.2, SVG Export Plug-In . SVG Version: 6.00 Build 0)  -->
<!DOCTYPE svg PUBLIC "-//W3C//DTD SVG 1.1//EN" "http://www.w3.org/Graphics/SVG/1.1/DTD/svg11.dtd">
<svg version="1.1" id="Layer_1" xmlns="http://www.w3.org/2000/svg" xmlns:xlink="http://www.w3.org/1999/xlink" x="0px" y="0px"
	 width="113px" height="113px" viewBox="0 0 113 113" enable-background="new 0 0 113 113" xml:space="preserve">
<g id="BK">
</g>
<g id="Comp">
	<g id="Comp_1_">
		<path fill="#888888" d="M56.5,0C25.296,0,0,25.295,0,56.502c0,17.541,7.996,33.213,20.538,43.578V28.691h13.093v6.524h-3.319
			v6.539H43.39v-6.539h-3.221v-6.524h13.077v6.524h-3.293v6.539H63.03v-6.539h-3.243v-6.524H72.86v6.524h-3.291v6.539h13.076v-6.539
			h-3.247v-6.524h13.064v71.389C105.007,89.718,113,74.043,113,56.502C113.001,25.295,87.705,0,56.5,0z"/>
		<g>
			<path fill="#888888" d="M49.269,98.774c-0.384,0.117-0.867,0.224-1.449,0.32c-0.581,0.096-1.192,0.144-1.833,0.144
				c-0.662,0-1.254-0.102-1.777-0.304s-0.968-0.494-1.336-0.873s-0.651-0.838-0.849-1.377c-0.197-0.539-0.296-1.145-0.296-1.817
				c0-0.662,0.083-1.262,0.248-1.801s0.408-1.001,0.728-1.385s0.71-0.68,1.169-0.888s0.987-0.312,1.585-0.312
				c0.405,0,0.763,0.048,1.072,0.144c0.31,0.096,0.576,0.203,0.8,0.32v-4.017l1.937-0.32L49.269,98.774L49.269,98.774z
				 M43.715,94.82c0,0.854,0.203,1.524,0.609,2.009c0.405,0.486,0.966,0.728,1.68,0.728c0.31,0,0.574-0.013,0.793-0.04
				c0.219-0.026,0.397-0.056,0.536-0.088v-4.803c-0.171-0.117-0.398-0.226-0.68-0.328c-0.283-0.102-0.584-0.152-0.905-0.152
				c-0.704,0-1.219,0.24-1.545,0.72S43.715,93.998,43.715,94.82z"/>
			<path fill="#888888" d="M54.52,90.449c0.64,0,1.179,0.08,1.617,0.24c0.437,0.16,0.787,0.384,1.049,0.673
				c0.261,0.288,0.448,0.638,0.56,1.048c0.112,0.411,0.168,0.862,0.168,1.353v5.075c-0.299,0.064-0.75,0.141-1.353,0.232
				s-1.283,0.137-2.041,0.137c-0.502,0-0.961-0.048-1.377-0.144c-0.417-0.096-0.771-0.251-1.065-0.465
				c-0.293-0.213-0.523-0.491-0.688-0.833c-0.166-0.341-0.248-0.763-0.248-1.265c0-0.48,0.093-0.886,0.28-1.217s0.44-0.6,0.76-0.809
				c0.32-0.208,0.691-0.357,1.112-0.448c0.421-0.09,0.862-0.136,1.321-0.136c0.213,0,0.437,0.013,0.673,0.04
				c0.235,0.027,0.485,0.072,0.753,0.136v-0.32c0-0.224-0.027-0.437-0.08-0.64c-0.054-0.203-0.147-0.382-0.28-0.536
				c-0.134-0.155-0.31-0.275-0.529-0.36c-0.219-0.086-0.494-0.128-0.825-0.128c-0.448,0-0.859,0.032-1.233,0.096
				s-0.678,0.139-0.912,0.224l-0.24-1.569c0.246-0.086,0.603-0.171,1.072-0.256C53.484,90.492,53.987,90.449,54.52,90.449z
				 M54.68,97.669c0.598,0,1.051-0.032,1.361-0.096v-2.145c-0.107-0.032-0.262-0.064-0.465-0.096s-0.427-0.048-0.673-0.048
				c-0.213,0-0.43,0.016-0.648,0.048s-0.416,0.091-0.592,0.176c-0.176,0.086-0.318,0.205-0.424,0.36
				c-0.107,0.155-0.16,0.35-0.16,0.584c0,0.459,0.144,0.776,0.432,0.952C53.8,97.581,54.189,97.669,54.68,97.669z"/>
			<path fill="#888888" d="M66.911,90.657c-0.863,3.18-1.865,6.062-3.004,8.645c-0.214,0.481-0.433,0.891-0.657,1.233
				c-0.224,0.341-0.476,0.625-0.753,0.849c-0.278,0.224-0.588,0.386-0.93,0.488c-0.342,0.101-0.737,0.152-1.186,0.152
				c-0.299,0-0.596-0.032-0.889-0.096c-0.294-0.064-0.515-0.134-0.665-0.208l0.352-1.553c0.386,0.149,0.767,0.224,1.142,0.224
				c0.504,0,0.898-0.12,1.182-0.36s0.533-0.611,0.748-1.112c-0.611-1.174-1.198-2.455-1.761-3.842
				c-0.563-1.387-1.064-2.86-1.503-4.419h2.065c0.107,0.448,0.238,0.934,0.394,1.457c0.155,0.523,0.324,1.054,0.506,1.593
				s0.375,1.075,0.579,1.609c0.204,0.534,0.407,1.03,0.611,1.489c0.34-0.95,0.659-1.961,0.956-3.033
				c0.298-1.073,0.569-2.111,0.813-3.114L66.911,90.657L66.911,90.657z"/>
			<path fill="#888888" d="M70.481,97.637c0.512,0,0.886-0.061,1.121-0.184c0.235-0.122,0.352-0.334,0.352-0.632
				c0-0.277-0.126-0.507-0.376-0.688c-0.251-0.181-0.664-0.379-1.241-0.592c-0.352-0.128-0.675-0.264-0.969-0.408
				c-0.293-0.144-0.547-0.312-0.76-0.504c-0.214-0.192-0.382-0.424-0.504-0.696c-0.123-0.272-0.184-0.605-0.184-1.001
				c0-0.768,0.283-1.374,0.849-1.817c0.565-0.443,1.334-0.664,2.305-0.664c0.491,0,0.961,0.046,1.409,0.136
				c0.448,0.091,0.785,0.179,1.009,0.264L73.14,92.42c-0.213-0.096-0.485-0.184-0.816-0.264s-0.715-0.12-1.153-0.12
				c-0.395,0-0.715,0.067-0.961,0.201c-0.246,0.133-0.368,0.339-0.368,0.616c0,0.139,0.024,0.262,0.072,0.368
				c0.048,0.107,0.131,0.206,0.248,0.296c0.118,0.091,0.272,0.182,0.465,0.272c0.192,0.091,0.427,0.184,0.704,0.28
				c0.459,0.171,0.849,0.339,1.169,0.504c0.32,0.166,0.584,0.352,0.793,0.561s0.36,0.446,0.456,0.712s0.144,0.587,0.144,0.961
				c0,0.8-0.296,1.406-0.889,1.817c-0.592,0.411-1.438,0.616-2.537,0.616c-0.736,0-1.329-0.061-1.777-0.184
				s-0.763-0.221-0.944-0.296l0.336-1.617c0.288,0.118,0.632,0.23,1.033,0.336C69.512,97.584,69.968,97.637,70.481,97.637z"/>
		</g>
		<path fill="#888888" d="M72.154,83.135H42.729c-4.875,0-8.829-3.953-8.829-8.828c0-4.694,3.66-8.528,8.282-8.812
			c-2.065-4.142-0.573-9.231,3.49-11.579c4.063-2.345,9.215-1.092,11.77,2.769c2.558-3.859,7.706-5.113,11.772-2.766
			c4.063,2.346,5.554,7.434,3.49,11.577c4.621,0.282,8.281,4.118,8.281,8.812C80.983,79.182,77.03,83.135,72.154,83.135z
			 M59.583,74.941c-0.126,0.306-0.326,0.577-0.6,0.812c-0.275,0.235-0.632,0.42-1.071,0.553s-0.965,0.2-1.578,0.2
			c-0.894,0-1.652-0.09-2.272-0.271c-0.62-0.18-1.095-0.349-1.424-0.506l-0.541,2.401c0.157,0.078,0.392,0.165,0.706,0.259
			c0.314,0.094,0.671,0.185,1.071,0.271c0.4,0.086,0.82,0.161,1.259,0.224c0.439,0.062,0.871,0.094,1.295,0.094
			c1.052,0,1.97-0.129,2.755-0.388c0.784-0.259,1.436-0.616,1.954-1.071c0.518-0.455,0.902-0.997,1.154-1.624
			c0.251-0.628,0.377-1.31,0.377-2.048c0-1.616-0.553-2.892-1.66-3.826c-1.106-0.933-2.821-1.463-5.144-1.589
			c0.031-0.22,0.063-0.486,0.094-0.8c0.031-0.314,0.059-0.643,0.082-0.989c0.024-0.345,0.047-0.687,0.071-1.024
			c0.024-0.337,0.043-0.639,0.058-0.906h5.909v-2.401h-8.334c-0.063,1.365-0.141,2.727-0.236,4.084
			c-0.094,1.358-0.228,2.79-0.4,4.296c1.302,0,2.381,0.071,3.237,0.212c0.855,0.141,1.538,0.353,2.048,0.636
			s0.867,0.628,1.071,1.036c0.204,0.408,0.306,0.871,0.306,1.389C59.772,74.31,59.709,74.635,59.583,74.941z"/>
	</g>
</g>
<g id="Grid" display="none">
</g>
<g id="Labels">
</g>
</svg>
