<?xml version="1.0" encoding="utf-8"?>
<!-- Generator: Adobe Illustrator 17.0.2, SVG Export Plug-In . SVG Version: 6.00 Build 0)  -->
<!DOCTYPE svg PUBLIC "-//W3C//DTD SVG 1.1//EN" "http://www.w3.org/Graphics/SVG/1.1/DTD/svg11.dtd">
<svg version="1.1" xmlns="http://www.w3.org/2000/svg" xmlns:xlink="http://www.w3.org/1999/xlink" x="0px" y="0px" width="400px"
	 height="400px" viewBox="0 0 400 400" enable-background="new 0 0 400 400" xml:space="preserve">
<g id="BK" display="none">
	<rect x="-100" y="-2580" display="inline" fill="#FFFFFF" width="5100" height="4060"/>
</g>
<g id="Comp">
	<g id="_x33_0">
		<path fill="#2C001E" d="M313.79,112.871h67.504C348.629,46.102,280.004,0,200.799,0c-26.562,0-51.908,5.227-75.138,14.642v229.191
			H75.456V44.095C29.506,80.923,0,137.468,0,200.809C0,303.043,76.809,387.62,175.742,400V112.871h37.638v25.064h-12.451v25.099
			h50.205v-25.099h-12.648v-25.064h50.205v25.064h-12.645v25.099h50.201v-25.099h-12.454v-25.064H313.79z M100.209,307.619
			l-25.272-43.773h50.544L100.209,307.619z"/>
	</g>
</g>
</svg>
