<?xml version="1.0" encoding="UTF-8" standalone="no"?>
<svg width="400px" height="401px" viewBox="0 0 400 401" version="1.1" xmlns="http://www.w3.org/2000/svg" xmlns:xlink="http://www.w3.org/1999/xlink" xmlns:sketch="http://www.bohemiancoding.com/sketch/ns">
    <!-- Generator: Sketch 3.2.2 (9983) - http://www.bohemiancoding.com/sketch -->
    <title>Shape</title>
    <desc>Created with Sketch.</desc>
    <defs></defs>
    <g id="Page-1" stroke="none" stroke-width="1" fill="none" fill-rule="evenodd" sketch:type="MSPage">
        <g id="mobile-picto" sketch:type="MSLayerGroup" fill="#77216F">
            <g id="Page-1" sketch:type="MSShapeGroup">
                <g id="test">
                    <g id="Comp">
                        <path d="M400,200.485 C400,310.940594 310.458483,400.485 199.998139,400.485 C89.5377944,400.485 0,310.940594 0,200.485 C0,90.0294056 89.5415166,0.485 200.001861,0.485 C310.462206,0.485 400,90.0256834 400,200.485 L400,200.485 L400,200.485 Z M284.443948,124.485596 L284.443948,276.484404 C284.443948,327.150674 275.998251,327.150674 199.998139,327.150674 C123.998027,327.150674 115.55233,327.150674 115.55233,276.484404 L115.55233,124.485596 C115.55233,73.8193259 123.998027,73.8193259 199.998139,73.8193259 C275.998251,73.8193259 284.443948,73.8193259 284.443948,124.485596 L284.443948,124.485596 L284.443948,124.485596 Z M179.41431,82.2612227 C177.084206,82.5031642 175.3906,84.5913054 175.632543,86.9251102 C175.874487,89.2551928 177.962648,90.9487832 180.296474,90.7068417 L219.703526,90.7068417 L219.822637,90.7068417 C222.152741,90.6733421 224.017569,88.7564211 223.984069,86.4263385 C223.950569,84.0962559 222.03363,82.2314453 219.703526,82.2649449 L180.296474,82.2649449 C180.002419,82.2314453 179.708365,82.2314453 179.41431,82.2612227 L179.41431,82.2612227 L179.41431,82.2612227 Z M132.443725,132.927492 L132.443725,259.593166 C132.443725,293.37192 132.443725,293.37192 199.998139,293.37192 C267.552553,293.37192 267.552553,293.37192 267.552553,259.593166 L267.552553,132.927492 C267.552553,99.1487386 267.552553,99.1487386 199.998139,99.1487386 C132.443725,99.1487386 132.443725,99.1524607 132.443725,132.927492 L132.443725,132.927492 L132.443725,132.927492 Z" id="Shape"></path>
                    </g>
                </g>
            </g>
        </g>
    </g>
</svg>