<svg xmlns="http://www.w3.org/2000/svg" width="400" height="400" viewBox="0 0 400 400"><g><path d="M199.995 400C89.715 400 0 310.274 0 199.995S89.72 0 199.995 0C310.277 0 400 89.72 400 199.995 400 310.275 310.277 400 199.995 400zm0-350.004c-82.706 0-149.995 67.29-149.995 150 0 82.715 67.29 150 149.995 150 82.713 0 150.002-67.285 150.002-150 0-82.71-67.29-150-150.002-150zM275 249.994h-50.004c0 13.787-11.215 25.002-24.998 25.002-13.783 0-25.002-11.215-25.002-25.002h-50c0 41.36 33.645 75 75 75 41.36 0 75.003-33.64 75.003-75z" fill="#888"/></g></svg>