<?xml version="1.0" encoding="iso-8859-1"?>
<!-- Generator: Adobe Illustrator 17.0.2, SVG Export Plug-In . SVG Version: 6.00 Build 0)  -->
<!DOCTYPE svg PUBLIC "-//W3C//DTD SVG 1.1//EN" "http://www.w3.org/Graphics/SVG/1.1/DTD/svg11.dtd">
<svg version="1.1" xmlns="http://www.w3.org/2000/svg" xmlns:xlink="http://www.w3.org/1999/xlink" x="0px" y="0px" width="400px"
	 height="400px" viewBox="0 0 400 400" style="enable-background:new 0 0 400 400;" xml:space="preserve">
<g id="BK" style="display:none;">
	<rect x="-3600" y="-80" style="display:inline;fill:#FFFFFF;" width="5100" height="4060"/>
</g>
<g id="Comp">
	<g id="_x37_3">
		<path style="fill:#888888;" d="M301.225,27.559l0.004,0.011l-87.338,172.474c-2.582,5.165-7.835,8.297-13.42,8.297l-0.011-0.004
			c-5.577,0-10.827-3.133-13.413-8.294l-86.675-173.43l0.004,0.007C40.436,61.2,0,125.964,0,200.002
			C0,310.284,89.716,400,199.998,400S400,310.281,400,200.002C400,126.63,360.284,62.361,301.225,27.559z M149.872,301.278
			c-6.9,0-12.495-5.595-12.495-12.499c0-6.904,5.595-12.499,12.495-12.499c6.907,0,12.503,5.595,12.503,12.499
			C162.374,295.683,156.779,301.278,149.872,301.278z M149.872,250.495c-6.9,0-12.495-5.595-12.495-12.503
			c0-6.904,5.595-12.499,12.495-12.499c6.907,0,12.503,5.595,12.503,12.499C162.374,244.9,156.779,250.495,149.872,250.495z
			 M341.001,200.005h-35.387l-35.793-0.131c-2.018,0-3.895-1.048-4.949-2.766c-1.065-1.718-1.164-3.863-0.258-5.666l35.793-71.106
			c1.002-2.004,3.037-3.221,5.214-3.221c2.177,0,4.205,1.217,5.214,3.221l35.384,71.237c0.903,1.803,0.808,3.948-0.247,5.666
			C344.896,198.958,343.022,200.005,341.001,200.005z M248.364,5.913l-18.63,35.754V41.66l22.289,46.126v-0.335l-42.073,82.134
			c-1.792,3.588-5.443,5.761-9.324,5.761h-0.004c-3.881,0-7.528-2.173-9.327-5.768l-41.42-81.923v0.335l22.289-45.54L153.198,5.539
			V5.532C168.22,1.916,183.883,0,199.998,0C216.674,0.003,232.87,2.053,248.364,5.913"/>
	</g>
</g>
</svg>
