<svg xmlns="http://www.w3.org/2000/svg" width="400" height="400" viewBox="0 0 400 400"><g><path fill="#2C001E" d="M199.998.002C89.72.002 0 89.72 0 199.996s89.725 200.002 199.998 200.002c110.28 0 200.002-89.724 200.002-200.002S310.28.002 199.998.002zm93.736 256.124H106.266c-31.062 0-56.243-25.18-56.243-56.243 0-29.9 23.322-54.33 52.757-56.137-13.158-26.39-3.658-58.81 22.235-73.762C150.902 55.04 183.72 63.02 200 87.616c16.29-24.592 49.104-32.572 74.997-17.625 25.887 14.948 35.383 47.36 22.225 73.76 29.446 1.805 52.76 26.235 52.76 56.136-.002 31.06-25.186 56.24-56.248 56.24zm-128.738-20.13l21.043-58.91c-12.38-5.393-21.044-17.722-21.044-32.087 0-19.33 15.67-35 35.002-35 19.33 0 35 15.67 35 35 0 14.364-8.662 26.69-21.04 32.087L235 236h-70.004v-.003z"/></g></svg>