<?xml version="1.0" encoding="utf-8"?>
<!-- Generator: Adobe Illustrator 17.0.2, SVG Export Plug-In . SVG Version: 6.00 Build 0)  -->
<!DOCTYPE svg PUBLIC "-//W3C//DTD SVG 1.1//EN" "http://www.w3.org/Graphics/SVG/1.1/DTD/svg11.dtd">
<svg version="1.1" xmlns="http://www.w3.org/2000/svg" xmlns:xlink="http://www.w3.org/1999/xlink" x="0px" y="0px" width="401px"
	 height="401px" viewBox="0 0 401 401" enable-background="new 0 0 401 401" xml:space="preserve">
<g id="BK" display="none">
	<rect x="-3599" y="-80" display="inline" fill="#FFFFFF" width="5100" height="4060"/>
</g>
<g id="Comp">
	<g>
		<path fill="#AEA79F" d="M400.5,200.5c0,110.457-89.543,200-200,200c-110.461,0-200-89.543-200-200s89.539-200,200-200
			C310.957,0.5,400.5,90.043,400.5,200.5z"/>
		<g>
			<g id="Winlogo_1_">
				<polygon fill="#FFFFFF" points="306.974,195.689 306.974,92.5 188.441,109.79 188.441,195.689 				"/>
				<polygon fill="#FFFFFF" points="180.099,111.008 94.026,123.564 94.026,195.689 180.099,195.689 				"/>
				<polygon fill="#FFFFFF" points="94.026,204.04 94.026,277.079 180.099,289.779 180.099,204.04 				"/>
				<polygon fill="#FFFFFF" points="188.441,291.013 306.974,308.5 306.974,204.04 188.441,204.04 				"/>
			</g>
		</g>
	</g>
</g>
<g id="nyt_x5F_exporter_x5F_info" display="none">
</g>
</svg>
