<svg xmlns="http://www.w3.org/2000/svg" width="400" height="400" viewBox="0 0 400 400"><g><path d="M102.225 187.076c0 4.53-3.672 8.206-8.21 8.206-4.532 0-8.2-3.676-8.2-8.206 0-4.53 3.67-8.206 8.2-8.206 4.538.004 8.21 3.676 8.21 8.206zm15.463-8.202c-4.53 0-8.206 3.676-8.206 8.206s3.676 8.206 8.206 8.206c4.533 0 8.21-3.676 8.21-8.206s-3.677-8.206-8.21-8.206zM400 200.002C400 310.462 310.457 400 200.002 400S0 310.46 0 200.002 89.543 0 200.002 0 400 89.546 400 200.002zM122.044 152.57h155.908V50h-12.298v8.18h4.075v8.203h-16.412V58.18h4.128V50h-16.408v8.18h4.075v8.203h-16.41V58.18h4.13V50h-16.408v8.18h4.07v8.203h-16.41V58.18h4.135V50h-16.41v8.18h4.07v8.203h-16.41V58.18h4.13V50h-16.41v8.18h4.075v8.203H154.85V58.18h4.135V50h-16.41v8.18h4.137v8.203h-16.415V58.18h4.07V50h-12.315v102.57h-.008zm143.85 124.662h-131.29v32.77h131.29v-32.77zm65.395-98.52c0-9.066-7.35-16.41-16.412-16.41H85.118c-9.062 0-16.407 7.347-16.407 16.41v114.876c0 9.063 7.346 16.415 16.41 16.415h33.072v-40.975c0-4.526 3.676-8.206 8.206-8.206H274.1c4.526 0 8.202 3.68 8.202 8.206v40.975h32.572c9.063 0 16.41-7.352 16.41-16.415V178.712h.005z" fill="#888"/></g></svg>