<svg xmlns="http://www.w3.org/2000/svg" width="400" height="400" viewBox="0 0 400 400"><g><path d="M237.25 228.286c5.18 0 9.377 4.198 9.377 9.373 0 5.18-4.198 9.376-9.377 9.376-5.175 0-9.373-4.195-9.373-9.377 0-5.172 4.198-9.374 9.373-9.374zm52.67-28.297h-78.765l-113.48-74.985 4.703-11.338 85.476 17.55.254-64.802 43.55 50.526 70.794-76.945 10.516 6.24-34.41 101.43 103.686-29.983C350.794 48.374 280.93.05 199.994.05 89.715.05 0 89.77 0 200.05c0 60.145 26.688 114.174 68.846 150.867v-38.185c0-10.358 8.393-18.747 18.75-18.747 10.354 0 18.75 8.393 18.75 18.747v63.995c4.085 2.173 8.252 4.212 12.5 6.103v-70.098c0-10.358 8.392-18.747 18.746-18.747 10.358 0 18.75 8.393 18.75 18.747v82.513c4.124.92 8.29 1.718 12.503 2.38v-84.89c0-10.357 8.396-18.746 18.75-18.746s18.747 8.392 18.747 18.746v87.018c0 .067-.007.127-.007.198 4.198-.134 8.372-.395 12.506-.787V237.73c0-10.354 8.394-18.747 18.748-18.747 10.354 0 18.75 8.396 18.75 18.747v154.233C339.275 367.573 400 290.775 400 200.053c0-23.054-3.934-45.202-11.144-65.83L289.92 199.99z" fill="#888"/></g></svg>