<svg xmlns="http://www.w3.org/2000/svg" width="400" height="400" viewBox="0 0 400 400"><g><path fill="#DD4814" d="M341.485 58.582C303.692 20.807 253.447 0 199.998 0 146.553 0 96.303 20.803 58.514 58.582c-78.012 77.977-78.016 204.86-.004 282.844C96.3 379.193 146.545 400 199.99 400h.015c53.438 0 103.687-20.803 141.48-58.575 78.016-77.984 78.016-204.863 0-282.843zM199.998 277.33c0 3.104-1.86 5.895-4.702 7.084-.942.392-1.93.582-2.91.582-1.983 0-3.93-.776-5.387-2.247l-36.453-36.704h-72.93c-4.205 0-7.616-3.436-7.616-7.67v-76.71c0-4.233 3.412-7.666 7.617-7.666h72.89l36.49-36.756c2.18-2.194 5.45-2.85 8.302-1.665 2.842 1.184 4.7 3.982 4.7 7.083V277.33H200zm32.843-41.96c19.502-19.5 19.502-51.236 0-70.737l17.69-17.688c29.255 29.256 29.255 76.86 0 106.114l-17.69-17.69zm35.35 35.374c39.01-39.01 39.01-102.477 0-141.484l17.687-17.688c48.757 48.76 48.757 128.096 0 176.856l-17.688-17.684zm53.035 53.053l-17.688-17.688c58.508-58.51 58.508-153.712 0-212.223l17.688-17.685c68.258 68.266 68.258 179.337 0 247.595z"/></g></svg>