<svg xmlns="http://www.w3.org/2000/svg" width="400" height="400" viewBox="0 0 400 400"><g><path fill="#2C001E" d="M200.002-.004C89.722-.004 0 89.72 0 200.002 0 310.28 89.72 400.004 200.002 400.004c35.088 0 69.672-9.275 100.008-26.826 7.722-4.47 12.478-12.714 12.478-21.64v-51.482h-12.993c-6.904 0-12.503-5.6-12.503-12.503 0-6.9 5.6-12.5 12.503-12.5h12.993v-49.996h62.507c13.053 0 23.767-10.005 24.9-22.765.074-.766.106-1.53.106-2.29C400 89.717 310.28-.004 200.003-.004zm78.936 203.862c-16.21 0-29.786-11.41-33.176-26.62-6.177 3.223-13.18 5.072-20.617 5.072-24.684 0-44.765-20.08-44.765-44.765s20.08-44.765 44.765-44.765c24.68 0 44.762 20.08 44.762 44.765 0 .053-.007.102-.007.155 0 .1.028.194.028.293v31.846c0 4.97 4.043 9.016 9.01 9.016s9.014-4.043 9.014-9.017l-.018-32.292c0-34.626-28.163-62.796-62.79-62.796s-62.784 28.166-62.784 62.79c0 34.625 28.16 62.79 62.785 62.79h21.538c6.904 0 12.5 5.596 12.5 12.5s-5.596 12.503-12.5 12.503h-21.538c-48.41 0-87.787-39.385-87.787-87.794 0-48.405 39.378-87.79 87.787-87.79s87.794 39.385 87.794 87.79l.013 32.288c0 18.768-15.258 34.03-34.015 34.03zm-34.03-66.314c0 10.9-8.866 19.767-19.763 19.767-10.9 0-19.763-8.865-19.763-19.766 0-10.898 8.862-19.767 19.763-19.767 10.897 0 19.763 8.866 19.763 19.767z"/></g></svg>