<svg xmlns="http://www.w3.org/2000/svg" width="400" height="400" viewBox="0 0 400 400"><g><path fill="#5E2750" d="M199.99 0C89.71 0 0 89.722 0 200s89.715 200 199.99 200C310.274 400 400 310.275 400 200S310.275 0 199.99 0zm.006 287.496c-48.25 0-87.5-39.246-87.5-87.5 0-48.248 39.25-87.498 87.5-87.498 48.242 0 87.5 39.25 87.5 87.5s-39.257 87.498-87.5 87.498zm0-149.998c-34.466 0-62.498 28.04-62.498 62.498 0 34.466 28.035 62.502 62.498 62.502s62.502-28.035 62.502-62.502c0-34.46-28.04-62.498-62.502-62.498zm0 100c-20.715 0-37.5-16.786-37.5-37.5 0-20.713 16.785-37.5 37.5-37.5 20.712 0 37.5 16.788 37.5 37.5 0 20.714-16.784 37.5-37.5 37.5z"/></g></svg>