<svg xmlns="http://www.w3.org/2000/svg" width="400" height="400" viewBox="0 0 400 400"><g><g fill="#2C001E"><path d="M156.326 316.11c-2.745 0-5.644-.176-8.7-.533-3.052-.36-6.004-.84-8.85-1.45-2.855-.614-5.444-1.27-7.787-1.983-2.343-.713-4.174-1.38-5.494-1.983l4.427-18.926c2.642 1.118 6.025 2.314 10.15 3.588 4.12 1.27 9.228 1.91 15.338 1.91 7.018 0 12.16-1.32 15.414-3.97 3.256-2.646 4.886-6.21 4.886-10.682 0-2.748-.586-5.066-1.753-6.946-1.175-1.88-2.776-3.41-4.808-4.58-2.037-1.167-4.453-1.982-7.254-2.44-2.794-.46-5.775-.688-8.925-.688h-8.85v-18.313h10.072c2.237 0 4.396-.205 6.484-.607 2.085-.406 3.944-1.097 5.57-2.064 1.63-.967 2.928-2.286 3.895-3.965.964-1.683 1.45-3.792 1.45-6.336 0-1.936-.408-3.608-1.223-5.037-.815-1.43-1.856-2.593-3.126-3.514-1.272-.915-2.75-1.603-4.43-2.058-1.683-.46-3.383-.684-5.112-.684-4.374 0-8.42.663-12.128 1.983-3.722 1.327-7.098 2.954-10.15 4.887l-8.092-16.637c1.626-1.016 3.538-2.088 5.722-3.207 2.187-1.118 4.61-2.134 7.253-3.048 2.642-.917 5.472-1.68 8.467-2.29 3.006-.61 6.184-.917 9.543-.917 6.202 0 11.575.74 16.097 2.208 4.526 1.478 8.27 3.56 11.222 6.25 2.946 2.693 5.136 5.84 6.558 9.448 1.425 3.602 2.138 7.546 2.138 11.81 0 4.167-1.17 8.207-3.514 12.12-2.34 3.908-5.493 6.882-9.458 8.914 5.493 2.24 9.737 5.58 12.742 10.012 3 4.43 4.498 9.754 4.498 15.963 0 4.897-.81 9.4-2.438 13.53-1.63 4.123-4.173 7.693-7.63 10.695-3.462 3.006-7.864 5.352-13.202 7.027-5.337 1.67-11.673 2.515-19 2.515zM211.275 230.032c2.953-1.224 6.03-2.618 9.232-4.198 3.21-1.577 6.336-3.31 9.387-5.19 3.05-1.88 5.973-3.865 8.774-5.954 2.8-2.085 5.316-4.297 7.556-6.64h15.87v105.77H239.36v-76.164c-3.048 2.04-6.463 3.895-10.227 5.574-3.763 1.68-7.425 3.13-10.984 4.35l-6.87-17.548zM200 0C89.542 0 0 89.542 0 200.004c0 62.092 28.296 117.577 72.7 154.262V101.56h46.348v23.097H107.3v23.15h46.292v-23.15H142.19V101.56h46.29v23.097h-11.658v23.15h46.295v-23.15H211.63V101.56h46.285v23.097H246.26v23.15h46.29v-23.15h-11.49V101.56h46.236v252.706c44.4-36.682 72.704-92.17 72.704-154.262C400.004 89.542 310.458 0 200 0z"/></g></g></svg>