<?xml version="1.0" encoding="iso-8859-1"?>
<!-- Generator: Adobe Illustrator 17.0.2, SVG Export Plug-In . SVG Version: 6.00 Build 0)  -->
<!DOCTYPE svg PUBLIC "-//W3C//DTD SVG 1.1//EN" "http://www.w3.org/Graphics/SVG/1.1/DTD/svg11.dtd">
<svg version="1.1" xmlns="http://www.w3.org/2000/svg" xmlns:xlink="http://www.w3.org/1999/xlink" x="0px" y="0px" width="400px"
	 height="400px" viewBox="0 0 400 400" style="enable-background:new 0 0 400 400;" xml:space="preserve">
<g id="BK" style="display:none;">
	<rect x="-1100" y="-1080" style="display:inline;fill:#FFFFFF;" width="5100" height="4060"/>
</g>
<g id="Comp">
	<g id="_x35_8">
		<path style="fill:#888888;" d="M200.004-0.002C89.722-0.002,0,89.717,0,199.998s89.722,200.004,200.004,200.004
			C310.282,400.002,400,310.28,400,199.998S310.282-0.002,200.004-0.002z M137.474,281.271c-13.808,0-24.998-11.19-24.998-24.998
			s11.194-25.001,24.998-25.001s24.998,11.194,24.998,25.001S151.278,281.271,137.474,281.271z M262.209,281.271
			c-13.804,0-24.998-11.19-24.998-24.998s11.194-25.001,24.998-25.001c13.808,0,25.005,11.194,25.005,25.001
			S276.016,281.271,262.209,281.271z M299.688,255.818c-0.243-20.496-16.923-37.045-37.479-37.045
			c-20.655,0-37.409,16.711-37.493,37.352h-49.752c-0.081-20.641-16.831-37.352-37.493-37.352c-20.532,0-37.186,16.51-37.472,36.968
			c-28.067-3.164-49.89-26.949-49.89-55.859c0-29.901,23.322-54.328,52.765-56.137c-13.162-26.388-3.658-58.811,22.232-73.762
			c25.89-14.944,58.713-6.964,74.993,17.632c16.281-24.592,49.1-32.572,74.993-17.625c25.887,14.944,35.384,47.36,22.228,73.755
			c29.439,1.81,52.758,26.236,52.758,56.137C350.078,228.965,328.005,252.887,299.688,255.818z"/>
	</g>
</g>
</svg>
