<svg xmlns="http://www.w3.org/2000/svg" width="400" height="400" viewBox="0 0 400 400"><g><g fill="#888"><path d="M257.973 284.05c-78.313 0-142.022-63.716-142.022-142.026C115.95 63.71 179.664 0 257.974 0S400 63.712 400 142.025c0 78.31-63.717 142.024-142.027 142.024"/><path d="M98.52 152.246c3.253 51.26 30.78 96.032 71.192 122.91l.005-.01-98.7 56.988 26.014-97.046L0 209.138l98.534-56.89-.015-.002zM186.94 285.13c21.41 10.666 45.53 16.674 71.032 16.674 25.485 0 49.603-6.002 71.005-16.662l-.005-.013v114.32l-71.035-71.05-70.99 71.05V285.12l-.007.01z"/></g></g></svg>