<?xml version="1.0" encoding="utf-8"?>
<!-- Generator: Adobe Illustrator 17.0.2, SVG Export Plug-In . SVG Version: 6.00 Build 0)  -->
<!DOCTYPE svg PUBLIC "-//W3C//DTD SVG 1.1//EN" "http://www.w3.org/Graphics/SVG/1.1/DTD/svg11.dtd">
<svg version="1.1" xmlns="http://www.w3.org/2000/svg" xmlns:xlink="http://www.w3.org/1999/xlink" x="0px" y="0px" width="400px"
	 height="400px" viewBox="0 0 400 400" enable-background="new 0 0 400 400" xml:space="preserve">
<g id="BK" display="none">
	<rect x="-1600" y="-3580" display="inline" fill="#FFFFFF" width="5100" height="4060"/>
</g>
<g id="Comp">
	<g id="_x37_">
		<path fill="#2C001E" d="M346.216,0h-32.5c-0.167,0-0.34,0.018-0.504,0.024H183.744h-0.003
			c-81.899,0-148.529,66.63-148.529,148.531c0,75.593,56.771,138.178,129.913,147.366V400h37.138V295.934
			c73.145-9.138,129.944-71.684,130.007-147.259c0-0.044,0.003-0.081,0.003-0.12V51.466c0.005-0.136,0.026-0.272,0.026-0.408
			c0-7.68,6.243-13.928,13.918-13.928c10.257,0,18.572-8.312,18.572-18.566C364.788,8.31,356.47,0,346.216,0z M219.917,184.708
			c-15.77,15.765-36.743,24.451-59.055,24.451h-0.005c-7.301,0-14.576-0.954-21.619-2.833c-6.426-1.709-11.443-6.726-13.152-13.152
			c-7.672-28.755,0.611-59.669,21.624-80.681c15.77-15.768,36.746-24.449,59.055-24.449c7.301,0,14.579,0.946,21.616,2.83
			c6.428,1.712,11.44,6.729,13.152,13.149C249.208,132.779,240.925,163.69,219.917,184.708z M277.159,46.308
			c-5.124,0-9.287-4.155-9.287-9.285c0-5.124,4.163-9.282,9.287-9.282c5.127,0,9.284,4.158,9.284,9.282
			C286.443,42.153,282.285,46.308,277.159,46.308z"/>
	</g>
</g>
</svg>
