<?xml version="1.0" encoding="utf-8"?>
<!-- Generator: Adobe Illustrator 17.0.2, SVG Export Plug-In . SVG Version: 6.00 Build 0)  -->
<!DOCTYPE svg PUBLIC "-//W3C//DTD SVG 1.1//EN" "http://www.w3.org/Graphics/SVG/1.1/DTD/svg11.dtd">
<svg version="1.1" xmlns="http://www.w3.org/2000/svg" xmlns:xlink="http://www.w3.org/1999/xlink" x="0px" y="0px" width="400px"
	 height="400px" viewBox="0 0 400 400" enable-background="new 0 0 400 400" xml:space="preserve">
<g id="BK" display="none">
	<rect x="-3600" y="-2580" display="inline" fill="#FFFFFF" width="5100" height="4060"/>
</g>
<g id="Comp">
	<g id="_x32_3">
		<path fill="#5E2750" d="M199.998,0.002C89.718,0.002,0,89.719,0,199.996s89.721,200.002,199.998,200.002
			C310.279,399.998,400,310.274,400,199.996S310.279,0.002,199.998,0.002z M293.734,256.126h-82.524V132.5l33.789-22.5h-90v146.126
			h-48.736c-31.065,0-56.246-25.181-56.246-56.243c0-29.901,23.322-54.331,52.761-56.137c-13.158-26.391-3.658-58.811,22.235-73.762
			c25.887-14.944,58.705-6.964,74.986,17.632c16.288-24.592,49.103-32.572,74.996-17.625c25.887,14.947,35.383,47.36,22.225,73.758
			c29.446,1.806,52.761,26.236,52.761,56.137C349.98,230.945,324.796,256.126,293.734,256.126z"/>
	</g>
</g>
</svg>
