<svg xmlns="http://www.w3.org/2000/svg" width="400" height="400" viewBox="0 0 400 400"><g><path fill="#DD4814" d="M199.914 0C118.554 0 48.44 48.864 17.23 118.756h87.726c-3.39 3.962-6.544 8.132-9.426 12.5H12.093c-2.97 8.095-5.38 16.453-7.295 24.994h78.007c-1.524 4.075-2.854 8.24-3.95 12.503H2.377C1.09 176.93.342 185.28.08 193.755h75c-.103 2.07-.156 4.152-.156 6.244 0 2.098.056 4.183.155 6.254H.077c.26 8.47 1.012 16.824 2.3 24.998H78.86c1.098 4.262 2.428 8.428 3.952 12.503H4.802C6.716 252.3 9.13 260.66 12.1 268.757h83.44c2.882 4.367 6.04 8.54 9.433 12.503H17.24C48.45 351.15 118.562 400 199.917 400c110.283 0 200.005-89.723 200.005-200.002S310.2 0 199.914 0zm-18.73 112.586c0-10.354 8.396-18.75 18.75-18.75 10.358 0 18.75 8.396 18.75 18.75v87.874c0 10.354-8.396 18.747-18.75 18.747s-18.75-8.396-18.75-18.747v-87.874zm85.23 153.844c-17.714 17.713-41.252 27.457-66.292 27.457h-.007c-25.044 0-48.585-9.754-66.29-27.464-35.156-35.155-36.75-91.702-3.635-128.73 6.904-7.722 18.76-8.382 26.473-1.478 7.72 6.904 8.382 18.757 1.478 26.476-19.857 22.212-18.897 56.128 2.2 77.218 10.625 10.63 24.75 16.482 39.775 16.482 15.025 0 29.15-5.85 39.772-16.47 21.02-21.023 22.038-54.88 2.328-77.08-6.872-7.747-6.17-19.6 1.57-26.473 7.744-6.883 19.597-6.174 26.473 1.57 32.872 37.02 31.182 93.46-3.845 128.493z"/></g></svg>