<svg xmlns="http://www.w3.org/2000/svg" width="400" height="400" viewBox="0 0 400 400"><g><path fill="#DD4814" d="M200.002 400.004C89.72 400.004 0 310.28 0 200.004 0 89.72 89.723-.003 200.002-.003S400 89.72 400 200.006c0 110.275-89.72 199.998-199.998 199.998zm0-300.008C144.862 99.996 100 144.86 100 200.002c0 55.14 44.862 100 100.002 100 55.136 0 99.996-44.86 99.996-100 0-55.143-44.86-100.006-99.996-100.006zm-31.814 118.982c10.354 17.932 33.288 24.074 51.224 13.72 17.935-10.347 24.08-33.288 13.727-51.224-10.362-17.94-33.293-24.08-51.225-13.727-17.936 10.354-24.085 33.288-13.727 51.23z"/></g></svg>