<?xml version="1.0" encoding="iso-8859-1"?>
<!-- Generator: Adobe Illustrator 17.0.2, SVG Export Plug-In . SVG Version: 6.00 Build 0)  -->
<!DOCTYPE svg PUBLIC "-//W3C//DTD SVG 1.1//EN" "http://www.w3.org/Graphics/SVG/1.1/DTD/svg11.dtd">
<svg version="1.1" xmlns="http://www.w3.org/2000/svg" xmlns:xlink="http://www.w3.org/1999/xlink" x="0px" y="0px" width="400px"
	 height="400px" viewBox="0 0 400 400" style="enable-background:new 0 0 400 400;" xml:space="preserve">
<g id="BK" style="display:none;">
	<rect x="-4100" y="-3080" style="display:inline;fill:#FFFFFF;" width="5100" height="4060"/>
</g>
<g id="Comp">
	<g id="_x31_2">
		<path style="fill:#888888;" d="M182.529,220.946c4.886,4.882,11.278,7.32,17.678,7.32c6.396,0,12.792-2.438,17.671-7.32
			l44.68-44.68v86.195H137.556V175.97L182.529,220.946z M300.089,26.85c-7.736-4.48-17.272-4.487-25.016-0.025
			c-7.744,4.463-12.517,12.721-12.517,21.661v75.707l-44.68-44.673c-9.754-9.761-25.58-9.761-35.349,0l-44.972,44.972V48.426
			c0-8.936-4.77-17.191-12.506-21.661c-7.736-4.459-17.269-4.459-25.005,0.014C38.344,62.46,0,128.828,0,199.988
			C0,310.27,89.726,400,200.002,400S400,310.27,400,199.988C400,128.895,361.72,62.552,300.089,26.85"/>
	</g>
</g>
</svg>
