<svg xmlns="http://www.w3.org/2000/svg" width="400" height="400" viewBox="0 0 400 400"><g><path fill="#5E2750" d="M237.493 187.53H162.5c.028-20.653 16.835-37.448 37.493-37.448 20.666 0 37.476 16.792 37.5 37.447zM400 199.995C400 89.718 310.275 0 199.993 0 89.715 0 0 89.718 0 199.996c0 57.07 24.03 108.627 62.494 145.1V200.03c0-6.904 5.6-12.5 12.5-12.5h12.5v-12.127h25.002v12.13h25c.03-34.44 28.054-62.45 62.5-62.45s62.47 28.007 62.497 62.45h25.005V175.4h24.998v12.13h12.506c6.9 0 12.5 5.594 12.5 12.498v145.066C375.964 308.624 400 257.064 400 199.996z"/></g></svg>