<svg xmlns="http://www.w3.org/2000/svg" width="400" height="400" viewBox="0 0 400 400"><g><g fill="#888"><path d="M200.002 49.996c-82.71 0-150.006 67.286-150.006 150.002s67.293 150.006 150.006 150.006S350 282.714 350 199.998 282.715 49.996 200.002 49.996m0 350.008C89.722 400.004 0 310.284 0 199.998 0 89.718 89.726-.004 200.002-.004S400 89.72 400 199.998c0 110.286-89.723 200.006-199.998 200.006M305.32 165.948c-.84-2.58-3.15-4.378-5.947-4.325l-71.805.085-22.112-68.312c-.84-2.575-3.24-4.325-5.955-4.325-2.705 0-5.104 1.75-5.936 4.326l-22.11 68.312-71.804-.085h-.01c-2.707 0-5.102 1.75-5.945 4.325-.833 2.575.08 5.4 2.28 6.99l58.134 42.14-22.268 68.255c-.833 2.575.08 5.398 2.275 6.992 2.19 1.59 5.154 1.59 7.352-.004l58.028-42.262 58.046 42.263c1.1.802 2.392 1.2 3.68 1.2.014-.004.032-.004.05 0 3.453 0 6.247-2.798 6.247-6.25 0-.936-.21-1.828-.578-2.622l-22.045-67.568 58.138-42.14c2.2-1.588 3.125-4.413 2.286-6.992"/></g></g></svg>