<svg xmlns="http://www.w3.org/2000/svg" width="400" height="400" viewBox="0 0 400 400"><g><path fill="#DD4814" d="M200 0C89.718 0 0 89.718 0 199.996S89.718 400 200 400s200-89.725 200-200.004C400 89.718 310.282 0 200 0zm93.736 256.127H106.27c-31.065 0-56.25-25.18-56.25-56.24 0-29.9 23.323-54.33 52.762-56.137-13.16-26.39-3.658-58.81 22.232-73.762 25.89-14.944 58.71-6.964 74.99 17.632 16.288-24.592 49.096-32.572 74.993-17.625 25.887 14.947 35.384 47.36 22.225 73.76 29.45 1.805 52.76 26.235 52.76 56.136 0 31.056-25.187 56.237-56.246 56.237z"/></g></svg>