<svg xmlns="http://www.w3.org/2000/svg" width="400" height="400" viewBox="0 0 400 400"><g><path d="M51.084 99.97H26.866C61.5 40.252 126.136 0 199.996 0c73.864 0 138.5 40.252 173.14 99.97H348.92c-.16 0-.31.018-.47.025H217.19c-7.695 0-14.296 4.64-17.188 11.264-2.89-6.626-9.493-11.265-17.184-11.265H51.553c-.16-.007-.31-.025-.47-.025zm297.06 200.064h-74.07c-10.353 0-18.746-8.396-18.746-18.747 0-10.358 8.396-18.75 18.747-18.75h62.346v-16.683h-62.345c-10.354 0-18.747-8.396-18.747-18.747 0-10.358 8.396-18.75 18.747-18.75h62.346V191.68h-62.345c-10.354 0-18.747-8.395-18.747-18.75s8.396-18.746 18.747-18.746h62.346V137.5H217.19c-7.695 0-14.296-4.635-17.188-11.263-2.89 6.63-9.493 11.264-17.184 11.264H63.583v16.684h62.346c10.353 0 18.75 8.396 18.75 18.747 0 10.36-8.4 18.75-18.75 18.75H63.582v16.677h62.346c10.353 0 18.75 8.396 18.75 18.75s-8.4 18.747-18.75 18.747H63.582v16.683h62.346c10.353 0 18.75 8.396 18.75 18.75s-8.4 18.747-18.75 18.747H51.86c-.473 0-.938-.035-1.397-.07l-23.738-.177C61.33 359.64 126.035 400 199.995 400c73.963 0 138.677-40.36 173.28-100.213l-23.73.176c-.467.035-.93.07-1.4.07z" fill="#888"/></g></svg>