<svg xmlns="http://www.w3.org/2000/svg" width="400" height="400" viewBox="0 0 400 400"><g><path d="M363.76 164.766c8.406-8.407 19.056-13.17 30.028-14.34-9.236-36.087-28.34-68.236-54.208-93.484-6.495 8.827-15.893 15.607-27.29 18.666-26.678 7.147-54.09-8.678-61.226-35.35-3.052-11.39-1.894-22.9 2.49-32.928C236.498 2.59 218.563 0 200.017 0c-18.82 0-37.035 2.667-54.31 7.55 4.303 9.976 5.428 21.402 2.398 32.71-7.144 26.666-34.555 42.495-61.22 35.348-11.205-3.006-20.46-9.606-26.936-18.2C34.3 82.614 15.374 114.64 6.212 150.546c10.66 1.316 20.994 6.022 29.182 14.21 19.523 19.526 19.533 51.185.01 70.722-8.176 8.177-18.485 12.876-29.142 14.203 9.193 35.858 28.134 67.837 53.792 93 6.47-8.522 15.67-15.07 26.815-18.05 26.673-7.155 54.094 8.677 61.238 35.348 3.013 11.23 1.912 22.574-2.328 32.49 17.262 4.873 35.437 7.533 54.233 7.533 18.517 0 36.428-2.57 53.453-7.302-4.307-9.977-5.436-21.407-2.413-32.713 7.137-26.667 34.562-42.507 61.24-35.36 11.35 3.038 20.704 9.777 27.188 18.536 25.874-25.21 44.988-57.32 54.252-93.355-10.95-1.185-21.583-5.948-29.972-14.333-19.527-19.535-19.527-51.183 0-70.706zm-128.406 70.602c-19.523 19.52-51.178 19.505-70.708-.014-19.52-19.523-19.52-51.18 0-70.704 19.54-19.523 51.185-19.537 70.708-.007 19.523 19.522 19.523 51.192 0 70.725z" fill="#888"/></g></svg>