<svg xmlns="http://www.w3.org/2000/svg" width="400" height="400" viewBox="0 0 400 400"><g><path d="M200.004 0C89.544 0 0 89.543 0 200.004S89.547 400 200.004 400 400 310.46 400 200.004C400.004 89.544 310.464 0 200.004 0zM200 95.625c24.166 0 43.75 19.59 43.75 43.745 0 24.173-19.588 43.756-43.75 43.756-24.16 0-43.75-19.587-43.75-43.756 0-24.158 19.595-43.745 43.75-43.745zm87.51 208.753H112.504c-6.9 0-12.503-5.602-12.503-12.5 0-55.136 44.863-100.006 100.004-100.006s100.004 44.87 100.004 100.007c-.005 6.896-5.6 12.498-12.497 12.498zm-52.507-47.552c0 19.297-15.702 35-35 35-19.3 0-35.003-15.702-35.003-35 0-18.108 13.82-33.042 31.465-34.823v-10.32c0-1.407.85-2.687 2.16-3.234 1.304-.537 2.807-.24 3.813.765l17.128 17.128c1.372 1.37 1.372 3.588 0 4.95l-17.128 17.128c-.667.67-1.563 1.028-2.477 1.028-.45 0-.906-.08-1.336-.265-1.31-.54-2.16-1.824-2.16-3.235v-9.804c-9.898 1.69-17.462 10.308-17.462 20.68 0 11.575 9.42 20.994 21 20.994s21-9.42 21-20.994c0-3.87 3.135-7.003 6.998-7.003s7.003 3.136 7.003 7.006z" fill="#888"/></g></svg>