<?xml version="1.0" encoding="iso-8859-1"?>
<!-- Generator: Adobe Illustrator 17.0.2, SVG Export Plug-In . SVG Version: 6.00 Build 0)  -->
<!DOCTYPE svg PUBLIC "-//W3C//DTD SVG 1.1//EN" "http://www.w3.org/Graphics/SVG/1.1/DTD/svg11.dtd">
<svg version="1.1" xmlns="http://www.w3.org/2000/svg" xmlns:xlink="http://www.w3.org/1999/xlink" x="0px" y="0px" width="400px"
	 height="400px" viewBox="0 0 400 400" style="enable-background:new 0 0 400 400;" xml:space="preserve">
<g id="BK" style="display:none;">
	<rect x="-3600" y="-1080" style="display:inline;fill:#FFFFFF;" width="5100" height="4060"/>
</g>
<g id="Comp">
	<g id="_x35_3">
		<path style="fill:#888888;" d="M337.495,345.101V74.99h-49.939v24.948h12.411v24.998h-50.003V99.938h12.591V74.99h-49.999v24.948
			h12.411v24.998h-50.003V99.938h12.594V74.99h-49.999v24.948h12.315v24.998H99.871V99.938h12.686V74.99H62.502v270.118
			C24.031,308.631,0,257.072,0,199.996C0,89.718,89.718,0,199.996,0C310.278,0,400,89.718,400,199.996
			C399.996,257.065,375.965,308.631,337.495,345.101z M199.996,312.561c34.463,0,62.498-28.042,62.498-62.502h-24.998
			c0,20.676-16.824,37.497-37.5,37.497s-37.5-16.82-37.5-37.497h-25.001C137.498,284.515,165.534,312.561,199.996,312.561
			L199.996,312.561z"/>
	</g>
</g>
</svg>
