<svg xmlns="http://www.w3.org/2000/svg" width="400" height="400" viewBox="0 0 400 400"><g><path fill="#2C001E" d="M200 0C89.718 0 0 89.718 0 199.996S89.718 400 200 400s200-89.725 200-200.004S310.282 0 200 0zm93.736 256.127H106.27c-31.065 0-56.25-25.18-56.25-56.243 0-29.9 23.323-54.33 52.762-56.137-13.16-26.39-3.658-58.81 22.232-73.762 25.89-14.944 58.71-6.964 74.99 17.632 16.284-24.592 49.1-32.572 74.993-17.625 25.887 14.947 35.384 47.36 22.225 73.76 29.446 1.805 52.76 26.235 52.76 56.136 0 31.058-25.183 56.24-56.246 56.24zM137.502 176.11c0 6.904-5.595 12.5-12.5 12.5s-12.498-5.596-12.498-12.5 5.595-12.5 12.5-12.5c6.903-.002 12.498 5.596 12.498 12.5zm37.5 0c0 6.904-5.595 12.5-12.5 12.5s-12.498-5.596-12.498-12.5 5.595-12.5 12.5-12.5S175 169.207 175 176.11zm37.497 0c0 6.904-5.596 12.5-12.5 12.5s-12.5-5.596-12.5-12.5 5.596-12.5 12.5-12.5 12.5 5.596 12.5 12.5zm37.5 0c0 6.904-5.596 12.5-12.503 12.5-6.9 0-12.5-5.596-12.5-12.5s5.6-12.5 12.5-12.5c6.907-.002 12.502 5.596 12.502 12.5zm37.5 0c0 6.904-5.596 12.5-12.503 12.5-6.9 0-12.5-5.596-12.5-12.5s5.6-12.5 12.5-12.5c6.907-.002 12.502 5.596 12.502 12.5zM137.5 213.61c0 6.9-5.595 12.5-12.5 12.5s-12.498-5.6-12.498-12.5c0-6.904 5.595-12.5 12.5-12.5 6.903-.002 12.498 5.596 12.498 12.5zm25 12.5c-6.903 0-12.498-5.6-12.498-12.5 0-6.904 5.595-12.5 12.5-12.5H237.5c6.907 0 12.502 5.596 12.502 12.5 0 6.9-5.595 12.5-12.502 12.5h-74.997zm124.997-12.5c0 6.9-5.596 12.5-12.503 12.5-6.9 0-12.5-5.6-12.5-12.5 0-6.904 5.6-12.5 12.5-12.5 6.907-.002 12.502 5.596 12.502 12.5z"/></g></svg>