<?xml version="1.0" encoding="iso-8859-1"?>
<!-- Generator: Adobe Illustrator 17.0.2, SVG Export Plug-In . SVG Version: 6.00 Build 0)  -->
<!DOCTYPE svg PUBLIC "-//W3C//DTD SVG 1.1//EN" "http://www.w3.org/Graphics/SVG/1.1/DTD/svg11.dtd">
<svg version="1.1" xmlns="http://www.w3.org/2000/svg" xmlns:xlink="http://www.w3.org/1999/xlink" x="0px" y="0px" width="400px"
	 height="400px" viewBox="0 0 400 400" style="enable-background:new 0 0 400 400;" xml:space="preserve">
<g id="BK" style="display:none;">
	<rect x="-600" y="-3580" style="display:inline;fill:#FFFFFF;" width="5100" height="4060"/>
</g>
<g id="Comp">
	<g id="_x39_">
		<path style="fill:#888888;" d="M221.269,68.13c5.186-2.18,10.661-3.778,16.359-4.752V85.12
			C230.198,81.814,224.303,75.704,221.269,68.13z M262.623,189.85v21.407c5.74-0.96,11.264-2.554,16.489-4.745
			C275.986,199.051,270.049,193.057,262.623,189.85z M341.42,341.42c-19.269,19.266-41.787,34.089-66.295,44.017V275.178
			c0-13.808-11.201-24.998-25.002-24.998c-13.808,0-24.998,11.19-24.998,24.998v75.309c0-13.804-11.197-24.998-24.995-24.998
			c-13.811,0-25.002,11.194-25.002,24.998c0-13.804-11.194-24.998-25.002-24.998s-24.998,11.194-24.998,24.998
			c0-13.804-11.194-24.998-24.998-24.998c-13.811,0-25.002,11.194-25.002,24.998v5.719c-5.733-4.6-11.271-9.508-16.549-14.782
			C20.804,303.651,0,253.429,0,200C0,146.578,20.804,96.356,58.58,58.58S146.582,0,200.004,0
			c53.426,0,103.644,20.804,141.417,58.576C379.196,96.352,400,146.578,400,200C400.004,253.426,379.196,303.648,341.42,341.42z
			 M350.272,137.286c0-55.137-44.86-99.996-99.993-99.996c-55.137,0-99.993,44.856-99.993,99.996s44.856,100.004,99.993,100.004
			C305.412,237.289,350.272,192.426,350.272,137.286z M262.623,111.441v13.434h61.603c-2.84-16.994-11.398-32.072-23.651-43.17
			C293.117,96.582,279.249,107.701,262.623,111.441z M237.624,111.37c-16.493-3.81-30.23-14.884-37.642-29.666
			c-12.249,11.099-20.811,26.173-23.654,43.17h61.296V111.37z M221.446,206.512c5.133,2.152,10.552,3.725,16.182,4.688v-21.206
			C230.346,193.234,224.526,199.157,221.446,206.512z M262.623,163.677c16.489,3.711,30.255,14.679,37.755,29.359
			c12.309-11.074,20.927-26.148,23.82-43.156h-61.575V163.677z M237.624,163.748v-13.871h-61.268
			c2.889,17.008,11.508,32.086,23.813,43.156C207.634,178.441,221.276,167.523,237.624,163.748z M279.285,68.133
			c-5.274-2.219-10.862-3.842-16.662-4.805v21.943C270.197,81.997,276.215,75.81,279.285,68.133z M250.032,262.439
			c-6.897,0-12.499,5.592-12.492,12.499c-0.007,6.897,5.595,12.496,12.492,12.496c6.904,0,12.506-5.592,12.499-12.496
			C262.531,268.031,256.936,262.439,250.032,262.439z"/>
	</g>
</g>
</svg>
