<svg xmlns="http://www.w3.org/2000/svg" width="400" height="400" viewBox="0 0 400 400"><g><path fill="#DD4814" d="M200 0C89.542 0 0 89.53 0 199.988 0 310.445 89.542 400 200 400c110.453 0 200-89.555 200-200.012S310.453 0 200 0z"/><g fill="#fff"><path d="M102.934 323.66c-1.7 1.707-3.95 2.637-6.36 2.637s-4.677-.938-6.374-2.648c-1.694-1.696-2.64-3.95-2.64-6.36 0-2.398.945-4.664 2.64-6.375 1.697-1.695 3.963-2.633 6.374-2.633s4.66.938 6.36 2.633c1.697 1.695 2.63 3.96 2.63 6.375.004 2.41-.933 4.663-2.63 6.37zM142.182 189.164c-.903-2.883-2.21-5.258-3.872-7.055-1.665-1.786-3.675-3.137-5.992-3.985-2.317-.86-4.934-1.297-7.797-1.297-2.865 0-5.47.438-7.74 1.297-2.266.848-4.254 2.2-5.926 3.984-1.652 1.796-2.963 4.17-3.862 7.054-.92 2.914-1.384 6.46-1.384 10.578v104.813H87.522v-106.43c0-5.36.72-10.36 2.155-14.844 1.438-4.5 3.702-8.468 6.732-11.82 3.026-3.347 6.89-5.968 11.48-7.81 4.582-1.853 10.135-2.79 16.492-2.79 6.358 0 11.957.938 16.625 2.79 4.68 1.843 8.6 4.464 11.628 7.81 3.012 3.353 5.306 7.314 6.797 11.82 1.467 4.485 2.23 9.485 2.23 14.845v14.453h-18.086v-12.836c-.018-4.105-.48-7.656-1.394-10.578zM217.702 262.633c0 5.39-.75 10.39-2.24 14.867-1.48 4.5-3.76 8.47-6.79 11.82-3.03 3.336-6.942 5.97-11.62 7.812-4.673 1.84-10.277 2.777-16.624 2.777-6.356 0-11.894-.938-16.482-2.778-4.602-1.844-8.46-4.476-11.502-7.812-3.018-3.352-5.277-7.32-6.718-11.82-1.432-4.484-2.166-9.484-2.166-14.867v-45.726h18.09v44.14c0 4.098.468 7.656 1.385 10.562.91 2.898 2.206 5.265 3.862 7.05 1.676 1.797 3.66 3.137 5.922 3.996 2.276.86 4.876 1.297 7.745 1.297 2.852 0 5.486-.45 7.8-1.31 2.3-.847 4.313-2.198 5.98-3.983 1.668-1.797 2.975-4.16 3.877-7.043.92-2.922 1.385-6.484 1.385-10.57v-44.14h18.09v45.726h.005zM199.648 203.72c0-4.98 4.032-9.01 8.998-9.01 4.965 0 9.01 4.03 9.01 9.01 0 4.952-4.045 8.99-9.01 8.99-4.97 0-8.998-4.038-8.998-8.99zM254.262 76.047c-.902-2.875-2.21-5.266-3.87-7.05-1.663-1.798-3.682-3.138-5.982-3.985-2.318-.87-4.94-1.293-7.808-1.293-2.856 0-5.462.42-7.738 1.28-2.262.86-4.258 2.207-5.916 3.996-1.662 1.785-2.965 4.16-3.867 7.05-.92 2.915-1.377 6.454-1.377 10.57V191.43h-18.096V85.02c0-5.363.724-10.363 2.163-14.852 1.44-4.512 3.7-8.48 6.73-11.832 3.022-3.336 6.89-5.96 11.484-7.812 4.592-1.84 10.142-2.79 16.486-2.79 6.348 0 11.938.95 16.617 2.79 4.69 1.852 8.598 4.476 11.62 7.812 3.034 3.352 5.315 7.32 6.803 11.82 1.477 4.5 2.225 9.5 2.225 14.863v14.433h-18.092V86.617c0-4.097-.47-7.656-1.38-10.57zM329.783 149.52c0 5.38-.753 10.38-2.24 14.856-1.482 4.508-3.76 8.484-6.78 11.82-3.042 3.336-6.948 5.97-11.622 7.82-4.687 1.832-10.277 2.77-16.622 2.77-6.363 0-11.912-.938-16.502-2.77-4.588-1.852-8.455-4.484-11.488-7.82-3.02-3.336-5.287-7.312-6.732-11.82-1.422-4.484-2.152-9.484-2.152-14.856v-45.723h18.09v44.125c0 4.098.465 7.656 1.38 10.57.903 2.89 2.205 5.258 3.876 7.055 1.658 1.785 3.66 3.125 5.916 3.984 2.272.86 4.872 1.306 7.734 1.306 2.87 0 5.495-.445 7.812-1.305 2.305-.858 4.31-2.198 5.976-3.983 1.658-1.797 2.973-4.164 3.88-7.055.91-2.914 1.383-6.472 1.383-10.57v-44.125h18.08v45.723h.013z"/></g></g></svg>