<?xml version="1.0" encoding="utf-8"?>
<!-- Generator: Adobe Illustrator 17.0.2, SVG Export Plug-In . SVG Version: 6.00 Build 0)  -->
<!DOCTYPE svg PUBLIC "-//W3C//DTD SVG 1.1//EN" "http://www.w3.org/Graphics/SVG/1.1/DTD/svg11.dtd">
<svg version="1.1" xmlns="http://www.w3.org/2000/svg" xmlns:xlink="http://www.w3.org/1999/xlink" x="0px" y="0px" width="400px"
	 height="400px" viewBox="0 0 400 400" enable-background="new 0 0 400 400" xml:space="preserve">
<g id="BK" display="none">
	<rect x="-2100" y="-2080" display="inline" fill="#FFFFFF" width="5100" height="4060"/>
</g>
<g id="Comp">
	<g id="_x33_6">
		<path fill="#2C001E" d="M247.587,114.175c0,5.257-4.266,9.536-9.517,9.536c-5.27,0-9.542-4.279-9.542-9.536
			c0-5.262,4.271-9.52,9.542-9.52C243.321,104.652,247.587,108.91,247.587,114.175z M400,180.923v33.369
			c0,10.524-8.532,19.059-19.062,19.059c-10.519,0-19.067-8.532-19.067-19.059c0-6.261-4.047-11.58-9.658-13.519
			c-3.394,51.1-31.83,97.59-75.91,123.054c2.927,0.005,5.67,0.678,8.13,1.86c6.515,3.016,11.029,9.606,11.048,17.261
			c0.014,9.885-7.503,18.049-17.172,19h-0.016c-0.502,0.046-1.021,0.086-1.531,0.089h-0.019h-0.032h-0.032
			c-0.065,0-0.111,0-0.173,0.005h-0.167h-0.1h-152.23h-0.278c-10.511-0.057-18.989-8.591-18.973-19.094
			c0.027-10.514,8.556-19.024,19.059-19.024h0.084c-0.008-0.005-0.038-0.105-0.059-0.14
			c-44.077-25.542-72.467-72.046-75.856-123.089c-5.724,1.876-9.866,7.263-9.866,13.594c0,10.524-8.54,19.059-19.064,19.059
			C8.526,233.349,0,224.817,0,214.29v-33.369c0-5.057,2.006-9.906,5.578-13.478c3.575-3.577,8.427-5.586,13.476-5.586h0.005
			l31.276,0.016C63.746,91.401,125.794,37.957,200.1,37.957s136.37,53.443,149.786,123.915l31.05-0.016h0.008
			c5.052,0,9.893,2.009,13.476,5.586C397.991,171.017,400,175.869,400,180.923z M209.566,180.686c0-5.268-4.266-9.534-9.507-9.534
			c-5.27,0-9.542,4.266-9.542,9.534v28.59c0,5.251,4.271,9.52,9.542,9.52c5.241,0,9.507-4.269,9.507-9.52V180.686z M295.266,114.121
			c0-30.261-25.585-54.793-57.156-54.793c-14.634,0-27.966,5.265-38.078,13.929c-10.111-8.664-23.457-13.929-38.07-13.929
			c-31.584,0-57.191,24.532-57.191,54.793c0,30.259,25.606,54.796,57.191,54.796c14.615,0,27.958-5.276,38.07-13.937
			c10.111,8.661,23.444,13.937,38.078,13.937C269.681,168.917,295.266,144.379,295.266,114.121z M161.912,104.652
			c-5.268,0-9.531,4.258-9.531,9.52c0,5.257,4.266,9.536,9.531,9.536c5.262,0,9.523-4.279,9.523-9.536
			C171.434,108.91,167.174,104.652,161.912,104.652z"/>
	</g>
</g>
</svg>
