<?xml version="1.0" encoding="utf-8"?>
<!-- Generator: Adobe Illustrator 17.0.2, SVG Export Plug-In . SVG Version: 6.00 Build 0)  -->
<!DOCTYPE svg PUBLIC "-//W3C//DTD SVG 1.1//EN" "http://www.w3.org/Graphics/SVG/1.1/DTD/svg11.dtd">
<svg version="1.1" xmlns="http://www.w3.org/2000/svg" xmlns:xlink="http://www.w3.org/1999/xlink" x="0px" y="0px" width="400px"
	 height="400px" viewBox="0 0 400 400" enable-background="new 0 0 400 400" xml:space="preserve">
<g id="BK" display="none">
	<rect x="-600" y="-3080" display="inline" fill="#FFFFFF" width="5100" height="4060"/>
</g>
<g id="Comp">
	<g id="_x31_9">
		<path fill="#5E2750" d="M199.989-0.002C89.715-0.002,0,89.72,0,199.998c0,110.285,89.718,200.004,199.989,200.004
			C310.275,400.002,400,310.28,400,199.998S310.275-0.002,199.989-0.002z M283.263,250.131H116.787
			c-27.58,0-49.95-22.363-49.95-49.95c0-26.55,20.712-48.246,46.852-49.847c-11.684-23.439-3.249-52.222,19.745-65.497
			c22.987-13.271,52.133-6.188,66.59,15.656c14.46-21.837,43.603-28.928,66.594-15.653s31.422,42.058,19.741,65.497
			c26.141,1.605,46.852,23.297,46.852,49.847C333.216,227.769,310.85,250.131,283.263,250.131z M133.657,224.269
			c-13.794,0-24.977-11.187-24.977-24.977c0-13.279,10.358-24.126,23.424-24.927c-5.838-11.719-1.623-26.113,9.874-32.748
			c11.49-6.636,26.063-3.094,33.295,7.821c7.225-10.915,21.802-14.46,33.299-7.821c11.493,6.636,15.709,21.029,9.867,32.748
			c13.07,0.801,23.424,11.649,23.424,24.927c0,13.79-11.18,24.977-24.973,24.977H133.657z"/>
	</g>
</g>
</svg>
