<svg xmlns="http://www.w3.org/2000/svg" width="400" height="400" viewBox="0 0 400 400"><g><g fill="#5E2750"><path d="M199.998.004C89.718.004 0 89.72 0 199.994c0 110.278 89.718 200.003 199.998 200.003S400 310.272 400 199.995 310.28.005 199.998.005zM337.6 275.312c0 13.804-11.193 24.998-25 24.998h-99.948v36.8h25c6.905 0 12.5 5.596 12.5 12.5 0 6.9-5.595 12.5-12.5 12.5h-75c-6.903 0-12.498-5.6-12.498-12.5 0-6.904 5.595-12.5 12.5-12.5h25v-36.8H87.608c-13.804 0-25-11.194-25-24.998V125.32c0-13.81 11.196-25.002 25-25.002h224.996c13.808 0 25 11.194 25 25v149.994h-.003z"/><circle cx="318.703" cy="187.503" r="12.499"/><circle cx="318.703" cy="150.007" r="12.499"/><path d="M100.107 137.818h199.998v124.995H100.107z"/></g></g></svg>