<?xml version="1.0" encoding="iso-8859-1"?>
<!-- Generator: Adobe Illustrator 17.0.2, SVG Export Plug-In . SVG Version: 6.00 Build 0)  -->
<!DOCTYPE svg PUBLIC "-//W3C//DTD SVG 1.1//EN" "http://www.w3.org/Graphics/SVG/1.1/DTD/svg11.dtd">
<svg version="1.1" xmlns="http://www.w3.org/2000/svg" xmlns:xlink="http://www.w3.org/1999/xlink" x="0px" y="0px" width="400px"
	 height="400px" viewBox="0 0 400 400" style="enable-background:new 0 0 400 400;" xml:space="preserve">
<g id="BK" style="display:none;">
	<rect x="-3100" y="-1080" style="display:inline;fill:#FFFFFF;" width="5100" height="4060"/>
</g>
<g id="Comp">
	<g id="_x35_4">
		<path style="fill:#888888;" d="M200.002-0.004C89.716-0.004,0,89.716,0,199.995c0,110.286,89.719,200.009,200.002,200.009
			C310.277,400.004,400,310.281,400,199.995C400,89.716,310.277-0.004,200.002-0.004z M270.046,240.928l-61.19,61.19
			c-4.879,4.882-12.788,4.882-17.674,0l-60.579-60.583c-2.646-2.293-4.315-5.673-4.315-9.447c0-6.9,5.595-12.503,12.503-12.503
			h0.046h36.16v-0.004V119.229c0-13.808,11.197-24.998,24.998-24.998c13.808,0,25.002,11.19,25.002,24.998v100.355h36.209
			c5.052,0,9.613,3.045,11.543,7.722C274.689,231.978,273.616,237.358,270.046,240.928z"/>
	</g>
</g>
</svg>
