<svg xmlns="http://www.w3.org/2000/svg" width="400" height="400" viewBox="0 0 400 400"><g><path fill="#2C001E" d="M299.985 26.834C204.35-28.393 82.055 4.37 26.828 100.004c-55.223 95.657-22.46 217.964 73.197 273.174 95.64 55.216 217.94 22.44 273.154-73.194 55.215-95.662 22.442-217.945-73.195-273.15zm-24.99 263.17c0 16.57-13.413 29.996-29.993 29.996h-89.986c-16.587 0-30.01-13.427-30.01-29.996v-180.01c0-16.56 13.422-29.996 30.01-29.996h89.986c16.58 0 29.993 13.437 29.993 29.996v180.01zm-41.755-138.76h-66.466c-6.502 0-11.758-5.042-11.758-11.255 0-6.203 5.26-11.255 11.758-11.255h66.466c6.477 0 11.762 5.052 11.762 11.254 0 6.212-5.285 11.253-11.762 11.253zm0-29.997h-66.466c-6.502 0-11.758-5.03-11.758-11.254 0-6.212 5.26-11.254 11.758-11.254h66.466c6.477 0 11.762 5.04 11.762 11.253 0 6.223-5.285 11.254-11.762 11.254zm0 59.993h-66.466c-6.502 0-11.758-5.03-11.758-11.243s5.26-11.246 11.758-11.246h66.466c6.477 0 11.762 5.032 11.762 11.247 0 6.216-5.285 11.243-11.762 11.243zm-48.252 78.764c0 8.283-6.706 14.99-14.996 14.99-8.27 0-14.975-6.707-14.975-14.99 0-8.28 6.706-15.007 14.975-15.007 8.29 0 14.996 6.73 14.996 15.007z"/></g></svg>