<svg xmlns="http://www.w3.org/2000/svg" width="400" height="400" viewBox="0 0 400 400"><g><path d="M221.27 68.13c5.185-2.18 10.66-3.778 16.358-4.752V85.12c-7.43-3.306-13.325-9.416-16.36-16.99zm41.353 121.72v21.407c5.74-.96 11.264-2.554 16.49-4.745-3.127-7.46-9.064-13.455-16.49-16.662zm78.797 151.57c-19.27 19.266-41.787 34.09-66.295 44.017v-110.26c0-13.807-11.2-24.997-25.002-24.997-13.808 0-24.998 11.19-24.998 24.998v75.31c0-13.805-11.197-25-24.995-25-13.81 0-25.002 11.195-25.002 25 0-13.805-11.194-25-25.002-25s-24.998 11.195-24.998 25c0-13.805-11.194-25-24.998-25-13.81 0-25.002 11.195-25.002 25v5.718c-5.733-4.6-11.27-9.508-16.55-14.782C20.805 303.65 0 253.43 0 200 0 146.578 20.804 96.356 58.58 58.58S146.582 0 200.004 0C253.43 0 303.648 20.804 341.42 58.576 379.197 96.352 400 146.578 400 200c.004 53.426-20.804 103.648-58.58 141.42zm8.852-204.134c0-55.137-44.86-99.996-99.993-99.996-55.138 0-99.994 44.856-99.994 99.996S195.142 237.29 250.28 237.29c55.132 0 99.992-44.864 99.992-100.004zm-87.65-25.845v13.435h61.604c-2.84-16.994-11.398-32.072-23.65-43.17-7.46 14.877-21.327 25.996-37.953 29.736zm-24.998-.07c-16.493-3.81-30.23-14.884-37.642-29.666-12.25 11.1-20.81 26.173-23.654 43.17h61.296V111.37zm-16.178 95.142c5.133 2.152 10.552 3.725 16.182 4.688v-21.206c-7.282 3.24-13.102 9.163-16.182 16.518zm41.177-42.835c16.49 3.71 30.255 14.68 37.755 29.36 12.31-11.075 20.927-26.15 23.82-43.157h-61.575v13.797zm-25 .07v-13.87h-61.267c2.89 17.008 11.508 32.086 23.813 43.156 7.464-14.592 21.106-25.51 37.454-29.285zm41.662-95.614c-5.274-2.22-10.862-3.842-16.662-4.805V85.27c7.574-3.273 13.592-9.46 16.662-17.137zM250.032 262.44c-6.897 0-12.5 5.59-12.492 12.498-.007 6.897 5.595 12.496 12.492 12.496 6.904 0 12.506-5.592 12.5-12.496 0-6.907-5.596-12.5-12.5-12.5z" fill="#888"/></g></svg>