<svg xmlns="http://www.w3.org/2000/svg" width="400" height="400" viewBox="0 0 400 400"><g><path fill="#2C001E" d="M199.998-.002C89.72-.002 0 89.718 0 199.996c0 .473.018.952.042 1.422.71 13.18 11.613 23.646 24.97 23.646h62.496v50.016h12.64c6.9 0 12.5 5.6 12.5 12.5 0 6.91-5.6 12.498-12.5 12.498h-12.64v51.463c0 8.923 4.755 17.167 12.474 21.637 30.324 17.554 64.907 26.825 100.02 26.825C310.28 400.002 400 310.288 400 200 400 89.72 310.28-.002 199.998-.002zm-.853 344.177c-18.316 0-33.902-15.198-33.902-33.895 0-18.312 15.586-33.905 33.902-33.905s33.91 15.593 33.91 33.905c.002 18.698-15.59 33.895-33.91 33.895zm30.412-122.762v7.8c0 17.924-12.478 30.406-30.413 30.406-17.92 0-30.402-12.482-30.402-30.407v-31.185c0-21.047 14.806-22.994 30.787-25.724 18.315-3.507 29.63-11.684 29.63-29.622 0-12.072-10.53-25.333-28.45-25.333-34.684 0-29.63 35.082-60.807 35.082-15.586 0-28.042-13.645-28.042-29.24 0-44.034 50.278-68.98 88.854-68.98 51.445 0 96.244 31.962 96.244 86.522-.003 49.88-28.43 72.887-67.4 80.68z"/></g></svg>