<svg xmlns="http://www.w3.org/2000/svg" width="400" height="400" viewBox="0 0 400 400"><g><path fill="#DD4814" d="M200.007 0C89.73 0 0 89.718 0 199.993 0 310.275 89.732 400 200.007 400 310.29 400 400 310.275 400 199.993 400.004 89.718 310.29 0 200.007 0zm0 324.993c-64.615 0-117.95-49.283-124.365-112.236l-.018-.13H38.802c-5.052 0-9.61-3.045-11.546-7.716-1.944-4.67-.868-10.05 2.713-13.627L91.15 130.1c4.89-4.88 12.796-4.88 17.686 0l60.58 60.576c2.638 2.297 4.306 5.683 4.306 9.45 0 6.9-5.592 12.496-12.5 12.496-.01 0-.024.004-.04 0H126.09l-.018.004c6.032 35.355 36.89 62.367 73.942 62.367 41.36 0 75-33.65 75-75.007 0-41.35-33.64-74.986-75-74.986-13.8 0-24.998-11.197-24.998-24.994 0-13.808 11.197-24.998 24.998-24.998 68.922 0 125.003 56.063 125.003 124.982-.007 68.925-56.088 125.003-125.01 125.003z"/></g></svg>