<svg xmlns="http://www.w3.org/2000/svg" width="400" height="400" viewBox="0 0 400 400"><g><path fill="#DD4814" d="M341.7 194.992c-3.313 0-6.495-1.316-8.84-3.658L226.79 85.284 94.03 218.01c-3.66 3.658-8.46 5.493-13.26 5.493-4.798 0-9.6-1.833-13.26-5.492-7.325-7.324-7.325-19.195 0-26.515L208.927 50.11c.064-.063.1-.134.162-.198l43.028-43.02C235.308 2.378 217.814 0 199.942 0 146.514 0 96.282 20.803 58.5 58.58c-78 77.978-78 204.86 0 282.84C96.286 379.196 146.525 400 199.96 400c53.433 0 103.672-20.808 141.45-58.58 37.787-37.776 58.594-87.997 58.59-141.415 0-17.66-2.324-34.953-6.737-51.58l-42.7 42.887c-2.344 2.354-5.49 3.73-8.863 3.68zm-169.21 13.434c-4.802 0-9.604-1.83-13.265-5.49-7.324-7.32-7.324-19.194 0-26.517l53.047-53.034c7.324-7.324 19.198-7.324 26.525 0 7.324 7.32 7.324 19.19 0 26.518l-53.047 53.033c-3.66 3.662-8.463 5.49-13.26 5.49zm38.315 38.315c-4.798 0-9.6-1.833-13.26-5.495-7.32-7.317-7.32-19.195 0-26.515l53.046-53.033c7.325-7.324 19.2-7.324 26.526 0 7.324 7.32 7.324 19.19 0 26.518l-53.047 53.03c-3.666 3.665-8.467 5.496-13.265 5.496zm104.63-20.216l-53.047 53.03c-3.662 3.662-8.46 5.496-13.26 5.496s-9.604-1.834-13.265-5.496c-7.32-7.317-7.32-19.19 0-26.515l53.047-53.034c7.324-7.32 19.198-7.32 26.525 0 7.324 7.323 7.324 19.197 0 26.518z"/></g></svg>