<svg xmlns="http://www.w3.org/2000/svg" width="400" height="400" viewBox="0 0 400 400"><g><circle fill="#AEA79F" cx="200" cy="200" r="200"/><path fill="#fff" d="M308.13 147.31c-10.29 0-18.66 8.37-18.66 18.66v77.233c0 10.288 8.37 18.66 18.66 18.66 10.287 0 18.656-8.372 18.656-18.66V165.97c0-10.29-8.37-18.66-18.657-18.66zM91.87 147.31c-10.287 0-18.656 8.37-18.656 18.66v77.233c0 10.288 8.37 18.66 18.657 18.66 10.29 0 18.66-8.372 18.66-18.66V165.97c0-10.29-8.37-18.66-18.66-18.66zM117.313 150.492v119.97c0 11.04 8.95 19.99 19.99 19.99h13.145v40.89c0 10.288 8.37 18.658 18.658 18.658 10.288 0 18.657-8.37 18.657-18.658v-40.89h24.473v40.89c0 10.288 8.37 18.658 18.657 18.658 10.288 0 18.658-8.37 18.658-18.658v-40.89h13.146c11.04 0 19.99-8.95 19.99-19.99v-119.97H117.313zM240.648 77.684l13.076-23.59c.737-1.33.255-3.01-1.075-3.747-.416-.23-.864-.347-1.332-.347-1.004 0-1.93.545-2.416 1.42l-13.23 23.866c-10.8-4.775-22.897-7.45-35.672-7.45s-24.873 2.675-35.673 7.45l-13.23-23.865c-.485-.875-1.41-1.42-2.415-1.42-.468 0-.916.117-1.33.346-1.33.737-1.812 2.418-1.075 3.747l13.076 23.59c-25.097 13.104-42.04 37.962-42.04 66.477v.03h165.374v-.03c0-28.514-16.943-53.372-42.04-66.476zm-78.81 36.008c-3.742 0-6.786-3.044-6.786-6.785 0-3.74 3.044-6.785 6.785-6.785 3.74 0 6.785 3.044 6.785 6.785 0 3.74-3.044 6.785-6.785 6.785zm76.325 0c-3.74 0-6.785-3.044-6.785-6.785 0-3.74 3.044-6.785 6.785-6.785 3.74 0 6.785 3.044 6.785 6.785 0 3.74-3.044 6.785-6.785 6.785z"/></g></svg>