<?xml version="1.0" encoding="utf-8"?>
<!-- Generator: Adobe Illustrator 17.0.2, SVG Export Plug-In . SVG Version: 6.00 Build 0)  -->
<!DOCTYPE svg PUBLIC "-//W3C//DTD SVG 1.1//EN" "http://www.w3.org/Graphics/SVG/1.1/DTD/svg11.dtd">
<svg version="1.1" xmlns="http://www.w3.org/2000/svg" xmlns:xlink="http://www.w3.org/1999/xlink" x="0px" y="0px" width="400px"
	 height="400px" viewBox="0 0 400 400" enable-background="new 0 0 400 400" xml:space="preserve">
<g id="BK" display="none">
	<rect x="-3100" y="-2080" display="inline" fill="#FFFFFF" width="5100" height="4060"/>
</g>
<g id="Comp">
	<g id="_x33_4">
		<path fill="#5E2750" d="M217.607,217.796c-9.768,9.768-25.601,9.758-35.355-0.004c-9.761-9.761-9.761-25.59,0-35.352
			c9.768-9.765,25.587-9.768,35.348-0.007C227.361,192.202,227.361,208.035,217.607,217.796 M400,199.998
			c0,110.289-89.722,200.004-200,200.004S0,310.287,0,199.998c0-110.278,89.725-200,200-200C310.278-0.002,400,89.72,400,199.998z
			 M171.753,75.74h18.337V41.34h0.18l19.322,34.399h18.874V12.769h-18.351v33.69h-0.176l-18.341-33.69h-19.844V75.74z
			 M97.73,168.848H78.599l-7.856,39.426h-0.176l-7.408-39.426H46.044l-7.581,38.897h-0.176l-7.676-38.897H11.56l17.113,62.971
			h18.962l6.615-38.365h0.176l6.791,38.365h18.877L97.73,168.848z M228.617,365.885c0-11.546-8.823-15.688-17.724-18.161
			c-8.908-2.473-17.907-3.443-18.26-7.934c0-3.535,4.318-4.237,6.971-4.237c1.94,0,4.142,0.445,5.729,1.587
			c1.587,1.058,2.646,2.649,2.297,5.024h18.341c-0.529-15.349-12.612-20.546-26.282-20.546c-12.968,0-25.4,6.255-25.4,20.814
			c0,12.696,11.381,15.43,21.347,18.256c10.844,3.083,13.582,3.969,13.582,7.235c0,4.671-4.851,5.729-8.022,5.729
			c-3.619,0-7.853-0.801-9.264-4.583c-0.445-1.147-0.706-2.558-0.706-4.152h-19.399c0.169,20.112,20.546,22.666,27.693,22.666
			C213.536,387.581,228.617,382.289,228.617,365.885z M300.877,288.418c0-1.679-0.349-3.27-0.949-4.734l-43.931-131.798
			c-0.025-0.088-0.074-0.169-0.099-0.254c-0.085-0.233-0.18-0.459-0.282-0.681c-0.113-0.268-0.219-0.526-0.349-0.78
			c-0.113-0.222-0.24-0.434-0.367-0.653c-0.141-0.24-0.279-0.48-0.441-0.709c-0.138-0.208-0.296-0.409-0.448-0.603
			c-0.166-0.219-0.332-0.434-0.512-0.631c-0.173-0.198-0.356-0.377-0.543-0.564c-0.183-0.187-0.363-0.37-0.557-0.54
			c-0.205-0.18-0.413-0.342-0.635-0.508c-0.201-0.152-0.392-0.307-0.603-0.448c-0.226-0.159-0.473-0.293-0.716-0.437
			c-0.212-0.123-0.42-0.254-0.642-0.367c-0.25-0.131-0.515-0.236-0.783-0.353c-0.226-0.095-0.448-0.194-0.681-0.279
			c-0.085-0.032-0.166-0.071-0.254-0.102L115.499,99.785c-0.074-0.025-0.145-0.028-0.222-0.053c-0.374-0.123-0.769-0.198-1.15-0.279
			c-0.31-0.063-0.607-0.145-0.917-0.187c-0.36-0.046-0.713-0.053-1.079-0.071c-0.332-0.018-0.663-0.042-0.991-0.032
			c-0.349,0.011-0.695,0.067-1.044,0.102c-0.332,0.042-0.663,0.067-0.998,0.134c-0.332,0.067-0.66,0.176-0.991,0.272
			c-0.335,0.095-0.67,0.183-0.998,0.31c-0.3,0.113-0.579,0.258-0.868,0.395c-0.353,0.166-0.702,0.328-1.037,0.526
			c-0.074,0.039-0.148,0.067-0.219,0.106c-0.198,0.123-0.36,0.275-0.543,0.409c-0.328,0.226-0.649,0.448-0.956,0.709
			c-0.25,0.215-0.473,0.441-0.702,0.67c-0.265,0.258-0.522,0.515-0.769,0.804c-0.219,0.268-0.42,0.55-0.621,0.833
			c-0.155,0.212-0.335,0.409-0.473,0.639c-0.053,0.078-0.074,0.166-0.127,0.25c-0.166,0.289-0.303,0.593-0.448,0.893
			c-0.166,0.332-0.335,0.667-0.466,1.009c-0.106,0.275-0.173,0.564-0.254,0.847c-0.12,0.381-0.24,0.758-0.321,1.15
			c-0.053,0.275-0.071,0.554-0.106,0.833c-0.053,0.402-0.106,0.804-0.123,1.21c-0.007,0.279,0.021,0.561,0.035,0.84
			c0.011,0.413,0.025,0.818,0.078,1.228c0.035,0.268,0.106,0.529,0.162,0.797c0.081,0.427,0.169,0.847,0.303,1.263
			c0.021,0.067,0.025,0.138,0.049,0.205l44.189,132.588c0.028,0.085,0.071,0.173,0.102,0.258c0.078,0.219,0.173,0.437,0.265,0.656
			c0.109,0.272,0.233,0.547,0.363,0.808c0.106,0.212,0.229,0.409,0.349,0.621c0.148,0.24,0.296,0.504,0.459,0.741
			c0.138,0.194,0.286,0.381,0.427,0.572c0.176,0.222,0.349,0.452,0.533,0.663c0.162,0.18,0.339,0.349,0.515,0.526
			c0.194,0.198,0.388,0.392,0.593,0.575c0.198,0.166,0.395,0.321,0.596,0.476c0.212,0.162,0.42,0.335,0.642,0.48
			c0.219,0.155,0.448,0.286,0.667,0.416c0.229,0.127,0.455,0.268,0.698,0.388c0.236,0.123,0.48,0.219,0.723,0.328
			c0.24,0.102,0.49,0.212,0.741,0.303c0.081,0.028,0.155,0.071,0.236,0.092l132.581,44.192c0.328,0.102,0.66,0.159,0.988,0.24
			c0.25,0.067,0.504,0.145,0.762,0.187c0.727,0.131,1.45,0.215,2.166,0.215c0.018,0,0.025,0,0.042,0c0.004,0,0.011,0,0.021,0
			c0.099,0,0.208,0,0.314,0c0.455-0.018,0.91-0.049,1.358-0.109l0.011-0.004c0.55-0.074,1.094-0.194,1.623-0.339
			c0.028-0.011,0.053-0.014,0.085-0.021C297.01,298.973,300.877,294.158,300.877,288.418z M387.095,231.346v-16.14h-33.69v-7.853
			h29.721v-14.993h-29.721v-7.853h32.72v-16.143h-52.126v62.978h53.097V231.346z"/>
	</g>
</g>
</svg>
