<?xml version="1.0" encoding="utf-8"?>
<!-- Generator: Adobe Illustrator 17.0.2, SVG Export Plug-In . SVG Version: 6.00 Build 0)  -->
<!DOCTYPE svg PUBLIC "-//W3C//DTD SVG 1.1//EN" "http://www.w3.org/Graphics/SVG/1.1/DTD/svg11.dtd">
<svg version="1.1" xmlns="http://www.w3.org/2000/svg" xmlns:xlink="http://www.w3.org/1999/xlink" x="0px" y="0px" width="400px"
	 height="400px" viewBox="0 0 400 400" enable-background="new 0 0 400 400" xml:space="preserve">
<g id="BK" display="none">
	<rect x="-2600" y="-580" display="inline" fill="#FFFFFF" width="5100" height="4060"/>
</g>
<g id="Comp">
	<g id="_x36_5">
		<path fill="#DD4814" d="M318.995,39.335H81.016C31.891,75.813,0,134.251,0,199.998C0,310.274,89.74,400,200.012,400
			S400,310.274,400,199.998C400,134.244,368.119,75.809,318.995,39.335z M26.963,200.651c-4.466-7.726-4.466-17.24,0-24.963
			c20.066-34.654,57.359-56.177,97.332-56.177c28.321,0,55.309,10.809,75.76,29.432l-0.067,0.081
			c20.461-18.644,47.46-29.471,75.802-29.471c13.758,0,24.913,11.162,24.913,24.913c0,13.762-11.155,24.917-24.913,24.917
			c-16.969,0-33.059,6.971-44.704,18.831c11.645,11.864,27.736,18.838,44.704,18.838c13.758,0,24.913,11.162,24.913,24.913
			c0,13.758-11.155,24.913-24.913,24.913c-28.342,0-55.319-10.809-75.767-29.457v0.007c-20.461,18.602-47.414,29.401-75.728,29.401
			C84.311,256.842,47.029,235.308,26.963,200.651z M311.618,319.506c-10.033,17.322-28.674,28.092-48.663,28.092
			c-14.154,0-27.637-5.394-37.867-14.697l0.046-0.049c-10.231,9.342-23.742,14.76-37.92,14.76c-6.879,0-12.471-5.567-12.471-12.45
			c0-6.876,5.592-12.457,12.471-12.457c8.474,0,16.524-3.478,22.342-9.419c-5.821-5.934-13.868-9.412-22.342-9.412
			c-6.879,0-12.471-5.581-12.471-12.457c0-6.883,5.592-12.464,12.471-12.464c14.196,0,27.725,5.443,37.952,14.799l-0.085-0.109
			c10.227-9.31,23.7-14.704,37.875-14.704c19.989,0,38.629,10.756,48.663,28.085C313.844,310.888,313.844,315.65,311.618,319.506z
			 M293.944,307.127c0,6.904-5.599,12.499-12.499,12.499c-6.904,0-12.503-5.595-12.503-12.499c0-6.911,5.599-12.506,12.503-12.506
			C288.345,294.621,293.944,300.216,293.944,307.127z M112.311,175.893c0,13.801-11.19,24.998-25.002,24.998
			c-13.801,0-24.994-11.197-24.994-24.998c0-13.808,11.194-25.002,24.994-25.002C101.125,150.891,112.311,162.085,112.311,175.893z"
			/>
	</g>
</g>
</svg>
