<svg xmlns="http://www.w3.org/2000/svg" width="400" height="400" viewBox="0 0 400 400"><g><path fill="#5E2750" d="M199.99.004C89.53.004 0 89.54 0 199.994c0 110.462 89.53 200.003 199.99 200.003S400 310.455 400 199.995C400 89.538 310.452.005 199.99.005zM304.276 117.2c-6.484 13.224-22.458 18.685-35.687 12.198l-42.06-20.627v167.816c.066 1.122.098 2.26.098 3.404 0 37.38-35.136 66.66-79.995 66.66-44.86 0-80.005-29.284-80.005-66.66 0-37.387 35.143-66.67 80.006-66.67 9.357 0 18.282 1.29 26.56 3.647V65.993c0-9.204 4.753-17.76 12.563-22.63 7.817-4.875 17.58-5.366 25.85-1.312l80.472 39.466c13.22 6.484 18.684 22.46 12.2 35.683z"/></g></svg>