<svg xmlns="http://www.w3.org/2000/svg" width="400" height="400" viewBox="0 0 400 400"><g><path fill="#DD4814" d="M212.89 275.017c0 6.9-5.596 12.5-12.504 12.5-6.904 0-12.5-5.6-12.5-12.5 0-6.907 5.596-12.506 12.5-12.506 6.908 0 12.503 5.6 12.503 12.507zm-.39-150.542c0-6.904-5.594-12.5-12.498-12.5-6.907 0-12.503 5.596-12.503 12.5s5.594 12.503 12.502 12.503c6.904 0 12.5-5.6 12.5-12.503zm-12.12 225.01h132.433C297.49 380.89 250.99 400 200.003 400 89.542 400 0 310.457 0 200.002c0-17.265 2.187-34.02 6.3-49.996h193.706c13.808 0 25.002-11.19 25.002-24.998 0-13.81-11.194-25.002-25.002-25.002h.004c55.143 0 100 44.856 100 99.992 0 13.808 11.19 25.002 25 25.002s25-11.194 25-25.002c0-82.706-67.287-149.995-150-149.995H67.78C103.033 18.906 149.297 0 200.002 0 310.462 0 400 89.543 400 200.002c0 17.078-2.152 33.655-6.18 49.48H200.382c-13.808 0-24.998 11.195-24.998 25 0 13.807 11.194 25.004 24.998 25.004h-.004c-55.14 0-100-44.86-100-100 0-13.807-11.19-24.997-24.998-24.997s-24.998 11.19-24.998 24.997c0 82.71 67.286 149.998 149.995 149.998zM162.5 200.002c0 20.712 16.793 37.504 37.505 37.504s37.504-16.792 37.504-37.504c0-20.708-16.793-37.497-37.505-37.497s-37.504 16.79-37.504 37.497z"/></g></svg>