<svg xmlns="http://www.w3.org/2000/svg" width="400" height="400" viewBox="0 0 400 400"><g><path fill="#DD4814" d="M212.337 399.615v-87.803c56.25-6.167 100.168-53.95 100.168-111.813v-25.002h-24.963V87.785c0-13.808-11.194-24.998-25-24.998-13.81 0-25.002 11.19-25.002 24.998V175h-74.637V87.784c0-13.808-11.194-24.998-25-24.998S112.9 73.977 112.9 87.785V175H87.504v25c0 57.753 43.748 105.456 99.836 111.77v87.824C82.937 393.04 0 306.034 0 200 0 89.718 89.718 0 199.996 0 310.278 0 400 89.722 400 200c0 106.14-83.107 193.22-187.663 199.615zm-12.312-112.12c34.466 0 62.502-28.034 62.502-62.5H237.53c0 20.675-16.828 37.503-37.505 37.503s-37.5-16.827-37.5-37.504h-24.998c0 34.467 28.038 62.502 62.498 62.502z"/></g></svg>