<svg xmlns="http://www.w3.org/2000/svg" width="400" height="400" viewBox="0 0 400 400"><g><path fill="#DD4814" d="M199.998.002C89.536.002 0 89.537 0 199.996s89.536 200.002 199.998 200.002c110.456 0 200.002-89.542 200.002-200S310.454 0 199.998 0zm133.334 280.065c0 14.73-11.938 26.667-26.667 26.667H93.332c-14.73 0-26.667-11.938-26.667-26.667v-160c0-14.73 11.938-26.667 26.667-26.667h86.297V80.083c0-7.363 5.968-13.332 13.33-13.332h13.33c7.362 0 13.334 5.97 13.334 13.333V93.4h87.038c14.73 0 26.667 11.938 26.667 26.667v160h.002zM173.335 120.063c-44.112 0-79.996 35.888-79.996 79.996 0 44.114 35.884 80.003 79.995 80.003 44.108 0 79.996-35.888 79.996-80.004.005-44.108-35.883-79.997-79.995-79.997zm0 106.67c-14.7 0-26.663-11.965-26.663-26.673 0-14.7 11.963-26.667 26.663-26.667 14.704 0 26.67 11.963 26.67 26.667 0 14.707-11.966 26.674-26.67 26.674zm133.482-93.458v13.335c0 7.363-5.973 13.332-13.335 13.332h-13.328c-7.363 0-13.335-5.97-13.335-13.332v-13.335c0-7.363 5.972-13.332 13.334-13.332h13.328c7.36 0 13.335 5.966 13.335 13.332z"/></g></svg>