<?xml version="1.0" encoding="utf-8"?>
<!-- Generator: Adobe Illustrator 17.0.2, SVG Export Plug-In . SVG Version: 6.00 Build 0)  -->
<!DOCTYPE svg PUBLIC "-//W3C//DTD SVG 1.1//EN" "http://www.w3.org/Graphics/SVG/1.1/DTD/svg11.dtd">
<svg version="1.1" xmlns="http://www.w3.org/2000/svg" xmlns:xlink="http://www.w3.org/1999/xlink" x="0px" y="0px" width="400px"
	 height="400px" viewBox="0 0 400 400" enable-background="new 0 0 400 400" xml:space="preserve">
<g id="BK" display="none">
	<rect x="-4600" y="-1080" display="inline" fill="#FFFFFF" width="5100" height="4060"/>
</g>
<g id="Comp">
	<g id="_x35_1">
		<path fill="#5E2750" d="M50.069,250.016v82.288C17.716,295.743,0,249.24,0,200C0,146.579,20.803,96.359,58.578,58.583
			s88-58.582,141.42-58.582c51.685,0,100.336,19.523,137.656,54.997v170.016c0,11.684-4.547,22.666-12.813,30.931
			c-8.262,8.262-19.251,12.813-30.942,12.813c-24.116,0-43.74-19.625-43.748-43.748V112.519
			c0.007-18.365-7.144-35.634-20.129-48.619c-12.986-12.986-30.25-20.136-48.616-20.136c-37.899,0-68.738,30.84-68.749,68.752
			v63.549C77.148,181.973,50.069,212.823,50.069,250.016z M400,200c0-42.34-13.116-82.648-37.345-116.366v141.371
			c0.007,18.362-7.14,35.627-20.129,48.612c-12.986,12.986-30.25,20.136-48.619,20.136c-37.895,0-68.734-30.84-68.745-68.742
			V112.508c0.004-11.687-4.547-22.676-12.809-30.938c-8.266-8.262-19.251-12.813-30.942-12.813
			c-24.116,0-43.74,19.628-43.748,43.755v63.577c35.422,5.994,62.406,36.798,62.406,73.927v149.982
			c53.396-0.018,103.596-20.817,141.35-58.575C379.193,303.645,400,253.421,400,200z M125.051,287.234
			c27.569,0,49.999-22.429,49.999-49.999h-25.001c0,13.783-11.215,24.998-24.998,24.998s-24.998-11.215-24.998-24.998H75.056
			C75.053,264.805,97.482,287.234,125.051,287.234L125.051,287.234z"/>
	</g>
</g>
</svg>
