<?xml version="1.0" encoding="utf-8"?>
<!-- Generator: Adobe Illustrator 17.0.2, SVG Export Plug-In . SVG Version: 6.00 Build 0)  -->
<!DOCTYPE svg PUBLIC "-//W3C//DTD SVG 1.1//EN" "http://www.w3.org/Graphics/SVG/1.1/DTD/svg11.dtd">
<svg version="1.1" xmlns="http://www.w3.org/2000/svg" xmlns:xlink="http://www.w3.org/1999/xlink" x="0px" y="0px" width="400px"
	 height="400px" viewBox="0 0 400 400" enable-background="new 0 0 400 400" xml:space="preserve">
<g id="BK" display="none">
	<rect x="-2100" y="-80" display="inline" fill="#FFFFFF" width="5100" height="4060"/>
</g>
<g id="Comp">
	<g id="_x37_6">
		<path fill="#DD4814" d="M216.871,118.553l14.005-5.803c6.385-2.646,9.416-9.959,6.77-16.341c-2.642-6.382-9.955-9.412-16.341-6.77
			l-14.062,5.828c-3.39-10.594-5.62-21.689-6.576-33.147h119.284l-84.285,84.281C228.4,138.016,222.082,128.618,216.871,118.553"/>
		<path fill="#DD4814" d="M337.633,199.254c-31.968-2.656-61.122-15.36-84.278-34.967l84.278-84.281V199.254z"/>
		<path fill="#DD4814" d="M395.139,244.751C374.78,333.671,295.18,399.996,200.093,400C89.591,400,0.004,310.409,0.004,199.91
			c0-95.051,66.276-174.623,155.139-195.021v0.021c-3.309,14.418-5.069,29.425-5.069,44.838
			c0,110.327,89.76,200.093,200.083,200.093c15.452,0,30.501-1.764,44.958-5.09H395.139z"/>
		<path fill="#DD4814" d="M362.733,83.329c21.992,30.635,35.553,67.74,37.264,107.91l-0.014-0.004
			c-11.843,4.18-24.348,6.943-37.341,8.022V83.368L362.733,83.329z"/>
		<path fill="#DD4814" d="M200.654,37.306c1.076-12.968,3.821-25.46,7.99-37.292L208.648,0
			c39.684,1.669,76.372,14.894,106.799,36.399l1.115,0.907L200.654,37.306z"/>
	</g>
</g>
</svg>
