<svg xmlns="http://www.w3.org/2000/svg" width="400" height="400" viewBox="0 0 400 400"><g><g fill="#DD4814"><path d="M162.44 137.562c0 6.9-5.595 12.502-12.506 12.502-6.897 0-12.492-5.602-12.492-12.502 0-6.907 5.595-12.5 12.492-12.5 6.91 0 12.506 5.596 12.506 12.5"/><path d="M199.986 0c-23.682 0-46.418 4.15-67.53 11.747 79.637 26.38 137.256 101.543 137.256 189.918 0 .47-.018.942-.042 1.422-.71 13.173-11.62 23.633-24.963 23.633h-62.51v48.535h-7.263c-6.907 0-12.502 5.595-12.502 12.502 0 6.9 5.595 12.502 12.502 12.502h7.264v52.944c0 8.915-4.752 17.166-12.478 21.64-10.382 6.007-21.276 11.023-32.512 15.045 19.764 6.547 40.87 10.11 62.778 10.11C310.276 400 400 310.282 400 200.004 400 89.718 310.275 0 199.986 0zm25.09 300.213c-6.915 0-12.496-5.595-12.496-12.495 0-6.907 5.58-12.502 12.495-12.502 6.897 0 12.5 5.595 12.5 12.502 0 6.9-5.603 12.495-12.5 12.495zm49.932 0c-6.907 0-12.495-5.595-12.495-12.495 0-6.907 5.588-12.502 12.495-12.502s12.502 5.595 12.502 12.502c0 6.9-5.595 12.495-12.502 12.495zm50.29 0c-6.903 0-12.494-5.595-12.494-12.495 0-6.907 5.592-12.502 12.495-12.502 6.906 0 12.5 5.595 12.5 12.502.002 6.9-5.593 12.495-12.5 12.495zM149.97 100.048c20.68 0 37.5 16.824 37.5 37.497s-16.82 37.497-37.5 37.497c-20.674 0-37.5-16.82-37.5-37.497s16.826-37.497 37.5-37.497m-62.502 37.5c0 34.46 28.04 62.494 62.502 62.494s62.51-28.035 62.51-62.494c0-34.463-28.043-62.502-62.495-62.502H43.96c-6.322 7.87-12.058 16.228-17.145 25h73.187c-7.86 10.45-12.534 23.44-12.534 37.502"/></g></g></svg>