<svg xmlns="http://www.w3.org/2000/svg" width="400" height="400" viewBox="0 0 400 400"><g><path fill="#DD4814" d="M385.66 151.555c-12.96-12.883-30.176-19.974-48.454-19.974-37.91 0-68.75 30.84-68.75 68.746 0 10.35 8.397 18.753 18.75 18.753 10.35 0 18.75-8.404 18.75-18.754 0-17.233 14.02-31.25 31.246-31.25 8.31 0 16.136 3.23 22.03 9.085 7.35 7.3 19.22 7.26 26.512-.087 7.303-7.348 7.268-19.22-.084-26.518zm-98.417 61.263c-6.9 0-12.502-5.595-12.502-12.5 0-6.9 5.603-12.498 12.503-12.498s12.5 5.6 12.5 12.5c0 6.903-5.6 12.498-12.5 12.498zm85.883 87.38C338.52 359.867 273.943 400 199.996 400 89.54 400 0 310.46 0 199.998 0 89.54 89.54 0 199.995 0 274.04 0 338.68 40.237 373.26 100.033l.018-.032-204.757.02c-10.356 0-18.745 8.402-18.745 18.75 0 10.36 8.393 18.745 18.746 18.745h90.66c-4.145 5.168-7.786 10.756-10.855 16.68v.006H168.52c-10.357 0-18.746 8.404-18.746 18.747 0 10.365 8.393 18.75 18.746 18.75h69.03c-.225 2.734-.345 5.503-.345 8.294 0 2.827.123 5.628.353 8.39v-.004H168.52c-10.357 0-18.746 8.392-18.746 18.75s8.393 18.75 18.746 18.75h79.85v-.014c3.073 5.937 6.727 11.525 10.887 16.69H168.52c-10.357 0-18.746 8.39-18.746 18.75 0 10.35 8.393 18.746 18.746 18.746h204.376l.23.15z"/></g></svg>