<svg xmlns="http://www.w3.org/2000/svg" width="400" height="400" viewBox="0 0 400 400"><g><path fill="#2C001E" d="M199.996-.002C89.718-.002 0 89.72 0 199.998 0 310.28 89.718 400.002 199.996 400.002 310.282 400.002 400 310.28 400 199.998c.004-110.278-89.718-200-200.004-200zm-.074 24.74c6.904 0 12.5 5.596 12.5 12.5l.006 50.46c.004 6.905-5.595 12.5-12.495 12.503-6.904 0-12.5-5.594-12.502-12.498l-.006-50.46c0-6.905 5.595-12.503 12.498-12.503zM37.072 212.593c-6.903 0-12.498-5.6-12.498-12.5s5.6-12.498 12.5-12.498H87.36c6.905 0 12.5 5.6 12.5 12.5s-5.6 12.498-12.5 12.498H37.074zm92.097 75.94l-35.557 35.555c-2.44 2.438-5.64 3.658-8.84 3.658s-6.397-1.217-8.838-3.658c-4.882-4.88-4.882-12.795 0-17.68l35.556-35.557c4.883-4.88 12.796-4.886 17.68 0 4.882 4.882 4.882 12.795 0 17.68zm.126-159.072c-2.44 2.44-5.64 3.662-8.84 3.662s-6.397-1.22-8.838-3.662l-35.68-35.68c-4.882-4.882-4.882-12.795 0-17.678 4.882-4.88 12.795-4.88 17.678 0l35.68 35.68c4.883 4.88 4.883 12.796 0 17.678zm83.13 233.493c0 6.904-5.6 12.5-12.5 12.5-6.904 0-12.5-5.6-12.5-12.5l.008-50.295c0-6.9 5.595-12.495 12.5-12.495 6.903 0 12.498 5.6 12.494 12.5l-.003 50.29zm37.78-100.573c0 6.904-5.594 12.5-12.498 12.5H175.21c-6.904 0-12.5-5.596-12.5-12.5V149.883c0-6.904 5.596-12.502 12.5-12.502h62.498c6.904 0 12.5 5.6 12.5 12.503V262.38zm20.356-150.6l35.68-35.684c4.886-4.88 12.8-4.88 17.68 0 4.883 4.882 4.883 12.795 0 17.678l-35.68 35.683c-2.44 2.44-5.64 3.662-8.84 3.662s-6.396-1.222-8.84-3.663c-4.878-4.883-4.878-12.8 0-17.678zm53.365 212.31c-2.44 2.44-5.644 3.66-8.84 3.66-3.2 0-6.397-1.222-8.842-3.66l-35.556-35.56c-4.883-4.885-4.883-12.798 0-17.68 4.885-4.88 12.798-4.88 17.68 0l35.556 35.56c4.884 4.886 4.884 12.802 0 17.68zm38.862-111.498h-50.466c-6.904 0-12.5-5.6-12.5-12.5s5.596-12.498 12.5-12.498h50.465c6.903 0 12.498 5.6 12.498 12.5s-5.595 12.498-12.5 12.498zm-125.544-49.385c0 6.907-5.592 12.502-12.5 12.502-6.903 0-12.498-5.596-12.498-12.503 0-6.9 5.595-12.502 12.5-12.502 6.907 0 12.498 5.602 12.498 12.502z"/></g></svg>