<?xml version="1.0" encoding="utf-8"?>
<!-- Generator: Adobe Illustrator 17.0.2, SVG Export Plug-In . SVG Version: 6.00 Build 0)  -->
<!DOCTYPE svg PUBLIC "-//W3C//DTD SVG 1.1//EN" "http://www.w3.org/Graphics/SVG/1.1/DTD/svg11.dtd">
<svg version="1.1" xmlns="http://www.w3.org/2000/svg" xmlns:xlink="http://www.w3.org/1999/xlink" x="0px" y="0px" width="400px"
	 height="400px" viewBox="0 0 400 400" enable-background="new 0 0 400 400" xml:space="preserve">
<g id="BK" display="none">
	<rect x="-2600" y="-3080" display="inline" fill="#FFFFFF" width="5100" height="4060"/>
</g>
<g id="Comp">
	<g id="_x31_5">
		<path fill="#DD4814" d="M212.889,275.017c0,6.9-5.595,12.499-12.503,12.499c-6.904,0-12.499-5.599-12.499-12.499
			c0-6.907,5.595-12.506,12.499-12.506C207.294,262.511,212.889,268.109,212.889,275.017z M212.501,124.475
			c0-6.904-5.595-12.499-12.499-12.499c-6.907,0-12.503,5.595-12.503,12.499c0,6.904,5.595,12.503,12.503,12.503
			C206.906,136.978,212.501,131.379,212.501,124.475z M200.379,349.485h132.434C297.489,380.89,250.989,400,200.002,400
			C89.543,400,0,310.457,0,200.002c0-17.265,2.187-34.019,6.301-49.996h193.705c13.808,0,25.002-11.19,25.002-24.998
			c0-13.811-11.194-25.002-25.002-25.002h0.004c55.143,0,99.999,44.856,99.999,99.992c0,13.808,11.19,25.002,25.002,25.002
			c13.808,0,24.998-11.194,24.998-25.002c0-82.706-67.286-149.995-149.999-149.995H67.78C103.033,18.906,149.297,0,200.002,0
			C310.461,0,400,89.543,400,200.002c0,17.078-2.152,33.655-6.181,49.481H200.383c-13.808,0-24.998,11.194-24.998,24.998
			c0,13.808,11.194,25.005,24.998,25.005h-0.004c-55.14,0-99.999-44.86-99.999-99.999c0-13.808-11.19-24.998-24.998-24.998
			s-24.998,11.19-24.998,24.998C50.384,282.196,117.67,349.485,200.379,349.485z M162.501,200.002
			c0,20.712,16.792,37.504,37.504,37.504s37.504-16.792,37.504-37.504c0-20.708-16.792-37.497-37.504-37.497
			S162.501,179.294,162.501,200.002z"/>
	</g>
</g>
</svg>
