<?xml version="1.0" encoding="iso-8859-1"?>
<!-- Generator: Adobe Illustrator 17.0.2, SVG Export Plug-In . SVG Version: 6.00 Build 0)  -->
<!DOCTYPE svg PUBLIC "-//W3C//DTD SVG 1.1//EN" "http://www.w3.org/Graphics/SVG/1.1/DTD/svg11.dtd">
<svg version="1.1" xmlns="http://www.w3.org/2000/svg" xmlns:xlink="http://www.w3.org/1999/xlink" x="0px" y="0px" width="400px"
	 height="400px" viewBox="0 0 400 400" style="enable-background:new 0 0 400 400;" xml:space="preserve">
<g id="BK" style="display:none;">
	<rect x="-2600" y="-80" style="display:inline;fill:#FFFFFF;" width="5100" height="4060"/>
</g>
<g id="Comp">
	<g id="_x37_5">
		<path style="fill:#888888;" d="M200.002,0C89.541,0,0.004,89.541,0.004,199.998S89.545,400,200.002,400
			c110.454,0,199.995-89.545,199.995-200.002S310.455,0,200.002,0z M201.409,315.698v0.014c0-0.004-0.004-0.004-0.007-0.007
			c0,0.004-0.004,0.004-0.007,0.007v-0.014c-41.162-41.148-107.878-41.133-149.026,0.014V98.463
			c41.151-41.155,107.871-41.162,149.037-0.007c7.518-7.518,15.896-13.645,24.811-18.418v148.825
			c0,10.287,8.34,18.626,18.626,18.626c10.287,0,18.626-8.34,18.626-18.626V68.357c30.952-3.662,63.217,6.353,86.969,30.106
			l0.004,217.249C309.281,274.554,242.571,274.561,201.409,315.698z"/>
	</g>
</g>
</svg>
