<?xml version="1.0" encoding="utf-8"?>
<!-- Generator: Adobe Illustrator 17.0.2, SVG Export Plug-In . SVG Version: 6.00 Build 0)  -->
<!DOCTYPE svg PUBLIC "-//W3C//DTD SVG 1.1//EN" "http://www.w3.org/Graphics/SVG/1.1/DTD/svg11.dtd">
<svg version="1.1" xmlns="http://www.w3.org/2000/svg" xmlns:xlink="http://www.w3.org/1999/xlink" x="0px" y="0px" width="400px"
	 height="400px" viewBox="0 0 400 400" enable-background="new 0 0 400 400" xml:space="preserve">
<g id="BK" display="none">
	<rect x="-100" y="-2080" display="inline" fill="#FFFFFF" width="5100" height="4060"/>
</g>
<g id="Comp">
	<g id="_x34_0">
		<path fill="#2C001E" d="M341.7,194.992c-3.313,0-6.495-1.316-8.841-3.658L226.789,85.285L94.031,218.008
			c-3.662,3.658-8.46,5.493-13.261,5.493c-4.798,0-9.599-1.834-13.261-5.493c-7.324-7.324-7.324-19.195,0-26.515L208.928,50.11
			c0.064-0.063,0.099-0.134,0.162-0.198l43.028-43.021c-16.81-4.512-34.304-6.89-52.176-6.89
			C146.514,0.001,96.282,20.804,58.5,58.58c-77.999,77.978-77.999,204.859,0,282.84c37.786,37.776,88.025,58.579,141.461,58.579
			c53.432,0,103.671-20.807,141.45-58.579c37.786-37.776,58.593-87.997,58.59-141.415c0-17.66-2.325-34.953-6.738-51.58
			l-42.7,42.887C348.219,193.666,345.072,195.042,341.7,194.992z M172.489,208.426c-4.801,0-9.603-1.831-13.264-5.489
			c-7.324-7.32-7.324-19.195,0-26.518l53.047-53.033c7.324-7.324,19.198-7.324,26.525,0c7.324,7.32,7.324,19.191,0,26.518
			l-53.047,53.033C182.089,206.599,177.287,208.426,172.489,208.426z M210.805,246.741c-4.798,0-9.599-1.834-13.261-5.496
			c-7.32-7.317-7.32-19.195,0-26.515l53.047-53.033c7.324-7.324,19.198-7.324,26.525,0c7.324,7.32,7.324,19.191,0,26.518
			l-53.047,53.03C220.404,244.91,215.603,246.741,210.805,246.741z M315.435,226.524l-53.047,53.03
			c-3.662,3.662-8.46,5.496-13.261,5.496s-9.603-1.834-13.264-5.496c-7.32-7.317-7.32-19.191,0-26.515l53.047-53.033
			c7.324-7.32,19.198-7.32,26.525,0C322.759,207.329,322.759,219.203,315.435,226.524z"/>
	</g>
</g>
</svg>
