<?xml version="1.0" encoding="utf-8"?>
<!-- Generator: Adobe Illustrator 17.0.2, SVG Export Plug-In . SVG Version: 6.00 Build 0)  -->
<!DOCTYPE svg PUBLIC "-//W3C//DTD SVG 1.1//EN" "http://www.w3.org/Graphics/SVG/1.1/DTD/svg11.dtd">
<svg version="1.1" xmlns="http://www.w3.org/2000/svg" xmlns:xlink="http://www.w3.org/1999/xlink" x="0px" y="0px" width="400px"
	 height="400px" viewBox="0 0 400 400" enable-background="new 0 0 400 400" xml:space="preserve">
<g id="BK" display="none">
	<rect x="-1600" y="-80" display="inline" fill="#FFFFFF" width="5100" height="4060"/>
</g>
<g id="Comp">
	<g id="_x37_7">
		<path fill="#5E2750" d="M341.485,58.582C303.692,20.807,253.447,0,199.998,0C146.553,0,96.303,20.803,58.514,58.582
			c-78.012,77.977-78.016,204.859-0.004,282.844C96.3,379.193,146.545,400,199.991,400c0.007,0,0.004,0,0.014,0
			c53.438,0,103.687-20.803,141.48-58.575C419.501,263.441,419.501,136.562,341.485,58.582z M199.998,277.33
			c0,3.104-1.859,5.895-4.702,7.084c-0.942,0.392-1.93,0.582-2.91,0.582c-1.983,0-3.93-0.776-5.387-2.247l-36.452-36.703H77.617
			c-4.205,0-7.616-3.436-7.616-7.669v-76.711c0-4.233,3.411-7.666,7.616-7.666h72.89l36.491-36.756
			c2.18-2.194,5.45-2.85,8.301-1.665c2.843,1.185,4.702,3.983,4.702,7.084V277.33H199.998z M232.841,235.371
			c19.501-19.501,19.501-51.237,0-70.738l17.688-17.688c29.256,29.256,29.256,76.859,0,106.114L232.841,235.371z M268.189,270.744
			c39.01-39.01,39.01-102.477,0-141.484l17.688-17.688c48.757,48.76,48.757,128.096,0,176.856L268.189,270.744z M321.225,323.797
			l-17.688-17.688c58.508-58.508,58.508-153.711,0-212.222l17.688-17.685C389.483,144.468,389.483,255.539,321.225,323.797z"/>
	</g>
</g>
</svg>
