<?xml version="1.0" encoding="utf-8"?>
<!-- Generator: Adobe Illustrator 17.0.2, SVG Export Plug-In . SVG Version: 6.00 Build 0)  -->
<!DOCTYPE svg PUBLIC "-//W3C//DTD SVG 1.1//EN" "http://www.w3.org/Graphics/SVG/1.1/DTD/svg11.dtd">
<svg version="1.1" xmlns="http://www.w3.org/2000/svg" xmlns:xlink="http://www.w3.org/1999/xlink" x="0px" y="0px" width="400px"
	 height="400px" viewBox="0 0 400 400" enable-background="new 0 0 400 400" xml:space="preserve">
<g id="BK" display="none">
	<rect x="-3100" y="-2580" display="inline" fill="#FFFFFF" width="5100" height="4060"/>
</g>
<g id="Comp">
	<g id="_x32_4">
		<path fill="#DD4814" d="M200.005,399.998c-53.422,0-103.647-20.807-141.419-58.583C20.807,303.643,0,253.422,0,200.004
			C0,146.582,20.807,96.36,58.586,58.581C96.362,20.805,146.584,0.002,200.005,0.002s103.643,20.803,141.419,58.579
			C379.197,96.357,400,146.578,400,200.004c0,53.422-20.803,103.643-58.579,141.416
			C303.649,379.188,253.427,399.998,200.005,399.998L200.005,399.998z M200.005,49.998c-40.065,0-77.735,15.603-106.067,43.935
			C65.603,122.268,49.996,159.935,49.996,200c0,40.062,15.607,77.728,43.942,106.06c28.332,28.335,66.002,43.935,106.067,43.935
			c40.065,0,77.732-15.6,106.063-43.932c28.335-28.332,43.935-65.998,43.935-106.063c0-40.069-15.6-77.739-43.935-106.067
			C277.737,65.601,240.071,49.998,200.005,49.998L200.005,49.998z M288.461,130.008c-11.204-11.201-26.099-17.371-41.946-17.371
			c-15.85,0-30.748,6.174-41.956,17.378c-1.676,1.676-3.235,3.436-4.681,5.278c-1.443-1.838-3.002-3.602-4.678-5.274
			c-11.204-11.208-26.106-17.378-41.953-17.378s-30.745,6.17-41.953,17.374c-23.128,23.132-23.128,60.773-0.042,83.859
			l79.623,80.413c2.346,2.367,5.539,3.701,8.872,3.701c0.004,0,0.007,0,0.011,0c3.33,0,6.526-1.326,8.869-3.69l79.827-80.381
			C311.593,190.782,311.593,153.14,288.461,130.008z"/>
	</g>
</g>
</svg>
