<?xml version="1.0" encoding="utf-8"?>
<!-- Generator: Adobe Illustrator 17.0.2, SVG Export Plug-In . SVG Version: 6.00 Build 0)  -->
<!DOCTYPE svg PUBLIC "-//W3C//DTD SVG 1.1//EN" "http://www.w3.org/Graphics/SVG/1.1/DTD/svg11.dtd">
<svg version="1.1" xmlns="http://www.w3.org/2000/svg" xmlns:xlink="http://www.w3.org/1999/xlink" x="0px" y="0px" width="400px"
	 height="400px" viewBox="0 0 400 400" enable-background="new 0 0 400 400" xml:space="preserve">
<g id="BK" display="none">
	<rect x="-600" y="-2580" display="inline" fill="#FFFFFF" width="5100" height="4060"/>
</g>
<g id="Comp">
	<g id="_x32_9">
		<path fill="#DD4814" d="M326.689,288.984c0,34.599-28.152,62.751-62.751,62.751c-34.602,0-62.754-28.152-62.754-62.751
			c0-32.464,24.777-59.242,56.411-62.433v-18.497c0-2.537,1.53-4.824,3.873-5.799c2.34-0.965,5.043-0.438,6.842,1.361l30.715,30.718
			c2.449,2.446,2.449,6.425,0,8.878l-30.715,30.715c-1.202,1.198-2.806,1.838-4.439,1.838c-0.809,0-1.626-0.156-2.403-0.477
			c-2.343-0.972-3.873-3.262-3.873-5.803v-17.582c-17.745,3.029-31.308,18.483-31.308,37.079c0,20.759,16.889,37.648,37.652,37.648
			c20.759,0,37.648-16.889,37.648-37.648c0-6.93,5.619-12.549,12.549-12.549C321.07,276.435,326.689,282.054,326.689,288.984z
			 M313.79,112.871h67.504C348.629,46.102,280.004,0,200.799,0c-26.562,0-51.908,5.227-75.138,14.642v229.191H75.456V44.095
			C29.506,80.923,0,137.468,0,200.809C0,303.043,76.809,387.62,175.742,400V112.871h37.638v25.064h-12.451v25.099h50.205v-25.099
			h-12.648v-25.064h50.205v25.064h-12.645v25.099h50.201v-25.099h-12.454v-25.064H313.79z M100.209,307.619l-25.272-43.773h50.544
			L100.209,307.619z"/>
	</g>
</g>
</svg>
