<?xml version="1.0" encoding="utf-8"?>
<!-- Generator: Adobe Illustrator 17.0.2, SVG Export Plug-In . SVG Version: 6.00 Build 0)  -->
<!DOCTYPE svg PUBLIC "-//W3C//DTD SVG 1.1//EN" "http://www.w3.org/Graphics/SVG/1.1/DTD/svg11.dtd">
<svg version="1.1" xmlns="http://www.w3.org/2000/svg" xmlns:xlink="http://www.w3.org/1999/xlink" x="0px" y="0px" width="400px"
	 height="400px" viewBox="0 0 400 400" enable-background="new 0 0 400 400" xml:space="preserve">
<g id="BK" display="none">
	<rect x="-1600" y="-3080" display="inline" fill="#FFFFFF" width="5100" height="4060"/>
</g>
<g id="Comp">
	<g id="_x31_7">
		<path fill="#2C001E" d="M299.985,26.834C204.351-28.393,82.055,4.369,26.828,100.003
			c-55.223,95.658-22.461,217.965,73.197,273.175c95.641,55.216,217.941,22.44,273.154-73.194
			C428.395,204.322,395.622,82.039,299.985,26.834z M274.995,290.004c0,16.57-13.413,29.996-29.993,29.996h-89.986
			c-16.587,0-30.011-13.427-30.011-29.996v-180.01c0-16.559,13.423-29.996,30.011-29.996h89.986
			c16.58,0,29.993,13.437,29.993,29.996L274.995,290.004L274.995,290.004z M233.24,151.243h-66.466
			c-6.502,0-11.758-5.041-11.758-11.254c0-6.202,5.26-11.254,11.758-11.254h66.466c6.477,0,11.762,5.052,11.762,11.254
			C245.002,146.202,239.717,151.243,233.24,151.243L233.24,151.243z M233.24,121.247h-66.466c-6.502,0-11.758-5.031-11.758-11.254
			c0-6.212,5.26-11.254,11.758-11.254h66.466c6.477,0,11.762,5.041,11.762,11.254C245.002,116.216,239.717,121.247,233.24,121.247
			L233.24,121.247z M233.24,181.24h-66.466c-6.502,0-11.758-5.031-11.758-11.243s5.26-11.246,11.758-11.246h66.466
			c6.477,0,11.762,5.031,11.762,11.246C245.002,176.213,239.717,181.24,233.24,181.24L233.24,181.24z M184.988,260.004
			c0,8.283-6.706,14.989-14.996,14.989c-8.269,0-14.975-6.706-14.975-14.989c0-8.28,6.706-15.007,14.975-15.007
			C178.281,244.997,184.988,251.728,184.988,260.004z"/>
	</g>
</g>
</svg>
