<?xml version="1.0" encoding="utf-8"?>
<!-- Generator: Adobe Illustrator 17.0.2, SVG Export Plug-In . SVG Version: 6.00 Build 0)  -->
<!DOCTYPE svg PUBLIC "-//W3C//DTD SVG 1.1//EN" "http://www.w3.org/Graphics/SVG/1.1/DTD/svg11.dtd">
<svg version="1.1" xmlns="http://www.w3.org/2000/svg" xmlns:xlink="http://www.w3.org/1999/xlink" x="0px" y="0px" width="400px"
	 height="400px" viewBox="0 0 400 400" enable-background="new 0 0 400 400" xml:space="preserve">
<g id="BK" display="none">
	<rect x="-4600" y="-1580" display="inline" fill="#FFFFFF" width="5100" height="4060"/>
</g>
<g id="Comp">
	<g id="_x34_1">
		<path fill="#5E2750" d="M199.996-0.002C89.718-0.002,0,89.717,0,199.995C0,310.28,89.718,400.002,199.996,400.002
			C310.278,400.002,400,310.28,400,199.995C400,89.717,310.278-0.002,199.996-0.002z M283.263,250.131h-71.049v-63.726
			c35.436-5.941,62.445-36.749,62.445-73.865c-40.273,0-73.113,31.778-74.838,71.628h-0.166
			c-1.725-39.85-34.569-71.628-74.842-71.628c0,37.102,26.984,67.892,62.399,73.857v63.733h-70.425
			c-27.584,0-49.946-22.37-49.946-49.953c0-26.55,20.708-48.246,46.852-49.844c-11.684-23.439-3.253-52.225,19.741-65.504
			c22.991-13.271,52.133-6.188,66.594,15.653c14.46-21.833,43.607-28.924,66.594-15.646c22.99,13.271,31.425,42.055,19.741,65.497
			c26.144,1.598,46.849,23.297,46.849,49.844C333.212,227.765,310.853,250.131,283.263,250.131z"/>
	</g>
</g>
</svg>
