<svg xmlns="http://www.w3.org/2000/svg" width="400" height="400" viewBox="0 0 400 400"><g><path fill="#5E2750" d="M399.95 199.995C399.95 89.717 310.237 0 199.97 0 89.703-.003 0 89.716 0 199.994s89.704 200.007 199.968 200.007h50.07c13.8 0 24.998-11.197 24.998-25 0-13.812-11.197-25.002-24.998-25.002h-50.07c-82.695 0-149.98-67.292-149.98-150.004S117.273 50 199.968 50c82.71 0 149.983 67.284 149.983 150.01l.054 75.053c0 13.787-11.218 25-24.99 25-13.788 0-25.006-11.214-25.006-25l-.042.018v-75.086c0-55.138-44.866-99.997-99.99-99.997-55.137 0-99.992 44.856-99.992 99.998s44.856 99.998 99.99 99.998c18.554 0 35.945-5.08 50.857-13.928l-.01.007c5.338 36.156 36.572 63.99 74.19 63.99 41.348 0 74.99-33.648 74.99-75.018l-.05-75.05zm-199.954 50c-27.57 0-50-22.427-50-49.997 0-27.573 22.43-50.003 50-50.003 27.56 0 50.003 22.43 50.003 50.003 0 27.57-22.445 49.996-50.004 49.996z"/></g></svg>