<svg xmlns="http://www.w3.org/2000/svg" width="400" height="400" viewBox="0 0 400 400"><g><path fill="#5E2750" d="M225.02 299.995h148.125C338.515 359.73 273.873 400 200.01 400c-73.876 0-138.523-40.266-173.155-100.005H175.02c10.36 0 18.75-8.393 18.75-18.747S185.38 262.5 175.02 262.5H84.71c4.153-5.164 7.8-10.748 10.877-16.682h79.435c10.358 0 18.75-8.393 18.75-18.747s-8.393-18.746-18.75-18.746h-68.62c.23-2.77.378-5.563.378-8.393 0-2.793-.148-5.552-.37-8.29h68.608c10.358 0 18.75-8.395 18.75-18.75 0-10.357-8.393-18.75-18.75-18.75H95.633c-3.07-5.93-6.706-11.517-10.855-16.682h90.24c10.358 0 18.75-8.393 18.75-18.75s-8.393-18.75-18.75-18.75H26.88C61.515 40.248 126.148 0 200.01 0c73.853 0 138.478 40.248 173.114 99.96H225.02c-10.353 0-18.75 8.392-18.75 18.75s8.4 18.75 18.75 18.75h90.697c-4.15 5.164-7.782 10.752-10.85 16.682H225.02c-10.354 0-18.75 8.396-18.75 18.75 0 10.358 8.4 18.75 18.75 18.75h69.07c-.226 2.738-.37 5.496-.37 8.29 0 2.826.148 5.62.377 8.39H225.02c-10.354 0-18.75 8.395-18.75 18.746 0 10.358 8.4 18.75 18.75 18.75h79.893c3.076 5.93 6.72 11.515 10.873 16.68h-90.766c-10.354 0-18.75 8.395-18.75 18.746 0 10.355 8.398 18.75 18.75 18.75zm-49.34-191.09c-5.178 0-9.372 4.196-9.372 9.378 0 5.18 4.195 9.373 9.373 9.373 5.176 0 9.378-4.195 9.378-9.373 0-5.18-4.198-9.377-9.377-9.377zm0 54.04c-5.178 0-9.372 4.194-9.372 9.376 0 5.176 4.195 9.374 9.373 9.374 5.176 0 9.378-4.198 9.378-9.373 0-5.18-4.198-9.376-9.377-9.376zm0 54.038c-5.178 0-9.372 4.19-9.372 9.373 0 5.18 4.195 9.373 9.373 9.373 5.176 0 9.378-4.196 9.378-9.374 0-5.182-4.198-9.373-9.377-9.373zm0 54.035c-5.178 0-9.372 4.195-9.372 9.373s4.195 9.374 9.373 9.374c5.176 0 9.378-4.195 9.378-9.373s-4.198-9.372-9.377-9.372z"/></g></svg>