<svg xmlns="http://www.w3.org/2000/svg" width="400" height="400" viewBox="0 0 400 400"><g><path fill="#AEA79F" d="M400 200c0 110.456-89.544 200-200 200C89.543 400 0 310.456 0 200 0 89.54 89.543 0 200 0c110.456 0 200 89.54 200 200z"/><g fill="#fff"><path d="M182.59 273.802c-25.42.046-69.762.482-87.383 3.196-9.526 1.506-8.785 7.817-9.062 13.022.003.015 0 .04 0 .06v.032c.276 5.205-.464 11.51 9.062 13.022 23.47 3.612 94.305 3.196 104.735 3.196h.078c10.428 0 81.264.416 104.733-3.196 9.527-1.512 8.825-7.818 9.1-13.022-.29-5.22.482-11.597-9.1-13.114-23.47-3.617-94.305-3.196-104.733-3.196-2.577 0-8.958-.015-17.43 0z"/><path d="M182.59 93.67c-25.42.04-69.762.475-87.383 3.19-9.526 1.512-8.785 7.818-9.062 13.022.003.02 0 .04 0 .06v.03c.276 5.206-.464 11.517 9.062 13.024 23.47 3.617 94.305 3.196 104.735 3.196h.078c10.428 0 81.264.42 104.733-3.196 9.527-1.507 8.825-7.818 9.1-13.023-.29-5.22.482-11.597-9.1-13.114-23.47-3.618-94.305-3.197-104.733-3.192-2.577 0-8.958-.015-17.43 0z"/><path d="M182.59 213.758c-25.42.046-69.762.477-87.383 3.19-9.526 1.513-8.785 7.824-9.062 13.03.003.014 0 .04 0 .055v.035c.276 5.205-.464 11.51 9.062 13.022 23.47 3.612 94.305 3.196 104.735 3.19h.078c10.428.006 81.264.422 104.733-3.19 9.527-1.512 8.825-7.818 9.1-13.022-.29-5.22.482-11.597-9.1-13.12-23.47-3.61-94.305-3.19-104.733-3.19-2.577 0-8.958-.015-17.43 0z"/><path d="M182.59 153.713c-25.42.046-69.762.477-87.383 3.19-9.526 1.513-8.785 7.82-9.062 13.023.003.02 0 .04 0 .06v.036c.276 5.2-.464 11.51 9.062 13.022 23.47 3.612 94.305 3.19 104.735 3.19h.078c10.428 0 81.264.422 104.733-3.19 9.527-1.512 8.825-7.822 9.1-13.022-.29-5.225.482-11.602-9.1-13.12-23.47-3.61-94.305-3.19-104.733-3.19-2.577 0-8.958-.014-17.43 0z"/></g></g></svg>