<svg xmlns="http://www.w3.org/2000/svg" width="400" height="400" viewBox="0 0 400 400"><g><path fill="#DD4814" d="M199.995 0c93.127 0 171.592 63.977 193.75 150.29h-52.253C320.935 91.946 265.284 50 199.992 50S79.054 91.945 58.497 150.292H6.25C28.41 63.977 106.87 0 199.996 0M400 199.99C400 310.278 310.277 400 199.995 400 89.715 400 0 310.277 0 199.99c0-13.807 11.194-25.004 25.002-25.004H375c13.806 0 25 11.197 25 25.005zM100.147 287.26h-22.07l.166.205-.194-.22c6.448 8.99 13.863 17.238 22.097 24.6l-.152-.166.152.152v-24.572zm0-62.265l-48.066-.004c2.206 13.062 6.1 25.565 11.46 37.26l.006.01h36.6v-37.267zm87.43 62.424l-62.432.004.004 42.68.204.078-.212-.064c18.666 10.792 39.847 17.678 62.435 19.537l-.152-.048.152.04v-62.225zm.003-62.262l-62.432-.004-.004 37.265h62.435v-37.26zm24.998 37.268h62.435V225.16h-62.435v37.263zm62.443 67.592l-.228.07.226-.077-.004-42.584H212.58l.003 62.206.152-.035-.152.046c22.59-1.89 43.78-8.805 62.438-19.625zm46.917-42.59l-.134.15.134-.15-21.922-.005v24.423l.24-.254-.23.257c8.15-7.31 15.51-15.5 21.912-24.423zm25.978-62.436h-47.9v.003l-.005 37.264h36.44l.003.004c5.36-11.698 9.258-24.2 11.462-37.27z"/></g></svg>