<?xml version="1.0" encoding="utf-8"?>
<!-- Generator: Adobe Illustrator 17.0.2, SVG Export Plug-In . SVG Version: 6.00 Build 0)  -->
<!DOCTYPE svg PUBLIC "-//W3C//DTD SVG 1.1//EN" "http://www.w3.org/Graphics/SVG/1.1/DTD/svg11.dtd">
<svg version="1.1" xmlns="http://www.w3.org/2000/svg" xmlns:xlink="http://www.w3.org/1999/xlink" x="0px" y="0px" width="400px"
	 height="400px" viewBox="0 0 400 400" enable-background="new 0 0 400 400" xml:space="preserve">
<g id="BK" display="none">
	<rect x="-4600" y="-3080" display="inline" fill="#FFFFFF" width="5100" height="4060"/>
</g>
<g id="Comp">
	<g id="_x31_1">
		<path fill="#DD4814" d="M199.995,400C89.716,400,0,310.274,0,199.995S89.719,0,199.995,0C310.277,0,400,89.719,400,199.995
			C400,310.274,310.277,400,199.995,400z M199.995,49.996C117.289,49.996,50,117.285,50,199.995
			c0,82.716,67.289,150.002,149.995,150.002c82.713,0,150.002-67.286,150.002-150.002
			C349.997,117.285,282.708,49.996,199.995,49.996z M274.999,249.994h-50.003c0,13.787-11.215,25.002-24.998,25.002
			c-13.783,0-25.002-11.215-25.002-25.002h-50c0,41.36,33.645,75.001,75.001,75.001
			C241.355,324.995,274.999,291.354,274.999,249.994z"/>
	</g>
</g>
</svg>
