<?xml version="1.0" encoding="utf-8"?>
<!-- Generator: Adobe Illustrator 17.0.2, SVG Export Plug-In . SVG Version: 6.00 Build 0)  -->
<!DOCTYPE svg PUBLIC "-//W3C//DTD SVG 1.1//EN" "http://www.w3.org/Graphics/SVG/1.1/DTD/svg11.dtd">
<svg version="1.1" xmlns="http://www.w3.org/2000/svg" xmlns:xlink="http://www.w3.org/1999/xlink" x="0px" y="0px" width="400px"
	 height="400px" viewBox="0 0 400 400" enable-background="new 0 0 400 400" xml:space="preserve">
<g id="BK" display="none">
	<rect x="-4600" y="-80" display="inline" fill="#FFFFFF" width="5100" height="4060"/>
</g>
<g id="Comp">
	<g id="_x37_1">
		<path fill="#2C001E" d="M199.998,0.002C89.536,0.002,0,89.537,0,199.996s89.536,200.002,199.998,200.002
			C310.454,399.998,400,310.456,400,199.997S310.454,0.002,199.998,0.002z M333.332,280.067c0,14.729-11.938,26.667-26.667,26.667
			H93.332c-14.729,0-26.667-11.938-26.667-26.667v-160c0-14.729,11.938-26.667,26.667-26.667h86.297V80.083
			c0-7.363,5.969-13.332,13.332-13.332h13.328c7.363,0,13.335,5.969,13.335,13.332V93.4h87.038
			c14.729,0,26.667,11.938,26.667,26.667v160H333.332z M173.335,120.063c-44.112,0-79.996,35.888-79.996,79.996
			c0,44.115,35.885,80.004,79.996,80.004c44.108,0,79.996-35.888,79.996-80.004C253.335,155.952,217.447,120.063,173.335,120.063z
			 M173.335,226.734c-14.7,0-26.663-11.966-26.663-26.674c0-14.7,11.963-26.667,26.663-26.667c14.704,0,26.67,11.963,26.67,26.667
			C200.005,214.767,188.039,226.734,173.335,226.734z M306.817,133.275v13.335c0,7.363-5.973,13.332-13.335,13.332h-13.328
			c-7.363,0-13.335-5.969-13.335-13.332v-13.335c0-7.363,5.973-13.332,13.335-13.332h13.328
			C300.841,119.944,306.817,125.909,306.817,133.275z"/>
	</g>
</g>
</svg>
