<?xml version="1.0" encoding="iso-8859-1"?>
<!-- Generator: Adobe Illustrator 17.0.2, SVG Export Plug-In . SVG Version: 6.00 Build 0)  -->
<!DOCTYPE svg PUBLIC "-//W3C//DTD SVG 1.1//EN" "http://www.w3.org/Graphics/SVG/1.1/DTD/svg11.dtd">
<svg version="1.1" xmlns="http://www.w3.org/2000/svg" xmlns:xlink="http://www.w3.org/1999/xlink" x="0px" y="0px" width="400px"
	 height="400px" viewBox="0 0 400 400" style="enable-background:new 0 0 400 400;" xml:space="preserve">
<g id="BK" style="display:none;">
	<rect x="-1100" y="-80" style="display:inline;fill:#FFFFFF;" width="5100" height="4060"/>
</g>
<g id="Comp">
	<g id="_x37_8">
		<path style="fill:#888888;" d="M341.414,58.58c-37.772-37.775-87.99-58.579-141.411-58.579
			c-53.425,0-103.646,20.803-141.418,58.579C20.807,96.359,0,146.581,0,200.002c0,53.418,20.807,103.646,58.586,141.418
			c37.775,37.775,87.997,58.579,141.421,58.579c53.421,0,103.639-20.803,141.407-58.579C379.193,303.651,400,253.426,400,200.002
			S379.19,96.352,341.414,58.58z M319.997,340.001c0,2.759-2.24,4.999-4.999,4.999h-230c-2.759,0-4.999-2.24-4.999-4.999V59.999
			c0-2.762,2.24-4.999,4.999-4.999h230c2.759,0,4.999,2.24,4.999,4.999V340.001z M299.998,122.5h-200V97.502h200V122.5
			L299.998,122.5z M299.998,172.499h-200v-24.998h200V172.499L299.998,172.499z M299.998,222.498h-200v-24.998h200V222.498
			L299.998,222.498z M229.997,272.498H99.995V247.5h130.002V272.498L229.997,272.498z"/>
	</g>
</g>
</svg>
