<?xml version="1.0" encoding="utf-8"?>
<!-- Generator: Adobe Illustrator 17.0.2, SVG Export Plug-In . SVG Version: 6.00 Build 0)  -->
<!DOCTYPE svg PUBLIC "-//W3C//DTD SVG 1.1//EN" "http://www.w3.org/Graphics/SVG/1.1/DTD/svg11.dtd">
<svg version="1.1" xmlns="http://www.w3.org/2000/svg" xmlns:xlink="http://www.w3.org/1999/xlink" x="0px" y="0px" width="400px"
	 height="400px" viewBox="0 0 400 400" enable-background="new 0 0 400 400" xml:space="preserve">
<g id="BK" display="none">
	<rect x="-1100" y="-580" display="inline" fill="#FFFFFF" width="5100" height="4060"/>
</g>
<g id="Comp">
	<g id="_x36_8">
		<path fill="#DD4814" d="M257.973,284.049c-78.313,0-142.022-63.715-142.022-142.025C115.951,63.71,179.663,0,257.973,0
			S400,63.712,400,142.025C400,220.335,336.283,284.049,257.973,284.049"/>
		<path fill="#DD4814" d="M98.519,152.246c3.254,51.259,30.781,96.032,71.193,122.91l0.005-0.01l-98.7,56.988l26.014-97.046
			L0,209.139l98.534-56.891L98.519,152.246z"/>
		<path fill="#DD4814" d="M186.94,285.129c21.409,10.667,45.529,16.675,71.032,16.675c25.485,0,49.603-6.002,71.005-16.662
			l-0.005-0.013v114.322l-71.035-71.052l-70.99,71.052v-114.33L186.94,285.129z"/>
	</g>
</g>
</svg>
