<?xml version="1.0" encoding="utf-8"?>
<!-- Generator: Adobe Illustrator 17.0.2, SVG Export Plug-In . SVG Version: 6.00 Build 0)  -->
<!DOCTYPE svg PUBLIC "-//W3C//DTD SVG 1.1//EN" "http://www.w3.org/Graphics/SVG/1.1/DTD/svg11.dtd">
<svg version="1.1" xmlns="http://www.w3.org/2000/svg" xmlns:xlink="http://www.w3.org/1999/xlink" x="0px" y="0px" width="400px"
	 height="400px" viewBox="0 0 400 400" enable-background="new 0 0 400 400" xml:space="preserve">
<g id="BK" display="none">
	<rect x="-2600" y="-3580" display="inline" fill="#FFFFFF" width="5100" height="4060"/>
</g>
<g id="Comp">
	<g id="_x35_">
		<path fill="#5E2750" d="M200.002-0.004C89.716-0.004,0,89.716,0,199.995c0,110.283,89.719,200.009,200.002,200.009
			C310.277,400.004,400,310.277,400,199.995C400,89.716,310.277-0.004,200.002-0.004z M261.202,180.419h-0.042h-36.164v100.359
			c0,13.808-11.197,24.998-24.998,24.998c-13.808,0-25.002-11.19-25.002-24.998V180.419h-36.209c-5.059,0-9.61-3.045-11.547-7.715
			c-1.937-4.678-0.868-10.061,2.716-13.628l61.179-61.186c4.886-4.879,12.802-4.879,17.681,0l60.579,60.583
			c2.642,2.29,4.311,5.666,4.311,9.444C273.705,174.82,268.106,180.419,261.202,180.419z"/>
	</g>
</g>
</svg>
