<?xml version="1.0" encoding="utf-8"?>
<!-- Generator: Adobe Illustrator 17.0.2, SVG Export Plug-In . SVG Version: 6.00 Build 0)  -->
<!DOCTYPE svg PUBLIC "-//W3C//DTD SVG 1.1//EN" "http://www.w3.org/Graphics/SVG/1.1/DTD/svg11.dtd">
<svg version="1.1" xmlns="http://www.w3.org/2000/svg" xmlns:xlink="http://www.w3.org/1999/xlink" x="0px" y="0px" width="400px"
	 height="400px" viewBox="0 0 400 400" enable-background="new 0 0 400 400" xml:space="preserve">
<g id="BK" display="none">
	<rect x="-100" y="-1080" display="inline" fill="#FFFFFF" width="5100" height="4060"/>
</g>
<g id="Comp">
	<g id="_x36_0">
		<path fill="#2C001E" d="M341.506,58.579C303.724,20.803,253.488,0,200.056,0S96.382,20.803,58.596,58.582
			C20.81,96.358,0,146.582,0,200s20.81,103.642,58.596,141.418C96.386,379.193,146.621,400,200.06,400
			c53.432,0,103.664-20.803,141.446-58.579C419.498,263.447,419.498,136.557,341.506,58.579z M37.504,213.088
			c-6.904,0-12.502-5.599-12.502-12.499c0-6.904,5.602-12.506,12.502-12.506c6.904,0,12.506,5.602,12.506,12.506
			C50.01,207.489,44.408,213.088,37.504,213.088z M199.901,25.732c6.904-0.004,12.502,5.592,12.502,12.495
			c0,6.907-5.599,12.502-12.502,12.502c-6.907,0-12.506-5.595-12.506-12.506C187.395,31.323,192.994,25.728,199.901,25.732z
			 M76.228,76.941c4.882-4.886,12.792-4.879,17.681,0c4.875,4.882,4.882,12.795,0,17.678c-4.889,4.882-12.806,4.882-17.688,0
			C71.342,89.743,71.342,81.823,76.228,76.941z M93.909,324.227c-4.882,4.889-12.799,4.889-17.681,0.007
			c-4.882-4.879-4.882-12.799,0-17.685c4.882-4.879,12.799-4.872,17.681,0.004C98.792,311.435,98.792,319.348,93.909,324.227z
			 M199.901,375.45c-6.9,0-12.506-5.599-12.506-12.502c0-6.9,5.606-12.499,12.506-12.499c6.904,0,12.502,5.592,12.502,12.492
			C212.404,369.852,206.805,375.45,199.901,375.45z M244.348,244.958c-11.804,11.8-27.503,18.302-44.203,18.302
			c-16.697,0-32.399-6.505-44.199-18.309c-11.807-11.797-18.309-27.492-18.309-44.189c0-8.012,1.538-15.787,4.403-23.019
			l-30.575-30.572c-9.768-9.765-9.768-25.594,0-35.355c9.765-9.761,25.601-9.765,35.359,0l30.709,30.699
			c7.123-2.762,14.75-4.255,22.613-4.255c16.697,0,32.399,6.498,44.203,18.299c11.814,11.807,18.316,27.506,18.316,44.199
			C262.664,217.459,256.159,233.154,244.348,244.958z M323.571,324.227c-4.882,4.882-12.799,4.889-17.681,0
			c-4.882-4.872-4.875-12.795,0-17.678c4.889-4.879,12.799-4.879,17.681,0C328.453,311.432,328.46,319.348,323.571,324.227z
			 M323.571,94.618c-4.882,4.882-12.792,4.886-17.681,0.004c-4.882-4.879-4.882-12.795,0-17.681
			c4.882-4.879,12.799-4.879,17.681,0.004C328.46,81.823,328.453,89.743,323.571,94.618z M362.299,213.088
			c-6.904,0-12.509-5.599-12.509-12.499c0-6.904,5.606-12.506,12.509-12.506c6.904,0,12.502,5.602,12.502,12.506
			C374.801,207.489,369.203,213.088,362.299,213.088z"/>
	</g>
</g>
</svg>
