<svg xmlns="http://www.w3.org/2000/svg" width="400" height="400" viewBox="0 0 400 400"><g><path fill="#5E2750" d="M200.004-.002C89.722-.002 0 89.718 0 199.998s89.722 200.004 200.004 200.004C310.282 400.002 400 310.28 400 199.998s-89.718-200-199.996-200zm-62.53 281.273c-13.808 0-24.998-11.19-24.998-24.997s11.194-25 24.998-25 24.998 11.193 24.998 25-11.194 24.998-24.998 24.998zm124.735 0c-13.805 0-25-11.19-25-24.997s11.195-25 25-25c13.807 0 25.004 11.193 25.004 25s-11.198 24.998-25.005 24.998zm37.478-25.452c-.243-20.496-16.923-37.045-37.48-37.045-20.654 0-37.408 16.71-37.492 37.352h-49.752c-.08-20.64-16.83-37.352-37.493-37.352-20.53 0-37.185 16.51-37.47 36.968-28.068-3.163-49.89-26.948-49.89-55.858 0-29.9 23.32-54.328 52.764-56.137-13.162-26.388-3.658-58.81 22.232-73.762 25.89-14.944 58.713-6.964 74.993 17.632 16.28-24.592 49.1-32.572 74.992-17.625 25.887 14.944 35.384 47.36 22.228 73.755 29.44 1.81 52.758 26.236 52.758 56.137 0 29.083-22.073 53.005-50.39 55.936z"/></g></svg>