<?xml version="1.0" encoding="utf-8"?>
<!-- Generator: Adobe Illustrator 17.0.2, SVG Export Plug-In . SVG Version: 6.00 Build 0)  -->
<!DOCTYPE svg PUBLIC "-//W3C//DTD SVG 1.1//EN" "http://www.w3.org/Graphics/SVG/1.1/DTD/svg11.dtd">
<svg version="1.1" xmlns="http://www.w3.org/2000/svg" xmlns:xlink="http://www.w3.org/1999/xlink" x="0px" y="0px" width="400px"
	 height="400px" viewBox="0 0 400 400" enable-background="new 0 0 400 400" xml:space="preserve">
<g id="BK" display="none">
	<rect x="-4600" y="-2580" display="inline" fill="#FFFFFF" width="5100" height="4060"/>
</g>
<g id="Comp">
	<g id="_x32_1">
		<path fill="#2C001E" d="M200.002,49.996c-82.709,0-150.006,67.286-150.006,150.002s67.293,150.006,150.006,150.006
			S350,282.715,350,199.998S282.715,49.996,200.002,49.996 M200.002,400.004C89.723,400.004,0,310.284,0,199.998
			C0,89.719,89.726-0.004,200.002-0.004S400,89.719,400,199.998C400,310.284,310.277,400.004,200.002,400.004"/>
		<path fill="#2C001E" d="M305.321,165.948c-0.84-2.579-3.15-4.378-5.948-4.325l-71.805,0.085l-22.112-68.312
			c-0.84-2.575-3.239-4.325-5.955-4.325c-2.706,0-5.105,1.75-5.937,4.325l-22.109,68.312l-71.805-0.085h-0.011
			c-2.706,0-5.101,1.75-5.944,4.325c-0.833,2.575,0.081,5.401,2.279,6.989l58.135,42.14l-22.267,68.256
			c-0.833,2.575,0.081,5.398,2.275,6.992c2.191,1.591,5.154,1.591,7.352-0.004l58.029-42.263l58.046,42.263
			c1.101,0.801,2.392,1.199,3.68,1.199c0.014-0.004,0.032-0.004,0.049,0c3.454,0,6.248-2.798,6.248-6.251
			c0-0.935-0.212-1.827-0.579-2.621l-22.045-67.568l58.138-42.14C305.236,171.352,306.16,168.527,305.321,165.948"/>
	</g>
</g>
</svg>
