<?xml version="1.0" encoding="utf-8"?>
<!-- Generator: Adobe Illustrator 17.0.2, SVG Export Plug-In . SVG Version: 6.00 Build 0)  -->
<!DOCTYPE svg PUBLIC "-//W3C//DTD SVG 1.1//EN" "http://www.w3.org/Graphics/SVG/1.1/DTD/svg11.dtd">
<svg version="1.1" xmlns="http://www.w3.org/2000/svg" xmlns:xlink="http://www.w3.org/1999/xlink" x="0px" y="0px" width="400px"
	 height="400px" viewBox="0 0 400 400" enable-background="new 0 0 400 400" xml:space="preserve">
<g id="BK" display="none">
	<rect x="-1600" y="-80" display="inline" fill="#FFFFFF" width="5100" height="4060"/>
</g>
<g id="Comp">
	<g>
		
			<path id="path3773_1_" fill="#AEA79F" d="
			M400,200c0,110.456-89.544,200-200,200C89.543,400,0,310.456,0,200C0,89.539,89.543,0,200,0C310.456,0,400,89.539,400,200z"/>
		<g id="g3058_1_" transform="translate(4.772041e-7,14.996107)">
			<path id="path3794_1_" fill="#FFFFFF" d="M182.589,258.806
				c-25.418,0.046-69.761,0.482-87.382,3.196c-9.526,1.506-8.785,7.817-9.062,13.022c0.003,0.015,0,0.041,0,0.061
				c0,0.005,0,0.02,0,0.031c0.276,5.205-0.464,11.511,9.062,13.022c23.469,3.612,94.305,3.196,104.735,3.196
				c0.012,0,0.066,0,0.078,0c10.428,0,81.264,0.416,104.733-3.196c9.527-1.512,8.825-7.818,9.1-13.022
				c-0.289-5.22,0.482-11.597-9.1-13.114c-23.469-3.617-94.305-3.196-104.733-3.196
				C197.443,258.806,191.062,258.791,182.589,258.806L182.589,258.806z"/>
			<path id="path3816_1_" fill="#FFFFFF" d="M182.589,78.673
				c-25.418,0.041-69.761,0.476-87.382,3.191c-9.526,1.512-8.785,7.818-9.062,13.022c0.003,0.021,0,0.041,0,0.061
				c0,0.015,0,0.02,0,0.03c0.276,5.205-0.464,11.516,9.062,13.023c23.469,3.617,94.305,3.196,104.735,3.196c0.012,0,0.066,0,0.078,0
				c10.428,0,81.264,0.421,104.733-3.196c9.527-1.507,8.825-7.818,9.1-13.023c-0.289-5.22,0.482-11.597-9.1-13.114
				c-23.469-3.617-94.305-3.196-104.733-3.191C197.443,78.673,191.062,78.657,182.589,78.673L182.589,78.673z"/>
			<path id="path3818_1_" fill="#FFFFFF" d="M182.589,198.762
				c-25.418,0.046-69.761,0.477-87.382,3.191c-9.526,1.512-8.785,7.823-9.062,13.028c0.003,0.015,0,0.041,0,0.056
				c0,0.015,0,0.025,0,0.035c0.276,5.205-0.464,11.511,9.062,13.022c23.469,3.612,94.305,3.196,104.735,3.191
				c0.012,0,0.066,0,0.078,0c10.428,0.005,81.264,0.421,104.733-3.191c9.527-1.512,8.825-7.818,9.1-13.022
				c-0.289-5.22,0.482-11.597-9.1-13.119c-23.469-3.612-94.305-3.191-104.733-3.191
				C197.443,198.762,191.062,198.747,182.589,198.762L182.589,198.762z"/>
			<path id="path3930_1_" fill="#FFFFFF" d="M182.589,138.717
				c-25.418,0.046-69.761,0.477-87.382,3.191c-9.526,1.512-8.785,7.818-9.062,13.022c0.003,0.02,0,0.041,0,0.061
				c0,0.015,0,0.025,0,0.035c0.276,5.2-0.464,11.511,9.062,13.022c23.469,3.612,94.305,3.191,104.735,3.191c0.012,0,0.066,0,0.078,0
				c10.428,0,81.264,0.421,104.733-3.191c9.527-1.512,8.825-7.822,9.1-13.022c-0.289-5.225,0.482-11.602-9.1-13.119
				c-23.469-3.612-94.305-3.191-104.733-3.191C197.443,138.717,191.062,138.702,182.589,138.717L182.589,138.717z"/>
		</g>
	</g>
</g>
<g id="nyt_x5F_exporter_x5F_info" display="none">
</g>
</svg>
