<svg xmlns="http://www.w3.org/2000/svg" width="400" height="400" viewBox="0 0 400 400"><g><path fill="#5E2750" d="M200.004 0C89.544 0 0 89.543 0 200.004S89.547 400 200.004 400 400 310.46 400 200.004C400.004 89.544 310.464 0 200.004 0zM260 95.625c24.167 0 43.75 19.59 43.75 43.745 0 24.173-19.587 43.756-43.75 43.756-24.158 0-43.748-19.587-43.748-43.756 0-24.158 19.594-43.745 43.75-43.745zm-119.998 0c24.166 0 43.75 19.59 43.75 43.745 0 24.173-19.588 43.756-43.75 43.756-24.16 0-43.75-19.587-43.75-43.756-.002-24.158 19.59-43.745 43.75-43.745zm207.51 208.753H52.5c-6.9 0-12.502-5.602-12.502-12.5 0-55.136 44.863-100.006 100.004-100.006 22.493 0 43.276 7.472 60 20.06 16.726-12.585 37.51-20.06 60.002-20.06 55.14 0 100.004 44.87 100.004 100.007-.003 6.896-5.598 12.498-12.495 12.498z"/></g></svg>