<?xml version="1.0" encoding="iso-8859-1"?>
<!-- Generator: Adobe Illustrator 17.0.2, SVG Export Plug-In . SVG Version: 6.00 Build 0)  -->
<!DOCTYPE svg PUBLIC "-//W3C//DTD SVG 1.1//EN" "http://www.w3.org/Graphics/SVG/1.1/DTD/svg11.dtd">
<svg version="1.1" xmlns="http://www.w3.org/2000/svg" xmlns:xlink="http://www.w3.org/1999/xlink" x="0px" y="0px" width="400px"
	 height="400px" viewBox="0 0 400 400" style="enable-background:new 0 0 400 400;" xml:space="preserve">
<g id="BK" style="display:none;">
	<rect x="-4100" y="-1080" style="display:inline;fill:#FFFFFF;" width="5100" height="4060"/>
</g>
<g id="Comp">
	<g id="_x35_2">
		<path style="fill:#888888;" d="M212.337,399.615v-87.803c56.25-6.167,100.168-53.95,100.168-111.813v-25.001h-24.963V87.785
			c0-13.808-11.194-24.998-25.001-24.998c-13.808,0-25.001,11.19-25.001,24.998v87.214h-74.637V87.785
			c0-13.808-11.194-24.998-25.001-24.998s-25.001,11.19-25.001,24.998v87.214H87.503V200c0,57.753,43.748,105.456,99.836,111.77
			v87.824C82.938,393.04,0,306.034,0,200C0,89.718,89.718,0,199.996,0C310.278,0,400,89.722,400,200
			C400,306.14,316.893,393.22,212.337,399.615z M200.025,287.496c34.466,0,62.502-28.035,62.502-62.502h-24.998
			c0,20.676-16.827,37.504-37.504,37.504s-37.5-16.827-37.5-37.504h-24.998C137.527,259.461,165.565,287.496,200.025,287.496
			L200.025,287.496z"/>
	</g>
</g>
</svg>
