<?xml version="1.0" encoding="utf-8"?>
<!-- Generator: Adobe Illustrator 17.0.2, SVG Export Plug-In . SVG Version: 6.00 Build 0)  -->
<!DOCTYPE svg PUBLIC "-//W3C//DTD SVG 1.1//EN" "http://www.w3.org/Graphics/SVG/1.1/DTD/svg11.dtd">
<svg version="1.1" xmlns="http://www.w3.org/2000/svg" xmlns:xlink="http://www.w3.org/1999/xlink" x="0px" y="0px" width="400px"
	 height="400px" viewBox="0 0 400 400" enable-background="new 0 0 400 400" xml:space="preserve">
<g id="BK" display="none">
	<rect x="-2600" y="-80" display="inline" fill="#FFFFFF" width="5100" height="4060"/>
</g>
<g id="Comp">
	<g>
		<path fill="#D63023" d="M400,200c0,110.447-89.542,200-200,200C89.541,400,0,310.447,0,200C0,89.54,89.546,0,200,0
			C310.458,0,400,89.54,400,200z"/>
		
			<path id="rect1227_2_" fill="#FFFFFF" d="
			M109.956,96.104c-7.673,0-13.853,6.178-13.853,13.851v48.485h41.559v-13.85c0-3.835,3.085-6.926,6.927-6.926h110.822
			c3.832,0,6.926,3.091,6.926,6.926v13.85h41.558v-48.485c0-7.673-6.181-13.851-13.851-13.851H109.956z M96.104,172.292v55.415
			h41.559v-55.415H96.104z M262.338,172.292v55.415h41.558v-55.415H262.338z M96.104,241.56v48.487
			c0,7.668,6.179,13.85,13.853,13.85h180.088c7.671,0,13.851-6.182,13.851-13.85V241.56h-41.558v13.848
			c0,3.838-3.094,6.929-6.926,6.929H144.589c-3.842,0-6.927-3.091-6.927-6.929V241.56H96.104z"/>
	</g>
</g>
<g id="nyt_x5F_exporter_x5F_info" display="none">
</g>
</svg>
