<?xml version="1.0" encoding="iso-8859-1"?>
<!-- Generator: Adobe Illustrator 17.0.2, SVG Export Plug-In . SVG Version: 6.00 Build 0)  -->
<!DOCTYPE svg PUBLIC "-//W3C//DTD SVG 1.1//EN" "http://www.w3.org/Graphics/SVG/1.1/DTD/svg11.dtd">
<svg version="1.1" xmlns="http://www.w3.org/2000/svg" xmlns:xlink="http://www.w3.org/1999/xlink" x="0px" y="0px" width="400px"
	 height="400px" viewBox="0 0 400 400" style="enable-background:new 0 0 400 400;" xml:space="preserve">
<g id="BK" style="display:none;">
	<rect x="-100" y="-80" style="display:inline;fill:#FFFFFF;" width="5100" height="4060"/>
</g>
<g id="Comp">
	<g id="_x38_0">
		<path style="fill:#888888;" d="M100.019,287.373h12.502v12.499h-12.502V287.373z M149.82,287.373h-12.502v12.499h12.502V287.373z
			 M400,199.998C400,89.718,310.275,0,199.995,0c-21.674,0-42.545,3.478-62.102,9.885V162.11h24.5
			c6.904,0,12.499,5.595,12.499,12.499v37.5v37.5v12.499h-12.499l0,0v75h-75v-75H74.894v-12.499v-37.5v-37.5
			c0-6.904,5.595-12.499,12.499-12.499h25.502V19.988C46.132,52.422,0,120.92,0,200.002C0,310.283,89.718,400,199.991,400
			c17.367,0,34.219-2.23,50.299-6.406v-97.962c-7.465-4.329-12.502-12.382-12.502-21.629v-54.394
			c-22.309-9.55-37.987-31.718-37.987-57.485c0-34.462,28.035-62.497,62.501-62.497c34.462,0,62.501,28.038,62.501,62.497
			c0,25.389-15.222,47.272-37.013,57.044v54.835c0,9.246-5.038,17.3-12.502,21.629v89.64C348.357,355.469,400,283.655,400,199.998z"
			/>
	</g>
</g>
<g id="nyt_x5F_exporter_x5F_info" style="display:none;">
	<text style="display:inline;"><tspan x="0" y="0" style="font-family:'MyriadPro-Regular'; font-size:12;">&lt;nyt_prefs&gt;</tspan><tspan x="0" y="14.4" style="font-family:'MyriadPro-Regular'; font-size:12;">  &lt;nyt_prefix&gt;picto-&lt;/nyt_prefix&gt;</tspan><tspan x="0" y="28.8" style="font-family:'MyriadPro-Regular'; font-size:12;">  &lt;nyt_suffix&gt;-warmgrey&lt;/nyt_suffix&gt;</tspan><tspan x="0" y="43.2" style="font-family:'MyriadPro-Regular'; font-size:12;">  &lt;nyt_base_path&gt;~/Desktop/bam&lt;/nyt_base_path&gt;</tspan><tspan x="0" y="57.6" style="font-family:'MyriadPro-Regular'; font-size:12;">  &lt;nyt_scaling&gt;100&lt;/nyt_scaling&gt;</tspan><tspan x="0" y="72" style="font-family:'MyriadPro-Regular'; font-size:12;">  &lt;nyt_transparency&gt;true&lt;/nyt_transparency&gt;</tspan><tspan x="0" y="86.4" style="font-family:'MyriadPro-Regular'; font-size:12;">  &lt;nyt_format&gt;PNG 24&lt;/nyt_format&gt;</tspan><tspan x="0" y="100.8" style="font-family:'MyriadPro-Regular'; font-size:12;">  &lt;nyt_export_code&gt;artboards&lt;/nyt_export_code&gt;</tspan><tspan x="0" y="115.2" style="font-family:'MyriadPro-Regular'; font-size:12;">&lt;/nyt_prefs&gt;</tspan></text>
</g>
</svg>
