<svg xmlns="http://www.w3.org/2000/svg" width="401" height="401" viewBox="0 0 401 401"><g><g transform="translate(262.714 407.714)"><circle fill="#DD4814" cx="-62.214" cy="-207.214" r="200"/><path fill="#fff" d="M-198.208-233.925c-14.753 0-26.71 11.956-26.71 26.71 0 14.746 11.957 26.703 26.71 26.703 14.75 0 26.704-11.957 26.704-26.703-.01-14.754-11.96-26.71-26.704-26.71zM-7.556-112.563c-12.774 7.378-17.15 23.7-9.776 36.467 7.37 12.77 23.692 17.15 36.463 9.77 12.78-7.365 17.157-23.686 9.776-36.462-7.375-12.76-23.703-17.142-36.462-9.775zm-132.654-94.65c0-26.388 13.11-49.703 33.164-63.82l-19.52-32.694c-23.363 15.617-40.746 39.478-47.965 67.427 8.425 6.88 13.82 17.35 13.82 29.087 0 11.73-5.395 22.2-13.82 29.08 7.21 27.96 24.59 51.817 47.965 67.433l19.52-32.7c-20.055-14.11-33.163-37.422-33.163-63.812h-.002zm77.996-78.004c40.745 0 74.177 31.24 77.68 71.08l38.055-.564c-1.874-29.412-14.723-55.815-34.47-75.234-10.153 3.834-21.88 3.247-32.016-2.595-10.156-5.858-16.52-15.744-18.26-26.473-9.867-2.724-20.253-4.213-30.998-4.213-18.457 0-35.908 4.33-51.4 12.005l18.556 33.248c9.983-4.643 21.118-7.255 32.854-7.255zm0 155.998c-11.736 0-22.87-2.61-32.852-7.256l-18.555 33.244c15.497 7.682 32.95 12.02 51.405 12.02 10.74 0 21.123-1.494 30.99-4.223 1.742-10.732 8.107-20.61 18.263-26.475 10.142-5.854 21.86-6.433 32.017-2.595 19.746-19.418 32.595-45.823 34.465-75.24l-38.056-.557c-3.506 39.85-36.934 71.083-77.678 71.083zm54.648-172.664c12.778 7.378 29.094 3.008 36.462-9.766 7.383-12.773 3.013-29.094-9.765-36.474-12.77-7.37-29.09-2.992-36.47 9.783-7.365 12.766-2.99 29.088 9.774 36.456z"/><g><path fill="#fff" fill-opacity=".706" d="M-61.106-271.5l-14.717 15.084-1.953-.23 3.757-9.978-15.062 15.06 2.925 25.918-1.72-15.04-1.205-10.876-12.146 7.406-6.152 12.577-8.406 14.442 7.942 19.616 2.554 15.453 3.157 7.545-5.317 6.344-5.59 6.763h15.297l1.926-13.778 6.155-9.426 10.26 1.768 11.31-4.53 8.36-4.274 8.17 5.426-9.797 11.727-10.053 9.47 15.77.232.04-6.415 11.937-9.478 4.368 5.497-12.563 17.892 16.024.092-.583-8.967 11.468-10.878-5.872-11.91-.676-14.624 11.75-6.923 6.64 1.405 9.033-3.358L-1.5-230.68l-14.07 4.115-8.546 12.855-14.465 7.68-20.182-8.185-14.695-10.923 9.61-13.454-3.39-14.074 6.13-18.834z"/><path fill="#DD8371" d="M-82.722-196.604l14.63 9.22 8.358-4.275-22.988-4.944zm-16 3.655l2.904 17.752 6.155-9.426-9.058-8.325zm67.897 3.98l-8.474 13.772 14.347-1.863-5.872-11.91zm-8.474 13.772l-12.562 17.892 16.025.092-.583-8.967-2.88-9.018zm-12.263-11.035l-9.797 11.727 5.757 3.288 4.04-15.015zm-9.797 11.727l-10.054 9.47 15.77.232-5.716-9.702zm-46.09 6.322l-5.592 6.764h15.298l-9.707-6.764z"/><path fill="#E5AE9B" d="M-89.082-251.564l2.925 25.917 3.554-18.948-6.48-6.97zm2.925 25.917l12.7.507.186-8.672-12.887 8.165zm-21.223-5.934l-8.406 14.44 13.98-11.197-5.574-3.244zm-8.406 14.44l7.942 19.616 6.038-16.098-13.98-3.518zm105.6-2.644l-9.565 9.266 6.64 1.405 2.924-10.67zm-21.315 16.19l-11.285 8.416 11.96 6.208-.676-14.625zm-11.286 8.416l-16.948 3.52 8.17 5.425 8.778-8.945zm-8.777 8.945l-4.04 15.016 11.936-9.478-7.896-5.538zm-4.04 15.016l-5.757-3.288 5.715 9.702.042-6.414zm-4.13-20.442l1.044-9.982-24.032 5.038 22.988 4.945zm-22.99-4.944l-15.997 3.655 9.057 8.326 6.94-11.98zm-15.998 3.655l-6.57 10.88 9.472 6.873-2.903-17.752zm2.902 17.752l-11.633 7.014 9.706 6.764 1.926-13.778zm70.864-1.863L-39.3-175.2l2.878 9.016 11.468-10.88z"/><path fill="#EBCFC6" d="M-61.106-271.5l-14.717 15.084 7.358-2.78 7.36-12.304zm-14.717 15.084l-3.718-.46-3.063 12.28 15.366-8.072-8.586-3.748zm-6.78 11.82l-3.554 18.95 12.885-8.166-9.33-10.783zm-3.554 18.95l-15.07-18.512-.58 15.82 15.65 2.69zm-15.65-2.69l-13.98 11.196 13.98 3.518v-14.715zm0 14.714l-6.038 16.098 9.124 4.575-3.087-20.672zm3.086 20.673l18.55-16.282-11.537-2.987-7.014 19.27zm18.552-16.282l21.406-4.986-14.695-10.923-6.71 15.908zm-21.06-34.926l13.352 3.47-1.206-10.876-12.146 7.406zm12.146-7.406l9.54-5.31 5.53-9.75-15.07 15.06zm73.513 24.997l-4.18 16.05 9.564-9.266-5.383-6.784zm5.384 6.783l-2.925 10.67 9.032-3.36-6.108-7.31zm-9.565 9.266l-4.366-3.197-7.385 10.12 11.75-6.923zm-11.75 6.923l-7.08-2.438-4.205 10.855 11.284-8.417zm-11.286 8.417l-15.903-6.464-1.044 9.983 16.948-3.518zm-39.936-1.426l3.32 13.75 11.31-4.53-14.63-9.22zm51.897 7.634l-20.738 2.737 7.896 5.538 4.368 5.497 8.475-13.772zm-74.466 6.898l3.156 7.544-5.317 6.344 11.632-7.014-9.473-6.874z"/><path fill="#EDD9D3" d="M-68.464-259.197l-7.358 2.78 8.586 3.75-1.228-6.53zm-11.077 2.322l-9.542 5.31 6.48 6.97 3.06-12.28zm-3.063 12.28l9.33 10.782 9.425-4.782-18.755-6zm-18.625.437l15.07 18.51-1.718-15.038-13.352-3.472zm0 0l-6.152 12.577 5.574 3.242.578-15.82zm-.58 15.82v14.716l15.65-12.025-15.65-2.69zm15.65 2.69l5.99 16.416 6.71-15.908-12.7-.507zm5.99 16.416l21.48 7.59-.073-12.576-21.408 4.986zm0 0L-98.72-192.95l15.998-3.654 2.554-12.628zm-2.554 12.628l-6.94 11.98 10.26 1.77-3.32-13.75zm-16 3.655l-9.123-4.574 2.554 15.453 6.57-10.88zm0 0l7.015-19.27-10.1-1.4 3.086 20.67zm40.033-8.692l15.904 6.464 4.204-10.855-20.107 4.39zm20.108-4.39l7.08 2.437 7.385-10.12-14.465 7.682zm14.466-7.683l4.365 3.197 4.18-16.05-8.546 12.853zm-18.67 18.537l-8.777 8.945 20.738-2.737-11.96-6.208zM-1.5-230.684l-8.685 10.9 6.11 7.31 2.574-18.21z"/><path fill="#fff" d="M-61.106-271.5l-7.36 12.303 1.23 6.53 6.13-18.833zm-6.13 18.833l-15.366 8.073 18.755 6-3.39-14.073zm3.388 14.073l-9.424 4.782-.186 8.672 9.61-13.454zm-10.17-28.03l-5.523 9.75 1.742.298 3.784-10.05h-.005zm72.517 35.94l-14.07 4.116 5.384 6.783 8.685-10.9zm-84.657 5.037l-15.65 12.025 21.64 4.39-5.99-16.415zm5.99 16.415l-2.555 12.628 24.033-5.038-21.478-7.59zm21.478 7.59l20.108-4.39-20.18-8.186.073 12.576z"/></g></g></g></svg>