<?xml version="1.0" encoding="utf-8"?>
<!-- Generator: Adobe Illustrator 17.0.2, SVG Export Plug-In . SVG Version: 6.00 Build 0)  -->
<!DOCTYPE svg PUBLIC "-//W3C//DTD SVG 1.1//EN" "http://www.w3.org/Graphics/SVG/1.1/DTD/svg11.dtd">
<svg version="1.1" xmlns="http://www.w3.org/2000/svg" xmlns:xlink="http://www.w3.org/1999/xlink" x="0px" y="0px" width="400px"
	 height="400px" viewBox="0 0 400 400" enable-background="new 0 0 400 400" xml:space="preserve">
<g id="BK" display="none">
	<rect x="-2100" y="-1580" display="inline" fill="#FFFFFF" width="5100" height="4060"/>
</g>
<g id="Comp">
	<g id="_x34_6">
		<path fill="#2C001E" d="M363.759,164.766c8.407-8.407,19.057-13.169,30.029-14.341c-9.236-36.086-28.339-68.235-54.208-93.483
			c-6.495,8.827-15.893,15.607-27.291,18.666c-26.677,7.147-54.088-8.678-61.225-35.349c-3.052-11.391-1.894-22.902,2.491-32.929
			C236.497,2.589,218.562,0,200.016,0c-18.821,0-37.035,2.667-54.311,7.549c4.304,9.977,5.429,21.403,2.399,32.71
			c-7.144,26.667-34.555,42.496-61.221,35.349c-11.204-3.006-20.458-9.606-26.935-18.2C34.301,82.614,15.374,114.64,6.212,150.546
			c10.661,1.316,20.994,6.022,29.182,14.21c19.523,19.526,19.533,51.185,0.011,70.722c-8.177,8.177-18.486,12.876-29.143,14.203
			c9.193,35.857,28.134,67.836,53.792,93c6.47-8.523,15.671-15.071,26.815-18.052c26.674-7.154,54.095,8.678,61.239,35.349
			c3.013,11.229,1.912,22.574-2.328,32.491c17.262,4.872,35.437,7.532,54.233,7.532c18.517,0,36.428-2.572,53.453-7.303
			c-4.307-9.977-5.436-21.407-2.413-32.713c7.137-26.667,34.562-42.507,61.239-35.359c11.352,3.037,20.705,9.776,27.189,18.535
			c25.873-25.21,44.987-57.32,54.251-93.356c-10.95-1.185-21.583-5.948-29.972-14.333
			C344.233,215.937,344.233,184.289,363.759,164.766z M235.354,235.368c-19.523,19.519-51.178,19.505-70.708-0.014
			c-19.519-19.523-19.519-51.181,0-70.704c19.54-19.523,51.185-19.537,70.708-0.007
			C254.877,184.165,254.877,215.835,235.354,235.368z"/>
	</g>
</g>
</svg>
