<?xml version="1.0" encoding="utf-8"?>
<!-- Generator: Adobe Illustrator 17.0.2, SVG Export Plug-In . SVG Version: 6.00 Build 0)  -->
<!DOCTYPE svg PUBLIC "-//W3C//DTD SVG 1.1//EN" "http://www.w3.org/Graphics/SVG/1.1/DTD/svg11.dtd">
<svg version="1.1" xmlns="http://www.w3.org/2000/svg" xmlns:xlink="http://www.w3.org/1999/xlink" x="0px" y="0px" width="400px"
	 height="400px" viewBox="0 0 400 400" enable-background="new 0 0 400 400" xml:space="preserve">
<g id="BK" display="none">
	<rect x="-2100" y="-3080" display="inline" fill="#FFFFFF" width="5100" height="4060"/>
</g>
<g id="Comp">
	<g id="_x31_6">
		<path fill="#2C001E" d="M385.66,151.555c-12.961-12.883-30.176-19.974-48.454-19.974c-37.909,0-68.749,30.84-68.749,68.745
			c0,10.35,8.396,18.753,18.75,18.753c10.35,0,18.75-8.403,18.75-18.753c0-17.233,14.019-31.249,31.245-31.249
			c8.311,0,16.136,3.228,22.031,9.084c7.348,7.299,19.219,7.26,26.511-0.088C393.047,170.725,393.012,158.854,385.66,151.555z
			 M287.243,212.818c-6.9,0-12.502-5.595-12.502-12.499c0-6.9,5.602-12.499,12.502-12.499s12.499,5.599,12.499,12.499
			C299.742,207.223,294.143,212.818,287.243,212.818z M373.126,300.197C338.519,359.868,273.943,400,199.995,400
			C89.541,400,0,310.459,0,199.998C0,89.541,89.541,0,199.995,0c74.044,0,138.686,40.237,173.265,100.033l0.018-0.032
			l-204.757,0.018c-10.357,0-18.746,8.403-18.746,18.75c0,10.361,8.393,18.746,18.746,18.746h90.659
			c-4.145,5.168-7.786,10.756-10.855,16.679v0.007H168.52c-10.357,0-18.746,8.403-18.746,18.746c0,10.365,8.393,18.75,18.746,18.75
			h69.031c-0.226,2.734-0.346,5.503-0.346,8.294c0,2.826,0.123,5.627,0.353,8.389v-0.004H168.52
			c-10.357,0-18.746,8.392-18.746,18.75s8.393,18.75,18.746,18.75h79.85v-0.014c3.073,5.937,6.727,11.525,10.887,16.69H168.52
			c-10.357,0-18.746,8.389-18.746,18.75c0,10.35,8.393,18.746,18.746,18.746h204.376L373.126,300.197z"/>
	</g>
</g>
</svg>
