<svg xmlns="http://www.w3.org/2000/svg" width="400" height="400" viewBox="0 0 400 400"><g><path fill="#fff" d="M400 200c0 110.46-89.54 200-200 200C89.547 400 0 310.46 0 200S89.547 0 200 0c110.46 0 200 89.54 200 200z"/><path fill="#2C001E" d="M297.012 34.453c-18.28.07-35.47 7.195-48.398 20.148-12.992 12.977-20.146 30.243-20.146 48.603 0 18.36 7.154 35.625 20.142 48.602 3.666 3.672 8.458 5.496 13.262 5.496 4.8 0 9.594-1.823 13.255-5.495 7.33-7.316 7.33-19.184 0-26.492-5.892-5.93-9.15-13.785-9.15-22.11 0-8.35 3.258-16.18 9.157-22.1 5.88-5.868 13.684-9.142 22.008-9.15 10.35-.042 18.717-8.472 18.696-18.82-.037-10.356-8.42-18.61-18.826-18.68zm-26.28 95.235c4.874 4.88 4.874 12.804 0 17.664-4.882 4.906-12.802 4.906-17.69 0-4.877-4.86-4.877-12.785 0-17.664 4.888-4.88 12.808-4.88 17.69 0zM369.1 172.77c-.312.356-.63.738-.976 1.066L248.688 293.238c-3.648 3.672-8.457 5.504-13.258 5.504-4.796 0-9.593-1.832-13.257-5.504-7.33-7.31-7.33-19.184 0-26.512l64.144-64.14c-6.668-.71-13.194-2.11-19.49-4.078l-56.45 56.422c-3.658 3.664-8.463 5.496-13.264 5.496-4.8 0-9.598-1.832-13.255-5.496-7.32-7.316-7.32-19.184 0-26.5l48.846-48.828c-2.127-1.832-4.197-3.707-6.2-5.695-1.978-1.96-3.825-4.028-5.6-6.102l-48.853 48.828c-3.655 3.672-8.448 5.476-13.26 5.476-4.786 0-9.59-1.805-13.264-5.477-7.314-7.328-7.314-19.21 0-26.52l56.482-56.45c-2.032-6.39-3.408-12.89-4.122-19.487l-64.156 64.14c-3.656 3.645-8.457 5.505-13.255 5.505-4.808 0-9.6-1.86-13.268-5.503-7.324-7.308-7.324-19.184 0-26.52L225.85 33.195c.22-.226.428-.47.654-.695l25.62-25.617C235.322 2.38 217.83 0 199.96 0 146.524 0 96.29 20.79 58.496 58.586c-77.992 77.976-77.992 204.852-.004 282.828C96.29 379.21 146.524 400 199.96 400c53.434 0 103.672-20.79 141.446-58.586C379.196 303.664 400 253.43 400 200c0-17.656-2.325-34.965-6.726-51.606l-24.176 24.376zm-302.11 35.546c9.766-9.766 25.596-9.766 35.352 0 9.768 9.766 9.768 25.59 0 35.356-9.756 9.766-25.587 9.766-35.352 0-9.765-9.766-9.765-25.59 0-35.356zm54.125 124.028c-9.766 9.766-25.592 9.766-35.364 0-9.758-9.766-9.775-25.59-.01-35.355 9.782-9.767 25.608-9.767 35.373 0s9.766 25.588 0 35.354zm79.274-8.715c-9.766 9.773-25.586 9.773-35.367 0-9.75-9.76-9.766-25.59 0-35.35 9.78-9.772 25.602-9.765 35.37 0 9.764 9.76 9.764 25.59-.003 35.35z"/></g></svg>