<svg xmlns="http://www.w3.org/2000/svg" width="400" height="400" viewBox="0 0 400 400"><g><path d="M200.002-.004C89.716-.004 0 89.716 0 199.996 0 310.28 89.72 400.003 200.002 400.003 310.277 400.004 400 310.28 400 199.994 400 89.717 310.277-.003 200.002-.003zm70.044 240.932l-61.19 61.19c-4.88 4.882-12.788 4.882-17.674 0l-60.58-60.583c-2.645-2.293-4.314-5.673-4.314-9.447 0-6.9 5.595-12.503 12.503-12.503H174.998V119.23c0-13.81 11.197-25 24.998-25 13.808 0 25.002 11.19 25.002 25v100.354h36.21c5.05 0 9.612 3.045 11.542 7.722 1.94 4.672.866 10.052-2.704 13.622z" fill="#888"/></g></svg>