<svg xmlns="http://www.w3.org/2000/svg" width="400" height="400" viewBox="0 0 400 400"><g><path fill="#DD4814" d="M199.995 400C89.718 400 0 310.28 0 199.998 0 89.72 89.718 0 199.995 0 310.275 0 400 89.72 400 199.998 400 310.278 310.275 400 199.995 400zm0-350C117.287 50 50 117.29 50 200s67.284 150 149.995 150c82.715 0 150.003-67.29 150.003-150S282.71 50 199.995 50zm74.72 125.015H224.91v-50c0-13.807-11.194-25-25-25s-25.002 11.194-25.002 25v50h-50.19c-13.807 0-25 11.194-25 25 0 13.812 11.194 25.002 25 25.002h50.19v49.995c0 13.808 11.194 25 25 25 13.812 0 25.002-11.193 25.002-25v-49.995h49.808c13.808 0 25-11.194 25-25 0-13.81-11.193-25.002-25-25.002z"/></g></svg>