<?xml version="1.0" encoding="iso-8859-1"?>
<!-- Generator: Adobe Illustrator 17.0.2, SVG Export Plug-In . SVG Version: 6.00 Build 0)  -->
<!DOCTYPE svg PUBLIC "-//W3C//DTD SVG 1.1//EN" "http://www.w3.org/Graphics/SVG/1.1/DTD/svg11.dtd">
<svg version="1.1" xmlns="http://www.w3.org/2000/svg" xmlns:xlink="http://www.w3.org/1999/xlink" x="0px" y="0px" width="400px"
	 height="400px" viewBox="0 0 400 400" style="enable-background:new 0 0 400 400;" xml:space="preserve">
<g id="BK" style="display:none;">
	<rect x="-2600" y="-2580" style="display:inline;fill:#FFFFFF;" width="5100" height="4060"/>
</g>
<g id="Comp">
	<g id="_x32_5">
		<path style="fill:#888888;" d="M199.998,0.002C89.721,0.002,0,89.719,0,199.996s89.725,200.002,199.998,200.002
			C310.279,399.998,400,310.274,400,199.996S310.279,0.002,199.998,0.002z M293.734,256.126H106.266
			c-31.062,0-56.243-25.181-56.243-56.243c0-29.901,23.322-54.331,52.757-56.137c-13.158-26.391-3.658-58.811,22.235-73.762
			c25.887-14.944,58.705-6.964,74.986,17.632c16.288-24.592,49.103-32.572,74.996-17.625c25.887,14.947,35.383,47.36,22.225,73.758
			c29.446,1.806,52.761,26.236,52.761,56.137C349.98,230.945,324.796,256.126,293.734,256.126z M164.996,235.997l21.043-58.91
			c-12.379-5.394-21.043-17.723-21.043-32.088c0-19.328,15.67-34.999,35.002-34.999c19.329,0,34.999,15.67,34.999,34.999
			c0,14.365-8.661,26.691-21.039,32.088L235,236.001h-70.004V235.997z"/>
	</g>
</g>
</svg>
