<svg xmlns="http://www.w3.org/2000/svg" width="400" height="400" viewBox="0 0 400 400"><g><path d="M199.99-.002C89.714-.002 0 89.72 0 199.998c0 110.285 89.718 200.004 199.99 200.004 110.285 0 200.01-89.722 200.01-200.004s-89.725-200-200.01-200zm83.273 250.133H116.787c-27.58 0-49.95-22.362-49.95-49.95 0-26.55 20.712-48.245 46.852-49.846-11.685-23.44-3.25-52.222 19.744-65.497 22.987-13.27 52.133-6.188 66.59 15.656 14.46-21.837 43.603-28.928 66.594-15.653s31.422 42.058 19.74 65.497c26.142 1.605 46.853 23.297 46.853 49.847.006 27.585-22.36 49.947-49.947 49.947zm-149.606-25.86c-13.794 0-24.977-11.188-24.977-24.978 0-13.28 10.358-24.126 23.424-24.927-5.838-11.72-1.623-26.113 9.874-32.748 11.49-6.636 26.063-3.094 33.295 7.82 7.225-10.914 21.802-14.46 33.3-7.82 11.492 6.636 15.708 21.03 9.866 32.748 13.07.8 23.423 11.65 23.423 24.927 0 13.79-11.18 24.977-24.973 24.977h-83.233z" fill="#888"/></g></svg>