<svg xmlns="http://www.w3.org/2000/svg" width="400" height="400" viewBox="0 0 400 400"><g><path fill="#2C001E" d="M326.69 288.984c0 34.6-28.153 62.75-62.752 62.75-34.602 0-62.754-28.15-62.754-62.75 0-32.464 24.777-59.242 56.41-62.433v-18.496c0-2.537 1.53-4.824 3.874-5.8 2.34-.964 5.043-.437 6.842 1.362l30.715 30.718c2.45 2.446 2.45 6.425 0 8.878l-30.715 30.715c-1.202 1.198-2.806 1.838-4.44 1.838-.808 0-1.625-.156-2.402-.477-2.343-.972-3.873-3.262-3.873-5.803v-17.582c-17.745 3.03-31.308 18.483-31.308 37.08 0 20.758 16.89 37.647 37.652 37.647 20.758 0 37.647-16.89 37.647-37.648 0-6.93 5.62-12.55 12.55-12.55 6.933.003 12.552 5.622 12.552 12.552zm-12.9-176.113h67.504C348.63 46.103 280.004 0 200.8 0c-26.563 0-51.91 5.227-75.14 14.642v229.19H75.457V44.096C29.506 80.923 0 137.468 0 200.81 0 303.042 76.81 387.62 175.742 400V112.87h37.638v25.065h-12.45v25.1h50.204v-25.1h-12.648V112.87h50.205v25.065h-12.644v25.1h50.2v-25.1h-12.453V112.87h-.003zM100.21 307.62l-25.273-43.774h50.544l-25.27 43.773z"/></g></svg>