<svg xmlns="http://www.w3.org/2000/svg" width="401" height="401" viewBox="0 0 401 401"><g><path fill="#AEA79F" d="M400.5 200.5c0 110.457-89.543 200-200 200-110.46 0-200-89.543-200-200S90.04.5 200.5.5c110.457 0 200 89.543 200 200z"/><g fill-rule="evenodd" clip-rule="evenodd" fill="#fff"><path d="M303.648 248.574c-5.64 12.496-8.344 18.07-15.602 29.11-10.125 15.42-24.398 34.608-42.086 34.78-15.726.143-19.758-10.234-41.094-10.115-21.328.118-25.78 10.292-41.5 10.15-17.692-.163-31.226-17.5-41.352-32.91-28.324-43.108-31.285-93.696-13.816-120.587 12.418-19.112 31.996-30.297 50.41-30.297 18.754 0 30.54 10.277 46.04 10.277 15.038 0 24.194-10.293 45.874-10.293 16.383 0 33.746 8.92 46.117 24.34-40.53 22.208-33.945 80.074 7.008 95.544zM234.082 111.467c7.875-10.108 13.856-24.375 11.684-38.967-12.867.89-27.914 9.074-36.7 19.742-7.972 9.684-14.557 24.043-11.99 38.006 14.04.434 28.572-7.953 37.006-18.78z"/></g></g></svg>