<?xml version="1.0" encoding="iso-8859-1"?>
<!-- Generator: Adobe Illustrator 17.0.2, SVG Export Plug-In . SVG Version: 6.00 Build 0)  -->
<!DOCTYPE svg PUBLIC "-//W3C//DTD SVG 1.1//EN" "http://www.w3.org/Graphics/SVG/1.1/DTD/svg11.dtd">
<svg version="1.1" xmlns="http://www.w3.org/2000/svg" xmlns:xlink="http://www.w3.org/1999/xlink" x="0px" y="0px" width="400px"
	 height="400px" viewBox="0 0 400 400" style="enable-background:new 0 0 400 400;" xml:space="preserve">
<g id="BK" style="display:none;">
	<rect x="-1600" y="-1080" style="display:inline;fill:#FFFFFF;" width="5100" height="4060"/>
</g>
<g id="Comp">
	<g id="_x35_7">
		<path style="fill:#888888;" d="M200.002-0.004C89.539-0.004,0,89.553,0,200.009c0,110.445,89.543,199.995,200.002,199.995
			S400,310.454,400,200.009C400.004,89.553,310.464-0.004,200.002-0.004z M276.922,320.928c-2.907,1.436-6.008,2.117-9.059,2.117
			c-7.571,0-14.838-4.202-18.422-11.437l-47.107-95.526l-53.079,89.91h43.71c7.557,0,13.677,6.117,13.677,13.677
			c0,7.557-6.121,13.677-13.677,13.677h-67.663c-4.907,0-9.44-2.632-11.875-6.904c-2.434-4.258-2.388-9.493,0.092-13.723
			l74.356-125.971l-44.613-90.463c-5.006-10.174-0.826-22.462,9.345-27.467c10.153-5.02,22.451-0.84,27.471,9.324l106.166,215.295
			C291.266,303.62,287.086,315.922,276.922,320.928z"/>
	</g>
</g>
</svg>
