<svg xmlns="http://www.w3.org/2000/svg" width="400" height="400" viewBox="0 0 400 400"><g><path d="M301.225 27.56l.004.01-87.34 172.474c-2.58 5.165-7.834 8.297-13.42 8.297l-.01-.003c-5.577 0-10.827-3.133-13.413-8.294l-86.675-173.43.004.007C40.436 61.2 0 125.964 0 200.002 0 310.284 89.716 400 199.998 400S400 310.28 400 200.002c0-73.372-39.716-137.64-98.775-172.443zM149.872 301.277c-6.9 0-12.495-5.595-12.495-12.5 0-6.903 5.595-12.498 12.495-12.498 6.907 0 12.503 5.595 12.503 12.5 0 6.903-5.596 12.498-12.503 12.498zm0-50.783c-6.9 0-12.495-5.595-12.495-12.503 0-6.904 5.595-12.5 12.495-12.5 6.907 0 12.503 5.596 12.503 12.5 0 6.908-5.596 12.503-12.503 12.503zm191.13-50.49h-35.388l-35.793-.13c-2.017 0-3.894-1.05-4.948-2.767-1.065-1.718-1.164-3.863-.258-5.666l35.793-71.106c1.002-2.004 3.037-3.22 5.214-3.22 2.178 0 4.206 1.216 5.215 3.22l35.384 71.237c.902 1.803.807 3.948-.248 5.666-1.076 1.718-2.95 2.765-4.97 2.765zM248.363 5.913l-18.63 35.754v-.007l22.29 46.126v-.335l-42.074 82.135c-1.792 3.588-5.443 5.76-9.324 5.76h-.004c-3.88 0-7.528-2.172-9.327-5.767l-41.42-81.923v.335l22.29-45.54-18.967-36.91V5.53C168.22 1.916 183.883 0 199.998 0c16.676.003 32.872 2.053 48.366 5.913" fill="#888"/></g></svg>