<?xml version="1.0" encoding="utf-8"?>
<!-- Generator: Adobe Illustrator 17.0.2, SVG Export Plug-In . SVG Version: 6.00 Build 0)  -->
<!DOCTYPE svg PUBLIC "-//W3C//DTD SVG 1.1//EN" "http://www.w3.org/Graphics/SVG/1.1/DTD/svg11.dtd">
<svg version="1.1" xmlns="http://www.w3.org/2000/svg" xmlns:xlink="http://www.w3.org/1999/xlink" x="0px" y="0px" width="400px"
	 height="400px" viewBox="0 0 400 400" enable-background="new 0 0 400 400" xml:space="preserve">
<g id="BK" display="none">
	<rect x="-2600" y="-1080" display="inline" fill="#FFFFFF" width="5100" height="4060"/>
</g>
<g id="Comp">
	<g id="_x35_5">
		<path fill="#5E2750" d="M307.365,368.825C275.601,389.092,238.711,400,200.127,400c-38.651,0-75.597-10.943-107.397-31.267
			c4.565-4.628,7.225-10.922,7.225-17.593v-51.566H87.287c-6.918,0-12.527-5.609-12.527-12.527c0-6.918,5.609-12.527,12.527-12.527
			h12.668v-50.137h62.64c13.427,0,24.384-10.559,25.026-23.83c0.025-0.427,0.035-0.857,0.035-1.281
			c0-71.057-37.19-133.548-93.095-169.162C125.944,10.527,162.217,0,200.127,0c37.857,0,74.084,10.499,105.435,30.032
			c-55.969,35.596-93.212,98.129-93.212,169.236c0,0.42,0.011,0.847,0.035,1.273c0.635,13.272,11.596,23.837,25.026,23.837h62.643
			v50.137h12.668c6.918,0,12.527,5.609,12.527,12.527c0,6.918-5.609,12.527-12.527,12.527h-12.668v51.566
			C300.052,357.857,302.74,364.189,307.365,368.825z M350.291,136.519c0-6.918-5.602-12.534-12.524-12.534
			c-6.918,0-12.531,5.616-12.531,12.534s5.613,12.52,12.531,12.52C344.689,149.039,350.291,143.437,350.291,136.519z
			 M62.232,123.988c-6.918,0-12.524,5.616-12.524,12.534s5.606,12.52,12.524,12.52s12.534-5.602,12.534-12.52
			S69.15,123.988,62.232,123.988z"/>
	</g>
</g>
</svg>
