<svg xmlns="http://www.w3.org/2000/svg" width="400" height="400" viewBox="0 0 400 400"><g><path fill="#D63023" d="M400 200c0 110.447-89.542 200-200 200C89.54 400 0 310.447 0 200 0 89.54 89.546 0 200 0c110.458 0 200 89.54 200 200z"/><path fill="#fff" d="M109.956 96.104c-7.673 0-13.853 6.178-13.853 13.85v48.486h41.56v-13.85c0-3.835 3.084-6.926 6.926-6.926h110.82c3.833 0 6.927 3.09 6.927 6.926v13.85h41.558v-48.485c0-7.673-6.18-13.85-13.85-13.85h-180.09zm-13.852 76.188v55.415h41.56v-55.415h-41.56zm166.234 0v55.415h41.558v-55.415h-41.558zM96.104 241.56v48.487c0 7.668 6.18 13.85 13.853 13.85h180.088c7.67 0 13.85-6.182 13.85-13.85V241.56H262.34v13.848c0 3.838-3.094 6.93-6.926 6.93H144.59c-3.843 0-6.928-3.092-6.928-6.93V241.56H96.104z"/></g></svg>