<?xml version="1.0" encoding="utf-8"?>
<!-- Generator: Adobe Illustrator 17.0.2, SVG Export Plug-In . SVG Version: 6.00 Build 0)  -->
<!DOCTYPE svg PUBLIC "-//W3C//DTD SVG 1.1//EN" "http://www.w3.org/Graphics/SVG/1.1/DTD/svg11.dtd">
<svg version="1.1" xmlns="http://www.w3.org/2000/svg" xmlns:xlink="http://www.w3.org/1999/xlink" x="0px" y="0px" width="401px"
	 height="401px" viewBox="0 0 401 401" enable-background="new 0 0 401 401" xml:space="preserve">
<g id="BK" display="none">
	<rect x="-3099" y="-80" display="inline" fill="#FFFFFF" width="5100" height="4060"/>
</g>
<g id="Comp">
	<g id="g4882" transform="translate(262.71429,407.7143)">
		
			<circle id="circle3910-9" fill="#DD4814" cx="-62.214" cy="-207.214" r="200">
		</circle>
		<path id="path3912-5" fill="#FFFFFF" d="M-198.208-233.925
			c-14.753,0-26.709,11.956-26.709,26.71c0,14.746,11.956,26.703,26.709,26.703c14.751,0,26.704-11.957,26.704-26.703
			C-171.514-221.969-183.464-233.925-198.208-233.925z M-7.556-112.563c-12.774,7.378-17.149,23.701-9.776,36.467
			c7.371,12.771,23.692,17.151,36.463,9.771c12.778-7.366,17.156-23.687,9.775-36.463C21.531-115.549,5.203-119.93-7.556-112.563z
			 M-140.21-207.214c0-26.387,13.11-49.702,33.164-63.819l-19.519-32.694c-23.364,15.617-40.747,39.478-47.966,67.427
			c8.426,6.879,13.821,17.351,13.821,29.087c0,11.729-5.395,22.2-13.821,29.081c7.21,27.958,24.592,51.816,47.966,67.432
			l19.519-32.7c-20.054-14.111-33.162-37.422-33.162-63.812H-140.21z M-62.214-285.217c40.745,0,74.177,31.24,77.681,71.079
			l38.054-0.563c-1.875-29.411-14.724-55.814-34.47-75.233c-10.154,3.834-21.88,3.247-32.017-2.595
			c-10.156-5.859-16.521-15.745-18.259-26.474c-9.868-2.724-20.254-4.213-30.999-4.213c-18.457,0-35.908,4.331-51.401,12.005
			l18.557,33.249C-85.085-282.605-73.95-285.217-62.214-285.217L-62.214-285.217z M-62.214-129.219
			c-11.736,0-22.871-2.612-32.852-7.257l-18.555,33.244c15.498,7.682,32.952,12.019,51.406,12.019
			c10.74,0,21.123-1.493,30.989-4.222c1.743-10.732,8.108-20.61,18.264-26.475c10.142-5.854,21.86-6.433,32.017-2.595
			c19.746-19.418,32.595-45.823,34.465-75.239l-38.056-0.558C11.958-160.452-21.47-129.219-62.214-129.219L-62.214-129.219z
			 M-7.566-301.884c12.778,7.378,29.094,3.008,36.462-9.766c7.383-12.773,3.013-29.094-9.765-36.474
			c-12.771-7.369-29.092-2.992-36.472,9.783C-24.705-325.574-20.33-309.252-7.566-301.884z"/>
		<g id="g4874">
			<path id="path5176_1_" fill="#FFFFFF" fill-opacity="0.7059" d="M-61.106-271.5l-14.717,15.084
				l-1.953-0.229l3.757-9.979l-15.063,15.061l2.925,25.917l-1.719-15.039l-1.206-10.877l-12.146,7.406l-6.152,12.577l-8.406,14.441
				l7.942,19.616l2.554,15.453l3.157,7.544l-5.317,6.344l-5.591,6.764h15.298l1.926-13.778l6.155-9.426l10.261,1.769l11.309-4.529
				l8.359-4.275l8.171,5.426l-9.797,11.727l-10.054,9.471l15.769,0.231l0.042-6.414l11.936-9.478l4.368,5.497l-12.563,17.892
				l16.025,0.092l-0.583-8.967l11.467-10.879l-5.872-11.909l-0.676-14.625l11.75-6.923l6.64,1.405l9.033-3.358l2.576-18.213
				l-14.068,4.116l-8.547,12.855l-14.465,7.68l-20.181-8.185l-14.695-10.923l9.61-13.454l-3.389-14.074L-61.106-271.5L-61.106-271.5
				z"/>
			<path id="path4825" fill="#DD8371" d="M-82.722-196.604l14.629,9.22l8.359-4.275
				L-82.722-196.604z M-98.721-192.949l2.903,17.751l6.155-9.426L-98.721-192.949z M-30.825-188.97l-8.474,13.772l14.346-1.863
				L-30.825-188.97z M-39.299-175.198l-12.563,17.892l16.025,0.092l-0.583-8.967L-39.299-175.198L-39.299-175.198z M-51.563-186.233
				l-9.797,11.727l5.757,3.288L-51.563-186.233z M-61.36-174.506l-10.054,9.471l15.769,0.231L-61.36-174.506L-61.36-174.506z
				 M-107.451-168.184l-5.591,6.764h15.298L-107.451-168.184z"/>
			<path id="path4829" fill="#E5AE9B" d="M-89.082-251.564l2.925,25.917l3.554-18.948
				L-89.082-251.564z M-86.157-225.647l12.7,0.507l0.186-8.672L-86.157-225.647z M-107.38-231.581l-8.406,14.441l13.979-11.197
				L-107.38-231.581z M-115.786-217.14l7.942,19.616l6.038-16.098L-115.786-217.14z M-10.186-219.784l-9.565,9.266l6.64,1.405
				L-10.186-219.784z M-31.501-203.595l-11.284,8.417l11.961,6.208L-31.501-203.595z M-42.786-195.178l-16.948,3.519l8.171,5.426
				L-42.786-195.178z M-51.563-186.233l-4.04,15.016l11.936-9.478L-51.563-186.233z M-55.603-171.217l-5.757-3.288l5.715,9.702
				L-55.603-171.217z M-59.734-191.659l1.045-9.983l-24.033,5.038L-59.734-191.659z M-82.722-196.604l-15.998,3.655l9.057,8.325
				L-82.722-196.604z M-98.721-192.949l-6.57,10.878l9.473,6.874L-98.721-192.949z M-95.818-175.198l-11.633,7.014l9.707,6.764
				L-95.818-175.198z M-24.954-177.061l-14.346,1.863l2.878,9.016L-24.954-177.061L-24.954-177.061z"/>
			
				<path id="path4854" fill="#EBCFC6" d="
				M-61.106-271.5l-14.717,15.084l7.358-2.781L-61.106-271.5z M-75.823-256.416l-3.718-0.459l-3.062,12.28l15.366-8.073
				L-75.823-256.416z M-82.603-244.595l-3.554,18.948l12.885-8.165L-82.603-244.595z M-86.157-225.647l-15.071-18.511l-0.578,15.82
				L-86.157-225.647z M-101.807-228.337l-13.979,11.197l13.979,3.518V-228.337z M-101.807-213.622l-6.038,16.098l9.124,4.575
				L-101.807-213.622z M-98.721-192.949l18.552-16.283l-11.538-2.987L-98.721-192.949z M-80.168-209.232l21.406-4.986
				l-14.695-10.923L-80.168-209.232z M-101.228-244.158l13.352,3.471l-1.206-10.877L-101.228-244.158z M-89.082-251.564l9.541-5.311
				l5.528-9.75L-89.082-251.564z M-15.569-226.567l-4.182,16.05l9.565-9.266L-15.569-226.567z M-10.186-219.784l-2.925,10.671
				l9.033-3.36L-10.186-219.784z M-19.751-210.518l-4.365-3.197l-7.385,10.12L-19.751-210.518z M-31.501-203.595l-7.08-2.438
				l-4.204,10.855L-31.501-203.595z M-42.786-195.178l-15.903-6.464l-1.045,9.983L-42.786-195.178z M-82.722-196.604l3.32,13.749
				l11.309-4.529L-82.722-196.604z M-30.825-188.97l-20.738,2.737l7.896,5.538l4.368,5.497L-30.825-188.97z M-105.291-182.072
				l3.157,7.544l-5.317,6.344l11.633-7.014L-105.291-182.072z"/>
			
				<path id="path4870" fill="#EDD9D3" d="
				M-68.464-259.197l-7.358,2.781l8.586,3.749L-68.464-259.197z M-79.541-256.875l-9.541,5.311l6.479,6.969L-79.541-256.875z
				 M-82.603-244.595l9.331,10.782l9.424-4.782L-82.603-244.595z M-101.228-244.158l15.071,18.511l-1.719-15.039L-101.228-244.158z
				 M-101.228-244.158l-6.152,12.577l5.574,3.243L-101.228-244.158z M-101.807-228.337v14.715l15.649-12.025L-101.807-228.337z
				 M-86.157-225.647l5.989,16.415l6.711-15.908L-86.157-225.647z M-80.168-209.232l21.48,7.59l-0.073-12.576L-80.168-209.232z
				 M-80.168-209.232l-18.552,16.283l15.998-3.655L-80.168-209.232z M-82.722-196.604l-6.941,11.98l10.261,1.769L-82.722-196.604z
				 M-98.721-192.949l-9.124-4.575l2.554,15.453L-98.721-192.949z M-98.721-192.949l7.014-19.27l-10.1-1.402L-98.721-192.949z
				 M-58.689-201.642l15.903,6.464l4.204-10.855L-58.689-201.642z M-38.582-206.033l7.08,2.438l7.385-10.12L-38.582-206.033z
				 M-24.116-213.715l4.365,3.197l4.182-16.05L-24.116-213.715z M-42.786-195.178l-8.777,8.945l20.738-2.737L-42.786-195.178z
				 M-1.501-230.684l-8.684,10.9l6.109,7.311L-1.501-230.684z"/>
			<path id="path4872" fill="#FFFFFF" d="M-61.106-271.5l-7.359,12.303l1.228,6.53L-61.106-271.5z
				 M-67.236-252.667l-15.366,8.073l18.755,6.001L-67.236-252.667z M-63.848-238.594l-9.424,4.782l-0.186,8.672L-63.848-238.594z
				 M-74.019-266.625l-5.522,9.75l1.743,0.299l3.784-10.049H-74.019z M-1.501-230.684l-14.068,4.116l5.383,6.783L-1.501-230.684
				L-1.501-230.684z M-86.157-225.647l-15.649,12.025l21.638,4.39L-86.157-225.647z M-80.168-209.232l-2.554,12.628l24.033-5.038
				L-80.168-209.232z M-58.689-201.642l20.107-4.391l-20.181-8.185L-58.689-201.642z"/>
		</g>
	</g>
</g>
<g id="nyt_x5F_exporter_x5F_info" display="none">
</g>
</svg>
