<svg xmlns="http://www.w3.org/2000/svg" width="400" height="400" viewBox="0 0 400 400"><g><path fill="#2C001E" d="M199.998.002C89.718.002 0 89.72 0 199.996s89.72 200.002 199.998 200.002c110.28 0 200.002-89.724 200.002-200.002S310.28.002 199.998.002zm93.736 256.124H211.21V132.5L245 110h-90v146.126h-48.737c-31.065 0-56.246-25.18-56.246-56.243 0-29.9 23.322-54.33 52.76-56.137-13.157-26.39-3.657-58.81 22.236-73.762C150.9 55.04 183.718 63.02 200 87.616c16.287-24.592 49.102-32.572 74.995-17.625 25.887 14.948 35.383 47.36 22.225 73.76 29.446 1.805 52.76 26.235 52.76 56.136 0 31.06-25.184 56.24-56.246 56.24z"/></g></svg>