<svg xmlns="http://www.w3.org/2000/svg" width="400" height="400" viewBox="0 0 400 400"><g><path fill="#2C001E" d="M199.993-.002C89.53-.002 0 89.533 0 199.995s89.535 200.007 199.993 200.007S400 310.456 400 199.995 310.45-.002 199.993-.002zm.056 162.486c5.947 0 11.595.854 16.858 2.353V68.96c0-5.843 3.013-11.272 7.973-14.366 4.96-3.09 11.16-3.404 16.41-.833l51.08 25.052c8.394 4.117 11.86 14.26 7.744 22.652-4.113 8.396-14.256 11.86-22.652 7.747L250.76 96.117v107.558c.014.377.07.744.07 1.13 0 23.73-22.31 42.318-50.785 42.318-28.476 0-50.786-18.59-50.786-42.32.004-23.73 22.313-42.318 50.79-42.318zm-50.59 101.568c13.49 13.78 31.546 21.484 50.833 21.682 19.332.19 37.497-7.123 51.28-20.613l14.436 14.74c-17.48 17.124-40.507 26.515-64.933 26.515-.332 0-.663-.004-.998-.007-24.8-.258-48.01-10.164-65.36-27.88l14.74-14.436zm51.634 93.902c-.522 0-1.037-.004-1.563-.007-38.575-.41-74.682-15.81-101.666-43.38l14.743-14.437c23.132 23.63 54.08 36.833 87.143 37.183 33.108.42 64.283-12.203 87.905-35.338l14.436 14.74c-27.188 26.627-63.006 41.24-100.996 41.24z"/></g></svg>