<svg xmlns="http://www.w3.org/2000/svg" width="400" height="400" viewBox="0 0 400 400"><g><path d="M341.506 58.58C303.724 20.802 253.488 0 200.056 0S96.382 20.803 58.596 58.582C20.81 96.358 0 146.582 0 200s20.81 103.642 58.596 141.418C96.386 379.193 146.62 400 200.06 400c53.432 0 103.664-20.803 141.446-58.58 77.992-77.973 77.992-204.863 0-282.84zM37.504 213.087c-6.904 0-12.502-5.6-12.502-12.5 0-6.903 5.602-12.505 12.502-12.505 6.904 0 12.506 5.602 12.506 12.506 0 6.9-5.602 12.498-12.506 12.498zM199.9 25.732c6.905-.004 12.503 5.592 12.503 12.495 0 6.907-5.6 12.502-12.502 12.502-6.906 0-12.505-5.596-12.505-12.507 0-6.9 5.6-12.495 12.506-12.49zM76.23 76.942c4.882-4.887 12.792-4.88 17.68 0 4.876 4.88 4.883 12.794 0 17.677-4.888 4.88-12.805 4.88-17.687 0-4.878-4.877-4.878-12.797.008-17.68zm17.68 247.285c-4.88 4.89-12.798 4.89-17.68.007-4.882-4.88-4.882-12.8 0-17.685 4.882-4.88 12.8-4.873 17.68.003 4.884 4.882 4.884 12.795 0 17.674zm105.993 51.223c-6.9 0-12.505-5.6-12.505-12.502 0-6.9 5.606-12.5 12.506-12.5 6.905 0 12.503 5.593 12.503 12.493 0 6.912-5.598 12.51-12.502 12.51zm44.448-130.492c-11.804 11.8-27.503 18.302-44.203 18.302-16.697 0-32.4-6.505-44.2-18.31-11.806-11.796-18.308-27.49-18.308-44.188 0-8.012 1.538-15.787 4.403-23.02l-30.575-30.57c-9.768-9.766-9.768-25.595 0-35.356 9.765-9.76 25.6-9.765 35.36 0l30.708 30.7c7.123-2.763 14.75-4.256 22.613-4.256 16.697 0 32.4 6.498 44.203 18.3 11.813 11.806 18.315 27.505 18.315 44.198 0 16.7-6.506 32.396-18.317 44.2zm79.223 79.27c-4.88 4.88-12.798 4.888-17.68 0-4.882-4.873-4.875-12.796 0-17.68 4.89-4.878 12.8-4.878 17.68 0 4.883 4.884 4.89 12.8 0 17.68zm0-229.61c-4.88 4.882-12.79 4.886-17.68.004-4.882-4.88-4.882-12.795 0-17.68 4.882-4.88 12.8-4.88 17.68.003 4.89 4.878 4.883 12.798 0 17.673zm38.73 118.47c-6.905 0-12.51-5.6-12.51-12.5 0-6.903 5.606-12.505 12.51-12.505 6.903 0 12.5 5.602 12.5 12.506 0 6.9-5.597 12.498-12.5 12.498z" fill="#888"/></g></svg>