<?xml version="1.0" encoding="utf-8"?>
<!-- Generator: Adobe Illustrator 17.0.2, SVG Export Plug-In . SVG Version: 6.00 Build 0)  -->
<!DOCTYPE svg PUBLIC "-//W3C//DTD SVG 1.1//EN" "http://www.w3.org/Graphics/SVG/1.1/DTD/svg11.dtd">
<svg version="1.1" xmlns="http://www.w3.org/2000/svg" xmlns:xlink="http://www.w3.org/1999/xlink" x="0px" y="0px" width="400px"
	 height="400px" viewBox="0 0 400 400" enable-background="new 0 0 400 400" xml:space="preserve">
<g id="BK" display="none">
	<rect x="-100" y="-80" display="inline" fill="#FFFFFF" width="5100" height="4060"/>
</g>
<g id="Comp">
	<g>
		<path fill="#772953" d="M200.005,327.35c-70.337,0-127.351-56.998-127.351-127.351c0-70.338,57.015-127.345,127.351-127.345
			c70.338,0,127.35,57.007,127.35,127.345C327.355,270.352,270.344,327.35,200.005,327.35z"/>
		<path fill="#772953" d="M400,200.004c0,110.452-89.543,199.995-200.001,199.995C89.538,399.999,0,310.455,0,200.004
			C0,89.541,89.538,0.001,200.001,0.001C310.457,0.001,400,89.541,400,200.004z M200.001,48.65
			c-83.594,0-151.347,67.764-151.347,151.352c0,83.601,67.753,151.344,151.347,151.344c83.597,0,151.35-67.743,151.35-151.344
			C351.35,116.415,283.597,48.65,200.001,48.65z"/>
	</g>
</g>
<g id="nyt_x5F_exporter_x5F_info" display="none">
	<text display="inline"><tspan x="0" y="0" font-family="'MyriadPro-Regular'" font-size="12">&lt;nyt_prefs&gt;</tspan><tspan x="0" y="14.4" font-family="'MyriadPro-Regular'" font-size="12">  &lt;nyt_prefix&gt;picto-&lt;/nyt_prefix&gt;</tspan><tspan x="0" y="28.8" font-family="'MyriadPro-Regular'" font-size="12">  &lt;nyt_suffix&gt;&lt;/nyt_suffix&gt;</tspan><tspan x="0" y="43.2" font-family="'MyriadPro-Regular'" font-size="12">  &lt;nyt_base_path&gt;~/Desktop&lt;/nyt_base_path&gt;</tspan><tspan x="0" y="57.6" font-family="'MyriadPro-Regular'" font-size="12">  &lt;nyt_scaling&gt;100&lt;/nyt_scaling&gt;</tspan><tspan x="0" y="72" font-family="'MyriadPro-Regular'" font-size="12">  &lt;nyt_transparency&gt;true&lt;/nyt_transparency&gt;</tspan><tspan x="0" y="86.4" font-family="'MyriadPro-Regular'" font-size="12">  &lt;nyt_format&gt;PNG 24&lt;/nyt_format&gt;</tspan><tspan x="0" y="100.8" font-family="'MyriadPro-Regular'" font-size="12">  &lt;nyt_export_code&gt;artboards&lt;/nyt_export_code&gt;</tspan><tspan x="0" y="115.2" font-family="'MyriadPro-Regular'" font-size="12">&lt;/nyt_prefs&gt;</tspan></text>
</g>
</svg>
