<?xml version="1.0" encoding="utf-8"?>
<!-- Generator: Adobe Illustrator 17.0.2, SVG Export Plug-In . SVG Version: 6.00 Build 0)  -->
<!DOCTYPE svg PUBLIC "-//W3C//DTD SVG 1.1//EN" "http://www.w3.org/Graphics/SVG/1.1/DTD/svg11.dtd">
<svg version="1.1" xmlns="http://www.w3.org/2000/svg" xmlns:xlink="http://www.w3.org/1999/xlink" x="0px" y="0px" width="400px"
	 height="400px" viewBox="0 0 400 400" enable-background="new 0 0 400 400" xml:space="preserve">
<g id="BK" display="none">
	<rect x="-4600" y="-2080" display="inline" fill="#FFFFFF" width="5100" height="4060"/>
</g>
<g id="Comp">
	<g id="_x33_1">
		<path fill="#2C001E" d="M199.993-0.002C89.531-0.002,0,89.533,0,199.995s89.535,200.007,199.993,200.007S400,310.456,400,199.995
			S310.451-0.002,199.993-0.002z M200.049,162.484c5.948,0,11.596,0.854,16.859,2.353V68.959c0-5.842,3.013-11.271,7.973-14.365
			c4.96-3.09,11.158-3.404,16.408-0.833l51.082,25.051c8.393,4.117,11.86,14.259,7.743,22.652
			c-4.113,8.396-14.256,11.86-22.652,7.747l-26.702-13.095v107.558c0.014,0.377,0.071,0.744,0.071,1.129
			c0,23.731-22.31,42.319-50.786,42.319c-28.476,0-50.786-18.591-50.786-42.319C149.264,181.072,171.573,162.484,200.049,162.484z
			 M149.461,264.052c13.49,13.78,31.545,21.484,50.832,21.682c19.332,0.19,37.497-7.123,51.28-20.613l14.436,14.739
			c-17.48,17.124-40.506,26.515-64.932,26.515c-0.332,0-0.663-0.004-0.998-0.007c-24.8-0.258-48.009-10.164-65.359-27.88
			L149.461,264.052z M201.094,357.954c-0.522,0-1.037-0.004-1.563-0.007c-38.576-0.409-74.683-15.811-101.667-43.381l14.743-14.436
			c23.132,23.629,54.081,36.833,87.143,37.183c33.108,0.42,64.283-12.203,87.905-35.338l14.436,14.739
			C274.902,343.342,239.084,357.954,201.094,357.954z"/>
	</g>
</g>
</svg>
