<?xml version="1.0" encoding="utf-8"?>
<!-- Generator: Adobe Illustrator 17.0.2, SVG Export Plug-In . SVG Version: 6.00 Build 0)  -->
<!DOCTYPE svg PUBLIC "-//W3C//DTD SVG 1.1//EN" "http://www.w3.org/Graphics/SVG/1.1/DTD/svg11.dtd">
<svg version="1.1" xmlns="http://www.w3.org/2000/svg" xmlns:xlink="http://www.w3.org/1999/xlink" x="0px" y="0px" width="400px"
	 height="400px" viewBox="0 0 400 400" enable-background="new 0 0 400 400" xml:space="preserve">
<g id="BK" display="none">
	<rect x="-2100" y="-3580" display="inline" fill="#FFFFFF" width="5100" height="4060"/>
</g>
<g id="Comp">
	<g id="_x36_">
		<path fill="#2C001E" d="M200.007,0C89.729,0,0,89.718,0,199.993C0,310.275,89.732,400,200.007,400
			C310.289,400,400,310.275,400,199.993C400.004,89.718,310.289,0,200.007,0z M200.007,324.993
			c-64.615,0-117.951-49.283-124.365-112.236l-0.018-0.131H38.802c-5.052,0-9.61-3.044-11.546-7.715
			c-1.944-4.671-0.868-10.051,2.713-13.628l61.182-61.182c4.89-4.882,12.795-4.882,17.685,0l60.579,60.575
			c2.639,2.297,4.307,5.683,4.307,9.451c0,6.9-5.592,12.495-12.499,12.495c-0.011,0-0.025,0.004-0.042,0H126.09l-0.018,0.004
			c6.032,35.355,36.89,62.367,73.942,62.367c41.36,0,75-33.651,75-75.007c0-41.349-33.641-74.986-75-74.986
			c-13.801,0-24.998-11.197-24.998-24.994c0-13.808,11.197-24.998,24.998-24.998c68.922,0,125.003,56.063,125.003,124.982
			C325.01,268.915,268.929,324.993,200.007,324.993z"/>
	</g>
</g>
</svg>
