<?xml version="1.0" encoding="iso-8859-1"?>
<!-- Generator: Adobe Illustrator 17.0.2, SVG Export Plug-In . SVG Version: 6.00 Build 0)  -->
<!DOCTYPE svg PUBLIC "-//W3C//DTD SVG 1.1//EN" "http://www.w3.org/Graphics/SVG/1.1/DTD/svg11.dtd">
<svg version="1.1" xmlns="http://www.w3.org/2000/svg" xmlns:xlink="http://www.w3.org/1999/xlink" x="0px" y="0px" width="400px"
	 height="400px" viewBox="0 0 400 400" style="enable-background:new 0 0 400 400;" xml:space="preserve">
<g id="BK" style="display:none;">
	<rect x="-3600" y="-3080" style="display:inline;fill:#FFFFFF;" width="5100" height="4060"/>
</g>
<g id="Comp">
	<g id="_x31_4">
		<path style="fill:#888888;" d="M199.914,0C118.555,0,48.44,48.864,17.23,118.756h87.726c-3.39,3.962-6.544,8.132-9.426,12.499
			H12.093c-2.97,8.096-5.38,16.454-7.295,24.995h78.007c-1.524,4.075-2.854,8.241-3.951,12.503H2.378
			c-1.288,8.177-2.036,16.528-2.297,25.002h74.998c-0.102,2.071-0.155,4.152-0.155,6.244c0,2.099,0.056,4.184,0.155,6.255H0.078
			c0.261,8.47,1.012,16.824,2.3,24.998h76.483c1.097,4.262,2.427,8.428,3.951,12.503H4.801c1.916,8.544,4.329,16.905,7.299,25.002
			h83.44c2.882,4.367,6.04,8.541,9.433,12.503H17.24C48.451,351.151,118.562,400,199.917,400
			c110.283,0,200.005-89.723,200.005-200.002S310.2,0,199.914,0z M181.184,112.586c0-10.354,8.396-18.75,18.75-18.75
			c10.358,0,18.75,8.396,18.75,18.75v87.874c0,10.354-8.396,18.747-18.75,18.747c-10.354,0-18.75-8.396-18.75-18.747V112.586z
			 M266.413,266.43c-17.713,17.713-41.251,27.457-66.291,27.457c-0.004,0-0.004,0-0.007,0c-25.044,0-48.585-9.754-66.291-27.464
			c-35.155-35.155-36.749-91.702-3.634-128.73c6.904-7.722,18.761-8.382,26.473-1.478c7.719,6.904,8.382,18.757,1.478,26.476
			c-19.858,22.211-18.898,56.127,2.198,77.217c10.626,10.629,24.751,16.482,39.776,16.482c15.025,0,29.15-5.849,39.772-16.471
			c21.019-21.022,22.038-54.878,2.328-77.079c-6.872-7.747-6.17-19.6,1.57-26.473c7.744-6.883,19.597-6.174,26.473,1.57
			C303.13,174.958,301.44,231.396,266.413,266.43z"/>
	</g>
</g>
</svg>
