<?xml version="1.0" encoding="utf-8"?>
<!-- Generator: Adobe Illustrator 17.0.2, SVG Export Plug-In . SVG Version: 6.00 Build 0)  -->
<!DOCTYPE svg PUBLIC "-//W3C//DTD SVG 1.1//EN" "http://www.w3.org/Graphics/SVG/1.1/DTD/svg11.dtd">
<svg version="1.1" xmlns="http://www.w3.org/2000/svg" xmlns:xlink="http://www.w3.org/1999/xlink" x="0px" y="0px" width="400px"
	 height="400px" viewBox="0 0 400 400" enable-background="new 0 0 400 400" xml:space="preserve">
<g id="BK" display="none">
	<rect x="-4600" y="-3580" display="inline" fill="#FFFFFF" width="5100" height="4060"/>
</g>
<g id="Comp">
	<g id="_x31_">
		<path fill="#2C001E" d="M341.421,58.579C303.649,20.803,253.427,0,200.005,0C146.587,0,96.362,20.803,58.59,58.579
			C20.811,96.355,0,146.577,0,200.002c0,53.422,20.807,103.647,58.586,141.419C96.362,379.197,146.587,400,200.005,400
			s103.643-20.8,141.416-58.576C379.197,303.649,400,253.423,400,200.002C400.004,146.58,379.197,96.355,341.421,58.579z
			 M187.556,322.053c-29.288-29.288-76.772-29.288-106.063,0.004V209.555c29.291-29.288,76.776-29.288,106.063,0V322.053z
			 M187.556,184.582c-29.288-29.291-76.772-29.291-106.063,0V72.08c29.291-29.291,76.776-29.291,106.063,0V184.582z
			 M318.603,334.457c-29.288,29.291-76.772,29.291-106.06,0V221.955c29.291,29.291,76.776,29.291,106.06,0.004V334.457z
			 M318.603,196.982c-29.288,29.288-76.772,29.288-106.06,0V84.484c29.291,29.288,76.776,29.288,106.06,0V196.982z"/>
	</g>
</g>
</svg>
