<svg xmlns="http://www.w3.org/2000/svg" width="400" height="400" viewBox="0 0 400 400"><g><path fill="#5E2750" d="M337.25 300.323h35.663C338.23 359.867 273.737 400 200 400c-73.708 0-138.18-40.105-172.874-99.61h72.67c10.355 0 18.752-8.396 18.752-18.75s-8.4-18.748-18.75-18.748H10.184c-1.813-5.46-3.39-11.02-4.742-16.68h94.354c10.354 0 18.75-8.396 18.75-18.747 0-10.36-8.4-18.747-18.75-18.747H.222c-.13-2.893-.222-5.8-.222-8.72 0-2.668.092-5.318.205-7.96H99.8c10.355 0 18.752-8.396 18.752-18.75s-8.4-18.748-18.75-18.748H5.27c1.322-5.66 2.864-11.226 4.656-16.683h89.87c10.354 0 18.75-8.396 18.75-18.754 0-10.35-8.4-18.747-18.75-18.747h-73.1C61.29 40.436 125.99 0 200 0c74.008 0 138.696 40.43 173.294 100.33H337.22l.16.025H168.528c-10.358 0-18.75 8.4-18.75 18.747 0 10.36 8.395 18.754 18.75 18.754h90.66c-4.142 5.16-7.783 10.742-10.848 16.673v.01h-79.812c-10.358 0-18.75 8.396-18.75 18.747 0 10.358 8.395 18.75 18.75 18.75h69.03c-.222 2.728-.342 5.494-.342 8.288.007 2.833.123 5.627.36 8.393h-69.049c-10.358 0-18.75 8.39-18.75 18.747 0 10.354 8.395 18.747 18.75 18.747h79.854v-.01c3.073 5.936 6.728 11.52 10.887 16.686h-90.742c-10.358 0-18.75 8.396-18.75 18.747 0 10.358 8.395 18.75 18.75 18.75h168.856l-.135-.062zm48.52-122.26c-7.293 7.353-19.168 7.388-26.513.093-5.895-5.86-13.72-9.084-22.032-9.084-17.23 0-31.254 14.02-31.254 31.243 0 10.358-8.395 18.754-18.746 18.754-10.358 0-18.75-8.397-18.75-18.755 0-37.91 30.84-68.745 68.754-68.745 18.282 0 35.49 7.098 48.456 19.982 7.35 7.295 7.384 19.166.085 26.512zm-86.012 22.25c0-6.903-5.602-12.498-12.5-12.498-6.903 0-12.502 5.595-12.502 12.5 0 6.907 5.6 12.495 12.503 12.495 6.896 0 12.498-5.592 12.498-12.496zM109.834 118.67c0-5.18-4.195-9.374-9.374-9.374-5.182 0-9.374 4.195-9.374 9.374 0 5.175 4.19 9.374 9.374 9.374 5.176 0 9.374-4.2 9.374-9.374m0 54.04c0-5.18-4.195-9.374-9.374-9.374-5.182 0-9.374 4.195-9.374 9.374s4.19 9.374 9.374 9.374c5.176 0 9.374-4.198 9.374-9.374m0 54.037c0-5.182-4.195-9.374-9.374-9.374-5.182 0-9.374 4.192-9.374 9.375 0 5.18 4.19 9.37 9.374 9.37 5.176.004 9.374-4.19 9.374-9.37m0 54.04c0-5.18-4.195-9.374-9.374-9.374-5.182 0-9.374 4.196-9.374 9.375 0 5.182 4.19 9.374 9.374 9.374 5.176 0 9.374-4.192 9.374-9.375"/></g></svg>