<?xml version="1.0" encoding="utf-8"?>
<!-- Generator: Adobe Illustrator 17.0.2, SVG Export Plug-In . SVG Version: 6.00 Build 0)  -->
<!DOCTYPE svg PUBLIC "-//W3C//DTD SVG 1.1//EN" "http://www.w3.org/Graphics/SVG/1.1/DTD/svg11.dtd">
<svg version="1.1" xmlns="http://www.w3.org/2000/svg" xmlns:xlink="http://www.w3.org/1999/xlink" x="0px" y="0px" width="400px"
	 height="400px" viewBox="0 0 400 400" enable-background="new 0 0 400 400" xml:space="preserve">
<g id="BK" display="none">
	<rect x="-3600" y="-1580" display="inline" fill="#FFFFFF" width="5100" height="4060"/>
</g>
<g id="Comp">
	<g id="_x34_3">
		<path fill="#5E2750" d="M200.002,400.004C89.719,400.004,0,310.281,0,200.005C0,89.719,89.723-0.004,200.002-0.004
			S400,89.719,400,200.005C400,310.281,310.281,400.004,200.002,400.004L200.002,400.004z M200.002,99.996
			c-55.14,0-100.003,44.863-100.003,100.006c0,55.14,44.863,99.999,100.003,99.999c55.136,0,99.996-44.86,99.996-99.999
			C299.997,144.859,255.138,99.996,200.002,99.996L200.002,99.996z M168.188,218.978c10.354,17.932,33.288,24.074,51.224,13.72
			c17.935-10.347,24.081-33.288,13.727-51.224c-10.361-17.939-33.292-24.081-51.224-13.727
			C163.979,178.101,157.83,201.035,168.188,218.978z"/>
	</g>
</g>
</svg>
