<svg xmlns="http://www.w3.org/2000/svg" width="400" height="400" viewBox="0 0 400 400"><g><path fill="#DD4814" d="M200.002-.004C89.54-.004 0 89.553 0 200.01c0 110.444 89.543 199.994 200.002 199.994S400 310.454 400 200.01C400.004 89.552 310.464-.005 200.002-.005zm76.92 320.932c-2.907 1.436-6.008 2.117-9.06 2.117-7.57 0-14.837-4.202-18.42-11.437l-47.108-95.526-53.08 89.91h43.71c7.558 0 13.678 6.117 13.678 13.677 0 7.556-6.12 13.676-13.677 13.676h-67.663c-4.907 0-9.44-2.632-11.875-6.904-2.434-4.258-2.388-9.493.092-13.723l74.355-125.972-44.613-90.463c-5.006-10.174-.826-22.462 9.345-27.467 10.153-5.02 22.45-.84 27.47 9.324l106.167 215.295c5.022 10.183.842 22.485-9.322 27.49z"/></g></svg>