<svg xmlns="http://www.w3.org/2000/svg" width="400" height="400" viewBox="0 0 400 400"><g><path fill="#5E2750" d="M200.002 399.998c-53.422 0-103.647-20.803-141.423-58.58C20.802 303.644 0 253.42 0 199.997 0 146.578 20.803 96.356 58.58 58.58S146.58.002 200 .002c53.418 0 103.643 20.8 141.42 58.576S400 146.582 400 200.004s-20.803 103.65-58.58 141.423c-37.775 37.768-88 58.57-141.418 58.57zm0-350c-40.065 0-77.735 15.603-106.07 43.935-28.332 28.332-43.935 65.998-43.935 106.06 0 40.065 15.603 77.735 43.935 106.063 28.335 28.332 66.002 43.94 106.07 43.94 40.062 0 77.732-15.604 106.06-43.933 28.33-28.328 43.938-66 43.938-106.067s-15.607-77.74-43.94-106.07C277.738 65.6 240.068 49.998 200.003 49.998zM235.174 200.2l35.352-35.355c9.765-9.765 9.765-25.59 0-35.352-9.76-9.76-25.594-9.76-35.352 0l-35.356 35.352-35.352-35.352c-9.76-9.76-25.594-9.76-35.356 0-9.765 9.765-9.765 25.59 0 35.352l35.356 35.356-35.36 35.36c-9.764 9.765-9.764 25.59 0 35.352 4.88 4.882 11.28 7.324 17.68 7.324 6.395 0 12.794-2.44 17.677-7.324l35.36-35.36 35.355 35.353c4.88 4.882 11.278 7.324 17.678 7.324s12.795-2.442 17.678-7.325c9.765-9.765 9.765-25.59 0-35.352l-35.36-35.352z"/></g></svg>