<svg xmlns="http://www.w3.org/2000/svg" width="400" height="400" viewBox="0 0 400 400"><g><path fill="#5E2750" d="M200.002-.004C89.72-.004 0 89.72 0 199.998 0 310.28 89.723 400.003 200.002 400.003c35.098 0 69.685-9.275 100.017-26.83 7.718-4.465 12.47-12.71 12.47-21.632 0 0 0-51.456.004-51.456H299.85c-6.9 0-12.5-5.595-12.5-12.503 0-6.903 5.6-12.498 12.5-12.498h12.64v-50.02H375c13.345 0 24.253-10.468 24.958-23.637.028-.48.042-.956.042-1.43 0-110.276-89.72-200-199.998-200zm87.32 200.503c-34.463 0-62.502-28.036-62.502-62.5 0-14.062 4.66-27.05 12.534-37.5h-112.77c-20.68 0-37.504 16.823-37.504 37.507 0 20.67 16.824 37.49 37.504 37.49V200.5c-34.47 0-62.51-28.033-62.51-62.493 0-34.47 28.04-62.51 62.51-62.51h162.738c34.463 0 62.5 28.04 62.5 62.503s-28.037 62.5-62.5 62.5zm0-100c-20.676 0-37.504 16.824-37.504 37.5s16.828 37.502 37.504 37.502c20.673 0 37.497-16.824 37.497-37.5S307.997 100.5 287.32 100.5zm.497 49.365c-6.908 0-12.507-5.595-12.507-12.5s5.6-12.498 12.506-12.498c6.896 0 12.498 5.595 12.498 12.5s-5.602 12.498-12.5 12.498z"/></g></svg>