<svg xmlns="http://www.w3.org/2000/svg" width="400" height="400" viewBox="0 0 400 400"><g><path fill="#DD4814" d="M318.995 39.335H81.015C31.892 75.813 0 134.25 0 199.998 0 310.274 89.74 400 200.012 400S400 310.274 400 199.998c0-65.754-31.88-124.19-81.005-160.663zM26.963 200.65c-4.466-7.725-4.466-17.24 0-24.962 20.066-34.654 57.36-56.177 97.332-56.177 28.32 0 55.31 10.81 75.76 29.433l-.067.08c20.46-18.643 47.46-29.47 75.802-29.47 13.758 0 24.913 11.162 24.913 24.913 0 13.762-11.155 24.917-24.913 24.917-16.97 0-33.06 6.97-44.704 18.83 11.645 11.865 27.736 18.84 44.704 18.84 13.758 0 24.913 11.16 24.913 24.912 0 13.758-11.155 24.913-24.913 24.913-28.342 0-55.32-10.81-75.767-29.457v.008c-20.46 18.602-47.414 29.4-75.728 29.4-39.984.014-77.266-21.52-97.332-56.177zm284.655 118.856c-10.033 17.322-28.674 28.092-48.663 28.092-14.154 0-27.637-5.394-37.867-14.697l.046-.048c-10.23 9.342-23.742 14.76-37.92 14.76-6.88 0-12.47-5.567-12.47-12.45 0-6.876 5.59-12.457 12.47-12.457 8.474 0 16.524-3.478 22.342-9.42-5.82-5.933-13.868-9.41-22.342-9.41-6.88 0-12.47-5.582-12.47-12.458 0-6.883 5.59-12.464 12.47-12.464 14.196 0 27.725 5.443 37.952 14.8l-.085-.11c10.228-9.31 23.7-14.704 37.876-14.704 19.99 0 38.63 10.755 48.663 28.084 2.224 3.864 2.224 8.626-.002 12.482zm-17.674-12.38c0 6.905-5.6 12.5-12.5 12.5-6.903 0-12.502-5.595-12.502-12.5 0-6.91 5.6-12.505 12.503-12.505 6.9 0 12.5 5.596 12.5 12.507zM112.31 175.894c0 13.8-11.19 24.998-25 24.998-13.802 0-24.995-11.196-24.995-24.997 0-13.808 11.194-25.002 24.994-25.002 13.815 0 25 11.195 25 25.003z"/></g></svg>