<?xml version="1.0" encoding="utf-8"?>
<!-- Generator: Adobe Illustrator 17.0.2, SVG Export Plug-In . SVG Version: 6.00 Build 0)  -->
<!DOCTYPE svg PUBLIC "-//W3C//DTD SVG 1.1//EN" "http://www.w3.org/Graphics/SVG/1.1/DTD/svg11.dtd">
<svg version="1.1" xmlns="http://www.w3.org/2000/svg" xmlns:xlink="http://www.w3.org/1999/xlink" x="0px" y="0px" width="400px"
	 height="400px" viewBox="0 0 400 400" enable-background="new 0 0 400 400" xml:space="preserve">
<g id="BK" display="none">
	<rect x="-4600" y="-580" display="inline" fill="#FFFFFF" width="5100" height="4060"/>
</g>
<g id="Comp">
	<g id="_x36_1">
		<path fill="#5E2750" d="M237.25,228.286c5.179,0,9.377,4.198,9.377,9.373c0,5.182-4.198,9.377-9.377,9.377
			c-5.175,0-9.373-4.195-9.373-9.377C227.877,232.488,232.075,228.286,237.25,228.286z M289.921,199.989h-78.766l-113.48-74.984
			l4.703-11.338l85.476,17.551l0.254-64.803l43.551,50.526l70.793-76.946l10.516,6.241l-34.411,101.429l103.687-29.983
			C350.794,48.374,280.929,0.049,199.993,0.049C89.716,0.049,0,89.769,0,200.049c0,60.146,26.688,114.175,68.846,150.868v-38.185
			c0-10.358,8.393-18.747,18.75-18.747c10.354,0,18.75,8.393,18.75,18.747v63.995c4.085,2.173,8.252,4.212,12.499,6.103v-70.098
			c0-10.358,8.393-18.747,18.747-18.747c10.358,0,18.75,8.393,18.75,18.747v82.513c4.124,0.921,8.29,1.718,12.503,2.381v-84.89
			c0-10.358,8.396-18.747,18.75-18.747s18.747,8.393,18.747,18.747v87.018c0,0.067-0.007,0.127-0.007,0.198
			c4.198-0.134,8.372-0.395,12.506-0.787V237.73c0-10.354,8.393-18.747,18.747-18.747c10.354,0,18.75,8.396,18.75,18.747v154.233
			C339.275,367.572,400,290.775,400,200.053c0-23.054-3.934-45.202-11.144-65.829L289.921,199.989z"/>
	</g>
</g>
</svg>
