<?xml version="1.0" encoding="utf-8"?>
<!-- Generator: Adobe Illustrator 17.0.2, SVG Export Plug-In . SVG Version: 6.00 Build 0)  -->
<!DOCTYPE svg PUBLIC "-//W3C//DTD SVG 1.1//EN" "http://www.w3.org/Graphics/SVG/1.1/DTD/svg11.dtd">
<svg version="1.1" xmlns="http://www.w3.org/2000/svg" xmlns:xlink="http://www.w3.org/1999/xlink" x="0px" y="0px" width="400px"
	 height="400px" viewBox="0 0 400 400" enable-background="new 0 0 400 400" xml:space="preserve">
<g id="BK" display="none">
	<rect x="-600" y="-80" display="inline" fill="#FFFFFF" width="5100" height="4060"/>
</g>
<g id="Comp">
	<g id="_x37_9">
		<path fill="#2C001E" d="M199.995,400C89.718,400,0,310.279,0,199.998C0,89.721,89.718,0,199.995,0
			C310.275,0,400,89.721,400,199.998C400,310.279,310.275,400,199.995,400L199.995,400z M199.995,49.999
			c-82.708,0-149.996,67.292-149.996,150c0,82.711,67.285,150,149.996,150c82.715,0,150.003-67.288,150.003-150
			C349.998,117.29,282.71,49.999,199.995,49.999L199.995,49.999z M274.716,175.015h-49.808v-49.999
			c0-13.808-11.194-25.001-25.001-25.001s-25.001,11.194-25.001,25.001v49.999h-50.189c-13.808,0-25.001,11.194-25.001,25.001
			c0,13.811,11.194,25.001,25.001,25.001h50.189v49.995c0,13.808,11.194,25.001,25.001,25.001c13.811,0,25.001-11.194,25.001-25.001
			v-49.995h49.808c13.808,0,25.001-11.194,25.001-25.001C299.717,186.208,288.523,175.015,274.716,175.015z"/>
	</g>
</g>
</svg>
