<?xml version="1.0" encoding="utf-8"?>
<!-- Generator: Adobe Illustrator 17.0.2, SVG Export Plug-In . SVG Version: 6.00 Build 0)  -->
<!DOCTYPE svg PUBLIC "-//W3C//DTD SVG 1.1//EN" "http://www.w3.org/Graphics/SVG/1.1/DTD/svg11.dtd">
<svg version="1.1" xmlns="http://www.w3.org/2000/svg" xmlns:xlink="http://www.w3.org/1999/xlink" x="0px" y="0px" width="400px"
	 height="400px" viewBox="0 0 400 400" enable-background="new 0 0 400 400" xml:space="preserve">
<g id="BK" display="none">
	<rect x="-4100" y="-80" display="inline" fill="#FFFFFF" width="5100" height="4060"/>
</g>
<g id="Comp">
	<g id="_x37_2">
		<g>
			<path fill="#DD4814" d="M156.326,316.11c-2.745,0-5.644-0.176-8.7-0.533c-3.052-0.36-6.004-0.84-8.851-1.45
				c-2.854-0.614-5.443-1.27-7.786-1.983c-2.342-0.713-4.173-1.379-5.493-1.983l4.427-18.927c2.642,1.118,6.025,2.314,10.149,3.588
				c4.12,1.27,9.229,1.909,15.339,1.909c7.017,0,12.16-1.319,15.413-3.969c3.256-2.646,4.886-6.209,4.886-10.682
				c0-2.748-0.586-5.066-1.753-6.946c-1.175-1.88-2.776-3.411-4.808-4.579c-2.036-1.168-4.452-1.983-7.253-2.441
				c-2.794-0.459-5.775-0.688-8.925-0.688h-8.851v-18.313h10.072c2.237,0,4.396-0.205,6.484-0.607
				c2.085-0.406,3.944-1.097,5.57-2.064c1.63-0.967,2.928-2.286,3.895-3.965c0.963-1.683,1.45-3.792,1.45-6.336
				c0-1.937-0.409-3.609-1.224-5.038c-0.815-1.429-1.856-2.593-3.126-3.514c-1.273-0.914-2.752-1.602-4.431-2.057
				c-1.683-0.459-3.383-0.684-5.112-0.684c-4.374,0-8.421,0.663-12.128,1.983c-3.722,1.326-7.098,2.953-10.149,4.886l-8.093-16.637
				c1.626-1.016,3.538-2.088,5.722-3.207c2.187-1.118,4.611-2.134,7.253-3.048c2.642-0.917,5.472-1.679,8.467-2.29
				c3.006-0.61,6.184-0.917,9.543-0.917c6.202,0,11.575,0.741,16.097,2.208c4.526,1.478,8.269,3.56,11.222,6.251
				c2.946,2.692,5.136,5.838,6.558,9.447c1.425,3.602,2.138,7.546,2.138,11.811c0,4.166-1.171,8.206-3.514,12.118
				c-2.339,3.909-5.493,6.883-9.458,8.915c5.493,2.24,9.737,5.581,12.742,10.012c2.999,4.431,4.498,9.754,4.498,15.963
				c0,4.897-0.811,9.401-2.438,13.529c-1.63,4.124-4.173,7.694-7.631,10.696c-3.461,3.006-7.863,5.352-13.201,7.027
				C169.989,315.266,163.653,316.11,156.326,316.11z"/>
			<path fill="#DD4814" d="M211.275,230.032c2.953-1.224,6.029-2.618,9.232-4.198c3.21-1.577,6.336-3.309,9.387-5.189
				c3.051-1.88,5.973-3.866,8.774-5.955c2.801-2.085,5.316-4.297,7.556-6.639h15.871v105.77h-22.737v-76.165
				c-3.048,2.039-6.463,3.895-10.227,5.574c-3.764,1.679-7.426,3.129-10.985,4.35L211.275,230.032z"/>
		</g>
		<path fill="#DD4814" d="M200,0C89.542,0,0,89.542,0,200.004c0,62.092,28.296,117.577,72.7,154.262V101.561h46.348v23.096h-11.747
			v23.149h46.291v-23.149H142.19v-23.096h46.291v23.096h-11.659v23.149h46.295v-23.149h-11.486v-23.096h46.284v23.096H246.26v23.149
			h46.291v-23.149h-11.49v-23.096h46.235v252.705C371.697,317.584,400,262.096,400,200.004C400.004,89.542,310.458,0,200,0z"/>
	</g>
</g>
</svg>
