<?xml version="1.0" encoding="utf-8"?>
<!-- Generator: Adobe Illustrator 17.0.2, SVG Export Plug-In . SVG Version: 6.00 Build 0)  -->
<!DOCTYPE svg PUBLIC "-//W3C//DTD SVG 1.1//EN" "http://www.w3.org/Graphics/SVG/1.1/DTD/svg11.dtd">
<svg version="1.1" xmlns="http://www.w3.org/2000/svg" xmlns:xlink="http://www.w3.org/1999/xlink" x="0px" y="0px" width="400px"
	 height="400px" viewBox="0 0 400 400" enable-background="new 0 0 400 400" xml:space="preserve">
<g id="BK" display="none">
	<rect x="-100" y="-3580" display="inline" fill="#FFFFFF" width="5100" height="4060"/>
</g>
<g id="Comp">
	<g id="_x31_0">
		<path fill="#2C001E" d="M109.793,198.07c0,6.907-5.599,12.499-12.499,12.499c-6.911,0-12.506-5.595-12.506-12.499
			c0-6.904,5.595-12.499,12.506-12.499C104.195,185.571,109.793,191.166,109.793,198.07"/>
		<path fill="#2C001E" d="M87.617,34.541v65.836v-0.004c-28.614,5.722-50.176,30.992-50.176,61.3l-0.116,75.848
			c0,34.516,27.976,62.485,62.489,62.485s62.51-27.969,62.51-62.485l0.116-75.848c0-30.177-21.386-55.355-49.817-61.218v0.004
			V20.105h-0.123C138.937,7.225,168.62,0,200.004,0c73.986,0,138.584,40.175,173.188,99.898l-0.194,0.081H206.251
			c-10.361,0-18.75,8.396-18.75,18.75s8.389,18.75,18.75,18.75h90.694l-0.025-0.014c-4.145,5.165-7.789,10.753-10.852,16.687v0.011
			h-79.817c-10.361,0-18.75,8.396-18.75,18.75c0,10.354,8.389,18.743,18.75,18.743h69.033h-0.004
			c-0.222,2.738-0.342,5.503-0.342,8.297c0,2.819,0.116,5.616,0.349,8.386h-69.036c-10.361,0-18.75,8.396-18.75,18.747
			c0,10.361,8.389,18.75,18.75,18.75h79.863v0.011c3.076,5.93,6.728,11.515,10.876,16.673v-0.004h-90.739
			c-10.361,0-18.75,8.396-18.75,18.75s8.389,18.747,18.75,18.747h166.856l0.092,0.06C338.605,359.814,273.996,400,200,400
			C89.544,400,0,310.453,0,199.993C0,131.204,34.732,70.529,87.607,34.534h0.011V34.541z"/>
	</g>
</g>
</svg>
