<?xml version="1.0" encoding="utf-8"?>
<!-- Generator: Adobe Illustrator 17.0.2, SVG Export Plug-In . SVG Version: 6.00 Build 0)  -->
<!DOCTYPE svg PUBLIC "-//W3C//DTD SVG 1.1//EN" "http://www.w3.org/Graphics/SVG/1.1/DTD/svg11.dtd">
<svg version="1.1" xmlns="http://www.w3.org/2000/svg" xmlns:xlink="http://www.w3.org/1999/xlink" x="0px" y="0px" width="400px"
	 height="400px" viewBox="0 0 400 400" enable-background="new 0 0 400 400" xml:space="preserve">
<g id="BK" display="none">
	<rect x="-1600" y="-2080" display="inline" fill="#FFFFFF" width="5100" height="4060"/>
</g>
<g id="Comp">
	<g id="_x33_7">
		<path fill="#2C001E" d="M200.002,0C89.543,0,0,89.543,0,200.002C0,310.457,89.543,400,200.002,400S400,310.457,400,200.002
			C400.004,89.539,310.461,0,200.002,0z M290.003,322.727c0,9.035-7.331,16.366-16.365,16.366H126.366
			c-9.038,0-16.365-7.331-16.365-16.366V77.269c0-9.038,7.327-16.362,16.365-16.362h147.272c9.035,0,16.366,7.324,16.366,16.362
			L290.003,322.727L290.003,322.727z M274.142,85.535v98.186c0,4.519-3.658,8.181-8.177,8.181h-130.91
			c-4.516,0-8.181-3.662-8.181-8.181V85.535c0-4.519,3.665-8.181,8.181-8.181h130.91C270.484,77.351,274.142,81.016,274.142,85.535z
			 M200.175,216.646c-27.065,0-49.089,22.021-49.089,49.089s22.024,49.089,49.089,49.089c27.069,0,49.093-22.021,49.093-49.089
			S227.243,216.646,200.175,216.646z M200.175,282.097c-9.021,0-16.362-7.334-16.362-16.362c0-9.021,7.341-16.362,16.362-16.362
			s16.366,7.341,16.366,16.362C216.54,274.763,209.195,282.097,200.175,282.097z"/>
	</g>
</g>
</svg>
