<?xml version="1.0" encoding="utf-8"?>
<!-- Generator: Adobe Illustrator 17.0.2, SVG Export Plug-In . SVG Version: 6.00 Build 0)  -->
<!DOCTYPE svg PUBLIC "-//W3C//DTD SVG 1.1//EN" "http://www.w3.org/Graphics/SVG/1.1/DTD/svg11.dtd">
<svg version="1.1" xmlns="http://www.w3.org/2000/svg" xmlns:xlink="http://www.w3.org/1999/xlink" x="0px" y="0px" width="400px"
	 height="400px" viewBox="0 0 400 400" enable-background="new 0 0 400 400" xml:space="preserve">
<g id="BK" display="none">
	<rect x="-4100" y="-580" display="inline" fill="#FFFFFF" width="5100" height="4060"/>
</g>
<g id="Comp">
	<g id="_x36_2">
		<path fill="#5E2750" d="M200.004,0C89.543,0,0,89.543,0,200.004S89.547,400,200.004,400S400,310.46,400,200.004
			C400.004,89.543,310.464,0,200.004,0z M200,95.625c24.166,0,43.749,19.59,43.749,43.745c0,24.173-19.587,43.756-43.749,43.756
			c-24.159,0-43.749-19.587-43.749-43.756C156.251,115.212,175.845,95.625,200,95.625z M287.511,304.378H112.503
			c-6.9,0-12.503-5.602-12.503-12.499c0-55.137,44.863-100.007,100.004-100.007s100.004,44.87,100.004,100.007
			C300.003,298.776,294.408,304.378,287.511,304.378z M235.003,256.826c0,19.297-15.702,35-35,35c-19.301,0-35.003-15.702-35.003-35
			c0-18.108,13.819-33.042,31.465-34.823v-10.319c0-1.408,0.85-2.688,2.159-3.235c1.305-0.536,2.808-0.24,3.814,0.766l17.128,17.128
			c1.372,1.369,1.372,3.588,0,4.95l-17.128,17.128c-0.667,0.67-1.563,1.027-2.477,1.027c-0.452,0-0.907-0.081-1.337-0.265
			c-1.309-0.54-2.159-1.824-2.159-3.235v-9.804c-9.899,1.69-17.463,10.308-17.463,20.68c0,11.575,9.419,20.994,21.001,20.994
			c11.578,0,20.998-9.419,20.998-20.994c0-3.87,3.136-7.003,6.999-7.003S235.003,252.956,235.003,256.826z"/>
	</g>
</g>
</svg>
