<svg xmlns="http://www.w3.org/2000/svg" width="400" height="400" viewBox="0 0 400 400"><g fill="#772953"><path d="M200.005 327.35c-70.337 0-127.35-56.998-127.35-127.35 0-70.34 57.014-127.346 127.35-127.346 70.338 0 127.35 57.007 127.35 127.345 0 70.352-57.01 127.35-127.35 127.35zM400 200.004C400 310.456 310.457 400 200 400 89.537 400 0 310.454 0 200.003 0 89.54 89.538 0 200 0c110.457 0 200 89.54 200 200.004zM200 48.65c-83.593 0-151.346 67.764-151.346 151.352 0 83.6 67.753 151.344 151.347 151.344 83.598 0 151.35-67.743 151.35-151.344 0-83.587-67.753-151.352-151.35-151.352z"/></g></svg>