<svg xmlns="http://www.w3.org/2000/svg" width="400" height="400" viewBox="0 0 400 400"><g><path fill="#5E2750" d="M400 200c0 53.42-20.8 103.646-58.575 141.42s-88 58.58-141.43 58.58C89.72 400 0 310.278 0 200 0 146.575 20.796 96.354 58.572 58.58 96.342 20.802 146.568 0 199.992 0c45.153 0 87.977 14.905 122.97 42.294v180.65c.003 8.964-3.486 17.392-9.83 23.73-6.338 6.344-14.773 9.836-23.74 9.836-18.508 0-33.568-15.064-33.575-33.574v-107.14c.007-19.65-7.645-38.132-21.54-52.028-13.897-13.892-32.375-21.544-52.03-21.544-40.558 0-73.564 33-73.567 73.568v16.383H92.964c-11.045 0-20 8.953-20 20V243.6h11.907v71.427h87.617V243.6h11.906v-91.427c0-11.044-8.953-19.998-20-19.998H148.68v-16.38c.007-18.513 15.067-33.576 33.574-33.576 8.97 0 17.402 3.49 23.742 9.834 6.34 6.34 9.828 14.767 9.828 23.738v107.15c.007 40.565 33.01 73.567 73.568 73.567 19.653 0 38.135-7.653 52.028-21.545 13.9-13.9 21.548-32.378 21.54-52.024V84.057C386.99 117.683 400 157.83 400 200zm-283.118 59.566H104.98v11.906h11.902v-11.906zm35.528 0h-11.903v11.906h11.903v-11.906z"/></g></svg>