<?xml version="1.0" encoding="iso-8859-1"?>
<!-- Generator: Adobe Illustrator 17.0.2, SVG Export Plug-In . SVG Version: 6.00 Build 0)  -->
<!DOCTYPE svg PUBLIC "-//W3C//DTD SVG 1.1//EN" "http://www.w3.org/Graphics/SVG/1.1/DTD/svg11.dtd">
<svg version="1.1" xmlns="http://www.w3.org/2000/svg" xmlns:xlink="http://www.w3.org/1999/xlink" x="0px" y="0px" width="400px"
	 height="400px" viewBox="0 0 400 400" style="enable-background:new 0 0 400 400;" xml:space="preserve">
<g id="BK" style="display:none;">
	<rect x="-1100" y="-2080" style="display:inline;fill:#FFFFFF;" width="5100" height="4060"/>
</g>
<g id="Comp">
	<g id="_x33_8">
		<path style="fill:#888888;" d="M199.996,0.002C89.715,0.002,0,89.72,0,199.998s89.718,200,199.996,200S400,310.276,400,199.998
			S310.278,0.002,199.996,0.002z M347.909,175.177H224.694v-28.092c32.942-7.412,60.448-29.302,75.473-58.621
			C324.894,110.689,342.19,140.993,347.909,175.177z M174.695,94.476c-14.52-6.459-26.141-18.281-32.321-32.946
			c10.248-4.279,21.078-7.43,32.321-9.349V94.476z M224.694,52.068c11.465,1.909,22.497,5.101,32.935,9.461
			c-6.265,14.877-18.129,26.829-32.935,33.225V52.068z M99.836,88.461c14.93,29.139,42.185,50.938,74.859,58.48v28.236H52.095
			C57.813,140.993,75.11,110.689,99.836,88.461z M52.158,225.172h122.534v27.746c-32.706,7.549-59.986,29.386-74.905,58.575
			C75.177,289.35,57.933,259.194,52.158,225.172z M174.695,347.822c-11.261-1.923-22.109-5.08-32.367-9.37
			c6.163-14.721,17.812-26.589,32.367-33.062V347.822z M224.694,305.112c14.841,6.406,26.726,18.408,32.981,33.337
			c-10.449,4.367-21.502,7.567-32.981,9.479V305.112z M300.217,311.494c-15.014-29.369-42.545-51.297-75.519-58.716v-27.605h123.147
			C342.07,259.194,324.827,289.35,300.217,311.494z"/>
	</g>
</g>
</svg>
