<svg xmlns="http://www.w3.org/2000/svg" width="400" height="400" viewBox="0 0 400 400"><g><path fill="#2C001E" d="M73.68 168.42c0-69.65 56.665-126.315 126.314-126.315 69.656 0 126.32 56.665 126.32 126.314h42.108C368.422 75.552 292.862 0 199.994 0 107.128 0 31.578 75.553 31.578 168.42V232.168h.006C31.904 324.76 107.327 400 199.994 400c92.87 0 168.428-75.56 168.428-168.425v-21.05H73.68v-42.106zm126.314 73.728c17.444 0 31.582 14.14 31.582 31.582 0 13.73-8.782 25.385-21.024 29.732v54.377c0 5.813-4.715 10.524-10.528 10.524S189.5 363.652 189.5 357.84v-54.357c-12.273-4.33-21.082-16-21.082-29.752 0-17.44 14.138-31.582 31.576-31.582z"/></g></svg>