<?xml version="1.0" encoding="utf-8"?>
<!-- Generator: Adobe Illustrator 17.0.2, SVG Export Plug-In . SVG Version: 6.00 Build 0)  -->
<!DOCTYPE svg PUBLIC "-//W3C//DTD SVG 1.1//EN" "http://www.w3.org/Graphics/SVG/1.1/DTD/svg11.dtd">
<svg version="1.1" xmlns="http://www.w3.org/2000/svg" xmlns:xlink="http://www.w3.org/1999/xlink" x="0px" y="0px" width="400px"
	 height="400px" viewBox="0 0 400 400" enable-background="new 0 0 400 400" xml:space="preserve">
<g id="BK" display="none">
	<rect x="-2100" y="-580" display="inline" fill="#FFFFFF" width="5100" height="4060"/>
</g>
<g id="Comp">
	<g id="_x36_6">
		<path fill="#DD4814" d="M200,0C89.718,0,0,89.718,0,199.996S89.718,400,200,400s200-89.725,200-200.004
			C400,89.718,310.282,0,200,0z M293.736,256.127H106.271c-31.066,0-56.25-25.181-56.25-56.24c0-29.901,23.322-54.331,52.761-56.137
			c-13.159-26.391-3.658-58.811,22.232-73.762c25.89-14.944,58.709-6.964,74.99,17.632c16.288-24.592,49.096-32.572,74.993-17.625
			c25.887,14.947,35.384,47.36,22.225,73.759c29.45,1.806,52.761,26.236,52.761,56.137
			C349.983,230.946,324.795,256.127,293.736,256.127z"/>
	</g>
</g>
</svg>
