<svg xmlns="http://www.w3.org/2000/svg" width="400" height="400" viewBox="0 0 400 400"><g><path fill="#DD4814" d="M341.417 58.58C303.65 20.802 253.427 0 200.01 0 146.583 0 96.36 20.807 58.582 58.586 20.807 96.362.003 146.586 0 200.006 0 253.43 20.8 303.65 58.576 341.42c37.775 37.78 88 58.58 141.422 58.58s103.647-20.8 141.423-58.576C379.2 303.652 400 253.427 400 200.002c0-53.422-20.803-103.647-58.583-141.423zM36.594 257.32l13.028-48.627 35.6 35.596-48.628 13.032zm57.295-21.975l-35.353-35.352L208.98 49.548 244.332 84.9 93.89 235.347zM323.9 270.713l-13.44-13.44 17.53-17.534-8.845-8.838-17.523 17.533-8.84-8.84 26.577-26.576-8.843-8.845-26.575 26.578-8.834-8.84 17.523-17.52-8.833-8.84-17.53 17.522-8.84-8.844L284 177.664l-8.833-8.84-26.582 26.574-8.834-8.834 17.527-17.526-8.84-8.84-17.53 17.525-8.835-8.834 26.578-26.586-8.84-8.837-26.583 26.582-13.078-13.078 53.03-53.038L376.927 217.68l-53.026 53.033z"/></g></svg>