<?xml version="1.0" encoding="utf-8"?>
<!-- Generator: Adobe Illustrator 17.0.2, SVG Export Plug-In . SVG Version: 6.00 Build 0)  -->
<!DOCTYPE svg PUBLIC "-//W3C//DTD SVG 1.1//EN" "http://www.w3.org/Graphics/SVG/1.1/DTD/svg11.dtd">
<svg version="1.1" xmlns="http://www.w3.org/2000/svg" xmlns:xlink="http://www.w3.org/1999/xlink" x="0px" y="0px" width="400px"
	 height="400px" viewBox="0 0 400 400" enable-background="new 0 0 400 400" xml:space="preserve">
<g id="BK" display="none">
	<rect x="-3100" y="-580" display="inline" fill="#FFFFFF" width="5100" height="4060"/>
</g>
<g id="Comp">
	<g id="_x36_4">
		<path fill="#5E2750" d="M225.021,299.995h148.124C338.516,359.73,273.873,400,200.009,400
			c-73.875,0-138.522-40.266-173.154-100.005h148.166c10.358,0,18.75-8.393,18.75-18.747s-8.393-18.747-18.75-18.747H84.711
			c4.152-5.165,7.8-10.749,10.876-16.683h79.435c10.358,0,18.75-8.393,18.75-18.747s-8.393-18.747-18.75-18.747h-68.619
			c0.229-2.769,0.377-5.563,0.377-8.393c0-2.794-0.148-5.553-0.37-8.29h68.608c10.358,0,18.75-8.396,18.75-18.75
			c0-10.358-8.393-18.75-18.75-18.75H95.633c-3.069-5.93-6.706-11.518-10.855-16.683h90.24c10.358,0,18.75-8.393,18.75-18.75
			s-8.393-18.75-18.75-18.75H26.88C61.515,40.248,126.148,0,200.009,0c73.854,0,138.479,40.248,173.115,99.959H225.021
			c-10.354,0-18.75,8.393-18.75,18.75s8.4,18.75,18.75,18.75h90.696c-4.149,5.165-7.782,10.753-10.851,16.683h-79.844
			c-10.354,0-18.75,8.396-18.75,18.75c0,10.358,8.4,18.75,18.75,18.75h69.07c-0.226,2.738-0.37,5.496-0.37,8.29
			c0,2.826,0.148,5.62,0.377,8.389h-69.077c-10.354,0-18.75,8.396-18.75,18.747c0,10.358,8.4,18.75,18.75,18.75h79.893
			c3.076,5.93,6.72,11.515,10.873,16.679h-90.766c-10.354,0-18.75,8.396-18.75,18.747
			C206.271,291.599,214.67,299.995,225.021,299.995z M175.681,108.906c-5.179,0-9.373,4.195-9.373,9.377
			c0,5.179,4.195,9.373,9.373,9.373c5.175,0,9.377-4.195,9.377-9.373C185.058,113.104,180.86,108.906,175.681,108.906z
			 M175.681,162.944c-5.179,0-9.373,4.195-9.373,9.377c0,5.175,4.195,9.373,9.373,9.373c5.175,0,9.377-4.198,9.377-9.373
			C185.058,167.139,180.86,162.944,175.681,162.944z M175.681,216.983c-5.179,0-9.373,4.191-9.373,9.373
			c0,5.179,4.195,9.373,9.373,9.373c5.175,0,9.377-4.195,9.377-9.373C185.058,221.174,180.86,216.983,175.681,216.983z
			 M175.681,271.018c-5.179,0-9.373,4.195-9.373,9.373s4.195,9.373,9.373,9.373c5.175,0,9.377-4.195,9.377-9.373
			S180.86,271.018,175.681,271.018z"/>
	</g>
</g>
</svg>
