<svg xmlns="http://www.w3.org/2000/svg" width="400" height="400" viewBox="0 0 400 400"><g><path fill="#2C001E" d="M200.004 0C89.544 0 0 89.543 0 200.004S89.547 400 200.004 400 400 310.46 400 200.004C400.004 89.544 310.464 0 200.004 0zM200 95.625c24.166 0 43.75 19.59 43.75 43.745 0 24.173-19.588 43.756-43.75 43.756-24.16 0-43.75-19.587-43.75-43.756 0-24.158 19.595-43.745 43.75-43.745zm87.51 208.753H112.504c-6.9 0-12.503-5.602-12.503-12.5 0-55.136 44.863-100.006 100.004-100.006s100.004 44.87 100.004 100.007c-.005 6.896-5.6 12.498-12.497 12.498z"/></g></svg>