<svg xmlns="http://www.w3.org/2000/svg" width="400" height="400" viewBox="0 0 400 400"><g><path fill="#DD4814" d="M120.076 281.506l29.98-34.393v34.393h-29.98zM400 199.996v.516c-.24 13.6-11.342 24.55-24.998 24.55h-62.51v41.625c0-.004-24.962-.004-24.962-.004-16.722 0-30.325-13.603-30.325-30.33 0-10.86-8.812-19.67-19.678-19.67-10.866 0-19.67 8.81-19.67 19.67 0 38.426 31.252 71.834 69.673 71.834h24.963v43.346c0 8.922-4.756 17.166-12.47 21.643C269.69 390.723 235.102 400 200.002 400 89.715 400.003 0 310.277 0 199.994 0 89.713 89.72-.002 200.002-.002S400 89.718 400 199.998zM106.31 72.443c0 4.494-5.12 6.967-8.297 8.904-7.85 4.763-16.67 9.437-21.774 16.58-3.007 4.14-4.77 9.254-4.41 15.163h53.163V98.1H97.22v-.09c11.553-7.055 26.89-11.99 26.89-27.685 0-13.056-10.134-19.315-25.04-19.315-16.495 0-26.98 9.7-26.01 26.543H89.64c-.18-7.497 2.198-12.608 9.253-12.608 4.154 0 7.42 1.944 7.42 7.497zm-75.717 92.14h87.225V137.6H30.593v26.98zm87.225 42.51V180.1H30.593v26.99h87.225zm85.5 74.414H186.74V213.08h-35.09L95.565 278.34v33.15h54.494v24.34h36.68v-24.34h16.578v-29.982zm9.13-150.432h-18.203V164.8h-.102c-8.565-14.023-14.566-32.65-33.616-32.65-15.854 0-23.453 12.31-23.453 30.403 0 20.03 11.783 32.763 32.226 31.584v-20.13c-9.095.22-15.304-2.674-15.304-11.236 0-5.04 2.357-8.995 9.095-8.995 5.466 0 8.46 6.202 10.81 10.065 5.79 9.525 11.458 20.228 20.133 26.444 5.038 3.64 11.24 5.78 18.42 5.355v-64.567h-.005zm24.927-74.92h-30.477V25.677h-26.494v30.477H149.92v26.49h30.484v30.484h26.494V82.644h30.477v-26.49zm49.65 81.707c0-6.903-5.594-12.498-12.498-12.498-6.904 0-12.5 5.595-12.5 12.5s5.596 12.498 12.5 12.498 12.5-5.595 12.5-12.5z"/></g></svg>