<svg xmlns="http://www.w3.org/2000/svg" width="400" height="400" viewBox="0 0 400 400"><g><path fill="#2C001E" d="M337.495 345.1V74.99h-49.94v24.948h12.412v24.998h-50.003V99.938h12.59V74.99h-49.998v24.948h12.41v24.998h-50.002V99.938h12.594V74.99h-50v24.948h12.316v24.998H99.87V99.938h12.687V74.99H62.502v270.118C24.032 308.63 0 257.072 0 199.996 0 89.718 89.718 0 199.996 0 310.278 0 400 89.718 400 199.996c-.004 57.07-24.035 108.635-62.505 145.105zm-137.5-32.54c34.464 0 62.5-28.04 62.5-62.5h-25c0 20.675-16.823 37.496-37.5 37.496s-37.5-16.82-37.5-37.497h-25c.003 34.455 28.04 62.5 62.5 62.5z"/></g></svg>