<?xml version="1.0" encoding="utf-8"?>
<!-- Generator: Adobe Illustrator 17.0.2, SVG Export Plug-In . SVG Version: 6.00 Build 0)  -->
<!DOCTYPE svg PUBLIC "-//W3C//DTD SVG 1.1//EN" "http://www.w3.org/Graphics/SVG/1.1/DTD/svg11.dtd">
<svg version="1.1" xmlns="http://www.w3.org/2000/svg" xmlns:xlink="http://www.w3.org/1999/xlink" x="0px" y="0px" width="400px"
	 height="400px" viewBox="0 0 400 400" enable-background="new 0 0 400 400" xml:space="preserve">
<g id="BK" display="none">
	<rect x="-600" y="-580" display="inline" fill="#FFFFFF" width="5100" height="4060"/>
</g>
<g id="Comp">
	<g id="_x36_9">
		<path fill="#2C001E" d="M199.989,0C89.711,0,0,89.722,0,200s89.715,200,199.989,200C310.275,400,400,310.275,400,200
			S310.275,0,199.989,0z M199.996,287.496c-48.249,0-87.499-39.246-87.499-87.499c0-48.249,39.25-87.499,87.499-87.499
			c48.242,0,87.499,39.25,87.499,87.499C287.496,248.249,248.239,287.496,199.996,287.496z M199.996,137.498
			c-34.466,0-62.498,28.039-62.498,62.498c0,34.466,28.035,62.502,62.498,62.502s62.502-28.035,62.502-62.502
			C262.498,165.537,234.459,137.498,199.996,137.498z M199.996,237.497c-20.715,0-37.5-16.785-37.5-37.5
			c0-20.712,16.785-37.5,37.5-37.5c20.712,0,37.5,16.789,37.5,37.5C237.497,220.712,220.712,237.497,199.996,237.497z"/>
	</g>
</g>
</svg>
