<?xml version="1.0" encoding="utf-8"?>
<!-- Generator: Adobe Illustrator 17.0.2, SVG Export Plug-In . SVG Version: 6.00 Build 0)  -->
<!DOCTYPE svg PUBLIC "-//W3C//DTD SVG 1.1//EN" "http://www.w3.org/Graphics/SVG/1.1/DTD/svg11.dtd">
<svg version="1.1" xmlns="http://www.w3.org/2000/svg" xmlns:xlink="http://www.w3.org/1999/xlink" x="0px" y="0px" width="400px"
	 height="400px" viewBox="0 0 400 400" enable-background="new 0 0 400 400" xml:space="preserve">
<g id="BK" display="none">
	<rect x="-2100" y="-1080" display="inline" fill="#FFFFFF" width="5100" height="4060"/>
</g>
<g id="Comp">
	<g id="_x35_6">
		<path fill="#5E2750" d="M235.369,164.532c9.444,9.44,14.644,21.999,14.644,35.356c0,13.356-5.204,25.908-14.644,35.352
			c-9.44,9.444-21.996,14.644-35.348,14.644c-13.356,0-25.912-5.204-35.352-14.644c-9.444-9.447-14.647-21.999-14.647-35.352
			c0-13.353,5.203-25.905,14.651-35.352c9.444-9.447,21.999-14.647,35.352-14.647C213.37,149.888,225.925,155.088,235.369,164.532z
			 M341.418,341.419c-78.109,78.109-204.728,78.109-282.841,0c-78.102-78.116-78.105-204.728,0-282.837
			c78.112-78.105,204.739-78.112,282.841-0.007C419.527,136.691,419.527,263.314,341.418,341.419z M349.878,224.596V174.6h-53.086
			c-2.357-9.074-5.962-17.741-10.767-25.795l37.592-37.599l-35.356-35.352l-37.712,37.712c-8.019-4.717-16.644-8.273-25.661-10.573
			V49.6h-49.999v53.474c-8.985,2.318-17.579,5.877-25.569,10.597l-37.814-37.818l-35.359,35.352l37.776,37.776
			c-4.752,8.001-8.333,16.609-10.668,25.615H49.885v49.996h53.203c2.297,9.077,5.874,17.755,10.615,25.827l-37.564,37.56
			l35.359,35.352l37.444-37.444c8.093,4.826,16.813,8.453,25.94,10.802v52.896h49.999v-52.818
			c9.162-2.335,17.911-5.955,26.042-10.784l37.342,37.345l35.356-35.352l-37.384-37.391c4.791-8.117,8.4-16.856,10.714-26h52.927
			V224.596z"/>
	</g>
</g>
</svg>
