<?xml version="1.0" encoding="utf-8"?>
<!-- Generator: Adobe Illustrator 17.0.2, SVG Export Plug-In . SVG Version: 6.00 Build 0)  -->
<!DOCTYPE svg PUBLIC "-//W3C//DTD SVG 1.1//EN" "http://www.w3.org/Graphics/SVG/1.1/DTD/svg11.dtd">
<svg version="1.1" xmlns="http://www.w3.org/2000/svg" xmlns:xlink="http://www.w3.org/1999/xlink" x="0px" y="0px" width="400px"
	 height="400px" viewBox="0 0 400 400" enable-background="new 0 0 400 400" xml:space="preserve">
<g id="BK" display="none">
	<rect x="-4100" y="-2080" display="inline" fill="#FFFFFF" width="5100" height="4060"/>
</g>
<g id="Comp">
	<g id="_x33_2">
		<path fill="#2C001E" d="M199.991,0.004C89.531,0.004,0,89.541,0,199.995c0,110.461,89.531,200.002,199.991,200.002
			S400,310.455,400,199.995C400,89.538,310.452,0.004,199.991,0.004z M304.275,117.199c-6.484,13.225-22.458,18.686-35.687,12.199
			l-42.061-20.627v167.815c0.067,1.122,0.099,2.261,0.099,3.404c0,37.38-35.136,66.66-79.995,66.66
			c-44.862,0-80.006-29.284-80.006-66.66c0-37.387,35.143-66.671,80.006-66.671c9.356,0,18.281,1.291,26.56,3.648V65.993
			c0-9.204,4.752-17.759,12.562-22.63c7.817-4.875,17.579-5.366,25.851-1.312l80.471,39.465
			C305.294,88,310.759,103.977,304.275,117.199z"/>
	</g>
</g>
</svg>
