<svg xmlns="http://www.w3.org/2000/svg" width="400" height="400" viewBox="0 0 400 400"><g><path fill="#2C001E" d="M200 0C89.718 0 0 89.718 0 199.996 0 310.282 89.718 400 200 400s200-89.722 200-200.004C400.004 89.718 310.282 0 200 0zm137.463 287.39c0 6.904-5.595 12.5-12.5 12.5H74.966c-6.904 0-12.5-5.596-12.5-12.5v-200c0-6.904 5.596-12.5 12.5-12.5h87.503c6.904 0 12.5 5.596 12.5 12.5v12.5h149.996c6.904 0 12.5 5.594 12.5 12.498V287.39zm-75.406-87.425c0 34.466-28.035 62.502-62.494 62.502-34.463 0-62.502-28.035-62.502-62.502 0-32.332 24.678-59.002 56.184-62.177v-18.426c0-2.53 1.524-4.805 3.856-5.775 2.332-.967 5.02-.434 6.812 1.355l30.59 30.59c1.174 1.17 1.833 2.758 1.833 4.416 0 1.658-.66 3.25-1.834 4.42l-30.588 30.593c-1.196 1.197-2.794 1.832-4.42 1.832-.808 0-1.616-.155-2.392-.476-2.335-.967-3.86-3.246-3.86-5.775v-17.504c-17.673 3.016-31.18 18.404-31.18 36.925 0 20.677 16.823 37.5 37.5 37.5s37.496-16.823 37.496-37.5c0-6.903 5.595-12.498 12.5-12.498s12.5 5.6 12.5 12.503z"/></g></svg>