<?xml version="1.0" encoding="utf-8"?>
<!-- Generator: Adobe Illustrator 17.0.2, SVG Export Plug-In . SVG Version: 6.00 Build 0)  -->
<!DOCTYPE svg PUBLIC "-//W3C//DTD SVG 1.1//EN" "http://www.w3.org/Graphics/SVG/1.1/DTD/svg11.dtd">
<svg version="1.1" xmlns="http://www.w3.org/2000/svg" xmlns:xlink="http://www.w3.org/1999/xlink" x="0px" y="0px" width="400px"
	 height="400px" viewBox="0 0 400 400" enable-background="new 0 0 400 400" xml:space="preserve">
<g id="BK" display="none">
	<rect x="-600" y="-1080" display="inline" fill="#FFFFFF" width="5100" height="4060"/>
</g>
<g id="Comp">
	<g id="_x35_9">
		<path fill="#5E2750" d="M200.002,399.998c-53.422,0-103.647-20.803-141.423-58.579C20.803,303.643,0,253.418,0,199.996
			c0-53.418,20.803-103.64,58.579-141.416S146.58,0.002,200.002,0.002c53.418,0,103.643,20.8,141.419,58.576
			S400,146.582,400,200.004s-20.803,103.65-58.579,141.423C303.645,379.195,253.42,399.998,200.002,399.998L200.002,399.998z
			 M200.002,49.998c-40.065,0-77.735,15.603-106.07,43.935c-28.332,28.332-43.935,65.998-43.935,106.06
			c0,40.065,15.603,77.735,43.935,106.063c28.335,28.332,66.002,43.939,106.07,43.939c40.062,0,77.732-15.603,106.06-43.932
			C334.393,277.735,350,240.062,350,199.996s-15.607-77.739-43.939-106.07C277.737,65.601,240.067,49.998,200.002,49.998
			L200.002,49.998z M235.174,200.201l35.352-35.356c9.765-9.765,9.765-25.591,0-35.352c-9.761-9.761-25.594-9.761-35.352,0
			l-35.356,35.352l-35.352-35.352c-9.761-9.761-25.594-9.761-35.356,0c-9.765,9.765-9.765,25.591,0,35.352l35.356,35.356
			l-35.359,35.359c-9.765,9.765-9.765,25.591,0,35.352c4.879,4.882,11.278,7.324,17.678,7.324c6.396,0,12.795-2.441,17.678-7.324
			l35.359-35.359l35.356,35.352c4.879,4.882,11.278,7.324,17.678,7.324s12.795-2.441,17.678-7.324
			c9.765-9.765,9.765-25.591,0-35.352L235.174,200.201z"/>
	</g>
</g>
</svg>
