<?xml version="1.0" encoding="iso-8859-1"?>
<!-- Generator: Adobe Illustrator 17.0.2, SVG Export Plug-In . SVG Version: 6.00 Build 0)  -->
<!DOCTYPE svg PUBLIC "-//W3C//DTD SVG 1.1//EN" "http://www.w3.org/Graphics/SVG/1.1/DTD/svg11.dtd">
<svg version="1.1" xmlns="http://www.w3.org/2000/svg" xmlns:xlink="http://www.w3.org/1999/xlink" x="0px" y="0px" width="400px"
	 height="400px" viewBox="0 0 400 400" style="enable-background:new 0 0 400 400;" xml:space="preserve">
<g id="BK" style="display:none;">
	<rect x="-100" y="-3080" style="display:inline;fill:#FFFFFF;" width="5100" height="4060"/>
</g>
<g id="Comp">
	<g id="_x32_0">
		<path style="fill:#888888;" d="M297.007,34.454c-18.284,0.06-35.479,7.211-48.405,20.137
			c-12.986,12.986-20.14,30.251-20.144,48.613c0,18.362,7.154,35.627,20.14,48.613c3.665,3.662,8.46,5.493,13.261,5.493
			c4.801,0,9.603-1.831,13.261-5.493c7.327-7.32,7.327-19.195,0-26.515c-5.898-5.902-9.151-13.748-9.151-22.094
			s3.253-16.196,9.158-22.098c5.877-5.877,13.691-9.126,22.006-9.155c10.358-0.035,18.725-8.456,18.69-18.81
			C315.792,42.783,307.417,34.503,297.007,34.454z M270.728,129.686c4.879,4.882,4.879,12.795-0.004,17.674
			c-4.882,4.882-12.799,4.886-17.678,0.004c-4.89-4.879-4.89-12.795,0-17.678C257.926,124.804,265.846,124.807,270.728,129.686z
			 M369.093,172.76c-0.317,0.367-0.631,0.734-0.977,1.083L248.686,293.241c-3.658,3.662-8.456,5.493-13.257,5.493
			s-9.599-1.831-13.261-5.493c-7.324-7.32-7.324-19.195,0-26.515l64.142-64.132c-6.668-0.72-13.187-2.103-19.487-4.103
			l-56.452,56.441c-3.662,3.662-8.46,5.493-13.257,5.493c-4.801,0-9.599-1.831-13.261-5.493c-7.324-7.32-7.324-19.191,0-26.515
			l48.849-48.839c-2.131-1.803-4.202-3.676-6.198-5.669c-1.976-1.976-3.824-4.029-5.599-6.121l-48.849,48.835
			c-3.662,3.662-8.46,5.493-13.261,5.493c-4.798,0-9.599-1.831-13.261-5.493c-7.324-7.32-7.324-19.195,0-26.518L202,133.651
			c-2.025-6.364-3.401-12.883-4.12-19.47l-64.146,64.128c-3.662,3.662-8.463,5.493-13.261,5.493c-4.801,0-9.603-1.831-13.261-5.493
			c-7.324-7.32-7.324-19.195,0-26.515L225.844,33.191c0.222-0.229,0.43-0.469,0.663-0.695l25.615-25.608
			c-16.806-4.509-34.301-6.886-52.165-6.886c-53.435,0-103.674,20.803-141.46,58.579c-77.996,77.978-77.996,204.862,0,282.836
			c37.786,37.776,88.025,58.582,141.464,58.582c53.432,0,103.667-20.803,141.45-58.579C379.193,303.648,400,253.423,400,199.998
			c0-17.667-2.321-34.967-6.735-51.601L369.093,172.76z M66.978,208.31c9.765-9.768,25.598-9.765,35.362-0.004
			c9.768,9.768,9.768,25.598,0,35.359c-9.765,9.765-25.594,9.765-35.362-0.004C57.213,233.904,57.213,218.071,66.978,208.31z
			 M121.115,332.339c-9.765,9.761-25.598,9.761-35.362-0.004c-9.768-9.765-9.768-25.591-0.004-35.352
			c9.768-9.765,25.601-9.765,35.366,0C130.876,306.745,130.88,322.574,121.115,332.339z M200.384,323.619
			c-9.765,9.765-25.598,9.765-35.362,0c-9.765-9.765-9.768-25.59-0.004-35.352c9.768-9.768,25.605-9.765,35.366,0
			C210.149,298.028,210.149,313.857,200.384,323.619z"/>
	</g>
</g>
</svg>
