<svg xmlns="http://www.w3.org/2000/svg" width="400" height="400" viewBox="0 0 400 400"><g><path d="M199.996-.002C89.718-.002 0 89.718 0 199.995 0 310.28 89.718 400.002 199.996 400.002 310.278 400.002 400 310.28 400 199.995 400 89.717 310.278-.002 199.996-.002zm83.267 250.133h-71.05v-63.725c35.437-5.94 62.446-36.75 62.446-73.865-40.274 0-73.114 31.778-74.84 71.628h-.165c-1.725-39.85-34.57-71.628-74.842-71.628 0 37.102 26.984 67.892 62.4 73.857v63.733h-70.426c-27.584 0-49.946-22.37-49.946-49.953 0-26.55 20.71-48.246 46.853-49.844-11.684-23.44-3.253-52.225 19.74-65.504 22.992-13.272 52.134-6.19 66.595 15.652 14.46-21.833 43.607-28.924 66.594-15.646 22.99 13.27 31.425 42.055 19.74 65.497 26.145 1.598 46.85 23.297 46.85 49.844 0 27.588-22.36 49.954-49.95 49.954z" fill="#888"/></g></svg>