<?xml version="1.0" encoding="utf-8"?>
<!-- Generator: Adobe Illustrator 17.0.2, SVG Export Plug-In . SVG Version: 6.00 Build 0)  -->
<!DOCTYPE svg PUBLIC "-//W3C//DTD SVG 1.1//EN" "http://www.w3.org/Graphics/SVG/1.1/DTD/svg11.dtd">
<svg version="1.1" xmlns="http://www.w3.org/2000/svg" xmlns:xlink="http://www.w3.org/1999/xlink" x="0px" y="0px" width="400px"
	 height="400px" viewBox="0 0 400 400" enable-background="new 0 0 400 400" xml:space="preserve">
<g id="BK" display="none">
	<rect x="-2100" y="-80" display="inline" fill="#FFFFFF" width="5100" height="4060"/>
</g>
<g id="Comp">
	<g>
		<path fill="#FFFFFF" d="M400,200c0,110.461-89.54,200-200,200C89.547,400,0,310.461,0,200S89.547,0,200,0
			C310.46,0,400,89.539,400,200z"/>
		<path fill="#2C001E" d="M297.012,34.453c-18.281,0.07-35.469,7.195-48.398,20.148c-12.992,12.976-20.146,30.242-20.146,48.602
			c0,18.359,7.154,35.625,20.142,48.602c3.666,3.672,8.458,5.496,13.262,5.496c4.8,0,9.594-1.824,13.255-5.496
			c7.331-7.316,7.331-19.184,0-26.492c-5.892-5.93-9.15-13.785-9.15-22.109c0-8.352,3.258-16.18,9.157-22.102
			c5.879-5.867,13.684-9.141,22.008-9.148c10.351-0.043,18.717-8.473,18.696-18.82C315.801,42.777,307.418,34.524,297.012,34.453z
			 M270.733,129.688c4.873,4.879,4.873,12.804,0,17.664c-4.883,4.906-12.803,4.906-17.69,0c-4.878-4.86-4.878-12.785,0-17.664
			C257.93,124.808,265.85,124.808,270.733,129.688z M369.098,172.77c-0.312,0.356-0.629,0.738-0.976,1.066L248.688,293.238
			c-3.648,3.672-8.457,5.504-13.258,5.504c-4.796,0-9.593-1.832-13.257-5.504c-7.329-7.309-7.329-19.184,0-26.512l64.144-64.14
			c-6.668-0.711-13.194-2.11-19.49-4.078l-56.449,56.422c-3.659,3.664-8.464,5.496-13.265,5.496c-4.8,0-9.598-1.832-13.255-5.496
			c-7.319-7.316-7.319-19.184,0-26.5l48.846-48.828c-2.127-1.832-4.197-3.707-6.2-5.695c-1.978-1.961-3.825-4.028-5.599-6.102
			l-48.854,48.828c-3.656,3.672-8.449,5.476-13.262,5.476c-4.785,0-9.59-1.804-13.263-5.476c-7.314-7.328-7.314-19.211,0-26.52
			l56.482-56.449c-2.032-6.39-3.408-12.89-4.122-19.488l-64.156,64.141c-3.656,3.644-8.457,5.504-13.255,5.504
			c-4.808,0-9.6-1.86-13.268-5.504c-7.324-7.308-7.324-19.184,0-26.52L225.85,33.195c0.22-0.226,0.428-0.469,0.654-0.695
			l25.621-25.617C235.321,2.379,217.828,0,199.96,0C146.524,0,96.289,20.789,58.496,58.586
			c-77.992,77.976-77.992,204.852-0.004,282.828C96.289,379.211,146.524,400,199.96,400c53.434,0,103.672-20.789,141.446-58.586
			C379.195,303.664,400,253.43,400,200c0-17.656-2.325-34.965-6.726-51.606L369.098,172.77z M66.988,208.316
			c9.766-9.766,25.596-9.766,35.352,0c9.768,9.766,9.768,25.59,0,35.356c-9.756,9.766-25.587,9.766-35.352,0
			C57.223,233.906,57.223,218.082,66.988,208.316z M121.113,332.344c-9.766,9.766-25.592,9.766-35.364,0
			c-9.757-9.766-9.774-25.59-0.008-35.355c9.781-9.766,25.607-9.766,35.372,0S130.879,322.578,121.113,332.344z M200.387,323.629
			c-9.766,9.774-25.586,9.774-35.367,0c-9.75-9.758-9.766-25.59,0-35.348c9.781-9.773,25.602-9.766,35.371,0
			C210.154,298.039,210.154,313.871,200.387,323.629z"/>
	</g>
</g>
<g id="nyt_x5F_exporter_x5F_info" display="none">
</g>
</svg>
