<svg xmlns="http://www.w3.org/2000/svg" width="400" height="400" viewBox="0 0 400 400"><g><path d="M200.002 0C89.542 0 0 89.543 0 200.002 0 310.457 89.543 400 200.002 400S400 310.457 400 200.002C400.004 89.54 310.46 0 200.002 0zm90 322.727c0 9.035-7.33 16.366-16.364 16.366H126.366c-9.038 0-16.365-7.33-16.365-16.366V77.27c0-9.04 7.328-16.363 16.366-16.363h147.272c9.035 0 16.366 7.324 16.366 16.362v245.457zm-15.86-237.192v98.186c0 4.52-3.658 8.182-8.177 8.182h-130.91c-4.516 0-8.18-3.662-8.18-8.18V85.534c0-4.52 3.664-8.18 8.18-8.18h130.91c4.52-.004 8.177 3.66 8.177 8.18zm-73.967 131.11c-27.065 0-49.09 22.022-49.09 49.09s22.025 49.09 49.09 49.09c27.07 0 49.093-22.022 49.093-49.09s-22.025-49.09-49.093-49.09zm0 65.452c-9.02 0-16.362-7.334-16.362-16.362 0-9.02 7.34-16.362 16.362-16.362s16.366 7.34 16.366 16.362c0 9.028-7.345 16.362-16.365 16.362z" fill="#888"/></g></svg>