<svg xmlns="http://www.w3.org/2000/svg" width="400" height="400" viewBox="0 0 400 400"><g><path fill="#5E2750" d="M235.37 164.532c9.443 9.44 14.643 22 14.643 35.356 0 13.356-5.204 25.908-14.644 35.352-9.44 9.444-21.997 14.644-35.35 14.644-13.355 0-25.91-5.204-35.35-14.644-9.445-9.447-14.648-22-14.648-35.352 0-13.353 5.203-25.905 14.65-35.352 9.445-9.447 22-14.647 35.353-14.647 13.345-.002 25.9 5.198 35.344 14.642zM341.417 341.42c-78.11 78.108-204.728 78.108-282.84 0-78.103-78.117-78.106-204.73 0-282.838 78.11-78.105 204.738-78.112 282.84-.007 78.11 78.116 78.11 204.74 0 282.844zm8.46-116.824V174.6h-53.086c-2.357-9.074-5.962-17.74-10.767-25.795l37.592-37.6-35.356-35.35-37.71 37.71c-8.02-4.716-16.645-8.272-25.662-10.572V49.6h-50v53.474c-8.984 2.318-17.578 5.877-25.568 10.597l-37.814-37.817-35.36 35.352 37.777 37.776c-4.752 8.002-8.333 16.61-10.668 25.616h-53.37v49.996h53.203c2.297 9.077 5.874 17.755 10.615 25.827L76.14 287.98l35.358 35.35 37.444-37.443c8.093 4.826 16.813 8.453 25.94 10.802v52.895h50v-52.818c9.16-2.335 17.91-5.955 26.04-10.784l37.343 37.345 35.356-35.352-37.383-37.39c4.79-8.118 8.4-16.857 10.714-26h52.928v.01z"/></g></svg>