<?xml version="1.0" encoding="utf-8"?>
<!-- Generator: Adobe Illustrator 17.0.2, SVG Export Plug-In . SVG Version: 6.00 Build 0)  -->
<!DOCTYPE svg PUBLIC "-//W3C//DTD SVG 1.1//EN" "http://www.w3.org/Graphics/SVG/1.1/DTD/svg11.dtd">
<svg version="1.1" xmlns="http://www.w3.org/2000/svg" xmlns:xlink="http://www.w3.org/1999/xlink" x="0px" y="0px" width="400px"
	 height="400px" viewBox="0 0 400 400" enable-background="new 0 0 400 400" xml:space="preserve">
<g id="BK" display="none">
	<rect x="-1600" y="-580" display="inline" fill="#FFFFFF" width="5100" height="4060"/>
</g>
<g id="Comp">
	<g id="_x36_7">
		<path fill="#DD4814" d="M200,0C89.718,0,0,89.718,0,199.996S89.718,400,200,400s200-89.725,200-200.004S310.282,0,200,0z
			 M293.736,256.127H106.271c-31.066,0-56.25-25.181-56.25-56.243c0-29.901,23.322-54.331,52.761-56.137
			c-13.159-26.391-3.658-58.811,22.232-73.762c25.89-14.944,58.709-6.964,74.99,17.632c16.284-24.592,49.1-32.572,74.993-17.625
			c25.887,14.947,35.384,47.36,22.225,73.759c29.446,1.806,52.761,26.236,52.761,56.137
			C349.983,230.946,324.799,256.127,293.736,256.127z M137.502,176.11c0,6.904-5.595,12.499-12.499,12.499
			s-12.499-5.595-12.499-12.499s5.595-12.499,12.499-12.499C131.907,163.608,137.502,169.206,137.502,176.11z M175.002,176.11
			c0,6.904-5.595,12.499-12.499,12.499s-12.499-5.595-12.499-12.499s5.595-12.499,12.499-12.499S175.002,169.206,175.002,176.11z
			 M212.499,176.11c0,6.904-5.595,12.499-12.499,12.499s-12.499-5.595-12.499-12.499s5.595-12.499,12.499-12.499
			S212.499,169.206,212.499,176.11z M249.999,176.11c0,6.904-5.595,12.499-12.502,12.499c-6.9,0-12.499-5.595-12.499-12.499
			s5.599-12.499,12.499-12.499C244.404,163.608,249.999,169.206,249.999,176.11z M287.499,176.11
			c0,6.904-5.595,12.499-12.502,12.499c-6.9,0-12.499-5.595-12.499-12.499s5.599-12.499,12.499-12.499
			C281.904,163.608,287.499,169.206,287.499,176.11z M137.502,213.61c0,6.9-5.595,12.499-12.499,12.499s-12.499-5.599-12.499-12.499
			c0-6.904,5.595-12.499,12.499-12.499C131.907,201.108,137.502,206.706,137.502,213.61z M162.503,226.109
			c-6.904,0-12.499-5.599-12.499-12.499c0-6.904,5.595-12.499,12.499-12.499H237.5c6.907,0,12.502,5.595,12.502,12.499
			c0,6.9-5.595,12.499-12.502,12.499H162.503z M287.499,213.61c0,6.9-5.595,12.499-12.502,12.499c-6.9,0-12.499-5.599-12.499-12.499
			c0-6.904,5.599-12.499,12.499-12.499C281.904,201.108,287.499,206.706,287.499,213.61z"/>
	</g>
</g>
</svg>
