<?xml version="1.0" encoding="utf-8"?>
<!-- Generator: Adobe Illustrator 17.0.2, SVG Export Plug-In . SVG Version: 6.00 Build 0)  -->
<!DOCTYPE svg PUBLIC "-//W3C//DTD SVG 1.1//EN" "http://www.w3.org/Graphics/SVG/1.1/DTD/svg11.dtd">
<svg version="1.1" xmlns="http://www.w3.org/2000/svg" xmlns:xlink="http://www.w3.org/1999/xlink" x="0px" y="0px" width="400px"
	 height="400px" viewBox="0 0 400 400" enable-background="new 0 0 400 400" xml:space="preserve">
<g id="BK" display="none">
	<rect x="-3600" y="-3580" display="inline" fill="#FFFFFF" width="5100" height="4060"/>
</g>
<g id="Comp">
	<g id="_x33_">
		<path fill="#DD4814" d="M400,199.996c0,110.463-89.546,200.002-200.002,200.002C89.536,399.998,0,310.456,0,199.996
			S89.536,0.002,199.998,0.002C310.454,0.002,400,89.537,400,199.996z M117.903,102.502c0,27.609,22.394,49.996,50.007,49.996
			s50.007-22.387,50.007-49.996c0-27.619-22.395-50.003-50.007-50.003C140.301,52.499,117.903,74.886,117.903,102.502z
			 M317.061,175.736c0-7.31-6.022-13.233-13.448-13.233H142.227c-7.426,0-13.448,5.927-13.448,13.233v38.636l-48.758-32.996
			c-3.845-3.785-9.634-4.918-14.658-2.868c-5.024,2.05-8.301,6.876-8.301,12.227v93.536c0,5.355,3.277,10.181,8.301,12.227
			c1.665,0.677,3.411,1.005,5.144,1.005c3.5,0,6.943-1.344,9.511-3.877l48.761-32.996v38.633c0,7.306,6.025,13.233,13.448,13.233
			h161.386c7.426,0,13.448-5.927,13.448-13.233V175.736z M327.938,102.502c0-27.619-22.387-50.003-50.007-50.003
			c-27.616,0-50.014,22.384-50.014,50.003c0,27.609,22.398,49.996,50.014,49.996C305.55,152.498,327.938,130.111,327.938,102.502z"
			/>
	</g>
</g>
</svg>
