<?xml version="1.0" encoding="utf-8"?>
<!-- Generator: Adobe Illustrator 17.0.2, SVG Export Plug-In . SVG Version: 6.00 Build 0)  -->
<!DOCTYPE svg PUBLIC "-//W3C//DTD SVG 1.1//EN" "http://www.w3.org/Graphics/SVG/1.1/DTD/svg11.dtd">
<svg version="1.1" xmlns="http://www.w3.org/2000/svg" xmlns:xlink="http://www.w3.org/1999/xlink" x="0px" y="0px" width="400px"
	 height="400px" viewBox="0 0 400 400" enable-background="new 0 0 400 400" xml:space="preserve">
<g id="BK" display="none">
	<rect x="-3100" y="-3580" display="inline" fill="#FFFFFF" width="5100" height="4060"/>
</g>
<g id="Comp">
	<g id="_x34_">
		<path fill="#2C001E" d="M400,200c0,53.421-20.8,103.646-58.575,141.421S253.425,400,199.996,400C89.718,400,0,310.278,0,200
			C0,146.575,20.796,96.354,58.572,58.579C96.343,20.803,146.568,0,199.993,0c45.152,0,87.976,14.905,122.968,42.294v180.65
			c0.004,8.964-3.485,17.392-9.828,23.731c-6.339,6.343-14.774,9.835-23.742,9.835c-18.507,0-33.567-15.064-33.574-33.574V115.796
			c0.007-19.65-7.645-38.132-21.541-52.028c-13.896-13.892-32.374-21.544-52.028-21.544c-40.559,0-73.565,32.999-73.568,73.568
			v16.383H92.964c-11.045,0-19.999,8.953-19.999,19.999v27.619v43.808V243.6h11.906v71.427h87.616V243.6h11.906v-19.999v-43.808
			v-27.619c0-11.045-8.953-19.999-19.999-19.999h-15.716v-16.379c0.007-18.514,15.067-33.577,33.574-33.577
			c8.971,0,17.402,3.492,23.742,9.835c6.339,6.339,9.828,14.767,9.828,23.738v107.149c0.007,40.566,33.009,73.568,73.568,73.568
			c19.653,0,38.135-7.652,52.028-21.544c13.899-13.899,21.548-32.378,21.541-52.024V84.056C386.99,117.683,400,157.829,400,200z
			 M116.882,259.566h-11.903v11.906h11.903V259.566z M152.41,259.566h-11.903v11.906h11.903V259.566z"/>
	</g>
</g>
</svg>
