<?xml version="1.0" encoding="utf-8"?>
<!-- Generator: Adobe Illustrator 17.0.2, SVG Export Plug-In . SVG Version: 6.00 Build 0)  -->
<!DOCTYPE svg PUBLIC "-//W3C//DTD SVG 1.1//EN" "http://www.w3.org/Graphics/SVG/1.1/DTD/svg11.dtd">
<svg version="1.1" xmlns="http://www.w3.org/2000/svg" xmlns:xlink="http://www.w3.org/1999/xlink" x="0px" y="0px" width="400px"
	 height="400px" viewBox="0 0 400 400" enable-background="new 0 0 400 400" xml:space="preserve">
<g id="BK" display="none">
	<rect x="-2600" y="-1580" display="inline" fill="#FFFFFF" width="5100" height="4060"/>
</g>
<g id="Comp">
	<g id="_x34_5">
		<path fill="#5E2750" d="M200,0C89.718,0,0,89.718,0,199.996C0,310.282,89.718,400,200,400s200-89.722,200-200.004
			C400.004,89.718,310.282,0,200,0z M337.463,287.39c0,6.904-5.595,12.499-12.499,12.499H74.965
			c-6.904,0-12.499-5.595-12.499-12.499V112.388V87.39c0-6.904,5.595-12.499,12.499-12.499h87.503
			c6.904,0,12.499,5.595,12.499,12.499v12.499h149.997c6.904,0,12.499,5.595,12.499,12.499V287.39z M262.057,199.965
			c0,34.466-28.035,62.502-62.494,62.502c-34.463,0-62.502-28.035-62.502-62.502c0-32.332,24.677-59.002,56.183-62.177v-18.426
			c0-2.529,1.524-4.805,3.856-5.775c2.332-0.967,5.02-0.434,6.812,1.355l30.589,30.589c1.175,1.171,1.834,2.759,1.834,4.417
			c0,1.658-0.66,3.249-1.834,4.42l-30.589,30.593c-1.196,1.196-2.794,1.831-4.42,1.831c-0.808,0-1.616-0.155-2.392-0.476
			c-2.335-0.967-3.859-3.246-3.859-5.775v-17.505c-17.674,3.016-31.182,18.404-31.182,36.925c0,20.676,16.824,37.5,37.5,37.5
			s37.497-16.824,37.497-37.5c0-6.904,5.595-12.499,12.499-12.499S262.057,193.061,262.057,199.965z"/>
	</g>
</g>
</svg>
