<?xml version="1.0" encoding="UTF-8" standalone="no"?>
<svg width="96px" height="96px" viewBox="0 0 96 96" version="1.1" xmlns="http://www.w3.org/2000/svg" xmlns:xlink="http://www.w3.org/1999/xlink" xmlns:sketch="http://www.bohemiancoding.com/sketch/ns">
    <!-- Generator: Sketch 3.2.2 (9983) - http://www.bohemiancoding.com/sketch -->
    <title>provider-cloud</title>
    <desc>Created with Sketch.</desc>
    <defs></defs>
    <g id="Page-1" stroke="none" stroke-width="1" fill="none" fill-rule="evenodd" sketch:type="MSPage">
        <g id="provider-cloud" sketch:type="MSLayerGroup" transform="translate(-1.000000, -1.000000)">
            <g id="layer1" transform="translate(0.714290, 0.209230)" sketch:type="MSShapeGroup">
                <path d="M96.28571,48.79076 C96.28571,75.30044 74.79537,96.79076 48.28571,96.79076 C21.77605,96.79076 0.28571,75.30044 0.28571,48.79076 C0.28571,22.2811 21.77605,0.79076 48.28571,0.79076 C74.79537,0.79076 96.28571,22.2811 96.28571,48.79076 L96.28571,48.79076 Z" id="path4715-2" fill="#FFFFFF"></path>
                <path d="M96.28571,48.79076 C96.28571,75.30044 74.79537,96.79076 48.28571,96.79076 C21.77605,96.79076 0.28571,75.30044 0.28571,48.79076 C0.28571,22.2811 21.77605,0.79076 48.28571,0.79076 C74.79537,0.79076 96.28571,22.2811 96.28571,48.79076 L96.28571,48.79076 Z" id="path4715" fill="#5E2750"></path>
                <rect id="rect4736" fill="#FFFFFF" x="16.28571" y="36.79077" width="64" height="24" rx="12"></rect>
                <path d="M50.28571,32.79075 C50.28571,39.41817 44.91313,44.79075 38.28571,44.79075 C31.65829,44.79075 26.28571,39.41817 26.28571,32.79075 C26.28571,26.16333 31.65829,20.79075 38.28571,20.79075 C44.91313,20.79075 50.28571,26.16333 50.28571,32.79075 L50.28571,32.79075 Z" id="path4738" fill="#FFFFFF"></path>
                <path d="M70.28571,32.79075 C70.28571,39.41817 64.91313,44.79075 58.28571,44.79075 C51.65829,44.79075 46.28571,39.41817 46.28571,32.79075 C46.28571,26.16333 51.65829,20.79075 58.28571,20.79075 C64.91313,20.79075 70.28571,26.16333 70.28571,32.79075 L70.28571,32.79075 Z" id="path4740" fill="#FFFFFF"></path>
            </g>
        </g>
    </g>
</svg>