<?xml version="1.0" encoding="utf-8"?>
<!-- Generator: Adobe Illustrator 17.0.2, SVG Export Plug-In . SVG Version: 6.00 Build 0)  -->
<!DOCTYPE svg PUBLIC "-//W3C//DTD SVG 1.1//EN" "http://www.w3.org/Graphics/SVG/1.1/DTD/svg11.dtd">
<svg version="1.1" xmlns="http://www.w3.org/2000/svg" xmlns:xlink="http://www.w3.org/1999/xlink" x="0px" y="0px" width="400px"
	 height="400px" viewBox="0 0 400 400" enable-background="new 0 0 400 400" xml:space="preserve">
<g id="BK" display="none">
	<rect x="-1600" y="-1580" display="inline" fill="#FFFFFF" width="5100" height="4060"/>
</g>
<g id="Comp">
	<g id="_x34_7">
		<path fill="#5E2750" d="M399.951,199.995c0-110.278-89.715-199.996-199.982-199.996C89.704-0.002,0,89.717,0,199.995
			s89.704,200.007,199.968,200.007h50.07c13.801,0,24.998-11.197,24.998-25.001c0-13.811-11.197-25.001-24.998-25.001h-50.07
			c-82.695,0-149.98-67.292-149.98-150.004s67.285-149.997,149.98-149.997c82.709,0,149.983,67.285,149.983,150.011l0.053,75.053
			c0,13.787-11.218,25.001-24.991,25.001c-13.787,0-25.005-11.215-25.005-25.001l-0.042,0.018v-72.027v-3.059
			c0-55.139-44.866-99.998-99.991-99.998c-55.136,0-99.991,44.856-99.991,99.998s44.856,99.998,99.991,99.998
			c18.553,0,35.944-5.08,50.856-13.928l-0.011,0.007c5.338,36.156,36.572,63.99,74.189,63.99c41.349,0,74.99-33.648,74.99-75.018
			L399.951,199.995z M199.996,249.994c-27.57,0-49.999-22.426-49.999-49.996c0-27.573,22.43-50.003,49.999-50.003
			c27.559,0,50.003,22.43,50.003,50.003C249.999,227.568,227.555,249.994,199.996,249.994z"/>
	</g>
</g>
</svg>
