<svg xmlns="http://www.w3.org/2000/svg" width="400" height="400" viewBox="0 0 400 400"><g><g fill="#5E2750"><path d="M216.87 118.553l14.006-5.803c6.385-2.646 9.416-9.96 6.77-16.34-2.642-6.383-9.955-9.413-16.34-6.77l-14.063 5.827c-3.39-10.594-5.62-21.69-6.576-33.147H319.95l-84.284 84.28c-7.266-8.584-13.584-17.982-18.795-28.047"/><path d="M337.633 199.254c-31.968-2.656-61.122-15.36-84.278-34.967l84.278-84.28v119.247zM395.14 244.75C374.78 333.67 295.18 399.997 200.092 400 89.59 400 .003 310.41.003 199.91c0-95.05 66.277-174.623 155.14-195.02v.02c-3.31 14.418-5.07 29.425-5.07 44.838 0 110.327 89.76 200.093 200.084 200.093 15.452 0 30.5-1.763 44.958-5.09h.024zM362.733 83.33c21.992 30.634 35.553 67.74 37.264 107.91l-.014-.005c-11.843 4.18-24.348 6.943-37.34 8.022V83.367l.09-.038zM200.654 37.306c1.076-12.968 3.82-25.46 7.99-37.292l.004-.014c39.684 1.67 76.372 14.894 106.8 36.4l1.114.906H200.654z"/></g></g></svg>