<?xml version="1.0" encoding="utf-8"?>
<!-- Generator: Adobe Illustrator 17.0.2, SVG Export Plug-In . SVG Version: 6.00 Build 0)  -->
<!DOCTYPE svg PUBLIC "-//W3C//DTD SVG 1.1//EN" "http://www.w3.org/Graphics/SVG/1.1/DTD/svg11.dtd">
<svg version="1.1" xmlns="http://www.w3.org/2000/svg" xmlns:xlink="http://www.w3.org/1999/xlink" x="0px" y="0px" width="400px"
	 height="400px" viewBox="0 0 400 400" enable-background="new 0 0 400 400" xml:space="preserve">
<g id="BK" display="none">
	<rect x="-3600" y="-2080" display="inline" fill="#FFFFFF" width="5100" height="4060"/>
</g>
<g id="Comp">
	<g id="_x33_3">
		<path fill="#DD4814" d="M200.004,0C89.543,0,0,89.543,0,200.004S89.547,400,200.004,400S400,310.46,400,200.004
			C400.004,89.543,310.464,0,200.004,0z M260.001,95.625c24.166,0,43.749,19.59,43.749,43.745c0,24.173-19.587,43.756-43.749,43.756
			c-24.159,0-43.749-19.587-43.749-43.756C216.253,115.212,235.846,95.625,260.001,95.625z M140.002,95.625
			c24.166,0,43.749,19.59,43.749,43.745c0,24.173-19.587,43.756-43.749,43.756c-24.159,0-43.749-19.587-43.749-43.756
			C96.25,115.212,115.843,95.625,140.002,95.625z M347.513,304.378H227.51h-55.01H52.501c-6.9,0-12.503-5.602-12.503-12.499
			c0-55.137,44.863-100.007,100.004-100.007c22.493,0,43.276,7.472,60.001,20.059c16.725-12.584,37.508-20.059,60.001-20.059
			c55.14,0,100.004,44.87,100.004,100.007C360.005,298.776,354.41,304.378,347.513,304.378z"/>
	</g>
</g>
</svg>
