<?xml version="1.0" encoding="utf-8"?>
<!-- Generator: Adobe Illustrator 17.0.2, SVG Export Plug-In . SVG Version: 6.00 Build 0)  -->
<!DOCTYPE svg PUBLIC "-//W3C//DTD SVG 1.1//EN" "http://www.w3.org/Graphics/SVG/1.1/DTD/svg11.dtd">
<svg version="1.1" xmlns="http://www.w3.org/2000/svg" xmlns:xlink="http://www.w3.org/1999/xlink" x="0px" y="0px" width="400px"
	 height="400px" viewBox="0 0 400 400" enable-background="new 0 0 400 400" xml:space="preserve">
<g id="BK" display="none">
	<rect x="-1100" y="-80" display="inline" fill="#FFFFFF" width="5100" height="4060"/>
</g>
<g id="Comp">
	<g>
		<path fill="#DD4814" d="M200,0C89.542,0,0,89.531,0,199.988C0,310.445,89.542,400,200,400c110.453,0,200-89.555,200-200.012
			C400,89.531,310.453,0,200,0z"/>
		<g>
			<path fill="#FFFFFF" d="M102.934,323.66c-1.701,1.707-3.949,2.637-6.36,2.637l0,0c-2.411,0-4.677-0.938-6.374-2.648
				c-1.694-1.695-2.639-3.949-2.639-6.359c0-2.398,0.944-4.664,2.639-6.375c1.697-1.695,3.963-2.633,6.374-2.633
				s4.659,0.938,6.36,2.633c1.697,1.695,2.631,3.961,2.631,6.375C105.568,319.699,104.631,321.953,102.934,323.66z"/>
			<path fill="#FFFFFF" d="M142.182,189.164c-0.903-2.883-2.21-5.258-3.872-7.055c-1.665-1.785-3.675-3.136-5.992-3.984
				c-2.317-0.86-4.934-1.297-7.797-1.297c-2.866,0-5.472,0.438-7.741,1.297c-2.266,0.848-4.254,2.199-5.926,3.984
				c-1.652,1.797-2.963,4.172-3.862,7.055c-0.92,2.914-1.384,6.461-1.384,10.578v104.813H87.522v-106.43
				c0-5.36,0.72-10.36,2.155-14.844c1.438-4.5,3.702-8.469,6.732-11.82c3.027-3.348,6.89-5.969,11.482-7.812
				c4.581-1.852,10.134-2.789,16.491-2.789c6.358,0,11.957,0.938,16.625,2.789c4.679,1.844,8.599,4.465,11.628,7.812
				c3.012,3.352,5.306,7.313,6.797,11.82c1.467,4.484,2.23,9.484,2.23,14.844v14.453h-18.086v-12.836
				C143.558,195.637,143.097,192.086,142.182,189.164z"/>
			<path fill="#FFFFFF" d="M217.702,262.633c0,5.391-0.751,10.391-2.24,14.867c-1.48,4.5-3.761,8.469-6.79,11.82
				c-3.03,3.336-6.942,5.969-11.619,7.812c-4.674,1.84-10.278,2.777-16.625,2.777c-6.356,0-11.894-0.937-16.482-2.777
				c-4.602-1.844-8.459-4.476-11.502-7.812c-3.018-3.352-5.277-7.32-6.718-11.82c-1.432-4.484-2.166-9.484-2.166-14.867v-45.726
				h18.091v44.14c0,4.098,0.467,7.656,1.384,10.562c0.911,2.899,2.206,5.266,3.862,7.051c1.676,1.797,3.661,3.137,5.922,3.996
				c2.277,0.859,4.877,1.297,7.746,1.297c2.852,0,5.486-0.449,7.799-1.309c2.301-0.848,4.314-2.199,5.98-3.984
				c1.669-1.797,2.976-4.16,3.878-7.043c0.92-2.922,1.385-6.484,1.385-10.57v-44.14h18.09v45.726H217.702z"/>
			<path fill="#FFFFFF" d="M199.648,203.719c0-4.98,4.032-9.008,8.998-9.008c4.965,0,9.01,4.028,9.01,9.008
				c0,4.953-4.045,8.992-9.01,8.992C203.676,212.711,199.648,208.672,199.648,203.719z"/>
			<path fill="#FFFFFF" d="M254.262,76.047c-0.902-2.875-2.209-5.266-3.871-7.051c-1.662-1.797-3.681-3.137-5.981-3.984
				c-2.318-0.871-4.941-1.293-7.808-1.293c-2.856,0-5.462,0.422-7.738,1.281c-2.262,0.859-4.258,2.207-5.916,3.996
				c-1.662,1.785-2.965,4.16-3.867,7.051c-0.922,2.914-1.378,6.453-1.378,10.57V191.43h-18.096V85.02
				c0-5.363,0.724-10.363,2.163-14.852c1.439-4.512,3.7-8.48,6.73-11.832c3.022-3.336,6.889-5.961,11.484-7.812
				c4.592-1.84,10.142-2.789,16.486-2.789c6.348,0,11.938,0.949,16.617,2.789c4.691,1.852,8.598,4.476,11.619,7.812
				c3.035,3.352,5.316,7.32,6.804,11.82c1.477,4.5,2.225,9.5,2.225,14.863v14.434h-18.092V86.617
				C255.642,82.52,255.174,78.961,254.262,76.047z"/>
			<path fill="#FFFFFF" d="M329.783,149.52c0,5.379-0.753,10.379-2.24,14.856c-1.482,4.508-3.76,8.484-6.779,11.82
				c-3.043,3.336-6.949,5.969-11.623,7.82c-4.688,1.832-10.278,2.77-16.623,2.77c-6.363,0-11.912-0.938-16.502-2.77
				c-4.588-1.852-8.455-4.484-11.488-7.82c-3.021-3.336-5.287-7.312-6.732-11.82c-1.422-4.484-2.152-9.484-2.152-14.856v-45.723
				h18.09v44.125c0,4.098,0.465,7.656,1.381,10.57c0.902,2.891,2.204,5.258,3.875,7.055c1.658,1.785,3.659,3.125,5.916,3.984
				c2.272,0.86,4.872,1.305,7.734,1.305c2.869,0,5.495-0.445,7.812-1.305c2.305-0.859,4.31-2.199,5.976-3.984
				c1.658-1.797,2.973-4.164,3.879-7.055c0.911-2.914,1.384-6.472,1.384-10.57v-44.125h18.079v45.723H329.783z"/>
		</g>
	</g>
</g>
<g id="nyt_x5F_exporter_x5F_info" display="none">
</g>
</svg>
