<?xml version="1.0" encoding="utf-8"?>
<!-- Generator: Adobe Illustrator 17.0.2, SVG Export Plug-In . SVG Version: 6.00 Build 0)  -->
<!DOCTYPE svg PUBLIC "-//W3C//DTD SVG 1.1//EN" "http://www.w3.org/Graphics/SVG/1.1/DTD/svg11.dtd">
<svg version="1.1" xmlns="http://www.w3.org/2000/svg" xmlns:xlink="http://www.w3.org/1999/xlink" x="0px" y="0px" width="400px"
	 height="400px" viewBox="0 0 400 400" enable-background="new 0 0 400 400" xml:space="preserve">
<g id="BK" display="none">
	<rect x="-1100" y="-1580" display="inline" fill="#FFFFFF" width="5100" height="4060"/>
</g>
<g id="Comp">
	<g id="_x34_8">
		<path fill="#DD4814" d="M200.002-0.004C89.721-0.004,0,89.721,0,200.002c0,110.278,89.721,200.002,200.002,200.002
			c35.088,0,69.672-9.275,100.008-26.826c7.722-4.47,12.478-12.714,12.478-21.64v-51.482h-12.993
			c-6.904,0-12.503-5.599-12.503-12.503c0-6.9,5.599-12.499,12.503-12.499h12.993v-49.997h62.507
			c13.053,0,23.767-10.005,24.9-22.765c0.074-0.766,0.106-1.531,0.106-2.29C400,89.717,310.279-0.004,200.002-0.004z
			 M278.938,203.858c-16.211,0-29.786-11.409-33.176-26.621c-6.177,3.224-13.18,5.073-20.617,5.073
			c-24.684,0-44.765-20.081-44.765-44.765s20.081-44.765,44.765-44.765c24.681,0,44.762,20.081,44.762,44.765
			c0,0.053-0.007,0.102-0.007,0.155c0,0.099,0.028,0.194,0.028,0.293v31.846c0,4.971,4.043,9.017,9.01,9.017
			s9.014-4.043,9.014-9.017l-0.018-32.291c0-34.626-28.163-62.796-62.789-62.796s-62.785,28.166-62.785,62.789
			c0,34.626,28.159,62.792,62.785,62.792h21.538c6.904,0,12.499,5.595,12.499,12.499c0,6.904-5.595,12.503-12.499,12.503h-21.538
			c-48.409,0-87.787-39.385-87.787-87.794c0-48.406,39.378-87.791,87.787-87.791s87.794,39.385,87.794,87.791l0.014,32.287
			C312.953,188.596,297.695,203.858,278.938,203.858z M244.908,137.544c0,10.901-8.866,19.767-19.763,19.767
			c-10.901,0-19.763-8.866-19.763-19.767c0-10.898,8.862-19.767,19.763-19.767C236.042,117.778,244.908,126.643,244.908,137.544z"/>
	</g>
</g>
</svg>
