<svg xmlns="http://www.w3.org/2000/svg" width="400" height="400" viewBox="0 0 400 400"><g><path fill="#DD4814" d="M200 0C89.545 0 0 89.542 0 199.996S89.545 400 200 400c110.458 0 200-89.55 200-200.004S310.458 0 200 0zm106.708 182.936V320H78.268V182.93h.003l35.01-102.927h228.445l-35.017 102.933zm-204.512-17.13l23.36-68.676H317.8l-23.355 68.675h-192.25zm119.327 85.63v45.68c0 3.154-2.558 5.715-5.71 5.715h-45.686c-3.154 0-5.708-2.564-5.708-5.714v-45.68c0-3.158 2.557-5.716 5.707-5.716h45.685c3.153 0 5.71 2.56 5.71 5.715z"/></g></svg>