<?xml version="1.0" encoding="UTF-8" standalone="no"?>
<svg width="400px" height="402px" viewBox="0 0 400 402" version="1.1" xmlns="http://www.w3.org/2000/svg" xmlns:xlink="http://www.w3.org/1999/xlink" xmlns:sketch="http://www.bohemiancoding.com/sketch/ns">
    <!-- Generator: Sketch 3.2.2 (9983) - http://www.bohemiancoding.com/sketch -->
    <title>Shape</title>
    <desc>Created with Sketch.</desc>
    <defs></defs>
    <g id="Page-1" stroke="none" stroke-width="1" fill="none" fill-rule="evenodd" sketch:type="MSPage">
        <g id="mobile-picto" sketch:type="MSLayerGroup" fill="#2C001E">
            <g id="Page-1" sketch:type="MSShapeGroup">
                <g id="test">
                    <g id="Comp">
                        <path d="M400,200.985 C400,311.716733 310.458483,401.485 199.998139,401.485 C89.5377944,401.485 0,311.716733 0,200.985 C0,90.2532666 89.5415166,0.485 200.001861,0.485 C310.462206,0.485 400,90.2495351 400,200.985 L400,200.985 L400,200.985 Z M284.443948,124.795597 L284.443948,277.174403 C284.443948,327.967338 275.998251,327.967338 199.998139,327.967338 C123.998027,327.967338 115.55233,327.967338 115.55233,277.174403 L115.55233,124.795597 C115.55233,74.0026617 123.998027,74.0026617 199.998139,74.0026617 C275.998251,74.0026617 284.443948,74.0026617 284.443948,124.795597 L284.443948,124.795597 L284.443948,124.795597 Z M179.41431,82.4656633 C177.084206,82.7082096 175.3906,84.8015711 175.632543,87.1412105 C175.874487,89.4771183 177.962648,91.1749427 180.296474,90.9323963 L219.703526,90.9323963 L219.822637,90.9323963 C222.152741,90.898813 224.017569,88.9770997 223.984069,86.6411918 C223.950569,84.305284 222.03363,82.4358114 219.703526,82.4693948 L180.296474,82.4693948 C180.002419,82.4358114 179.708365,82.4358114 179.41431,82.4656633 L179.41431,82.4656633 L179.41431,82.4656633 Z M132.443725,133.258599 L132.443725,260.240937 C132.443725,294.104138 132.443725,294.104138 199.998139,294.104138 C267.552553,294.104138 267.552553,294.104138 267.552553,260.240937 L267.552553,133.258599 C267.552553,99.3953979 267.552553,99.3953979 199.998139,99.3953979 C132.443725,99.3953979 132.443725,99.3991294 132.443725,133.258599 L132.443725,133.258599 L132.443725,133.258599 Z" id="Shape"></path>
                    </g>
                </g>
            </g>
        </g>
    </g>
</svg>