<?xml version="1.0" encoding="utf-8"?>
<!-- Generator: Adobe Illustrator 17.0.2, SVG Export Plug-In . SVG Version: 6.00 Build 0)  -->
<!DOCTYPE svg PUBLIC "-//W3C//DTD SVG 1.1//EN" "http://www.w3.org/Graphics/SVG/1.1/DTD/svg11.dtd">
<svg version="1.1" xmlns="http://www.w3.org/2000/svg" xmlns:xlink="http://www.w3.org/1999/xlink" x="0px" y="0px" width="401px"
	 height="401px" viewBox="0 0 401 401" enable-background="new 0 0 401 401" xml:space="preserve">
<g id="BK" display="none">
	<rect x="-4099" y="-80" display="inline" fill="#FFFFFF" width="5100" height="4060"/>
</g>
<g id="Comp">
	<g>
		<path fill="#AEA79F" d="M400.5,200.5c0,110.457-89.543,200-200,200c-110.461,0-200-89.543-200-200s89.539-200,200-200
			C310.957,0.5,400.5,90.043,400.5,200.5z"/>
		<g>
			<path fill-rule="evenodd" clip-rule="evenodd" fill="#FFFFFF" d="M303.648,248.574c-5.64,12.496-8.344,18.07-15.602,29.111
				c-10.125,15.42-24.398,34.607-42.086,34.779c-15.726,0.143-19.758-10.234-41.094-10.115c-21.328,0.119-25.781,10.293-41.5,10.15
				c-17.692-0.162-31.226-17.498-41.352-32.908c-28.324-43.109-31.285-93.697-13.816-120.588
				c12.418-19.112,31.996-30.297,50.41-30.297c18.754,0,30.539,10.277,46.039,10.277c15.039,0,24.195-10.293,45.875-10.293
				c16.383,0,33.746,8.92,46.117,24.34C256.109,175.238,262.695,233.104,303.648,248.574L303.648,248.574z"/>
			<path fill-rule="evenodd" clip-rule="evenodd" fill="#FFFFFF" d="M234.082,111.467c7.875-10.108,13.856-24.375,11.684-38.967
				c-12.867,0.891-27.914,9.074-36.699,19.742c-7.973,9.684-14.558,24.043-11.992,38.006
				C211.117,130.682,225.648,122.295,234.082,111.467L234.082,111.467z"/>
		</g>
	</g>
</g>
<g id="nyt_x5F_exporter_x5F_info" display="none">
</g>
</svg>
