<svg xmlns="http://www.w3.org/2000/svg" width="400" height="400" viewBox="0 0 400 400"><g><path fill="#5E2750" d="M358.39 77.918L182.562 253.742l-35.355-35.36L323.15 42.447C288.12 14.958 245.224 0 199.987 0 146.566 0 96.34 20.803 58.568 58.575 20.796 96.35-.004 146.575 0 199.995c0 53.426 20.803 103.65 58.575 141.426 37.775 37.776 88 58.58 141.42 58.58 53.43 0 103.654-20.803 141.43-58.58C379.2 303.643 400 253.42 400 199.997c.004-44.76-14.654-87.245-41.61-122.078zm-236.516 200.66l13.028-48.627 35.6 35.6-48.628 13.028z"/></g></svg>