<?xml version="1.0" encoding="utf-8"?>
<!-- Generator: Adobe Illustrator 17.0.2, SVG Export Plug-In . SVG Version: 6.00 Build 0)  -->
<!DOCTYPE svg PUBLIC "-//W3C//DTD SVG 1.1//EN" "http://www.w3.org/Graphics/SVG/1.1/DTD/svg11.dtd">
<svg version="1.1" xmlns="http://www.w3.org/2000/svg" xmlns:xlink="http://www.w3.org/1999/xlink" x="0px" y="0px" width="400px"
	 height="400px" viewBox="0 0 400 400" enable-background="new 0 0 400 400" xml:space="preserve">
<g id="BK" display="none">
	<rect x="-4599" y="-80" display="inline" fill="#FFFFFF" width="5100" height="4060"/>
</g>
<g id="Comp">
	<g>
		<circle fill="#AEA79F" cx="200" cy="200" r="200"/>
		<g>
			<path fill="#FFFFFF" d="M308.129,147.311c-10.288,0-18.658,8.37-18.658,18.658v77.234c0,10.288,8.37,18.659,18.658,18.659
				c10.288,0,18.657-8.371,18.657-18.659v-77.234C326.786,155.681,318.417,147.311,308.129,147.311z"/>
			<path fill="#FFFFFF" d="M91.871,147.311c-10.288,0-18.657,8.37-18.657,18.658v77.234c0,10.288,8.37,18.659,18.657,18.659
				c10.288,0,18.658-8.371,18.658-18.659v-77.234C110.529,155.681,102.159,147.311,91.871,147.311z"/>
			<path fill="#FFFFFF" d="M117.313,150.492v119.971c0,11.04,8.95,19.99,19.99,19.99h13.145v40.889
				c0,10.288,8.37,18.658,18.658,18.658c10.288,0,18.657-8.37,18.657-18.658v-40.889h24.473v40.889
				c0,10.288,8.37,18.658,18.657,18.658c10.288,0,18.658-8.37,18.658-18.658v-40.889h13.145c11.04,0,19.99-8.95,19.99-19.99V150.492
				H117.313z"/>
			<g>
				<path fill="#FFFFFF" d="M240.648,77.684l13.076-23.59c0.737-1.33,0.255-3.01-1.075-3.747c-0.415-0.23-0.863-0.347-1.331-0.347
					c-1.004,0-1.93,0.545-2.416,1.421l-13.229,23.865c-10.801-4.775-22.898-7.451-35.673-7.451s-24.873,2.676-35.673,7.451
					l-13.229-23.865c-0.486-0.876-1.412-1.421-2.416-1.421c-0.468,0-0.916,0.117-1.33,0.346c-1.33,0.737-1.812,2.418-1.075,3.747
					l13.076,23.59c-25.097,13.104-42.039,37.962-42.039,66.477c0,0.01,0,0.02,0,0.03h165.373c0-0.01,0-0.02,0-0.03
					C282.687,115.646,265.744,90.788,240.648,77.684z M161.837,113.692c-3.741,0-6.785-3.044-6.785-6.785
					c0-3.741,3.044-6.785,6.785-6.785c3.741,0,6.785,3.044,6.785,6.785C168.622,110.648,165.578,113.692,161.837,113.692z
					 M238.163,113.692c-3.741,0-6.785-3.044-6.785-6.785c0-3.741,3.044-6.785,6.785-6.785c3.741,0,6.785,3.044,6.785,6.785
					C244.948,110.648,241.904,113.692,238.163,113.692z"/>
			</g>
		</g>
	</g>
</g>
</svg>
