<svg xmlns="http://www.w3.org/2000/svg" width="400" height="400" viewBox="0 0 400 400"><g><path fill="#DD4814" d="M341.42 58.58C303.65 20.802 253.428 0 200.006 0 146.587 0 96.362 20.803 58.59 58.58 20.81 96.354 0 146.576 0 200c0 53.422 20.807 103.647 58.586 141.42 37.776 37.775 88 58.578 141.42 58.578s103.642-20.8 141.415-58.576c37.777-37.775 58.58-88 58.58-141.422.004-53.422-20.803-103.647-58.58-141.423zM187.557 322.052c-29.288-29.288-76.772-29.288-106.063.004V209.555c29.29-29.288 76.776-29.288 106.063 0v112.498zm0-137.47c-29.288-29.292-76.772-29.292-106.063 0V72.08c29.29-29.29 76.776-29.29 106.063 0v112.502zm131.047 149.874c-29.288 29.29-76.772 29.29-106.06 0V221.955c29.29 29.29 76.776 29.29 106.06.004v112.497zm0-137.475c-29.288 29.288-76.772 29.288-106.06 0V84.484c29.29 29.288 76.776 29.288 106.06 0v112.498z"/></g></svg>