<?xml version="1.0" encoding="utf-8"?>
<!-- Generator: Adobe Illustrator 17.0.2, SVG Export Plug-In . SVG Version: 6.00 Build 0)  -->
<!DOCTYPE svg PUBLIC "-//W3C//DTD SVG 1.1//EN" "http://www.w3.org/Graphics/SVG/1.1/DTD/svg11.dtd">
<svg version="1.1" xmlns="http://www.w3.org/2000/svg" xmlns:xlink="http://www.w3.org/1999/xlink" x="0px" y="0px" width="400px"
	 height="400px" viewBox="0 0 400 400" enable-background="new 0 0 400 400" xml:space="preserve">
<g id="BK" display="none">
	<rect x="-4100" y="-1580" display="inline" fill="#FFFFFF" width="5100" height="4060"/>
</g>
<g id="Comp">
	<g id="_x34_2">
		<path fill="#5E2750" d="M51.084,99.97H26.866C61.501,40.252,126.137,0,199.995,0c73.865,0,138.5,40.252,173.14,99.97H348.92
			c-0.159,0-0.31,0.018-0.469,0.025H217.189c-7.694,0-14.295,4.639-17.187,11.264c-2.889-6.625-9.493-11.264-17.184-11.264H51.553
			C51.394,99.988,51.243,99.97,51.084,99.97z M348.144,300.034h-74.069c-10.354,0-18.747-8.396-18.747-18.747
			c0-10.358,8.396-18.75,18.747-18.75h62.346v-16.683h-62.346c-10.354,0-18.747-8.396-18.747-18.747
			c0-10.358,8.396-18.75,18.747-18.75h62.346v-16.676h-62.346c-10.354,0-18.747-8.396-18.747-18.75s8.396-18.747,18.747-18.747
			h62.346v-16.683H217.189c-7.694,0-14.295-4.636-17.187-11.264c-2.889,6.629-9.493,11.264-17.184,11.264H63.583v16.683h62.346
			c10.354,0,18.75,8.396,18.75,18.747c0,10.358-8.4,18.75-18.75,18.75H63.583v16.676h62.346c10.354,0,18.75,8.396,18.75,18.75
			s-8.4,18.747-18.75,18.747H63.583v16.683h62.346c10.354,0,18.75,8.396,18.75,18.75s-8.4,18.747-18.75,18.747H51.86
			c-0.473,0-0.938-0.035-1.397-0.071l-23.738-0.176C61.329,359.639,126.035,400,199.995,400
			c73.963,0,138.677-40.361,173.281-100.213l-23.731,0.176C349.078,299.998,348.616,300.034,348.144,300.034z"/>
	</g>
</g>
</svg>
