<?xml version="1.0" encoding="iso-8859-1"?>
<!-- Generator: Adobe Illustrator 17.0.2, SVG Export Plug-In . SVG Version: 6.00 Build 0)  -->
<!DOCTYPE svg PUBLIC "-//W3C//DTD SVG 1.1//EN" "http://www.w3.org/Graphics/SVG/1.1/DTD/svg11.dtd">
<svg version="1.1" xmlns="http://www.w3.org/2000/svg" xmlns:xlink="http://www.w3.org/1999/xlink" x="0px" y="0px" width="400px"
	 height="400px" viewBox="0 0 400 400" style="enable-background:new 0 0 400 400;" xml:space="preserve">
<g id="BK" style="display:none;">
	<rect x="-1100" y="-3080" style="display:inline;fill:#FFFFFF;" width="5100" height="4060"/>
</g>
<g id="Comp">
	<g id="_x31_8">
		<path style="fill:#888888;" d="M73.68,168.419c0-69.65,56.665-126.314,126.314-126.314c69.656,0,126.32,56.665,126.32,126.314
			h42.108C368.422,75.553,292.863,0,199.994,0C107.128,0,31.578,75.553,31.578,168.419v42.105v21.051v0.594h0.006
			C31.905,324.762,107.327,400,199.994,400c92.869,0,168.428-75.559,168.428-168.425v-21.051H73.68V168.419z M199.994,242.148
			c17.444,0,31.582,14.141,31.582,31.582c0,13.731-8.782,25.385-21.024,29.732v54.377c0,5.814-4.715,10.525-10.528,10.525
			s-10.525-4.712-10.525-10.525v-54.356c-12.272-4.331-21.081-16.001-21.081-29.752
			C168.418,256.289,182.556,242.148,199.994,242.148z"/>
	</g>
</g>
</svg>
