<svg xmlns="http://www.w3.org/2000/svg" width="400" height="400" viewBox="0 0 400 400"><g><path fill="#2C001E" d="M400 199.996c0 110.463-89.546 200.002-200.002 200.002C89.536 399.998 0 310.456 0 199.996S89.536.002 199.998.002C310.454.002 400 89.537 400 199.996zm-282.097-97.494c0 27.61 22.394 49.996 50.007 49.996s50.007-22.387 50.007-49.996c0-27.62-22.395-50.003-50.007-50.003-27.61 0-50.007 22.386-50.007 50.002zm199.158 73.234c0-7.31-6.02-13.233-13.447-13.233H142.227c-7.426 0-13.448 5.927-13.448 13.233v38.636l-48.76-32.996c-3.844-3.785-9.633-4.918-14.657-2.868-5.024 2.05-8.3 6.876-8.3 12.227v93.536c0 5.356 3.276 10.182 8.3 12.228 1.665.677 3.41 1.005 5.144 1.005 3.5 0 6.943-1.344 9.51-3.877l48.762-32.996v38.633c0 7.306 6.024 13.233 13.447 13.233h161.386c7.426 0 13.448-5.927 13.448-13.233V175.736zm10.878-73.234c0-27.62-22.387-50.003-50.007-50.003-27.615 0-50.013 22.383-50.013 50.002 0 27.61 22.398 49.996 50.014 49.996 27.62 0 50.008-22.387 50.008-49.996z"/></g></svg>