<?xml version="1.0" encoding="utf-8"?>
<!-- Generator: Adobe Illustrator 17.0.2, SVG Export Plug-In . SVG Version: 6.00 Build 0)  -->
<!DOCTYPE svg PUBLIC "-//W3C//DTD SVG 1.1//EN" "http://www.w3.org/Graphics/SVG/1.1/DTD/svg11.dtd">
<svg version="1.1" xmlns="http://www.w3.org/2000/svg" xmlns:xlink="http://www.w3.org/1999/xlink" x="0px" y="0px" width="400px"
	 height="400px" viewBox="0 0 400 400" enable-background="new 0 0 400 400" xml:space="preserve">
<g id="BK" display="none">
	<rect x="-1100" y="-3580" display="inline" fill="#FFFFFF" width="5100" height="4060"/>
</g>
<g id="Comp">
	<g id="_x38_">
		<path fill="#5E2750" d="M199.998,0.004C89.718,0.004,0,89.721,0,199.995c0,110.277,89.718,200.002,199.998,200.002
			S400,310.272,400,199.995S310.279,0.004,199.998,0.004z M337.601,275.312c0,13.804-11.194,24.998-25.001,24.998h-99.948v36.801
			h25.001c6.904,0,12.499,5.595,12.499,12.499c0,6.9-5.595,12.499-12.499,12.499h-75c-6.904,0-12.499-5.599-12.499-12.499
			c0-6.904,5.595-12.499,12.499-12.499h25.001V300.31H87.608c-13.804,0-25.001-11.194-25.001-24.998V125.319
			c0-13.808,11.197-25.001,25.001-25.001h224.996c13.808,0,25.001,11.194,25.001,25.001v149.993H337.601z"/>
		<circle fill="#5E2750" cx="318.703" cy="187.503" r="12.499"/>
		<circle fill="#5E2750" cx="318.703" cy="150.007" r="12.499"/>
		<rect x="100.107" y="137.818" fill="#5E2750" width="199.998" height="124.995"/>
	</g>
</g>
</svg>
