<?xml version="1.0" encoding="utf-8"?>
<!-- Generator: Adobe Illustrator 17.0.2, SVG Export Plug-In . SVG Version: 6.00 Build 0)  -->
<!DOCTYPE svg PUBLIC "-//W3C//DTD SVG 1.1//EN" "http://www.w3.org/Graphics/SVG/1.1/DTD/svg11.dtd">
<svg version="1.1" xmlns="http://www.w3.org/2000/svg" xmlns:xlink="http://www.w3.org/1999/xlink" x="0px" y="0px" width="400px"
	 height="400px" viewBox="0 0 400 400" enable-background="new 0 0 400 400" xml:space="preserve">
<g id="BK" display="none">
	<rect x="-2100" y="-2580" display="inline" fill="#FFFFFF" width="5100" height="4060"/>
</g>
<g id="Comp">
	<g id="_x32_6">
		<path fill="#5E2750" d="M102.225,187.076c0,4.53-3.672,8.206-8.209,8.206c-4.533,0-8.202-3.676-8.202-8.206
			c0-4.53,3.672-8.206,8.202-8.206C98.553,178.874,102.225,182.546,102.225,187.076z M117.688,178.874
			c-4.53,0-8.206,3.676-8.206,8.206s3.676,8.206,8.206,8.206c4.533,0,8.209-3.676,8.209-8.206S122.221,178.874,117.688,178.874z
			 M400,200.002C400,310.461,310.457,400,200.002,400S0,310.461,0,200.002S89.543,0,200.002,0S400,89.546,400,200.002z
			 M122.044,152.57h155.908V50h-12.298v8.181h4.075v8.202h-16.411v-8.202h4.128V50h-16.408v8.181h4.075v8.202h-16.411v-8.202h4.131
			V50h-16.408v8.181h4.071v8.202h-16.411v-8.202h4.135V50h-16.411v8.181h4.071v8.202h-16.411v-8.202h4.131V50H167.19v8.181h4.075
			v8.202H154.85v-8.202h4.135V50h-16.411v8.181h4.138v8.202h-16.415v-8.202h4.071V50h-12.316V152.57H122.044z M265.894,277.232
			H134.603v32.77h131.291V277.232z M331.289,178.712c0-9.066-7.348-16.411-16.411-16.411H85.119
			c-9.063,0-16.408,7.348-16.408,16.411v114.876c0,9.063,7.345,16.415,16.408,16.415h33.073v-40.975
			c0-4.526,3.676-8.206,8.206-8.206H274.1c4.526,0,8.202,3.68,8.202,8.206v40.975h32.572c9.063,0,16.411-7.352,16.411-16.415
			V178.712H331.289z"/>
	</g>
</g>
</svg>
