<?xml version="1.0" encoding="utf-8"?>
<!-- Generator: Adobe Illustrator 17.0.2, SVG Export Plug-In . SVG Version: 6.00 Build 0)  -->
<!DOCTYPE svg PUBLIC "-//W3C//DTD SVG 1.1//EN" "http://www.w3.org/Graphics/SVG/1.1/DTD/svg11.dtd">
<svg version="1.1" xmlns="http://www.w3.org/2000/svg" xmlns:xlink="http://www.w3.org/1999/xlink" x="0px" y="0px" width="400px"
	 height="400px" viewBox="0 0 400 400" enable-background="new 0 0 400 400" xml:space="preserve">
<g id="BK" display="none">
	<rect x="-3100" y="-1580" display="inline" fill="#FFFFFF" width="5100" height="4060"/>
</g>
<g id="Comp">
	<g id="_x34_4">
		<path fill="#2C001E" d="M162.44,137.562c0,6.9-5.595,12.502-12.506,12.502c-6.897,0-12.492-5.602-12.492-12.502
			c0-6.907,5.595-12.499,12.492-12.499C156.845,125.063,162.44,130.658,162.44,137.562"/>
		<path fill="#2C001E" d="M199.986,0c-23.682,0-46.418,4.149-67.529,11.747c79.636,26.381,137.255,101.543,137.255,189.918
			c0,0.469-0.018,0.942-0.042,1.422c-0.709,13.173-11.621,23.633-24.963,23.633h-62.509v48.535h-7.264
			c-6.907,0-12.502,5.595-12.502,12.502c0,6.9,5.595,12.502,12.502,12.502h7.264v52.945c0,8.915-4.752,17.166-12.478,21.639
			c-10.382,6.008-21.276,11.024-32.512,15.046C156.972,396.437,178.079,400,199.986,400C310.275,400,400,310.282,400,200.004
			C400,89.718,310.275,0,199.986,0z M225.075,300.213c-6.914,0-12.495-5.595-12.495-12.495c0-6.907,5.581-12.502,12.495-12.502
			c6.897,0,12.499,5.595,12.499,12.502C237.574,294.618,231.972,300.213,225.075,300.213z M275.008,300.213
			c-6.907,0-12.495-5.595-12.495-12.495c0-6.907,5.588-12.502,12.495-12.502s12.502,5.595,12.502,12.502
			C287.51,294.618,281.915,300.213,275.008,300.213z M325.299,300.213c-6.904,0-12.495-5.595-12.495-12.495
			c0-6.907,5.592-12.502,12.495-12.502c6.907,0,12.502,5.595,12.502,12.502C337.802,294.618,332.207,300.213,325.299,300.213z"/>
		<path fill="#2C001E" d="M149.969,100.048c20.68,0,37.5,16.824,37.5,37.497c0,20.673-16.82,37.497-37.5,37.497
			c-20.673,0-37.5-16.82-37.5-37.497S129.296,100.048,149.969,100.048 M87.468,137.548c0,34.459,28.039,62.494,62.502,62.494
			s62.509-28.035,62.509-62.494c0-34.463-28.042-62.502-62.494-62.502H43.96c-6.322,7.87-12.058,16.228-17.145,25.001h73.187
			C92.142,110.497,87.468,123.486,87.468,137.548"/>
	</g>
</g>
</svg>
