<svg xmlns="http://www.w3.org/2000/svg" width="400" height="400" viewBox="0 0 400 400"><g><path fill="#DD4814" d="M247.587 114.175c0 5.257-4.266 9.536-9.517 9.536-5.27 0-9.542-4.278-9.542-9.535 0-5.262 4.27-9.52 9.542-9.52 5.25-.003 9.517 4.255 9.517 9.52zM400 180.923v33.37c0 10.523-8.532 19.058-19.062 19.058-10.52 0-19.067-8.53-19.067-19.058 0-6.26-4.046-11.58-9.657-13.52-3.394 51.1-31.83 97.59-75.91 123.055 2.927.005 5.67.678 8.13 1.86 6.515 3.016 11.03 9.606 11.048 17.26.015 9.886-7.502 18.05-17.17 19h-.017c-.502.047-1.02.087-1.53.09h-.082c-.066 0-.112 0-.174.005H123.73c-10.51-.057-18.988-8.59-18.972-19.094.027-10.514 8.556-19.024 19.06-19.024h.083c-.007-.005-.037-.105-.058-.14-44.077-25.542-72.467-72.046-75.856-123.09-5.724 1.877-9.866 7.264-9.866 13.595 0 10.523-8.54 19.058-19.064 19.058C8.526 233.348 0 224.818 0 214.29v-33.37c0-5.056 2.006-9.905 5.578-13.477 3.575-3.577 8.427-5.586 13.476-5.586h.005l31.275.016C63.745 91.4 125.795 37.957 200.1 37.957S336.47 91.4 349.886 161.872l31.05-.016h.008c5.052 0 9.893 2.01 13.476 5.586 3.57 3.575 5.58 8.427 5.58 13.48zm-190.434-.237c0-5.268-4.266-9.534-9.507-9.534-5.27 0-9.543 4.266-9.543 9.534v28.59c0 5.25 4.27 9.52 9.542 9.52 5.24 0 9.506-4.27 9.506-9.52v-28.59zm85.7-66.565c0-30.26-25.585-54.792-57.156-54.792-14.634 0-27.966 5.265-38.078 13.93-10.11-8.665-23.457-13.93-38.07-13.93-31.584 0-57.19 24.532-57.19 54.793 0 30.26 25.605 54.797 57.19 54.797 14.615 0 27.958-5.276 38.07-13.937 10.11 8.66 23.444 13.937 38.078 13.937 31.57 0 57.156-24.538 57.156-54.796zm-133.354-9.468c-5.268 0-9.53 4.258-9.53 9.52 0 5.257 4.265 9.536 9.53 9.536 5.262 0 9.523-4.28 9.523-9.536 0-5.262-4.26-9.52-9.523-9.52z"/></g></svg>