<?xml version="1.0" encoding="utf-8"?>
<!-- Generator: Adobe Illustrator 17.0.2, SVG Export Plug-In . SVG Version: 6.00 Build 0)  -->
<!DOCTYPE svg PUBLIC "-//W3C//DTD SVG 1.1//EN" "http://www.w3.org/Graphics/SVG/1.1/DTD/svg11.dtd">
<svg version="1.1" xmlns="http://www.w3.org/2000/svg" xmlns:xlink="http://www.w3.org/1999/xlink" x="0px" y="0px" width="400px"
	 height="400px" viewBox="0 0 400 400" enable-background="new 0 0 400 400" xml:space="preserve">
<g id="BK" display="none">
	<rect x="-600" y="-80" display="inline" fill="#FFFFFF" width="5100" height="4060"/>
</g>
<g id="Comp">
	<g>
		<path fill="#DD4814" d="M400,200c0,110.447-89.541,200-200,200S0,310.447,0,200C0,89.542,89.547,0,200,0
			C310.459,0,400,89.542,400,200z"/>
		<g>
			<path fill="#FFFFFF" d="M64.006,173.284c-14.753,0-26.703,11.962-26.703,26.716c0,14.744,11.95,26.697,26.703,26.697
				c14.744,0,26.699-11.953,26.699-26.697C90.705,185.245,78.75,173.284,64.006,173.284z"/>
			<path fill="#FFFFFF" d="M254.654,294.651c-12.766,7.378-17.147,23.7-9.766,36.465c7.367,12.768,23.684,17.157,36.457,9.78
				c12.77-7.378,17.15-23.706,9.777-36.479C283.749,291.663,267.422,287.288,254.654,294.651z"/>
			<path fill="#FFFFFF" d="M122.007,200c0-26.384,13.106-49.696,33.165-63.817l-19.523-32.704
				c-23.364,15.62-40.747,39.49-47.97,67.422c8.43,6.889,13.824,17.361,13.824,29.099c0,11.719-5.394,22.193-13.824,29.085
				c7.219,27.947,24.603,51.811,47.97,67.436l19.523-32.715C135.113,249.696,122.007,226.398,122.007,200z"/>
			<path fill="#FFFFFF" d="M200,121.995c40.749,0,74.176,31.241,77.687,71.085l38.053-0.558
				c-1.876-29.419-14.724-55.823-34.469-75.235c-10.154,3.826-21.881,3.251-32.016-2.603c-10.156-5.859-16.522-15.74-18.263-26.476
				C221.123,85.491,210.74,84.01,200,84.01c-18.456,0-35.914,4.327-51.408,11.997l18.552,33.248
				C177.133,124.609,188.262,121.995,200,121.995z"/>
			<path fill="#FFFFFF" d="M200,277.991c-11.738,0-22.867-2.609-32.85-7.251l-18.557,33.242
				c15.498,7.681,32.952,12.025,51.408,12.025c10.74,0,21.129-1.498,30.991-4.232c1.741-10.723,8.11-20.603,18.263-26.471
				c10.144-5.851,21.863-6.434,32.016-2.606c19.745-19.414,32.592-45.817,34.469-75.234l-38.069-0.552
				C274.176,246.76,240.749,277.991,200,277.991z"/>
			<path fill="#FFFFFF" d="M254.648,105.335c12.773,7.363,29.098,3.003,36.464-9.766c7.382-12.776,3.009-29.09-9.766-36.467
				c-12.773-7.38-29.091-3.005-36.472,9.768C237.507,81.641,241.888,97.96,254.648,105.335z"/>
		</g>
	</g>
</g>
<g id="nyt_x5F_exporter_x5F_info" display="none">
</g>
</svg>
