<svg xmlns="http://www.w3.org/2000/svg" width="400" height="400" viewBox="0 0 400 400"><g><path fill="#DD4814" d="M182.53 220.946c4.885 4.882 11.277 7.32 17.677 7.32 6.396 0 12.792-2.438 17.67-7.32l44.68-44.68v86.195h-125v-86.49l44.972 44.976zM300.09 26.85c-7.737-4.48-17.273-4.487-25.017-.025-7.744 4.463-12.517 12.72-12.517 21.66v75.708l-44.68-44.673c-9.754-9.76-25.58-9.76-35.35 0l-44.97 44.972V48.426c0-8.936-4.77-17.19-12.507-21.66-7.737-4.46-17.27-4.46-25.006.013C38.344 62.46 0 128.827 0 199.987 0 310.27 89.726 400 200.002 400S400 310.27 400 199.988c0-71.093-38.28-137.436-99.91-173.138"/></g></svg>