<?xml version="1.0" encoding="utf-8"?>
<!-- Generator: Adobe Illustrator 17.0.2, SVG Export Plug-In . SVG Version: 6.00 Build 0)  -->
<!DOCTYPE svg PUBLIC "-//W3C//DTD SVG 1.1//EN" "http://www.w3.org/Graphics/SVG/1.1/DTD/svg11.dtd">
<svg version="1.1" xmlns="http://www.w3.org/2000/svg" xmlns:xlink="http://www.w3.org/1999/xlink" x="0px" y="0px" width="400px"
	 height="400px" viewBox="0 0 400 400" enable-background="new 0 0 400 400" xml:space="preserve">
<g id="BK" display="none">
	<rect x="-100" y="-580" display="inline" fill="#FFFFFF" width="5100" height="4060"/>
</g>
<g id="Comp">
	<g id="_x37_0">
		<path fill="#2C001E" d="M337.249,300.323h35.664C338.23,359.867,273.737,400,200,400c-73.708,0-138.181-40.105-172.874-99.61
			h72.671c10.354,0,18.751-8.396,18.751-18.751s-8.4-18.747-18.751-18.747H10.185c-1.813-5.461-3.39-11.021-4.742-16.68h94.354
			c10.354,0,18.751-8.396,18.751-18.747c0-10.361-8.4-18.747-18.751-18.747H0.222C0.092,205.825,0,202.918,0,199.997
			c0-2.667,0.092-5.317,0.205-7.959h99.596c10.354,0,18.751-8.396,18.751-18.751s-8.4-18.747-18.751-18.747H5.271
			c1.323-5.659,2.865-11.226,4.657-16.683h89.87c10.354,0,18.751-8.396,18.751-18.754c0-10.351-8.4-18.747-18.751-18.747H26.699
			C61.287,40.437,125.988,0,200,0c74.008,0,138.696,40.43,173.294,100.33h-36.073l0.159,0.025H168.528
			c-10.358,0-18.751,8.4-18.751,18.747c0,10.361,8.396,18.754,18.751,18.754h90.66c-4.142,5.161-7.783,10.742-10.848,16.673v0.011
			h-79.812c-10.358,0-18.751,8.396-18.751,18.747c0,10.358,8.396,18.751,18.751,18.751h69.03c-0.222,2.727-0.342,5.493-0.342,8.287
			c0.007,2.833,0.123,5.627,0.36,8.393h-0.007h-69.041c-10.358,0-18.751,8.389-18.751,18.747c0,10.354,8.396,18.747,18.751,18.747
			h79.854v-0.011c3.073,5.937,6.728,11.522,10.887,16.687h-90.741c-10.358,0-18.751,8.396-18.751,18.747
			c0,10.358,8.396,18.751,18.751,18.751h168.856L337.249,300.323z M385.769,178.064c-7.292,7.352-19.167,7.387-26.512,0.092
			c-5.895-5.86-13.72-9.084-22.032-9.084c-17.23,0-31.254,14.02-31.254,31.243c0,10.358-8.396,18.754-18.747,18.754
			c-10.358,0-18.751-8.396-18.751-18.754c0-37.911,30.841-68.745,68.755-68.745c18.282,0,35.491,7.098,48.456,19.982
			C393.033,158.847,393.068,170.718,385.769,178.064z M299.758,200.314c0-6.904-5.602-12.499-12.499-12.499
			c-6.904,0-12.503,5.595-12.503,12.499c0,6.908,5.599,12.496,12.503,12.496C294.156,212.81,299.758,207.218,299.758,200.314z
			 M109.834,118.668c0-5.179-4.195-9.374-9.374-9.374c-5.182,0-9.374,4.195-9.374,9.374c0,5.175,4.191,9.374,9.374,9.374
			C105.636,128.041,109.834,123.843,109.834,118.668 M109.834,172.708c0-5.179-4.195-9.374-9.374-9.374
			c-5.182,0-9.374,4.195-9.374,9.374s4.191,9.374,9.374,9.374C105.636,182.082,109.834,177.884,109.834,172.708 M109.834,226.745
			c0-5.182-4.195-9.374-9.374-9.374c-5.182,0-9.374,4.191-9.374,9.374c0,5.179,4.191,9.37,9.374,9.37
			C105.636,236.119,109.834,231.924,109.834,226.745 M109.834,280.785c0-5.179-4.195-9.374-9.374-9.374
			c-5.182,0-9.374,4.195-9.374,9.374c0,5.182,4.191,9.374,9.374,9.374C105.636,290.159,109.834,285.968,109.834,280.785"/>
	</g>
</g>
</svg>
