<?xml version="1.0" encoding="utf-8"?>
<!-- Generator: Adobe Illustrator 17.0.2, SVG Export Plug-In . SVG Version: 6.00 Build 0)  -->
<!DOCTYPE svg PUBLIC "-//W3C//DTD SVG 1.1//EN" "http://www.w3.org/Graphics/SVG/1.1/DTD/svg11.dtd">
<svg version="1.1" xmlns="http://www.w3.org/2000/svg" xmlns:xlink="http://www.w3.org/1999/xlink" x="0px" y="0px" width="400px"
	 height="400px" viewBox="0 0 400 400" enable-background="new 0 0 400 400" xml:space="preserve">
<g id="BK" display="none">
	<rect x="-600" y="-1580" display="inline" fill="#FFFFFF" width="5100" height="4060"/>
</g>
<g id="Comp">
	<g id="_x34_9">
		<path fill="#5E2750" d="M120.076,281.506l29.979-34.393v34.393H120.076z M400,199.997c0,0.166,0,0.339,0,0.515
			c-0.24,13.6-11.342,24.55-24.998,24.55h-62.509v41.625c0-0.004-24.963-0.004-24.963-0.004c-16.722,0-30.325-13.603-30.325-30.329
			c0-10.862-8.812-19.671-19.678-19.671c-10.866,0-19.671,8.809-19.671,19.671c0,38.425,31.253,71.833,69.674,71.833h24.963v43.346
			c0,8.922-4.756,17.166-12.471,21.643c-30.332,17.547-64.919,26.825-100.02,26.825C89.716,400.002,0,310.276,0,199.993
			C0,89.714,89.719-0.002,200.002-0.002S400,89.717,400,199.997z M106.31,72.442c0,4.494-5.119,6.967-8.297,8.904
			c-7.849,4.763-16.669,9.437-21.774,16.581c-3.006,4.138-4.77,9.253-4.41,15.162h53.164v-14.99H97.219v-0.088
			c11.554-7.056,26.892-11.991,26.892-27.686c0-13.056-10.135-19.315-25.04-19.315c-16.496,0-26.981,9.701-26.01,26.543h16.577
			c-0.18-7.497,2.198-12.608,9.253-12.608C103.044,64.945,106.31,66.889,106.31,72.442z M30.593,164.581h87.225V137.6H30.593
			V164.581z M117.818,207.091v-26.988H30.593v26.988H117.818z M203.318,281.506h-16.577v-68.425H151.65l-56.085,65.257v33.151
			h54.494v24.338h36.682v-24.338h16.577L203.318,281.506L203.318,281.506z M212.448,131.074h-18.203V164.8h-0.102
			c-8.565-14.023-14.566-32.65-33.616-32.65c-15.854,0-23.453,12.309-23.453,30.403c0,20.031,11.783,32.763,32.226,31.584v-20.13
			c-9.095,0.219-15.304-2.674-15.304-11.236c0-5.041,2.357-8.996,9.095-8.996c5.465,0,8.46,6.202,10.809,10.065
			c5.789,9.525,11.458,20.228,20.133,26.444c5.038,3.641,11.24,5.779,18.419,5.355v-64.566H212.448z M237.375,56.154h-30.477V25.677
			h-26.494v30.477h-30.484v26.49h30.484v30.484h26.494V82.644h30.477V56.154z M287.026,137.861c0-6.904-5.595-12.499-12.499-12.499
			c-6.904,0-12.499,5.595-12.499,12.499s5.595,12.499,12.499,12.499C281.431,150.36,287.026,144.765,287.026,137.861z"/>
	</g>
</g>
</svg>
