<?xml version="1.0" encoding="utf-8"?>
<!-- Generator: Adobe Illustrator 17.0.2, SVG Export Plug-In . SVG Version: 6.00 Build 0)  -->
<!DOCTYPE svg PUBLIC "-//W3C//DTD SVG 1.1//EN" "http://www.w3.org/Graphics/SVG/1.1/DTD/svg11.dtd">
<svg version="1.1" xmlns="http://www.w3.org/2000/svg" xmlns:xlink="http://www.w3.org/1999/xlink" x="0px" y="0px" width="400px"
	 height="400px" viewBox="0 0 400 400" enable-background="new 0 0 400 400" xml:space="preserve">
<g id="BK" display="none">
	<rect x="-600" y="-2080" display="inline" fill="#FFFFFF" width="5100" height="4060"/>
</g>
<g id="Comp">
	<g id="_x33_9">
		<path fill="#5E2750" d="M199.998-0.002C89.721-0.002,0,89.719,0,199.996c0,0.473,0.018,0.952,0.042,1.422
			c0.709,13.18,11.613,23.646,24.969,23.646h62.497v50.016h12.64c6.9,0,12.499,5.599,12.499,12.499
			c0,6.911-5.599,12.499-12.499,12.499h-12.64v51.463c0,8.922,4.755,17.166,12.474,21.636
			c30.324,17.554,64.907,26.825,100.019,26.825C310.283,400.002,400,310.288,400,200C400,89.719,310.279-0.002,199.998-0.002z
			 M199.145,344.175c-18.316,0-33.902-15.198-33.902-33.895c0-18.312,15.586-33.905,33.902-33.905s33.909,15.593,33.909,33.905
			C233.057,328.978,217.464,344.175,199.145,344.175z M229.557,221.413v7.8c0,17.924-12.478,30.406-30.413,30.406
			c-17.921,0-30.402-12.481-30.402-30.406v-31.185c0-21.047,14.806-22.994,30.787-25.724c18.316-3.507,29.63-11.684,29.63-29.622
			c0-12.072-10.53-25.333-28.448-25.333c-34.685,0-29.63,35.083-60.808,35.083c-15.586,0-28.042-13.645-28.042-29.241
			c0-44.033,50.277-68.978,88.853-68.978c51.445,0,96.244,31.961,96.244,86.521C296.955,190.613,268.528,213.621,229.557,221.413z"
			/>
	</g>
</g>
</svg>
