<?xml version="1.0" encoding="utf-8"?>
<!-- Generator: Adobe Illustrator 17.0.2, SVG Export Plug-In . SVG Version: 6.00 Build 0)  -->
<!DOCTYPE svg PUBLIC "-//W3C//DTD SVG 1.1//EN" "http://www.w3.org/Graphics/SVG/1.1/DTD/svg11.dtd">
<svg version="1.1" xmlns="http://www.w3.org/2000/svg" xmlns:xlink="http://www.w3.org/1999/xlink" x="0px" y="0px" width="400px"
	 height="400px" viewBox="0 0 400 400" enable-background="new 0 0 400 400" xml:space="preserve">
<g id="BK" display="none">
	<rect x="-2600" y="-2080" display="inline" fill="#FFFFFF" width="5100" height="4060"/>
</g>
<g id="Comp">
	<g id="_x33_5">
		<path fill="#DD4814" d="M200,0C89.545,0,0,89.542,0,199.996S89.545,400,200,400c110.458,0,200-89.549,200-200.004S310.458,0,200,0
			z M306.708,182.936v137.065H78.267V182.929h0.004l35.01-102.926h228.444L306.708,182.936z M102.196,165.805l23.361-68.675h192.242
			l-23.354,68.675H102.196z M221.523,251.435v45.681c0,3.154-2.558,5.715-5.711,5.715h-45.685c-3.154,0-5.708-2.565-5.708-5.715
			v-45.681c0-3.157,2.558-5.715,5.708-5.715h45.685C218.965,245.72,221.523,248.281,221.523,251.435z"/>
	</g>
</g>
</svg>
