<svg xmlns="http://www.w3.org/2000/svg" width="400" height="400" viewBox="0 0 400 400"><g><path d="M297.007 34.454c-18.284.06-35.48 7.21-48.405 20.137-12.986 12.987-20.14 30.252-20.144 48.614 0 18.362 7.154 35.627 20.14 48.613 3.665 3.662 8.46 5.493 13.26 5.493 4.802 0 9.604-1.83 13.262-5.493 7.327-7.32 7.327-19.195 0-26.515-5.898-5.902-9.15-13.748-9.15-22.094s3.252-16.196 9.157-22.098c5.877-5.877 13.69-9.126 22.006-9.155 10.358-.035 18.725-8.456 18.69-18.81-.03-10.362-8.406-18.642-18.816-18.69zm-26.28 95.232c4.88 4.882 4.88 12.795-.003 17.674-4.882 4.882-12.8 4.886-17.678.004-4.89-4.88-4.89-12.795 0-17.678 4.88-4.882 12.8-4.88 17.682 0zm98.366 43.074c-.317.367-.63.734-.977 1.083L248.686 293.24c-3.658 3.663-8.456 5.494-13.257 5.494s-9.6-1.83-13.262-5.493c-7.324-7.32-7.324-19.194 0-26.514l64.142-64.132c-6.668-.72-13.187-2.103-19.487-4.103l-56.452 56.442c-3.66 3.662-8.46 5.493-13.256 5.493-4.8 0-9.6-1.83-13.26-5.493-7.325-7.32-7.325-19.19 0-26.515l48.848-48.84c-2.13-1.802-4.202-3.675-6.198-5.668-1.976-1.977-3.824-4.03-5.6-6.122l-48.848 48.835c-3.662 3.662-8.46 5.493-13.26 5.493-4.8 0-9.6-1.83-13.262-5.493-7.324-7.32-7.324-19.195 0-26.518L202 133.65c-2.025-6.363-3.4-12.882-4.12-19.47l-64.146 64.13c-3.662 3.66-8.463 5.492-13.26 5.492-4.802 0-9.604-1.83-13.262-5.493-7.324-7.32-7.324-19.196 0-26.516L225.844 33.19c.222-.228.43-.468.663-.694l25.615-25.608c-16.806-4.51-34.3-6.886-52.165-6.886-53.435 0-103.674 20.803-141.46 58.58-77.996 77.977-77.996 204.86 0 282.835C96.283 379.193 146.522 400 199.96 400c53.433 0 103.668-20.804 141.45-58.58C379.194 303.648 400 253.423 400 199.998c0-17.667-2.32-34.967-6.735-51.6l-24.172 24.362zM66.978 208.31c9.765-9.768 25.598-9.765 35.362-.004 9.768 9.768 9.768 25.598 0 35.36-9.765 9.764-25.594 9.764-35.362-.005-9.765-9.756-9.765-25.59 0-35.35zm54.137 124.03c-9.765 9.76-25.598 9.76-35.362-.005-9.768-9.765-9.768-25.59-.004-35.352 9.767-9.765 25.6-9.765 35.365 0 9.76 9.762 9.765 25.59 0 35.356zm79.27-8.72c-9.766 9.764-25.6 9.764-35.363 0-9.765-9.766-9.768-25.59-.004-35.353 9.768-9.768 25.605-9.765 35.366 0 9.765 9.76 9.765 25.59 0 35.352z" fill="#888"/></g></svg>