<svg xmlns="http://www.w3.org/2000/svg" width="400" height="400" viewBox="0 0 400 400"><g><path fill="#2C001E" d="M307.365 368.825C275.6 389.092 238.71 400 200.127 400c-38.65 0-75.597-10.943-107.397-31.267 4.565-4.628 7.225-10.922 7.225-17.593v-51.566H87.287c-6.918 0-12.527-5.61-12.527-12.527 0-6.918 5.61-12.527 12.527-12.527h12.668v-50.137h62.64c13.427 0 24.384-10.56 25.026-23.83.026-.427.036-.857.036-1.28 0-71.058-37.19-133.55-93.095-169.163C125.945 10.527 162.218 0 200.128 0c37.857 0 74.084 10.5 105.435 30.032-55.97 35.596-93.212 98.13-93.212 169.236 0 .42.01.847.035 1.273.635 13.273 11.596 23.838 25.026 23.838h62.644v50.137h12.668c6.918 0 12.527 5.61 12.527 12.527 0 6.918-5.61 12.527-12.528 12.527h-12.668v51.565c-.002 6.722 2.686 13.054 7.31 17.69zM350.29 136.52c0-6.92-5.6-12.535-12.523-12.535-6.918 0-12.53 5.616-12.53 12.534s5.612 12.52 12.53 12.52c6.922 0 12.524-5.603 12.524-12.52zM62.233 123.987c-6.918 0-12.524 5.616-12.524 12.534s5.606 12.52 12.524 12.52 12.534-5.602 12.534-12.52-5.616-12.534-12.534-12.534z"/></g></svg>