<?xml version="1.0" encoding="iso-8859-1"?>
<!-- Generator: Adobe Illustrator 17.0.2, SVG Export Plug-In . SVG Version: 6.00 Build 0)  -->
<!DOCTYPE svg PUBLIC "-//W3C//DTD SVG 1.1//EN" "http://www.w3.org/Graphics/SVG/1.1/DTD/svg11.dtd">
<svg version="1.1" xmlns="http://www.w3.org/2000/svg" xmlns:xlink="http://www.w3.org/1999/xlink" x="0px" y="0px" width="400px"
	 height="400px" viewBox="0 0 400 400" style="enable-background:new 0 0 400 400;" xml:space="preserve">
<g id="BK" style="display:none;">
	<rect x="-1100" y="-2580" style="display:inline;fill:#FFFFFF;" width="5100" height="4060"/>
</g>
<g id="Comp">
	<g id="_x32_8">
		<path style="fill:#888888;" d="M341.417,58.579C303.649,20.803,253.427,0,200.009,0C146.584,0,96.362,20.807,58.583,58.586
			C20.807,96.362,0.004,146.587,0,200.005c0,53.425,20.8,103.647,58.576,141.416C96.351,379.2,146.577,400,199.998,400
			s103.647-20.8,141.423-58.576C379.2,303.652,400,253.427,400,200.002C400,146.58,379.197,96.355,341.417,58.579z M36.594,257.322
			l13.028-48.627l35.599,35.596L36.594,257.322z M93.889,235.347l-35.352-35.352L208.98,49.548L244.332,84.9L93.889,235.347z
			 M323.902,270.713l-13.441-13.441l17.53-17.533l-8.844-8.837l-17.523,17.533l-8.841-8.841l26.578-26.575l-8.844-8.844
			l-26.575,26.578l-8.834-8.841l17.523-17.519l-8.834-8.841l-17.53,17.523l-8.841-8.844l26.575-26.568l-8.834-8.841l-26.582,26.575
			l-8.834-8.834l17.526-17.526l-8.841-8.841l-17.53,17.526l-8.834-8.834l26.578-26.586l-8.841-8.837l-26.582,26.582l-13.078-13.078
			l53.03-53.037L376.928,217.68L323.902,270.713z"/>
	</g>
</g>
</svg>
