<?xml version="1.0" encoding="iso-8859-1"?>
<!-- Generator: Adobe Illustrator 17.0.2, SVG Export Plug-In . SVG Version: 6.00 Build 0)  -->
<!DOCTYPE svg PUBLIC "-//W3C//DTD SVG 1.1//EN" "http://www.w3.org/Graphics/SVG/1.1/DTD/svg11.dtd">
<svg version="1.1" xmlns="http://www.w3.org/2000/svg" xmlns:xlink="http://www.w3.org/1999/xlink" x="0px" y="0px" width="400px"
	 height="400px" viewBox="0 0 400 400" style="enable-background:new 0 0 400 400;" xml:space="preserve">
<g id="BK" style="display:none;">
	<rect x="-3100" y="-80" style="display:inline;fill:#FFFFFF;" width="5100" height="4060"/>
</g>
<g id="Comp">
	<g id="_x37_4">
		<path style="fill:#888888;" d="M237.493,187.529H162.5c0.028-20.652,16.835-37.447,37.493-37.447
			C220.659,150.082,237.469,166.874,237.493,187.529z M400,199.996C400,89.718,310.275,0,199.993,0C89.715,0,0,89.718,0,199.996
			c0,57.069,24.031,108.627,62.494,145.101V200.028c0-6.904,5.599-12.499,12.499-12.499h12.502v-12.128h25.001v12.128h25.001
			c0.028-34.438,28.053-62.449,62.498-62.449s62.47,28.007,62.498,62.449h25.005v-12.128h24.998v12.128h12.506
			c6.9,0,12.499,5.595,12.499,12.499v145.066C375.965,308.624,400,257.065,400,199.996z"/>
	</g>
</g>
</svg>
