<?xml version="1.0" encoding="utf-8"?>
<!-- Generator: Adobe Illustrator 17.0.2, SVG Export Plug-In . SVG Version: 6.00 Build 0)  -->
<!DOCTYPE svg PUBLIC "-//W3C//DTD SVG 1.1//EN" "http://www.w3.org/Graphics/SVG/1.1/DTD/svg11.dtd">
<svg version="1.1" xmlns="http://www.w3.org/2000/svg" xmlns:xlink="http://www.w3.org/1999/xlink" x="0px" y="0px" width="400px"
	 height="400px" viewBox="0 0 400 400" enable-background="new 0 0 400 400" xml:space="preserve">
<g id="BK" display="none">
	<rect x="-100" y="-1580" display="inline" fill="#FFFFFF" width="5100" height="4060"/>
</g>
<g id="Comp">
	<g id="_x35_0">
		<path fill="#5E2750" d="M358.39,77.918L182.562,253.742l-35.355-35.359L323.151,42.446C288.12,14.958,245.223,0,199.986,0
			C146.565,0,96.34,20.803,58.568,58.575C20.796,96.351-0.004,146.575,0,199.996c0,53.425,20.803,103.649,58.575,141.425
			c37.775,37.775,88,58.579,141.421,58.579c53.428,0,103.653-20.803,141.428-58.579C379.2,303.642,400,253.418,400,199.996
			C400.004,155.236,385.346,112.751,358.39,77.918z M121.874,278.578l13.028-48.627l35.599,35.599L121.874,278.578z"/>
	</g>
</g>
</svg>
