<svg xmlns="http://www.w3.org/2000/svg" width="400" height="400" viewBox="0 0 400 400"><g><path d="M341.414 58.58C303.642 20.805 253.424 0 200.004 0 146.577 0 96.356 20.805 58.583 58.58 20.808 96.36 0 146.58 0 200.002 0 253.42 20.807 303.648 58.586 341.42 96.36 379.195 146.583 400 200.006 400c53.422 0 103.64-20.804 141.408-58.58C379.194 303.65 400 253.426 400 200.002S379.19 96.352 341.414 58.58zM319.997 340c0 2.76-2.24 5-5 5h-230C82.24 345 80 342.76 80 340V60c0-2.763 2.24-5 4.998-5h230c2.76 0 5 2.24 5 5v280zm-20-217.5h-200V97.502h200V122.5zm0 50h-200v-25h200v25zm0 49.998h-200V197.5h200v24.998zm-70 50H99.995V247.5h130.002v24.998z" fill="#888"/></g></svg>