<svg xmlns="http://www.w3.org/2000/svg" width="400" height="400" viewBox="0 0 400 400"><g><path d="M346.216 0h-32.5c-.167 0-.34.018-.504.024H183.74c-81.898 0-148.528 66.63-148.528 148.53 0 75.594 56.77 138.18 129.913 147.367V400h37.138V295.934c73.145-9.138 129.944-71.684 130.007-147.26 0-.043.003-.08.003-.12V51.467c.005-.136.026-.272.026-.408 0-7.68 6.242-13.928 13.917-13.928 10.257 0 18.572-8.312 18.572-18.566C364.787 8.31 356.47 0 346.215 0zm-126.3 184.708c-15.77 15.765-36.742 24.45-59.054 24.45h-.005c-7.3 0-14.576-.953-21.62-2.832-6.425-1.71-11.442-6.726-13.15-13.152-7.673-28.755.61-59.67 21.623-80.68 15.77-15.77 36.746-24.45 59.055-24.45 7.3 0 14.58.946 21.616 2.83 6.43 1.712 11.44 6.73 13.153 13.15 7.675 28.755-.608 59.666-21.616 80.684zm57.243-138.4c-5.125 0-9.288-4.155-9.288-9.285 0-5.124 4.163-9.282 9.287-9.282 5.126 0 9.283 4.16 9.283 9.283 0 5.13-4.158 9.285-9.284 9.285z" fill="#888"/></g></svg>