<svg xmlns="http://www.w3.org/2000/svg" width="400" height="400" viewBox="0 0 400 400"><g><path fill="#DD4814" d="M50.07 250.016v82.288C17.715 295.744 0 249.24 0 200 0 146.58 20.803 96.36 58.578 58.583S146.578 0 199.998 0C251.683 0 300.334 19.525 337.654 55v170.016c0 11.684-4.547 22.666-12.813 30.93-8.26 8.263-19.25 12.814-30.94 12.814-24.117 0-43.74-19.625-43.75-43.748V112.52c.008-18.366-7.143-35.635-20.128-48.62-12.986-12.986-30.25-20.136-48.616-20.136-37.9 0-68.738 30.84-68.75 68.752v63.55c-35.508 5.907-62.587 36.757-62.587 73.95zM400 200c0-42.34-13.116-82.648-37.345-116.366v141.37c.007 18.363-7.14 35.628-20.13 48.613-12.985 12.986-30.25 20.136-48.618 20.136-37.895 0-68.734-30.84-68.745-68.742V112.51c.004-11.687-4.547-22.676-12.81-30.938-8.265-8.262-19.25-12.813-30.94-12.813-24.117 0-43.74 19.628-43.75 43.755v63.577c35.423 5.993 62.407 36.797 62.407 73.926v149.982c53.395-.018 103.595-20.817 141.35-58.575C379.192 303.645 400 253.42 400 200zm-274.95 87.234c27.57 0 50-22.43 50-50h-25c0 13.784-11.216 25-25 25s-24.997-11.216-24.997-25H75.056c-.003 27.57 22.426 50 49.995 50z"/></g></svg>