<?xml version="1.0" encoding="utf-8"?>
<!-- Generator: Adobe Illustrator 17.0.2, SVG Export Plug-In . SVG Version: 6.00 Build 0)  -->
<!DOCTYPE svg PUBLIC "-//W3C//DTD SVG 1.1//EN" "http://www.w3.org/Graphics/SVG/1.1/DTD/svg11.dtd">
<svg version="1.1" xmlns="http://www.w3.org/2000/svg" xmlns:xlink="http://www.w3.org/1999/xlink" x="0px" y="0px" width="400px"
	 height="400px" viewBox="0 0 400 400" enable-background="new 0 0 400 400" xml:space="preserve">
<g id="BK" display="none">
	<rect x="-4100" y="-3580" display="inline" fill="#FFFFFF" width="5100" height="4060"/>
</g>
<g id="Comp">
	<g id="_x32_">
		<path fill="#2C001E" d="M199.996-0.002C89.718-0.002,0,89.72,0,199.998C0,310.28,89.718,400.002,199.996,400.002
			C310.282,400.002,400,310.28,400,199.998C400.004,89.72,310.282-0.002,199.996-0.002z M199.922,24.739
			c6.904,0,12.499,5.595,12.499,12.499l0.007,50.461c0.004,6.904-5.595,12.499-12.495,12.502c-6.904,0-12.499-5.595-12.502-12.499
			l-0.007-50.461C187.424,30.337,193.019,24.739,199.922,24.739z M37.073,212.592c-6.904,0-12.499-5.599-12.499-12.499
			s5.599-12.499,12.499-12.499h50.288c6.904,0,12.499,5.599,12.499,12.499s-5.599,12.499-12.499,12.499H37.073z M129.169,288.531
			l-35.556,35.556c-2.441,2.438-5.641,3.658-8.841,3.658c-3.2,0-6.396-1.217-8.837-3.658c-4.882-4.879-4.882-12.795,0-17.681
			l35.556-35.556c4.882-4.879,12.795-4.886,17.678,0C134.052,275.732,134.052,283.645,129.169,288.531z M129.296,129.46
			c-2.441,2.441-5.641,3.662-8.841,3.662c-3.2,0-6.396-1.221-8.837-3.662l-35.68-35.68c-4.882-4.882-4.882-12.795,0-17.678
			c4.882-4.879,12.795-4.879,17.678,0l35.68,35.68C134.179,116.662,134.179,124.578,129.296,129.46z M212.425,362.953
			c0,6.904-5.599,12.499-12.499,12.499l0,0c-6.904,0-12.499-5.599-12.499-12.499l0.007-50.295c0-6.9,5.595-12.495,12.499-12.495l0,0
			c6.904,0,12.499,5.599,12.495,12.499L212.425,362.953z M250.207,262.38c0,6.904-5.595,12.499-12.499,12.499H175.21
			c-6.904,0-12.499-5.595-12.499-12.499V149.883c0-6.904,5.595-12.502,12.499-12.502h62.498c6.904,0,12.499,5.599,12.499,12.502
			V262.38z M270.562,111.779l35.68-35.683c4.886-4.879,12.799-4.879,17.681,0c4.882,4.882,4.882,12.795,0,17.678l-35.68,35.683
			c-2.441,2.441-5.641,3.662-8.841,3.662c-3.2,0-6.396-1.221-8.841-3.662C265.684,124.574,265.684,116.658,270.562,111.779z
			 M323.927,324.091c-2.441,2.438-5.644,3.658-8.841,3.658c-3.2,0-6.396-1.221-8.841-3.658l-35.556-35.56
			c-4.882-4.886-4.882-12.799,0-17.681c4.886-4.879,12.799-4.879,17.681,0l35.556,35.56
			C328.81,311.296,328.81,319.212,323.927,324.091z M362.789,212.592h-50.465c-6.904,0-12.499-5.599-12.499-12.499
			s5.595-12.499,12.499-12.499h50.465c6.904,0,12.499,5.599,12.499,12.499S369.693,212.592,362.789,212.592z M237.246,163.207
			c0,6.907-5.592,12.502-12.499,12.502c-6.904,0-12.499-5.595-12.499-12.502c0-6.9,5.595-12.502,12.499-12.502
			C231.655,150.705,237.246,156.307,237.246,163.207z"/>
	</g>
</g>
</svg>
