<svg xmlns="http://www.w3.org/2000/svg" width="400" height="400" viewBox="0 0 400 400"><g><path d="M200.002-.004C89.716-.004 0 89.716 0 199.996c0 110.282 89.72 200.008 200.002 200.008 110.275 0 199.998-89.727 199.998-200.01C400 89.717 310.277-.003 200.002-.003zm61.2 180.423h-36.206v100.358c0 13.808-11.197 24.998-24.998 24.998-13.808 0-25.002-11.19-25.002-24.998v-100.36h-36.21c-5.058 0-9.61-3.044-11.546-7.714-1.937-4.678-.868-10.06 2.716-13.628l61.18-61.186c4.885-4.88 12.8-4.88 17.68 0l60.58 60.583c2.64 2.29 4.31 5.666 4.31 9.444 0 6.903-5.6 12.502-12.504 12.502z" fill="#888"/></g></svg>