<svg xmlns="http://www.w3.org/2000/svg" width="400" height="400" viewBox="0 0 400 400"><g><path fill="#5E2750" d="M199.996.002C89.716.002 0 89.72 0 199.998s89.718 200 199.996 200S400 310.276 400 199.998 310.278.002 199.996.002zM347.91 175.177H224.693v-28.092c32.942-7.412 60.448-29.302 75.473-58.62 24.727 22.224 42.023 52.528 47.742 86.712zm-173.215-80.7c-14.52-6.46-26.14-18.282-32.32-32.947 10.247-4.28 21.077-7.43 32.32-9.35v42.296zm50-42.41c11.464 1.91 22.496 5.102 32.934 9.462-6.266 14.876-18.13 26.828-32.936 33.224V52.068zM99.834 88.462c14.93 29.14 42.186 50.94 74.86 58.48v28.237h-122.6c5.718-34.184 23.015-64.488 47.74-86.716zM52.16 225.173h122.534v27.746c-32.706 7.55-59.986 29.386-74.905 58.575-24.61-22.143-41.854-52.3-47.63-86.32zm122.537 122.65c-11.26-1.923-22.11-5.08-32.367-9.37 6.163-14.72 17.812-26.59 32.367-33.062v42.432zm50-42.71c14.84 6.406 26.725 18.408 32.98 33.337-10.45 4.366-21.502 7.566-32.98 9.478v-42.816zm75.522 6.382c-15.014-29.37-42.545-51.297-75.52-58.716v-27.605h123.148c-5.775 34.02-23.018 64.177-47.628 86.32z"/></g></svg>