<svg xmlns="http://www.w3.org/2000/svg" width="400" height="400" viewBox="0 0 400 400"><g><g fill="#2C001E"><path d="M109.793 198.07c0 6.907-5.6 12.5-12.5 12.5-6.91 0-12.505-5.596-12.505-12.5s5.595-12.5 12.506-12.5c6.9 0 12.5 5.596 12.5 12.5"/><path d="M87.617 34.54v65.837-.004c-28.614 5.722-50.176 30.992-50.176 61.3l-.115 75.848c0 34.517 27.976 62.486 62.49 62.486s62.51-27.97 62.51-62.485l.115-75.847c0-30.177-21.386-55.355-49.817-61.218v.004-80.355h-.123C138.937 7.225 168.62 0 200.004 0c73.986 0 138.584 40.175 173.188 99.898l-.194.08H206.25c-10.36 0-18.75 8.397-18.75 18.75s8.39 18.75 18.75 18.75h90.695l-.025-.013c-4.145 5.165-7.79 10.753-10.852 16.687v.01H206.25c-10.36 0-18.75 8.397-18.75 18.75 0 10.355 8.39 18.744 18.75 18.744h69.034-.004c-.222 2.738-.342 5.503-.342 8.297 0 2.82.116 5.616.35 8.386H206.25c-10.36 0-18.75 8.395-18.75 18.746 0 10.36 8.39 18.75 18.75 18.75h79.864v.01c3.076 5.93 6.728 11.516 10.876 16.674v-.004h-90.74c-10.36 0-18.75 8.396-18.75 18.75s8.39 18.747 18.75 18.747h166.857l.092.06C338.604 359.813 273.995 400 200 400 89.544 400 0 310.453 0 199.993c0-68.79 34.732-129.464 87.607-165.46h.01v.008z"/></g></g></svg>