<?xml version="1.0" encoding="utf-8"?>
<!-- Generator: Adobe Illustrator 17.0.2, SVG Export Plug-In . SVG Version: 6.00 Build 0)  -->
<!DOCTYPE svg PUBLIC "-//W3C//DTD SVG 1.1//EN" "http://www.w3.org/Graphics/SVG/1.1/DTD/svg11.dtd">
<svg version="1.1" xmlns="http://www.w3.org/2000/svg" xmlns:xlink="http://www.w3.org/1999/xlink" x="0px" y="0px" width="288px"
	 height="288px" viewBox="0 0 288 288" enable-background="new 0 0 288 288" xml:space="preserve">
<g id="BK">
</g>
<g id="Comp">
	<path fill="#5E2750" d="M144,0C64.472,0,0,64.469,0,144.006c0,44.705,20.378,84.65,52.345,111.066V73.125h33.371v16.628h-8.46
		v16.665h33.33V89.753h-8.208V73.125h33.328v16.628h-8.394v16.665h33.33V89.753h-8.265V73.125h33.319v16.628h-8.387v16.665h33.327
		V89.753h-8.275V73.125h33.295v181.947C267.628,228.662,288,188.711,288,144.006C288.003,64.469,223.531,0,144,0z"/>
	<g>
		<path fill="#5E2750" d="M125.571,251.742c-0.979,0.299-2.21,0.57-3.692,0.815s-3.039,0.367-4.671,0.367
			c-1.688,0-3.196-0.259-4.529-0.775c-1.333-0.516-2.468-1.258-3.406-2.224c-0.938-0.965-1.66-2.135-2.163-3.509
			c-0.503-1.373-0.755-2.917-0.755-4.631c0-1.686,0.211-3.216,0.633-4.59c0.421-1.373,1.04-2.55,1.856-3.529
			c0.816-0.979,1.809-1.733,2.979-2.264c1.169-0.531,2.516-0.796,4.039-0.796c1.033,0,1.944,0.122,2.733,0.367
			s1.469,0.517,2.04,0.816V221.55l4.937-0.816V251.742z M111.414,241.664c0,2.177,0.517,3.883,1.551,5.12
			c1.033,1.238,2.461,1.856,4.283,1.856c0.789,0,1.462-0.033,2.021-0.102c0.557-0.067,1.013-0.143,1.366-0.225v-12.24
			c-0.436-0.299-1.014-0.577-1.733-0.836c-0.722-0.259-1.489-0.388-2.306-0.388c-1.795,0-3.107,0.612-3.938,1.836
			S111.414,239.57,111.414,241.664z"/>
		<path fill="#5E2750" d="M138.954,230.525c1.632,0,3.005,0.204,4.12,0.612s2.006,0.979,2.673,1.714
			c0.666,0.734,1.143,1.625,1.428,2.672c0.286,1.048,0.429,2.197,0.429,3.448v12.934c-0.762,0.163-1.911,0.36-3.448,0.591
			c-1.536,0.231-3.271,0.348-5.201,0.348c-1.279,0-2.448-0.123-3.509-0.367c-1.062-0.245-1.966-0.64-2.714-1.184
			s-1.333-1.251-1.754-2.122c-0.422-0.87-0.633-1.944-0.633-3.223c0-1.224,0.238-2.258,0.714-3.101s1.122-1.53,1.938-2.061
			c0.815-0.53,1.761-0.911,2.835-1.143c1.074-0.23,2.196-0.347,3.366-0.347c0.544,0,1.115,0.034,1.714,0.102
			c0.598,0.068,1.237,0.184,1.918,0.347v-0.815c0-0.571-0.068-1.115-0.204-1.632c-0.137-0.517-0.374-0.973-0.714-1.367
			c-0.341-0.394-0.79-0.7-1.347-0.918c-0.558-0.218-1.259-0.326-2.102-0.326c-1.143,0-2.189,0.081-3.142,0.244
			c-0.952,0.164-1.728,0.354-2.325,0.571l-0.612-3.998c0.626-0.218,1.536-0.435,2.733-0.652S137.594,230.525,138.954,230.525z
			 M139.361,248.927c1.523,0,2.679-0.082,3.469-0.245v-5.467c-0.272-0.082-0.667-0.163-1.184-0.245s-1.088-0.122-1.714-0.122
			c-0.544,0-1.095,0.04-1.652,0.122s-1.061,0.231-1.51,0.449c-0.448,0.218-0.81,0.523-1.081,0.918
			c-0.272,0.395-0.408,0.891-0.408,1.489c0,1.169,0.367,1.979,1.102,2.427C137.118,248.702,138.11,248.927,139.361,248.927z"/>
		<path fill="#5E2750" d="M170.534,231.056c-2.199,8.106-4.752,15.45-7.656,22.032c-0.545,1.225-1.104,2.271-1.675,3.142
			c-0.572,0.87-1.212,1.592-1.92,2.163c-0.708,0.57-1.498,0.985-2.369,1.244c-0.871,0.258-1.879,0.388-3.022,0.388
			c-0.762,0-1.519-0.082-2.267-0.245c-0.749-0.163-1.313-0.341-1.695-0.53l0.897-3.958c0.984,0.381,1.954,0.571,2.91,0.571
			c1.284,0,2.288-0.306,3.013-0.918c0.724-0.611,1.359-1.558,1.906-2.835c-1.558-2.992-3.054-6.256-4.487-9.792
			c-1.435-3.536-2.712-7.29-3.831-11.262h5.264c0.272,1.143,0.606,2.381,1.003,3.713c0.396,1.333,0.826,2.687,1.29,4.06
			c0.465,1.374,0.955,2.741,1.475,4.101c0.519,1.36,1.037,2.625,1.557,3.795c0.866-2.421,1.679-4.998,2.437-7.731
			c0.759-2.734,1.449-5.379,2.071-7.937H170.534z"/>
		<path fill="#5E2750" d="M179.632,248.845c1.306,0,2.258-0.156,2.856-0.469c0.598-0.312,0.897-0.85,0.897-1.612
			c0-0.706-0.32-1.291-0.959-1.754c-0.64-0.462-1.693-0.965-3.162-1.51c-0.897-0.326-1.721-0.673-2.469-1.04
			s-1.394-0.796-1.938-1.285c-0.545-0.49-0.973-1.081-1.285-1.775c-0.313-0.693-0.47-1.543-0.47-2.55
			c0-1.958,0.721-3.502,2.163-4.631c1.441-1.128,3.399-1.693,5.875-1.693c1.251,0,2.448,0.116,3.59,0.347
			c1.143,0.231,2,0.456,2.571,0.674l-0.898,3.998c-0.544-0.244-1.237-0.469-2.08-0.673c-0.844-0.204-1.823-0.307-2.938-0.307
			c-1.007,0-1.823,0.171-2.448,0.511c-0.626,0.34-0.938,0.863-0.938,1.57c0,0.354,0.062,0.667,0.184,0.938
			c0.122,0.272,0.333,0.524,0.632,0.755c0.3,0.231,0.694,0.463,1.184,0.693c0.489,0.231,1.088,0.47,1.795,0.714
			c1.17,0.436,2.163,0.864,2.979,1.285c0.816,0.423,1.489,0.898,2.02,1.429s0.918,1.136,1.163,1.815s0.367,1.496,0.367,2.448
			c0,2.04-0.755,3.584-2.265,4.631s-3.665,1.57-6.467,1.57c-1.877,0-3.386-0.156-4.528-0.469s-1.945-0.564-2.407-0.755l0.856-4.121
			c0.734,0.3,1.611,0.585,2.632,0.856C177.163,248.709,178.326,248.845,179.632,248.845z"/>
	</g>
	<path fill="#5E2750" d="M183.898,211.883h-74.997c-12.426,0-22.502-10.075-22.502-22.5c0-11.963,9.328-21.736,21.107-22.458
		c-5.263-10.556-1.461-23.527,8.894-29.51c10.356-5.976,23.487-2.784,29.999,7.056c6.52-9.836,19.641-13.032,30.002-7.049
		c10.355,5.979,14.155,18.947,8.894,29.506c11.778,0.719,21.105,10.496,21.105,22.458
		C206.4,201.808,196.323,211.883,183.898,211.883z M151.858,191c-0.32,0.78-0.831,1.47-1.53,2.07c-0.7,0.6-1.61,1.07-2.729,1.41
		c-1.12,0.34-2.46,0.51-4.021,0.51c-2.279,0-4.21-0.23-5.79-0.69c-1.58-0.459-2.79-0.89-3.63-1.29l-1.38,6.12
		c0.399,0.2,0.999,0.42,1.8,0.66c0.8,0.24,1.71,0.471,2.73,0.69c1.02,0.22,2.09,0.41,3.21,0.57c1.119,0.159,2.22,0.24,3.3,0.24
		c2.68,0,5.02-0.33,7.021-0.99c1.999-0.66,3.659-1.569,4.979-2.73c1.32-1.16,2.3-2.54,2.94-4.14c0.639-1.6,0.96-3.339,0.96-5.22
		c0-4.119-1.41-7.37-4.23-9.75c-2.82-2.379-7.19-3.729-13.11-4.05c0.08-0.56,0.16-1.239,0.24-2.04c0.08-0.8,0.15-1.64,0.21-2.52
		c0.061-0.879,0.12-1.75,0.181-2.61c0.06-0.86,0.109-1.629,0.149-2.31h15.061v-6.12h-21.24c-0.16,3.48-0.36,6.951-0.601,10.41
		c-0.239,3.46-0.58,7.11-1.02,10.95c3.319,0,6.069,0.18,8.25,0.54c2.18,0.36,3.92,0.9,5.22,1.62c1.3,0.72,2.21,1.601,2.73,2.64
		c0.52,1.041,0.78,2.22,0.78,3.54C152.339,189.391,152.178,190.22,151.858,191z"/>
</g>
<g id="Grid" display="none">
</g>
</svg>
