<?xml version="1.0" encoding="utf-8"?>
<!-- Generator: Adobe Illustrator 17.0.2, SVG Export Plug-In . SVG Version: 6.00 Build 0)  -->
<!DOCTYPE svg PUBLIC "-//W3C//DTD SVG 1.1//EN" "http://www.w3.org/Graphics/SVG/1.1/DTD/svg11.dtd">
<svg version="1.1" id="Layer_1" xmlns="http://www.w3.org/2000/svg" xmlns:xlink="http://www.w3.org/1999/xlink" x="0px" y="0px"
	 width="217px" height="200px" viewBox="0 0 217 200" enable-background="new 0 0 217 200" xml:space="preserve">
<g id="BK">
</g>
<g id="Comp">
	<path fill="#DD4814" d="M58.842,41.133c2.361,2.36,3.661,5.5,3.661,8.839s-1.301,6.477-3.661,8.838s-5.499,3.661-8.837,3.661
		c-3.339,0-6.478-1.301-8.838-3.661c-2.361-2.362-3.662-5.5-3.662-8.838s1.301-6.476,3.663-8.838c2.361-2.362,5.5-3.662,8.838-3.662
		C53.343,37.472,56.481,38.772,58.842,41.133z M85.355,85.355c-19.527,19.527-51.182,19.527-70.71,0
		c-19.525-19.529-19.526-51.182,0-70.709C34.173-4.88,65.83-4.882,85.355,14.644C104.882,34.173,104.882,65.829,85.355,85.355z
		 M87.469,56.149V43.65H74.198c-0.589-2.268-1.49-4.435-2.692-6.449l9.398-9.4l-8.839-8.838l-9.428,9.428
		c-2.005-1.179-4.161-2.068-6.415-2.643V12.4h-12.5v13.369c-2.246,0.579-4.395,1.469-6.392,2.649l-9.454-9.454l-8.84,8.838
		l9.444,9.444c-1.188,2-2.083,4.152-2.667,6.404H12.471v12.499h13.301c0.574,2.269,1.468,4.439,2.654,6.457l-9.391,9.39l8.84,8.838
		l9.361-9.361c2.023,1.206,4.203,2.113,6.485,2.701v13.224h12.5V74.192c2.29-0.584,4.478-1.489,6.511-2.696l9.335,9.336l8.839-8.838
		l-9.346-9.348c1.198-2.029,2.1-4.214,2.678-6.5H87.47L87.469,56.149L87.469,56.149z"/>
	<path fill="#DD4814" d="M166.978,0c-20.347,0-37.883,12.221-45.689,29.701h21.94c-0.848,0.991-1.637,2.034-2.357,3.126h-20.867
		c-0.743,2.025-1.345,4.115-1.825,6.251h19.509c-0.381,1.019-0.714,2.061-0.988,3.127h-19.126c-0.322,2.045-0.509,4.134-0.574,6.253
		h18.757c-0.026,0.518-0.039,1.038-0.039,1.562c0,0.525,0.014,1.046,0.039,1.564H117c0.065,2.118,0.253,4.208,0.575,6.252h19.128
		c0.274,1.066,0.607,2.108,0.988,3.127h-19.51c0.479,2.137,1.083,4.228,1.825,6.253h20.868c0.721,1.092,1.51,2.136,2.359,3.127
		h-21.942c7.806,17.48,25.34,29.697,45.687,29.697c27.581,0,50.021-22.439,50.021-50.02S194.561,0,166.978,0z M162.294,28.158
		c0-2.59,2.1-4.689,4.689-4.689c2.59,0,4.689,2.1,4.689,4.689v21.977c0,2.59-2.1,4.688-4.689,4.688c-2.59,0-4.689-2.1-4.689-4.688
		V28.158z M183.61,66.633c-4.43,4.43-10.317,6.867-16.579,6.867c-0.001,0-0.001,0-0.002,0c-6.263,0-12.151-2.44-16.579-6.869
		c-8.792-8.792-9.191-22.934-0.909-32.195c1.727-1.931,4.692-2.096,6.621-0.37c1.93,1.727,2.096,4.691,0.37,6.622
		c-4.966,5.555-4.726,14.037,0.55,19.312c2.657,2.658,6.19,4.122,9.948,4.122s7.29-1.463,9.947-4.119
		c5.257-5.258,5.512-13.725,0.582-19.277c-1.719-1.938-1.543-4.902,0.393-6.621c1.937-1.721,4.901-1.544,6.621,0.393
		C192.793,43.756,192.37,57.871,183.61,66.633z"/>
	<path fill="#888888" d="M111.584,200v-21.951c14.063-1.542,25.042-13.488,25.042-27.953v-6.25h-6.241v-21.803
		c0-3.452-2.798-6.249-6.25-6.249s-6.25,2.798-6.25,6.249v21.803h-18.66v-21.803c0-3.452-2.798-6.249-6.25-6.249
		s-6.25,2.798-6.25,6.249v21.803h-6.349v6.25c0,14.438,10.937,26.364,24.959,27.943v21.956c-26.1-1.639-46.835-23.39-46.835-49.899
		c0-27.57,22.43-50,49.999-50c27.57,0,50.001,22.43,50.001,50C158.5,176.631,137.723,198.401,111.584,200z M108.506,171.97
		c8.617,0,15.625-7.009,15.625-15.625h-6.249c0,5.169-4.207,9.376-9.376,9.376s-9.375-4.207-9.375-9.376h-6.249
		C92.882,164.961,99.891,171.97,108.506,171.97L108.506,171.97z"/>
</g>
<g id="Grid" display="none">
</g>
</svg>
