<?xml version="1.0" encoding="utf-8"?>
<!-- Generator: Adobe Illustrator 17.0.2, SVG Export Plug-In . SVG Version: 6.00 Build 0)  -->
<!DOCTYPE svg PUBLIC "-//W3C//DTD SVG 1.1//EN" "http://www.w3.org/Graphics/SVG/1.1/DTD/svg11.dtd">
<svg version="1.1" id="Layer_1" xmlns="http://www.w3.org/2000/svg" xmlns:xlink="http://www.w3.org/1999/xlink" x="0px" y="0px"
	 width="350px" height="340px" viewBox="0 0 350 340" enable-background="new 0 0 350 340" xml:space="preserve">
<g id="BK">
</g>
<g id="Comp">
	<path fill="#DD4814" d="M296.315,89.032c-9.213-9.213-21.377-14.405-34.358-14.695c13.078-23.869,4.748-53.923-18.94-67.599
		c-23.685-13.675-53.874-5.868-68.009,17.383C160.875,0.878,130.682-6.935,107.001,6.739C83.319,20.412,74.995,50.464,88.058,74.325
		C60.855,74.941,39,97.181,39,124.53c0,27.737,22.478,50.221,50.216,50.221l0.017-0.001v0.006h171.393
		c0.059,0.001,0.118,0.002,0.176,0.002h0.003c13.412,0,26.024-5.224,35.51-14.709C315.895,140.469,315.895,108.613,296.315,89.032"
		/>
	<path fill="#FFFFFF" d="M279.676,130.734c2.917,0,5.362-1.992,6.066-4.688c-0.824,13.107-11.742,23.519-25.052,23.519
		c-3.467,0-6.277,2.811-6.277,6.277c0,3.467,2.81,6.276,6.277,6.276c20.767,0,37.662-16.895,37.662-37.662V90.23
		c-6.525-7.341-15.163-12.763-24.954-15.298v49.524C273.398,127.924,276.209,130.734,279.676,130.734"/>
	<path fill="#F0A57F" d="M260.819,86.888c-20.768,0-37.662,16.896-37.662,37.663v50.206l24.952-0.001v-50.205
		c0-3.467-2.81-6.277-6.277-6.277c-2.913,0-5.357,1.989-6.064,4.68c0.827-13.103,11.744-23.511,25.052-23.511
		c3.466,0,6.277-2.81,6.277-6.277C267.096,89.698,264.285,86.888,260.819,86.888"/>
	<path fill="#FFFFFF" d="M261.854,50.266h-4.185c0-21.922-17.835-39.757-39.757-39.757V6.325
		C242.141,6.325,261.854,26.037,261.854,50.266"/>
	<path fill="#F0A57F" d="M217.912,16.787v4.185c16.153,0,29.294,13.141,29.294,29.295h4.184
		C251.39,31.805,236.373,16.787,217.912,16.787"/>
	<path fill="#FFFFFF" d="M180.819,58.693l-12.79-12.789l1.948-1.949c1.226-1.226,1.226-3.213,0-4.439
		c-1.226-1.226-3.213-1.226-4.438,0l-1.949,1.948l-27.159-27.158c-2.452-2.452-6.426-2.452-8.878,0l-31.07,31.071
		c-2.452,2.451-2.452,6.426,0,8.878l44.387,44.387c1.226,1.226,2.832,1.839,4.438,1.839s3.213-0.613,4.439-1.839l31.072-31.071
		c1.177-1.178,1.839-2.774,1.839-4.439C182.657,61.467,181.996,59.87,180.819,58.693"/>
	<path fill="#E25125" d="M141.154,59.131c-4.903,4.903-12.851,4.903-17.755,0c-4.903-4.903-4.904-12.852,0-17.755
		c4.903-4.903,12.852-4.902,17.754,0C146.057,46.281,146.056,54.229,141.154,59.131"/>
	<path fill="#333333" d="M132.275,43.977c-1.676,0-3.253,0.653-4.438,1.838c-2.447,2.448-2.447,6.43,0,8.878
		c1.186,1.186,2.762,1.839,4.439,1.839c1.676,0,3.253-0.653,4.438-1.839c2.447-2.447,2.447-6.429-0.001-8.877
		C135.528,44.63,133.952,43.977,132.275,43.977 M132.277,69.086c-5.03,0-9.759-1.959-13.316-5.516
		c-7.343-7.343-7.343-19.291,0-26.633c3.556-3.556,8.285-5.516,13.315-5.516s9.759,1.959,13.317,5.516
		c7.342,7.343,7.343,19.29,0,26.632C142.035,67.127,137.306,69.086,132.277,69.086"/>
	<path fill="#E25125" d="M172.105,60.878l-2.219-2.22c-1.226-1.225-3.213-1.225-4.439,0l-2.219,2.219
		c-1.226,1.226-1.226,3.213,0,4.439l2.22,2.219c0.613,0.613,1.416,0.919,2.219,0.919s1.606-0.306,2.219-0.919l2.219-2.219
		C173.331,64.091,173.331,62.104,172.105,60.878"/>
	<path fill="#333333" d="M235.858,68.071c4.04-4.04,5.841-9.976,4.94-16.288c-0.819-5.736-3.751-11.379-8.261-15.89
		c-5.401-5.4-12.362-8.497-19.099-8.497c-5.104,0-9.751,1.836-13.085,5.17c-4.039,4.039-5.837,9.976-4.933,16.288
		c0.82,5.735,3.757,11.378,8.267,15.889c3.164,3.164,6.866,5.529,10.743,6.952l-33.475,33.474c-1.545,1.544-2.175,3.781-1.665,5.906
		c0.511,2.124,2.089,3.83,4.167,4.504l27.448,8.904c0.644,0.209,1.296,0.308,1.938,0.308c2.647,0,5.11-1.688,5.97-4.342
		c1.07-3.297-0.736-6.838-4.034-7.908l-17.7-5.741l38.031-38.03C235.366,68.545,235.616,68.313,235.858,68.071"/>
	<path fill="#FFFFFF" d="M120.6,99.413H82.936v-3.138c0-1.733-1.405-3.139-3.138-3.139H57.823c-1.733,0-3.138,1.406-3.138,3.139
		v6.277v43.942c0,1.733,1.405,3.139,3.138,3.139H120.6c1.733,0,3.138-1.406,3.138-3.139v-43.942
		C123.738,100.818,122.333,99.413,120.6,99.413"/>
	<path fill="#F0A985" d="M89.094,102.733c-0.202,0-0.406,0.039-0.6,0.119c-0.587,0.243-0.969,0.815-0.969,1.45v4.625
		c-7.911,0.799-14.107,7.497-14.107,15.614c0,8.654,7.041,15.695,15.695,15.695c8.653,0,15.692-7.041,15.692-15.695
		c0-1.733-1.405-3.138-3.138-3.138c-1.734,0-3.139,1.405-3.139,3.138c0,5.193-4.224,9.418-9.415,9.418
		c-5.193,0-9.417-4.225-9.417-9.418c0-4.652,3.391-8.523,7.83-9.28v4.405c0,0.635,0.383,1.206,0.969,1.45
		c0.194,0.081,0.398,0.12,0.6,0.12c0.409,0,0.81-0.16,1.111-0.459l7.681-7.683c0.613-0.612,0.613-1.606,0-2.219l-7.681-7.681
		C89.904,102.893,89.502,102.733,89.094,102.733"/>
	<path fill="#FFFFFF" d="M189.7,149.639c3.467,0,6.278-2.81,6.278-6.277s-2.811-6.277-6.278-6.277c-3.466,0-6.277,2.81-6.277,6.277
		C183.423,146.828,186.234,149.639,189.7,149.639"/>
	<path fill="#333333" d="M172.912,149.638c3.467,0,6.278-2.811,6.278-6.278s-2.811-6.277-6.278-6.277
		c-3.466,0-6.276,2.81-6.276,6.277S169.447,149.638,172.912,149.638"/>
	<path fill="#333333" d="M156.173,149.638c3.467,0,6.278-2.811,6.278-6.278s-2.81-6.277-6.278-6.277
		c-3.466,0-6.276,2.81-6.276,6.277S152.707,149.638,156.173,149.638"/>
	<path fill="#333333" d="M139.433,149.638c3.467,0,6.278-2.811,6.278-6.278s-2.811-6.277-6.278-6.277
		c-3.466,0-6.276,2.81-6.276,6.277S135.967,149.638,139.433,149.638"/>
	<path fill="#FFFFFF" d="M193.045,79.418c1.226-1.226,1.226-3.213,0-4.439c-1.226-1.226-3.213-1.226-4.439,0
		c-1.225,1.226-1.226,3.213,0,4.438C189.833,80.643,191.82,80.643,193.045,79.418"/>
	<path fill="#FFFFFF" d="M181.209,91.254c1.226-1.226,1.226-3.213,0-4.439c-1.226-1.226-3.213-1.226-4.439,0s-1.226,3.213,0,4.439
		S179.984,92.48,181.209,91.254"/>
	<path fill="#F09F79" d="M167.153,97.733c-0.804,0-1.606,0.306-2.219,0.919c-1.226,1.225-1.226,3.212,0,4.438
		c0.613,0.613,1.416,0.919,2.219,0.919s1.606-0.306,2.219-0.919c1.226-1.226,1.226-3.213,0-4.439
		C168.759,98.039,167.956,97.733,167.153,97.733"/>
	<path fill="#F09F79" d="M155.316,109.569c-0.804,0-1.607,0.306-2.22,0.92c-1.226,1.225-1.226,3.212,0,4.438
		c0.613,0.613,1.416,0.919,2.22,0.919c0.803,0,1.606-0.306,2.219-0.919c1.226-1.226,1.226-3.213,0.001-4.439
		C156.923,109.876,156.119,109.569,155.316,109.569"/>
	<path fill="#333333" d="M270.234,124.552c0,5.202-4.216,9.417-9.415,9.417c-5.202,0-9.418-4.216-9.418-9.417
		c0-5.199,4.216-9.415,9.418-9.415C266.019,115.137,270.234,119.352,270.234,124.552"/>
	<path fill="#333333" d="M244.835,124.552c0,1.735-1.404,3.14-3.137,3.14c-1.734,0-3.14-1.405-3.14-3.14
		c0-1.734,1.407-3.137,3.14-3.137C243.431,121.415,244.835,122.818,244.835,124.552"/>
	<path fill="#DD4814" d="M276.671,124.457c0-1.734,1.405-3.14,3.14-3.14c1.732,0,3.138,1.407,3.138,3.14s-1.405,3.137-3.138,3.137
		C278.076,127.593,276.671,126.189,276.671,124.457"/>
	<path fill="#888888" d="M136.886,340H94.114C80.5,340,80.5,336.597,80.5,319.578c0-7.748,0-55.654,0-62.977
		c0-17.018,0-20.421,13.614-20.421h42.772c13.614,0,13.614,3.404,13.614,20.421c0,7.323,0,55.229,0,62.977
		C150.5,336.597,150.5,340,136.886,340z M142.472,331.342v-86.505H88.527v86.505H142.472z"/>
	<path fill="#888888" d="M31.29,269.038H9.71c-9.21,0-9.21,2.3-9.21,13.799c0,11.499,0,31.865,0,43.364c0,11.5,0,13.799,9.21,13.799
		h21.58c9.21,0,9.21-2.299,9.21-13.799s0-31.865,0-43.364C40.5,271.338,40.5,269.038,31.29,269.038z M34.721,331.359L34.721,331.359
		v0.052H6.28v-53.784h28.44v0.053l0,0L34.721,331.359L34.721,331.359z"/>
	<path fill="#888888" d="M348.984,336.222l-7.544,3.685c-0.126,0.062-0.265,0.093-0.406,0.093H192.672
		c-0.14,0-0.278-0.031-0.404-0.093l-7.544-3.685c-0.385-0.188-0.59-0.618-0.494-1.035c0.097-0.419,0.47-0.714,0.899-0.714H348.58
		c0.429,0,0.802,0.295,0.898,0.714C349.573,335.604,349.369,336.033,348.984,336.222z M342.434,239.251
		c0-1.696-1.375-3.072-3.072-3.072H194.345c-1.697,0-3.073,1.375-3.073,3.072v90.921c0,1.696,1.376,3.072,3.073,3.072h145.017
		c1.697,0,3.072-1.376,3.072-3.072V239.251z M333.414,328.022c0,0.339-0.276,0.614-0.615,0.614H200.908
		c-0.339,0-0.614-0.275-0.614-0.614V246.12c0-0.339,0.274-0.614,0.614-0.614h131.891c0.339,0,0.615,0.275,0.615,0.614V328.022z"/>
	<path fill="#DD4814" d="M28.528,304.628c-0.61-0.61-1.415-0.953-2.274-0.972c0.865-1.58,0.314-3.568-1.253-4.473
		s-3.565-0.388-4.501,1.15c-0.935-1.538-2.933-2.055-4.5-1.15s-2.118,2.894-1.254,4.473c-1.8,0.041-3.246,1.513-3.246,3.322
		c0,1.836,1.488,3.323,3.323,3.323h0.001l0,0h11.342c0.004,0,0.008,0,0.012,0l0,0c0.888,0,1.722-0.346,2.35-0.973
		C29.824,308.032,29.824,305.924,28.528,304.628"/>
	<path fill="#DD4814" d="M133.34,288.333c-1.355-1.355-3.144-2.118-5.053-2.161c1.923-3.51,0.698-7.93-2.785-9.941
		c-3.483-2.011-7.923-0.863-10.001,2.556c-2.078-3.418-6.519-4.567-10.001-2.556c-3.483,2.011-4.707,6.43-2.786,9.939
		c-4,0.091-7.214,3.361-7.214,7.383c0,4.079,3.306,7.385,7.385,7.385h0.003v0.001h25.205c0.009,0,0.017,0,0.026,0l0,0
		c1.972,0,3.827-0.768,5.222-2.163C136.22,295.897,136.22,291.212,133.34,288.333"/>
	<path fill="#DD4814" d="M302.534,288.576c-2.71-2.71-6.287-4.237-10.105-4.322c3.846-7.02,1.396-15.86-5.57-19.882
		s-15.845-1.726-20.003,5.113c-4.157-6.836-13.037-9.134-20.002-5.112s-9.414,12.86-5.572,19.878
		c-8.001,0.181-14.429,6.722-14.429,14.766c0,8.158,6.611,14.771,14.769,14.771h0.005v0.002h50.41c0.017,0,0.035,0.001,0.052,0.001
		h0.001c3.945,0,7.654-1.536,10.444-4.326C308.293,303.704,308.293,294.335,302.534,288.576"/>
	<path fill="#888888" d="M268,231c-0.26,0-0.52-0.11-0.71-0.29c-0.18-0.19-0.29-0.45-0.29-0.71c0-0.26,0.11-0.52,0.29-0.71
		c0.38-0.37,1.04-0.37,1.42,0c0.18,0.19,0.29,0.45,0.29,0.71c0,0.26-0.11,0.52-0.29,0.71C268.52,230.89,268.26,231,268,231z"/>
	<path fill="#888888" d="M267,226.04c0-0.55,0.45-1,1-1l0,0c0.55,0,1,0.45,1,1l0,0c0,0.55-0.45,1-1,1l0,0
		C267.45,227.04,267,226.59,267,226.04z M267,222.08c0-0.55,0.45-1,1-1l0,0c0.55,0,1,0.45,1,1l0,0c0,0.55-0.45,1-1,1l0,0
		C267.45,223.08,267,222.63,267,222.08z M267,218.12c0-0.55,0.45-1,1-1l0,0c0.55,0,1,0.45,1,1l0,0c0,0.55-0.45,1-1,1l0,0
		C267.45,219.12,267,218.67,267,218.12z M266.01,215.02c-0.34-0.44-0.24-1.07,0.2-1.4l0,0c0.44-0.33,1.07-0.24,1.4,0.2l0,0
		c0.33,0.44,0.24,1.07-0.2,1.4l0,0c-0.18,0.13-0.39,0.2-0.6,0.2l0,0C266.5,215.42,266.2,215.28,266.01,215.02z M263.33,213.18
		c-0.53-0.15-0.84-0.7-0.69-1.23l0,0c0.15-0.53,0.7-0.84,1.23-0.7l0,0c0.53,0.15,0.84,0.7,0.69,1.24l0,0
		c-0.12,0.44-0.52,0.73-0.96,0.73l0,0C263.51,213.22,263.42,213.21,263.33,213.18z M258.66,212c0-0.55,0.45-1,1-1l0,0
		c0.55,0,1,0.45,1,1l0,0c0,0.55-0.45,1-1,1l0,0C259.11,213,258.66,212.55,258.66,212z M254.7,212c0-0.55,0.45-1,1-1l0,0
		c0.55,0,1,0.45,1,1l0,0c0,0.55-0.45,1-1,1l0,0C255.15,213,254.7,212.55,254.7,212z M250.74,212c0-0.55,0.45-1,1-1l0,0
		c0.55,0,1,0.45,1,1l0,0c0,0.55-0.45,1-1,1l0,0C251.19,213,250.74,212.55,250.74,212z M246.78,212c0-0.55,0.45-1,1-1l0,0
		c0.55,0,1,0.45,1,1l0,0c0,0.55-0.45,1-1,1l0,0C247.23,213,246.78,212.55,246.78,212z M242.82,212c0-0.55,0.45-1,1-1l0,0
		c0.55,0,1,0.45,1,1l0,0c0,0.55-0.45,1-1,1l0,0C243.27,213,242.82,212.55,242.82,212z M238.86,212c0-0.55,0.45-1,1-1l0,0
		c0.55,0,1,0.45,1,1l0,0c0,0.55-0.45,1-1,1l0,0C239.31,213,238.86,212.55,238.86,212z M234.9,212c0-0.55,0.45-1,1-1l0,0
		c0.55,0,1,0.45,1,1l0,0c0,0.55-0.45,1-1,1l0,0C235.35,213,234.9,212.55,234.9,212z M230.94,212c0-0.55,0.45-1,1-1l0,0
		c0.55,0,1,0.45,1,1l0,0c0,0.55-0.45,1-1,1l0,0C231.39,213,230.94,212.55,230.94,212z M226.98,212c0-0.55,0.44-1,1-1l0,0
		c0.55,0,1,0.45,1,1l0,0c0,0.55-0.45,1-1,1l0,0C227.42,213,226.98,212.55,226.98,212z M223.02,212c0-0.55,0.45-1,1-1l0,0
		c0.55,0,1,0.45,1,1l0,0c0,0.55-0.45,1-1,1l0,0C223.47,213,223.02,212.55,223.02,212z M219.06,212c0-0.55,0.44-1,1-1l0,0
		c0.55,0,1,0.45,1,1l0,0c0,0.55-0.45,1-1,1l0,0C219.5,213,219.06,212.55,219.06,212z M215.1,212c0-0.55,0.44-1,1-1l0,0
		c0.55,0,1,0.45,1,1l0,0c0,0.55-0.45,1-1,1l0,0C215.54,213,215.1,212.55,215.1,212z M211.14,212c0-0.55,0.44-1,1-1l0,0
		c0.55,0,1,0.45,1,1l0,0c0,0.55-0.45,1-1,1l0,0C211.58,213,211.14,212.55,211.14,212z M207.18,212c0-0.55,0.44-1,1-1l0,0
		c0.55,0,1,0.45,1,1l0,0c0,0.55-0.45,1-1,1l0,0C207.62,213,207.18,212.55,207.18,212z M203.22,212c0-0.55,0.44-1,1-1l0,0
		c0.55,0,1,0.45,1,1l0,0c0,0.55-0.45,1-1,1l0,0C203.66,213,203.22,212.55,203.22,212z M199.25,212c0-0.55,0.45-1,1-1l0,0
		c0.56,0,1,0.45,1,1l0,0c0,0.55-0.44,1-1,1l0,0C199.7,213,199.25,212.55,199.25,212z M195.95,212.3c-0.5-0.25-0.7-0.84-0.46-1.34
		l0,0c0.24-0.5,0.84-0.7,1.34-0.46l0,0c0.49,0.24,0.7,0.84,0.46,1.34l0,0c-0.18,0.35-0.53,0.56-0.9,0.56l0,0
		C196.24,212.4,196.09,212.36,195.95,212.3z M192.73,209.1c-0.25-0.49-0.05-1.09,0.45-1.34l0,0c0.49-0.24,1.09-0.04,1.34,0.45l0,0
		c0.25,0.5,0.05,1.1-0.45,1.34l0,0c-0.14,0.07-0.29,0.11-0.44,0.11l0,0C193.26,209.66,192.9,209.46,192.73,209.1z M192,204.8
		c0-0.56,0.45-1,1-1l0,0c0.55,0,1,0.44,1,1l0,0c0,0.55-0.45,1-1,1l0,0C192.45,205.8,192,205.35,192,204.8z M192,200.83
		c0-0.55,0.45-1,1-1l0,0c0.55,0,1,0.45,1,1l0,0c0,0.56-0.45,1-1,1l0,0C192.45,201.83,192,201.39,192,200.83z M192,196.88
		c0-0.56,0.45-1,1-1l0,0c0.55,0,1,0.44,1,1l0,0c0,0.55-0.45,1-1,1l0,0C192.45,197.88,192,197.43,192,196.88z M192,192.92
		c0-0.56,0.45-1,1-1l0,0c0.55,0,1,0.44,1,1l0,0c0,0.55-0.45,1-1,1l0,0C192.45,193.92,192,193.47,192,192.92z M192,188.95
		c0-0.55,0.45-1,1-1l0,0c0.55,0,1,0.45,1,1l0,0c0,0.56-0.45,1-1,1l0,0C192.45,189.95,192,189.51,192,188.95z M192,185
		c0-0.56,0.45-1,1-1l0,0c0.55,0,1,0.44,1,1l0,0c0,0.55-0.45,0.99-1,0.99l0,0C192.45,185.99,192,185.55,192,185z"/>
	<path fill="#888888" d="M193,182c-0.27,0-0.52-0.11-0.71-0.29c-0.18-0.19-0.29-0.44-0.29-0.71c0-0.26,0.11-0.52,0.29-0.71
		c0.37-0.37,1.04-0.37,1.42,0c0.18,0.19,0.29,0.45,0.29,0.71c0,0.27-0.11,0.52-0.29,0.71C193.52,181.89,193.26,182,193,182z"/>
	<path fill="#888888" d="M20,264c-0.26,0-0.52-0.11-0.71-0.29C19.11,263.52,19,263.26,19,263s0.11-0.52,0.29-0.71
		c0.38-0.37,1.05-0.37,1.42,0c0.18,0.19,0.29,0.45,0.29,0.71c0,0.26-0.11,0.52-0.29,0.71C20.52,263.89,20.26,264,20,264z"/>
	<path fill="#888888" d="M19,259.02c0-0.55,0.45-1,1-1l0,0c0.55,0,1,0.45,1,1l0,0c0,0.55-0.45,1-1,1l0,0
		C19.45,260.02,19,259.57,19,259.02z M19,255.04c0-0.55,0.45-1,1-1l0,0c0.55,0,1,0.45,1,1l0,0c0,0.56-0.45,1-1,1l0,0
		C19.45,256.04,19,255.6,19,255.04z M19,251.07c0-0.56,0.45-1,1-1l0,0c0.55,0,1,0.44,1,1l0,0c0,0.55-0.45,1-1,1l0,0
		C19.45,252.07,19,251.62,19,251.07z M19,247.09c0-0.55,0.45-1,1-1l0,0c0.55,0,1,0.45,1,1l0,0c0,0.55-0.45,1-1,1l0,0
		C19.45,248.09,19,247.64,19,247.09z M19,243.11c0-0.55,0.45-1,1-1l0,0c0.55,0,1,0.45,1,1l0,0c0,0.55-0.45,1-1,1l0,0
		C19.45,244.11,19,243.66,19,243.11z M19,239.13c0-0.55,0.45-1,1-1l0,0c0.55,0,1,0.45,1,1l0,0c0,0.55-0.45,1-1,1l0,0
		C19.45,240.13,19,239.68,19,239.13z M19,235.15c0-0.55,0.45-1,1-1l0,0c0.55,0,1,0.45,1,1l0,0c0,0.56-0.45,1-1,1l0,0
		C19.45,236.15,19,235.71,19,235.15z M19,231.18c0-0.56,0.45-1,1-1l0,0c0.55,0,1,0.44,1,1l0,0c0,0.55-0.45,1-1,1l0,0
		C19.45,232.18,19,231.73,19,231.18z M19,227.2c0-0.55,0.45-1,1-1l0,0c0.55,0,1,0.45,1,1l0,0c0,0.55-0.45,1-1,1l0,0
		C19.45,228.2,19,227.75,19,227.2z M19,223.22c0-0.55,0.45-1,1-1l0,0c0.55,0,1,0.45,1,1l0,0c0,0.55-0.45,1-1,1l0,0
		C19.45,224.22,19,223.77,19,223.22z M19,219.24c0-0.55,0.45-1,1-1l0,0c0.55,0,1,0.45,1,1l0,0c0,0.56-0.45,1-1,1l0,0
		C19.45,220.24,19,219.8,19,219.24z M20.17,216.26c-0.49-0.25-0.69-0.85-0.45-1.34l0,0c0.24-0.5,0.84-0.7,1.34-0.46l0,0
		c0.49,0.25,0.7,0.85,0.45,1.34l0,0c-0.17,0.36-0.53,0.56-0.9,0.56l0,0C20.47,216.36,20.31,216.33,20.17,216.26z M22.49,213.04
		c-0.25-0.49-0.04-1.09,0.46-1.33l0,0c0.49-0.25,1.09-0.04,1.33,0.46l0,0c0.25,0.49,0.04,1.09-0.46,1.33l0,0
		c-0.14,0.07-0.29,0.1-0.43,0.1l0,0C23.01,213.6,22.66,213.4,22.49,213.04z M149.59,212c0-0.55,0.44-1,1-1l0,0c0.55,0,1,0.45,1,1
		l0,0c0,0.55-0.45,1-1,1l0,0C150.03,213,149.59,212.55,149.59,212z M145.61,212c0-0.55,0.45-1,1-1l0,0c0.55,0,1,0.45,1,1l0,0
		c0,0.55-0.45,1-1,1l0,0C146.06,213,145.61,212.55,145.61,212z M141.63,212c0-0.55,0.45-1,1-1l0,0c0.55,0,1,0.45,1,1l0,0
		c0,0.55-0.45,1-1,1l0,0C142.08,213,141.63,212.55,141.63,212z M137.65,212c0-0.55,0.45-1,1-1l0,0c0.55,0,1,0.45,1,1l0,0
		c0,0.55-0.45,1-1,1l0,0C138.1,213,137.65,212.55,137.65,212z M133.67,212c0-0.55,0.45-1,1-1l0,0c0.56,0,1,0.45,1,1l0,0
		c0,0.55-0.44,1-1,1l0,0C134.12,213,133.67,212.55,133.67,212z M129.7,212c0-0.55,0.44-1,1-1l0,0c0.55,0,1,0.45,1,1l0,0
		c0,0.55-0.45,1-1,1l0,0C130.14,213,129.7,212.55,129.7,212z M125.72,212c0-0.55,0.45-1,1-1l0,0c0.55,0,1,0.45,1,1l0,0
		c0,0.55-0.45,1-1,1l0,0C126.17,213,125.72,212.55,125.72,212z M121.74,212c0-0.55,0.45-1,1-1l0,0c0.55,0,1,0.45,1,1l0,0
		c0,0.55-0.45,1-1,1l0,0C122.19,213,121.74,212.55,121.74,212z M117.76,212c0-0.55,0.45-1,1-1l0,0c0.56,0,1,0.45,1,1l0,0
		c0,0.55-0.44,1-1,1l0,0C118.21,213,117.76,212.55,117.76,212z M113.79,212c0-0.55,0.44-1,0.99-1l0,0c0.56,0,1.01,0.45,1.01,1l0,0
		c0,0.55-0.45,1-1.01,1l0,0C114.23,213,113.79,212.55,113.79,212z M109.81,212c0-0.55,0.44-1,1-1l0,0c0.55,0,1,0.45,1,1l0,0
		c0,0.55-0.45,1-1,1l0,0C110.25,213,109.81,212.55,109.81,212z M105.83,212c0-0.55,0.45-1,1-1l0,0c0.55,0,1,0.45,1,1l0,0
		c0,0.55-0.45,1-1,1l0,0C106.28,213,105.83,212.55,105.83,212z M101.85,212c0-0.55,0.45-1,1-1l0,0c0.55,0,1,0.45,1,1l0,0
		c0,0.55-0.45,1-1,1l0,0C102.3,213,101.85,212.55,101.85,212z M97.87,212c0-0.55,0.45-1,1-1l0,0c0.56,0,1,0.45,1,1l0,0
		c0,0.55-0.44,1-1,1l0,0C98.32,213,97.87,212.55,97.87,212z M93.89,212c0-0.55,0.45-1,1.01-1l0,0c0.55,0,0.99,0.45,0.99,1l0,0
		c0,0.55-0.44,1-0.99,1l0,0C94.34,213,93.89,212.55,93.89,212z M89.92,212c0-0.55,0.44-1,1-1l0,0c0.55,0,1,0.45,1,1l0,0
		c0,0.55-0.45,1-1,1l0,0C90.36,213,89.92,212.55,89.92,212z M85.94,212c0-0.55,0.45-1,1-1l0,0c0.55,0,1,0.45,1,1l0,0
		c0,0.55-0.45,1-1,1l0,0C86.39,213,85.94,212.55,85.94,212z M81.96,212c0-0.55,0.45-1,1-1l0,0c0.55,0,1,0.45,1,1l0,0
		c0,0.55-0.45,1-1,1l0,0C82.41,213,81.96,212.55,81.96,212z M77.98,212c0-0.55,0.45-1,1-1l0,0c0.55,0,1,0.45,1,1l0,0
		c0,0.55-0.45,1-1,1l0,0C78.43,213,77.98,212.55,77.98,212z M74,212c0-0.55,0.45-1,1.01-1l0,0c0.55,0,0.99,0.45,0.99,1l0,0
		c0,0.55-0.44,1-0.99,1l0,0C74.45,213,74,212.55,74,212z M70.03,212c0-0.55,0.45-1,1-1l0,0c0.55,0,1,0.45,1,1l0,0c0,0.55-0.45,1-1,1
		l0,0C70.48,213,70.03,212.55,70.03,212z M66.05,212c0-0.55,0.45-1,1-1l0,0c0.55,0,1,0.45,1,1l0,0c0,0.55-0.45,1-1,1l0,0
		C66.5,213,66.05,212.55,66.05,212z M62.07,212c0-0.55,0.45-1,1-1l0,0c0.55,0,1,0.45,1,1l0,0c0,0.55-0.45,1-1,1l0,0
		C62.52,213,62.07,212.55,62.07,212z M58.09,212c0-0.55,0.45-1,1-1l0,0c0.56,0,1,0.45,1,1l0,0c0,0.55-0.44,1-1,1l0,0
		C58.54,213,58.09,212.55,58.09,212z M54.12,212c0-0.55,0.44-1,0.99-1l0,0c0.56,0,1.01,0.45,1.01,1l0,0c0,0.55-0.45,1-1.01,1l0,0
		C54.56,213,54.12,212.55,54.12,212z M50.14,212c0-0.55,0.44-1,1-1l0,0c0.55,0,1,0.45,1,1l0,0c0,0.55-0.45,1-1,1l0,0
		C50.58,213,50.14,212.55,50.14,212z M46.16,212c0-0.55,0.45-1,1-1l0,0c0.55,0,1,0.45,1,1l0,0c0,0.55-0.45,1-1,1l0,0
		C46.61,213,46.16,212.55,46.16,212z M42.18,212c0-0.55,0.45-1,1-1l0,0c0.55,0,1,0.45,1,1l0,0c0,0.55-0.45,1-1,1l0,0
		C42.63,213,42.18,212.55,42.18,212z M38.2,212c0-0.55,0.45-1,1-1l0,0c0.56,0,1,0.45,1,1l0,0c0,0.55-0.44,1-1,1l0,0
		C38.65,213,38.2,212.55,38.2,212z M34.22,212c0-0.55,0.45-1,1.01-1l0,0c0.55,0,1,0.45,1,1l0,0c0,0.55-0.45,1-1,1l0,0
		C34.67,213,34.22,212.55,34.22,212z M30.25,212c0-0.55,0.44-1,1-1l0,0c0.55,0,1,0.45,1,1l0,0c0,0.55-0.45,1-1,1l0,0
		C30.69,213,30.25,212.55,30.25,212z M26.27,212c0-0.55,0.45-1,1-1l0,0c0.55,0,1,0.45,1,1l0,0c0,0.55-0.45,1-1,1l0,0
		C26.72,213,26.27,212.55,26.27,212z M153.58,211.87c-0.23-0.5-0.01-1.09,0.49-1.32l0,0c0.5-0.23,1.09-0.01,1.32,0.49l0,0
		c0.24,0.5,0.01,1.1-0.49,1.33l0,0c-0.13,0.06-0.27,0.09-0.41,0.09l0,0C154.11,212.46,153.74,212.24,153.58,211.87z M156.85,209.65
		c-0.48-0.25-0.67-0.86-0.42-1.35l0,0c0.26-0.48,0.86-0.67,1.35-0.42l0,0c0.49,0.26,0.68,0.86,0.42,1.35l0,0
		c-0.17,0.34-0.52,0.54-0.88,0.54l0,0C157.16,209.77,157,209.73,156.85,209.65z M157,204.9c0-0.55,0.45-1,1-1l0,0c0.55,0,1,0.45,1,1
		l0,0c0,0.55-0.45,1-1,1l0,0C157.45,205.9,157,205.45,157,204.9z M157,200.92c0-0.55,0.45-1,1-1l0,0c0.55,0,1,0.45,1,1l0,0
		c0,0.56-0.45,1-1,1l0,0C157.45,201.92,157,201.48,157,200.92z M157,196.95c0-0.56,0.45-1,1-1l0,0c0.55,0,1,0.44,1,1l0,0
		c0,0.55-0.45,1-1,1l0,0C157.45,197.95,157,197.5,157,196.95z M157,192.97c0-0.55,0.45-1,1-1l0,0c0.55,0,1,0.45,1,1l0,0
		c0,0.55-0.45,1-1,1l0,0C157.45,193.97,157,193.52,157,192.97z M157,188.99c0-0.55,0.45-1,1-1l0,0c0.55,0,1,0.45,1,1l0,0
		c0,0.55-0.45,1-1,1l0,0C157.45,189.99,157,189.54,157,188.99z M157,185.01c0-0.55,0.45-1,1-1l0,0c0.55,0,1,0.45,1,1l0,0
		c0,0.56-0.45,1-1,1l0,0C157.45,186.01,157,185.57,157,185.01z"/>
	<path fill="#888888" d="M158,182c-0.27,0-0.52-0.11-0.71-0.29c-0.18-0.19-0.29-0.44-0.29-0.71c0-0.26,0.11-0.52,0.29-0.71
		c0.37-0.37,1.04-0.37,1.42,0c0.18,0.19,0.29,0.45,0.29,0.71c0,0.27-0.11,0.52-0.29,0.71C158.52,181.89,158.26,182,158,182z"/>
	<path fill="#888888" d="M114.51,231c-0.26,0-0.52-0.11-0.71-0.29c-0.18-0.19-0.29-0.45-0.29-0.71c0-0.26,0.11-0.52,0.29-0.71
		c0.37-0.37,1.04-0.37,1.42,0c0.18,0.19,0.29,0.45,0.29,0.71c0,0.26-0.11,0.52-0.29,0.71C115.03,230.89,114.77,231,114.51,231z"/>
	<path fill="#888888" d="M114.27,226.85c-0.46-0.32-0.57-0.94-0.26-1.39l0,0c0.32-0.46,0.94-0.57,1.39-0.26l0,0
		c0.46,0.32,0.57,0.94,0.26,1.4l0,0c-0.2,0.27-0.51,0.42-0.83,0.42l0,0C114.64,227.02,114.44,226.97,114.27,226.85z M117.37,224.39
		c-0.11-0.54,0.24-1.06,0.79-1.17l0,0c0.54-0.11,1.06,0.25,1.17,0.79l0,0c0.1,0.54-0.25,1.07-0.79,1.17l0,0
		c-0.07,0.02-0.13,0.02-0.19,0.02l0,0C117.88,225.2,117.46,224.87,117.37,224.39z M165.87,224c0-0.55,0.44-1,1-1l0,0
		c0.55,0,1,0.45,1,1l0,0c0,0.55-0.45,1-1,1l0,0C166.31,225,165.87,224.55,165.87,224z M161.82,224c0-0.55,0.45-1,1-1l0,0
		c0.55,0,1,0.45,1,1l0,0c0,0.55-0.45,1-1,1l0,0C162.27,225,161.82,224.55,161.82,224z M157.78,224c0-0.55,0.45-1,1-1l0,0
		c0.55,0,1,0.45,1,1l0,0c0,0.55-0.45,1-1,1l0,0C158.23,225,157.78,224.55,157.78,224z M153.73,224c0-0.55,0.45-1,1-1l0,0
		c0.56,0,1,0.45,1,1l0,0c0,0.55-0.44,1-1,1l0,0C154.18,225,153.73,224.55,153.73,224z M149.69,224c0-0.55,0.45-1,1-1l0,0
		c0.55,0,1,0.45,1,1l0,0c0,0.55-0.45,1-1,1l0,0C150.14,225,149.69,224.55,149.69,224z M145.64,224c0-0.55,0.45-1,1-1l0,0
		c0.56,0,1,0.45,1,1l0,0c0,0.55-0.44,1-1,1l0,0C146.09,225,145.64,224.55,145.64,224z M141.6,224c0-0.55,0.45-1,1-1l0,0
		c0.55,0,1,0.45,1,1l0,0c0,0.55-0.45,1-1,1l0,0C142.05,225,141.6,224.55,141.6,224z M137.56,224c0-0.55,0.44-1,1-1l0,0
		c0.55,0,1,0.45,1,1l0,0c0,0.55-0.45,1-1,1l0,0C138,225,137.56,224.55,137.56,224z M133.51,224c0-0.55,0.45-1,1-1l0,0
		c0.55,0,1,0.45,1,1l0,0c0,0.55-0.45,1-1,1l0,0C133.96,225,133.51,224.55,133.51,224z M129.47,224c0-0.55,0.45-1,1-1l0,0
		c0.55,0,1,0.45,1,1l0,0c0,0.55-0.45,1-1,1l0,0C129.92,225,129.47,224.55,129.47,224z M125.42,224c0-0.55,0.45-1,1-1l0,0
		c0.55,0,1,0.45,1,1l0,0c0,0.55-0.45,1-1,1l0,0C125.87,225,125.42,224.55,125.42,224z M121.38,224c0-0.55,0.45-1,1-1l0,0
		c0.55,0,1,0.45,1,1l0,0c0,0.55-0.45,1-1,1l0,0C121.83,225,121.38,224.55,121.38,224z M169.93,224.01
		c-0.17-0.52,0.11-1.09,0.63-1.26l0,0l0,0l0,0c0.53-0.18,1.09,0.11,1.27,0.63l0,0c0.17,0.53-0.11,1.09-0.64,1.27l0,0
		c-0.1,0.03-0.21,0.05-0.31,0.05l0,0C170.46,224.7,170.07,224.43,169.93,224.01z M173.47,222.11c-0.46-0.3-0.59-0.92-0.29-1.38l0,0
		c0,0,0,0,0-0.01l0,0c0.31-0.46,0.93-0.59,1.39-0.28l0,0c0.46,0.3,0.59,0.92,0.29,1.38l0,0c-0.19,0.29-0.51,0.45-0.84,0.45l0,0
		C173.83,222.27,173.64,222.22,173.47,222.11z M174,217.42c0-0.55,0.45-1,1-1l0,0c0.55,0,1,0.45,1,1l0,0c0,0.55-0.45,1-1,1l0,0
		C174.45,218.42,174,217.97,174,217.42z M174,213.38c0-0.56,0.45-1,1-1l0,0c0.55,0,1,0.44,1,1l0,0c0,0.55-0.45,1-1,1l0,0
		C174.45,214.38,174,213.93,174,213.38z M174,209.33c0-0.55,0.45-1,1-1l0,0c0.55,0,1,0.45,1,1l0,0c0,0.56-0.45,1-1,1l0,0
		C174.45,210.33,174,209.89,174,209.33z M174,205.29c0-0.55,0.45-1,1-1l0,0c0.55,0,1,0.45,1,1l0,0c0,0.55-0.45,1-1,1l0,0
		C174.45,206.29,174,205.84,174,205.29z M174,201.24c0-0.55,0.45-1,1-1l0,0c0.55,0,1,0.45,1,1l0,0c0,0.56-0.45,1-1,1l0,0
		C174.45,202.24,174,201.8,174,201.24z M174,197.2c0-0.55,0.45-1,1-1l0,0c0.55,0,1,0.45,1,1l0,0c0,0.55-0.45,1-1,1l0,0
		C174.45,198.2,174,197.75,174,197.2z M174,193.16c0-0.56,0.45-1,1-1l0,0c0.55,0,1,0.44,1,1l0,0c0,0.55-0.45,1-1,1l0,0
		C174.45,194.16,174,193.71,174,193.16z M174,189.11c0-0.55,0.45-1,1-1l0,0c0.55,0,1,0.45,1,1l0,0c0,0.55-0.45,1-1,1l0,0
		C174.45,190.11,174,189.66,174,189.11z M174,185.07c0-0.55,0.45-1,1-1l0,0c0.55,0,1,0.45,1,1l0,0c0,0.55-0.45,1-1,1l0,0
		C174.45,186.07,174,185.62,174,185.07z"/>
	<path fill="#888888" d="M175,182c-0.27,0-0.52-0.11-0.71-0.29c-0.18-0.19-0.29-0.45-0.29-0.71c0-0.26,0.11-0.52,0.29-0.71
		c0.37-0.37,1.05-0.37,1.42,0c0.18,0.19,0.29,0.45,0.29,0.71c0,0.27-0.11,0.52-0.29,0.71C175.52,181.89,175.26,182,175,182z"/>
</g>
<g id="Grid" display="none">
</g>
</svg>
