<?xml version="1.0" encoding="utf-8"?>
<!-- Generator: Adobe Illustrator 17.0.2, SVG Export Plug-In . SVG Version: 6.00 Build 0)  -->
<!DOCTYPE svg PUBLIC "-//W3C//DTD SVG 1.1//EN" "http://www.w3.org/Graphics/SVG/1.1/DTD/svg11.dtd">
<svg version="1.1" id="Layer_1" xmlns="http://www.w3.org/2000/svg" xmlns:xlink="http://www.w3.org/1999/xlink" x="0px" y="0px"
	 width="378px" height="180px" viewBox="0 0 378 180" enable-background="new 0 0 378 180" xml:space="preserve">
<g id="BK">
</g>
<g id="Comp">
	<path opacity="0.3" fill="#888888" enable-background="new    " d="M22.531,112.507v37.03C7.972,133.084,0,112.158,0,90
		c0-24.039,9.361-46.639,26.36-63.637S65.96,0.001,89.999,0.001c23.258,0,45.151,8.785,61.945,24.749v76.507
		c0,5.258-2.046,10.2-5.766,13.919c-3.718,3.718-8.663,5.766-13.924,5.766c-10.852,0-19.683-8.831-19.686-19.686V50.634
		c0.003-8.264-3.215-16.035-9.058-21.879s-13.613-9.061-21.877-9.061c-17.054,0-30.932,13.878-30.937,30.938v28.597
		C34.717,81.888,22.531,95.771,22.531,112.507z M180,90c0-19.053-5.902-37.192-16.805-52.365v63.617
		c0.003,8.263-3.213,16.032-9.058,21.876c-5.844,5.844-13.613,9.061-21.879,9.061c-17.053,0-30.931-13.878-30.935-30.934V50.629
		c0.002-5.259-2.046-10.204-5.764-13.922c-3.719-3.718-8.663-5.766-13.924-5.766c-10.852,0-19.683,8.833-19.686,19.69v28.61
		c15.94,2.697,28.083,16.559,28.083,33.267V180c24.028-0.008,46.618-9.368,63.607-26.359C170.637,136.64,180,114.039,180,90z
		 M56.273,129.255c12.406,0,22.499-10.093,22.499-22.499h-11.25c0,6.202-5.047,11.249-11.249,11.249s-11.249-5.047-11.249-11.249
		H33.775C33.774,119.162,43.867,129.255,56.273,129.255L56.273,129.255z"/>
	<path opacity="0.3" fill="#888888" enable-background="new    " d="M363.691,74.145c3.783-3.783,8.576-5.926,13.513-6.453
		c-4.156-16.239-12.752-30.706-24.394-42.067c-2.923,3.972-7.152,7.023-12.281,8.4c-12.005,3.216-24.34-3.905-27.551-15.907
		c-1.373-5.126-0.852-10.306,1.121-14.818C306.424,1.165,298.353,0,290.007,0c-8.469,0-16.666,1.2-24.44,3.397
		c1.937,4.489,2.443,9.631,1.079,14.719c-3.215,12-15.55,19.123-27.55,15.907c-5.042-1.353-9.206-4.323-12.121-8.19
		c-11.541,11.343-20.058,25.754-24.181,41.912c4.797,0.592,9.447,2.71,13.132,6.394c8.785,8.787,8.79,23.033,0.005,31.825
		c-3.68,3.68-8.319,5.794-13.114,6.391c4.137,16.135,12.66,30.526,24.206,41.85c2.911-3.835,7.052-6.782,12.067-8.123
		c12.003-3.219,24.343,3.905,27.558,15.907c1.356,5.053,0.86,10.158-1.048,14.621c7.768,2.192,15.947,3.389,24.405,3.389
		c8.333,0,16.393-1.157,24.054-3.286c-1.938-4.489-2.446-9.633-1.086-14.721c3.212-12,15.553-19.128,27.558-15.912
		c5.109,1.367,9.317,4.399,12.235,8.341c11.643-11.344,20.244-25.794,24.413-42.01c-4.928-0.533-9.712-2.677-13.487-6.45
		C354.905,97.172,354.905,82.93,363.691,74.145z M305.909,105.916c-8.785,8.784-23.03,8.777-31.818-0.006
		c-8.784-8.785-8.784-23.032,0-31.817c8.793-8.785,23.033-8.792,31.818-0.003C314.695,82.874,314.695,97.126,305.909,105.916z"/>
</g>
<g id="Grid" display="none">
</g>
<g id="Labels">
</g>
</svg>
