<?xml version="1.0" encoding="utf-8"?>
<!-- Generator: Adobe Illustrator 15.1.0, SVG Export Plug-In . SVG Version: 6.00 Build 0)  -->
<!DOCTYPE svg PUBLIC "-//W3C//DTD SVG 1.1//EN" "http://www.w3.org/Graphics/SVG/1.1/DTD/svg11.dtd">
<svg version="1.1"
	 id="svg2" sodipodi:docname="dropdown-menu.svg" inkscape:version="0.48+devel r12648" xmlns:sodipodi="http://sodipodi.sourceforge.net/DTD/sodipodi-0.dtd" xmlns:inkscape="http://www.inkscape.org/namespaces/inkscape" xmlns:rdf="http://www.w3.org/1999/02/22-rdf-syntax-ns#" xmlns:svg="http://www.w3.org/2000/svg" xmlns:cc="http://creativecommons.org/ns#" xmlns:dc="http://purl.org/dc/elements/1.1/"
	 xmlns="http://www.w3.org/2000/svg" xmlns:xlink="http://www.w3.org/1999/xlink" x="0px" y="0px" width="90px" height="90px"
	 viewBox="0 0 90 90" enable-background="new 0 0 90 90" xml:space="preserve">
<sodipodi:namedview  id="namedview4" borderopacity="1" bordercolor="#666666" pagecolor="#ffffff" guidetolerance="10" objecttolerance="10" gridtolerance="10" inkscape:pageopacity="0" inkscape:pageshadow="2" fit-margin-top="0" inkscape:window-width="640" inkscape:window-height="480" inkscape:cx="-157.44016" showgrid="false" fit-margin-left="0" fit-margin-right="0" fit-margin-bottom="0" inkscape:zoom="2.4272256" inkscape:cy="98.291931" inkscape:current-layer="g10">
	</sodipodi:namedview>
<sodipodi:namedview  id="namedview4" borderopacity="1" bordercolor="#666666" pagecolor="#ffffff" guidetolerance="10" objecttolerance="10" gridtolerance="10" inkscape:pageopacity="0" inkscape:pageshadow="2" fit-margin-top="0" inkscape:window-width="640" inkscape:window-height="480" inkscape:cx="-157.44016" showgrid="false" fit-margin-left="0" fit-margin-right="0" fit-margin-bottom="0" inkscape:zoom="2.4272256" inkscape:cy="98.291931" inkscape:current-layer="g10">
	</sodipodi:namedview>
<g id="g10_1_" transform="matrix(1.25,0,0,-1.25,-406.97987,423.35437)" inkscape:groupmode="layer" inkscape:label="chevron">
	<g id="g12_1_" transform="matrix(0,-0.54716981,0.54545455,0,180.52017,492.43318)">
		<g>
			<defs>
				<rect id="SVGID_1_" x="69.475" y="81.283" width="405.873" height="575.821"/>
			</defs>
			<clipPath id="SVGID_2_">
				<use xlink:href="#SVGID_1_"  overflow="visible"/>
			</clipPath>
			<g id="g14_1_" clip-path="url(#SVGID_2_)">
				<g id="g20_1_" transform="translate(358.7529,350.7095)">
					<path id="path22_1_" inkscape:connector-curvature="0" fill="#5D264F" d="M-24.231-34.538
						c3.869-6.841,8.238-13.885,13.107-21.135c4.866-7.25,10.086-14.386,15.657-21.401c1.493-1.879,2.988-3.707,4.486-5.486v20.344
						c-3.055,4.022-6.048,8.184-8.972,12.504c-3.404,5.03-6.596,10.175-9.589,15.437c-2.99,5.261-6.662,12.687-9.007,17.715
						c2.344,5.026,6.017,12.452,9.007,17.715c2.993,5.262,6.185,10.407,9.589,15.436c2.924,4.321,5.917,8.483,8.972,12.505V49.44
						c-1.498-1.78-2.993-3.607-4.486-5.486c-5.571-7.018-10.791-14.151-15.657-21.401c-4.869-7.25-9.238-14.294-13.107-21.135
						C-28.1-5.422-31.153-11.415-33.38-16.56C-31.153-21.704-28.1-27.697-24.231-34.538"/>
				</g>
			</g>
		</g>
	</g>
</g>
</svg>
