<svg xmlns="http://www.w3.org/2000/svg" xmlns:xlink="http://www.w3.org/1999/xlink" width="90" height="90" viewBox="0 0 90 90"><g transform="matrix(0 .684 .681 0 -181.33 -192.187)"><defs><path id="a" d="M69.475 81.283h405.873v575.82H69.475z"/></defs><clipPath id="b"><use xlink:href="#a" overflow="visible"/></clipPath><path fill="#9fa097" d="M334.522 316.17c3.87-6.84 8.238-13.884 13.107-21.134 4.864-7.25 10.084-14.386 15.655-21.4 1.493-1.88 2.988-3.708 4.486-5.487v20.343c-3.054 4.02-6.047 8.183-8.97 12.503-3.405 5.03-6.597 10.175-9.59 15.437-2.99 5.26-6.66 12.687-9.007 17.715 2.344 5.026 6.017 12.452 9.007 17.715 2.994 5.26 6.186 10.406 9.59 15.435 2.924 4.32 5.917 8.483 8.972 12.505v20.344c-1.498-1.78-2.993-3.608-4.486-5.487-5.57-7.018-10.79-14.15-15.657-21.4-4.87-7.25-9.24-14.295-13.11-21.136-3.87-6.84-6.92-12.833-9.15-17.978 2.23-5.145 5.28-11.138 9.15-17.98" clip-path="url(#b)"/></g></svg>