<svg xmlns="http://www.w3.org/2000/svg" width="90" height="90"><defs><clipPath id="a"><path d="M0 595.28h841.89V0H0v595.28z"/></clipPath></defs><g clip-path="url(#a)" transform="matrix(0 .684 .681 0 -181.33 -192.187)"><path d="M358.835 350.662c-3.87 6.84-8.238 13.885-13.107 21.136-4.866 7.25-10.086 14.384-15.658 21.4-1.494 1.88-2.988 3.705-4.486 5.486V378.34c3.055-4.022 6.05-8.185 8.972-12.505 3.404-5.03 6.597-10.174 9.59-15.436 2.99-5.263 6.66-12.69 9.006-17.717-2.346-5.027-6.017-12.454-9.007-17.716-2.992-5.262-6.185-10.406-9.59-15.435-2.922-4.32-5.916-8.484-8.97-12.506v-20.343c1.497 1.78 2.99 3.606 4.485 5.485 5.572 7.016 10.792 14.15 15.658 21.4 4.87 7.25 9.238 14.294 13.107 21.135 3.87 6.84 6.922 12.834 9.15 17.98-2.228 5.143-5.28 11.136-9.15 17.977" fill="#9fa097"/></g></svg>