<svg xmlns="http://www.w3.org/2000/svg" width="90" height="90"><defs><clipPath><path d="M222 818.362v54h126v-54h-43.875l-.094.156c-2.29 3.754-4.875 7.167-7.873 9.875-2.997 2.71-6.524 5-11.125 5-4.6 0-8.12-2.294-11.124-5-3.003-2.706-5.607-6.122-7.906-9.875-.032-.05-.062-.104-.094-.156H222z" color="#000" fill="#f0f" stroke-width="4" overflow="visible" enable-background="accumulate"/></clipPath></defs><g color="#000"><path d="M30.22 54.156C11.057 55.126 6 61.298 6 75v6c0 9 0 9 12 9h54c12 0 12 0 12-9v-6c0-13.695-5.052-19.87-24.188-20.844-1.15 1.405-2.36 2.705-3.656 3.875-2.998 2.71-6.524 5-11.125 5-4.6 0-8.12-2.292-11.123-5-1.3-1.17-2.53-2.465-3.687-3.873z" fill="#fff" stroke-width="2" overflow="visible" enable-background="accumulate"/><path fill="none" stroke-width="4" overflow="visible" enable-background="accumulate" d="M0 0h90v90H0z"/><path d="M45 0C30 0 24 6 24 21v3c0 12 12.036 33 21.018 33C54 57 66 36 66 24v-3C66 6 60 0 45 0z" fill="#fff" stroke-width="4" overflow="visible" enable-background="accumulate"/></g></svg>