<svg xmlns="http://www.w3.org/2000/svg" width="90" height="90" viewBox="0 0 90.000003 90" enable-background="new 0 0 266.667 267"><linearGradient gradientUnits="userSpaceOnUse" x1="-402.668" y1="-20.666" x2="-402.668" y2="55.334" gradientTransform="matrix(1 0 0 -1 244 322)" transform="translate(0 -177)"><stop offset="0" stop-color="#7D2617"/><stop offset="1" stop-color="#BF3B27"/></linearGradient><path d="M36 6C11.648 6 6.834 6.047 6.12 19.254c.24-.225.49-.46.734-.668 6.48-5.364 13.59-6.26 19.552-6.37h24.026l-6.38 5.15h-6.968c2.79 2.42 6.955 6.744 6.955 14.45 0 8.442-4.45 12.442-9.227 16.202-1.477 1.48-3.18 3.08-3.18 5.595 0 2.507 1.704 3.876 2.952 4.905l4.096 3.187c5 4.224 11.536 9.114 11.536 16.988 0 1.983-.213 3.77-.807 5.307H54c27 0 30 0 30-18V32.684H69.783v14.543h-6.18V32.684H49.188v-6.05h14.417v-14.42h6.18v14.42H84V24C84 6 81 6 54 6H36zM20.576 16.072c-2.96 0-6.137 1.484-7.96 3.766-1.932 2.397-2.23 5.473-2.23 8.445 0 7.64 4.012 18.944 13.79 18.944 2.84 0 5.754-.722 7.625-2.854 2.135-2.444 2.97-5.662 2.97-7.307 0-8.215-4.762-20.994-14.193-20.994zM6 47.275V66c0 .49.013.914.018 1.377 5.16-4.05 14.018-3.322 18.34-3.613-1.593-2.058-3.41-4.223-3.41-7.756 0-1.94.57-3.083 1.136-4.453-1.253.11-2.497.228-3.637.228-5.125 0-9.336-1.942-12.447-4.508zm19.615 19.682c-1.027 0-7.168.23-11.94 1.828-1.55.567-4.963 1.89-7.316 4.715C7.666 83.96 13.47 84 36 84h6.75c.17-.435.383-.834.373-1.76-.064-5.83-6.258-9-14.902-15.164-.904-.118-1.473-.12-2.604-.12z" fill="#808080"/></svg>