<svg xmlns="http://www.w3.org/2000/svg" width="90" height="90"><g color="#000"><path d="M45 0C30.088 0 18 12.088 18 27c0 .562.03 1.103.063 1.656.013.248.012.497.03.75.02.23.07.46.095.688C20.22 51.854 41.922 90 45 90c3.078 0 24.78-38.146 26.813-59.906.02-.232.076-.46.093-.688.022-.248.016-.5.03-.75.032-.56.064-1.12.064-1.656C72 12.088 59.912 0 45 0zm0 18c4.97 0 9 4.03 9 9s-4.03 9-9 9-9-4.03-9-9 4.03-9 9-9z" fill="#aea79f" stroke-width="3" overflow="visible" enable-background="accumulate"/><path fill="none" stroke-width="7.5" overflow="visible" enable-background="accumulate" d="M0 0h90v90H0z"/></g></svg>