<!DOCTYPE svg PUBLIC "-//W3C//DTD SVG 1.1//EN" "http://www.w3.org/Graphics/SVG/1.1/DTD/svg11.dtd" [
	<!ENTITY ns_flows "http://ns.adobe.com/Flows/1.0/">
]><svg xmlns="http://www.w3.org/2000/svg" width="285" height="285" viewBox="-0.866 -0.866 285 285" enable-background="new -0.866 -0.866 285 285"><path fill="#fff" d="M283.465 141.734c0 78.273-63.457 141.73-141.734 141.73S0 220.008 0 141.734C0 63.454 63.453 0 141.73 0s141.735 63.455 141.735 141.734z"/><path fill="#DD4814" d="M45.356 122.812c-10.453 0-18.923 8.47-18.923 18.923 0 10.45 8.47 18.92 18.923 18.92 10.45 0 18.92-8.47 18.92-18.92 0-10.454-8.47-18.923-18.92-18.923zm135.107 86.002c-9.05 5.225-12.15 16.793-6.926 25.84 5.226 9.05 16.793 12.15 25.844 6.926 9.05-5.224 12.15-16.792 6.925-25.842-5.224-9.047-16.793-12.148-25.84-6.924zm-94.005-67.082c0-18.7 9.293-35.22 23.504-45.22L96.128 73.337C79.568 84.4 67.25 101.315 62.133 121.125c5.977 4.872 9.796 12.29 9.796 20.608 0 8.315-3.82 15.734-9.8 20.605 5.117 19.81 17.436 36.725 33.996 47.788l13.835-23.175c-14.21-10-23.503-26.516-23.503-45.22zm55.275-55.275c28.877 0 52.564 22.14 55.047 50.373l26.968-.394c-1.327-20.844-10.432-39.562-24.425-53.32-7.194 2.72-15.505 2.307-22.688-1.84-7.192-4.153-11.705-11.157-12.94-18.758-6.993-1.935-14.352-2.99-21.96-2.99-13.087 0-25.45 3.072-36.432 8.512L118.45 91.6c7.076-3.293 14.962-5.143 23.283-5.143zm0 110.55c-8.322 0-16.207-1.85-23.285-5.142L105.3 215.427c10.983 5.438 23.347 8.51 36.433 8.51 7.61 0 14.968-1.054 21.96-2.99 1.237-7.6 5.75-14.604 12.944-18.76 7.183-4.145 15.494-4.557 22.688-1.838 13.992-13.76 23.097-32.478 24.422-53.32l-26.968-.396c-2.483 28.236-26.17 50.373-55.048 50.373zM180.46 74.65c9.05 5.226 20.62 2.125 25.842-6.922 5.226-9.05 2.128-20.62-6.923-25.845-9.05-5.224-20.62-2.124-25.845 6.927-5.224 9.047-2.124 20.616 6.924 25.84z"/></svg>