<svg xmlns="http://www.w3.org/2000/svg" xmlns:xlink="http://www.w3.org/1999/xlink" width="230.427" height="212.451" viewBox="282.573 260.07 230.427 212.451" enable-background="new 282.573 260.07 230.427 212.451"><path fill="#DD4814" stroke="#fff" stroke-width="2" stroke-linecap="round" stroke-linejoin="round" stroke-miterlimit="10" d="M511.613 366.295l-.096 39.43L398.31 471.52l.095-39.43zM398.405 432.09l-.096 39.43-113.936-65.795.097-39.43z"/><path fill="#333" stroke="#fff" stroke-width="2" stroke-linecap="round" stroke-linejoin="round" stroke-miterlimit="10" d="M511.71 326.866l-56.605 32.898-113.933-65.796 56.604-32.898z"/><path fill="#333" stroke="#fff" stroke-width="2" stroke-linecap="round" stroke-linejoin="round" stroke-miterlimit="10" d="M512 327.01l-.146 39.43-56.603 32.898.147-39.43z" enable-background="new"/><g enable-background="new"><path fill="#333" d="M455.105 359.764l-.096 39.43-113.936-65.797.097-39.43z"/><defs><path id="a" d="M455.105 359.764l-.096 39.43-113.936-65.797.097-39.43z"/></defs><clipPath id="b"><use xlink:href="#a" overflow="visible"/></clipPath><path clip-path="url(#b)" fill="#333" stroke="#fff" stroke-width="2" stroke-miterlimit="10" d="M455.105 359.764l-.096 39.43-113.936-65.797.097-39.43z"/><path fill="none" stroke="#fff" stroke-width="2" stroke-miterlimit="10" d="M455.105 359.764l-.096 39.43-113.936-65.797.097-39.43z"/></g><path fill="#888" stroke="#fff" stroke-width="2" stroke-linecap="round" stroke-linejoin="round" stroke-miterlimit="10" d="M455.058 379.454l-56.605 32.9-113.933-65.75 56.604-32.897zm-56.605 32.9l-.048 19.737-113.933-65.794.048-19.69zm56.605-32.9l-.05 19.74-56.603 32.897.048-19.736z"/><path fill="#2C001E" stroke="#fff" stroke-width="2" stroke-linecap="round" stroke-linejoin="round" stroke-miterlimit="10" d="M397.68 326.962l-.05 19.642-56.36 32.753.047-19.642z"/><path fill="#CDCDCD" d="M397.68 326.962l-56.363 32.753-56.75-32.753 56.605-32.994zm-56.363 32.753l-.048 19.642-56.75-32.753.047-19.642zm56.363-32.753l-.05 19.642-56.36 32.753.047-19.642z"/><g enable-background="new"><defs><path id="c" d="M397.68 346.604l-56.41 32.753-56.702-32.753 56.604-32.897z"/></defs><clipPath id="d"><use xlink:href="#c" overflow="visible"/></clipPath><path clip-path="url(#d)" fill="none" stroke="#fff" stroke-width="2" stroke-miterlimit="10" d="M397.68 346.604l-56.363 32.753-56.75-32.753 56.605-32.897z"/><path fill="none" stroke="#fff" stroke-width="2" stroke-miterlimit="10" d="M397.68 346.604l-56.41 32.753-56.702-32.753 56.604-32.897z"/></g><g enable-background="new"><defs><path id="e" d="M397.728 326.962l-56.363 32.753-56.75-32.753 56.606-32.994z"/></defs><clipPath id="f"><use xlink:href="#e" overflow="visible"/></clipPath><path clip-path="url(#f)" fill="none" stroke="#fff" stroke-width="2" stroke-miterlimit="10" d="M397.728 326.962l-56.363 32.753-56.75-32.753 56.606-32.994z"/><path fill="none" stroke="#fff" stroke-width="2" stroke-miterlimit="10" d="M397.728 326.962l-56.363 32.753-56.75-32.753 56.606-32.994z"/></g><g enable-background="new"><defs><path id="g" d="M341.365 359.715l-.096 19.642-56.703-32.753.048-19.642z"/></defs><clipPath id="h"><use xlink:href="#g" overflow="visible"/></clipPath><path clip-path="url(#h)" fill="none" stroke="#fff" stroke-width="2" stroke-miterlimit="10" d="M341.365 359.715l-.048 19.642-56.75-32.753.05-19.642z"/><path fill="none" stroke="#fff" stroke-width="2" stroke-miterlimit="10" d="M341.365 359.715l-.096 19.642-56.703-32.753.048-19.642z"/></g><g enable-background="new"><defs><path id="i" d="M284.616 326.962l56.605-32.994-.047 19.74-56.604 32.896z"/></defs><clipPath id="j"><use xlink:href="#i" overflow="visible"/></clipPath><path clip-path="url(#j)" fill="none" stroke="#fff" stroke-width="2" stroke-miterlimit="10" d="M284.616 326.962l56.605-32.994-.047 19.74-56.604 32.896z"/><path fill="none" stroke="#fff" stroke-width="2" stroke-miterlimit="10" d="M284.616 326.962l56.605-32.994-.047 19.74-56.604 32.896z"/></g><g enable-background="new"><defs><path id="k" d="M341.22 293.968l56.508 32.994-.048 19.642-56.508-32.897z"/></defs><clipPath id="l"><use xlink:href="#k" overflow="visible"/></clipPath><path clip-path="url(#l)" fill="none" stroke="#fff" stroke-width="2" stroke-miterlimit="10" d="M341.22 293.968l56.508 32.994-.048 19.642-56.75-32.752z"/><path fill="none" stroke="#fff" stroke-width="2" stroke-miterlimit="10" d="M341.22 293.968l56.508 32.994-.048 19.642-56.508-32.897z"/></g></svg>