<svg xmlns="http://www.w3.org/2000/svg" width="90" height="90" viewBox="0 0 90 90"><g color="#000"><path fill="none" stroke-width="4" overflow="visible" enable-background="accumulate" d="M0 0h90v90H0z"/><path d="M69 36.5a33 33.5 0 1 1-66 0 33 33.5 0 1 1 66 0z" transform="matrix(.636 0 0 .627 16.114 16.12)" fill="none" stroke="#888" stroke-width="9.5" overflow="visible" enable-background="accumulate"/><path style="text-indent:0;text-align:start;line-height:normal;text-transform:none;block-progression:tb;-inkscape-font-specification:Sans" d="M55.773 52.917L52.94 55.75l14 14 2.833-2.833-14-14z" font-size="xx-small" fill="#888" stroke-width="6" overflow="visible" enable-background="accumulate" font-family="Sans"/><path style="text-indent:0;text-align:start;line-height:normal;text-transform:none;block-progression:tb;-inkscape-font-specification:Sans" d="M60.972 57.03c-1.55.01-3.045 1.023-3.626 2.46-.58 1.436-.21 3.207.898 4.29l9.194 9.2c2.683 2.85 3.262 2.464 5.643.083 2.383-2.38 2.77-2.792-.082-5.646l-9.194-9.2c-.734-.753-1.78-1.192-2.83-1.188z" font-size="xx-small" fill="#888" stroke-width="11.804" overflow="visible" enable-background="accumulate" font-family="Sans"/></g></svg>