<svg xmlns="http://www.w3.org/2000/svg" width="90" height="90"><g color="#000"><path d="M61.57 3.43c-6.714.024-12.894 5.883-12.83 12.59-.133 5.19-1.798 10.998-6.614 14.084-.03.025-.048.055-.08.078-2.4 1.758-5.166 2.275-7.888 2.36-2.73.086-5.49-.25-7.97-.155h-.08c-5.993.592-10.906 6.265-11.235 12.04-.786 7.182 5.762 14.56 13.228 14.084 4.986-.363 11.015-.633 15.223 3.228.028.025.05.053.08.078 4.46 3.53 5.176 9.294 5.498 14.243.578 8.044 10.26 13.56 17.69 10.543a.812.802 0 0 1 .08-.078c7.1-2.403 10.69-11.408 7.173-17.94a.812.802 0 0 1 0-.08c-2.378-4.84-7.96-7.966-13.388-7.238-5.228.627-11.288-.076-15.06-4.407-4.614-5.015-4.803-12.566-2.71-18.57a.812.802 0 0 1 0-.08c2.31-6.175 9.165-9.65 15.62-8.812 4.397.528 9.11.15 12.27-2.91a.812.802 0 0 1 .08-.08c5.9-4.712 5.986-14.61.24-19.514a.812.802 0 0 1 0-.078c-2.488-2.276-5.92-3.465-9.324-3.383z" fill="#fff" fill-rule="evenodd" overflow="visible" enable-background="accumulate"/><path opacity=".1" fill="none" stroke-width="4" overflow="visible" enable-background="accumulate" d="M0 0h90v90H0z"/></g></svg>