<?xml version="1.0" encoding="UTF-8" standalone="no"?>
<!-- Created with Inkscape (http://www.inkscape.org/) -->

<svg
   xmlns:dc="http://purl.org/dc/elements/1.1/"
   xmlns:cc="http://creativecommons.org/ns#"
   xmlns:rdf="http://www.w3.org/1999/02/22-rdf-syntax-ns#"
   xmlns:svg="http://www.w3.org/2000/svg"
   xmlns="http://www.w3.org/2000/svg"
   xmlns:sodipodi="http://sodipodi.sourceforge.net/DTD/sodipodi-0.dtd"
   xmlns:inkscape="http://www.inkscape.org/namespaces/inkscape"
   width="90"
   height="90"
   id="svg3289"
   version="1.1"
   inkscape:version="0.48.3.1 r9886"
   sodipodi:docname="twitter@30.svg">
  <defs
     id="defs3291" />
  <sodipodi:namedview
     id="base"
     pagecolor="#808080"
     bordercolor="#666666"
     borderopacity="1.0"
     inkscape:pageopacity="0.0"
     inkscape:pageshadow="2"
     inkscape:zoom="7.9580787"
     inkscape:cx="26.369431"
     inkscape:cy="45.758564"
     inkscape:document-units="px"
     inkscape:current-layer="g4451"
     showgrid="true"
     inkscape:window-width="1920"
     inkscape:window-height="1029"
     inkscape:window-x="0"
     inkscape:window-y="24"
     inkscape:window-maximized="1"
     fit-margin-top="0"
     fit-margin-left="0"
     fit-margin-right="0"
     fit-margin-bottom="0">
    <inkscape:grid
       type="xygrid"
       id="grid3061"
       empspacing="6"
       visible="true"
       enabled="true"
       snapvisiblegridlinesonly="true"
       originx="0px"
       originy="2.5e-05px" />
  </sodipodi:namedview>
  <metadata
     id="metadata3294">
    <rdf:RDF>
      <cc:Work
         rdf:about="">
        <dc:format>image/svg+xml</dc:format>
        <dc:type
           rdf:resource="http://purl.org/dc/dcmitype/StillImage" />
        <dc:title />
      </cc:Work>
    </rdf:RDF>
  </metadata>
  <g
     inkscape:label="Layer 1"
     inkscape:groupmode="layer"
     id="layer1"
     transform="translate(0,-962.36223)">
    <g
       style="display:inline"
       transform="translate(-789,604.3622)"
       id="g4451">
      <g
         transform="matrix(1.875,0,0,1.875,249,-1435.1791)"
         id="g4143">
        <rect
           style="opacity:0.21171169;fill:none;stroke:none"
           id="rect4145"
           width="48"
           height="48"
           x="288"
           y="152"
           transform="translate(0,804.3622)" />
      </g>
      <path
         style="fill:#808080;fill-opacity:1;stroke:none;display:inline"
         d="m 844.41567,367.4855 c -6.73882,2.04333 -13.22339,11.13593 -11.18912,21.42226 -22.36574,-1.3457 -32.24295,-13.32027 -38.1825,-19.05078 -6.05365,10.6772 0.15439,21.055 5.57685,24.41421 -2.86174,0.15721 -6.32317,-1.07865 -8.0412,-2.15388 -0.65287,9.85032 7.38065,16.6786 14.21522,18.44837 -2.18487,0.65113 -4.2439,0.73868 -7.76369,0.21545 2.99737,9.9069 11.05007,12.5584 17.04859,12.99475 -7.72242,6.69538 -16.99612,8.15516 -27.07982,7.66275 26.14467,15.98158 52.54667,6.14923 65.39713,-6.3927 10.79083,-10.53214 15.61488,-26.30305 15.78183,-40.4143 2.46986,-2.00555 7.46387,-6.25642 8.82104,-9.5834 -1.9697,0.75706 -5.86629,2.5581 -9.9324,2.72005 3.34876,-2.19234 7.18633,-6.58563 7.5883,-10.02024 -3.70785,2.0177 -7.99855,3.76591 -11.67352,4.32342 -6.92784,-6.68195 -13.67377,-6.67616 -20.5667,-4.58593 z"
         id="path6437"
         inkscape:connector-curvature="0"
         sodipodi:nodetypes="sccccccccscccccs" />
    </g>
  </g>
</svg>
