<svg xmlns="http://www.w3.org/2000/svg" width="90" height="90"><path opacity=".212" fill="none" d="M0 0h90v90H0z"/><path d="M55.416 9.486c-6.74 2.043-13.224 11.135-11.19 21.422-22.365-1.346-32.242-13.32-38.182-19.05C-.01 22.533 6.198 32.91 11.62 36.27c-2.86.158-6.322-1.077-8.04-2.153-.653 9.85 7.38 16.68 14.215 18.45-2.185.65-4.244.737-7.764.214 3 9.91 11.05 12.56 17.05 12.997C19.358 72.47 10.085 73.93 0 73.44c26.145 15.98 52.547 6.148 65.397-6.394 10.79-10.532 15.615-26.303 15.782-40.414 2.47-2.006 7.462-6.257 8.82-9.584-1.97.757-5.867 2.558-9.933 2.72 3.348-2.192 7.186-6.585 7.588-10.02-3.708 2.018-8 3.766-11.674 4.323-6.926-6.68-13.672-6.674-20.565-4.583z" fill="#808080"/></svg>