<?xml version="1.0" encoding="utf-8"?>
<!-- Generator: Adobe Illustrator 17.0.2, SVG Export Plug-In . SVG Version: 6.00 Build 0)  -->
<!DOCTYPE svg PUBLIC "-//W3C//DTD SVG 1.1//EN" "http://www.w3.org/Graphics/SVG/1.1/DTD/svg11.dtd">
<svg version="1.1" xmlns="http://www.w3.org/2000/svg" xmlns:xlink="http://www.w3.org/1999/xlink" x="0px" y="0px" width="348px"
	 height="300px" viewBox="0 0 348 300" enable-background="new 0 0 348 300" xml:space="preserve">
<g id="BK">
</g>
<g id="Comp">
	<polygon fill="#DD4814" points="213.499,90.102 213.499,60.115 175.65,65.14 175.65,90.102 	"/>
	<polygon fill="#DD4814" points="172.985,65.494 145.499,69.142 145.499,90.102 172.985,90.102 	"/>
	<polygon fill="#DD4814" points="145.499,92.529 145.499,113.754 172.985,117.444 172.985,92.529 	"/>
	<polygon fill="#DD4814" points="175.65,117.803 213.499,122.884 213.499,92.529 175.65,92.529 	"/>
	<path fill="#DD4814" d="M114,92c0,17.671-14.326,32-32,32c-17.673,0-32-14.329-32-32c0-17.673,14.327-32,32-32
		C99.674,60,114,74.327,114,92z M60.241,87.727c-2.36,0-4.273,1.912-4.273,4.273c0,2.358,1.913,4.271,4.273,4.271
		c2.359,0,4.272-1.912,4.272-4.271C64.513,89.639,62.6,87.727,60.241,87.727z M90.745,107.145c-2.043,1.18-2.744,3.792-1.562,5.834
		c1.179,2.042,3.789,2.745,5.834,1.564c2.043-1.18,2.744-3.792,1.564-5.836C95.4,106.667,92.788,105.967,90.745,107.145z M69.521,92
		c0-4.221,2.097-7.952,5.306-10.211l-3.124-5.232c-3.738,2.498-6.519,6.318-7.675,10.788c1.349,1.101,2.212,2.776,2.212,4.655
		c0,1.875-0.863,3.551-2.212,4.654c1.155,4.471,3.936,8.289,7.675,10.789l3.124-5.234C71.618,99.951,69.521,96.224,69.521,92z
		 M82,79.52c6.52,0,11.868,4.998,12.43,11.373l6.088-0.089c-0.3-4.708-2.356-8.933-5.515-12.037
		c-1.624,0.612-3.501,0.519-5.122-0.417c-1.625-0.938-2.643-2.52-2.922-4.236c-1.578-0.435-3.24-0.673-4.959-0.673
		c-2.953,0-5.746,0.692-8.224,1.919l2.967,5.319C78.341,79.937,80.122,79.52,82,79.52z M82,104.479
		c-1.878,0-3.659-0.418-5.256-1.161l-2.968,5.32c2.48,1.229,5.271,1.924,8.225,1.924c1.718,0,3.38-0.24,4.958-0.678
		c0.279-1.716,1.298-3.296,2.922-4.235c1.623-0.936,3.498-1.029,5.123-0.417c3.159-3.106,5.215-7.331,5.514-12.038l-6.09-0.089
		C93.868,99.482,88.52,104.479,82,104.479z M90.744,76.854c2.044,1.178,4.655,0.479,5.834-1.562
		c1.181-2.046,0.481-4.656-1.562-5.836c-2.045-1.18-4.655-0.479-5.836,1.564C88.001,73.063,88.702,75.673,90.744,76.854z"/>
	<path fill="#DD4814" d="M270,164c0,11-9,20-20,20H20c-11,0-20-9-20-20V20C0,9,9,0,20,0h230c11,0,20,9,20,20V164z M135,7
		c-2.209,0-4,1.791-4,4s1.791,4,4,4s4-1.791,4-4S137.209,7,135,7z M249,21H21v141h228V21z"/>
	<path fill="#DD4814" d="M348,268.5c0,17.325-14.175,31.5-31.5,31.5l0,0c-17.325,0-31.5-14.175-31.5-31.5v-39
		c0-17.325,14.175-31.5,31.5-31.5l0,0c17.325,0,31.5,14.175,31.5,31.5V268.5z M316.5,226c-3.314,0-6,2.686-6,6s2.686,6,6,6
		s6-2.686,6-6S319.814,226,316.5,226z"/>
	<path fill="#DD4814" d="M270,280c0,11-9,20-20,20H20c-11,0-20-9-20-20v-62c0-11,9-20,20-20h230c11,0,20,9,20,20V280z M33,255
		c-6.075,0-11,4.925-11,11s4.925,11,11,11s11-4.925,11-11S39.075,255,33,255z M67,255c-6.075,0-11,4.925-11,11s4.925,11,11,11
		s11-4.925,11-11S73.075,255,67,255z M169,255h-68c-6.075,0-11,4.925-11,11s4.925,11,11,11h68c6.075,0,11-4.925,11-11
		S175.075,255,169,255z M203,255c-6.075,0-11,4.925-11,11s4.925,11,11,11s11-4.925,11-11S209.075,255,203,255z M237,255
		c-6.075,0-11,4.925-11,11s4.925,11,11,11s11-4.925,11-11S243.075,255,237,255z M33,221c-6.075,0-11,4.925-11,11s4.925,11,11,11
		s11-4.925,11-11S39.075,221,33,221z M67,221c-6.075,0-11,4.925-11,11s4.925,11,11,11s11-4.925,11-11S73.075,221,67,221z M101,221
		c-6.075,0-11,4.925-11,11s4.925,11,11,11s11-4.925,11-11S107.075,221,101,221z M135,221c-6.075,0-11,4.925-11,11s4.925,11,11,11
		s11-4.925,11-11S141.075,221,135,221z M169,221c-6.075,0-11,4.925-11,11s4.925,11,11,11s11-4.925,11-11S175.075,221,169,221z
		 M203,221c-6.075,0-11,4.925-11,11s4.925,11,11,11s11-4.925,11-11S209.075,221,203,221z M237,221c-6.075,0-11,4.925-11,11
		s4.925,11,11,11s11-4.925,11-11S243.075,221,237,221z"/>
</g>
<g id="Grid" display="none">
</g>
</svg>
