<?xml version="1.0" encoding="utf-8"?>
<!-- Generator: Adobe Illustrator 17.0.2, SVG Export Plug-In . SVG Version: 6.00 Build 0)  -->
<!DOCTYPE svg PUBLIC "-//W3C//DTD SVG 1.1//EN" "http://www.w3.org/Graphics/SVG/1.1/DTD/svg11.dtd">
<svg version="1.1" id="Layer_1" xmlns="http://www.w3.org/2000/svg" xmlns:xlink="http://www.w3.org/1999/xlink" x="0px" y="0px"
	 width="392px" height="112px" viewBox="0 0 392 112" enable-background="new 0 0 392 112" xml:space="preserve">
<g id="BK">
</g>
<g id="Comp">
	<path fill="#888888" d="M83.996,7.513C57.218-7.95,22.975,1.223,7.512,28.001c-15.463,26.784-6.289,61.03,20.495,76.489
		c26.779,15.461,61.023,6.283,76.483-20.494C119.951,57.21,110.774,22.971,83.996,7.513z M76.998,81.201
		c0,4.64-3.756,8.399-8.398,8.399H43.404c-4.644,0-8.403-3.759-8.403-8.399V30.798c0-4.637,3.758-8.399,8.403-8.399H68.6
		c4.643,0,8.398,3.762,8.398,8.399V81.201L76.998,81.201z M65.307,42.348h-18.61c-1.82,0-3.292-1.412-3.292-3.151
		c0-1.737,1.473-3.151,3.292-3.151h18.611c1.814,0,3.293,1.414,3.293,3.151C68.6,40.937,67.121,42.348,65.307,42.348L65.307,42.348z
		 M65.307,33.949h-18.61c-1.82,0-3.292-1.409-3.292-3.151c0-1.739,1.473-3.151,3.292-3.151h18.611c1.814,0,3.293,1.412,3.293,3.151
		C68.6,32.541,67.121,33.949,65.307,33.949L65.307,33.949z M65.307,50.747h-18.61c-1.82,0-3.292-1.409-3.292-3.148
		s1.473-3.149,3.292-3.149h18.611c1.814,0,3.293,1.409,3.293,3.149S67.121,50.747,65.307,50.747L65.307,50.747z M51.797,72.801
		c0,2.319-1.878,4.197-4.199,4.197c-2.315,0-4.193-1.878-4.193-4.197c0-2.318,1.878-4.202,4.193-4.202
		C49.919,68.599,51.797,70.484,51.797,72.801z"/>
	<path fill="#888888" d="M223.162,9.647c-5.12,0.017-9.934,2.019-13.553,5.638c-3.636,3.636-5.639,8.47-5.64,13.612
		c0,5.141,2.003,9.976,5.639,13.612c1.026,1.025,2.369,1.538,3.713,1.538s2.689-0.513,3.713-1.538c2.052-2.05,2.052-5.375,0-7.424
		c-1.652-1.653-2.562-3.849-2.562-6.186s0.911-4.535,2.564-6.187c1.646-1.646,3.834-2.555,6.162-2.563
		c2.9-0.01,5.243-2.368,5.233-5.267C228.422,11.979,226.077,9.661,223.162,9.647z M215.804,36.312
		c1.366,1.367,1.366,3.583-0.001,4.949c-1.367,1.367-3.584,1.368-4.95,0.001c-1.369-1.366-1.369-3.583,0-4.95
		C212.219,34.945,214.437,34.946,215.804,36.312z M243.346,48.373c-0.089,0.103-0.177,0.205-0.274,0.303l-33.44,33.431
		c-1.024,1.025-2.368,1.538-3.712,1.538c-1.344,0-2.688-0.513-3.713-1.538c-2.051-2.05-2.051-5.374,0-7.424l17.96-17.957
		c-1.867-0.202-3.692-0.589-5.456-1.149L198.905,71.38c-1.025,1.025-2.369,1.538-3.712,1.538c-1.344,0-2.688-0.513-3.713-1.538
		c-2.051-2.05-2.051-5.374,0-7.424l13.678-13.675c-0.597-0.505-1.176-1.029-1.736-1.587c-0.553-0.553-1.071-1.128-1.568-1.714
		l-13.678,13.674c-1.025,1.025-2.369,1.538-3.713,1.538c-1.343,0-2.688-0.513-3.713-1.538c-2.051-2.05-2.051-5.374,0-7.425
		l15.81-15.807c-0.567-1.782-0.952-3.607-1.154-5.452l-17.961,17.956c-1.025,1.025-2.37,1.538-3.713,1.538
		c-1.344,0-2.689-0.513-3.713-1.538c-2.051-2.05-2.051-5.374,0-7.424l33.217-33.209c0.062-0.064,0.12-0.131,0.186-0.195l7.172-7.17
		C205.889,0.666,200.99,0,195.988,0c-14.962,0-29.029,5.825-39.609,16.402c-21.839,21.834-21.839,57.361,0,79.194
		c10.58,10.577,24.647,16.403,39.61,16.403c14.961,0,29.027-5.825,39.606-16.402C246.174,85.021,252,70.958,252,56
		c0-4.947-0.65-9.791-1.886-14.448L243.346,48.373z M158.754,58.327c2.734-2.735,7.167-2.734,9.901-0.001
		c2.735,2.735,2.735,7.167,0,9.9c-2.734,2.734-7.166,2.734-9.901-0.001C156.02,65.493,156.02,61.06,158.754,58.327z M173.912,93.055
		c-2.734,2.733-7.167,2.733-9.901-0.001c-2.735-2.734-2.735-7.165-0.001-9.899c2.735-2.734,7.168-2.734,9.902,0
		C176.645,85.889,176.646,90.321,173.912,93.055z M196.108,90.613c-2.734,2.734-7.167,2.734-9.901,0s-2.735-7.165-0.001-9.899
		c2.735-2.735,7.169-2.734,9.902,0C198.842,83.448,198.842,87.88,196.108,90.613z"/>
	<path fill="#5E2750" d="M331.108,61.865c1.368,1.367,3.158,2.05,4.95,2.05c1.791,0,3.582-0.683,4.948-2.05l12.51-12.51V73.49h-35
		V49.272L331.108,61.865z M364.025,7.518c-2.166-1.254-4.836-1.256-7.004-0.007c-2.168,1.25-3.505,3.562-3.505,6.065v21.198
		l-12.51-12.508c-2.731-2.733-7.162-2.733-9.898,0l-12.592,12.592V13.559c0-2.502-1.335-4.813-3.502-6.065
		c-2.166-1.249-4.835-1.249-7.001,0.004C290.736,17.489,280,36.072,280,55.997C280,86.876,305.123,112,336,112s56-25.124,56-56.003
		C392,36.091,381.282,17.514,364.025,7.518"/>
</g>
<g id="Grid" display="none">
	<g id="Grid_1_" display="inline">
	</g>
</g>
<g id="Labels">
</g>
</svg>
