<?xml version="1.0" encoding="utf-8"?>
<!-- Generator: Adobe Illustrator 17.0.2, SVG Export Plug-In . SVG Version: 6.00 Build 0)  -->
<!DOCTYPE svg PUBLIC "-//W3C//DTD SVG 1.1//EN" "http://www.w3.org/Graphics/SVG/1.1/DTD/svg11.dtd">
<svg version="1.1" xmlns="http://www.w3.org/2000/svg" xmlns:xlink="http://www.w3.org/1999/xlink" x="0px" y="0px" width="256px"
	 height="240px" viewBox="0 0 256 240" enable-background="new 0 0 256 240" xml:space="preserve">
<g id="BK">
</g>
<g id="Comp">
	<path fill="#2C001E" d="M157.996,8.049C129.305-8.519,92.616,1.31,76.048,30c-16.567,28.698-6.738,65.39,21.959,81.952
		c28.692,16.565,65.382,6.732,81.946-21.958C196.519,61.296,186.687,24.611,157.996,8.049z M150.498,87
		c0,4.971-4.024,8.999-8.998,8.999h-26.996c-4.976,0-9.003-4.028-9.003-8.999V32.997c0-4.968,4.027-8.999,9.003-8.999H141.5
		c4.974,0,8.998,4.031,8.998,8.999L150.498,87L150.498,87z M137.972,45.372h-19.94c-1.95,0-3.527-1.512-3.527-3.376
		c0-1.861,1.578-3.376,3.527-3.376h19.94c1.943,0,3.528,1.516,3.528,3.376C141.5,43.86,139.915,45.372,137.972,45.372
		L137.972,45.372z M137.972,36.373h-19.94c-1.95,0-3.527-1.509-3.527-3.376c0-1.864,1.578-3.376,3.527-3.376h19.94
		c1.943,0,3.528,1.512,3.528,3.376C141.5,34.864,139.915,36.373,137.972,36.373L137.972,36.373z M137.972,54.371h-19.94
		c-1.95,0-3.527-1.509-3.527-3.373c0-1.864,1.578-3.374,3.527-3.374h19.94c1.943,0,3.528,1.509,3.528,3.374
		C141.5,52.863,139.915,54.371,137.972,54.371L137.972,54.371z M123.496,78c0,2.485-2.012,4.497-4.499,4.497
		c-2.481,0-4.493-2.012-4.493-4.497c0-2.484,2.012-4.502,4.493-4.502C121.484,73.498,123.496,75.518,123.496,78z"/>
	<path fill="#DD4814" d="M256,180.001C256,213.136,229.137,240,196.002,240C162.862,240,136,213.136,136,180.001
		C136,146.863,162.862,120,196.002,120C229.138,120,256,146.863,256,180.001z M155.202,171.988c-4.426,0-8.014,3.587-8.014,8.013
		c0,4.424,3.589,8.01,8.014,8.01c4.424,0,8.01-3.586,8.01-8.01C163.212,175.575,159.627,171.988,155.202,171.988z M212.397,208.397
		c-3.832,2.214-5.143,7.11-2.932,10.939c2.211,3.832,7.109,5.145,10.938,2.931c3.832-2.21,5.146-7.106,2.932-10.939
		C221.127,207.5,216.226,206.187,212.397,208.397z M172.602,180.001c0-7.917,3.932-14.911,9.95-19.146l-5.859-9.809
		c-7.008,4.686-12.223,11.844-14.39,20.228c2.528,2.065,4.15,5.205,4.15,8.726c0,3.519-1.622,6.66-4.15,8.724
		c2.163,8.388,7.378,15.547,14.39,20.231l5.859-9.811C176.534,194.911,172.602,187.917,172.602,180.001z M196.002,156.6
		c12.221,0,22.25,9.373,23.303,21.325l11.415-0.167c-0.562-8.824-4.418-16.746-10.341-22.572c-3.045,1.151-6.563,0.975-9.604-0.778
		c-3.047-1.758-4.958-4.724-5.478-7.943c-2.961-0.817-6.077-1.264-9.299-1.264c-5.537,0-10.772,1.301-15.421,3.602l5.567,9.974
		C189.139,157.383,192.48,156.6,196.002,156.6z M196.002,203.398c-3.523,0-6.864-0.783-9.858-2.176l-5.567,9.974
		c4.649,2.304,9.884,3.605,15.425,3.605c3.219,0,6.335-0.448,9.295-1.267c0.523-3.219,2.432-6.182,5.478-7.943
		c3.044-1.755,6.56-1.929,9.604-0.778c5.923-5.826,9.778-13.747,10.341-22.571l-11.418-0.168
		C218.253,194.029,208.224,203.398,196.002,203.398z M212.394,151.599c3.832,2.213,8.729,0.902,10.94-2.929
		c2.214-3.832,0.901-8.729-2.931-10.943c-3.83-2.21-8.728-0.896-10.941,2.935C207.254,144.492,208.565,149.389,212.394,151.599z"/>
	<path fill="#0095D9" d="M59.833,120.156c1.782-0.01,3.557-0.414,5.325-0.038c7.828,0.694,15.546,2.845,22.509,6.511
		c9.008,4.613,16.757,11.627,22.379,20.033c5.735,8.549,9.131,18.617,9.897,28.877c-0.126,2.715-0.205,5.448,0.058,8.156
		c-0.561,7.801-2.514,15.536-5.995,22.56c-3.97,8.163-9.849,15.386-17.007,20.967c-8.919,6.993-19.862,11.367-31.154,12.404
		c-1.72,0.123-3.437,0.441-5.167,0.308c-1.146-0.076-2.319,0.291-3.42-0.178c4.217-11.863,8.43-23.73,12.684-35.583
		c4.63-0.085,9.264,0.031,13.894-0.055c2.955-0.103,5.876-1.902,6.847-4.774c3.916-11.025,7.93-22.02,11.723-33.093
		c0.622-1.672,0.968-3.536,0.472-5.287c-0.67-2.219-2.701-3.789-4.883-4.377c-1.895-0.588-3.895-0.373-5.844-0.407
		c-5.944-0.017-11.887,0.031-17.827-0.027c-0.096,0.198-0.291,0.592-0.386,0.787c-9.624,27.03-19.229,54.067-28.89,81.083
		c-9.924-2.575-19.171-7.732-26.544-14.859c-8.881-8.498-15.047-19.8-17.328-31.882C0.458,187.653,0.198,183.96,0,180.276
		c0.161-7.671,1.419-15.375,4.309-22.509c7.048-18.019,23.357-32.208,42.316-36.264c-9.705,26.91-19.185,53.903-28.887,80.816
		c0.619,0.188,1.269,0.116,1.905,0.123c3.536-0.017,7.076,0.007,10.612-0.007c0.482-0.003,0.431-0.674,0.633-0.981
		c4.261-12.031,8.573-24.045,12.848-36.068c0.256-0.746,0.496-1.498,0.838-2.206c2.216,0.038,4.432-0.01,6.648,0.024
		c-4.647,13.033-9.254,26.086-13.97,39.095c0.492,0.198,1.029,0.137,1.546,0.147c3.714-0.035,7.428,0.024,11.142-0.027
		c4.196-11.843,8.443-23.665,12.65-35.501c0.899-2.421,0.978-5.284-0.451-7.517c-1.248-1.977-3.618-2.921-5.879-3.013
		c-3.091-0.092-6.186,0.007-9.281-0.048C51.232,144.269,55.613,132.242,59.833,120.156z"/>
	<path fill="#0095D9" d="M84.472,163.334c0.369-0.417,1.026-0.164,1.518-0.236c1.717,0.031,3.433-0.014,5.15,0.024
		c-3.998,11.412-8.184,22.759-12.116,34.194c-2.223,0.157-4.463,0.062-6.689,0.048C76.395,186.028,80.413,174.674,84.472,163.334z"
		/>
</g>
<g id="Grid" display="none">
	<g id="Grid_1_" display="inline">
	</g>
</g>
<g id="Labels">
</g>
</svg>
