<?xml version="1.0" encoding="utf-8"?>
<svg xmlns="http://www.w3.org/2000/svg"
	xmlns:xlink="http://www.w3.org/1999/xlink"
	width="984px" height="192px">
<clipPath id="clip0">
<use xlink:href="#symbol0"/>
</clipPath>
<defs>
<rect id="symbol0" x="0.00" y="0.00" width="984.00" height="192.00"/>
</defs>
<g>
<use xlink:href="#symbol0" fill="rgb(255,255,255)"/>
<path clip-path="url(#clip0)" fill="rgb(255,255,255)" fill-rule="evenodd" d="M167.51 58.00 C167.51 58.00 154.39 58.00 154.39 58.00 C154.32 58.00 154.25 58.01 154.19 58.01 C154.19 58.01 101.94 58.01 101.94 58.01 C101.94 58.01 101.94 58.01 101.94 58.01 C68.89 58.01 42.00 84.83 42.00 117.79 C42.00 148.22 64.91 173.41 94.43 177.11 C94.43 177.11 94.43 219.00 94.43 219.00 C94.43 219.00 109.41 219.00 109.41 219.00 C109.41 219.00 109.41 177.11 109.41 177.11 C138.93 173.44 161.85 148.26 161.88 117.84 C161.88 117.82 161.88 117.81 161.88 117.79 C161.88 117.79 161.88 78.71 161.88 78.71 C161.88 78.66 161.89 78.60 161.89 78.55 C161.89 75.46 164.41 72.94 167.51 72.94 C171.65 72.94 175.00 69.60 175.00 65.47 C175.00 61.34 171.64 58.00 167.51 58.00 Z M116.54 132.35 C110.17 138.69 101.71 142.19 92.71 142.19 C92.71 142.19 92.70 142.19 92.70 142.19 C89.76 142.19 86.82 141.80 83.98 141.05 C81.39 140.36 79.36 138.34 78.67 135.75 C75.58 124.18 78.92 111.74 87.40 103.28 C93.76 96.93 102.23 93.44 111.23 93.44 C114.18 93.44 117.11 93.82 119.95 94.58 C122.55 95.27 124.57 97.28 125.26 99.87 C128.36 111.44 125.01 123.89 116.54 132.35 Z M139.64 76.64 C137.57 76.64 135.89 74.97 135.89 72.90 C135.89 70.84 137.57 69.16 139.64 69.16 C141.71 69.16 143.39 70.84 143.39 72.90 C143.38 74.97 141.71 76.64 139.64 76.64 Z"/>
</g>
</svg>