<?xml version="1.0" encoding="utf-8"?>
<!-- Generator: Adobe Illustrator 17.0.2, SVG Export Plug-In . SVG Version: 6.00 Build 0)  -->
<!DOCTYPE svg PUBLIC "-//W3C//DTD SVG 1.1//EN" "http://www.w3.org/Graphics/SVG/1.1/DTD/svg11.dtd">
<svg version="1.1" id="Layer_1" xmlns="http://www.w3.org/2000/svg" xmlns:xlink="http://www.w3.org/1999/xlink" x="0px" y="0px"
	 width="390px" height="114px" viewBox="0 0 390 114" enable-background="new 0 0 390 114" xml:space="preserve">
<g id="BK">
</g>
<g id="Comp">
	<path fill="#5E2750" d="M67.08,46.892c2.692,2.69,4.173,6.27,4.173,10.076c0,3.807-1.483,7.384-4.173,10.075
		s-6.269,4.173-10.074,4.173c-3.807,0-7.385-1.483-10.075-4.173c-2.692-2.692-4.174-6.27-4.174-10.075s1.483-7.383,4.175-10.075
		c2.692-2.693,6.27-4.174,10.075-4.174C60.81,42.718,64.389,44.2,67.08,46.892z M97.304,97.304
		c-22.261,22.261-58.347,22.261-80.609,0c-22.259-22.263-22.26-58.347,0-80.608c22.262-22.26,58.35-22.262,80.609-0.002
		C119.565,38.957,119.565,75.044,97.304,97.304z M99.715,64.01V49.761h-15.13c-0.672-2.586-1.699-5.056-3.069-7.352L92.23,31.693
		L82.154,21.618L71.406,32.366c-2.285-1.344-4.744-2.358-7.313-3.013V14.136h-14.25v15.24c-2.561,0.661-5.01,1.675-7.287,3.02
		L31.779,21.618L21.702,31.694L32.468,42.46c-1.354,2.28-2.375,4.734-3.04,7.3h-15.21v14.249H29.38
		c0.655,2.587,1.674,5.06,3.025,7.361L21.7,82.074l10.077,10.075l10.671-10.671c2.306,1.375,4.792,2.409,7.393,3.079v15.075h14.25
		V84.579c2.611-0.666,5.104-1.697,7.422-3.074l10.642,10.643l10.076-10.075L81.577,71.417c1.365-2.313,2.394-4.804,3.053-7.41
		h15.084L99.715,64.01L99.715,64.01z"/>
	<path fill="#888888" d="M240.141,22.207l-50.111,50.11L179.954,62.24l50.144-50.142C220.114,4.263,207.888,0,194.996,0
		c-15.225,0-29.539,5.929-40.304,16.694C143.927,27.46,137.999,41.774,138,56.999c0,15.226,5.929,29.54,16.694,40.306
		C165.46,108.071,179.774,114,194.999,114c15.227,0,29.541-5.929,40.307-16.695C246.072,86.538,252,72.224,252,56.999
		C252.001,44.242,247.824,32.134,240.141,22.207z M172.734,79.395l3.713-13.859l10.146,10.146L172.734,79.395z"/>
	<path fill="#DD4814" d="M379.671,46.958c2.396-2.396,5.431-3.753,8.558-4.087c-2.632-10.284-8.077-19.447-15.449-26.643
		c-1.851,2.516-4.529,4.448-7.778,5.32c-7.603,2.037-15.415-2.473-17.449-10.074c-0.87-3.247-0.54-6.527,0.71-9.385
		C343.402,0.738,338.29,0,333.005,0c-5.364,0-10.555,0.76-15.478,2.152c1.227,2.843,1.547,6.1,0.684,9.322
		c-2.036,7.6-9.848,12.111-17.448,10.074c-3.193-0.857-5.83-2.738-7.676-5.187c-7.309,7.184-12.704,16.311-15.315,26.544
		c3.038,0.375,5.983,1.716,8.317,4.05c5.564,5.565,5.567,14.588,0.003,20.156c-2.331,2.331-5.268,3.67-8.306,4.048
		c2.62,10.219,8.018,19.333,15.331,26.505c1.844-2.429,4.466-4.295,7.642-5.145c7.602-2.039,15.417,2.473,17.453,10.074
		c0.859,3.2,0.545,6.434-0.664,9.26c4.92,1.388,10.099,2.147,15.456,2.147c5.277,0,10.382-0.733,15.234-2.081
		c-1.228-2.843-1.549-6.101-0.688-9.323c2.034-7.6,9.85-12.114,17.453-10.077c3.235,0.866,5.901,2.786,7.749,5.283
		c7.374-7.185,12.821-16.336,15.461-26.607c-3.121-0.338-6.151-1.695-8.542-4.085C374.106,61.542,374.106,52.522,379.671,46.958z
		 M343.076,67.08c-5.564,5.563-14.586,5.559-20.152-0.004c-5.563-5.564-5.563-14.587,0-20.151
		c5.569-5.564,14.588-5.568,20.152-0.002C348.64,52.487,348.64,61.513,343.076,67.08z"/>
</g>
<g id="Grid" display="none">
	<g id="Grid_1_" display="inline">
	</g>
</g>
<g id="Labels">
</g>
</svg>
