<?xml version="1.0" encoding="utf-8"?>
<svg xmlns="http://www.w3.org/2000/svg"
	xmlns:xlink="http://www.w3.org/1999/xlink"
	width="209px" height="165px">
<path fill="rgb(220,71,19)" fill-rule="evenodd" d="M 104.56 82.95C 127.38 82.95 146.04 64.38 146.04 41.54 146.04 18.58 127.38 0.01 104.56 0.01 81.62 0.01 63.07 18.58 63.07 41.54 63.07 64.38 81.62 82.95 104.56 82.95ZM 123.11 44.24C 123.11 44.24 105.79 58.87 105.79 58.87 104.11 59.99 102.2 60.67 100.06 60.67 97.81 60.67 95.79 59.99 94.1 58.64 94.1 58.64 72.4 40.97 72.4 40.97 72.4 40.97 72.4 36.92 72.4 36.92 72.4 36.92 91.74 52.57 91.74 52.57 93.09 53.58 94.78 54.25 96.69 54.25 98.71 54.25 100.51 53.58 101.86 52.45 101.86 52.45 102.08 52.23 102.08 52.23 102.08 52.23 102.2 52.12 102.2 52.12 104.11 50.54 112.88 43.23 117.37 39.4 117.37 39.4 117.26 39.4 117.26 39.4 117.26 39.4 117.26 39.29 117.26 39.29 117.26 39.29 116.14 38.5 116.14 38.5 115.01 37.94 113.44 38.16 111.98 38.95 111.86 38.95 111.86 39.06 111.86 38.95 107.03 43.11 102.53 46.83 102.08 47.28 100.85 48.52 99.05 49.19 97.25 49.19 95.56 49.19 93.99 48.63 92.64 47.61 92.64 47.61 78.92 36.14 78.92 36.14 78.92 36.14 78.81 36.25 78.81 36.25 78.81 36.25 74.88 32.99 74.88 32.99 74.88 32.99 73.75 31.75 73.75 31.75 73.75 31.75 72.4 30.62 72.4 30.62 72.4 30.62 72.63 30.62 72.63 30.62 72.63 30.62 72.4 30.4 72.4 30.4 72.4 30.4 90.73 14.76 95.34 10.82 97.7 8.45 100.85 6.99 104.44 6.99 107.82 6.99 110.85 8.34 113.1 10.37 113.1 10.37 135.92 29.05 135.92 29.05 135.92 29.05 135.92 34.79 135.92 34.79 135.92 34.79 113.21 16.22 113.21 16.22 111.64 15.09 109.84 14.42 107.82 14.42 105.57 14.42 103.54 15.2 101.97 16.44 101.07 17.23 87.47 28.93 81.28 34.11 81.28 34.11 85.44 37.49 85.44 37.49 85.44 37.49 102.65 22.97 102.65 22.97 104.22 21.73 106.24 21.06 108.38 21.06 110.51 21.06 112.54 21.84 114.22 23.08 114.22 23.08 135.92 40.75 135.92 40.75 135.92 40.75 135.92 44.8 135.92 44.8 135.92 44.8 116.7 29.27 116.7 29.27 115.24 28.15 113.55 27.58 111.64 27.58 109.73 27.58 107.93 28.26 106.47 29.38 106.47 29.38 106.24 29.5 106.24 29.5 106.24 29.5 106.13 29.61 106.13 29.61 104.33 31.19 95.45 38.61 90.95 42.33 90.95 42.33 91.07 42.33 91.07 42.33 91.96 43.79 94.33 44.01 96.46 42.78 96.46 42.78 96.46 42.78 96.57 42.78 101.41 38.61 105.79 34.9 106.24 34.45 107.59 33.32 109.28 32.53 111.08 32.53 112.88 32.53 114.45 33.21 115.69 34.22 115.69 34.22 129.51 45.48 129.51 45.48 129.51 45.48 133.56 48.85 133.56 48.85 133.56 48.85 135.92 50.76 135.92 50.76 135.92 50.76 135.47 50.88 135.47 50.88 135.47 50.88 135.92 51.33 135.92 51.33 135.92 51.33 117.6 66.97 112.99 70.91 110.74 73.27 107.48 74.73 103.88 74.73 100.62 74.73 97.47 73.5 95.22 71.36 95.22 71.36 72.4 52.79 72.4 52.79 72.4 52.79 72.4 47.05 72.4 47.05 72.4 47.05 95.11 65.51 95.11 65.51 96.69 66.63 98.49 67.31 100.62 67.31 102.76 67.31 104.78 66.52 106.36 65.28 107.25 64.5 120.97 52.79 127.15 47.61 127.15 47.61 123.11 44.24 123.11 44.24ZM 105.68 125.83C 105.34 126.28 104.33 126.28 103.99 126.61 103.99 126.61 106.24 130.67 106.24 130.67 106.24 130.67 107.48 129.32 107.48 129.32 110.29 128.3 110.74 128.41 115.69 127.06 116.02 127.74 116.14 128.19 116.47 128.98 116.47 128.98 119.62 128.08 119.62 128.08 118.83 125.38 116.81 120.99 115.91 118.74 115.91 118.74 113.44 119.64 113.44 119.64 114.34 121.44 114.79 124.36 115.01 124.7 115.01 124.7 109.17 126.16 109.17 126.16 109.17 126.16 110.4 119.75 111.41 115.36 111.41 115.36 118.95 115.36 118.95 115.36 118.95 115.36 118.95 112.55 118.95 112.55 118.95 112.55 104.11 112.55 104.11 112.55 104.11 112.55 104.11 115.36 104.11 115.36 104.11 115.36 108.49 115.36 108.49 115.36 108.15 117.72 107.37 120.31 107.03 122.56 106.58 124.36 106.47 124.93 105.68 125.83ZM 61.83 103.32C 61.83 103.32 33.05 103.32 33.05 103.32 33.05 103.32 33.05 134.27 33.05 134.27 33.05 134.27 61.83 134.27 61.83 134.27 61.83 134.27 61.83 103.32 61.83 103.32ZM 59.14 131.34C 59.14 131.34 35.98 131.34 35.98 131.34 35.98 131.34 35.98 106.13 35.98 106.13 35.98 106.13 59.14 106.13 59.14 106.13 59.14 106.13 59.14 131.34 59.14 131.34ZM 12.48 125.26C 12.48 125.26 12.37 136.07 12.37 136.07 12.37 136.07 15.52 136.07 15.52 136.07 15.52 136.07 15.4 125.26 15.4 125.26 15.4 125.26 27.77 125.26 27.77 125.26 27.77 125.26 27.77 108.38 27.77 108.38 27.77 108.38 15.4 108.38 15.4 108.38 15.4 108.38 15.4 103.66 15.4 103.66 15.4 103.66 16.53 102.08 15.74 101.97 14.73 101.63 14.28 101.74 12.14 101.29 10.91 101.07 12.48 103.66 12.48 103.66 12.48 103.66 12.48 108.38 12.48 108.38 12.48 108.38 0.11 108.38 0.11 108.38 0.11 108.38 0.11 125.26 0.11 125.26 0.11 125.26 3.15 125.26 3.15 125.26 3.15 125.26 12.48 125.26 12.48 125.26ZM 15.4 111.2C 15.4 111.2 24.73 111.2 24.73 111.2 24.73 111.2 24.73 122.68 24.73 122.68 24.73 122.68 15.4 122.68 15.4 122.68 15.4 122.68 15.4 111.2 15.4 111.2ZM 3.04 111.2C 3.04 111.2 12.48 111.2 12.48 111.2 12.48 111.2 12.48 122.68 12.48 122.68 12.48 122.68 3.04 122.68 3.04 122.68 3.04 122.68 3.04 111.2 3.04 111.2ZM 142.67 104.22C 144.69 105.91 145.93 107.48 147.5 109.96 147.5 109.96 149.98 108.27 149.98 108.27 148.52 106.02 146.94 104.44 145.25 102.42 145.25 102.42 142.67 104.22 142.67 104.22ZM 51.94 119.64C 51.94 119.64 50.25 120.76 50.25 120.76 51.94 121.66 52.5 122.56 53.96 124.59 53.96 124.59 56.21 123.24 56.21 123.24 55.2 121.66 54.19 120.99 51.94 119.64ZM 81.17 104.78C 81.17 104.78 78.92 102.19 78.92 102.19 76.11 103.66 72.74 104.67 67.57 105.23 67.57 105.23 69.25 107.82 69.25 107.82 71.28 107.48 72.63 107.26 73.53 107.15 73.53 107.15 73.53 111.53 73.53 111.53 73.53 111.53 67.57 111.53 67.57 111.53 67.57 111.53 67.57 111.53 67.57 111.53 67.57 111.53 67.57 114.24 67.57 114.24 67.57 114.24 73.41 114.24 73.41 114.24 73.41 114.69 73.41 114.91 73.3 115.25 71.95 118.06 69.93 121.55 66.56 125.04 66.56 125.04 68.69 127.85 68.69 127.85 68.92 127.63 69.14 126.5 69.37 126.28 71.28 124.03 72.63 121.89 73.41 120.09 73.41 120.09 73.53 120.09 73.53 120.09 73.53 120.09 73.53 135.28 73.53 135.28 73.53 135.28 76.45 135.28 76.45 135.28 76.45 135.28 76.45 118.51 76.45 118.51 77.46 119.19 78.25 121.1 79.49 122.9 79.49 122.9 81.17 120.65 81.17 120.65 79.71 118.62 77.46 116.6 76.9 115.92 76.9 115.92 76.45 116.26 76.45 116.26 76.45 116.26 76.45 114.24 76.45 114.24 76.45 114.24 81.17 114.24 81.17 114.24 81.17 114.24 81.17 111.53 81.17 111.53 81.17 111.53 76.45 111.53 76.45 111.53 76.45 111.53 76.45 106.36 76.45 106.36 77.57 106.02 79.26 105.68 81.17 104.78ZM 154.36 123.35C 154.36 123.35 160.43 123.35 160.43 123.35 160.43 123.35 160.43 129.43 160.43 129.43 160.43 129.43 163.13 128.98 163.13 128.98 163.13 128.98 163.13 123.35 163.13 123.35 163.13 123.35 168.64 123.35 168.64 123.35 168.64 123.35 168.64 126.39 168.64 126.39 168.64 126.84 168.53 127.06 168.3 127.29 168.19 127.4 168.41 127.4 167.29 127.4 166.73 127.4 166.5 127.4 165.6 127.29 166.62 128.75 167.18 129.65 166.84 129.99 168.3 130.1 169.09 129.54 169.76 129.09 170.55 128.64 171.45 128.08 171.45 126.95 171.45 126.95 171.56 109.96 171.56 109.96 171.56 109.96 163.81 109.96 163.81 109.96 163.81 109.96 165.72 108.95 165.72 108.95 165.72 108.95 164.37 108.05 164.37 108.05 165.15 106.92 167.06 105.68 169.31 103.88 169.31 103.88 168.41 101.97 168.41 101.97 168.41 101.97 152.79 101.97 152.79 101.97 152.79 101.97 152.79 104.44 152.79 104.44 152.79 104.44 164.7 104.44 164.7 104.44 164.7 104.44 164.82 104.67 164.82 104.67 163.58 105.68 162.57 106.7 161.89 106.81 160.21 106.02 159.53 106.13 158.41 105.8 158.41 105.8 156.61 107.26 156.61 107.26 159.64 108.38 161.89 109.62 162.57 109.96 162.57 109.96 162.57 109.96 162.57 109.96 162.57 109.96 151.55 109.96 151.55 109.96 151.55 109.96 151.55 129.43 151.55 129.43 151.55 129.43 154.36 129.43 154.36 129.43 154.36 129.43 154.36 123.35 154.36 123.35ZM 163.13 112.66C 163.13 112.66 168.64 112.66 168.64 112.66 168.64 112.66 168.64 115.47 168.64 115.47 168.64 115.47 163.13 115.47 163.13 115.47 163.13 115.47 163.13 112.66 163.13 112.66ZM 163.13 118.29C 163.13 118.29 168.64 118.29 168.64 118.29 168.64 118.29 168.64 121.1 168.64 121.1 168.64 121.1 163.13 121.1 163.13 121.1 163.13 121.1 163.13 118.29 163.13 118.29ZM 154.36 112.66C 154.36 112.66 160.43 112.66 160.43 112.66 160.43 112.66 160.43 115.47 160.43 115.47 160.43 115.47 154.36 115.47 154.36 115.47 154.36 115.47 154.36 112.66 154.36 112.66ZM 154.36 118.29C 154.36 118.29 160.43 118.29 160.43 118.29 160.43 118.29 160.43 121.1 160.43 121.1 160.43 121.1 154.36 121.1 154.36 121.1 154.36 121.1 154.36 118.29 154.36 118.29ZM 105.23 104.89C 105.23 104.89 105.23 107.6 105.23 107.6 105.23 107.6 118.16 107.6 118.16 107.6 118.16 107.6 118.16 104.89 118.16 104.89 118.16 104.89 105.23 104.89 105.23 104.89ZM 57.23 125.38C 57.23 125.38 48.68 125.38 48.68 125.38 48.68 125.38 48.68 118.85 48.68 118.85 48.68 118.85 55.76 118.85 55.76 118.85 55.76 118.85 55.76 116.26 55.76 116.26 55.76 116.26 48.68 116.26 48.68 116.26 48.68 116.26 48.68 112.21 48.68 112.21 48.68 112.21 56.66 112.21 56.66 112.21 56.66 112.21 56.66 109.62 56.66 109.62 56.66 109.62 38.23 109.62 38.23 109.62 38.23 109.62 38.23 112.21 38.23 112.21 38.23 112.21 45.87 112.21 45.87 112.21 45.87 112.21 45.87 116.26 45.87 116.26 45.87 116.26 39.35 116.26 39.35 116.26 39.35 116.26 39.35 118.85 39.35 118.85 39.35 118.85 45.87 118.85 45.87 118.85 45.87 118.85 45.87 125.38 45.87 125.38 45.87 125.38 37.78 125.38 37.78 125.38 37.78 125.38 37.78 127.96 37.78 127.96 37.78 127.96 57.23 127.96 57.23 127.96 57.23 127.96 57.23 125.38 57.23 125.38ZM 188.65 133.03C 188.65 133.03 207.2 133.03 207.2 133.03 207.2 133.03 207.2 123.13 207.2 123.13 207.2 123.13 188.65 123.13 188.65 123.13 188.65 123.13 188.65 133.03 188.65 133.03ZM 204.5 125.6C 204.5 125.6 204.5 130.1 204.5 130.1 204.5 130.1 191.35 130.1 191.35 130.1 191.35 130.1 191.24 125.6 191.24 125.6 191.24 125.6 204.5 125.6 204.5 125.6ZM 183.14 142.82C 183.14 142.82 179.99 142.82 179.99 142.82 179.99 142.82 179.99 164.65 179.99 164.65 179.99 164.65 192.7 164.65 192.7 164.65 192.7 164.65 192.7 161.72 192.7 161.72 192.7 161.72 183.14 161.72 183.14 161.72 183.14 161.72 183.14 142.82 183.14 142.82ZM 167.96 153.06C 168.75 152.38 169.99 151.26 169.99 148.9 169.99 147.32 169.31 142.82 163.13 142.82 163.13 142.82 154.25 142.82 154.25 142.82 154.25 142.82 154.25 164.65 154.25 164.65 154.25 164.65 154.25 164.65 154.25 164.65 154.25 164.65 164.03 164.65 164.03 164.65 169.99 164.65 171.23 160.49 171.23 158.35 171.23 154.97 168.86 153.51 167.96 153.06ZM 157.51 145.75C 157.51 145.75 163.13 145.75 163.13 145.75 163.81 145.75 166.73 145.75 166.73 148.9 166.73 150.13 166.28 151.93 163.24 151.93 163.24 151.93 157.51 151.93 157.51 151.93 157.51 151.93 157.51 145.75 157.51 145.75ZM 164.14 161.72C 164.14 161.72 157.51 161.72 157.51 161.72 157.51 161.72 157.51 154.86 157.51 154.86 157.51 154.86 163.69 154.86 163.69 154.86 164.82 154.86 166.28 154.86 167.29 156.21 167.74 156.77 168.08 157.56 168.08 158.35 168.08 159.47 167.29 161.72 164.14 161.72ZM 173.7 164.65C 173.7 164.65 176.96 164.65 176.96 164.65 176.96 164.65 176.96 142.82 176.96 142.82 176.96 142.82 173.7 142.82 173.7 142.82 173.7 142.82 173.7 164.65 173.7 164.65ZM 167.63 131C 166.62 131.12 164.37 131.34 163.35 131.34 158.63 131.34 154.14 131.12 152.34 130.55 150.54 129.99 148.96 128.98 147.62 127.51 147.62 127.51 147.62 112.88 147.62 112.88 147.62 112.88 140.76 112.88 140.76 112.88 140.76 112.88 140.76 115.47 140.76 115.47 140.76 115.47 144.81 115.47 144.81 115.47 144.81 115.47 144.81 127.29 144.81 127.29 141.66 129.88 141.32 130.89 140.2 131.79 140.2 131.79 142.78 134.15 142.78 134.15 142.78 134.15 142.78 134.15 142.78 134.15 143.23 133.14 145.59 130.22 146.27 129.77 147.73 131.34 149.19 132.69 150.88 133.25 152.45 133.7 155.6 134.27 157.96 134.27 157.96 134.27 173.25 134.04 173.25 134.04 173.47 132.92 173.47 131.79 174.6 130.78 174.6 130.78 167.63 131 167.63 131ZM 181.9 114.12C 181.9 114.12 181.9 134.38 181.9 134.38 181.9 134.38 184.83 134.38 184.83 134.38 184.83 134.38 184.83 111.53 184.83 109.4 185.05 107.93 186.52 104.44 186.52 104.44 187.53 103.21 187.86 103.88 188.09 103.09 188.09 103.09 184.27 100.96 184.27 100.96 182.02 108.16 179.77 113 176.28 116.82 176.28 116.82 178.31 120.2 178.31 120.2 179.88 117.5 180.56 115.81 181.79 114.12 181.79 114.12 181.9 114.12 181.9 114.12ZM 193.71 164.65C 193.71 164.65 207.88 164.65 207.88 164.65 207.88 164.65 207.88 161.72 207.88 161.72 207.88 161.72 196.86 161.72 196.86 161.72 196.86 161.72 196.86 155.09 196.86 155.09 196.86 155.09 207.88 155.09 207.88 155.09 207.88 155.09 207.88 152.16 207.88 152.16 207.88 152.16 196.86 152.16 196.86 152.16 196.86 152.16 196.86 145.75 196.86 145.75 196.86 145.75 207.88 145.75 207.88 145.75 207.88 145.75 207.88 142.82 207.88 142.82 207.88 142.82 193.71 142.82 193.71 142.82 193.71 142.82 193.71 164.65 193.71 164.65ZM 199.78 107.15C 199.44 104.67 198.77 102.64 197.65 100.84 197.65 100.84 194.95 101.63 194.95 101.63 196.18 103.88 196.86 105.68 197.08 107.15 197.08 107.15 197.08 107.15 197.08 107.15 197.08 107.15 186.29 107.15 186.29 107.15 186.29 107.15 186.29 109.96 186.29 109.96 186.29 109.96 209 109.96 209 109.96 209 109.96 209 107.15 209 107.15 209 107.15 199.78 107.15 199.78 107.15ZM 207.09 112.77C 207.09 112.77 188.65 112.77 188.65 112.77 188.65 112.77 188.65 115.59 188.65 115.59 188.65 115.59 207.09 115.59 207.09 115.59 207.09 115.59 207.09 112.77 207.09 112.77ZM 188.65 120.54C 188.65 120.54 207.09 120.54 207.09 120.54 207.09 120.54 207.09 117.72 207.09 117.72 207.09 117.72 188.65 117.72 188.65 117.72 188.65 117.72 188.65 120.54 188.65 120.54ZM 140.87 142.48C 134.24 142.48 129.63 147.88 129.63 153.73 129.63 159.7 134.46 164.99 140.87 164.99 147.39 164.99 152.23 159.7 152.23 153.85 152.23 147.55 147.39 142.48 140.87 142.48ZM 140.87 162.18C 135.36 162.18 132.77 157.34 132.77 153.73 132.77 150.25 135.36 145.41 140.87 145.41 146.38 145.41 149.08 150.02 149.08 153.85 149.08 157.22 146.49 162.18 140.87 162.18ZM 44.52 164.65C 44.52 164.65 47.67 164.65 47.67 164.65 47.67 164.65 47.67 142.82 47.67 142.82 47.67 142.82 44.52 142.82 44.52 142.82 44.52 142.82 44.52 164.65 44.52 164.65ZM 67.91 159.47C 67.91 159.47 67.79 159.47 67.79 159.47 67.79 159.47 54.41 142.82 54.41 142.82 54.41 142.82 51.38 142.82 51.38 142.82 51.38 142.82 51.38 164.65 51.38 164.65 51.38 164.65 54.75 164.65 54.75 164.65 54.75 164.65 54.75 147.77 54.75 147.77 54.75 147.77 54.86 147.77 54.86 147.77 54.86 147.77 68.24 164.65 68.24 164.65 68.24 164.65 71.28 164.65 71.28 164.65 71.28 164.65 71.28 142.82 71.28 142.82 71.28 142.82 67.91 142.82 67.91 142.82 67.91 142.82 67.91 159.47 67.91 159.47ZM 38 151.71C 38 151.71 25.63 151.71 25.63 151.71 25.63 151.71 25.63 142.82 25.63 142.82 25.63 142.82 22.49 142.82 22.49 142.82 22.49 142.82 22.49 164.65 22.49 164.65 22.49 164.65 25.63 164.65 25.63 164.65 25.63 164.65 25.63 154.19 25.63 154.19 25.63 154.19 38 154.19 38 154.19 38 154.19 38 164.65 38 164.65 38 164.65 41.26 164.65 41.26 164.65 41.26 164.65 41.26 142.82 41.26 142.82 41.26 142.82 38 142.82 38 142.82 38 142.82 38 151.71 38 151.71ZM 81.73 142.82C 81.73 142.82 71.84 164.65 71.84 164.65 71.84 164.65 75.55 164.65 75.55 164.65 75.55 164.65 78.36 158.24 78.36 158.24 78.36 158.24 88.14 158.24 88.14 158.24 88.14 158.24 90.95 164.65 90.95 164.65 90.95 164.65 94.66 164.65 94.66 164.65 94.66 164.65 84.88 142.82 84.88 142.82 84.88 142.82 81.73 142.82 81.73 142.82ZM 79.71 155.31C 79.71 155.31 83.2 146.98 83.2 146.98 83.2 146.98 83.31 146.98 83.31 146.98 83.31 146.98 86.91 155.31 86.91 155.31 86.91 155.31 79.71 155.31 79.71 155.31ZM 93.2 117.27C 93.99 117.05 94.78 116.94 94.44 116.26 94.44 116.26 91.5 115.84 91.5 115.84 95.12 113.67 97.63 110.99 98.82 107.48 98.82 107.03 98.94 106.81 99.16 106.02 99.16 106.02 98.37 105.12 98.37 105.12 98.37 105.12 88.7 105.12 88.7 105.12 88.82 105.01 89.49 103.99 89.83 103.54 90.17 102.98 90.95 103.09 90.95 102.53 90.95 102.53 89.83 101.97 88.37 101.29 86.91 100.51 87.02 102.31 87.02 102.31 85.33 105.68 83.42 108.61 80.83 111.2 80.83 111.2 83.42 112.77 83.42 112.77 84.88 110.97 85.56 109.73 87.47 107.93 87.47 107.93 95.9 107.93 95.9 107.93 94.89 109.73 93.2 111.42 90.84 113.22 89.94 111.76 88.7 110.63 87.47 109.96 87.47 109.96 85.44 111.65 85.44 111.65 87.13 112.32 88.25 113.22 88.48 114.46 86.34 115.59 83.87 116.6 80.38 117.05 80.38 117.05 81.73 118.29 81.73 118.29 81.73 118.29 82.3 119.75 82.3 119.75 85.71 118.69 88.67 117.48 91.15 116.05 88.99 119.71 82.8 124.04 80.16 124.81 80.16 124.81 81.96 125.94 81.96 125.94 81.96 125.94 82.63 126.84 82.63 126.84 85.67 125.15 87.47 123.69 89.6 121.78 89.6 121.78 97.02 121.78 97.02 121.78 95.79 124.36 95.11 125.71 92.3 128.41 91.4 126.73 89.94 125.15 88.82 124.7 88.82 124.7 86.79 126.5 86.79 126.5 88.25 127.63 89.49 128.41 90.17 129.65 87.47 131.45 85.11 131.9 79.49 132.24 80.95 133.37 80.16 135.39 81.4 135.28 87.47 134.04 89.38 134.38 94.1 130.44 97.7 127.29 99.83 123.58 100.62 119.41 100.62 119.41 91.63 119.41 91.63 119.41 91.63 119.41 93.2 117.27 93.2 117.27ZM 131.65 134.15C 133.34 134.15 134.8 132.8 135.02 131.23 135.14 129.77 135.59 121.78 136.37 109.4 136.37 109.4 128.39 109.4 128.39 109.4 128.39 109.4 128.39 102.42 128.39 102.42 129.18 101.97 129.96 101.29 128.62 101.29 128.62 101.29 125.02 100.73 125.02 100.73 125.02 100.73 125.13 109.4 125.13 109.4 125.13 109.4 119.62 109.4 119.62 109.4 119.62 109.4 119.62 112.21 119.62 112.21 119.62 112.21 125.13 112.21 125.13 112.21 125.13 112.21 125.13 115.47 125.13 115.47 125.13 117.16 124.68 119.3 124.12 121.78 122.99 126.28 120.07 129.32 120.07 129.32 118.83 130.67 116.36 132.24 114.11 132.8 114.11 132.8 117.71 135.28 117.71 135.28 121.31 133.14 123.33 130.67 125.13 127.4 127.15 124.03 128.05 118.74 128.05 112.21 128.05 112.21 133.11 112.1 133.11 112.1 132.89 115.25 132.77 118.96 132.66 122.23 132.44 125.6 132.33 127.63 131.99 128.86 131.76 130.22 131.65 131 130.08 130.89 129.29 130.78 127.94 130.55 127.49 130.55 127.83 131.45 128.95 132.47 128.84 134.04 130.41 134.27 131.31 134.15 131.65 134.15ZM 11.24 145.41C 14.73 145.41 16.64 147.66 17.31 148.45 17.31 148.45 21.14 148.45 21.14 148.45 20.57 147.43 19.79 145.97 17.76 144.62 15.4 142.82 12.82 142.48 11.13 142.48 5.06 142.48 0 147.32 0 153.62 0 159.81 4.95 164.99 11.13 164.99 14.5 164.99 18.55 163.53 21.02 159.25 21.02 159.25 17.09 159.25 17.09 159.25 15.63 161.05 13.49 162.18 11.13 162.18 6.86 162.18 3.15 158.35 3.15 153.73 3.15 149.12 6.75 145.41 11.24 145.41ZM 115.8 159.59C 115.8 159.59 107.48 142.82 107.48 142.82 107.48 142.82 103.77 142.82 103.77 142.82 103.77 142.82 103.77 164.65 103.77 164.65 103.77 164.65 106.92 164.65 106.92 164.65 106.92 164.65 106.92 148.22 106.92 148.22 106.92 148.22 114.34 164.65 114.34 164.65 114.34 164.65 116.92 164.65 116.92 164.65 116.92 164.65 124.23 148.22 124.23 148.22 124.23 148.22 124.34 148.22 124.34 148.22 124.34 148.22 124.34 164.65 124.34 164.65 124.34 164.65 127.49 164.65 127.49 164.65 127.49 164.65 127.49 142.82 127.49 142.82 127.49 142.82 123.67 142.82 123.67 142.82 123.67 142.82 115.8 159.59 115.8 159.59Z"/>
</svg>