<?xml version="1.0" encoding="utf-8"?>
<!-- Generator: Adobe Illustrator 17.0.2, SVG Export Plug-In . SVG Version: 6.00 Build 0)  -->
<!DOCTYPE svg PUBLIC "-//W3C//DTD SVG 1.1//EN" "http://www.w3.org/Graphics/SVG/1.1/DTD/svg11.dtd">
<svg version="1.1" xmlns="http://www.w3.org/2000/svg" xmlns:xlink="http://www.w3.org/1999/xlink" x="0px" y="0px" width="225px"
	 height="200px" viewBox="0 0 225 200" enable-background="new 0 0 225 200" xml:space="preserve">
<pattern  x="-3560" y="-1782" width="60" height="60" patternUnits="userSpaceOnUse" id="Background" viewBox="0 -60 60 60" overflow="visible">
	<g>
		<polygon fill="none" points="0,-60 60,-60 60,0 0,0 		"/>
		<g id="_x33_20YTs_2_">
			
				<image overflow="visible" width="60" height="60" id="_x33_20YTs_5_" xlink:href="6529ABBF7FA04C54.jpg"  transform="matrix(1 0 0 1 0 -60)">
			</image>
		</g>
	</g>
</pattern>
<g id="BK">
</g>
<g id="Comp">
	<g>
		<path fill="#DD4814" d="M121.121,112.439l-6.018-28.629l27.801,9.103l-0.004-0.012c8.559-4.347,18.344-6.568,28.62-6.007
			c31.157,1.703,55.034,28.343,53.331,59.5c-1.703,31.159-28.342,55.035-59.499,53.332c-31.159-1.703-55.036-28.341-53.332-59.5
			c0.571-10.441,3.94-20.064,9.344-28.182L121.121,112.439z"/>
		<path fill="#DD4814" d="M146.52,69.243l-18.985,2.567l7.269-17.724l-0.008,0.002c-2.432-5.797-3.417-12.294-2.561-18.978
			c2.596-20.269,21.132-34.595,41.4-31.999c20.27,2.596,34.596,21.131,32,41.4c-2.596,20.27-21.131,34.597-41.401,32.001
			c-6.792-0.87-12.917-3.528-17.962-7.445L146.52,69.243z"/>
		<path fill="#DD4814" d="M108.113,64.168l-5.178,8.968l-5.177-8.968l-0.002,0.004c-3.283-0.876-6.387-2.603-8.963-5.179
			c-7.81-7.81-7.81-20.474,0-28.284c7.811-7.811,20.474-7.811,28.284,0c7.811,7.811,7.811,20.474,0,28.284
			c-2.617,2.617-5.779,4.358-9.122,5.221L108.113,64.168z"/>
		<path fill="#DD4814" d="M72.203,50.855l7.861,17.644l-19.21-2.015l0.004,0.007c-4.921,3.995-10.928,6.787-17.64,7.852
			c-20.349,3.228-39.461-10.652-42.689-31c-3.228-20.349,10.651-39.461,31-42.689c20.35-3.228,39.462,10.651,42.69,31
			c1.082,6.819,0.243,13.498-2.118,19.489L72.203,50.855z"/>
		<path fill="#DD4814" d="M73.429,88.841l22.506-6.03l-6.031,22.505l0.01-0.004c3.829,6.617,6.021,14.303,6.021,22.499
			c0,24.853-20.148,44.999-45,44.999c-24.854,0-45-20.147-45-44.999c0-24.854,20.146-45.001,45-45.001
			c8.328,0,16.128,2.261,22.819,6.206L73.429,88.841z"/>
		<g>
			<path fill="#FFFFFF" d="M21.149,30.258h1.428v14.553h-1.428v-6.994h-7.896v6.994h-1.428V30.258h1.428v6.32h7.896V30.258z"/>
			<path fill="#FFFFFF" d="M25.615,39.371c0-0.951,0.136-1.781,0.409-2.488s0.63-1.299,1.071-1.775
				c0.441-0.475,0.945-0.828,1.512-1.061c0.567-0.23,1.151-0.346,1.753-0.346c1.33,0,2.391,0.434,3.182,1.303
				c0.791,0.867,1.187,2.205,1.187,4.01c0,0.113-0.004,0.225-0.01,0.336c-0.007,0.113-0.018,0.217-0.031,0.316h-7.623
				c0.042,1.33,0.371,2.352,0.987,3.064c0.616,0.715,1.596,1.072,2.94,1.072c0.742,0,1.33-0.07,1.764-0.211
				c0.434-0.139,0.749-0.258,0.945-0.357l0.252,1.176c-0.196,0.113-0.564,0.246-1.103,0.4c-0.539,0.154-1.173,0.23-1.9,0.23
				c-0.952,0-1.764-0.141-2.436-0.42c-0.672-0.279-1.225-0.672-1.659-1.176c-0.434-0.504-0.749-1.104-0.945-1.795
				C25.713,40.957,25.615,40.197,25.615,39.371z M33.323,38.51c-0.028-1.133-0.294-2.016-0.798-2.646
				c-0.504-0.629-1.218-0.943-2.142-0.943c-0.49,0-0.928,0.098-1.312,0.293c-0.385,0.197-0.721,0.459-1.008,0.787
				c-0.287,0.33-0.511,0.711-0.672,1.145c-0.161,0.436-0.256,0.891-0.283,1.365H33.323z"/>
			<path fill="#FFFFFF" d="M40.235,45c-0.462-0.016-0.865-0.074-1.207-0.18c-0.343-0.105-0.63-0.266-0.861-0.482
				s-0.406-0.498-0.525-0.84c-0.119-0.344-0.178-0.773-0.178-1.291V28.766l1.365-0.252v13.65c0,0.336,0.031,0.605,0.094,0.809
				c0.063,0.203,0.158,0.363,0.284,0.482s0.29,0.207,0.493,0.264c0.203,0.055,0.444,0.104,0.725,0.146L40.235,45z"/>
			<path fill="#FFFFFF" d="M45.393,45c-0.462-0.016-0.865-0.074-1.207-0.18c-0.343-0.105-0.63-0.266-0.861-0.482
				s-0.406-0.498-0.525-0.84c-0.119-0.344-0.178-0.773-0.178-1.291V28.766l1.365-0.252v13.65c0,0.336,0.031,0.605,0.094,0.809
				c0.063,0.203,0.158,0.363,0.284,0.482s0.29,0.207,0.493,0.264c0.203,0.055,0.444,0.104,0.725,0.146L45.393,45z"/>
			<path fill="#FFFFFF" d="M56.966,39.393c0,0.854-0.123,1.631-0.367,2.33c-0.245,0.701-0.588,1.295-1.029,1.785
				c-0.441,0.49-0.963,0.871-1.564,1.145c-0.602,0.273-1.267,0.41-1.995,0.41c-0.728,0-1.393-0.137-1.995-0.41
				c-0.602-0.273-1.124-0.654-1.564-1.145s-0.784-1.084-1.029-1.785c-0.245-0.699-0.367-1.477-0.367-2.33s0.122-1.631,0.367-2.332
				c0.245-0.699,0.588-1.299,1.029-1.795s0.962-0.883,1.564-1.154c0.602-0.273,1.267-0.41,1.995-0.41
				c0.728,0,1.393,0.137,1.995,0.41c0.602,0.271,1.124,0.658,1.564,1.154c0.441,0.496,0.784,1.096,1.029,1.795
				C56.843,37.762,56.966,38.539,56.966,39.393z M55.517,39.393c0-1.357-0.315-2.439-0.945-3.244
				c-0.63-0.807-1.484-1.209-2.562-1.209c-1.078,0-1.932,0.402-2.562,1.209c-0.63,0.805-0.945,1.887-0.945,3.244
				s0.315,2.436,0.945,3.234c0.63,0.797,1.484,1.195,2.562,1.195c1.078,0,1.932-0.398,2.562-1.195
				C55.202,41.828,55.517,40.75,55.517,39.393z"/>
		</g>
		<g>
			<path fill="#FFFFFF" d="M95.053,49.811v-9.932l0.845-0.156v3.561c0.277-0.104,0.559-0.184,0.845-0.24
				c0.286-0.057,0.572-0.084,0.858-0.084c0.52,0,0.953,0.074,1.3,0.221c0.346,0.148,0.624,0.357,0.832,0.631s0.353,0.6,0.435,0.982
				c0.082,0.381,0.124,0.801,0.124,1.26v3.758h-0.845v-3.484c0-0.477-0.032-0.879-0.097-1.209s-0.174-0.598-0.325-0.807
				c-0.152-0.207-0.353-0.357-0.604-0.447c-0.251-0.092-0.568-0.137-0.949-0.137c-0.147,0-0.305,0.012-0.474,0.039
				c-0.169,0.025-0.327,0.053-0.475,0.084s-0.279,0.062-0.396,0.098c-0.117,0.035-0.193,0.061-0.228,0.078v5.785H95.053z"/>
			<path fill="#FFFFFF" d="M102.013,46.443c0-0.59,0.084-1.104,0.253-1.541s0.39-0.803,0.663-1.098
				c0.273-0.295,0.585-0.514,0.936-0.656c0.351-0.145,0.713-0.215,1.086-0.215c0.823,0,1.48,0.268,1.969,0.805
				c0.49,0.539,0.734,1.365,0.734,2.484c0,0.068-0.002,0.139-0.006,0.207c-0.005,0.07-0.011,0.135-0.02,0.195h-4.719
				c0.026,0.824,0.229,1.457,0.611,1.898s0.988,0.662,1.82,0.662c0.459,0,0.823-0.043,1.092-0.129
				c0.269-0.088,0.464-0.16,0.585-0.221l0.156,0.727c-0.121,0.07-0.349,0.152-0.682,0.248c-0.334,0.096-0.726,0.143-1.177,0.143
				c-0.59,0-1.092-0.086-1.508-0.26s-0.759-0.416-1.027-0.729s-0.464-0.682-0.585-1.111S102.013,46.955,102.013,46.443z
				 M106.784,45.91c-0.018-0.701-0.182-1.248-0.494-1.639c-0.312-0.389-0.754-0.584-1.326-0.584c-0.303,0-0.574,0.061-0.812,0.182
				c-0.239,0.121-0.447,0.283-0.624,0.488c-0.178,0.203-0.316,0.439-0.416,0.707c-0.1,0.27-0.158,0.551-0.176,0.846H106.784z"/>
			<path fill="#FFFFFF" d="M108.135,52.24c-0.095,0-0.214-0.012-0.357-0.039c-0.143-0.025-0.249-0.055-0.319-0.09l0.117-0.689
				c0.061,0.018,0.143,0.035,0.247,0.053s0.204,0.025,0.299,0.025c0.511,0,0.852-0.143,1.021-0.43
				c0.169-0.285,0.253-0.715,0.253-1.287V43.09h0.845v6.654c0,0.85-0.16,1.479-0.481,1.887
				C109.439,52.037,108.897,52.24,108.135,52.24z M110.436,41.061c0,0.199-0.061,0.357-0.182,0.475
				c-0.122,0.117-0.269,0.176-0.442,0.176s-0.321-0.059-0.442-0.176c-0.122-0.117-0.182-0.275-0.182-0.475s0.061-0.357,0.182-0.475
				c0.121-0.117,0.269-0.176,0.442-0.176s0.321,0.059,0.442,0.176C110.375,40.703,110.436,40.861,110.436,41.061z"/>
		</g>
		<g>
			<path fill="#FFFFFF" d="M150.695,44.811h-1.04v-7.393h-4.304v7.393h-1.04v-8.273h6.384V44.811z"/>
			<path fill="#FFFFFF" d="M154.465,47.77h-1.04V36.826c0.309-0.107,0.704-0.209,1.184-0.305s1.088-0.143,1.824-0.143
				c0.608,0,1.16,0.098,1.656,0.295c0.496,0.197,0.922,0.482,1.28,0.855c0.357,0.375,0.635,0.828,0.832,1.361
				c0.197,0.533,0.296,1.135,0.296,1.807c0,0.631-0.083,1.209-0.248,1.736c-0.166,0.529-0.408,0.982-0.728,1.361
				c-0.32,0.377-0.712,0.674-1.176,0.887c-0.464,0.213-0.995,0.32-1.592,0.32c-0.544,0-1.016-0.078-1.416-0.232
				c-0.4-0.154-0.691-0.301-0.872-0.439V47.77z M154.465,43.322c0.096,0.074,0.216,0.154,0.36,0.24
				c0.144,0.086,0.312,0.166,0.504,0.24c0.192,0.074,0.4,0.135,0.624,0.184c0.224,0.047,0.458,0.072,0.704,0.072
				c0.512,0,0.941-0.088,1.288-0.264c0.346-0.178,0.626-0.416,0.84-0.721c0.213-0.305,0.368-0.662,0.464-1.072
				s0.144-0.846,0.144-1.305c0-1.088-0.272-1.922-0.816-2.504c-0.544-0.58-1.264-0.871-2.16-0.871c-0.512,0-0.926,0.023-1.24,0.072
				c-0.315,0.047-0.552,0.098-0.712,0.152V43.322z"/>
			<path fill="#FFFFFF" d="M168.405,37.865c-0.322,0.385-0.695,0.867-1.119,1.453c-0.424,0.584-0.851,1.203-1.281,1.855
				c-0.43,0.652-0.841,1.299-1.233,1.939c-0.393,0.643-0.734,1.207-1.023,1.697h-0.976v-8.273h1.024v6.625
				c0.257-0.459,0.574-0.988,0.953-1.592c0.378-0.602,0.781-1.211,1.208-1.824s0.856-1.203,1.288-1.768
				c0.432-0.566,0.835-1.045,1.208-1.441h0.976v8.273h-1.024V37.865z"/>
			<path fill="#FFFFFF" d="M174.839,36.361c0.32,0,0.68,0.02,1.08,0.057c0.4,0.037,0.776,0.127,1.128,0.271
				c0.352,0.145,0.648,0.367,0.888,0.67c0.24,0.305,0.36,0.717,0.36,1.238c0,0.404-0.117,0.764-0.352,1.078
				c-0.235,0.314-0.555,0.545-0.96,0.693c0.597,0.162,1.029,0.418,1.296,0.77c0.266,0.354,0.4,0.787,0.4,1.299
				c0,0.557-0.112,1.002-0.336,1.338c-0.224,0.338-0.52,0.594-0.888,0.77c-0.368,0.178-0.784,0.291-1.248,0.346
				c-0.464,0.053-0.936,0.08-1.416,0.08c-0.576,0-1.08-0.039-1.512-0.113c-0.432-0.074-0.803-0.154-1.112-0.24v-7.902
				c0.267-0.086,0.618-0.166,1.056-0.24C173.66,36.4,174.199,36.361,174.839,36.361z M173.207,39.994h1.888
				c0.64,0,1.157-0.105,1.552-0.318c0.395-0.211,0.592-0.566,0.592-1.066c0-0.316-0.07-0.566-0.208-0.746
				c-0.139-0.182-0.32-0.316-0.544-0.406c-0.224-0.09-0.48-0.148-0.768-0.176c-0.288-0.025-0.576-0.039-0.864-0.039
				c-0.352,0-0.688,0.02-1.008,0.057c-0.32,0.037-0.533,0.07-0.64,0.104V39.994z M173.207,40.857v3.057
				c0.053,0.021,0.141,0.039,0.264,0.057c0.123,0.016,0.261,0.031,0.416,0.047c0.155,0.016,0.32,0.029,0.496,0.041
				c0.176,0.01,0.344,0.016,0.504,0.016c0.363,0,0.709-0.021,1.04-0.064c0.331-0.043,0.618-0.125,0.864-0.25
				c0.245-0.123,0.442-0.289,0.592-0.498c0.149-0.209,0.224-0.484,0.224-0.828c0-0.299-0.062-0.553-0.184-0.756
				c-0.123-0.203-0.294-0.363-0.512-0.482c-0.219-0.117-0.475-0.203-0.768-0.256c-0.293-0.055-0.611-0.082-0.952-0.082H173.207z"/>
			<path fill="#FFFFFF" d="M180.461,40.666c0-0.725,0.104-1.357,0.312-1.896c0.208-0.537,0.48-0.988,0.816-1.352
				s0.72-0.633,1.152-0.809c0.432-0.176,0.877-0.264,1.336-0.264c1.013,0,1.821,0.332,2.424,0.992
				c0.603,0.662,0.904,1.68,0.904,3.057c0,0.086-0.003,0.17-0.008,0.256s-0.013,0.166-0.024,0.24h-5.808
				c0.032,1.014,0.283,1.791,0.752,2.336c0.469,0.543,1.216,0.816,2.24,0.816c0.565,0,1.013-0.055,1.344-0.16
				c0.33-0.107,0.57-0.197,0.72-0.273l0.192,0.896c-0.149,0.086-0.429,0.188-0.84,0.305c-0.411,0.117-0.894,0.176-1.448,0.176
				c-0.726,0-1.344-0.107-1.856-0.32c-0.512-0.213-0.933-0.512-1.264-0.896c-0.331-0.383-0.571-0.84-0.72-1.367
				C180.536,41.875,180.461,41.295,180.461,40.666z M186.333,40.01c-0.021-0.863-0.224-1.535-0.608-2.016s-0.928-0.721-1.632-0.721
				c-0.374,0-0.707,0.076-1,0.225c-0.293,0.15-0.55,0.35-0.768,0.6c-0.219,0.252-0.389,0.541-0.512,0.873
				c-0.123,0.33-0.195,0.678-0.216,1.039H186.333z"/>
			<path fill="#FFFFFF" d="M195.092,36.537v0.881h-2.72v7.393h-1.04v-7.393h-2.704v-0.881H195.092z"/>
		</g>
		<g>
			<path fill="#FFFFFF" d="M19.503,122.412c0,0.445-0.141,0.822-0.421,1.131c-0.281,0.311-0.672,0.465-1.175,0.465
				c-0.503,0-0.894-0.154-1.174-0.465c-0.281-0.309-0.421-0.686-0.421-1.131s0.14-0.822,0.421-1.131
				c0.28-0.309,0.671-0.465,1.174-0.465c0.503,0,0.894,0.156,1.175,0.465C19.363,121.59,19.503,121.967,19.503,122.412z
				 M18.923,141.176h-2.03v-5.51c0-1.664,0.053-3.143,0.159-4.438c0.106-1.295,0.247-2.592,0.421-3.887h0.87
				c0.077,0.639,0.15,1.275,0.218,1.914c0.068,0.639,0.131,1.295,0.188,1.973c0.058,0.676,0.102,1.377,0.131,2.102
				c0.029,0.725,0.043,1.504,0.043,2.336V141.176z"/>
			<path fill="#FFFFFF" d="M37.056,115.713h1.972v20.098h-1.972v-9.658H26.152v9.658H24.18v-20.098h1.972v8.729h10.904V115.713z"/>
			<path fill="#FFFFFF" d="M56.822,128.328c0,1.18-0.169,2.252-0.508,3.219c-0.338,0.967-0.812,1.789-1.421,2.465
				c-0.609,0.678-1.329,1.203-2.16,1.58c-0.832,0.377-1.75,0.566-2.755,0.566c-1.005,0-1.924-0.189-2.755-0.566
				c-0.832-0.377-1.552-0.902-2.161-1.58c-0.609-0.676-1.083-1.498-1.421-2.465c-0.339-0.967-0.508-2.039-0.508-3.219
				s0.169-2.252,0.508-3.219c0.338-0.967,0.812-1.793,1.421-2.48c0.609-0.686,1.329-1.217,2.161-1.594
				c0.831-0.377,1.75-0.566,2.755-0.566c1.005,0,1.924,0.189,2.755,0.566c0.831,0.377,1.552,0.908,2.16,1.594
				c0.609,0.688,1.083,1.514,1.421,2.48C56.653,126.076,56.822,127.148,56.822,128.328z M54.821,128.328
				c0-1.875-0.435-3.369-1.305-4.48c-0.87-1.111-2.05-1.668-3.538-1.668c-1.489,0-2.668,0.557-3.538,1.668
				c-0.87,1.111-1.305,2.605-1.305,4.48s0.435,3.363,1.305,4.467c0.87,1.102,2.049,1.652,3.538,1.652
				c1.489,0,2.668-0.551,3.538-1.652C54.386,131.691,54.821,130.203,54.821,128.328z"/>
			<path fill="#FFFFFF" d="M64.423,136.07c-0.638-0.02-1.194-0.102-1.667-0.246c-0.474-0.145-0.87-0.367-1.189-0.666
				c-0.319-0.301-0.561-0.688-0.725-1.16c-0.164-0.475-0.246-1.068-0.246-1.783v-18.561l1.885-0.348v18.85
				c0,0.463,0.043,0.836,0.13,1.117c0.087,0.279,0.218,0.502,0.392,0.666c0.174,0.164,0.401,0.285,0.681,0.363
				c0.28,0.076,0.614,0.145,1,0.203L64.423,136.07z"/>
			<path fill="#FFFFFF" d="M72.557,120.469c0.986,0,1.822,0.141,2.508,0.42c0.686,0.281,1.242,0.668,1.667,1.16
				c0.425,0.494,0.735,1.078,0.928,1.756c0.193,0.676,0.29,1.41,0.29,2.203v9.455c-0.193,0.057-0.474,0.121-0.841,0.188
				c-0.368,0.068-0.793,0.141-1.276,0.217c-0.483,0.078-1.02,0.141-1.609,0.189c-0.59,0.049-1.194,0.072-1.812,0.072
				c-0.793,0-1.523-0.086-2.19-0.262c-0.667-0.174-1.247-0.449-1.74-0.826c-0.493-0.377-0.88-0.859-1.16-1.449
				c-0.281-0.59-0.42-1.311-0.42-2.16c0-0.812,0.155-1.508,0.464-2.088c0.309-0.58,0.744-1.059,1.305-1.436
				c0.561-0.377,1.228-0.652,2.001-0.826c0.773-0.176,1.614-0.262,2.523-0.262c0.271,0,0.555,0.014,0.855,0.043
				c0.3,0.029,0.59,0.068,0.87,0.117c0.28,0.047,0.522,0.096,0.725,0.145s0.343,0.092,0.42,0.131v-0.93
				c0-0.521-0.039-1.029-0.116-1.521c-0.077-0.492-0.246-0.938-0.507-1.334c-0.261-0.396-0.629-0.715-1.102-0.957
				c-0.474-0.242-1.098-0.363-1.871-0.363c-1.102,0-1.924,0.078-2.465,0.232c-0.542,0.154-0.938,0.281-1.189,0.377l-0.261-1.652
				c0.329-0.154,0.836-0.301,1.522-0.436C70.763,120.537,71.59,120.469,72.557,120.469z M72.731,134.447
				c0.735,0,1.377-0.023,1.928-0.072s1.02-0.111,1.406-0.189v-5.277c-0.213-0.096-0.551-0.197-1.015-0.305
				c-0.464-0.105-1.102-0.16-1.914-0.16c-0.464,0-0.948,0.035-1.45,0.102c-0.503,0.068-0.967,0.213-1.392,0.436
				c-0.425,0.223-0.773,0.527-1.044,0.914c-0.271,0.387-0.406,0.898-0.406,1.537c0,0.561,0.092,1.033,0.276,1.42
				c0.183,0.387,0.444,0.697,0.783,0.928c0.338,0.232,0.744,0.402,1.218,0.508C71.595,134.395,72.132,134.447,72.731,134.447z"/>
			<path fill="#FFFFFF" d="M85.34,134.562c0,0.445-0.141,0.822-0.421,1.131c-0.281,0.311-0.672,0.465-1.175,0.465
				c-0.503,0-0.894-0.154-1.174-0.465c-0.281-0.309-0.421-0.686-0.421-1.131c0-0.443,0.14-0.82,0.421-1.131
				c0.28-0.309,0.671-0.463,1.174-0.463c0.503,0,0.894,0.154,1.175,0.463C85.199,133.742,85.34,134.119,85.34,134.562z
				 M84.76,121.311c0,0.83-0.015,1.609-0.043,2.334c-0.029,0.725-0.073,1.426-0.131,2.102c-0.058,0.678-0.121,1.336-0.188,1.973
				c-0.068,0.639-0.14,1.275-0.218,1.914h-0.87c-0.174-1.295-0.314-2.59-0.421-3.887c-0.106-1.295-0.159-2.773-0.159-4.436v-5.598
				h2.03V121.311z"/>
		</g>
		<g>
			<path fill="#FFFFFF" d="M138.27,140.252c-1.188,2.088-2.448,3.996-3.743,5.615c-0.324-0.504-1.08-1.439-1.548-1.943
				c3.384-4.031,6.623-10.871,8.675-17.529l2.988,0.898c-0.144,0.361-0.468,0.434-0.864,0.396c-0.972,2.881-2.124,5.795-3.42,8.531
				l1.044,0.287c-0.072,0.217-0.252,0.396-0.72,0.434v22.893h-2.412V140.252z M162.927,141.115c0.288-1.33,0.648-3.348,0.972-5.291
				h-7.163v21.021c0,2.592-0.936,3.061-5.975,3.061c-0.144-0.721-0.504-1.764-0.9-2.484c0.9,0.035,1.764,0.035,2.448,0.035h1.44
				c0.468,0,0.612-0.143,0.612-0.611v-21.021h-5.795c-1.08,2.629-2.34,5.004-3.708,6.803c-0.432-0.432-1.26-1.15-1.836-1.475
				c2.592-3.348,4.715-9,5.939-14.65l2.988,0.791c-0.072,0.252-0.324,0.396-0.792,0.361c-0.468,1.979-1.044,3.994-1.728,5.902h15.91
				l1.26,0.037c0,0.611-0.864,5.326-1.62,7.918L162.927,141.115z M151.409,142.305c-0.108,0.252-0.36,0.395-0.792,0.395
				c-1.152,4.428-3.132,9.143-5.399,12.023c-0.468-0.396-1.332-0.936-1.908-1.225c2.196-2.734,4.068-7.379,5.183-11.986
				L151.409,142.305z M164.475,154.434c-0.684-3.383-2.772-8.566-4.931-12.418l2.124-0.756c2.268,3.852,4.392,8.928,5.112,12.311
				L164.475,154.434z"/>
			<path fill="#FFFFFF" d="M181.584,133.916l1.368,0.361l-0.216,0.504c-0.504,6.371-1.656,11.482-3.456,15.479
				c1.764,1.367,3.276,2.699,4.248,3.922l-1.476,1.98c-0.9-1.152-2.268-2.447-3.852-3.744c-1.836,3.348-4.248,5.797-7.127,7.523
				c-0.324-0.611-1.008-1.475-1.512-1.979c2.7-1.441,4.967-3.781,6.767-7.02c-1.332-1.008-2.736-1.943-4.104-2.771l-0.432,1.584
				l-2.052-1.08c0.9-3.168,2.016-7.74,3.06-12.383h-3.599v-2.268h4.104c0.576-2.699,1.08-5.291,1.512-7.596l2.952,0.359
				c-0.036,0.252-0.252,0.396-0.72,0.434c-0.396,2.051-0.9,4.391-1.44,6.803h5.543L181.584,133.916z M175.105,136.293
				c-0.756,3.348-1.584,6.73-2.34,9.682c1.512,0.828,3.06,1.836,4.571,2.844c1.44-3.348,2.484-7.521,2.988-12.525H175.105z
				 M202.57,142.484v2.34h-8.675v11.914c0,2.771-1.08,3.203-7.451,3.131c-0.144-0.646-0.54-1.691-0.9-2.412
				c1.728,0.037,3.312,0.072,4.32,0.072c1.224,0,1.584,0,1.584-0.756v-11.949h-8.819v-2.34h8.819v-6.119l1.188,0.072
				c1.872-1.584,3.852-3.852,5.327-5.867h-13.858v-2.27h15.694l0.468-0.143l1.908,1.188c-0.108,0.18-0.36,0.287-0.576,0.359
				c-1.872,2.664-4.967,6.084-7.703,8.314v4.465H202.57z"/>
		</g>
	</g>
</g>
<g id="Grid" display="none">
</g>
</svg>
