<?xml version="1.0" encoding="utf-8"?>
<!-- Generator: Adobe Illustrator 17.0.2, SVG Export Plug-In . SVG Version: 6.00 Build 0)  -->
<!DOCTYPE svg PUBLIC "-//W3C//DTD SVG 1.1//EN" "http://www.w3.org/Graphics/SVG/1.1/DTD/svg11.dtd">
<svg version="1.1" id="Layer_1" xmlns="http://www.w3.org/2000/svg" xmlns:xlink="http://www.w3.org/1999/xlink" x="0px" y="0px"
	 width="298px" height="213px" viewBox="0 0 298 213" enable-background="new 0 0 298 213" xml:space="preserve">
<g id="BK">
</g>
<g id="Comp">
	<path fill-rule="evenodd" clip-rule="evenodd" fill="#888888" d="M298,86.455c0,47.48-38.49,85.97-85.97,85.97
		s-85.97-38.49-85.97-85.97s38.49-85.97,85.97-85.97S298,38.975,298,86.455z M222.346,41.751c30.949,0,34.388,0,34.388,20.633
		v41.266v6.878h-89.409v-6.878V62.384c0-20.633,3.439-20.633,34.388-20.633H222.346z M174.203,62.384v41.266h75.654V62.384
		c0-13.755,0-13.755-27.51-13.755h-20.633C174.203,48.629,174.203,48.629,174.203,62.384z M263.576,113.966
		c0.018,0.557,0.036,1.066,0.036,1.719c0,8.597-1.146,8.597-13.755,8.597h-75.654c-12.609,0-13.755,0-13.755-8.597
		c0-0.645,0.019-1.168,0.036-1.719H263.576z M203.647,117.405c-0.95,0.099-1.639,0.949-1.54,1.899
		c0.099,0.95,0.949,1.639,1.899,1.54h16.048c0.016,0,0.032,0,0.049,0c0.95-0.013,1.709-0.794,1.695-1.744
		c-0.013-0.95-0.794-1.709-1.744-1.695h-16.048c-0.119-0.012-0.239-0.012-0.358,0H203.647z"/>
	<path fill-rule="evenodd" clip-rule="evenodd" fill="#5E2750" d="M107.463,54.217c0,29.675-24.056,53.732-53.732,53.732
		S0,83.892,0,54.217S24.056,0.485,53.732,0.485S107.463,24.541,107.463,54.217z M76.418,33.799v40.836
		c0,13.612-2.269,13.612-22.687,13.612s-22.687,0-22.687-13.612V33.799c0-13.612,2.269-13.612,22.687-13.612
		S76.418,20.187,76.418,33.799z M48.201,22.455c-0.626,0.065-1.081,0.626-1.016,1.253c0.065,0.626,0.626,1.081,1.253,1.016h10.587
		c0.011,0,0.021,0,0.032,0c0.626-0.009,1.127-0.524,1.118-1.15s-0.524-1.127-1.15-1.118H48.438
		C48.359,22.447,48.28,22.447,48.201,22.455L48.201,22.455z M35.582,36.067v34.03c0,9.075,0,9.075,18.149,9.075
		s18.149,0,18.149-9.075v-34.03c0-9.075,0-9.075-18.149-9.075S35.582,26.993,35.582,36.067z"/>
	<path fill-rule="evenodd" clip-rule="evenodd" fill="#DD4814" d="M124.657,169.53c0,23.74-19.245,42.985-42.985,42.985
		S38.687,193.27,38.687,169.53s19.245-42.985,42.985-42.985S124.657,145.79,124.657,169.53z M98.006,190.545H65.337
		c-10.89,0-10.89-4.681-10.89-21.015s0-21.015,10.89-21.015h32.669c10.89,0,10.89,4.681,10.89,21.015
		S108.896,190.545,98.006,190.545z M107.081,165.106c-0.052-0.501-0.501-0.865-1.002-0.813s-0.865,0.501-0.813,1.002v8.47
		c0,0.009,0,0.017,0,0.026c0.007,0.501,0.419,0.902,0.92,0.895c0.501-0.007,0.902-0.419,0.895-0.92v-8.47
		C107.087,165.232,107.087,165.169,107.081,165.106L107.081,165.106z M96.191,152.145H67.534c-7.26,0-7.26,2.866-7.26,17.385
		s0,17.385,7.26,17.385h28.657c7.26,0,7.26-2.866,7.26-17.385S103.451,152.145,96.191,152.145z"/>
</g>
<g id="Grid" display="none">
	<g id="Grid_1_" display="inline">
	</g>
</g>
<g id="Labels">
</g>
</svg>
