<?xml version="1.0" encoding="utf-8"?>
<!-- Generator: Adobe Illustrator 18.1.1, SVG Export Plug-In . SVG Version: 6.00 Build 0)  -->
<svg version="1.1"
	 id="svg6517" xmlns:sodipodi="http://sodipodi.sourceforge.net/DTD/sodipodi-0.dtd" xmlns:inkscape="http://www.inkscape.org/namespaces/inkscape" xmlns:rdf="http://www.w3.org/1999/02/22-rdf-syntax-ns#" xmlns:dc="http://purl.org/dc/elements/1.1/" xmlns:cc="http://creativecommons.org/ns#" xmlns:svg="http://www.w3.org/2000/svg" sodipodi:docname="openstack-ceilometer.svg" inkscape:version="0.48+devel r12825"
	 xmlns="http://www.w3.org/2000/svg" xmlns:xlink="http://www.w3.org/1999/xlink" x="0px" y="0px" width="69.2px" height="69.2px"
	 viewBox="-239.7 386.1 69.2 69.2" enable-background="new -239.7 386.1 69.2 69.2" xml:space="preserve">
<filter  id="filter891" inkscape:label="Badge Shadow" inkscape:collect="always">
	<feGaussianBlur  id="feGaussianBlur893" stdDeviation="0.71999962" inkscape:collect="always"></feGaussianBlur>
</filter>
<filter  id="filter3885" inkscape:collect="always">
	<feGaussianBlur  id="feGaussianBlur3887" stdDeviation="5.7442192" inkscape:collect="always"></feGaussianBlur>
</filter>
<filter  width="1.3437241" height="1.3286154" id="filter3868" x="-0.17186206" y="-0.1643077" inkscape:collect="always">
	<feGaussianBlur  id="feGaussianBlur3870" stdDeviation="0.62628186" inkscape:collect="always"></feGaussianBlur>
</filter>
<filter  id="filter3831" inkscape:collect="always">
	<feGaussianBlur  id="feGaussianBlur3833" stdDeviation="0.86309522" inkscape:collect="always"></feGaussianBlur>
</filter>
<sodipodi:namedview  inkscape:snap-intersection-paths="true" inkscape:snap-bbox-edge-midpoints="true" showguides="false" showgrid="false" id="base" bordercolor="#666666" inkscape:zoom="4.0745362" inkscape:cx="2.7214607" showborder="true" borderopacity="1.0" inkscape:cy="63.792857" fit-margin-top="0" fit-margin-left="0" pagecolor="#ffffff" inkscape:snap-others="true" inkscape:snap-nodes="true" inkscape:snap-grids="false" inkscape:snap-center="true" inkscape:snap-object-midpoints="true" inkscape:snap-midpoints="true" inkscape:snap-smooth-nodes="true" inkscape:object-nodes="true" inkscape:object-paths="true" inkscape:snap-bbox-midpoints="true" inkscape:bbox-nodes="true" inkscape:bbox-paths="true" inkscape:snap-bbox="true" inkscape:snap-global="true" inkscape:showpageshadow="false" inkscape:guide-bbox="true" inkscape:window-maximized="1" inkscape:window-y="24" inkscape:window-x="0" inkscape:window-height="1029" inkscape:current-layer="layer1" inkscape:pageshadow="2" inkscape:pageopacity="0.0" fit-margin-bottom="0" inkscape:document-units="px" fit-margin-right="0" inkscape:window-width="1920">
	<inkscape:grid  type="xygrid" id="grid821"></inkscape:grid>
	<sodipodi:guide  id="guide823" orientation="1,0" position="18.34962,45.78585"></sodipodi:guide>
	<sodipodi:guide  id="guide827" orientation="1,0" position="78.02001,46.32673"></sodipodi:guide>
	<sodipodi:guide  id="guide4184" orientation="-0.087155743,0.9961947" inkscape:label="" position="65.586619,19.307">
		</sodipodi:guide>
	<sodipodi:guide  id="guide4188" orientation="-0.087155743,0.9961947" inkscape:label="" position="62.756032,71.583147">
		</sodipodi:guide>
	<sodipodi:guide  id="guide4190" orientation="-0.087155743,0.9961947" inkscape:label="" position="47.812194,78.049658">
		</sodipodi:guide>
	<sodipodi:guide  id="guide4194" orientation="1,0" position="25.60516,42.21665"></sodipodi:guide>
	<sodipodi:guide  id="guide4202" orientation="-0.087155743,0.9961947" inkscape:label="" position="25.60516,42.070975">
		</sodipodi:guide>
	<sodipodi:guide  id="guide4204" orientation="-0.70710678,-0.70710678" inkscape:label="" position="25.60516,42.070975">
		</sodipodi:guide>
	<sodipodi:guide  id="guide4242" orientation="-0.70710678,-0.70710678" inkscape:label="" position="51.81985,44.36226">
		</sodipodi:guide>
	<sodipodi:guide  id="guide4252" orientation="-0.70710678,-0.70710678" inkscape:label="" position="73.5625,75.210937">
		</sodipodi:guide>
	
		<sodipodi:guide  id="guide4254" orientation="-0.70710678,-0.70710678" inkscape:color="rgb(140,140,240)" inkscape:label="" position="18.34962,75.472017">
		</sodipodi:guide>
	<sodipodi:guide  id="guide4288" orientation="-0.70710678,-0.70710678" inkscape:label="" position="21.871042,21.577512">
		</sodipodi:guide>
</sodipodi:namedview>
<g id="layer1" transform="translate(268,-635.29076)" inkscape:label="BACKGROUND" inkscape:groupmode="layer">
	<g id="g4336">
		<g id="g3897" transform="matrix(0.06790711,0,0,-0.06790711,-239.0411,765.68623)">
			<g id="path3821" inkscape:connector-curvature="0" opacity="0.7" filter="url(#filter3831)" enable-background="new    ">
				
					<radialGradient id="SVGID_1_" cx="-11556.96" cy="-8927.0908" r="20.4066" gradientTransform="matrix(-1.0333 1.6395 0.8458 0.533 -7982.353 18990.0059)" gradientUnits="userSpaceOnUse">
					<stop  offset="0" style="stop-color:#000000"/>
					<stop  offset="1" style="stop-color:#000000;stop-opacity:0"/>
				</radialGradient>
				<path fill="url(#SVGID_1_)" d="M-3819.4-4485.3c-9.3,0-22.2-0.2-36.2-1c-28-1.6-60.5-5-82.6-16.3c-5.2-2.7-7.3-9.1-4.6-14.3
					c0.5-1,1.1-1.8,1.9-2.6l220-226.6c2.3-2.5,5.6-3.7,9-3.3l148.3,22.6c5.8,0.9,9.8,6.3,8.9,12.1c-0.4,2.4-1.5,4.5-3.2,6.1
					l-239.9,220c-1.8,1.7-4.1,2.8-6.6,3C-3804.4-4485.6-3810.1-4485.3-3819.4-4485.3z"/>
			</g>
			<g id="path3858" inkscape:connector-curvature="0" opacity="0.6" filter="url(#filter3868)" enable-background="new    ">
				
					<line fill="none" stroke="#000000" stroke-width="2.7743" stroke-linecap="round" x1="-3780.1" y1="-4618.2" x2="-3687.3" y2="-4715.4"/>
			</g>
			<g id="path3874" inkscape:connector-curvature="0" opacity="0.3" filter="url(#filter3885)" enable-background="new    ">
				
					<linearGradient id="SVGID_2_" gradientUnits="userSpaceOnUse" x1="51483.75" y1="-82509.5312" x2="51083.6719" y2="-82109.4531" gradientTransform="matrix(6.790711e-02 0 0 6.790711e-02 -7125.0801 925.3259)">
					<stop  offset="0" style="stop-color:#000000"/>
					<stop  offset="1" style="stop-color:#000000;stop-opacity:0"/>
				</linearGradient>
				<path fill="url(#SVGID_2_)" d="M-3762-4510.1c-0.3-0.1-0.7-0.2-1-0.3l-42.8-5.3c-5.8-0.7-9.9-6-9.2-11.9
					c0.3-2.3,1.3-4.4,2.9-6.1l141-145c2.3-2.5,5.6-3.7,9-3.3l49.1,7.6c5.8,0.9,9.8,6.3,8.9,12.1c-0.3,2.2-1.4,4.2-2.9,5.8
					l-147.3,143.3C-3756.4-4511.2-3759.1-4510.1-3762-4510.1z"/>
			</g>
		</g>
		<path id="path4308" fill="#871F1C" d="M-496.3,1028.7c-1.4,0.6-2.3,1.9-2.4,3.5l0,34.4l10.4-9.2c-0.1-0.4-0.2-0.8-0.2-1.2
			c0-1.1,0.4-2.2,1.2-3.1s1.8-1.4,2.9-1.5c1.8-0.2,3.5,0.9,4,2.7l5.8,0c0.4-0.8,1-1.5,1.7-1.9L-496.3,1028.7z M-480.5,1057.3
			c-0.7,1.5-2.1,2.5-3.7,2.6c-0.7,0.1-1.5-0.1-2.1-0.4l-12.3,10.8l0,7.4c0,0.9,0.3,1.6,0.9,2.2l0,0l0.1,0.1c0,0,0,0,0,0l7.3,7.2
			l6.8-7.4l33.8-3c0.5,0,0.9-0.2,1.3-0.4l-18.8-18.8c-0.7,1.2-2,2-3.5,2.2c-1.8,0.2-3.5-0.9-4-2.7L-480.5,1057.3z"/>
		<path id="path4233" fill="#C42E24" d="M-449.7,1024.4l-45.5,4c-0.4,0-0.8,0.1-1.1,0.3l23.6,23.6c0.6-0.4,1.3-0.6,2-0.7
			c0.5,0,1,0,1.4,0.1l5.6-6.9c-0.3-0.6-0.5-1.2-0.5-1.9c0-2.3,1.9-4.3,4.2-4.5c2.1-0.2,3.9,1.2,4.1,3.3l9.6,1.6v3.1l0-6.9l6.5-7
			l-7.3-7.2l0,0C-447.7,1024.7-448.7,1024.4-449.7,1024.4z M-446.2,1046.4l-10.4-1.7c-0.8,1.2-2,1.9-3.4,2.1c-0.5,0-1,0-1.4-0.1
			l-5.6,6.9c0.3,0.6,0.5,1.2,0.5,1.9c0,0.9-0.3,1.7-0.7,2.4l18.8,18.8c1.3-0.6,2.2-1.9,2.2-3.4L-446.2,1046.4z"/>
		<rect id="rect3585-3" x="-507.7" y="1021.4" fill="none" width="69.2" height="69.2"/>
		
			<linearGradient id="path4256_1_" gradientUnits="userSpaceOnUse" x1="-495.3934" y1="1076.8744" x2="-491.6815" y2="1080.5863" gradientTransform="matrix(1 0 0 -1 0 2112.2515)">
			<stop  offset="0" style="stop-color:#871F1C"/>
			<stop  offset="1" style="stop-color:#C42E24"/>
		</linearGradient>
		<path id="path4256" fill="url(#path4256_1_)" d="M-495,1028.4l-0.2,0c-1.9,0.2-3.5,1.8-3.5,3.7l6.3,6.3l0.9,0.9v-0.1
			c0-1.9,1.6-3.6,3.5-3.8l0.1,0l-0.8-0.8L-495,1028.4z"/>
		
			<linearGradient id="path4272_1_" gradientUnits="userSpaceOnUse" x1="-444.3159" y1="1084.1475" x2="-445.1582" y2="1083.3052" gradientTransform="matrix(1 0 0 -1 0 2112.2515)">
			<stop  offset="0" style="stop-color:#871F1C"/>
			<stop  offset="1" style="stop-color:#C42E24"/>
		</linearGradient>
		<path id="path4272" opacity="0.536" fill="url(#path4272_1_)" enable-background="new    " d="M-449.7,1024.4l0.7,0.7l6.4,6.4
			l0.1,0c1-0.1,1.8,0.2,2.4,0.8l-7.1-7l0,0C-447.7,1024.7-448.7,1024.4-449.7,1024.4z M-439.9,1032.4c0.1,0.1,0.1,0.1,0.2,0.2l0,0
			L-439.9,1032.4z"/>
		
			<linearGradient id="path4290_1_" gradientUnits="userSpaceOnUse" x1="-494.208" y1="1029.9312" x2="-494.8111" y2="1029.328" gradientTransform="matrix(1 0 0 -1 0 2112.2515)">
			<stop  offset="0" style="stop-color:#871F1C"/>
			<stop  offset="1" style="stop-color:#651715"/>
		</linearGradient>
		<path id="path4290" fill="url(#path4290_1_)" d="M-498.6,1077.9c0,0.8,0.3,1.6,0.9,2.1l0,0l0.1,0.1c0,0,0,0,0,0l7.2,7.1
			c-0.6-0.5-0.9-1.2-1-2.1l-6.7-6.7L-498.6,1077.9z M-490.4,1087.3L-490.4,1087.3L-490.4,1087.3
			C-490.3,1087.3-490.4,1087.3-490.4,1087.3z"/>
		<path id="path4428" inkscape:connector-curvature="0" fill="#96231E" d="M-498.5,1070.3l7.1,7.2l12.3-10.8l-7.3-7.1L-498.5,1070.3
			z"/>
		<path id="path4426" inkscape:connector-curvature="0" fill="#871F1C" d="M-498.6,1066.5l7.3,7.1l5.1-14.1l-7.7-5.4L-498.6,1066.5z
			"/>
		<path id="path4430" inkscape:connector-curvature="0" fill="#96231E" d="M-480.5,1057.3l7.3,7.1l5.8,0l-7.3-7.1L-480.5,1057.3z"/>
		
			<linearGradient id="path4446_1_" gradientUnits="userSpaceOnUse" x1="-735.8611" y1="412.5177" x2="-730.1272" y2="418.576" gradientTransform="matrix(1 0 0 -1 268 1476.9608)">
			<stop  offset="0" style="stop-color:#871F1C"/>
			<stop  offset="1" style="stop-color:#C42E24"/>
		</linearGradient>
		<path id="path4446" inkscape:connector-curvature="0" fill="url(#path4446_1_)" d="M-474.7,1057.3l7.3,7.1l-0.5,5.7l8,0.2l4.4-7.2
			l-4.3-2.6l-7.3-7.1L-474.7,1057.3z"/>
		<path id="path4432" inkscape:connector-curvature="0" fill="#9D241F" d="M-459.7,1060.6l-7.3-7.1l5.6-6.9l7.3,7.1L-459.7,1060.6z"
			/>
		<path id="path4434" inkscape:connector-curvature="0" fill="#9D241F" d="M-456.6,1044.7l7.3,7.1l10.4,1.7l-7.3-7.1L-456.6,1044.7z
			"/>
		
			<linearGradient id="path4436_1_" gradientUnits="userSpaceOnUse" x1="-748.1904" y1="411.7312" x2="-743.285" y2="418.3204" gradientTransform="matrix(1 0 0 -1 268 1476.9608)">
			<stop  offset="0" style="stop-color:#871F1C"/>
			<stop  offset="1" style="stop-color:#C42E24"/>
		</linearGradient>
		<path id="path4436" inkscape:connector-curvature="0" fill="url(#path4436_1_)" d="M-480.5,1057.3l7.3,7.1l0,5.4l-5.8-3.2
			l-7.3-7.1L-480.5,1057.3z"/>
		
			<linearGradient id="path4471_1_" gradientUnits="userSpaceOnUse" x1="-724.8998" y1="423.9918" x2="-718.4219" y2="430.0673" gradientTransform="matrix(1 0 0 -1 268 1476.9608)">
			<stop  offset="0" style="stop-color:#871F1C"/>
			<stop  offset="1" style="stop-color:#C42E24"/>
		</linearGradient>
		<path id="path4471" inkscape:connector-curvature="0" fill="url(#path4471_1_)" d="M-454.1,1053.8l-7.3-7.1l4.8-1.9l7.3,7.1
			l-0.6,5.1L-454.1,1053.8z"/>
		
			<linearGradient id="path4633-5_1_" gradientUnits="userSpaceOnUse" x1="-465.1768" y1="1026.666" x2="-465.1768" y2="1079.1898" gradientTransform="matrix(1 0 0 -1 0 2112.2515)">
			<stop  offset="0" style="stop-color:#D93023"/>
			<stop  offset="1" style="stop-color:#E63F46"/>
		</linearGradient>
		<path id="path4633-5" fill="url(#path4633-5_1_)" d="M-442.4,1031.6l-45.5,4c-1.9,0.2-3.5,1.8-3.5,3.8l0,34.3l10.4-9.2
			c-0.1-0.4-0.2-0.8-0.2-1.2c0-1.1,0.4-2.2,1.2-3.1s1.8-1.4,2.9-1.5c1.8-0.2,3.5,0.9,4,2.7l5.8,0c0.7-1.5,2.1-2.5,3.7-2.6
			c0.5,0,1,0,1.4,0.1l5.6-6.9c-0.3-0.6-0.5-1.2-0.5-1.9c0-2.3,1.9-4.3,4.2-4.5c2.1-0.2,3.9,1.2,4.1,3.3l9.6,1.6v3.1l0-18.8
			C-439,1032.8-440.5,1031.4-442.4,1031.6z M-439,1053.6l-10.4-1.7c-0.8,1.2-2,1.9-3.4,2c-0.5,0-1,0-1.4-0.1l-5.6,6.9
			c0.3,0.6,0.5,1.2,0.5,1.9c0,2.3-1.9,4.3-4.2,4.5c-1.8,0.2-3.5-0.9-4-2.7l-5.8,0c-0.7,1.5-2.1,2.5-3.7,2.6
			c-0.7,0.1-1.5-0.1-2.1-0.4l-12.3,10.8l0,7.4c0,1.9,1.5,3.3,3.5,3.2l45.5-4c1.9-0.2,3.5-1.9,3.5-3.8L-439,1053.6z"/>
		<path id="path4481" opacity="0.3" fill="#FFFFFF" enable-background="new    " d="M-442.4,1031.6l-45.5,4
			c-1.9,0.2-3.5,1.8-3.5,3.8v0.2c0-1.9,1.6-3.6,3.5-3.8l45.5-4c1.9-0.2,3.5,1.3,3.5,3.2v-0.2C-439,1032.8-440.5,1031.4-442.4,1031.6
			z M-456.9,1050.2C-456.9,1050.2-456.9,1050.3-456.9,1050.2c0,0.7,0.1,1.3,0.4,1.8l0.1-0.1
			C-456.7,1051.4-456.9,1050.8-456.9,1050.2z M-449.3,1051.9c-0.8,1.2-2,1.9-3.4,2c-0.5,0-1,0-1.4-0.1l-5.6,6.9c0,0,0,0.1,0.1,0.1
			l5.5-6.8c0.5,0.1,0.9,0.2,1.4,0.1c1.3-0.1,2.6-0.9,3.4-2l10.4,1.7v-0.2L-449.3,1051.9z M-459.3,1062.6c0,2.3-1.9,4.3-4.2,4.5
			c-1.8,0.2-3.5-0.9-4-2.7l-5.8,0c-0.7,1.5-2.1,2.5-3.7,2.6c-0.7,0.1-1.5-0.1-2.1-0.4l-12.3,10.8v0.2l12.3-10.8
			c0.6,0.3,1.4,0.5,2.1,0.4c1.6-0.1,3-1.2,3.7-2.6l5.8,0c0.5,1.7,2.1,2.8,4,2.7c2.3-0.2,4.2-2.2,4.2-4.5
			C-459.3,1062.7-459.3,1062.6-459.3,1062.6z M-481.1,1063.4C-481.1,1063.4-481.1,1063.4-481.1,1063.4c0,0.4,0,0.8,0.1,1.1l0,0
			C-481.1,1064.1-481.1,1063.7-481.1,1063.4z"/>
	</g>
</g>
<g id="layer3" inkscape:label="PLACE YOUR PICTOGRAM HERE" inkscape:groupmode="layer">
</g>
<g id="layer2" inkscape:label="BADGE" inkscape:groupmode="layer" sodipodi:insensitive="true" display="none">
	<g id="g4394" transform="translate(-340.00001,-581)" display="inline">
		<g id="g855">
			<g id="g870" inkscape:groupmode="maskhelper" opacity="0.6" filter="url(#filter891)">
				<path id="path844_1_" sodipodi:type="arc" sodipodi:cx="252" sodipodi:ry="12" sodipodi:rx="12" sodipodi:cy="552.36218" d="
					M117,963.9c0,9.9-8.1,18-18,18s-18-8.1-18-18s8.1-18,18-18S117,953.9,117,963.9z"/>
			</g>
			<g id="g862">
				
					<path id="path4398" sodipodi:type="arc" sodipodi:cx="252" sodipodi:ry="12" sodipodi:rx="12" sodipodi:cy="552.36218" fill="#F5F5F5" d="
					M117,962.9c0,9.9-8.1,18-18,18s-18-8.1-18-18s8.1-18,18-18S117,952.9,117,962.9z"/>
				
					<path id="path4400" sodipodi:type="arc" sodipodi:cx="252" sodipodi:ry="12" sodipodi:rx="12" sodipodi:cy="552.36218" fill="#DD4814" d="
					M114,962.9c0,8.3-6.7,15-15,15s-15-6.7-15-15s6.7-15,15-15S114,954.6,114,962.9z"/>
				
					<path id="path4459" sodipodi:type="star" sodipodi:cx="666.19574" sodipodi:arg2="1.6755161" sodipodi:sides="5" sodipodi:arg1="1.0471976" sodipodi:r2="4.3458705" sodipodi:cy="589.50385" sodipodi:r1="7.2431178" inkscape:flatsided="false" inkscape:rounded="0.1" inkscape:randomized="0" fill="#F5F5F5" d="
					M105.5,971.8c-0.6,0.4-5.8-2.3-6.5-2.3c-0.7,0-5.9,2.7-6.5,2.3s0.4-6.2,0.2-6.9c-0.2-0.7-4.4-4.8-4.2-5.4c0.2-0.7,6-1.6,6.6-2
					c0.6-0.4,3.2-5.7,3.9-5.7c0.7,0,3.3,5.3,3.9,5.7c0.6,0.4,6.4,1.3,6.6,1.9c0.2,0.7-4,4.8-4.2,5.5
					C105.1,965.6,106.1,971.4,105.5,971.8z"/>
			</g>
		</g>
	</g>
</g>
</svg>
