<?xml version="1.0" encoding="utf-8"?>
<!-- Generator: Adobe Illustrator 17.0.2, SVG Export Plug-In . SVG Version: 6.00 Build 0)  -->
<!DOCTYPE svg PUBLIC "-//W3C//DTD SVG 1.1//EN" "http://www.w3.org/Graphics/SVG/1.1/DTD/svg11.dtd">
<svg version="1.1" id="Comp" xmlns="http://www.w3.org/2000/svg" xmlns:xlink="http://www.w3.org/1999/xlink" x="0px" y="0px"
	 width="211px" height="211px" viewBox="0 0 211 211" enable-background="new 0 0 211 211" xml:space="preserve">
<g id="path3821_24_" opacity="0.7" enable-background="new    ">
	
		<radialGradient id="SVGID_1_" cx="-750.8486" cy="296.3621" r="62.2164" gradientTransform="matrix(-1.0333 -1.6395 -0.8458 0.533 -449.4218 -1192.0804)" gradientUnits="userSpaceOnUse">
		<stop  offset="0" style="stop-color:#000000"/>
		<stop  offset="1" style="stop-color:#000000;stop-opacity:0"/>
	</radialGradient>
	<path fill="url(#SVGID_1_)" d="M28.367,149.046c-1.921-0.006-4.593,0.044-7.487,0.206c-5.787,0.325-12.528,1.037-17.103,3.366
		c-1.079,0.557-1.501,1.883-0.944,2.962c0.103,0.199,0.236,0.382,0.394,0.541l45.538,46.912c0.474,0.51,1.162,0.765,1.854,0.687
		l30.702-4.671c1.2-0.185,2.023-1.307,1.838-2.507c-0.075-0.487-0.311-0.934-0.671-1.271l-49.659-45.538
		c-0.371-0.361-0.857-0.58-1.374-0.618C31.458,149.115,30.288,149.052,28.367,149.046z"/>
</g>
<g id="g4336_17_">
	<path id="path4308_17_" fill="#841F1C" d="M34.769,22.303c-4.148,1.788-7.16,5.917-7.17,10.534l0.024,139.121
		c-0.011,2.669,1.012,4.993,2.65,6.711l-0.03,0.03l0.441,0.435c0.009,0.009,0.02,0.015,0.03,0.024L52.949,201l20.818-22.527
		l103.029-9.027c1.412-0.124,2.753-0.531,3.984-1.137L131.766,119.3c-7.055,3.045-15.105,5.368-24.254,6.169
		c-21.919,1.92-37.786-5.725-47.68-13.017V91.504c0-1.325-0.431-2.539-1.143-3.537c5.982-5.654,14.27-12.021,25.129-16.614
		L34.769,22.303z M94.191,81.726c-4.075,4.022-6.657,9.546-6.657,15.465c-0.001,11.056,8.945,19.236,19.978,18.269
		c5.32-0.466,10.144-2.982,13.726-6.693L94.191,81.726z"/>
	<path id="path4233_17_" fill="#C22E24" d="M176.915,9.31L38.199,21.38c-1.207,0.107-2.348,0.457-3.43,0.923l49.049,49.049
		c6.925-2.929,14.787-5.161,23.7-5.943c2.498-0.219,4.917-0.319,7.259-0.304c35.124,0.22,52.682,25.081,52.682,25.081
		s-11.934,18.856-35.693,29.113l49.014,49.008c3.876-1.91,6.612-5.922,6.622-10.332l0.048-102.529l19.686-21.306l-22.378-22.009
		l-0.024,0.03C182.804,10.19,180.032,9.058,176.915,9.31z M109.561,75.342c-0.672-0.009-1.353,0.017-2.042,0.077
		c-5.128,0.45-9.788,2.814-13.327,6.306l27.047,27.041c3.847-3.986,6.257-9.351,6.258-15.077
		C127.499,83.322,119.636,75.484,109.561,75.342z"/>
	<rect id="rect3585-3_23_" fill="none" width="211" height="211"/>
	
		<linearGradient id="path4256_1_" gradientUnits="userSpaceOnUse" x1="110.7662" y1="264.1182" x2="122.0837" y2="252.8007" gradientTransform="matrix(1 0 0 1 -73.225 -221.445)">
		<stop  offset="0" style="stop-color:#841F1C"/>
		<stop  offset="1" style="stop-color:#C22E24"/>
	</linearGradient>
	<path id="path4256_17_" fill="url(#path4256_1_)" d="M38.83,21.327l-0.631,0.054c-5.8,0.515-10.523,5.58-10.588,11.362
		l19.246,19.246l2.876,2.876v-0.28c0.012-5.822,4.767-10.939,10.599-11.457l0.274-0.024l-2.435-2.436L38.83,21.327z"/>
	
		<linearGradient id="path4272_1_" gradientUnits="userSpaceOnUse" x1="266.4935" y1="241.9426" x2="263.9254" y2="244.5106" gradientTransform="matrix(1 0 0 1 -73.225 -221.445)">
		<stop  offset="0" style="stop-color:#841F1C"/>
		<stop  offset="1" style="stop-color:#C22E24"/>
	</linearGradient>
	<path id="path4272_17_" opacity="0.536" fill="url(#path4272_1_)" enable-background="new    " d="M176.945,9.31l2.138,2.138
		l19.639,19.639l0.328-0.03c2.902-0.234,5.52,0.713,7.426,2.435l-21.717-21.36l-0.024,0.03
		C182.81,10.197,180.049,9.068,176.945,9.31z M206.594,33.605c0.186,0.174,0.335,0.383,0.506,0.572l0.036-0.036L206.594,33.605z"/>
	
		<linearGradient id="path4290_1_" gradientUnits="userSpaceOnUse" x1="114.38" y1="407.24" x2="112.5411" y2="409.0789" gradientTransform="matrix(1 0 0 1 -73.225 -221.445)">
		<stop  offset="0" style="stop-color:#841F1C"/>
		<stop  offset="1" style="stop-color:#651715"/>
	</linearGradient>
	<path id="path4290_17_" fill="url(#path4290_1_)" d="M27.653,172.298c0.075,2.523,1.054,4.729,2.62,6.372l-0.03,0.03l0.441,0.435
		c0.009,0.009,0.02,0.015,0.03,0.024l22.05,21.663c-1.691-1.58-2.748-3.803-2.93-6.342l-20.389-20.395L27.653,172.298z
		 M52.877,200.928L52.949,201l0.012-0.012C52.935,200.965,52.903,200.951,52.877,200.928z"/>
	
		<linearGradient id="path4494_2_" gradientUnits="userSpaceOnUse" x1="-93.1019" y1="966.3563" x2="-64.4943" y2="937.7487" gradientTransform="matrix(1 0 0 1 194.775 -856.7358)">
		<stop  offset="0" style="stop-color:#841F1C"/>
		<stop  offset="1" style="stop-color:#C22E24"/>
	</linearGradient>
	<path id="path4494_1_" fill="url(#path4494_2_)" d="M109.561,75.342c-0.672-0.009-1.353,0.018-2.043,0.077
		c-5.128,0.45-9.788,2.814-13.327,6.306c-4.075,4.022-6.657,9.546-6.657,15.465c-0.001,5.283,2.058,9.893,5.395,13.178l-0.018,0.018
		l21.253,20.818l30.173-28.869l-21.973-21.592c-0.057-0.058-0.115-0.115-0.173-0.173l-0.476-0.464l-0.018,0.018
		C118.525,77.196,114.294,75.41,109.561,75.342L109.561,75.342z"/>
	
		<linearGradient id="path4633-5_1_" gradientUnits="userSpaceOnUse" x1="202.893" y1="417.1942" x2="202.893" y2="257.0576" gradientTransform="matrix(1 0 0 1 -73.225 -221.445)">
		<stop  offset="0" style="stop-color:#D73024"/>
		<stop  offset="1" style="stop-color:#E43F46"/>
	</linearGradient>
	<path id="path4633-5_10_" fill="url(#path4633-5_1_)" d="M199.049,31.057L60.333,43.127c-5.833,0.518-10.587,5.635-10.599,11.457
		l0.024,139.121c-0.024,5.821,4.715,10.144,10.546,9.635l138.627-12.148c5.857-0.516,10.593-5.658,10.605-11.469l0.066-139.008
		C209.61,34.879,204.891,30.585,199.049,31.057z M136.899,86.853c35.124,0.22,52.682,25.081,52.682,25.081
		s-19.988,31.782-59.947,35.282c-39.953,3.499-59.929-24.778-59.929-24.778S89.682,90.66,129.64,87.156
		C132.138,86.938,134.557,86.838,136.899,86.853z M131.683,97.089c-0.672-0.009-1.353,0.017-2.042,0.077
		c-11.034,0.967-19.983,10.714-19.984,21.771c-0.001,11.056,8.945,19.236,19.978,18.269c11.034-0.967,19.982-10.714,19.984-21.771
		C149.621,105.069,141.758,97.231,131.683,97.089z"/>
	
		<linearGradient id="path4475_1_" gradientUnits="userSpaceOnUse" x1="-85.7274" y1="989.5685" x2="14.2094" y2="931.87" gradientTransform="matrix(1 0 0 1 194.775 -856.7358)">
		<stop  offset="0" style="stop-color:#841F1C"/>
		<stop  offset="1" style="stop-color:#C22E24"/>
	</linearGradient>
	<path id="path4475_2_" fill="url(#path4475_1_)" d="M165.369,93.099c-2.739,3.593-8.246,10.012-16.703,16.346
		c0.609,1.864,0.953,3.871,0.953,5.99c-0.002,11.057-8.95,20.804-19.984,21.771c-8.87,0.777-16.382-4.36-18.99-12.148
		c-1.046,0.135-2.056,0.317-3.132,0.411c-14.559,1.275-26.433-1.685-35.687-5.943c-1.263,1.671-2.12,2.912-2.12,2.912
		s19.976,28.277,59.929,24.778c39.959-3.5,59.947-35.282,59.947-35.282S181.494,100.528,165.369,93.099z"/>
	<path id="path4517_4_" opacity="0.3" fill="#FFFFFF" enable-background="new    " d="M199.049,31.057L60.333,43.127
		c-5.833,0.518-10.587,5.635-10.599,11.457v0.607c0.012-5.822,4.767-10.939,10.599-11.457l138.716-12.07
		c5.843-0.472,10.561,3.822,10.552,9.659v-0.607C209.61,34.879,204.891,30.585,199.049,31.057z M131.683,97.089
		c-0.672-0.009-1.353,0.017-2.042,0.077c-11.034,0.967-19.983,10.714-19.984,21.771c0,0.103,0.016,0.201,0.018,0.304
		c0.165-10.93,9.034-20.508,19.966-21.467c0.69-0.059,1.371-0.087,2.042-0.077c9.973,0.141,17.769,7.826,17.924,18.037
		c0.001-0.1,0.012-0.198,0.012-0.298C149.621,105.069,141.758,97.231,131.683,97.089z M189.36,112.256
		c-1.14,1.763-20.942,31.564-59.726,34.96c-38.773,3.396-58.564-22.923-59.708-24.492c-0.035,0.053-0.22,0.322-0.22,0.322
		s19.976,28.277,59.929,24.778c39.959-3.5,59.947-35.282,59.947-35.282S189.4,112.31,189.36,112.256z"/>
</g>
</svg>
