<?xml version="1.0" encoding="utf-8"?>
<!-- Generator: Adobe Illustrator 17.0.2, SVG Export Plug-In . SVG Version: 6.00 Build 0)  -->
<!DOCTYPE svg PUBLIC "-//W3C//DTD SVG 1.1//EN" "http://www.w3.org/Graphics/SVG/1.1/DTD/svg11.dtd">
<svg version="1.1" id="Comp" xmlns="http://www.w3.org/2000/svg" xmlns:xlink="http://www.w3.org/1999/xlink" x="0px" y="0px"
	 width="211px" height="211px" viewBox="0 0 211 211" enable-background="new 0 0 211 211" xml:space="preserve">
<g id="path3821_24_" opacity="0.7" enable-background="new    ">
	
		<radialGradient id="SVGID_1_" cx="-750.8486" cy="296.3621" r="62.2164" gradientTransform="matrix(-1.0333 -1.6395 -0.8458 0.533 -449.4218 -1192.0804)" gradientUnits="userSpaceOnUse">
		<stop  offset="0" style="stop-color:#000000"/>
		<stop  offset="1" style="stop-color:#000000;stop-opacity:0"/>
	</radialGradient>
	<path fill="url(#SVGID_1_)" d="M28.367,149.046c-1.921-0.006-4.593,0.044-7.487,0.206c-5.787,0.325-12.528,1.037-17.103,3.366
		c-1.079,0.557-1.501,1.883-0.944,2.962c0.103,0.199,0.236,0.382,0.394,0.541l45.538,46.912c0.474,0.51,1.162,0.765,1.854,0.687
		l30.702-4.671c1.2-0.185,2.023-1.307,1.838-2.507c-0.075-0.487-0.311-0.934-0.671-1.271l-49.659-45.538
		c-0.371-0.361-0.857-0.58-1.374-0.618C31.458,149.115,30.288,149.052,28.367,149.046z"/>
</g>
<g id="g4336_9_">
	<path id="path4308_9_" fill="#841F1C" d="M34.769,22.303c-4.148,1.788-7.16,5.917-7.17,10.534l0.024,139.121
		c-0.011,2.669,1.012,4.993,2.65,6.711l-0.03,0.03l0.441,0.435c0.009,0.009,0.02,0.015,0.03,0.024L52.949,201l20.818-22.527
		l-35.592,3.12c-0.143,0.012-0.275-0.012-0.417-0.006l141.527-12.696c0.509-0.17,1.016-0.348,1.495-0.584L87.355,74.89
		c-6.016,6.03-9.813,14.26-9.813,23.057v5.008l-49.925,4.478v-10.01l40.278-3.615c1.208-9.792,5.871-18.809,12.702-25.683
		L34.769,22.303z M179.196,168.927c-0.239,0.077-0.483,0.138-0.726,0.202C178.714,169.068,178.956,169.005,179.196,168.927z"/>
	<path id="path4970_1_" fill="#C22E24" d="M176.915,9.31L49.781,20.374L37.889,21.44c-1.09,0.136-2.133,0.438-3.12,0.863
		l45.828,45.822c7.096-7.141,16.531-11.967,26.91-12.898c20.37-1.827,37.149,11.954,39.611,31.477l40.29-3.615
		c-0.056-32.414,0.047-27.648,0.047-27.648l19.68-21.3l-22.378-22.009l-0.024,0.031C182.803,10.191,180.031,9.059,176.915,9.31
		L176.915,9.31z"/>
	<path id="path4233_9_" fill="#841F1C" d="M187.407,93.099l-45.953,4.121v31.763l39.325,39.325c3.876-1.91,6.612-5.922,6.622-10.332
		l0.006-12.815L187.407,93.099L187.407,93.099z"/>
	<path id="path4938_1_" fill="#841F1C" d="M209.537,114.848l-9.187-9.187l-31.16,2.735l9.24,9.24L209.537,114.848z"/>
	
		<linearGradient id="path4966_2_" gradientUnits="userSpaceOnUse" x1="239.559" y1="309.9382" x2="239.559" y2="330.0341" gradientTransform="matrix(1 0 0 1 -73.225 -221.445)">
		<stop  offset="0" style="stop-color:#841F1C"/>
		<stop  offset="1" style="stop-color:#C22E24"/>
	</linearGradient>
	<path id="path4966_1_" fill="url(#path4966_2_)" d="M166.25,61.39l-8.36,10.838h-15.798c2.586,4.272,4.354,9.149,5.026,14.476
		l22.074,21.693l21.384-21.705l-3.442-3.579l0.274-0.024V72.228h-10.736L166.25,61.39z"/>
	
		<linearGradient id="path4999_2_" gradientUnits="userSpaceOnUse" x1="-125.7149" y1="985.8383" x2="-58.7136" y2="934.4263" gradientTransform="matrix(1 0 0 1 194.775 -856.7358)">
		<stop  offset="0" style="stop-color:#841F1C"/>
		<stop  offset="1" style="stop-color:#C22E24"/>
	</linearGradient>
	<path id="path4999_1_" fill="url(#path4999_2_)" d="M153.044,96.168l-33.58-33.578L71.042,96.073l28.628,28.628L153.044,96.168z"/>
	<path id="path4944_1_" fill="#DB3B2E" d="M199.049,31.057L71.909,42.121l-11.886,1.066c-5.687,0.671-10.278,5.681-10.29,11.397
		l0.012,64.585l40.278-3.615c2.462-19.964,19.242-36.754,39.611-38.581c20.37-1.827,37.149,11.954,39.611,31.477l40.29-3.615V40.072
		C209.202,34.576,204.669,30.603,199.049,31.057L199.049,31.057z"/>
	<path id="path4942_1_" fill="#D73024" d="M132.695,86.865c-1.007-0.012-2.026,0.027-3.061,0.119
		c-16.548,1.485-29.964,16.127-29.964,32.71v5.008l-49.925,4.478l0.012,64.526c-0.024,5.679,4.495,9.897,10.129,9.629
		l141.569-12.702h0.012c4.624-1.543,8.058-5.97,8.069-10.909v-64.877l-49.937,4.478v-5.002
		C159.599,98.776,147.805,87.047,132.695,86.865L132.695,86.865z"/>
	<path id="path4633_7_" fill="#D73024" d="M201.443,190.638c-0.271,0.09-0.55,0.159-0.828,0.232
		C200.895,190.801,201.17,190.729,201.443,190.638z"/>
	<rect id="rect3585-3_13_" fill="none" width="211" height="211"/>
	
		<linearGradient id="path4256_1_" gradientUnits="userSpaceOnUse" x1="110.7662" y1="264.1182" x2="122.0837" y2="252.8007" gradientTransform="matrix(1 0 0 1 -73.225 -221.445)">
		<stop  offset="0" style="stop-color:#841F1C"/>
		<stop  offset="1" style="stop-color:#C22E24"/>
	</linearGradient>
	<path id="path4256_9_" fill="url(#path4256_1_)" d="M38.83,21.327l-0.631,0.054c-5.8,0.515-10.523,5.58-10.588,11.362
		l19.246,19.246l2.876,2.876v-0.28c0.012-5.822,4.767-10.939,10.599-11.457l0.274-0.024l-2.435-2.436L38.83,21.327z"/>
	
		<linearGradient id="path4272_1_" gradientUnits="userSpaceOnUse" x1="266.4935" y1="241.9426" x2="263.9254" y2="244.5106" gradientTransform="matrix(1 0 0 1 -73.225 -221.445)">
		<stop  offset="0" style="stop-color:#841F1C"/>
		<stop  offset="1" style="stop-color:#C22E24"/>
	</linearGradient>
	<path id="path4272_9_" opacity="0.536" fill="url(#path4272_1_)" enable-background="new    " d="M176.945,9.31l2.138,2.138
		l19.639,19.639l0.328-0.03c2.902-0.234,5.52,0.713,7.426,2.435l-21.717-21.36l-0.024,0.03
		C182.81,10.197,180.049,9.068,176.945,9.31z M206.594,33.605c0.186,0.174,0.335,0.383,0.506,0.572l0.036-0.036L206.594,33.605z"/>
	
		<linearGradient id="path4290_1_" gradientUnits="userSpaceOnUse" x1="114.38" y1="407.24" x2="112.5411" y2="409.0789" gradientTransform="matrix(1 0 0 1 -73.225 -221.445)">
		<stop  offset="0" style="stop-color:#841F1C"/>
		<stop  offset="1" style="stop-color:#651715"/>
	</linearGradient>
	<path id="path4290_9_" fill="url(#path4290_1_)" d="M27.653,172.298c0.075,2.523,1.054,4.729,2.62,6.372l-0.03,0.03l0.441,0.435
		c0.009,0.009,0.02,0.015,0.03,0.024l22.05,21.663c-1.691-1.58-2.748-3.803-2.93-6.342l-20.389-20.395L27.653,172.298z
		 M52.877,200.928L52.949,201l0.012-0.012C52.935,200.965,52.903,200.951,52.877,200.928z"/>
	<path id="path4932_1_" fill="#841F1C" d="M27.617,97.423l22.128,21.747l-0.012-40.322L27.612,59.232L27.617,97.423z"/>
	<path id="path4193_1_" opacity="0.3" fill="#FFFFFF" enable-background="new    " d="M199.049,31.057L71.909,42.121l-11.886,1.066
		c-5.687,0.671-10.278,5.681-10.29,11.397v0.613c0.012-5.716,4.603-10.726,10.29-11.397l11.886-1.066l127.14-11.064
		c5.62-0.454,10.153,3.519,10.486,9.016v-0.613C209.201,34.576,204.669,30.603,199.049,31.057z M132.695,86.865
		c-1.007-0.012-2.027,0.027-3.061,0.119c-16.548,1.485-29.964,16.127-29.964,32.71v0.613c0-16.583,13.416-31.225,29.964-32.71
		c1.034-0.092,2.053-0.131,3.061-0.119c15.109,0.182,26.904,11.911,26.904,27.457v-0.613
		C159.599,98.776,147.804,87.047,132.695,86.865z M209.535,114.846l-49.937,4.478v0.613l49.937-4.478V114.846z M99.67,124.701
		l-49.925,4.478v0.613l49.925-4.478V124.701z"/>
</g>
</svg>
