<?xml version="1.0" encoding="utf-8"?>
<!-- Generator: Adobe Illustrator 17.0.2, SVG Export Plug-In . SVG Version: 6.00 Build 0)  -->
<!DOCTYPE svg PUBLIC "-//W3C//DTD SVG 1.1//EN" "http://www.w3.org/Graphics/SVG/1.1/DTD/svg11.dtd">
<svg version="1.1" id="Comp" xmlns="http://www.w3.org/2000/svg" xmlns:xlink="http://www.w3.org/1999/xlink" x="0px" y="0px"
	 width="211px" height="211px" viewBox="0 0 211 211" enable-background="new 0 0 211 211" xml:space="preserve">
<g id="path3821_24_" opacity="0.7" enable-background="new    ">
	
		<radialGradient id="SVGID_1_" cx="-750.8486" cy="296.3621" r="62.2164" gradientTransform="matrix(-1.0333 -1.6395 -0.8458 0.533 -449.4218 -1192.0804)" gradientUnits="userSpaceOnUse">
		<stop  offset="0" style="stop-color:#000000"/>
		<stop  offset="1" style="stop-color:#000000;stop-opacity:0"/>
	</radialGradient>
	<path fill="url(#SVGID_1_)" d="M28.367,149.046c-1.921-0.006-4.593,0.044-7.487,0.206c-5.787,0.325-12.528,1.037-17.103,3.366
		c-1.079,0.557-1.501,1.883-0.944,2.962c0.103,0.199,0.236,0.382,0.394,0.541l45.538,46.912c0.474,0.51,1.162,0.765,1.854,0.687
		l30.702-4.671c1.2-0.185,2.023-1.307,1.838-2.507c-0.075-0.487-0.311-0.934-0.671-1.271l-49.659-45.538
		c-0.371-0.361-0.857-0.58-1.374-0.618C31.458,149.115,30.288,149.052,28.367,149.046z"/>
</g>
<g id="g4336_14_">
	<path id="path4308_14_" fill="#841F1C" d="M34.769,22.303c-4.148,1.788-7.16,5.917-7.17,10.534l0.024,139.121
		c-0.011,2.669,1.012,4.993,2.65,6.711l-0.03,0.03l0.441,0.435c0.009,0.009,0.02,0.015,0.03,0.024L52.949,201l20.818-22.527
		l38.724-3.394l-9.986,0.869l0.006-40.028l9.992-0.875l-0.012,40.034l64.306-5.633c1.412-0.124,2.753-0.531,3.984-1.137
		l-56.165-56.165c-4.47,4.612-10.476,7.744-17.102,8.325c-13.792,1.208-24.97-9.011-24.968-22.831
		c0.001-7.376,3.205-14.268,8.271-19.293L34.769,22.303z M67.562,93.945v10.01l-39.939,3.495V97.446L67.562,93.945z"/>
	<path id="path4233_14_" fill="#C22E24" d="M176.915,9.31L38.199,21.38c-1.207,0.107-2.348,0.457-3.43,0.923l56.046,56.04
		c4.427-4.391,10.271-7.362,16.703-7.926c0.862-0.077,1.715-0.107,2.555-0.095c12.594,0.177,22.417,9.973,22.414,22.932
		c-0.002,7.181-3.038,13.901-7.872,18.889l56.165,56.165c3.876-1.91,6.612-5.922,6.622-10.332l0.03-64.532l-39.956,3.507V86.936
		l39.962-3.501l0.012-27.987l19.686-21.306l-22.378-22.009l-0.024,0.03C182.804,10.19,180.032,9.058,176.915,9.31z M112.526,14.919
		l-0.006,40.046l-9.992,0.875l0.006-40.052L112.526,14.919z"/>
	<rect id="rect3585-3_20_" fill="none" width="211" height="211"/>
	
		<linearGradient id="path4256_1_" gradientUnits="userSpaceOnUse" x1="110.7662" y1="264.1182" x2="122.0837" y2="252.8007" gradientTransform="matrix(1 0 0 1 -73.225 -221.445)">
		<stop  offset="0" style="stop-color:#841F1C"/>
		<stop  offset="1" style="stop-color:#C22E24"/>
	</linearGradient>
	<path id="path4256_14_" fill="url(#path4256_1_)" d="M38.83,21.327l-0.631,0.054c-5.8,0.515-10.523,5.58-10.588,11.362
		l19.246,19.246l2.876,2.876v-0.28c0.012-5.822,4.767-10.939,10.599-11.457l0.274-0.024l-2.435-2.436L38.83,21.327z"/>
	
		<linearGradient id="path4272_1_" gradientUnits="userSpaceOnUse" x1="266.4935" y1="241.9426" x2="263.9254" y2="244.5106" gradientTransform="matrix(1 0 0 1 -73.225 -221.445)">
		<stop  offset="0" style="stop-color:#841F1C"/>
		<stop  offset="1" style="stop-color:#C22E24"/>
	</linearGradient>
	<path id="path4272_14_" opacity="0.536" fill="url(#path4272_1_)" enable-background="new    " d="M176.945,9.31l2.138,2.138
		l19.639,19.639l0.328-0.03c2.902-0.234,5.52,0.713,7.426,2.435l-21.717-21.36l-0.024,0.03
		C182.81,10.197,180.049,9.068,176.945,9.31z M206.594,33.605c0.186,0.174,0.335,0.383,0.506,0.572l0.036-0.036L206.594,33.605z"/>
	
		<linearGradient id="path4290_1_" gradientUnits="userSpaceOnUse" x1="114.38" y1="407.24" x2="112.5411" y2="409.0789" gradientTransform="matrix(1 0 0 1 -73.225 -221.445)">
		<stop  offset="0" style="stop-color:#841F1C"/>
		<stop  offset="1" style="stop-color:#651715"/>
	</linearGradient>
	<path id="path4290_14_" fill="url(#path4290_1_)" d="M27.653,172.298c0.075,2.523,1.054,4.729,2.62,6.372l-0.03,0.03l0.441,0.435
		c0.009,0.009,0.02,0.015,0.03,0.024l22.05,21.663c-1.691-1.58-2.748-3.803-2.93-6.342l-20.389-20.395L27.653,172.298z
		 M52.877,200.928L52.949,201l0.012-0.012C52.935,200.965,52.903,200.951,52.877,200.928z"/>
	
		<linearGradient id="path4472_1_" gradientUnits="userSpaceOnUse" x1="-73.9226" y1="988.4681" x2="-43.2213" y2="957.767" gradientTransform="matrix(1 0 0 1 194.775 -856.7358)">
		<stop  offset="0" style="stop-color:#841F1C"/>
		<stop  offset="1" style="stop-color:#C22E24"/>
	</linearGradient>
	<path id="path4472_2_" fill="url(#path4472_1_)" d="M132.433,92.075c0.018,0.393,0.054,0.78,0.054,1.179
		c-0.002,7.181-3.038,13.901-7.872,18.889c-4.47,4.612-10.476,7.744-17.102,8.325c-0.943,0.083-1.871,0.099-2.787,0.077
		c-2.215,15.375-6.905,23.976,24.909,21.663c13.792-1.208,24.971-13.392,24.974-27.213
		C154.611,102.12,144.911,92.373,132.433,92.075L132.433,92.075z"/>
	<path id="path4488_2_" fill="#C22E24" d="M102.534,15.789l22.122,21.763l-12.135,9.861l-20.027-7.084L72.259,18.435L102.534,15.789
		z"/>
	<path id="path4498_2_" fill="#841F1C" d="M209.565,115.216l-9.232-9.232l-39.303-2.89l2.474,28.518L209.565,115.216z"/>
	<path id="path4517_1_" fill="#841F1C" d="M134.612,196.818l-9.985-9.984l-12.13-35.998l34.726-1.176L134.612,196.818z"/>
	
		<linearGradient id="path4633-5_1_" gradientUnits="userSpaceOnUse" x1="202.893" y1="417.1942" x2="202.893" y2="257.0576" gradientTransform="matrix(1 0 0 1 -73.225 -221.445)">
		<stop  offset="0" style="stop-color:#D73024"/>
		<stop  offset="1" style="stop-color:#E43F46"/>
	</linearGradient>
	<path id="path4633-5_8_" fill="url(#path4633-5_1_)" d="M199.049,31.057l-64.401,5.603l-0.006,40.046l-9.992,0.875l0.006-40.052
		l-64.323,5.597c-5.833,0.518-10.587,5.635-10.599,11.457l0.012,64.603l39.939-3.501v10.01l-39.939,3.495l0.012,64.514
		c-0.024,5.821,4.715,10.144,10.546,9.635l138.627-12.148c5.857-0.516,10.593-5.658,10.605-11.469l0.03-64.538l-39.968,3.507
		v-10.016l39.968-3.501c0.037-97.038,0.034-65.83,0,10.01l0.036-74.47C209.61,34.879,204.891,30.585,199.049,31.057z
		 M132.195,92.063c12.594,0.177,22.417,9.973,22.414,22.932c-0.003,13.821-11.182,26.005-24.974,27.213
		c-13.792,1.208-24.97-9.011-24.968-22.831c0.002-13.821,11.181-26.01,24.974-27.219C130.502,92.082,131.355,92.051,132.195,92.063z
		 M134.624,156.786l-0.012,40.034l-9.986,0.869l0.006-40.028L134.624,156.786z"/>
	<path id="path4486_2_" fill="#841F1C" d="M27.623,97.446l22.122,21.741l-0.006-32.302L27.604,64.381L27.623,97.446z"/>
	<path id="path4490_2_" fill="#841F1C" d="M112.526,14.919l22.122,21.741l-0.006,40.046l-9.99-9.99l0.003-29.186l-12.131-11.912
		L112.526,14.919z"/>
	<path id="path4175_2_" opacity="0.3" fill="#FFFFFF" enable-background="new    " d="M199.049,31.057l-64.401,5.603v0.607
		l64.401-5.603c5.843-0.472,10.561,3.822,10.552,9.659v-0.607C209.61,34.879,204.891,30.585,199.049,31.057z M124.656,37.53
		l-64.323,5.597c-5.833,0.518-10.587,5.635-10.599,11.457v0.607c0.012-5.822,4.767-10.939,10.599-11.457l64.323-5.597V37.53z
		 M134.642,76.706l-9.992,0.875v0.607l9.992-0.875V76.706z M209.565,115.186l-39.968,3.507v0.607l39.968-3.507
		C209.567,111.191,209.563,119.44,209.565,115.186z M154.591,115.287c-0.16,13.7-11.262,25.722-24.956,26.922
		c-13.689,1.199-24.787-8.864-24.95-22.527c-0.001,0.102-0.018,0.201-0.018,0.304c-0.002,13.82,11.177,24.039,24.968,22.831
		c13.792-1.208,24.971-13.392,24.974-27.213C154.608,115.495,154.592,115.393,154.591,115.287z M89.684,125.696l-39.939,3.495v0.607
		l39.939-3.495V125.696z M134.612,196.819l-9.986,0.869v0.012l9.986-0.875V196.819z"/>
</g>
</svg>
