<?xml version="1.0" encoding="utf-8"?>
<!-- Generator: Adobe Illustrator 17.0.2, SVG Export Plug-In . SVG Version: 6.00 Build 0)  -->
<!DOCTYPE svg PUBLIC "-//W3C//DTD SVG 1.1//EN" "http://www.w3.org/Graphics/SVG/1.1/DTD/svg11.dtd">
<svg version="1.1" id="Comp" xmlns="http://www.w3.org/2000/svg" xmlns:xlink="http://www.w3.org/1999/xlink" x="0px" y="0px"
	 width="211px" height="211px" viewBox="0 0 211 211" enable-background="new 0 0 211 211" xml:space="preserve">
<g id="path3821_24_" opacity="0.7" enable-background="new    ">
	
		<radialGradient id="SVGID_1_" cx="-750.8486" cy="296.3621" r="62.2164" gradientTransform="matrix(-1.0333 -1.6395 -0.8458 0.533 -449.4218 -1192.0804)" gradientUnits="userSpaceOnUse">
		<stop  offset="0" style="stop-color:#000000"/>
		<stop  offset="1" style="stop-color:#000000;stop-opacity:0"/>
	</radialGradient>
	<path fill="url(#SVGID_1_)" d="M28.367,149.046c-1.921-0.006-4.593,0.044-7.487,0.206c-5.787,0.325-12.528,1.037-17.103,3.366
		c-1.079,0.557-1.501,1.883-0.944,2.962c0.103,0.199,0.236,0.382,0.394,0.541l45.538,46.912c0.474,0.51,1.162,0.765,1.854,0.687
		l30.702-4.671c1.2-0.185,2.023-1.307,1.838-2.507c-0.075-0.487-0.311-0.934-0.671-1.271l-49.659-45.538
		c-0.371-0.361-0.857-0.58-1.374-0.618C31.458,149.115,30.288,149.052,28.367,149.046z"/>
</g>
<g id="g4336_15_">
	<path id="path4308_15_" fill="#841F1C" d="M34.769,22.303c-4.148,1.788-7.16,5.917-7.17,10.534l0.024,139.121
		c-0.011,2.669,1.012,4.993,2.65,6.711l-0.03,0.03l0.441,0.435c0.009,0.009,0.02,0.015,0.03,0.024L52.949,201l20.818-22.527
		l103.029-9.027c1.412-0.124,2.753-0.531,3.984-1.137l-36.163-47.757l-22.122-21.747v35.151l-29.964,2.686v-35.145
		c-6.031-4.027-9.986-10.848-9.986-19.008c0-3.592,0.771-7.068,2.132-10.278L34.769,22.303z"/>
	<path id="path4233_15_" fill="#C22E24" d="M176.915,9.31L38.199,21.38c-1.207,0.107-2.348,0.457-3.43,0.923L84.676,72.21
		c3.873-9.138,12.631-16.067,22.837-16.983c13.79-1.237,24.968,8.964,24.968,22.783c0,8.159-3.955,15.685-9.986,20.794l0,0
		l22.122,21.747l36.163,47.757c3.876-1.91,6.612-5.922,6.622-10.332l0.048-102.529l19.686-21.306l-22.378-22.009l-0.024,0.03
		C182.804,10.191,180.032,9.058,176.915,9.31L176.915,9.31z"/>
	
		<linearGradient id="path4633_1_" gradientUnits="userSpaceOnUse" x1="202.859" y1="416.9296" x2="202.859" y2="257.1017" gradientTransform="matrix(1 0 0 1 -73.225 -221.445)">
		<stop  offset="0" style="stop-color:#D73024"/>
		<stop  offset="1" style="stop-color:#E43F46"/>
	</linearGradient>
	<path id="path4633_10_" fill="url(#path4633_1_)" d="M199.049,31.057L70.95,42.204l-10.903,0.977
		c-5.698,0.659-10.302,5.679-10.314,11.403l0.024,139.121c-0.023,5.668,4.48,9.88,10.099,9.629l139.693-12.529
		c2.705-0.243,5.142-1.542,6.937-3.442c1.879-2.067,3.043-4.768,3.049-7.64V40.072C209.201,34.576,204.669,30.603,199.049,31.057z
		 M132.189,76.873c12.591,0.152,22.414,9.929,22.414,22.884c0,8.159-3.955,15.685-9.986,20.794v35.145l-29.964,2.692v-35.151
		c-6.031-4.027-9.986-10.842-9.986-19.002c0-13.819,11.178-26.024,24.968-27.261C130.496,76.897,131.349,76.863,132.189,76.873z"/>
	<rect id="rect3585-3_21_" fill="none" width="211" height="211"/>
	
		<linearGradient id="path4256_1_" gradientUnits="userSpaceOnUse" x1="110.7662" y1="264.1182" x2="122.0837" y2="252.8007" gradientTransform="matrix(1 0 0 1 -73.225 -221.445)">
		<stop  offset="0" style="stop-color:#841F1C"/>
		<stop  offset="1" style="stop-color:#C22E24"/>
	</linearGradient>
	<path id="path4256_15_" fill="url(#path4256_1_)" d="M38.83,21.327l-0.631,0.054c-5.8,0.515-10.523,5.58-10.588,11.362
		l19.246,19.246l2.876,2.876v-0.28c0.012-5.822,4.767-10.939,10.599-11.457l0.274-0.024l-2.435-2.436L38.83,21.327z"/>
	
		<linearGradient id="path4272_1_" gradientUnits="userSpaceOnUse" x1="266.4935" y1="241.9426" x2="263.9254" y2="244.5106" gradientTransform="matrix(1 0 0 1 -73.225 -221.445)">
		<stop  offset="0" style="stop-color:#841F1C"/>
		<stop  offset="1" style="stop-color:#C22E24"/>
	</linearGradient>
	<path id="path4272_15_" opacity="0.536" fill="url(#path4272_1_)" enable-background="new    " d="M176.945,9.31l2.138,2.138
		l19.639,19.639l0.328-0.03c2.902-0.234,5.52,0.713,7.426,2.435l-21.717-21.36l-0.024,0.03
		C182.81,10.197,180.049,9.068,176.945,9.31z M206.594,33.605c0.186,0.174,0.335,0.383,0.506,0.572l0.036-0.036L206.594,33.605z"/>
	
		<linearGradient id="path4290_1_" gradientUnits="userSpaceOnUse" x1="114.3797" y1="407.2404" x2="112.5408" y2="409.0791" gradientTransform="matrix(1 0 0 1 -73.225 -221.445)">
		<stop  offset="0" style="stop-color:#841F1C"/>
		<stop  offset="1" style="stop-color:#651715"/>
	</linearGradient>
	<path id="path4290_15_" fill="url(#path4290_1_)" d="M27.653,172.298c0.075,2.523,1.054,4.729,2.62,6.372l-0.03,0.03l0.441,0.435
		c0.009,0.009,0.02,0.015,0.03,0.024l22.05,21.663c-1.691-1.58-2.748-3.803-2.93-6.342l-20.389-20.395L27.653,172.298z
		 M52.877,200.928L52.949,201l0.012-0.012C52.935,200.965,52.903,200.951,52.877,200.928z"/>
	<path id="path4550_2_" fill="#C22E24" d="M122.494,133.955l22.122,21.741l-29.964,2.692v-23.73L122.494,133.955z"/>
	
		<linearGradient id="path4560_1_" gradientUnits="userSpaceOnUse" x1="-45.604" y1="940.5461" x2="-65.969" y2="970.9857" gradientTransform="matrix(1 0 0 1 194.775 -856.7358)">
		<stop  offset="0" style="stop-color:#841F1C"/>
		<stop  offset="1" style="stop-color:#C22E24"/>
	</linearGradient>
	<path id="path4560_3_" fill="url(#path4560_1_)" d="M132.421,76.885c0.018,0.376,0.059,0.744,0.059,1.125
		c0,8.159-3.955,15.685-9.986,20.794l22.122,21.747c6.031-5.109,9.986-12.635,9.986-20.794
		C154.602,86.882,144.899,77.154,132.421,76.885L132.421,76.885z"/>
	<path id="path4577_2_" opacity="0.3" fill="#FFFFFF" enable-background="new    " d="M199.049,31.057L70.95,42.204l-10.903,0.977
		c-5.698,0.659-10.302,5.679-10.314,11.403v0.607c0.012-5.724,4.615-10.744,10.314-11.403l10.903-0.977l128.099-11.147
		c5.62-0.454,10.153,3.519,10.486,9.016v-0.607C209.201,34.576,204.669,30.603,199.049,31.057z M154.585,100.025
		c-0.086,8.055-4.004,15.474-9.968,20.526v0.607c6.031-5.109,9.986-12.635,9.986-20.794
		C154.602,100.249,154.586,100.139,154.585,100.025z M104.684,104.509c-0.001,0.112-0.018,0.221-0.018,0.333
		c0,8.159,3.955,14.975,9.986,19.002v-0.607C108.69,119.256,104.773,112.544,104.684,104.509z M144.616,155.696l-29.964,2.692v0.607
		l29.964-2.692V155.696z"/>
</g>
</svg>
