<?xml version="1.0" encoding="utf-8"?>
<!-- Generator: Adobe Illustrator 17.0.2, SVG Export Plug-In . SVG Version: 6.00 Build 0)  -->
<!DOCTYPE svg PUBLIC "-//W3C//DTD SVG 1.1//EN" "http://www.w3.org/Graphics/SVG/1.1/DTD/svg11.dtd">
<svg version="1.1" id="Comp" xmlns="http://www.w3.org/2000/svg" xmlns:xlink="http://www.w3.org/1999/xlink" x="0px" y="0px"
	 width="211px" height="211px" viewBox="0 0 211 211" enable-background="new 0 0 211 211" xml:space="preserve">
<g id="path3821_24_" opacity="0.7" enable-background="new    ">
	
		<radialGradient id="SVGID_1_" cx="-750.8486" cy="296.3621" r="62.2164" gradientTransform="matrix(-1.0333 -1.6395 -0.8458 0.533 -449.4218 -1192.0804)" gradientUnits="userSpaceOnUse">
		<stop  offset="0" style="stop-color:#000000"/>
		<stop  offset="1" style="stop-color:#000000;stop-opacity:0"/>
	</radialGradient>
	<path fill="url(#SVGID_1_)" d="M28.367,149.046c-1.921-0.006-4.593,0.044-7.487,0.206c-5.787,0.325-12.528,1.037-17.103,3.366
		c-1.079,0.557-1.501,1.883-0.944,2.962c0.103,0.199,0.236,0.382,0.394,0.541l45.538,46.912c0.474,0.51,1.162,0.765,1.854,0.687
		l30.702-4.671c1.2-0.185,2.023-1.307,1.838-2.507c-0.075-0.487-0.311-0.934-0.671-1.271l-49.659-45.538
		c-0.371-0.361-0.857-0.58-1.374-0.618C31.458,149.115,30.288,149.052,28.367,149.046z"/>
</g>
<g id="layer1_9_" transform="translate(268,-635.29076)">
	<path id="path4622_1_" fill="#841F1C" d="M-218.249,794.5l44.941-4.031l-9.986-9.111l-34.961,3.125L-218.249,794.5z"/>
	<g id="g4336_6_">
		<path id="path4647_6_" fill="#841F1C" d="M-91.085,644.601l-34.448,2.995v10.695l-9.986-9.825l-22.825,1.971l0.012,0.012
			l-27.124,2.364v0.012v10.701l-9.986-9.825v-0.018l-19.692,1.715l-3.132,0.268l-11.534,1.006c-1.207,0.107-2.348,0.457-3.43,0.923
			c-4.148,1.788-7.16,5.917-7.17,10.534l0.018,94.615h0.006l9.331,9.17l-9.337,0.84l0.006,34.496
			c-0.012,2.669,1.012,4.993,2.65,6.711l-0.03,0.031l0.441,0.435c0.009,0.009,0.021,0.015,0.03,0.024l22.051,21.663
			c0.038,0.036,0.074,0.072,0.113,0.107l0.071,0.071l0.012-0.012c1.901,1.679,4.485,2.602,7.342,2.352l34.377-3.013v-0.125v-10.879
			v-12.684h0.006l-0.006,12.684l9.986,9.986v0.143l49.937-4.377v-0.244v-10.736v-12.702h0.006l-0.006,12.702l9.986,9.986V805.81
			h0.006v23.414v0.268l34.335-3.007c5.857-0.516,10.593-5.658,10.605-11.469l0.018-34.847l-9.986-9.111l-12.154,1.09v-0.006
			l22.122-1.983h0.018v6.943l0.03-56.987h-0.036l-9.98-9.105l-12.13,1.09v-0.006l22.098-1.983v0.006l0.048-0.006l0.018-34.103
			c0.003-2.588-0.955-4.838-2.495-6.538l0.03-0.036l-0.5-0.494c-0.06-0.057-0.117-0.117-0.179-0.172l-21.699-21.342l-0.024,0.031
			c-1.93-1.972-4.702-3.104-7.819-2.852L-91.085,644.601z M-127.737,671.457l-7.783,0.679v-0.012L-127.737,671.457L-127.737,671.457
			z M-103.411,690.411h0.006v10.01h-0.006V690.411z M-218.267,700.712l0.006,10.01h-0.006V700.712z M-240.389,702.695l9.337,9.176
			l-9.337,0.834V702.695z M-103.411,750.458h0.006v10.01h-0.006V750.458z M-113.398,751.352h0.006v10.01h-0.006V751.352z
			 M-173.32,756.729h0.006v10.01h-0.006V756.729z"/>
		<path id="path4233_6_" fill="#C22E24" d="M-91.085,644.601l-34.448,2.995v44.798l44.947-4.031v10.01l-44.947,4.031v50.038
			l44.947-4.031v10.01l-44.947,4.031v2.834l38.313,38.313c3.876-1.91,6.612-5.922,6.622-10.332l0.048-102.529l19.686-21.306
			l-22.378-22.009l-0.024,0.03C-85.196,645.481-87.968,644.349-91.085,644.601z M-135.519,648.465l-49.937,4.347v44.958
			l49.937-4.478V648.465z M-195.442,653.682l-34.359,2.989c-1.207,0.107-2.348,0.457-3.43,0.923l37.789,37.789L-195.442,653.682
			L-195.442,653.682z M-135.519,703.297l-47.721,4.287l45.923,45.917l1.798-0.161L-135.519,703.297L-135.519,703.297z"/>
		<path id="path4308_6_" fill="#841F1C" d="M-233.231,657.594c-4.148,1.788-7.16,5.917-7.17,10.534l0.018,94.615l44.941-4.031
			v-50.038l-44.947,4.031v-10.01l44.947-4.031v-3.281L-233.231,657.594L-233.231,657.594z M-183.241,707.584l-2.215,0.197v50.038
			l48.138-4.317L-183.241,707.584L-183.241,707.584z M-135.519,763.345l-49.937,4.484v45.024l-9.986,0.899v-45.03l-44.941,4.031
			l0.006,34.496c-0.012,2.669,1.012,4.993,2.65,6.711l-0.03,0.031l0.441,0.435c0.009,0.009,0.021,0.015,0.03,0.024l22.235,21.842
			l20.818-22.527l103.029-9.027c1.412-0.124,2.752-0.531,3.984-1.137l-38.313-38.313v42.19l-9.986,0.899v-45.03L-135.519,763.345z"
			/>
		<path id="path4611_6_" fill="#DE4B40" d="M-68.951,666.347l-34.454,2.995v44.798l44.941-4.031v0.006l0.048-0.006l0.018-34.103
			C-58.39,670.17-63.109,665.875-68.951,666.347z M-113.398,670.212l-49.937,4.347v44.958l49.937-4.484
			C-113.398,715.033-113.398,670.212-113.398,670.212z M-173.32,675.428l-34.347,2.989c-5.833,0.518-10.587,5.635-10.599,11.457
			l0.006,34.567l44.941-4.031v-44.982H-173.32z"/>
		<path id="path4609_1_" fill="#DD4336" d="M-58.417,720.113l-44.988,4.037v50.038l44.941-4.031h0.018v6.943L-58.417,720.113z
			 M-113.398,725.044l-49.937,4.478v50.044l49.937-4.484C-113.398,775.082-113.398,725.044-113.398,725.044z M-173.32,730.421
			l-44.941,4.031l0.012,50.038l44.929-4.031L-173.32,730.421L-173.32,730.421z"/>
		<path id="path4607_1_" fill="#D73024" d="M-58.465,780.167l-44.941,4.031v45.024v0.268l34.335-3.007
			c5.857-0.516,10.593-5.658,10.605-11.469l0.018-34.847H-58.465z M-113.398,785.091l-49.937,4.478v45.03v0.143l49.937-4.377v-0.244
			C-113.398,830.121-113.398,785.091-113.398,785.091z M-173.32,790.469l-44.929,4.031l0.006,34.496
			c-0.024,5.821,4.715,10.144,10.546,9.635l34.377-3.013v-0.125V790.469z"/>
		<rect id="rect3585-3_17_" x="-268" y="635.291" fill="none" width="211" height="211"/>
		
			<linearGradient id="path4256_1_" gradientUnits="userSpaceOnUse" x1="-3.4589" y1="756.6724" x2="7.8587" y2="745.3548" gradientTransform="matrix(1 0 0 1 -227 -78.7092)">
			<stop  offset="0" style="stop-color:#841F1C"/>
			<stop  offset="1" style="stop-color:#C22E24"/>
		</linearGradient>
		<path id="path4256_6_" fill="url(#path4256_1_)" d="M-229.17,656.617l-0.631,0.054c-5.8,0.515-10.523,5.58-10.588,11.362
			l19.246,19.246l2.876,2.876v-0.28c0.012-5.822,4.767-10.939,10.599-11.457l0.274-0.024l-2.436-2.435L-229.17,656.617z"/>
		
			<linearGradient id="path4272_1_" gradientUnits="userSpaceOnUse" x1="152.2686" y1="734.4977" x2="149.7005" y2="737.0657" gradientTransform="matrix(1 0 0 1 -227 -78.7092)">
			<stop  offset="0" style="stop-color:#841F1C"/>
			<stop  offset="1" style="stop-color:#C22E24"/>
		</linearGradient>
		<path id="path4272_6_" opacity="0.536" fill="url(#path4272_1_)" enable-background="new    " d="M-91.055,644.601l2.138,2.138
			l19.639,19.639l0.328-0.03c2.902-0.234,5.52,0.713,7.426,2.435l-21.717-21.36l-0.024,0.03
			C-85.19,645.488-87.951,644.359-91.055,644.601z M-61.406,668.896c0.186,0.174,0.335,0.383,0.506,0.572l0.036-0.036
			L-61.406,668.896z"/>
		
			<linearGradient id="path4290_1_" gradientUnits="userSpaceOnUse" x1="0.155" y1="899.7943" x2="-1.6839" y2="901.6332" gradientTransform="matrix(1 0 0 1 -227 -78.7092)">
			<stop  offset="0" style="stop-color:#841F1C"/>
			<stop  offset="1" style="stop-color:#651715"/>
		</linearGradient>
		<path id="path4290_6_" fill="url(#path4290_1_)" d="M-240.347,807.589c0.075,2.523,1.054,4.729,2.62,6.372l-0.03,0.03l0.441,0.435
			c0.009,0.009,0.02,0.015,0.03,0.024l22.051,21.663c-1.691-1.58-2.748-3.803-2.93-6.342l-20.389-20.395L-240.347,807.589z
			 M-215.123,836.219l0.071,0.071l0.012-0.012C-215.065,836.256-215.097,836.242-215.123,836.219z"/>
		<path id="path4552_1_" fill="#841F1C" d="M-240.389,702.695l22.128,21.747l-0.003-23.731l-22.124-19.378L-240.389,702.695z"/>
		<path id="path4554_1_" fill="#841F1C" d="M-240.377,762.743l22.128,21.747l-0.003-23.731l-22.124-19.378L-240.377,762.743z"/>
	</g>
	<path id="path4556_1_" fill="#C22E24" d="M-195.442,653.699l22.122,21.766l-26.287,2.251l-18.66-22.049L-195.442,653.699z"/>
	<path id="path4558_1_" fill="#C22E24" d="M-135.519,648.465l22.122,21.766l-26.287,2.251l-18.66-22.049L-135.519,648.465z"/>
	<path id="path4560_2_" fill="#A2271E" d="M-185.456,652.826l22.122,21.766V834.6l-9.986-9.986l0.012-34.145l-9.986-9.111
		l9.98-0.899l-0.006-50.038l-9.986-9.111l9.986-0.899v-44.945l-12.136-11.941L-185.456,652.826z"/>
	<path id="path4618_1_" fill="#841F1C" d="M-218.261,734.452l44.941-4.031l-9.986-9.111l-34.961,3.125L-218.261,734.452z"/>
	<path id="path4620_1_" fill="#841F1C" d="M-163.334,729.522l49.937-4.478l-9.986-9.111l-39.951,3.585l-9.986-9.688l-0.006,10.582
		L-163.334,729.522z"/>
	<path id="path4626_1_" fill="#841F1C" d="M-163.334,789.569l49.937-4.478l-9.986-9.111l-39.951,3.585l-9.986-9.688l-0.006,10.582
		L-163.334,789.569z"/>
	<path id="path4628_1_" fill="#A2271E" d="M-125.533,647.596l22.122,21.766V829.37l-9.986-9.986l0.012-34.145l-9.986-9.111
		l9.98-0.899l-0.006-50.038l-9.986-9.111l9.986-0.899v-44.945l-12.136-11.941L-125.533,647.596z"/>
	<path id="path4630_1_" fill="#841F1C" d="M-103.405,724.15l44.958-4.031l-9.986-9.111l-34.972,3.138l-9.986-9.688l-0.006,10.582
		L-103.405,724.15z"/>
	<path id="path4632_1_" fill="#841F1C" d="M-103.405,784.198l44.958-4.031l-9.986-9.111l-34.972,3.138l-9.986-9.688l-0.006,10.582
		L-103.405,784.198z"/>
</g>
</svg>
