<?xml version="1.0" encoding="UTF-8" standalone="no"?>
<!-- Created with Inkscape (http://www.inkscape.org/) -->

<svg
   xmlns:dc="http://purl.org/dc/elements/1.1/"
   xmlns:cc="http://creativecommons.org/ns#"
   xmlns:rdf="http://www.w3.org/1999/02/22-rdf-syntax-ns#"
   xmlns:svg="http://www.w3.org/2000/svg"
   xmlns="http://www.w3.org/2000/svg"
   xmlns:sodipodi="http://sodipodi.sourceforge.net/DTD/sodipodi-0.dtd"
   xmlns:inkscape="http://www.inkscape.org/namespaces/inkscape"
   width="354.33069"
   height="354.33069"
   id="svg2"
   version="1.1"
   inkscape:version="0.48.3.1 r9886"
   sodipodi:docname="maas-logo-simpler.svg"
   inkscape:export-filename="/home/mark/Pictures/Ubuntu/maas/maas-logo-256.png"
   inkscape:export-xdpi="76.860001"
   inkscape:export-ydpi="76.860001">
  <defs
     id="defs4" />
  <sodipodi:namedview
     id="base"
     pagecolor="#ffffff"
     bordercolor="#666666"
     borderopacity="1.0"
     inkscape:pageopacity="0.0"
     inkscape:pageshadow="2"
     inkscape:zoom="1.4033915"
     inkscape:cx="163.10349"
     inkscape:cy="195.25471"
     inkscape:document-units="px"
     inkscape:current-layer="layer1"
     showgrid="false"
     units="cm"
     inkscape:window-width="1366"
     inkscape:window-height="744"
     inkscape:window-x="0"
     inkscape:window-y="24"
     inkscape:window-maximized="1" />
  <metadata
     id="metadata7">
    <rdf:RDF>
      <cc:Work
         rdf:about="">
        <dc:format>image/svg+xml</dc:format>
        <dc:type
           rdf:resource="http://purl.org/dc/dcmitype/StillImage" />
        <dc:title></dc:title>
      </cc:Work>
    </rdf:RDF>
  </metadata>
  <g
     inkscape:label="Layer 1"
     inkscape:groupmode="layer"
     id="layer1"
     transform="translate(0,-698.03017)">
    <path
       sodipodi:type="arc"
       style="opacity:0.59670780999999995;fill:#333333;fill-opacity:0;stroke:none"
       id="path2993"
       sodipodi:cx="176.85178"
       sodipodi:cy="176.85178"
       sodipodi:rx="82.154549"
       sodipodi:ry="82.154549"
       d="m 259.00632,176.85178 c 0,45.3727 -36.78184,82.15454 -82.15454,82.15454 -45.37271,0 -82.154553,-36.78184 -82.154553,-82.15454 0,-45.37271 36.781843,-82.154553 82.154553,-82.154553 45.3727,0 82.15454,36.781843 82.15454,82.154553 z"
       transform="matrix(1.8244275,0,0,1.8244275,-145.80146,552.22871)" />
    <path
       sodipodi:type="arc"
       style="opacity:0.59670780999999995;fill:#dd4814;fill-opacity:0;stroke:none"
       id="path3765"
       sodipodi:cx="176.85178"
       sodipodi:cy="181.24171"
       sodipodi:rx="60.204861"
       sodipodi:ry="84.663086"
       d="m 237.05664,181.24171 c 0,46.75814 -26.95464,84.66309 -60.20486,84.66309 -33.25023,0 -60.20486,-37.90495 -60.20486,-84.66309 0,-46.75813 26.95463,-84.663081 60.20486,-84.663081 33.25022,0 60.20486,37.904951 60.20486,84.663081 z"
       transform="translate(0,698.03017)" />
    <path
       sodipodi:type="arc"
       style="opacity:0.59670781;fill:#dd4814;fill-opacity:0;stroke:none"
       id="path3767"
       sodipodi:cx="211.65771"
       sodipodi:cy="221.69185"
       sodipodi:rx="56.12849"
       sodipodi:ry="27.907461"
       d="m 267.78621,221.69185 c 0,15.41286 -25.12959,27.90746 -56.1285,27.90746 -30.9989,0 -56.12849,-12.4946 -56.12849,-27.90746 0,-15.41287 25.12959,-27.90746 56.12849,-27.90746 30.99891,0 56.1285,12.49459 56.1285,27.90746 z"
       transform="translate(0,698.03017)" />
    <path
       sodipodi:type="arc"
       style="opacity:1;fill:#dd4814;fill-opacity:1;stroke:none"
       id="path3773"
       sodipodi:cx="177.47891"
       sodipodi:cy="176.22464"
       sodipodi:rx="73.374672"
       sodipodi:ry="73.374672"
       d="m 250.85358,176.22464 c 0,40.52371 -32.85096,73.37467 -73.37467,73.37467 -40.52371,0 -73.37467,-32.85096 -73.37467,-73.37467 0,-40.52371 32.85096,-73.37467 73.37467,-73.37467 40.52371,0 73.37467,32.85096 73.37467,73.37467 z"
       transform="matrix(1.9669837,0,0,1.9669837,-171.61921,527.62382)" />
    <g
       id="g3058"
       transform="translate(4.772041e-7,14.996107)">
      <path
         inkscape:connector-curvature="0"
         id="path3794"
         d="m 164.91486,912.51937 c -18.34234,0.0325 -50.34122,0.34573 -63.05698,2.30459 -6.875545,1.08899 -6.340477,5.64207 -6.539442,9.3973 7.99e-4,0.0146 -7.81e-4,0.0302 0,0.0447 -3.99e-4,0.007 3.99e-4,0.015 0,0.0224 0.198965,3.75522 -0.336103,8.30828 6.539442,9.3973 16.93556,2.60892 68.05397,2.30528 75.57933,2.30456 0.008,0 0.0476,0 0.0558,0 7.52538,6.9e-4 58.64376,0.30436 75.57933,-2.30456 6.87557,-1.08902 6.36832,-5.64208 6.56728,-9.3973 -0.20879,-3.7675 0.34814,-8.36909 -6.56728,-9.46442 -16.93557,-2.60893 -68.05395,-2.30527 -75.57933,-2.30456 -1.85922,0 -6.4639,-0.0103 -12.57799,0 z"
         style="fill:#ffffff;fill-opacity:1;stroke:#ffffff;stroke-width:0.79847866px;stroke-linecap:butt;stroke-linejoin:miter;stroke-opacity:1" />
      <path
         style="fill:#ffffff;fill-opacity:1;stroke:#ffffff;stroke-width:0.79847866px;stroke-linecap:butt;stroke-linejoin:miter;stroke-opacity:1"
         d="m 164.91486,782.5271 c -18.34234,0.0325 -50.34122,0.34573 -63.05698,2.30459 -6.875545,1.08898 -6.340477,5.64206 -6.539442,9.39729 7.99e-4,0.0146 -7.81e-4,0.0302 0,0.0448 -3.99e-4,0.008 3.99e-4,0.015 0,0.0224 0.198965,3.7552 -0.336103,8.30828 6.539442,9.39729 16.93556,2.60893 68.05397,2.30527 75.57933,2.30456 0.008,0 0.0476,0 0.0558,0 7.52538,6.9e-4 58.64376,0.30437 75.57933,-2.30456 6.87557,-1.08901 6.36832,-5.64209 6.56728,-9.39729 -0.20879,-3.76751 0.34814,-8.3691 -6.56728,-9.46443 -16.93557,-2.60892 -68.05395,-2.30527 -75.57933,-2.30456 -1.85922,0 -6.4639,-0.0103 -12.57799,0 z"
         id="path3816"
         inkscape:connector-curvature="0" />
      <path
         inkscape:connector-curvature="0"
         id="path3818"
         d="m 164.91486,869.18854 c -18.34234,0.0326 -50.34122,0.34573 -63.05698,2.30461 -6.875545,1.08898 -6.340477,5.64204 -6.539442,9.39729 7.99e-4,0.0145 -7.81e-4,0.0302 0,0.0447 -3.99e-4,0.007 3.99e-4,0.015 0,0.0225 0.198965,3.75519 -0.336103,8.30827 6.539442,9.39727 16.93556,2.60893 68.05397,2.30529 75.57933,2.30458 0.008,0 0.0476,0 0.0558,0 7.52538,6.8e-4 58.64376,0.30435 75.57933,-2.30458 6.87557,-1.089 6.36832,-5.64208 6.56728,-9.39727 -0.20879,-3.76752 0.34814,-8.3691 -6.56728,-9.46441 -16.93557,-2.60896 -68.05395,-2.30529 -75.57933,-2.30458 -1.85922,0 -6.4639,-0.0103 -12.57799,0 z"
         style="fill:#ffffff;fill-opacity:1;stroke:#ffffff;stroke-width:0.79847866px;stroke-linecap:butt;stroke-linejoin:miter;stroke-opacity:1" />
      <path
         inkscape:connector-curvature="0"
         id="path3930"
         d="m 164.91486,825.85784 c -18.34234,0.0325 -50.34122,0.34573 -63.05698,2.30459 -6.875545,1.08898 -6.340477,5.64206 -6.539442,9.39729 7.99e-4,0.0146 -7.81e-4,0.0302 0,0.0448 -3.99e-4,0.007 3.99e-4,0.015 0,0.0224 0.198965,3.7552 -0.336103,8.30828 6.539442,9.39729 16.93556,2.60893 68.05397,2.30527 75.57933,2.30456 0.008,0 0.0476,0 0.0558,0 7.52538,6.9e-4 58.64376,0.30437 75.57933,-2.30456 6.87557,-1.08901 6.36832,-5.64209 6.56728,-9.39729 -0.20879,-3.76751 0.34814,-8.3691 -6.56728,-9.46443 -16.93557,-2.60892 -68.05395,-2.30527 -75.57933,-2.30456 -1.85922,0 -6.4639,-0.0103 -12.57799,0 z"
         style="fill:#ffffff;fill-opacity:1;stroke:#ffffff;stroke-width:0.79847866px;stroke-linecap:butt;stroke-linejoin:miter;stroke-opacity:1" />
    </g>
  </g>
</svg>
