<?xml version="1.0" encoding="utf-8"?>
<!-- Generator: Adobe Illustrator 18.1.0, SVG Export Plug-In . SVG Version: 6.00 Build 0)  -->
<!DOCTYPE svg PUBLIC "-//W3C//DTD SVG 1.1//EN" "http://www.w3.org/Graphics/SVG/1.1/DTD/svg11.dtd">
<svg version="1.1" id="Layer_1" xmlns="http://www.w3.org/2000/svg" xmlns:xlink="http://www.w3.org/1999/xlink" x="0px" y="0px"
	 viewBox="0 0 288 288" enable-background="new 0 0 288 288" xml:space="preserve">
<g>
	<path fill="#ffffff" d="M200.2,246.6h-135c-22.4,0-40.5-18.1-40.5-40.5c0-21.5,16.8-39.1,38-40.4c-9.5-19-2.6-42.3,16-53.1
		c18.6-10.8,42.3-5,54,12.7c11.7-17.7,35.4-23.5,54-12.7c18.6,10.8,25.5,34.1,16,53.1c21.2,1.3,38,18.9,38,40.4
		C240.7,228.5,222.5,246.6,200.2,246.6z"/>
</g>
<g>
	<path fill="#DE4815" d="M234,203H54c-29.8,0-54-24.2-54-54c0-28.7,22.4-52.2,50.7-53.9C38,69.7,47.1,38.6,72,24.2
		c24.9-14.3,56.4-6.7,72,16.9c15.6-23.6,47.1-31.3,72-16.9c24.9,14.4,34,45.5,21.3,70.8c28.3,1.7,50.7,25.2,50.7,53.9
		C288,178.8,263.8,203,234,203z"/>
</g>
<g>
	<path fill="#FFFFFF" d="M194.8,120.1c0,28-22.7,50.8-50.8,50.8c-28,0-50.8-22.7-50.8-50.8c0-28,22.7-50.8,50.8-50.8
		S194.8,92.1,194.8,120.1z"/>
	<path fill="#DD4814" d="M109.5,113.3c-3.7,0-6.8,3-6.8,6.8c0,3.7,3,6.8,6.8,6.8c3.7,0,6.8-3,6.8-6.8
		C116.3,116.4,113.2,113.3,109.5,113.3z M157.9,144.1c-3.2,1.9-4.4,6-2.5,9.3c1.9,3.2,6,4.4,9.3,2.5c3.2-1.9,4.4-6,2.5-9.3
		C165.3,143.4,161.1,142.3,157.9,144.1z M124.2,120.1c0-6.7,3.3-12.6,8.4-16.2l-5-8.3c-5.9,4-10.3,10-12.2,17.1
		c2.1,1.7,3.5,4.4,3.5,7.4c0,3-1.4,5.6-3.5,7.4c1.8,7.1,6.2,13.2,12.2,17.1l5-8.3C127.5,132.7,124.2,126.8,124.2,120.1z M144,100.3
		c10.3,0,18.8,7.9,19.7,18l9.7-0.1c-0.5-7.5-3.7-14.2-8.7-19.1c-2.6,1-5.6,0.8-8.1-0.7c-2.6-1.5-4.2-4-4.6-6.7
		c-2.5-0.7-5.1-1.1-7.9-1.1c-4.7,0-9.1,1.1-13,3l4.7,8.4C138.2,101,141,100.3,144,100.3z M144,139.9c-3,0-5.8-0.7-8.3-1.8l-4.7,8.4
		c3.9,1.9,8.4,3,13,3c2.7,0,5.4-0.4,7.9-1.1c0.4-2.7,2.1-5.2,4.6-6.7c2.6-1.5,5.5-1.6,8.1-0.7c5-4.9,8.3-11.6,8.7-19.1l-9.7-0.1
		C162.8,132,154.3,139.9,144,139.9z M157.9,96.1c3.2,1.9,7.4,0.8,9.3-2.5c1.9-3.2,0.8-7.4-2.5-9.3c-3.2-1.9-7.4-0.8-9.3,2.5
		C153.5,90.1,154.6,94.2,157.9,96.1z"/>
</g>
<g>
	<path fill="#5E2750" d="M253.7,273.5h-90c-14.9,0-27-12.1-27-27c0-14.4,11.2-26.1,25.3-26.9c-6.3-12.7-1.8-28.2,10.7-35.4
		c12.4-7.2,28.2-3.3,36,8.5c7.8-11.8,23.6-15.6,36-8.5c12.4,7.2,17,22.7,10.7,35.4c14.1,0.9,25.3,12.6,25.3,26.9
		C280.7,261.4,268.6,273.5,253.7,273.5z"/>
</g>
</svg>
