<?xml version="1.0" encoding="utf-8"?>
<!-- Generator: Adobe Illustrator 17.0.2, SVG Export Plug-In . SVG Version: 6.00 Build 0)  -->
<!DOCTYPE svg PUBLIC "-//W3C//DTD SVG 1.1//EN" "http://www.w3.org/Graphics/SVG/1.1/DTD/svg11.dtd">
<svg version="1.1" xmlns="http://www.w3.org/2000/svg" xmlns:xlink="http://www.w3.org/1999/xlink" x="0px" y="0px" width="131px"
	 height="54px" viewBox="0 0 131 54" enable-background="new 0 0 131 54" xml:space="preserve">
<g id="BK">
</g>
<g id="Comp">
	<path fill="#DA4814" d="M26.998,0C12.087,0,0,12.086,0,27s12.087,27,26.998,27C41.91,54,54,41.914,54,27S41.91,0,26.998,0z"/>
	<path fill="#FFFFFF" d="M13.896,43.695c-0.229,0.23-0.535,0.355-0.859,0.355l0,0c-0.326,0-0.633-0.125-0.861-0.355
		c-0.229-0.232-0.357-0.537-0.357-0.863c0-0.322,0.127-0.627,0.357-0.856c0.228-0.232,0.534-0.36,0.861-0.36
		c0.323,0,0.629,0.127,0.859,0.36c0.229,0.229,0.355,0.534,0.355,0.856C14.251,43.158,14.125,43.463,13.896,43.695z"/>
	<path fill="#FFFFFF" d="M19.193,25.536c-0.122-0.389-0.298-0.708-0.523-0.951c-0.223-0.243-0.496-0.422-0.807-0.537
		c-0.315-0.115-0.668-0.176-1.055-0.176c-0.386,0-0.739,0.06-1.044,0.176c-0.307,0.115-0.576,0.295-0.798,0.537
		c-0.226,0.244-0.402,0.562-0.526,0.951c-0.123,0.397-0.186,0.874-0.186,1.429v14.15h-2.442V26.747c0-0.725,0.1-1.394,0.291-2.004
		c0.194-0.608,0.5-1.142,0.909-1.592c0.408-0.453,0.93-0.808,1.55-1.057c0.619-0.251,1.368-0.376,2.227-0.376
		c0.858,0,1.613,0.125,2.243,0.376c0.633,0.249,1.16,0.604,1.569,1.057c0.408,0.451,0.718,0.985,0.917,1.592
		c0.201,0.605,0.302,1.279,0.302,2.004v1.951h-2.443v-1.733C19.381,26.41,19.318,25.933,19.193,25.536z"/>
	<path fill="#FFFFFF" d="M29.388,35.459c0,0.724-0.102,1.4-0.299,2.004c-0.202,0.609-0.509,1.141-0.919,1.593
		c-0.408,0.452-0.937,0.808-1.568,1.057c-0.632,0.25-1.387,0.377-2.246,0.377c-0.856,0-1.604-0.127-2.225-0.377
		c-0.619-0.249-1.141-0.605-1.55-1.055c-0.409-0.454-0.713-0.987-0.908-1.595c-0.194-0.604-0.291-1.28-0.291-2.004v-6.174h2.442
		v5.954c0,0.557,0.063,1.034,0.186,1.428c0.121,0.392,0.298,0.711,0.523,0.953c0.225,0.242,0.493,0.422,0.798,0.537
		c0.307,0.116,0.658,0.176,1.045,0.176c0.386,0,0.74-0.06,1.053-0.176c0.311-0.115,0.584-0.295,0.809-0.537
		c0.223-0.243,0.399-0.561,0.523-0.953c0.121-0.394,0.185-0.871,0.185-1.428v-5.954h2.441v6.174H29.388z"/>
	<path fill="#FFFFFF" d="M26.952,27.498c0-0.667,0.545-1.213,1.215-1.213c0.67,0,1.217,0.546,1.217,1.213
		c0,0.672-0.546,1.221-1.217,1.221C27.498,28.719,26.952,28.17,26.952,27.498z"/>
	<path fill="#FFFFFF" d="M34.326,10.266c-0.123-0.387-0.3-0.711-0.526-0.953c-0.222-0.243-0.496-0.422-0.806-0.537
		c-0.314-0.117-0.666-0.177-1.054-0.177c-0.386,0-0.737,0.06-1.043,0.177c-0.307,0.115-0.576,0.295-0.801,0.537
		c-0.226,0.242-0.399,0.561-0.522,0.953c-0.123,0.393-0.188,0.871-0.188,1.428v14.148h-2.442V11.475c0-0.72,0.099-1.395,0.293-2.004
		c0.194-0.609,0.499-1.142,0.908-1.592c0.407-0.453,0.928-0.81,1.551-1.055c0.619-0.254,1.368-0.381,2.224-0.381
		c0.859,0,1.615,0.127,2.246,0.377c0.632,0.249,1.16,0.605,1.568,1.058c0.408,0.45,0.717,0.983,0.917,1.592
		c0.2,0.609,0.302,1.284,0.302,2.008v1.947h-2.442v-1.731C34.512,11.137,34.448,10.659,34.326,10.266z"/>
	<path fill="#FFFFFF" d="M44.517,20.187c0,0.724-0.099,1.398-0.3,2.004c-0.198,0.608-0.509,1.147-0.916,1.595
		c-0.41,0.451-0.937,0.81-1.569,1.055c-0.632,0.251-1.388,0.377-2.243,0.377c-0.859,0-1.609-0.126-2.228-0.377
		c-0.619-0.245-1.141-0.604-1.55-1.055c-0.408-0.448-0.714-0.987-0.909-1.595c-0.195-0.605-0.291-1.279-0.291-2.004v-6.172h2.442
		v5.954c0,0.555,0.063,1.037,0.185,1.429c0.123,0.39,0.298,0.708,0.524,0.952c0.224,0.242,0.493,0.422,0.799,0.537
		c0.308,0.115,0.658,0.176,1.045,0.176c0.387,0,0.74-0.06,1.052-0.176c0.313-0.115,0.583-0.295,0.808-0.537
		c0.225-0.244,0.4-0.562,0.523-0.952c0.122-0.392,0.186-0.874,0.186-1.429v-5.954h2.442V20.187L44.517,20.187z"/>
	<path fill="#333333" d="M61.73,46.33c-0.361,0-0.826-0.044-1.401-0.135c-0.572-0.092-1.054-0.211-1.447-0.361l0.543-3.438
		c0.302,0.092,0.649,0.168,1.04,0.226c0.392,0.061,0.754,0.092,1.086,0.092c1.447,0,2.477-0.444,3.097-1.335
		c0.616-0.89,0.927-2.191,0.927-3.912V14.361h4.205v23.063c0,3.013-0.687,5.251-2.059,6.715C66.351,45.602,64.354,46.33,61.73,46.33
		z"/>
	<path fill="#333333" d="M94.875,37.196c-0.967,0.243-2.239,0.499-3.82,0.77c-1.583,0.271-3.413,0.406-5.496,0.406
		c-1.807,0-3.331-0.263-4.566-0.79c-1.237-0.528-2.232-1.273-2.986-2.24c-0.753-0.962-1.294-2.102-1.627-3.413
		c-0.332-1.312-0.497-2.765-0.497-4.362V14.361h4.204v12.301c0,2.864,0.452,4.913,1.357,6.148c0.904,1.238,2.427,1.853,4.568,1.853
		c0.452,0,0.919-0.015,1.401-0.046c0.482-0.029,0.933-0.066,1.356-0.111c0.423-0.047,0.805-0.089,1.153-0.133
		c0.345-0.045,0.595-0.098,0.746-0.161V14.361h4.206V37.196L94.875,37.196z"/>
	<path fill="#333333" d="M97.632,46.33c-0.361,0-0.828-0.044-1.4-0.135c-0.572-0.092-1.055-0.211-1.447-0.361l0.542-3.438
		c0.303,0.092,0.648,0.168,1.041,0.226c0.393,0.061,0.752,0.092,1.085,0.092c1.447,0,2.48-0.444,3.097-1.335
		c0.617-0.89,0.928-2.191,0.928-3.912V14.361h4.204v23.063c0,3.013-0.685,5.251-2.057,6.715
		C102.253,45.602,100.254,46.33,97.632,46.33z"/>
	<path fill="#333333" d="M130.776,37.196c-0.965,0.243-2.236,0.499-3.821,0.77c-1.582,0.271-3.413,0.406-5.492,0.406
		c-1.81,0-3.333-0.263-4.568-0.79c-1.236-0.528-2.232-1.273-2.985-2.24c-0.754-0.962-1.295-2.102-1.629-3.413
		c-0.332-1.312-0.497-2.765-0.497-4.362V14.361h4.205v12.301c0,2.864,0.453,4.913,1.359,6.148c0.901,1.238,2.425,1.853,4.566,1.853
		c0.451,0,0.92-0.015,1.403-0.046c0.481-0.029,0.932-0.066,1.355-0.111c0.422-0.047,0.806-0.089,1.152-0.133
		c0.346-0.045,0.595-0.098,0.746-0.161V14.361h4.205V37.196L130.776,37.196z"/>
</g>
<g id="Grid" display="none">
</g>
<g id="Labels">
</g>
</svg>
