<?xml version="1.0" encoding="utf-8"?>
<!-- Generator: Adobe Illustrator 15.1.0, SVG Export Plug-In . SVG Version: 6.00 Build 0)  -->
<!DOCTYPE svg PUBLIC "-//W3C//DTD SVG 1.1//EN" "http://www.w3.org/Graphics/SVG/1.1/DTD/svg11.dtd">
<svg version="1.1" id="Layer_1" xmlns="http://www.w3.org/2000/svg" xmlns:xlink="http://www.w3.org/1999/xlink" x="0px" y="0px"
	 width="841.89px" height="595.275px" viewBox="0 0 841.89 595.275" enable-background="new 0 0 841.89 595.275"
	 xml:space="preserve">
<path d="M204.979,317.462h-29.804c-1.923,0-3.571-1.549-3.571-3.228v-80.819c0-1.679,1.648-3.228,3.571-3.228h28.018
	c16.069,0,25.271,9.554,25.271,22.464c0,8.779-4.258,14.847-14.284,18.333c11.812,2.453,18.267,11.103,18.267,21.689
	C232.448,308.425,222.696,317.462,204.979,317.462z M199.348,242.969h-11.399v22.593h10.713c8.515,0,13.047-4.777,13.047-11.361
	C211.708,247.229,207.726,242.969,199.348,242.969z M199.897,277.568h-11.949v26.596h14.146c7.829,0,12.91-5.293,12.91-13.427
	C215.005,283.637,209.374,277.568,199.897,277.568z"/>
<path d="M275.532,267.886c-0.549,1.937-2.61,2.711-4.121,2.582c-3.434-0.258-6.18-2.582-8.927-2.582
	c-4.944,0-8.378,5.035-8.378,17.816v28.532c0,1.808-1.511,3.228-3.434,3.228h-8.928c-1.922,0-3.571-1.42-3.571-3.228v-56.29
	c0-1.808,1.648-3.228,3.571-3.228h6.181c1.923,0,3.708,1.291,4.121,3.098l1.236,4.777c3.708-5.164,8.378-8.65,15.383-8.65
	c2.747,0,4.807,0.387,6.318,1.033c2.747,1.162,3.571,2.84,3.021,4.648L275.532,267.886z"/>
<g>
	<path d="M294.007,317.462h-8.927c-1.923,0-3.434-1.42-3.434-3.228v-56.29c0-1.808,1.511-3.228,3.434-3.228h8.927
		c1.923,0,3.434,1.549,3.434,3.356v56.161C297.441,316.042,295.93,317.462,294.007,317.462z"/>
	<path d="M294.007,245.462h-8.927c-1.923,0-3.434-1.42-3.434-3.228v-12.091c0-1.808,1.511-3.228,3.434-3.228h8.927
		c1.923,0,3.434,1.549,3.434,3.356v11.962C297.441,244.042,295.93,245.462,294.007,245.462z"/>
</g>
<path d="M330.921,343.799c-14.146,0-28.156-4.389-28.431-18.978c0-1.808,1.511-3.357,3.434-3.357l8.79,0.259
	c2.061,0,2.884,1.291,3.296,3.099c1.236,5.81,7.417,7.101,13.322,7.101c8.653,0,13.735-3.357,13.735-8.005s-2.061-6.713-9.065-6.713
	h-14.009c-7.554,0-15.932-2.195-15.932-11.104c0-4.261,2.609-7.488,5.769-10.328c-5.769-4.003-9.34-10.329-9.34-18.462
	c0-14.718,10.301-23.11,25.821-23.11c3.021,0,5.631,0.646,8.516,0.646h16.069c2.747,0,3.846,1.291,3.846,3.357v3.873
	c0,2.324-0.824,3.098-2.61,3.356l-3.983,0.646c2.335,3.357,4.258,6.972,4.258,11.232c0,14.201-9.889,23.109-25.958,23.109
	c-2.335,0-4.533-0.258-6.593-0.646c-0.824,0.904-1.511,1.808-1.511,2.97c0,2.323,2.335,2.84,5.494,2.84h12.224
	c13.048,0,21.563,5.681,21.563,17.042C359.625,338.506,343.694,343.799,330.921,343.799z M328.449,265.174
	c-5.631,0-10.164,1.679-10.164,11.749c0,10.587,4.532,12.265,10.164,12.265c5.219,0,10.301-2.065,10.301-12.265
	C338.75,266.982,334.08,265.174,328.449,265.174z"/>
<path d="M408.127,317.462H399.2c-1.923,0-3.434-1.42-3.434-3.228v-41.055c0-4.131-1.785-6.713-6.592-6.713
	c-6.73,0-11.812,5.551-11.812,13.685v34.083c0,1.808-1.511,3.228-3.434,3.228h-8.927c-1.923,0-3.434-1.42-3.434-3.228v-85.209
	c0-1.808,1.511-3.228,3.434-3.228h8.927c1.923,0,3.434,1.42,3.434,3.228v32.405c4.257-4.39,10.163-7.488,17.305-7.488
	c10.301,0,16.893,6.455,16.893,16.138v44.154C411.561,316.042,410.05,317.462,408.127,317.462z"/>
<path d="M451.055,316.688c-2.885,0.903-7.418,1.549-11.676,1.549c-10.85,0-15.244-5.422-15.244-14.847v-37.182h-7.142
	c-1.923,0-3.434-1.42-3.434-3.228v-4.906c0-1.808,1.511-3.356,3.434-3.356h7.142v-13.169c0-2.195,0.687-4.002,2.883-4.519
	l8.654-1.937c2.746-0.646,4.258,0.516,4.258,3.228v16.396h8.24c1.922,0,3.434,1.549,3.434,3.356v4.906
	c0,1.807-1.512,3.228-3.434,3.228h-8.24v33.567c0,3.486,1.646,5.035,4.395,5.035c1.236,0,2.885-0.129,3.982-0.388
	c1.924-0.387,3.297,0.259,3.709,2.195l1.373,6.714C453.664,315.009,452.84,316.171,451.055,316.688z"/>
<path d="M489.096,318.236c-6.867,0-13.049-3.744-15.795-8.908l-1.098,4.906c-0.412,2.065-2.199,3.228-4.258,3.228h-5.906
	c-1.924,0-3.434-1.42-3.434-3.228v-85.209c0-1.808,1.51-3.228,3.434-3.228h8.928c1.922,0,3.434,1.42,3.434,3.228v32.276
	c3.158-4.26,7.965-7.359,14.971-7.359c6.043,0,11.262,2.84,14.283,5.939c5.906,6.068,7.828,14.847,7.828,25.692
	C511.482,311.523,501.318,318.236,489.096,318.236z M491.98,270.597c-1.648-2.711-4.258-4.002-7.967-4.002
	c-6.455,0-10.164,6.068-10.164,19.624c0,13.298,3.572,18.979,10.164,18.979c7.004,0,10.85-4.519,10.85-18.979
	C494.863,278.602,493.902,273.695,491.98,270.597z"/>
<path d="M542.205,318.236c-17.854,0-27.469-12.136-27.469-32.276c0-19.624,9.889-32.018,27.469-32.018s27.469,12.394,27.469,32.018
	C569.674,305.584,560.061,318.236,542.205,318.236z M542.068,266.466c-6.455,0-11.398,4.647-11.398,19.365
	c0,15.105,4.943,19.624,11.398,19.624s11.537-4.519,11.537-19.624C553.605,271.113,548.523,266.466,542.068,266.466z"/>
<path d="M624.943,317.462h-11.537c-2.197,0-3.846-0.903-4.807-2.582l-11.949-20.527l-12.086,20.527
	c-0.961,1.679-2.473,2.582-4.67,2.582H569.73c-1.922,0-3.021-1.679-1.785-3.485l19.777-29.178l-17.717-26.466
	c-1.236-1.808-0.275-3.615,1.648-3.615h11.674c2.197,0,3.57,0.903,4.67,2.711l10.025,17.042l9.889-17.042
	c0.963-1.808,2.473-2.711,4.67-2.711h10.301c1.924,0,2.885,1.807,1.648,3.615l-17.717,25.95l19.914,29.694
	C627.828,315.654,626.867,317.462,624.943,317.462z"/>
<path fill="#2CE0DF" d="M632.553,223.039c-11.068,5.033-22.183,9.23-33.19,12.536l-24.298-39.87
	c8.192-7.913,17.24-15.494,27.013-22.645c4.144,8.587,8.773,17.168,13.94,25.66C621.227,207.257,626.766,215.355,632.553,223.039"/>
<path fill="#2CE0DF" d="M709.059,171.514c-8.2,7.909-17.255,15.488-27.032,22.636c-4.162-8.635-8.811-17.263-14.018-25.807
	c-5.177-8.497-10.694-16.564-16.45-24.218c11.06-5.028,22.17-9.234,33.166-12.542L709.059,171.514z"/>
<path fill="#A7F501" d="M682.023,194.152c5.367,11.146,9.896,22.308,13.531,33.341l-39.451,23.053
	c-8.19-8.374-16.08-17.583-23.551-27.507c8.576-3.894,17.122-8.276,25.573-13.213C666.528,204.918,674.485,199.66,682.023,194.152"
	/>
<path fill="#A7F501" d="M602.077,173.06c-5.378-11.148-9.919-22.315-13.558-33.35l39.512-23.086
	c8.185,8.371,16.062,17.582,23.525,27.5c-8.534,3.885-17.044,8.25-25.449,13.165C617.655,162.226,609.653,167.515,602.077,173.06"/>
<path fill="#01CC00" d="M682.023,194.152c-7.538,5.508-15.495,10.766-23.897,15.673c-8.451,4.938-16.997,9.32-25.573,13.213
	c-5.787-7.683-11.326-15.781-16.534-24.32c-5.169-8.494-9.798-17.072-13.941-25.659c7.576-5.545,15.582-10.831,24.03-15.771
	c8.405-4.913,16.915-9.28,25.451-13.164c5.754,7.656,11.273,15.723,16.446,24.218C673.212,176.884,677.86,185.515,682.023,194.152"
	/>
<g>
	<path d="M637.248,308.971h-2.272v8.335c0,0.196-0.177,0.361-0.384,0.361h-0.929c-0.208,0-0.384-0.165-0.384-0.361v-8.335h-2.273
		c-0.208,0-0.4-0.15-0.4-0.346v-0.737c0-0.196,0.192-0.361,0.4-0.361h6.242c0.209,0,0.369,0.165,0.369,0.361v0.737
		C637.617,308.82,637.457,308.971,637.248,308.971z"/>
	<path d="M647.986,317.667h-1.057c-0.208,0-0.385-0.15-0.4-0.331l-0.32-6.605c-0.016-0.346-0.016-1.639-0.016-2.091
		c-0.08,0.497-0.192,1.534-0.336,2.091l-1.505,5.537c-0.063,0.211-0.224,0.346-0.433,0.346h-1.137c-0.207,0-0.399-0.135-0.447-0.346
		l-1.457-5.537c-0.145-0.57-0.256-1.564-0.352-2.091c0,0.406,0,1.73-0.017,2.091l-0.353,6.59c-0.016,0.196-0.191,0.347-0.384,0.347
		h-1.024c-0.191,0-0.336-0.165-0.32-0.361l0.849-9.433c0.017-0.196,0.224-0.347,0.433-0.347h1.504c0.192,0,0.4,0.136,0.449,0.302
		l1.488,5.987c0.111,0.437,0.176,1.233,0.224,1.775c0.048-0.542,0.112-1.339,0.224-1.775l1.521-5.987
		c0.048-0.182,0.256-0.302,0.447-0.302h1.473c0.209,0,0.4,0.136,0.416,0.347l0.833,9.463
		C648.307,317.517,648.193,317.667,647.986,317.667z"/>
</g>
</svg>
