<?xml version="1.0" encoding="utf-8"?>
<!-- Generator: Adobe Illustrator 17.0.2, SVG Export Plug-In . SVG Version: 6.00 Build 0)  -->
<!DOCTYPE svg PUBLIC "-//W3C//DTD SVG 1.1//EN" "http://www.w3.org/Graphics/SVG/1.1/DTD/svg11.dtd">
<svg version="1.1" id="Layer_1" xmlns="http://www.w3.org/2000/svg" xmlns:xlink="http://www.w3.org/1999/xlink" x="0px" y="0px"
	 width="389px" height="114px" viewBox="0 0 389 114" enable-background="new 0 0 389 114" xml:space="preserve">
<g id="BK">
</g>
<g id="Comp">
	<path fill="#5E2750" d="M359.648,9.319c-5.21,0.02-10.109,2.051-13.794,5.742c-3.703,3.698-5.742,8.619-5.742,13.851
		s2.039,10.153,5.74,13.851c1.045,1.046,2.41,1.566,3.78,1.566c1.368,0,2.734-0.52,3.778-1.566c2.089-2.085,2.089-5.467,0-7.55
		c-1.679-1.69-2.608-3.929-2.608-6.301c0-2.38,0.929-4.611,2.61-6.299c1.675-1.672,3.9-2.605,6.272-2.607
		c2.95-0.012,5.334-2.415,5.328-5.364C365.003,11.692,362.614,9.339,359.648,9.319z M352.159,36.461c1.389,1.39,1.389,3.649,0,5.034
		c-1.392,1.398-3.649,1.398-5.042,0c-1.39-1.385-1.39-3.644,0-5.034C348.51,35.07,350.767,35.07,352.159,36.461z M380.193,48.739
		c-0.089,0.101-0.179,0.21-0.278,0.304l-34.039,34.03c-1.04,1.046-2.41,1.569-3.779,1.569c-1.367,0-2.734-0.522-3.778-1.569
		c-2.089-2.083-2.089-5.467,0-7.556l18.281-18.28c-1.9-0.203-3.76-0.601-5.555-1.162l-16.088,16.08
		c-1.043,1.044-2.412,1.566-3.78,1.566s-2.735-0.522-3.778-1.566c-2.086-2.085-2.086-5.467,0-7.553l13.921-13.916
		c-0.606-0.522-1.196-1.057-1.767-1.623c-0.564-0.559-1.09-1.148-1.596-1.739L324.034,61.24c-1.042,1.047-2.408,1.561-3.78,1.561
		c-1.364,0-2.733-0.514-3.78-1.561c-2.085-2.088-2.085-5.475,0-7.558l16.097-16.088c-0.579-1.821-0.971-3.674-1.175-5.554
		l-18.285,18.28c-1.042,1.039-2.41,1.569-3.778,1.569c-1.37,0-2.736-0.53-3.781-1.569c-2.087-2.083-2.087-5.467,0-7.558
		l33.813-33.801c0.063-0.065,0.122-0.134,0.186-0.198l7.302-7.301c-4.789-1.284-9.775-1.962-14.867-1.962
		c-15.229,0-29.546,5.925-40.317,16.697c-22.228,22.223-22.228,58.383-0.001,80.606c10.772,10.772,25.089,16.697,40.318,16.697
		s29.547-5.925,40.312-16.697C383.071,86.044,389,71.727,389,56.5c0-5.032-0.663-9.965-1.917-14.708L380.193,48.739z M294.092,58.87
		c2.783-2.783,7.295-2.783,10.075,0c2.784,2.783,2.784,7.293,0,10.076c-2.781,2.783-7.292,2.783-10.075,0
		C291.308,66.163,291.308,61.653,294.092,58.87z M309.517,94.218c-2.783,2.783-7.294,2.783-10.079,0
		c-2.781-2.783-2.786-7.293-0.002-10.076c2.787-2.783,7.298-2.783,10.081,0C312.3,86.925,312.3,91.435,309.517,94.218z
		 M332.11,91.734c-2.783,2.785-7.292,2.785-10.08,0c-2.779-2.781-2.783-7.293,0-10.074c2.788-2.785,7.296-2.783,10.081,0
		C334.894,84.441,334.894,88.953,332.11,91.734z"/>
	<path fill="#888888" d="M189.521,61.97c1.393,1.392,3.214,2.086,5.038,2.086c1.823,0,3.646-0.695,5.036-2.086l12.734-12.734v24.566
		h-35.625v-24.65L189.521,61.97z M223.025,6.652c-2.205-1.277-4.923-1.279-7.129-0.007s-3.567,3.626-3.567,6.173v21.576
		l-12.734-12.732c-2.78-2.782-7.29-2.782-10.074,0L176.703,34.48V12.801c0-2.547-1.359-4.899-3.564-6.173
		c-2.205-1.271-4.922-1.271-7.126,0.004C148.428,16.801,137.5,35.716,137.5,55.996c0,31.431,25.572,57.004,57.001,57.004
		S251.5,87.427,251.5,55.996C251.5,35.735,240.59,16.827,223.025,6.652"/>
	<path fill="#2C001E" d="M57-0.5C25.57-0.5,0,25.07,0,56.499S25.57,113.5,57,113.5s57-25.572,57-57.001S88.43-0.5,57-0.5z
		 M83.715,72.496H30.287c-8.854,0-16.031-7.177-16.031-16.029c0-8.522,6.647-15.484,15.037-15.999
		c-3.75-7.522-1.043-16.761,6.336-21.022c7.379-4.259,16.732-1.985,21.372,5.025c4.641-7.009,13.993-9.283,21.373-5.023
		c7.378,4.26,10.084,13.498,6.334,21.021c8.392,0.515,15.037,7.477,15.037,15.999C99.745,65.32,92.568,72.496,83.715,72.496z
		 M39.188,49.691c0,1.968-1.595,3.562-3.562,3.562s-3.562-1.595-3.562-3.562s1.595-3.562,3.562-3.562
		C37.593,46.128,39.188,47.724,39.188,49.691z M49.876,49.691c0,1.968-1.595,3.562-3.562,3.562c-1.968,0-3.562-1.595-3.562-3.562
		s1.595-3.562,3.562-3.562S49.876,47.724,49.876,49.691z M60.562,49.691c0,1.968-1.595,3.562-3.562,3.562s-3.562-1.595-3.562-3.562
		s1.595-3.562,3.562-3.562S60.562,47.724,60.562,49.691z M71.25,49.691c0,1.968-1.595,3.562-3.563,3.562
		c-1.967,0-3.562-1.595-3.562-3.562s1.596-3.562,3.562-3.562C69.655,46.128,71.25,47.724,71.25,49.691z M81.937,49.691
		c0,1.968-1.595,3.562-3.563,3.562c-1.967,0-3.562-1.595-3.562-3.562s1.596-3.562,3.562-3.562
		C80.343,46.128,81.937,47.724,81.937,49.691z M39.188,60.379c0,1.967-1.595,3.562-3.562,3.562s-3.562-1.596-3.562-3.562
		c0-1.968,1.595-3.562,3.562-3.562C37.593,56.816,39.188,58.411,39.188,60.379z M46.313,63.941c-1.968,0-3.562-1.596-3.562-3.562
		c0-1.968,1.595-3.562,3.562-3.562h21.374c1.969,0,3.563,1.595,3.563,3.562s-1.595,3.562-3.563,3.562H46.313z M81.937,60.379
		c0,1.967-1.595,3.562-3.563,3.562c-1.967,0-3.562-1.596-3.562-3.562c0-1.968,1.596-3.562,3.562-3.562
		C80.343,56.816,81.937,58.411,81.937,60.379z"/>
</g>
<g id="Grid" display="none">
</g>
</svg>
