<?xml version="1.0" encoding="utf-8"?>
<!-- Generator: Adobe Illustrator 18.1.1, SVG Export Plug-In . SVG Version: 6.00 Build 0)  -->
<!DOCTYPE svg PUBLIC "-//W3C//DTD SVG 1.1//EN" "http://www.w3.org/Graphics/SVG/1.1/DTD/svg11.dtd">
<svg version="1.1" id="Comp" xmlns="http://www.w3.org/2000/svg" xmlns:xlink="http://www.w3.org/1999/xlink" x="0px" y="0px"
	 width="124.971px" height="34px" viewBox="0 0 124.971 34" enable-background="new 0 0 124.971 34" xml:space="preserve">
<g>
	<path id="path3018_3_" fill-rule="evenodd" clip-rule="evenodd" fill="#DD4814" d="M0,17.023C0,7.612,7.612,0,17.023,0
		c9.365,0,17.023,7.612,17.023,17.023C34.046,26.388,26.388,34,17.023,34C7.612,34,0,26.388,0,17.023z M7.473,13.978l1.707,1.384
		l7.059-5.951c0.646-0.507,1.476-0.784,2.353-0.784c0.876,0,1.707,0.323,2.399,0.831l8.904,7.243v1.661l-7.889-6.366
		c-0.6-0.462-1.292-0.692-2.076-0.692c-0.784,0-1.522,0.277-2.122,0.738l-0.092,0.046l-0.046,0.046
		c-0.738,0.646-4.383,3.691-6.228,5.213h0.046c0.369,0.6,1.338,0.692,2.214,0.184c0,0,0,0,0.046,0
		c1.984-1.707,3.783-3.229,3.968-3.414c0.554-0.461,1.246-0.784,1.984-0.784c0.738,0,1.384,0.277,1.891,0.692l5.675,4.613
		l1.661,1.384l0.969,0.784l-0.184,0.046l0.184,0.185c0,0-7.52,6.412-9.411,8.027c-0.923,0.969-2.261,1.568-3.737,1.568
		c-1.338,0-2.63-0.507-3.552-1.383l-9.365-7.612v-2.353l9.319,7.566c0.646,0.462,1.384,0.738,2.26,0.738
		c0.877,0,1.707-0.323,2.353-0.831c0.369-0.323,5.997-5.121,8.534-7.243l-1.661-1.384l-7.104,5.997
		c-0.692,0.461-1.476,0.738-2.353,0.738c-0.923,0-1.753-0.277-2.445-0.831l-8.904-7.243v-1.661l7.935,6.413
		c0.554,0.415,1.246,0.692,2.03,0.692c0.83,0,1.568-0.277,2.122-0.738l0.092-0.092l0.046-0.046c0.784-0.646,4.383-3.644,6.228-5.213
		h-0.046v-0.046l-0.461-0.323c-0.462-0.231-1.107-0.138-1.707,0.185c-0.046,0-0.046,0.046-0.046,0
		c-1.984,1.707-3.829,3.229-4.014,3.414c-0.507,0.507-1.246,0.784-1.984,0.784c-0.692,0-1.338-0.231-1.892-0.646l-5.628-4.706
		l-0.046,0.046l-1.615-1.338L4.383,13.01l-0.554-0.462h0.092l-0.092-0.092c0,0,7.52-6.412,9.411-8.027
		c0.969-0.969,2.261-1.569,3.737-1.569c1.384,0,2.63,0.554,3.552,1.384l9.365,7.658v2.353l-9.318-7.612
		c-0.646-0.461-1.384-0.738-2.215-0.738c-0.923,0-1.753,0.323-2.399,0.83C15.593,7.058,10.011,11.856,7.473,13.978"/>
	<path id="path3020_3_" fill="#DD4814" d="M120.082,6.459c-0.093-0.6-0.369-1.338-0.877-2.261l1.108-0.323
		c0.461,0.738,0.738,1.569,0.876,2.584h3.783v1.153h-9.319V6.459L120.082,6.459L120.082,6.459L120.082,6.459z M105.919,7.612
		c-0.277-0.138-1.2-0.646-2.445-1.107l0.738-0.6c0.461,0.138,0.738,0.092,1.43,0.415c0.277-0.046,0.692-0.461,1.199-0.877
		l-0.046-0.092h-4.89V4.336h6.413l0.369,0.784c-0.923,0.738-1.707,1.246-2.03,1.707l0.554,0.369l-0.784,0.415h3.183l-0.046,6.966
		c0,0.461-0.369,0.692-0.692,0.877c-0.277,0.184-0.6,0.415-1.2,0.369c0.138-0.138-0.092-0.508-0.507-1.107
		c0.369,0.046,0.461,0.046,0.692,0.046c0.462,0,0.369,0,0.415-0.046c0.092-0.092,0.138-0.184,0.138-0.369v-1.246h-2.26v2.307
		l-1.108,0.185v-2.491h-2.491v2.491h-1.153V7.612H105.919L105.919,7.612z M116.621,17.069v-4.06h7.612v4.06H116.621z
		 M124.187,10.795v1.153h-7.566v-1.153H124.187z M124.187,8.765v1.153h-7.566V8.765H124.187z M113.853,9.319h-0.046
		c-0.507,0.692-0.784,1.384-1.43,2.491l-0.831-1.384c1.43-1.568,2.353-3.552,3.276-6.505l1.568,0.877
		c-0.092,0.323-0.231,0.046-0.645,0.554c0,0-0.6,1.43-0.692,2.03c0,0.877,0,10.242,0,10.242h-1.2V9.319z M123.126,14.024h-5.444
		l0.046,1.845h5.397V14.024z M108.41,12.179v-1.153h-2.26v1.153H108.41z M102.551,12.179h2.491v-1.153h-2.491V12.179z
		 M105.042,9.872V8.719h-2.491v1.153H105.042z M108.41,9.872V8.719h-2.26v1.153H108.41z M97.753,5.259l1.061-0.738
		c0.692,0.83,1.338,1.476,1.938,2.399l-1.015,0.692C99.091,6.597,98.583,5.951,97.753,5.259z M97.799,17.53l-1.061-0.969
		c0.461-0.369,0.6-0.784,1.891-1.845V9.872h-1.661V8.811h2.814v5.997c0.553,0.6,1.199,1.015,1.937,1.246
		c0.738,0.231,2.584,0.323,4.521,0.323c0.415,0,1.338-0.092,1.753-0.138l2.86-0.092c-0.461,0.415-0.461,0.877-0.554,1.338
		l-6.274,0.092c-0.969,0-2.26-0.231-2.906-0.415c-0.692-0.231-1.292-0.784-1.891-1.43C98.952,15.916,97.984,17.115,97.799,17.53
		L97.799,17.53z M90.141,12.456c0.231-1.015,0.415-1.891,0.415-2.584V8.534h-2.261V7.381h2.261L90.51,3.829l1.477,0.231
		c0.553,0,0.231,0.277-0.093,0.461v2.86h3.276c-0.323,5.075-0.507,8.35-0.554,8.95c-0.092,0.646-0.692,1.199-1.384,1.199
		c-0.138,0-0.507,0.046-1.153-0.046c0.046-0.646-0.415-1.061-0.554-1.43c0.185,0,0.738,0.092,1.061,0.138
		c0.646,0.046,0.692-0.277,0.784-0.83c0.138-0.508,0.184-1.338,0.277-2.722c0.046-1.338,0.092-2.86,0.184-4.152l-2.076,0.046
		c0,2.676-0.369,4.844-1.199,6.228c-0.738,1.338-1.569,2.353-3.045,3.229l-1.476-1.015c0.922-0.231,1.937-0.877,2.445-1.43
		C88.48,15.547,89.68,14.301,90.141,12.456z M87.004,15.408c-0.138-0.323-0.184-0.507-0.323-0.784
		c-2.03,0.554-2.214,0.507-3.368,0.923L82.806,16.1l-0.923-1.661c0.138-0.138,0.554-0.138,0.692-0.323
		c0.323-0.369,0.369-0.6,0.554-1.338c0.138-0.923,0.461-1.984,0.6-2.953h-1.799V8.673h6.09v1.153h-3.091
		c-0.415,1.799-0.923,4.429-0.923,4.429l2.399-0.6c-0.092-0.138-0.276-1.338-0.645-2.076l1.015-0.369
		c0.369,0.923,1.199,2.722,1.522,3.829L87.004,15.408L87.004,15.408z M82.391,6.643V5.536h5.305v1.107H82.391z M66.936,8.258h2.445
		V6.459c-0.369,0.046-0.923,0.138-1.753,0.277l-0.692-1.061c2.122-0.231,3.506-0.646,4.659-1.246l0.923,1.061
		c-0.784,0.369-1.476,0.507-1.938,0.646v2.122h1.938v1.107H70.58v0.83l0.184-0.138c0.231,0.277,1.153,1.107,1.753,1.938
		l-0.692,0.923c-0.507-0.738-0.83-1.522-1.246-1.799v6.874h-1.2v-6.228h-0.046c-0.323,0.738-0.877,1.615-1.661,2.537
		c-0.092,0.092-0.184,0.553-0.277,0.646l-0.876-1.153c1.384-1.43,2.214-2.86,2.768-4.014c0.046-0.138,0.046-0.231,0.046-0.415
		h-2.399L66.936,8.258L66.936,8.258z M75.609,5.628h3.968l0.323,0.369c-0.092,0.323-0.138,0.415-0.138,0.6
		c-0.83,2.445-3.229,3.921-6.782,5.029l-0.231-0.6l-0.554-0.508c1.43-0.185,2.445-0.6,3.322-1.061
		c-0.092-0.507-0.554-0.877-1.246-1.153l0.83-0.692c0.507,0.277,1.015,0.738,1.384,1.338c0.969-0.738,1.661-1.43,2.076-2.168h-3.46
		c-0.784,0.738-1.061,1.246-1.661,1.984L72.38,8.119c1.061-1.061,1.845-2.26,2.537-3.645c0,0-0.046-0.738,0.553-0.415
		c0.6,0.277,1.061,0.507,1.061,0.507c0,0.231-0.323,0.185-0.461,0.415C75.932,5.167,75.655,5.582,75.609,5.628L75.609,5.628z
		 M76.808,11.487h3.691c-0.323,1.707-1.199,3.229-2.676,4.521c-1.938,1.615-2.722,1.476-5.213,1.984
		c-0.507,0.046-0.185-0.784-0.784-1.246c2.307-0.138,3.275-0.323,4.383-1.061c-0.277-0.507-0.784-0.83-1.384-1.292l0.83-0.738
		c0.461,0.185,1.061,0.83,1.43,1.522c1.153-1.107,1.43-1.661,1.938-2.722h-3.045c-0.877,0.784-1.615,1.384-2.86,2.076l-0.277-0.369
		l-0.738-0.461c1.107-0.323,3.737-2.168,4.567-3.691l1.292,0.184c0.138,0.277-0.185,0.323-0.507,0.415L76.808,11.487L76.808,11.487z
		 M59.186,13.932h3.506v1.061H54.71v-1.061h3.322v-2.676h-2.676v-1.061h2.676V8.534h-3.137V7.473h7.566v1.061h-3.275v1.661h2.906
		v1.061h-2.906V13.932z M63.476,6.043h-9.504v10.334h9.504V6.043z M52.773,17.577V4.89h11.81v12.687H52.773z M59.831,12.041
		l0.692-0.461c0.923,0.554,1.338,0.83,1.753,1.476l-0.923,0.553C60.754,12.779,60.523,12.41,59.831,12.041z M45.53,12.825h3.829
		V8.119H45.53V12.825z M40.502,13.886h-1.246v-6.92h5.075V5.028c0,0-0.646-1.061-0.138-0.969c0.877,0.185,1.061,0.138,1.476,0.277
		c0.323,0.046-0.138,0.692-0.138,0.692v1.938h5.075v6.92H45.53l0.046,4.429h-1.292l0.046-4.429H40.502z M40.455,12.825h3.875V8.119
		h-3.875V12.825z M124.51,30.033v-1.2h-4.521v-2.722h4.521v-1.199h-4.521v-2.63h4.521v-1.2h-5.813v8.95H124.51z M118.282,30.033
		v-1.2h-3.922v-7.75h-1.292v8.95L118.282,30.033z M111.823,30.033v-8.95h-1.338v8.95H111.823z M103.842,26.019h2.537
		c0.461,0,1.061,0,1.476,0.554c0.185,0.231,0.323,0.553,0.323,0.876c0,0.461-0.323,1.384-1.615,1.384h-2.722V26.019z
		 M102.504,30.033h4.014c2.445,0,2.953-1.707,2.953-2.584c0-1.384-0.969-1.984-1.338-2.168c0.323-0.277,0.831-0.738,0.831-1.707
		c0-0.646-0.277-2.491-2.814-2.491h-3.645L102.504,30.033L102.504,30.033z M103.842,22.282h2.307c0.277,0,1.476,0,1.476,1.292
		c0,0.507-0.184,1.246-1.43,1.246h-2.353V22.282z M100.382,25.604c0,1.384-1.061,3.414-3.368,3.414c-2.26,0-3.322-1.984-3.322-3.46
		c0-1.43,1.061-3.414,3.322-3.414C99.275,22.144,100.382,24.035,100.382,25.604z M101.674,25.604c0-2.584-1.984-4.659-4.66-4.659
		c-2.722,0-4.613,2.214-4.613,4.613c0,2.445,1.984,4.613,4.613,4.613C99.69,30.171,101.674,28.003,101.674,25.604z M91.525,30.033
		v-8.95h-1.568l-3.229,6.874l-3.414-6.874h-1.522v8.95h1.292v-6.735l3.045,6.735h1.061l2.998-6.735h0.046v6.735H91.525
		L91.525,30.033z M78.054,30.033l-4.014-8.95h-1.292l-4.06,8.95h1.522l1.153-2.63h4.014l1.153,2.63H78.054z M71.918,26.203
		l1.43-3.414h0.046l1.476,3.414H71.918z M68.458,30.033v-8.95h-1.384v6.828h-0.046l-5.49-6.828h-1.246v8.95h1.384v-6.92h0.046
		l5.49,6.92H68.458z M58.77,30.033v-8.95h-1.292v8.95H58.77z M56.141,30.033v-8.95h-1.338v3.645h-5.075v-3.645h-1.292v8.95h1.292
		v-4.29h5.075v4.29L56.141,30.033z M47.883,23.389c-0.231-0.415-0.554-1.015-1.384-1.569c-0.969-0.738-2.03-0.877-2.722-0.877
		c-2.491,0-4.567,1.984-4.567,4.567c0,2.537,2.03,4.659,4.567,4.659c1.384,0,3.045-0.6,4.06-2.353h-1.615
		c-0.6,0.738-1.476,1.2-2.445,1.2c-1.753,0-3.275-1.569-3.275-3.46c0-1.891,1.476-3.414,3.321-3.414c1.43,0,2.214,0.923,2.491,1.246
		H47.883"/>
</g>
</svg>
