<?xml version="1.0" encoding="utf-8"?>
<!-- Generator: Adobe Illustrator 17.0.2, SVG Export Plug-In . SVG Version: 6.00 Build 0)  -->
<!DOCTYPE svg PUBLIC "-//W3C//DTD SVG 1.1//EN" "http://www.w3.org/Graphics/SVG/1.1/DTD/svg11.dtd">
<svg version="1.1" xmlns="http://www.w3.org/2000/svg" xmlns:xlink="http://www.w3.org/1999/xlink" x="0px" y="0px" width="288px"
	 height="186px" viewBox="0 0 288 186" enable-background="new 0 0 288 186" xml:space="preserve">
<g id="BK">
</g>
<g id="Comp">
	<path fill-rule="evenodd" clip-rule="evenodd" fill="#DD4814" d="M233.994,185.978H54.003C24.185,185.978,0,161.796,0,131.972
		c0-28.707,22.394-52.163,50.657-53.895c-12.635-25.342-3.517-56.46,21.346-70.813C96.855-7.085,128.37,0.573,144,24.19
		c15.633-23.61,47.141-31.275,72-16.924c24.855,14.354,33.97,45.472,21.343,70.814C265.606,79.816,288,103.269,288,131.976
		C288.003,161.796,263.818,185.978,233.994,185.978z M72.241,158.012c-14.91,0-27-12.091-27-27.001
		c0-14.357,11.196-26.086,25.32-26.952c-6.309-12.67-1.75-28.232,10.68-35.406c12.422-7.176,28.178-3.345,36,8.455
		c7.807-11.8,23.57-15.635,36-8.455c12.428,7.174,16.984,22.736,10.668,35.406c14.131,0.866,25.324,12.595,25.324,26.952
		c0,14.91-12.083,27.001-26.997,27.001H72.241z"/>
</g>
<g id="Grid" display="none">
</g>
</svg>
