<?xml version="1.0" encoding="utf-8"?>
<!-- Generator: Adobe Illustrator 17.0.2, SVG Export Plug-In . SVG Version: 6.00 Build 0)  -->
<!DOCTYPE svg PUBLIC "-//W3C//DTD SVG 1.1//EN" "http://www.w3.org/Graphics/SVG/1.1/DTD/svg11.dtd">
<svg version="1.1" id="Layer_1" xmlns="http://www.w3.org/2000/svg" xmlns:xlink="http://www.w3.org/1999/xlink" x="0px" y="0px"
	 width="330px" height="334px" viewBox="0 0 330 334" enable-background="new 0 0 330 334" xml:space="preserve">
<g id="BK">
</g>
<g id="Comp">
	<g>
		<g>
			<g>
				<g id="layer2_1_" display="none">
					<g id="g4394_1_" transform="translate(-340.00001,-581)" display="inline">
						<g id="g855_1_">
							<g id="g870_1_" opacity="0.6">
								<path id="path844_19_" d="M361,743c0,9.941-8.059,18-18,18s-18-8.059-18-18s8.059-18,18-18S361,733.059,361,743z"/>
							</g>
							<g id="g862_1_">
								<path id="path4398_1_" fill="#EFEFEF" d="M361,742c0,9.941-8.059,18-18,18s-18-8.059-18-18s8.059-18,18-18
									S361,732.059,361,742z"/>
								<path id="path4400_1_" fill="#D74814" d="M358,742c0,8.284-6.716,15-15,15s-15-6.716-15-15s6.716-15,15-15
									S358,733.716,358,742z"/>
								<path id="path4459_1_" fill="#EFEFEF" d="M349.511,750.909c-0.554,0.406-5.793-2.283-6.48-2.281s-5.908,2.724-6.465,2.322
									s0.382-6.215,0.167-6.867c-0.214-0.653-4.416-4.777-4.206-5.431c0.21-0.654,6.028-1.558,6.583-1.963
									c0.554-0.406,3.179-5.676,3.866-5.679c0.687-0.002,3.344,5.252,3.901,5.654s6.381,1.269,6.595,1.922
									s-3.962,4.804-4.172,5.458C349.09,744.697,350.065,750.504,349.511,750.909z"/>
							</g>
						</g>
					</g>
				</g>
			</g>
		</g>
	</g>
	<polyline fill="none" stroke="#B4B4B4" stroke-miterlimit="10" points="297.59,137.988 47.41,128.19 272.483,256.812 179.5,52.191 
		126.516,246.811 317.459,137.554 	"/>
	<polygon fill="none" stroke="#B4B4B4" stroke-miterlimit="10" points="47.41,127.988 106.516,246.811 272.483,276.812 
		297.59,137.988 179.5,42.191 	"/>
	<path fill="#FFFFFF" d="M307.476,168.411c-16.805,5.461-34.852-3.734-40.312-20.537c-5.46-16.805,3.735-34.853,20.54-40.309
		c16.804-5.463,34.851,3.734,40.312,20.536C333.475,144.908,324.279,162.954,307.476,168.411z"/>
	<path fill="#888888" d="M318.801,116.773c-5.665-5.664-13.198-8.786-21.211-8.786c-8.014,0-15.547,3.122-21.213,8.786
		c-5.667,5.667-8.787,13.2-8.787,21.215c0,8.014,3.12,15.549,8.787,21.213c5.668,5.666,13.2,8.788,21.214,8.788
		c8.013,0,15.546-3.122,21.211-8.788c5.667-5.664,8.789-13.198,8.789-21.213C327.59,129.971,324.469,122.438,318.801,116.773z
		 M315.59,158.989c0,0.413-0.336,0.748-0.749,0.748H280.34c-0.414,0-0.75-0.335-0.75-0.748v-42.002c0-0.414,0.336-0.748,0.75-0.748
		h34.501c0.413,0,0.749,0.334,0.749,0.748V158.989z M312.591,126.362H282.59v-3.748h30.001V126.362L312.591,126.362z
		 M312.591,133.864H282.59v-3.751h30.001V133.864L312.591,133.864z M312.591,141.363H282.59v-3.751h30.001V141.363L312.591,141.363z
		 M302.089,148.862h-19.5v-3.748h19.5V148.862L302.089,148.862z"/>
	<path fill="#FFFFFF" d="M72.54,222.125c13.633-18.765,39.898-22.925,58.663-9.29c18.761,13.64,22.924,39.899,9.29,58.661
		c-13.634,18.767-39.895,22.923-58.659,9.289C63.067,267.154,58.905,240.886,72.54,222.125z"/>
	<path fill="#FFFFFF" d="M61.932,83.302c24.681,8.016,38.183,34.527,30.166,59.206c-8.025,24.678-34.528,38.19-59.208,30.167
		c-24.685-8.02-38.184-34.527-30.168-59.207C10.743,88.787,37.25,75.275,61.932,83.302z"/>
	<path fill="#77216F" d="M47.409,82.988c-24.811,0-44.999,20.188-44.999,45c0,24.811,20.188,45,44.999,45
		c24.814,0,45.001-20.189,45.001-45C92.41,103.175,72.223,82.988,47.409,82.988z M68.5,140.614H26.32
		c-6.99,0-12.655-5.665-12.655-12.654c0-6.726,5.248-12.223,11.87-12.63c-2.961-5.938-0.823-13.233,5.003-16.596
		c5.825-3.363,13.209-1.566,16.872,3.966c3.665-5.532,11.048-7.329,16.875-3.962c5.824,3.363,7.96,10.653,5,16.596
		c6.625,0.404,11.871,5.9,11.871,12.626C81.156,134.949,75.488,140.614,68.5,140.614z M39.535,136.086l4.735-13.252
		c-2.786-1.216-4.735-3.991-4.735-7.221c0-4.353,3.525-7.875,7.875-7.875c4.349,0,7.875,3.522,7.875,7.875
		c0,3.229-1.948,6.005-4.734,7.221l4.735,13.252H39.535L39.535,136.086z"/>
	<circle fill="#FFFFFF" cx="179.5" cy="42.19" r="42"/>
	<path fill="#DD4814" d="M199.497,7.556C180.37-3.49,155.911,3.064,144.866,22.19c-11.044,19.131-4.492,43.594,14.639,54.634
		c19.128,11.046,43.587,4.49,54.631-14.638C225.179,43.056,218.624,18.597,199.497,7.556z M194.499,60.191c0,3.312-2.682,6-5.998,6
		h-17.998c-3.318,0-6.002-2.688-6.002-6V24.187c0-3.311,2.684-5.998,6.002-5.998h17.998c3.316,0,5.998,2.688,5.998,5.998V60.191
		L194.499,60.191z M186.148,32.438h-13.293c-1.3,0-2.352-1.007-2.352-2.249c0-1.238,1.052-2.251,2.352-2.251h13.293
		c1.295,0,2.353,1.013,2.353,2.251C188.501,31.431,187.443,32.438,186.148,32.438L186.148,32.438z M186.148,26.438h-13.293
		c-1.3,0-2.352-1.004-2.352-2.251c0-1.242,1.052-2.248,2.352-2.248h13.293c1.295,0,2.353,1.006,2.353,2.248
		C188.501,25.434,187.443,26.438,186.148,26.438L186.148,26.438z M186.148,38.438h-13.293c-1.3,0-2.352-1.004-2.352-2.251
		c0-1.242,1.052-2.245,2.352-2.245h13.293c1.295,0,2.353,1.003,2.353,2.245C188.501,37.434,187.443,38.438,186.148,38.438
		L186.148,38.438z M176.498,54.191c0,1.657-1.342,2.998-3,2.998c-1.654,0-2.995-1.341-2.995-2.998c0-1.655,1.341-3.001,2.995-3.001
		C175.156,51.19,176.498,52.536,176.498,54.191z"/>
	<circle fill="#FFFFFF" cx="272.484" cy="276.811" r="57"/>
	<path fill="#DD4814" d="M272.483,221.811c-30.327,0-54.999,24.675-54.999,55c0,30.326,24.672,54.998,54.999,54.998
		c30.329,0,55.001-24.672,55.001-54.998C327.484,246.486,302.812,221.811,272.483,221.811z M298.261,292.246h-51.553
		c-8.542,0-15.469-6.923-15.469-15.465c0-8.225,6.414-14.944,14.51-15.438c-3.62-7.258-1.006-16.176,6.114-20.289
		c7.12-4.104,16.145-1.912,20.622,4.851c4.479-6.763,13.503-8.955,20.623-4.846c7.119,4.113,9.732,13.025,6.112,20.284
		c8.098,0.496,14.509,7.214,14.509,15.438C313.729,285.323,306.803,292.246,298.261,292.246z M255.297,270.241
		c0,1.896-1.539,3.438-3.437,3.438s-3.439-1.542-3.439-3.438c0-1.9,1.54-3.438,3.439-3.438
		C253.758,266.803,255.297,268.34,255.297,270.241z M265.61,270.241c0,1.896-1.539,3.438-3.437,3.438s-3.438-1.542-3.438-3.438
		c0-1.9,1.54-3.438,3.438-3.438C264.071,266.803,265.61,268.34,265.61,270.241z M275.92,270.241c0,1.896-1.537,3.438-3.437,3.438
		c-1.898,0-3.437-1.542-3.437-3.438c0-1.9,1.539-3.438,3.437-3.438C274.383,266.803,275.92,268.34,275.92,270.241z M286.233,270.241
		c0,1.896-1.538,3.438-3.437,3.438c-1.899,0-3.437-1.542-3.437-3.438c0-1.9,1.538-3.438,3.437-3.438S286.233,268.34,286.233,270.241
		z M296.546,270.241c0,1.896-1.539,3.438-3.438,3.438c-1.897,0-3.437-1.542-3.437-3.438c0-1.9,1.54-3.438,3.437-3.438
		C295.008,266.803,296.546,268.34,296.546,270.241z M255.297,280.551c0,1.898-1.539,3.438-3.437,3.438s-3.439-1.539-3.439-3.438
		c0-1.898,1.54-3.435,3.439-3.435C253.758,277.117,255.297,278.653,255.297,280.551z M262.172,283.989
		c-1.898,0-3.438-1.539-3.438-3.438c0-1.898,1.54-3.435,3.438-3.435h20.624c1.9,0,3.439,1.536,3.439,3.435
		c0,1.898-1.538,3.438-3.439,3.438H262.172z M296.546,280.551c0,1.898-1.539,3.438-3.438,3.438c-1.897,0-3.437-1.539-3.437-3.438
		c0-1.898,1.54-3.435,3.437-3.435C295.008,277.117,296.546,278.653,296.546,280.551z"/>
	<path fill="#333333" d="M106.516,206.81c-22.093,0-40.001,17.911-40.001,40.002c0,22.088,17.909,39.998,40.001,39.998
		s39.999-17.91,39.999-39.998C146.516,224.721,128.609,206.81,106.516,206.81z M121.9,270.996c-0.581,0.287-1.202,0.422-1.812,0.422
		c-1.514,0-2.968-0.841-3.685-2.287l-9.422-19.107L96.366,268.01h8.742c1.511,0,2.736,1.223,2.736,2.733
		c0,1.511-1.225,2.735-2.736,2.735H91.576c-0.981,0-1.889-0.523-2.375-1.379c-0.487-0.851-0.478-1.898,0.019-2.747l14.871-25.192
		l-8.922-18.092c-1.002-2.035-0.165-4.494,1.869-5.494c2.03-1.005,4.49-0.17,5.494,1.864l21.232,43.061
		C124.768,267.535,123.933,269.995,121.9,270.996z"/>
</g>
<g id="Grid" display="none">
</g>
<g id="Labels">
</g>
</svg>
