<?xml version="1.0" encoding="utf-8"?>
<!-- Generator: Adobe Illustrator 18.1.1, SVG Export Plug-In . SVG Version: 6.00 Build 0)  -->
<svg version="1.1" id="Layer_1" xmlns="http://www.w3.org/2000/svg" xmlns:xlink="http://www.w3.org/1999/xlink" x="0px" y="0px"
	 width="160px" height="160px" viewBox="-131.7 182.9 160 160" enable-background="new -131.7 182.9 160 160" xml:space="preserve">
<g id="BK">
</g>
<g>
	<g>
		<g id="Comp">
			<polygon fill="none" points="-109.7,212.8 936,345.9 936,692.9 -48,692.9 			"/>
			<g>
				<g>
					<defs>
						<polygon id="SVGID_1_" points="-337.7,212.8 1102.3,212.8 1164,1245.9 -276,1245.9 						"/>
					</defs>
					<clipPath id="SVGID_2_">
						<use xlink:href="#SVGID_1_"  overflow="visible"/>
					</clipPath>
				</g>
			</g>
			<path fill="none" stroke="#888888" stroke-miterlimit="10" d="M-51.7,262.9"/>
			<circle fill="#FFFFFF" cx="-51.7" cy="262.9" r="82"/>
			<circle fill="#888888" cx="-51.7" cy="262.9" r="80"/>
			<path fill="#FFFFFF" d="M-8.9,299.5l-29.8-40.4v-33.9l8-8.3h-42l8,8.3v33.9l-30.8,40.4c-2.8,4.6-0.6,8.4,4.7,8.4h77.1
				C-8.2,307.9-6.1,304.1-8.9,299.5z"/>
			<g>
				<path fill="#888888" d="M-81.7,299.9c-2.2,0-2.9-1.4-1.6-3.2l24.2-31.7c1.3-1.8,2.4-5,2.4-7.2v-13.9c0-2.2,1.8-4,4-4h2
					c2.2,0,4,1.8,4,4v13.8c0,2.2,1.1,5.4,2.4,7.2l23.4,31.7c1.3,1.8,0.6,3.2-1.6,3.2H-81.7z"/>
			</g>
			<g>
				<circle fill="#FFFFFF" cx="-37.7" cy="199.9" r="7"/>
			</g>
			<path fill="#888888" d="M-11.7,184.9"/>
		</g>
		<g id="Grid" display="none">
			<g id="Grid_1_" display="inline">
			</g>
		</g>
		<g id="Labels">
		</g>
	</g>
</g>
</svg>
