<?xml version="1.0" encoding="utf-8"?>
<!-- Generator: Adobe Illustrator 17.0.2, SVG Export Plug-In . SVG Version: 6.00 Build 0)  -->
<!DOCTYPE svg PUBLIC "-//W3C//DTD SVG 1.1//EN" "http://www.w3.org/Graphics/SVG/1.1/DTD/svg11.dtd">
<svg version="1.1" id="Layer_1" xmlns="http://www.w3.org/2000/svg" xmlns:xlink="http://www.w3.org/1999/xlink" x="0px" y="0px"
	 width="349px" height="257px" viewBox="0 0 349 257" enable-background="new 0 0 349 257" xml:space="preserve">
<symbol  id="Grid_2_" viewBox="-492 -1500 984 3000">
	<polygon opacity="0.2" fill="#3081FF" enable-background="new    " points="492,-1500 -492,-1500 -492,1500 492,1500 	"/>
	<polygon opacity="0.8" fill="#3081FF" enable-background="new    " points="-452,-1500 -492,-1500 -492,1500 -452,1500 	"/>
	<polygon opacity="0.8" fill="#3081FF" enable-background="new    " points="492,-1500 452,-1500 452,1500 492,1500 	"/>
	<polygon opacity="0.3" fill="#3081FF" enable-background="new    " points="-395,-1500 -452,-1500 -452,1500 -395,1500 	"/>
	<polygon opacity="0.5" fill="#3081FF" enable-background="new    " points="-318,-1500 -375,-1500 -375,1500 -318,1500 	"/>
	<polygon opacity="0.3" fill="#3081FF" enable-background="new    " points="-241,-1500 -298,-1500 -298,1500 -241,1500 	"/>
	<polygon opacity="0.5" fill="#3081FF" enable-background="new    " points="-164,-1500 -221,-1500 -221,1500 -164,1500 	"/>
	<polygon opacity="0.3" fill="#3081FF" enable-background="new    " points="-87,-1500 -144,-1500 -144,1500 -87,1500 	"/>
	<polygon opacity="0.5" fill="#3081FF" enable-background="new    " points="-10,-1500 -67,-1500 -67,1500 -10,1500 	"/>
	<polygon opacity="0.3" fill="#3081FF" enable-background="new    " points="67,-1500 10,-1500 10,1500 67,1500 	"/>
	<polygon opacity="0.5" fill="#3081FF" enable-background="new    " points="144,-1500 87,-1500 87,1500 144,1500 	"/>
	<polygon opacity="0.3" fill="#3081FF" enable-background="new    " points="221,-1500 164,-1500 164,1500 221,1500 	"/>
	<polygon opacity="0.5" fill="#3081FF" enable-background="new    " points="298,-1500 241,-1500 241,1500 298,1500 	"/>
	<polygon opacity="0.3" fill="#3081FF" enable-background="new    " points="375,-1500 318,-1500 318,1500 375,1500 	"/>
	<polygon opacity="0.5" fill="#3081FF" enable-background="new    " points="452,-1500 395,-1500 395,1500 452,1500 	"/>
</symbol>
<g id="BK">
</g>
<g id="Comp">
	<g>
		<g>
			<defs>
				<rect id="SVGID_1_" x="-858" y="-998" width="984" height="347"/>
			</defs>
			<clipPath id="SVGID_2_">
				<use xlink:href="#SVGID_1_"  overflow="visible"/>
			</clipPath>
		</g>
	</g>
	<g>
		<g>
			<defs>
				<rect id="SVGID_3_" x="-858" y="-311" width="984" height="213"/>
			</defs>
			<clipPath id="SVGID_4_">
				<use xlink:href="#SVGID_3_"  overflow="visible"/>
			</clipPath>
		</g>
	</g>
	<polygon fill="none" stroke="#B4B4B4" stroke-miterlimit="10" points="174,77.75 51,195.25 287,195.25 	"/>
	<circle fill="#FFFFFF" cx="62" cy="194.75" r="62"/>
	<path fill="#DD4814" d="M122,194.75c0,33.134-26.862,60-60,60s-60-26.866-60-60c0-33.137,26.864-60,60-60
		C95.138,134.75,122,161.613,122,194.75z"/>
	<path fill="#FFFFFF" d="M21.202,186.735c-4.426,0-8.011,3.588-8.011,8.015c0,4.423,3.585,8.009,8.011,8.009
		c4.423,0,8.01-3.586,8.01-8.009C29.212,190.323,25.625,186.735,21.202,186.735z"/>
	<path fill="#FFFFFF" d="M78.396,223.145c-3.829,2.213-5.144,7.109-2.93,10.94c2.211,3.83,7.105,5.146,10.938,2.934
		c3.831-2.213,5.145-7.111,2.933-10.943C87.124,222.249,82.227,220.936,78.396,223.145z"/>
	<path fill="#FFFFFF" d="M38.602,194.75c0-7.915,3.932-14.909,9.95-19.145l-5.857-9.811c-7.009,4.686-12.224,11.847-14.391,20.227
		c2.529,2.066,4.147,5.208,4.147,8.73c0,3.516-1.618,6.658-4.147,8.726c2.166,8.384,7.381,15.543,14.391,20.23l5.857-9.814
		C42.534,209.659,38.602,202.669,38.602,194.75z"/>
	<path fill="#FFFFFF" d="M62,171.349c12.225,0,22.253,9.372,23.306,21.325l11.416-0.167c-0.562-8.826-4.417-16.747-10.34-22.57
		c-3.046,1.148-6.564,0.976-9.605-0.781c-3.047-1.758-4.957-4.722-5.479-7.942c-2.961-0.815-6.076-1.26-9.297-1.26
		c-5.537,0-10.774,1.298-15.422,3.6l5.566,9.974C55.14,172.133,58.479,171.349,62,171.349z"/>
	<path fill="#FFFFFF" d="M62,218.148c-3.521,0-6.86-0.783-9.855-2.176l-5.567,9.973c4.65,2.305,9.886,3.607,15.422,3.607
		c3.222,0,6.339-0.449,9.297-1.27c0.522-3.217,2.433-6.181,5.479-7.941c3.043-1.755,6.559-1.93,9.605-0.781
		c5.923-5.824,9.778-13.745,10.34-22.57l-11.42-0.166C84.253,208.778,74.225,218.148,62,218.148z"/>
	<path fill="#FFFFFF" d="M78.395,166.351c3.832,2.209,8.729,0.9,10.939-2.93c2.214-3.833,0.903-8.727-2.93-10.94
		c-3.832-2.214-8.727-0.901-10.941,2.931C73.252,159.242,74.567,164.139,78.395,166.351z"/>
	<circle fill="#FFFFFF" cx="287" cy="194.75" r="62"/>
	<path fill="#D63023" d="M347,194.75c0,33.134-26.863,60-60,60c-33.138,0-60-26.866-60-60c0-33.139,26.864-60,60-60
		C320.137,134.75,347,161.611,347,194.75z"/>
	<path id="rect1227_2_" fill="#FFFFFF" d="M259.987,163.581c-2.302,0-4.156,1.852-4.156,4.155v14.546h12.468v-4.155
		c0-1.15,0.925-2.078,2.078-2.078h33.246c1.149,0,2.078,0.928,2.078,2.078v4.155h12.467v-14.546c0-2.303-1.854-4.155-4.155-4.155
		H259.987z M255.831,186.438v16.624h12.468v-16.624L255.831,186.438L255.831,186.438z M305.701,186.438v16.624h12.467v-16.624
		L305.701,186.438L305.701,186.438z M255.831,207.218v14.547c0,2.3,1.854,4.154,4.156,4.154h54.026c2.301,0,4.155-1.854,4.155-4.154
		v-14.547h-12.467v4.154c0,1.152-0.928,2.078-2.078,2.078h-33.246c-1.153,0-2.078-0.926-2.078-2.078v-4.154H255.831z"/>
	<circle fill="#FFFFFF" cx="174" cy="79.75" r="62"/>
	<circle fill="#888888" cx="174" cy="79.75" r="60"/>
	<path fill="#FFFFFF" d="M206.095,107.226l-22.346-30.311V51.488l6-6.238h-31.5l6,6.238v25.427l-23.092,30.311
		c-2.071,3.451-0.472,6.274,3.552,6.274h57.831C206.564,113.5,208.162,110.677,206.095,107.226z"/>
	<g>
		<path fill="#888888" d="M152.49,107.5c-2.2,0-2.909-1.432-1.576-3.182l16.911-22.197c1.333-1.75,2.424-4.982,2.424-7.182V66.5
			c0-2.2,1.688-4,3.75-4s3.75,1.8,3.75,4v8.387c0,2.2,1.068,5.449,2.373,7.22l16.344,22.174c1.305,1.771,0.573,3.22-1.627,3.22
			H152.49V107.5z"/>
	</g>
	<g>
		<circle fill="#FFFFFF" cx="184.5" cy="32.5" r="5.25"/>
	</g>
	<g>
		<path fill="#888888" d="M204,4.25c3.584,0,6.5,2.916,6.5,6.5s-2.916,6.5-6.5,6.5s-6.5-2.916-6.5-6.5S200.416,4.25,204,4.25
			 M204,0.25c-5.799,0-10.5,4.701-10.5,10.5s4.701,10.5,10.5,10.5s10.5-4.701,10.5-10.5S209.799,0.25,204,0.25L204,0.25z"/>
	</g>
</g>
<g id="Grid" display="none">
	
		<use xlink:href="#Grid_2_"  width="984" height="3000" id="XMLID_2_" x="-492" y="-1500" transform="matrix(1 0 0 -1 -366 502)" display="inline" overflow="visible"/>
	<g id="Grid_1_" display="inline">
	</g>
</g>
<g id="Labels">
</g>
</svg>
