<svg xmlns="http://www.w3.org/2000/svg" width="365" height="236" viewBox="0 0 365 236"><g><path fill="#DD4814" d="M296.555 235.836H68.445c-37.8 0-68.445-30.64-68.445-68.43 0-36.387 28.378-66.112 64.2-68.31C48.188 66.984 59.752 27.534 91.254 9.34c31.502-18.182 71.44-8.476 91.25 21.456C202.316.873 242.243-8.84 273.753 9.35c31.5 18.19 43.06 57.632 27.043 89.748C336.633 101.296 365 131.028 365 167.41c0 37.787-30.65 68.426-68.445 68.426z"/><path fill="#fff" d="M252.5 136c0 38.656-31.34 70-70 70s-70-31.344-70-70c0-38.66 31.34-70 70-70s70 31.34 70 70z"/><path fill="#DD4814" d="M134.902 126.65c-5.164 0-9.346 4.186-9.346 9.35 0 5.16 4.182 9.344 9.346 9.344 5.16 0 9.345-4.184 9.345-9.344 0-5.164-4.185-9.35-9.345-9.35zM201.63 169.128c-4.47 2.582-6.003 8.295-3.42 12.763 2.58 4.47 8.29 6.006 12.76 3.424 4.47-2.582 6.003-8.297 3.423-12.768-2.58-4.464-8.295-5.995-12.764-3.418zM155.202 136c0-9.234 4.587-17.394 11.608-22.336l-6.833-11.446c-8.177 5.467-14.262 13.82-16.79 23.598 2.95 2.41 4.84 6.076 4.84 10.185 0 4.103-1.89 7.77-4.84 10.18 2.527 9.782 8.61 18.135 16.79 23.604l6.833-11.45c-7.02-4.94-11.608-13.095-11.608-22.334zM182.5 108.698c14.262 0 25.96 10.934 27.19 24.88l13.32-.195c-.658-10.297-5.154-19.538-12.065-26.332-3.554 1.34-7.658 1.14-11.206-.91-3.556-2.05-5.784-5.51-6.393-9.267-3.454-.95-7.088-1.47-10.847-1.47-6.46 0-12.57 1.515-17.993 4.2L171 111.238c3.496-1.627 7.392-2.542 11.5-2.542zM182.5 163.297c-4.108 0-8.004-.913-11.498-2.538l-6.495 11.634c5.424 2.688 11.533 4.21 17.993 4.21 3.76 0 7.395-.525 10.847-1.482.61-3.753 2.84-7.21 6.392-9.265 3.55-2.048 7.65-2.252 11.205-.912 6.91-6.795 11.407-16.036 12.064-26.332l-13.325-.193c-1.224 13.946-12.923 24.877-27.185 24.877zM201.627 102.867c4.47 2.577 10.184 1.05 12.762-3.418 2.583-4.473 1.052-10.183-3.42-12.765-4.47-2.583-10.18-1.052-12.764 3.42-2.578 4.47-1.045 10.18 3.42 12.762z"/></g></svg>