<svg xmlns="http://www.w3.org/2000/svg" xmlns:xlink="http://www.w3.org/1999/xlink" width="349" height="257" viewBox="0 0 349 257"><symbol viewBox="-492 -1500 984 3000"><path opacity=".2" fill="#3081FF" enable-background="new" d="M492-1500h-984v3000h984z"/><path opacity=".8" fill="#3081FF" enable-background="new" d="M-452-1500h-40v3000h40zM492-1500h-40v3000h40z"/><path opacity=".3" fill="#3081FF" enable-background="new" d="M-395-1500h-57v3000h57z"/><path opacity=".5" fill="#3081FF" enable-background="new" d="M-318-1500h-57v3000h57z"/><path opacity=".3" fill="#3081FF" enable-background="new" d="M-241-1500h-57v3000h57z"/><path opacity=".5" fill="#3081FF" enable-background="new" d="M-164-1500h-57v3000h57z"/><path opacity=".3" fill="#3081FF" enable-background="new" d="M-87-1500h-57v3000h57z"/><path opacity=".5" fill="#3081FF" enable-background="new" d="M-10-1500h-57v3000h57z"/><path opacity=".3" fill="#3081FF" enable-background="new" d="M67-1500H10v3000h57z"/><path opacity=".5" fill="#3081FF" enable-background="new" d="M144-1500H87v3000h57z"/><path opacity=".3" fill="#3081FF" enable-background="new" d="M221-1500h-57v3000h57z"/><path opacity=".5" fill="#3081FF" enable-background="new" d="M298-1500h-57v3000h57z"/><path opacity=".3" fill="#3081FF" enable-background="new" d="M375-1500h-57v3000h57z"/><path opacity=".5" fill="#3081FF" enable-background="new" d="M452-1500h-57v3000h57z"/></symbol><g><defs><path id="a" d="M-858-998h984v347h-984z"/></defs><clipPath><use xlink:href="#a" overflow="visible"/></clipPath><defs><path id="b" d="M-858-311h984v213h-984z"/></defs><clipPath><use xlink:href="#b" overflow="visible"/></clipPath><path fill="none" stroke="#B4B4B4" stroke-miterlimit="10" d="M174 77.75L51 195.25h236z"/><circle fill="#fff" cx="62" cy="194.75" r="62"/><path fill="#DD4814" d="M122 194.75c0 33.134-26.862 60-60 60s-60-26.866-60-60c0-33.137 26.864-60 60-60 33.138 0 60 26.863 60 60z"/><path fill="#fff" d="M21.202 186.735c-4.426 0-8.01 3.588-8.01 8.015 0 4.423 3.584 8.01 8.01 8.01 4.423 0 8.01-3.587 8.01-8.01 0-4.427-3.587-8.015-8.01-8.015zM78.396 223.145c-3.83 2.213-5.144 7.11-2.93 10.94 2.21 3.83 7.105 5.146 10.938 2.934 3.83-2.214 5.145-7.112 2.933-10.944-2.213-3.827-7.11-5.14-10.94-2.93zM38.602 194.75c0-7.915 3.932-14.91 9.95-19.145l-5.857-9.81c-7.01 4.685-12.224 11.846-14.39 20.226 2.528 2.067 4.146 5.21 4.146 8.73 0 3.517-1.617 6.66-4.146 8.727 2.166 8.384 7.38 15.543 14.39 20.23l5.858-9.814c-6.018-4.234-9.95-11.224-9.95-19.143zM62 171.35c12.225 0 22.253 9.37 23.306 21.324l11.416-.167c-.562-8.826-4.417-16.747-10.34-22.57-3.046 1.148-6.564.976-9.605-.78-3.047-1.76-4.957-4.723-5.48-7.943-2.96-.815-6.075-1.26-9.296-1.26-5.536 0-10.773 1.298-15.42 3.6l5.565 9.974c2.995-1.395 6.334-2.18 9.855-2.18zM62 218.148c-3.52 0-6.86-.783-9.855-2.176l-5.567 9.973c4.65 2.305 9.886 3.607 15.422 3.607 3.222 0 6.34-.45 9.297-1.27.522-3.217 2.433-6.18 5.48-7.94 3.042-1.756 6.558-1.93 9.604-.782 5.924-5.824 9.78-13.745 10.34-22.57l-11.42-.166c-1.047 11.954-11.075 21.324-23.3 21.324zM78.395 166.35c3.832 2.21 8.73.9 10.94-2.93 2.213-3.832.902-8.726-2.93-10.94-3.833-2.213-8.728-.9-10.942 2.932-2.21 3.83-.896 8.727 2.932 10.94z"/><circle fill="#fff" cx="287" cy="194.75" r="62"/><path fill="#D63023" d="M347 194.75c0 33.134-26.863 60-60 60-33.138 0-60-26.866-60-60 0-33.14 26.864-60 60-60 33.137 0 60 26.86 60 60z"/><path fill="#fff" d="M259.987 163.58c-2.302 0-4.156 1.853-4.156 4.156v14.546h12.47v-4.155c0-1.15.924-2.078 2.077-2.078h33.246c1.15 0 2.078.927 2.078 2.077v4.155h12.468v-14.546c0-2.303-1.854-4.155-4.155-4.155h-54.026zm-4.156 22.858v16.624h12.47v-16.624h-12.47zm49.87 0v16.624h12.468v-16.624H305.7zm-49.87 20.78v14.547c0 2.3 1.855 4.154 4.157 4.154h54.026c2.3 0 4.155-1.855 4.155-4.155v-14.547H305.7v4.154c0 1.152-.927 2.078-2.077 2.078h-33.246c-1.153 0-2.078-.926-2.078-2.078v-4.154h-12.47z"/><circle fill="#fff" cx="174" cy="79.75" r="62"/><circle fill="#888" cx="174" cy="79.75" r="60"/><path fill="#fff" d="M206.095 107.226l-22.346-30.31V51.487l6-6.238h-31.5l6 6.238v25.427l-23.093 30.31c-2.07 3.452-.472 6.275 3.552 6.275h57.83c4.024 0 5.622-2.823 3.555-6.274z"/><path fill="#888" d="M152.49 107.5c-2.2 0-2.91-1.432-1.576-3.182l16.91-22.197c1.334-1.75 2.425-4.98 2.425-7.18V66.5c0-2.2 1.687-4 3.75-4s3.75 1.8 3.75 4v8.387c0 2.2 1.067 5.45 2.372 7.22l16.344 22.174c1.305 1.772.573 3.22-1.627 3.22h-42.35z"/><circle fill="#fff" cx="184.5" cy="32.5" r="5.25"/><path fill="#888" d="M204 4.25c3.584 0 6.5 2.916 6.5 6.5s-2.916 6.5-6.5 6.5-6.5-2.916-6.5-6.5 2.916-6.5 6.5-6.5m0-4c-5.8 0-10.5 4.7-10.5 10.5s4.7 10.5 10.5 10.5 10.5-4.7 10.5-10.5S209.8.25 204 .25z"/></g></svg>