<svg xmlns="http://www.w3.org/2000/svg" width="288" height="186" viewBox="0 0 288 186"><path fill-rule="evenodd" clip-rule="evenodd" fill="#DD4814" d="M233.994 185.978H54.004C24.183 185.978 0 161.796 0 131.972c0-28.707 22.394-52.163 50.657-53.895-12.635-25.342-3.517-56.46 21.346-70.813C96.855-7.086 128.37.574 144 24.19 159.633.58 191.14-7.085 216 7.266c24.855 14.354 33.97 45.472 21.343 70.814C265.606 79.816 288 103.27 288 131.976c.003 29.82-24.182 54.002-54.006 54.002zM72.24 158.012c-14.91 0-27-12.09-27-27 0-14.358 11.197-26.087 25.32-26.953-6.308-12.67-1.75-28.233 10.68-35.407 12.423-7.176 28.18-3.345 36 8.455 7.808-11.8 23.57-15.635 36-8.455 12.43 7.174 16.985 22.736 10.67 35.406 14.13.865 25.323 12.594 25.323 26.95 0 14.91-12.083 27.002-26.997 27.002H72.24z"/></svg>