<?xml version="1.0" encoding="utf-8"?>
<!-- Generator: Adobe Illustrator 17.0.2, SVG Export Plug-In . SVG Version: 6.00 Build 0)  -->
<!DOCTYPE svg PUBLIC "-//W3C//DTD SVG 1.1//EN" "http://www.w3.org/Graphics/SVG/1.1/DTD/svg11.dtd">
<svg version="1.1" xmlns="http://www.w3.org/2000/svg" xmlns:xlink="http://www.w3.org/1999/xlink" x="0px" y="0px" width="365px"
	 height="236px" viewBox="0 0 365 236" enable-background="new 0 0 365 236" xml:space="preserve">
<g id="BK">
</g>
<g id="Comp">
	<path fill="#DD4814" d="M296.555,235.836H68.446C30.646,235.836,0,205.197,0,167.405c0-36.386,28.378-66.111,64.2-68.308
		C48.188,66.983,59.752,27.533,91.254,9.34c31.502-18.182,71.439-8.476,91.249,21.456c19.814-29.923,59.742-39.635,91.252-21.447
		c31.5,18.19,43.058,57.633,27.042,89.749C336.633,101.296,365,131.028,365,167.41C365,205.197,334.351,235.836,296.555,235.836z"/>
	<path fill="#FFFFFF" d="M252.5,136c0,38.656-31.339,70-70,70c-38.661,0-70-31.344-70-70c0-38.66,31.341-70,70-70
		C221.161,66,252.5,97.34,252.5,136z"/>
	<path fill="#DD4814" d="M134.902,126.649c-5.164,0-9.346,4.187-9.346,9.351c0,5.16,4.182,9.344,9.346,9.344
		c5.16,0,9.345-4.184,9.345-9.344C144.247,130.836,140.062,126.649,134.902,126.649z"/>
	<path fill="#DD4814" d="M201.629,169.128c-4.468,2.582-6.002,8.295-3.418,12.763c2.578,4.469,8.289,6.005,12.76,3.423
		c4.469-2.582,6.002-8.297,3.422-12.768C211.812,168.082,206.098,166.551,201.629,169.128z"/>
	<path fill="#DD4814" d="M155.202,136c0-9.234,4.587-17.394,11.608-22.336l-6.833-11.446c-8.177,5.467-14.262,13.821-16.79,23.598
		c2.951,2.411,4.839,6.076,4.839,10.185c0,4.102-1.888,7.768-4.839,10.18c2.527,9.781,8.611,18.134,16.79,23.603l6.833-11.45
		C159.79,153.394,155.202,145.239,155.202,136z"/>
	<path fill="#DD4814" d="M182.5,108.698c14.262,0,25.961,10.934,27.19,24.88l13.319-0.195c-0.657-10.297-5.153-19.538-12.064-26.332
		c-3.554,1.339-7.658,1.138-11.206-0.911c-3.555-2.051-5.783-5.509-6.392-9.267c-3.454-0.951-7.088-1.47-10.847-1.47
		c-6.46,0-12.57,1.515-17.993,4.199l6.493,11.637C174.496,109.613,178.392,108.698,182.5,108.698z"/>
	<path fill="#DD4814" d="M182.5,163.297c-4.108,0-8.004-0.913-11.498-2.538l-6.495,11.635c5.424,2.688,11.533,4.209,17.993,4.209
		c3.759,0,7.395-0.524,10.847-1.481c0.609-3.753,2.839-7.211,6.392-9.265c3.55-2.048,7.652-2.252,11.206-0.912
		c6.911-6.795,11.407-16.036,12.064-26.332l-13.324-0.193C208.461,152.366,196.762,163.297,182.5,163.297z"/>
	<path fill="#DD4814" d="M201.627,102.867c4.471,2.577,10.184,1.051,12.762-3.418c2.584-4.472,1.053-10.182-3.418-12.764
		c-4.471-2.583-10.182-1.052-12.765,3.419C195.628,94.574,197.161,100.286,201.627,102.867z"/>
</g>
<g id="Grid" display="none">
</g>
<g id="Labels">
</g>
</svg>
