<svg xmlns="http://www.w3.org/2000/svg" width="330" height="334" viewBox="0 0 330 334"><g><path fill="none" stroke="#B4B4B4" stroke-miterlimit="10" d="M297.59 137.988L47.41 128.19l225.073 128.622L179.5 52.192l-52.984 194.62L317.46 137.553"/><path fill="none" stroke="#B4B4B4" stroke-miterlimit="10" d="M47.41 127.988l59.106 118.823 165.967 30.002 25.107-138.824L179.5 42.19z"/><path fill="#fff" d="M307.476 168.41c-16.805 5.462-34.852-3.733-40.312-20.536-5.46-16.805 3.735-34.853 20.54-40.31 16.804-5.462 34.85 3.735 40.312 20.537 5.46 16.808-3.737 34.854-20.54 40.31z"/><path fill="#888" d="M318.8 116.773c-5.664-5.664-13.197-8.786-21.21-8.786-8.014 0-15.547 3.122-21.213 8.786-5.667 5.667-8.787 13.2-8.787 21.215 0 8.014 3.12 15.55 8.787 21.213 5.668 5.667 13.2 8.79 21.214 8.79s15.547-3.123 21.212-8.79c5.667-5.663 8.79-13.197 8.79-21.212-.002-8.017-3.123-15.55-8.79-21.215zm-3.21 42.216c0 .412-.336.747-.75.747h-34.5c-.414 0-.75-.335-.75-.748v-42.003c0-.414.336-.748.75-.748h34.5c.414 0 .75.333.75.747v42.002zm-3-32.628h-30v-3.748h30v3.748zm0 7.502h-30v-3.75h30v3.75zm0 7.5h-30v-3.752h30v3.75zm-10.5 7.498h-19.5v-3.748h19.5v3.748z"/><path fill="#fff" d="M72.54 222.125c13.633-18.765 39.898-22.925 58.663-9.29 18.76 13.64 22.924 39.9 9.29 58.66-13.634 18.768-39.895 22.924-58.66 9.29-18.766-13.63-22.928-39.9-9.293-58.66zM61.932 83.302c24.68 8.016 38.183 34.527 30.166 59.206-8.025 24.678-34.528 38.19-59.208 30.167-24.685-8.02-38.184-34.527-30.168-59.207 8.02-24.68 34.528-38.193 59.21-30.166z"/><path fill="#77216F" d="M47.41 82.988c-24.812 0-45 20.188-45 45 0 24.81 20.188 45 45 45 24.813 0 45-20.19 45-45 0-24.813-20.187-45-45-45zm21.09 57.626H26.32c-6.99 0-12.655-5.665-12.655-12.654 0-6.726 5.248-12.223 11.87-12.63-2.96-5.938-.823-13.233 5.003-16.596 5.825-3.363 13.21-1.566 16.872 3.966 3.665-5.532 11.048-7.33 16.875-3.962 5.824 3.363 7.96 10.653 5 16.596 6.625.404 11.87 5.9 11.87 12.626 0 6.99-5.667 12.654-12.655 12.654zm-28.965-4.528l4.735-13.252c-2.786-1.216-4.735-3.99-4.735-7.22 0-4.354 3.525-7.876 7.875-7.876s7.875 3.522 7.875 7.875c0 3.23-1.948 6.005-4.734 7.22l4.736 13.253h-15.75z"/><circle fill="#fff" cx="179.5" cy="42.19" r="42"/><path fill="#DD4814" d="M199.497 7.556C180.37-3.49 155.91 3.064 144.867 22.19c-11.045 19.13-4.493 43.594 14.638 54.634 19.128 11.046 43.587 4.49 54.63-14.638 11.044-19.13 4.49-43.59-14.638-54.63zM194.5 60.19c0 3.313-2.683 6-6 6h-17.997c-3.318 0-6.002-2.687-6.002-6V24.188c0-3.31 2.685-5.998 6.003-5.998H188.5c3.317 0 6 2.687 6 5.997V60.19zm-8.352-27.752h-13.293c-1.3 0-2.352-1.007-2.352-2.25 0-1.237 1.052-2.25 2.352-2.25h13.293c1.295 0 2.353 1.013 2.353 2.25 0 1.243-1.057 2.25-2.352 2.25zm0-6h-13.293c-1.3 0-2.352-1.004-2.352-2.25 0-1.243 1.052-2.25 2.352-2.25h13.293c1.295 0 2.353 1.007 2.353 2.25 0 1.246-1.057 2.25-2.352 2.25zm0 12h-13.293c-1.3 0-2.352-1.004-2.352-2.25 0-1.243 1.052-2.246 2.352-2.246h13.293c1.295 0 2.353 1.003 2.353 2.245 0 1.247-1.057 2.25-2.352 2.25zm-9.65 15.753c0 1.658-1.342 3-3 3-1.654 0-2.995-1.342-2.995-3 0-1.654 1.34-3 2.995-3 1.658 0 3 1.346 3 3z"/><circle fill="#fff" cx="272.484" cy="276.811" r="57"/><path fill="#DD4814" d="M272.483 221.81c-30.327 0-55 24.676-55 55 0 30.327 24.673 55 55 55 30.33 0 55-24.673 55-55 0-30.324-24.67-55-55-55zm25.778 70.436H246.71c-8.542 0-15.47-6.923-15.47-15.465 0-8.224 6.415-14.943 14.51-15.437-3.62-7.258-1.005-16.176 6.115-20.29 7.12-4.103 16.145-1.91 20.622 4.852 4.48-6.763 13.503-8.955 20.623-4.846 7.12 4.112 9.732 13.024 6.112 20.283 8.098.496 14.51 7.214 14.51 15.438 0 8.543-6.927 15.466-15.47 15.466zm-42.963-22.005c0 1.897-1.54 3.44-3.437 3.44s-3.44-1.543-3.44-3.44c0-1.9 1.54-3.437 3.44-3.437 1.898 0 3.437 1.537 3.437 3.438zm10.313 0c0 1.897-1.54 3.44-3.437 3.44s-3.438-1.543-3.438-3.44c0-1.9 1.54-3.437 3.438-3.437 1.898 0 3.437 1.537 3.437 3.438zm10.31 0c0 1.897-1.537 3.44-3.437 3.44-1.898 0-3.437-1.543-3.437-3.44 0-1.9 1.54-3.437 3.437-3.437 1.9 0 3.437 1.537 3.437 3.438zm10.313 0c0 1.897-1.538 3.44-3.437 3.44-1.9 0-3.437-1.543-3.437-3.44 0-1.9 1.537-3.437 3.436-3.437s3.437 1.537 3.437 3.438zm10.313 0c0 1.897-1.54 3.44-3.438 3.44-1.897 0-3.437-1.543-3.437-3.44 0-1.9 1.54-3.437 3.438-3.437 1.9 0 3.438 1.537 3.438 3.438zm-41.25 10.31c0 1.9-1.538 3.44-3.436 3.44s-3.44-1.54-3.44-3.44c0-1.897 1.54-3.434 3.44-3.434 1.898 0 3.437 1.537 3.437 3.435zm6.876 3.44c-1.898 0-3.438-1.54-3.438-3.44 0-1.897 1.54-3.434 3.438-3.434h20.624c1.9 0 3.44 1.536 3.44 3.435 0 1.9-1.54 3.44-3.44 3.44h-20.624zm34.374-3.44c0 1.9-1.54 3.44-3.438 3.44-1.897 0-3.437-1.54-3.437-3.44 0-1.897 1.54-3.434 3.438-3.434 1.9 0 3.438 1.537 3.438 3.435z"/><path fill="#333" d="M106.516 206.81c-22.093 0-40 17.91-40 40.002 0 22.088 17.908 39.998 40 39.998s40-17.91 40-39.998c0-22.09-17.907-40.002-40-40.002zm15.384 64.186c-.58.287-1.202.422-1.812.422-1.514 0-2.968-.84-3.685-2.287l-9.422-19.106-10.614 17.986h8.742c1.51 0 2.736 1.223 2.736 2.733s-1.225 2.735-2.736 2.735H91.576c-.98 0-1.89-.523-2.375-1.38-.486-.85-.477-1.897.02-2.746l14.87-25.192-8.92-18.092c-1.003-2.035-.166-4.494 1.868-5.494 2.03-1.005 4.49-.17 5.494 1.864l21.232 43.06c1.004 2.037.17 4.497-1.864 5.498z"/></g></svg>