<svg xmlns="http://www.w3.org/2000/svg" width="354.331" height="354.331"><g><path d="M326.627 176.777c0 82.76-67.09 149.85-149.85 149.85-82.76 0-149.85-67.09-149.85-149.85 0-82.76 67.09-149.85 149.85-149.85 82.76 0 149.85 67.09 149.85 149.85z" opacity=".597" fill="#333" fill-opacity="0"/><path d="M237.057 181.242c0 46.758-26.955 84.663-60.205 84.663S116.647 228 116.647 181.242c0-46.758 26.955-84.663 60.205-84.663s60.205 37.904 60.205 84.662z" opacity=".597" fill="#dd4814" fill-opacity="0"/><path d="M267.786 221.692c0 15.413-25.13 27.907-56.128 27.907-31 0-56.13-12.495-56.13-27.908 0-15.413 25.13-27.908 56.13-27.908 31 0 56.128 12.495 56.128 27.908z" opacity=".597" fill="#dd4814" fill-opacity="0"/><path d="M321.81 176.228c0 79.71-64.618 144.328-144.328 144.328-79.71 0-144.328-64.618-144.328-144.328 0-79.71 64.618-144.328 144.328-144.328 79.71 0 144.328 64.618 144.328 144.328z" fill="#dd4814"/><g fill="#fff" stroke="#fff" stroke-width=".798"><path d="M164.915 229.485c-18.342.033-50.34.346-63.057 2.305-6.876 1.09-6.34 5.642-6.54 9.397v.067c.2 3.756-.336 8.31 6.54 9.398 16.935 2.61 68.054 2.305 75.58 2.304h.055c7.525 0 58.644.305 75.58-2.304 6.875-1.09 6.368-5.642 6.567-9.398-.21-3.767.348-8.37-6.568-9.464-16.935-2.61-68.054-2.305-75.58-2.305-1.858 0-6.463-.01-12.577 0z"/><path d="M164.915 99.493c-18.342.033-50.34.346-63.057 2.305-6.876 1.09-6.34 5.642-6.54 9.397v.067c.2 3.755-.336 8.308 6.54 9.397 16.935 2.608 68.054 2.305 75.58 2.304h.055c7.525 0 58.644.304 75.58-2.305 6.875-1.09 6.368-5.643 6.567-9.398-.21-3.767.348-8.37-6.568-9.464-16.935-2.61-68.054-2.306-75.58-2.305-1.858 0-6.463-.01-12.577 0z"/><path d="M164.915 186.155c-18.342.032-50.34.345-63.057 2.304-6.876 1.088-6.34 5.64-6.54 9.396v.069c.2 3.755-.336 8.308 6.54 9.397 16.935 2.61 68.054 2.306 75.58 2.305h.055c7.525 0 58.644.305 75.58-2.304 6.875-1.088 6.368-5.64 6.567-9.396-.21-3.768.348-8.37-6.568-9.465-16.935-2.61-68.054-2.306-75.58-2.305-1.858 0-6.463-.01-12.577 0z"/><path d="M164.915 142.824c-18.342.032-50.34.346-63.057 2.304-6.876 1.09-6.34 5.642-6.54 9.398v.068c.2 3.755-.336 8.308 6.54 9.397 16.935 2.61 68.054 2.305 75.58 2.305h.055c7.525 0 58.644.304 75.58-2.305 6.875-1.09 6.368-5.642 6.567-9.397-.21-3.768.348-8.37-6.568-9.465-16.935-2.608-68.054-2.305-75.58-2.304-1.858 0-6.463-.01-12.577 0z"/></g></g></svg>