<?xml version="1.0" encoding="utf-8"?>
<!-- Generator: Adobe Illustrator 15.1.0, SVG Export Plug-In . SVG Version: 6.00 Build 0)  -->
<!DOCTYPE svg PUBLIC "-//W3C//DTD SVG 1.1//EN" "http://www.w3.org/Graphics/SVG/1.1/DTD/svg11.dtd">
<svg version="1.1" id="Layer_1" xmlns="http://www.w3.org/2000/svg" xmlns:xlink="http://www.w3.org/1999/xlink" x="0px" y="0px"
	 width="288.656px" height="288.656px" viewBox="33.154 31.9 288.656 288.656" enable-background="new 33.154 31.9 288.656 288.656"
	 xml:space="preserve">
<g>
	<path opacity="0.597" fill="#333333" fill-opacity="0" enable-background="new    " d="M326.626,176.777
		c0,82.76-67.09,149.85-149.85,149.85s-149.85-67.09-149.85-149.85s67.09-149.85,149.85-149.85S326.626,94.017,326.626,176.777
		L326.626,176.777z"/>
	<path opacity="0.597" fill="#DD4814" fill-opacity="0" enable-background="new    " d="M237.057,181.242
		c0,46.758-26.955,84.663-60.205,84.663S116.647,228,116.647,181.242s26.955-84.663,60.205-84.663S237.057,134.483,237.057,181.242
		L237.057,181.242z"/>
	<path opacity="0.597" fill="#DD4814" fill-opacity="0" enable-background="new    " d="M267.787,221.692
		c0,15.413-25.131,27.907-56.129,27.907c-31,0-56.13-12.495-56.13-27.908s25.13-27.908,56.13-27.908
		S267.787,206.278,267.787,221.692L267.787,221.692z"/>
	<path fill="#DD4814" d="M321.81,176.228c0,79.71-64.618,144.328-144.328,144.328S33.154,255.938,33.154,176.228
		S97.772,31.9,177.482,31.9S321.81,96.518,321.81,176.228z"/>
	<g>
		<path fill="#FFFFFF" stroke="#FFFFFF" stroke-width="0.798" d="M164.915,229.485c-18.342,0.033-50.34,0.347-63.057,2.306
			c-6.876,1.09-6.34,5.642-6.54,9.396v0.066c0.2,3.756-0.336,8.311,6.54,9.398c16.935,2.61,68.054,2.305,75.58,2.305h0.055
			c7.525,0,58.644,0.305,75.58-2.305c6.876-1.09,6.368-5.643,6.567-9.398c-0.21-3.767,0.348-8.369-6.568-9.463
			c-16.935-2.61-68.054-2.306-75.58-2.306C175.634,229.485,171.029,229.475,164.915,229.485z"/>
		<path fill="#FFFFFF" stroke="#FFFFFF" stroke-width="0.798" d="M164.915,99.493c-18.342,0.033-50.34,0.346-63.057,2.305
			c-6.876,1.09-6.34,5.642-6.54,9.397v0.067c0.2,3.755-0.336,8.308,6.54,9.397c16.935,2.608,68.054,2.305,75.58,2.304h0.055
			c7.525,0,58.644,0.304,75.58-2.305c6.876-1.09,6.368-5.643,6.567-9.398c-0.21-3.767,0.348-8.37-6.568-9.464
			c-16.935-2.61-68.054-2.306-75.58-2.305c-1.858,0-6.463-0.01-12.577,0V99.493z"/>
		<path fill="#FFFFFF" stroke="#FFFFFF" stroke-width="0.798" d="M164.915,186.155c-18.342,0.032-50.34,0.345-63.057,2.304
			c-6.876,1.088-6.34,5.641-6.54,9.396v0.068c0.2,3.756-0.336,8.309,6.54,9.397c16.935,2.61,68.054,2.306,75.58,2.306h0.055
			c7.525,0,58.644,0.305,75.58-2.305c6.876-1.088,6.368-5.64,6.567-9.396c-0.21-3.768,0.348-8.369-6.568-9.465
			c-16.935-2.609-68.054-2.306-75.58-2.305C175.634,186.156,171.029,186.146,164.915,186.155L164.915,186.155z"/>
		<path fill="#FFFFFF" stroke="#FFFFFF" stroke-width="0.798" d="M164.915,142.824c-18.342,0.032-50.34,0.346-63.057,2.304
			c-6.876,1.09-6.34,5.642-6.54,9.398v0.068c0.2,3.755-0.336,8.308,6.54,9.397c16.935,2.61,68.054,2.305,75.58,2.305h0.055
			c7.525,0,58.644,0.304,75.58-2.305c6.876-1.09,6.368-5.642,6.567-9.397c-0.21-3.768,0.348-8.37-6.568-9.465
			c-16.935-2.608-68.054-2.305-75.58-2.304C175.634,142.825,171.029,142.815,164.915,142.824L164.915,142.824z"/>
	</g>
</g>
</svg>
