<?xml version="1.0" encoding="UTF-8" standalone="no"?>
<!-- Generator: Adobe Illustrator 15.1.0, SVG Export Plug-In . SVG Version: 6.00 Build 0)  -->

<svg
   xmlns:dc="http://purl.org/dc/elements/1.1/"
   xmlns:cc="http://creativecommons.org/ns#"
   xmlns:rdf="http://www.w3.org/1999/02/22-rdf-syntax-ns#"
   xmlns:svg="http://www.w3.org/2000/svg"
   xmlns="http://www.w3.org/2000/svg"
   xmlns:xlink="http://www.w3.org/1999/xlink"
   xmlns:sodipodi="http://sodipodi.sourceforge.net/DTD/sodipodi-0.dtd"
   xmlns:inkscape="http://www.inkscape.org/namespaces/inkscape"
   version="1.1"
   id="svg2"
   sodipodi:docname="arrow_up.svg"
   inkscape:version="0.48.4 r9939"
   x="0px"
   y="0px"
   width="90px"
   height="90px"
   viewBox="0 0 90 90"
   enable-background="new 0 0 90 90"
   xml:space="preserve"><metadata
     id="metadata3079"><rdf:RDF><cc:Work
         rdf:about=""><dc:format>image/svg+xml</dc:format><dc:type
           rdf:resource="http://purl.org/dc/dcmitype/StillImage" /><dc:title></dc:title></cc:Work></rdf:RDF></metadata><defs
     id="defs3077" /><sodipodi:namedview
     id="namedview4"
     borderopacity="1"
     bordercolor="#666666"
     pagecolor="#ffffff"
     guidetolerance="10"
     objecttolerance="10"
     gridtolerance="10"
     inkscape:pageopacity="0"
     inkscape:pageshadow="2"
     fit-margin-top="0"
     inkscape:window-width="1307"
     inkscape:window-height="744"
     inkscape:cx="21.901419"
     showgrid="false"
     fit-margin-left="0"
     fit-margin-right="0"
     fit-margin-bottom="0"
     inkscape:zoom="2.4272256"
     inkscape:cy="47.210089"
     inkscape:current-layer="g10_1_"
     inkscape:window-x="59"
     inkscape:window-y="24"
     inkscape:window-maximized="1" /><sodipodi:namedview
     id="namedview3062"
     borderopacity="1"
     bordercolor="#666666"
     pagecolor="#ffffff"
     guidetolerance="10"
     objecttolerance="10"
     gridtolerance="10"
     inkscape:pageopacity="0"
     inkscape:pageshadow="2"
     fit-margin-top="0"
     inkscape:window-width="640"
     inkscape:window-height="480"
     inkscape:cx="-157.44016"
     showgrid="false"
     fit-margin-left="0"
     fit-margin-right="0"
     fit-margin-bottom="0"
     inkscape:zoom="2.4272256"
     inkscape:cy="98.291931"
     inkscape:current-layer="g10" /><g
     id="g10_1_"
     transform="matrix(1.25,0,0,-1.25,-406.97987,423.35437)"
     inkscape:groupmode="layer"
     inkscape:label="chevron"><g
       id="g12_1_"
       transform="matrix(-9.835598e-5,0.5471698,0.54545454,9.8047655e-5,180.55426,113.13251)"
       style="fill:#ffffff"><g
         id="g3066"
         style="fill:#ffffff"><defs
           id="defs3068"><rect
             id="SVGID_1_"
             x="69.474998"
             y="81.282997"
             width="405.87299"
             height="575.82098" /></defs><clipPath
           id="SVGID_2_"><use
             xlink:href="#SVGID_1_"
             overflow="visible"
             id="use3072"
             style="overflow:visible"
             x="0"
             y="0"
             width="90"
             height="90" /></clipPath><g
           id="g14_1_"
           clip-path="url(#SVGID_2_)"
           style="fill:#ffffff"><g
             id="g20_1_"
             transform="translate(358.7529,350.7095)"
             style="fill:#ffffff"><path
               id="path22_1_"
               inkscape:connector-curvature="0"
               d="m -24.231,-34.538 c 3.869,-6.841 8.238,-13.885 13.107,-21.135 4.866,-7.25 10.086,-14.386 15.657,-21.401 1.493,-1.879 2.988,-3.707 4.486,-5.486 v 20.344 c -3.055,4.022 -6.048,8.184 -8.972,12.504 -3.404,5.03 -6.596,10.175 -9.589,15.437 -2.99,5.261 -6.662,12.687 -9.007,17.715 2.344,5.026 6.017,12.452 9.007,17.715 2.993,5.262 6.185,10.407 9.589,15.436 2.924,4.321 5.917,8.483 8.972,12.505 V 49.44 C 7.521,47.66 6.026,45.833 4.533,43.954 -1.038,36.936 -6.258,29.803 -11.124,22.553 -15.993,15.303 -20.362,8.259 -24.231,1.418 c -3.869,-6.84 -6.922,-12.833 -9.149,-17.978 2.227,-5.144 5.28,-11.137 9.149,-17.978"
               style="fill:#ffffff" /></g></g></g></g></g></svg>