<?xml version="1.0" encoding="utf-8"?>
<!-- Generator: Adobe Illustrator 17.0.2, SVG Export Plug-In . SVG Version: 6.00 Build 0)  -->
<!DOCTYPE svg PUBLIC "-//W3C//DTD SVG 1.1//EN" "http://www.w3.org/Graphics/SVG/1.1/DTD/svg11.dtd">
<svg version="1.1" xmlns="http://www.w3.org/2000/svg" xmlns:xlink="http://www.w3.org/1999/xlink" x="0px" y="0px" width="14px"
	 height="14px" viewBox="0 0 14 14" enable-background="new 0 0 14 14" xml:space="preserve">
<symbol  id="Grid_1_" viewBox="-502 -3550 984 4000">
	<polygon opacity="0.2" fill="#3081FF" points="482,-3550 -502,-3550 -502,450 482,450 	"/>
	<polygon opacity="0.8" fill="#3081FF" points="-462,-3550 -502,-3550 -502,450 -462,450 	"/>
	<polygon opacity="0.8" fill="#3081FF" points="482,-3550 442,-3550 442,450 482,450 	"/>
	<polygon opacity="0.3" fill="#3081FF" points="-405,-3550 -462,-3550 -462,450 -405,450 	"/>
	<polygon opacity="0.5" fill="#3081FF" points="-328,-3550 -385,-3550 -385,450 -328,450 	"/>
	<polygon opacity="0.3" fill="#3081FF" points="-251,-3550 -308,-3550 -308,450 -251,450 	"/>
	<polygon opacity="0.5" fill="#3081FF" points="-174,-3550 -231,-3550 -231,450 -174,450 	"/>
	<polygon opacity="0.3" fill="#3081FF" points="-97,-3550 -154,-3550 -154,450 -97,450 	"/>
	<polygon opacity="0.5" fill="#3081FF" points="-20,-3550 -77,-3550 -77,450 -20,450 	"/>
	<polygon opacity="0.3" fill="#3081FF" points="57,-3550 0,-3550 0,450 57,450 	"/>
	<polygon opacity="0.5" fill="#3081FF" points="134,-3550 77,-3550 77,450 134,450 	"/>
	<polygon opacity="0.3" fill="#3081FF" points="211,-3550 154,-3550 154,450 211,450 	"/>
	<polygon opacity="0.5" fill="#3081FF" points="288,-3550 231,-3550 231,450 288,450 	"/>
	<polygon opacity="0.3" fill="#3081FF" points="365,-3550 308,-3550 308,450 365,450 	"/>
	<polygon opacity="0.5" fill="#3081FF" points="442,-3550 385,-3550 385,450 442,450 	"/>
</symbol>
<g id="BK">
</g>
<g id="Comp">
	<circle fill="#2C001E" cx="7" cy="7" r="7"/>
	<polygon fill="#FFFFFF" points="6.101,10.813 2.408,8.105 3.592,6.492 5.899,8.187 10.293,3.793 11.707,5.207 	"/>
</g>
<g id="Grid" display="none">
	
		<use xlink:href="#Grid_1_"  width="984" height="4000" id="XMLID_7_" x="-502" y="-3550" transform="matrix(1 0 0 -1 509 -853)" display="inline" overflow="visible"/>
</g>
</svg>
