<?xml version="1.0" encoding="utf-8"?>
<!-- Generator: Adobe Illustrator 17.0.2, SVG Export Plug-In . SVG Version: 6.00 Build 0)  -->
<!DOCTYPE svg PUBLIC "-//W3C//DTD SVG 1.1//EN" "http://www.w3.org/Graphics/SVG/1.1/DTD/svg11.dtd">
<svg version="1.1" id="Layer_1" xmlns="http://www.w3.org/2000/svg" xmlns:xlink="http://www.w3.org/1999/xlink" x="0px" y="0px"
	 width="379px" height="115px" viewBox="0 0 379 115" enable-background="new 0 0 379 115" xml:space="preserve">
<g id="BK">
</g>
<g id="Comp">
	<path opacity="0.6" fill="#888888" enable-background="new    " d="M184.477,63.522c1.405,1.404,3.243,2.105,5.082,2.105
		s3.678-0.701,5.08-2.105l12.845-12.845v24.781h-35.938V50.591L184.477,63.522z M218.276,7.719c-2.224-1.288-4.966-1.29-7.192-0.007
		s-3.599,3.657-3.599,6.227v21.766L194.64,22.862c-2.804-2.806-7.354-2.806-10.163,0l-12.93,12.93V13.923
		c0-2.569-1.371-4.942-3.595-6.227c-2.224-1.282-4.965-1.282-7.189,0.004C143.024,17.957,132,37.038,132,57.496
		C132,89.203,157.796,115,189.501,115S247,89.203,247,57.496C247,37.057,235.994,17.984,218.276,7.719"/>
	<path opacity="0.4" fill="#888888" enable-background="new    " d="M67.669,47.303c2.715,2.714,4.21,6.325,4.21,10.165
		s-1.496,7.449-4.21,10.164s-6.324,4.21-10.163,4.21c-3.84,0-7.45-1.496-10.164-4.21c-2.715-2.716-4.211-6.325-4.211-10.164
		s1.496-7.448,4.212-10.164c2.715-2.716,6.325-4.211,10.164-4.211C61.344,43.093,64.954,44.588,67.669,47.303z M98.158,98.158
		c-22.456,22.456-58.859,22.456-81.317,0c-22.454-22.458-22.455-58.859,0-81.316C39.298-5.613,75.704-5.615,98.158,16.84
		C120.614,39.299,120.614,75.703,98.158,98.158z M100.59,64.571V50.198H85.328c-0.678-2.609-1.714-5.101-3.095-7.416l10.808-10.81
		L82.875,21.808L72.033,32.65c-2.305-1.356-4.785-2.378-7.378-3.04V14.26H50.281v15.374c-2.583,0.666-5.054,1.69-7.351,3.047
		L32.058,21.808L21.892,31.972l10.86,10.86c-1.366,2.3-2.396,4.775-3.067,7.364H14.342V64.57h15.296
		c0.66,2.61,1.689,5.105,3.052,7.425l-10.8,10.799l10.166,10.164l10.765-10.765c2.327,1.387,4.834,2.43,7.458,3.106v15.208h14.375
		V85.321c2.634-0.671,5.149-1.712,7.487-3.101l10.736,10.737l10.165-10.164l-10.748-10.75c1.377-2.334,2.415-4.846,3.08-7.475
		h15.217v0.003H100.59z"/>
	<path opacity="0.8" fill="#888888" enable-background="new    " d="M368.581,47.37c2.417-2.417,5.479-3.786,8.633-4.123
		c-2.655-10.375-8.147-19.617-15.585-26.876c-1.867,2.538-4.569,4.487-7.846,5.366c-7.67,2.055-15.55-2.495-17.602-10.163
		c-0.877-3.275-0.545-6.584,0.716-9.467C331.993,0.744,326.836,0,321.505,0c-5.411,0-10.648,0.767-15.614,2.17
		c1.237,2.868,1.561,6.153,0.69,9.404c-2.054,7.667-9.935,12.218-17.601,10.163c-3.221-0.864-5.882-2.762-7.744-5.232
		c-7.374,7.247-12.815,16.454-15.449,26.777c3.065,0.378,6.036,1.731,8.39,4.085c5.613,5.614,5.616,14.716,0.003,20.333
		c-2.351,2.351-5.315,3.702-8.379,4.083c2.643,10.309,8.089,19.503,15.465,26.737c1.86-2.45,4.505-4.333,7.709-5.19
		c7.669-2.057,15.552,2.495,17.606,10.163c0.866,3.228,0.55,6.49-0.669,9.341c4.963,1.401,10.188,2.165,15.592,2.165
		c5.324,0,10.473-0.739,15.368-2.099c-1.238-2.868-1.563-6.154-0.694-9.405c2.052-7.667,9.937-12.221,17.606-10.166
		c3.264,0.873,5.953,2.81,7.817,5.329c7.438-7.248,12.934-16.479,15.597-26.84c-3.148-0.341-6.205-1.71-8.617-4.121
		C362.967,62.082,362.967,52.983,368.581,47.37z M331.664,67.668c-5.613,5.612-14.714,5.608-20.328-0.004
		c-5.612-5.613-5.612-14.715,0-20.327c5.618-5.613,14.716-5.617,20.328-0.002C337.277,52.948,337.277,62.052,331.664,67.668z"/>
</g>
<g id="Grid" display="none">
</g>
<g id="Labels">
</g>
</svg>
