<?xml version="1.0" encoding="utf-8"?>
<!-- Generator: Adobe Illustrator 17.0.2, SVG Export Plug-In . SVG Version: 6.00 Build 0)  -->
<!DOCTYPE svg PUBLIC "-//W3C//DTD SVG 1.1//EN" "http://www.w3.org/Graphics/SVG/1.1/DTD/svg11.dtd">
<svg version="1.1" xmlns="http://www.w3.org/2000/svg" xmlns:xlink="http://www.w3.org/1999/xlink" x="0px" y="0px" width="240px"
	 height="240px" viewBox="0 0 240 240" enable-background="new 0 0 240 240" xml:space="preserve">
<g id="BK">
</g>
<g id="Comp">
	<circle fill="#FFFFFF" cx="120" cy="120" r="120"/>
	<path fill="#DD4814" d="M120,0C53.726,0,0,53.724,0,120.005c0,37.254,16.978,70.542,43.62,92.555V60.937h27.809v13.857H64.38
		v13.888h27.774V74.794h-6.839V60.937h27.774v13.857h-6.997v13.888h27.778V74.794h-6.892V60.937h27.768v13.857h-6.99v13.888h27.773
		V74.794h-6.894V60.937h27.743V212.56c26.64-22.008,43.62-55.301,43.62-92.555C240.003,53.724,186.275,0,120,0z"/>
	<path fill="#DD4814" d="M104.644,209.786c-0.816,0.25-1.842,0.476-3.077,0.68s-2.533,0.307-3.893,0.307
		c-1.405,0-2.664-0.216-3.774-0.646c-1.111-0.431-2.057-1.048-2.839-1.853s-1.383-1.779-1.802-2.925
		c-0.42-1.144-0.629-2.431-0.629-3.858c0-1.405,0.175-2.681,0.527-3.825c0.351-1.145,0.867-2.125,1.547-2.941
		c0.68-0.815,1.507-1.444,2.482-1.887c0.974-0.441,2.096-0.663,3.366-0.663c0.861,0,1.62,0.103,2.278,0.307
		c0.657,0.203,1.224,0.431,1.7,0.68v-8.534l4.114-0.68V209.786z M92.846,201.388c0,1.814,0.43,3.236,1.292,4.268
		c0.861,1.031,2.051,1.547,3.57,1.547c0.657,0,1.218-0.028,1.683-0.085c0.464-0.057,0.844-0.119,1.139-0.188V196.73
		c-0.363-0.25-0.845-0.481-1.445-0.697c-0.601-0.215-1.241-0.323-1.921-0.323c-1.496,0-2.59,0.51-3.281,1.53
		C93.191,198.26,92.846,199.643,92.846,201.388z"/>
	<path fill="#DD4814" d="M115.796,192.106c1.36,0,2.504,0.17,3.434,0.51c0.929,0.34,1.671,0.815,2.227,1.428
		c0.555,0.612,0.952,1.354,1.19,2.228c0.238,0.872,0.357,1.83,0.357,2.873v10.777c-0.635,0.136-1.593,0.301-2.873,0.493
		c-1.281,0.192-2.726,0.289-4.335,0.289c-1.066,0-2.04-0.102-2.924-0.306c-0.884-0.204-1.638-0.532-2.261-0.986
		c-0.624-0.453-1.111-1.042-1.462-1.768c-0.352-0.726-0.527-1.621-0.527-2.687c0-1.02,0.198-1.881,0.595-2.584
		c0.396-0.702,0.935-1.275,1.615-1.717c0.68-0.442,1.467-0.76,2.363-0.952c0.895-0.192,1.83-0.289,2.805-0.289
		c0.453,0,0.929,0.028,1.428,0.085c0.499,0.057,1.031,0.153,1.598,0.289v-0.68c0-0.477-0.057-0.93-0.17-1.36
		c-0.114-0.431-0.312-0.811-0.595-1.139c-0.284-0.328-0.658-0.584-1.122-0.766c-0.465-0.181-1.049-0.271-1.751-0.271
		c-0.952,0-1.825,0.067-2.618,0.204c-0.793,0.136-1.439,0.295-1.938,0.476l-0.51-3.332c0.521-0.181,1.28-0.362,2.278-0.544
		C113.597,192.197,114.662,192.106,115.796,192.106z M116.136,207.44c1.269,0,2.232-0.068,2.89-0.204v-4.557
		c-0.227-0.067-0.556-0.136-0.986-0.203c-0.431-0.068-0.907-0.103-1.428-0.103c-0.454,0-0.913,0.034-1.377,0.103
		c-0.465,0.067-0.884,0.192-1.258,0.373c-0.374,0.183-0.674,0.438-0.901,0.766c-0.227,0.329-0.34,0.742-0.34,1.241
		c0,0.975,0.306,1.648,0.918,2.022C114.266,207.253,115.093,207.44,116.136,207.44z"/>
	<path fill="#DD4814" d="M142.112,192.548c-1.833,6.755-3.96,12.875-6.38,18.36c-0.454,1.02-0.919,1.893-1.396,2.618
		c-0.476,0.725-1.01,1.326-1.599,1.802c-0.59,0.476-1.249,0.821-1.975,1.037c-0.726,0.215-1.565,0.323-2.519,0.323
		c-0.635,0-1.265-0.068-1.889-0.204c-0.624-0.137-1.095-0.284-1.413-0.442l0.748-3.298c0.82,0.317,1.628,0.476,2.425,0.476
		c1.07,0,1.907-0.255,2.51-0.765s1.132-1.298,1.588-2.363c-1.298-2.493-2.544-5.213-3.74-8.16c-1.195-2.946-2.259-6.074-3.192-9.384
		h4.386c0.228,0.952,0.506,1.984,0.836,3.094c0.33,1.111,0.688,2.239,1.075,3.384s0.796,2.283,1.228,3.417
		c0.433,1.134,0.865,2.188,1.297,3.162c0.722-2.018,1.399-4.165,2.031-6.443c0.631-2.278,1.207-4.482,1.726-6.613H142.112z"/>
	<path fill="#DD4814" d="M149.694,207.372c1.088,0,1.881-0.13,2.38-0.391c0.498-0.261,0.748-0.709,0.748-1.344
		c0-0.589-0.267-1.076-0.799-1.462c-0.533-0.385-1.411-0.804-2.635-1.258c-0.748-0.271-1.434-0.561-2.057-0.867
		c-0.624-0.306-1.162-0.663-1.615-1.07c-0.454-0.408-0.811-0.901-1.071-1.479c-0.261-0.578-0.391-1.286-0.391-2.125
		c0-1.632,0.601-2.918,1.802-3.859c1.201-0.939,2.833-1.41,4.896-1.41c1.042,0,2.04,0.097,2.992,0.289
		c0.952,0.192,1.666,0.38,2.142,0.561l-0.748,3.332c-0.454-0.204-1.032-0.391-1.734-0.561c-0.703-0.171-1.519-0.256-2.448-0.256
		c-0.839,0-1.519,0.143-2.04,0.426c-0.522,0.283-0.782,0.72-0.782,1.309c0,0.295,0.051,0.556,0.153,0.782
		c0.102,0.227,0.277,0.437,0.527,0.629c0.249,0.192,0.578,0.386,0.986,0.578c0.408,0.192,0.906,0.391,1.496,0.595
		c0.974,0.363,1.802,0.72,2.482,1.071s1.241,0.748,1.683,1.189c0.442,0.442,0.765,0.947,0.969,1.514
		c0.204,0.566,0.306,1.246,0.306,2.04c0,1.699-0.629,2.986-1.887,3.858c-1.258,0.872-3.055,1.31-5.389,1.31
		c-1.564,0-2.822-0.131-3.774-0.392c-0.952-0.26-1.621-0.47-2.006-0.629l0.714-3.434c0.612,0.249,1.343,0.487,2.193,0.714
		S148.606,207.372,149.694,207.372z"/>
	<path fill="#DD4814" d="M153.248,176.569H90.751c-10.355,0-18.751-8.396-18.751-18.75c0-9.969,7.773-18.113,17.588-18.715
		c-4.385-8.797-1.217-19.605,7.413-24.591c8.631-4.981,19.572-2.32,25,5.879c5.428-8.197,16.367-10.859,25.001-5.874
		c8.629,4.983,11.795,15.789,7.409,24.589c9.817,0.599,17.589,8.746,17.589,18.715C172,168.173,163.602,176.569,153.248,176.569z"/>
	<path fill="#FFFFFF" d="M126.949,157.094c0-1.1-0.217-2.082-0.65-2.949c-0.434-0.867-1.192-1.601-2.275-2.2
		c-1.083-0.601-2.534-1.05-4.35-1.351c-1.817-0.3-4.108-0.449-6.875-0.449c0.366-3.2,0.65-6.242,0.85-9.125
		c0.2-2.883,0.366-5.775,0.5-8.676h17.7v5.101h-12.55c-0.034,0.567-0.075,1.208-0.125,1.925s-0.1,1.442-0.15,2.175
		c-0.05,0.733-0.109,1.434-0.175,2.101c-0.067,0.667-0.133,1.233-0.2,1.699c4.933,0.268,8.575,1.393,10.925,3.375
		c2.35,1.984,3.525,4.692,3.525,8.125c0,1.567-0.267,3.018-0.8,4.351c-0.534,1.333-1.35,2.483-2.45,3.45
		c-1.1,0.967-2.483,1.725-4.15,2.274c-1.667,0.55-3.617,0.825-5.85,0.825c-0.9,0-1.817-0.067-2.75-0.2
		c-0.934-0.134-1.825-0.292-2.675-0.475s-1.608-0.375-2.275-0.575c-0.667-0.2-1.167-0.383-1.5-0.55l1.15-5.101
		c0.7,0.334,1.708,0.692,3.025,1.075c1.316,0.384,2.925,0.575,4.825,0.575c1.3,0,2.417-0.142,3.35-0.425
		c0.933-0.283,1.691-0.675,2.275-1.175c0.583-0.5,1.008-1.075,1.275-1.726C126.816,158.52,126.949,157.828,126.949,157.094z"/>
</g>
<g id="Grid" display="none">
</g>
<g id="Labels">
</g>
</svg>
