<?xml version="1.0" encoding="utf-8"?>
<!-- Generator: Adobe Illustrator 17.0.2, SVG Export Plug-In . SVG Version: 6.00 Build 0)  -->
<!DOCTYPE svg PUBLIC "-//W3C//DTD SVG 1.1//EN" "http://www.w3.org/Graphics/SVG/1.1/DTD/svg11.dtd">
<svg version="1.1" xmlns="http://www.w3.org/2000/svg" xmlns:xlink="http://www.w3.org/1999/xlink" x="0px" y="0px" width="365px"
	 height="290px" viewBox="0 0 365 290" enable-background="new 0 0 365 290" xml:space="preserve">
<g id="BK">
</g>
<g id="Comp">
	<polygon fill="#D63023" points="273,107 257,107 197,0 213,0 	"/>
	<polygon fill="#FFFFFF" points="289,107 273,107 213,0 229,0 	"/>
	<polygon opacity="0.2" fill="#AEA79F" points="289,107 273,107 213,0 229,0 	"/>
	<polygon fill="#255E6E" points="305,107 289,107 229,0 245,0 	"/>
	<linearGradient id="SVGID_2_" gradientUnits="userSpaceOnUse" x1="279.5452" y1="73.0059" x2="234.7328" y2="42.3841">
		<stop  offset="0" style="stop-color:#000000;stop-opacity:0.3"/>
		<stop  offset="1" style="stop-color:#000000;stop-opacity:0"/>
	</linearGradient>
	<polygon fill="url(#SVGID_2_)" points="305,107 257,107 197,0 245,0 	"/>
	<path fill="#AEA79F" d="M310,107c2.168,0,4,1.832,4,4v4c0,2.168-1.832,4-4,4h-60c-2.168,0-4-1.832-4-4v-4c0-2.168,1.832-4,4-4H310
		 M310,101h-60c-5.5,0-10,4.5-10,10v4c0,5.5,4.5,10,10,10h60c5.5,0,10-4.5,10-10v-4C320,105.5,315.5,101,310,101L310,101z"/>
	<rect x="271" y="125" fill="#AEA79F" width="18" height="6"/>
	<polygon fill="#D63023" points="257,107 273,107 333,0 317,0 	"/>
	<polygon fill="#FFFFFF" points="273,107 289,107 349,0 333,0 	"/>
	<polygon opacity="0.2" fill="#AEA79F" points="273,107 289,107 349,0 333,0 	"/>
	<polygon fill="#255E6E" points="289,107 305,107 365,0 349,0 	"/>
	<linearGradient id="SVGID_4_" gradientUnits="userSpaceOnUse" x1="251" y1="107" x2="251" y2="2.692104e-10">
		<stop  offset="0" style="stop-color:#000000;stop-opacity:0"/>
		<stop  offset="0.8" style="stop-color:#000000;stop-opacity:0"/>
		<stop  offset="1" style="stop-color:#000000;stop-opacity:0.1"/>
	</linearGradient>
	<polygon fill="url(#SVGID_4_)" points="305,107 257,107 197,0 245,0 	"/>
	
		<linearGradient id="SVGID_6_" gradientUnits="userSpaceOnUse" x1="-3633" y1="107" x2="-3633" y2="2.692104e-10" gradientTransform="matrix(-1 0 0 1 -3322 0)">
		<stop  offset="0" style="stop-color:#000000;stop-opacity:0"/>
		<stop  offset="0.8" style="stop-color:#000000;stop-opacity:0"/>
		<stop  offset="1" style="stop-color:#000000;stop-opacity:0.1"/>
	</linearGradient>
	<polygon fill="url(#SVGID_6_)" points="257,107 305,107 365,0 317,0 	"/>
	<polygon fill="#DD4814" points="76,107 60,107 0,0 16,0 	"/>
	<polygon fill="#FFFFFF" points="92,107 76,107 16,0 32,0 	"/>
	<polygon opacity="0.2" fill="#AEA79F" points="92,107 76,107 16,0 32,0 	"/>
	<polygon fill="#77216F" points="108,107 92,107 32,0 48,0 	"/>
	<linearGradient id="SVGID_8_" gradientUnits="userSpaceOnUse" x1="82.5452" y1="73.0059" x2="37.7328" y2="42.3841">
		<stop  offset="0" style="stop-color:#000000;stop-opacity:0.3"/>
		<stop  offset="1" style="stop-color:#000000;stop-opacity:0"/>
	</linearGradient>
	<polygon fill="url(#SVGID_8_)" points="108,107 60,107 0,0 48,0 	"/>
	<path fill="#AEA79F" d="M113,107c2.168,0,4,1.832,4,4v4c0,2.168-1.832,4-4,4H53c-2.168,0-4-1.832-4-4v-4c0-2.168,1.832-4,4-4H113
		 M113,101H53c-5.5,0-10,4.5-10,10v4c0,5.5,4.5,10,10,10h60c5.5,0,10-4.5,10-10v-4C123,105.5,118.5,101,113,101L113,101z"/>
	<rect x="74" y="125" fill="#AEA79F" width="18" height="6"/>
	<polygon fill="#DD4814" points="60,107 76,107 136,0 120,0 	"/>
	<polygon fill="#FFFFFF" points="76,107 92,107 152,0 136,0 	"/>
	<polygon opacity="0.2" fill="#AEA79F" points="76,107 92,107 152,0 136,0 	"/>
	<polygon fill="#77216F" points="92,107 108,107 168,0 152,0 	"/>
	<linearGradient id="SVGID_10_" gradientUnits="userSpaceOnUse" x1="54" y1="107" x2="54" y2="2.701199e-10">
		<stop  offset="0" style="stop-color:#000000;stop-opacity:0"/>
		<stop  offset="0.8" style="stop-color:#000000;stop-opacity:0"/>
		<stop  offset="1" style="stop-color:#000000;stop-opacity:0.1"/>
	</linearGradient>
	<polygon fill="url(#SVGID_10_)" points="108,107 60,107 0,0 48,0 	"/>
	
		<linearGradient id="SVGID_12_" gradientUnits="userSpaceOnUse" x1="-3436" y1="107" x2="-3436" y2="2.701199e-10" gradientTransform="matrix(-1 0 0 1 -3322 0)">
		<stop  offset="0" style="stop-color:#000000;stop-opacity:0"/>
		<stop  offset="0.8" style="stop-color:#000000;stop-opacity:0"/>
		<stop  offset="1" style="stop-color:#000000;stop-opacity:0.1"/>
	</linearGradient>
	<polygon fill="url(#SVGID_12_)" points="60,107 108,107 168,0 120,0 	"/>
	<path fill="#D63023" d="M361,210c0,44.179-35.817,80-80,80c-44.184,0-80-35.821-80-80c0-44.184,35.818-80,80-80
		C325.183,130,361,165.816,361,210z"/>
	
		<path id="rect1227_1_" fill="#FFFFFF" d="
		M244.982,168.441c-3.069,0-5.541,2.471-5.541,5.54v19.394h16.623v-5.54c0-1.534,1.234-2.771,2.771-2.771h44.329
		c1.533,0,2.77,1.236,2.77,2.771v5.54h16.623v-19.394c0-3.069-2.472-5.54-5.54-5.54H244.982z M239.441,198.917v22.166h16.623
		v-22.166H239.441z M305.935,198.917v22.166h16.623v-22.166H305.935z M239.441,226.624v19.395c0,3.067,2.472,5.54,5.541,5.54h72.035
		c3.068,0,5.54-2.473,5.54-5.54v-19.395h-16.623v5.539c0,1.535-1.238,2.771-2.77,2.771h-44.329c-1.537,0-2.771-1.236-2.771-2.771
		v-5.539H239.441z"/>
	<path fill="#DD4814" d="M164,210c0,44.179-35.816,80-80,80S4,254.179,4,210c0-44.183,35.819-80,80-80
		C128.184,130,164,165.817,164,210z"/>
	<path fill="#FFFFFF" d="M29.602,199.314c-5.901,0-10.681,4.785-10.681,10.686c0,5.898,4.78,10.679,10.681,10.679
		c5.898,0,10.68-4.781,10.68-10.679C40.282,204.098,35.5,199.314,29.602,199.314z"/>
	<path fill="#FFFFFF" d="M105.862,247.86c-5.106,2.951-6.859,9.48-3.906,14.586c2.947,5.107,9.474,6.863,14.583,3.912
		c5.108-2.951,6.86-9.482,3.911-14.592C117.499,246.665,110.969,244.915,105.862,247.86z"/>
	<path fill="#FFFFFF" d="M52.803,210c0-10.554,5.243-19.878,13.266-25.527l-7.809-13.081c-9.346,6.248-16.299,15.796-19.188,26.969
		c3.372,2.756,5.53,6.944,5.53,11.64c0,4.688-2.158,8.877-5.53,11.634c2.888,11.179,9.841,20.725,19.188,26.975l7.809-13.086
		C58.045,229.878,52.803,220.559,52.803,210z"/>
	<path fill="#FFFFFF" d="M84,178.798c16.3,0,29.67,12.497,31.075,28.434l15.221-0.223c-0.751-11.768-5.89-22.329-13.788-30.094
		c-4.062,1.53-8.752,1.3-12.807-1.041c-4.062-2.344-6.609-6.296-7.305-10.59c-3.947-1.087-8.101-1.68-12.396-1.68
		c-7.382,0-14.366,1.731-20.563,4.799l7.421,13.299C74.853,179.844,79.305,178.798,84,178.798z"/>
	<path fill="#FFFFFF" d="M84,241.196c-4.695,0-9.147-1.044-13.14-2.9l-7.423,13.297c6.199,3.072,13.181,4.81,20.563,4.81
		c4.296,0,8.452-0.599,12.396-1.693c0.696-4.289,3.244-8.241,7.305-10.588c4.058-2.34,8.745-2.574,12.807-1.042
		c7.898-7.766,13.037-18.327,13.788-30.094l-15.228-0.221C113.67,228.704,100.3,241.196,84,241.196z"/>
	<path fill="#FFFFFF" d="M105.859,172.134c5.109,2.945,11.639,1.201,14.585-3.906c2.953-5.11,1.204-11.636-3.906-14.587
		c-5.109-2.952-11.636-1.202-14.589,3.907C99.003,162.656,100.755,169.184,105.859,172.134z"/>
	<g>
		<defs>
			<rect id="SVGID_155_" x="22" y="-360" width="984" height="413"/>
		</defs>
		<clipPath id="SVGID_14_">
			<use xlink:href="#SVGID_155_"  overflow="visible"/>
		</clipPath>
	</g>
</g>
<g id="Grid" display="none">
</g>
<g id="Labels">
</g>
</svg>
