<?xml version="1.0" encoding="utf-8"?>
<!-- Generator: Adobe Illustrator 18.1.1, SVG Export Plug-In . SVG Version: 6.00 Build 0)  -->
<svg version="1.1" id="Layer_1" xmlns="http://www.w3.org/2000/svg" xmlns:xlink="http://www.w3.org/1999/xlink" x="0px" y="0px"
	 width="595.3px" height="530.3px" viewBox="0 158.3 595.3 530.3" enable-background="new 0 158.3 595.3 530.3"
	 xml:space="preserve">
<g>
	<path fill="#F7F7F7" d="M413.8,633h-279c-46.3,0-83.7-37.4-83.7-83.7c0-44.4,34.7-80.8,78.5-83.5c-19.6-39.3-5.4-87.4,33.1-109.8
		s87.4-10.3,111.6,26.3c24.2-36.6,73.2-48.6,111.6-26.3s52.7,70.5,33.1,109.8c43.8,2.7,78.5,39.1,78.5,83.5
		C497.5,595.6,459.9,633,413.8,633z"/>
</g>
<g>
	<path fill="#DE4815" d="M483.7,542.9H111.6C50,542.9,0,492.9,0,431.3C0,372,46.3,323.4,104.8,319.9c-26.3-52.5-7.4-116.8,44-146.5
		c51.5-29.6,116.6-13.8,148.8,34.9c32.2-48.8,97.4-64.7,148.8-34.9s70.3,94,44,146.3c58.5,3.5,104.8,52.1,104.8,111.4
		C595.3,492.9,545.3,542.9,483.7,542.9z"/>
</g>
<g>
	<path fill="#5E2750" d="M524.4,688.6h-186c-30.8,0-55.8-25-55.8-55.8c0-29.8,23.1-53.9,52.3-55.6c-13-26.3-3.7-58.3,22.1-73.2
		c25.6-14.9,58.3-6.8,74.4,17.6c16.1-24.4,48.8-32.2,74.4-17.6c25.6,14.9,35.1,46.9,22.1,73.2c29.1,1.9,52.3,26,52.3,55.6
		C580.2,663.6,555.2,688.6,524.4,688.6z"/>
</g>
<g id="_x37_3">
	<path fill="#FFFFFF" d="M344,292.5L344,292.5l-40,79c-1.2,2.4-3.6,3.8-6.2,3.8l0,0c-2.6,0-5-1.4-6.1-3.8L252,292.1l0,0
		c-27.5,15.8-46,45.5-46,79.5c0,50.5,41.1,91.7,91.7,91.7s91.7-41.1,91.7-91.7C389.3,337.9,371.1,308.5,344,292.5z M274.7,418
		c-3.2,0-5.7-2.6-5.7-5.7s2.6-5.7,5.7-5.7c3.2,0,5.7,2.6,5.7,5.7S277.8,418,274.7,418z M274.7,394.7c-3.2,0-5.7-2.6-5.7-5.7
		c0-3.2,2.6-5.7,5.7-5.7c3.2,0,5.7,2.6,5.7,5.7C280.4,392.1,277.8,394.7,274.7,394.7z M362.3,371.5h-16.2l-16.4-0.1
		c-0.9,0-1.8-0.5-2.3-1.3s-0.5-1.8-0.1-2.6l16.4-32.6c0.5-0.9,1.4-1.5,2.4-1.5s1.9,0.6,2.4,1.5l16.2,32.6c0.4,0.8,0.4,1.8-0.1,2.6
		C364.1,371.1,363.2,371.5,362.3,371.5z M319.8,282.6l-8.5,16.4l0,0l10.2,21.1V320l-19.3,37.6c-0.8,1.6-2.5,2.6-4.3,2.6l0,0
		c-1.8,0-3.5-1-4.3-2.6l-19-37.5v0.2l10.2-20.9l-8.7-16.9l0,0c6.9-1.7,14.1-2.5,21.4-2.5C305.3,279.9,312.7,280.8,319.8,282.6"/>
</g>
</svg>
