<?xml version="1.0" encoding="UTF-8" standalone="no"?>
<!-- Generator: Adobe Illustrator 15.1.0, SVG Export Plug-In . SVG Version: 6.00 Build 0)  -->

<svg
   xmlns:dc="http://purl.org/dc/elements/1.1/"
   xmlns:cc="http://creativecommons.org/ns#"
   xmlns:rdf="http://www.w3.org/1999/02/22-rdf-syntax-ns#"
   xmlns:svg="http://www.w3.org/2000/svg"
   xmlns="http://www.w3.org/2000/svg"
   xmlns:sodipodi="http://sodipodi.sourceforge.net/DTD/sodipodi-0.dtd"
   xmlns:inkscape="http://www.inkscape.org/namespaces/inkscape"
   version="1.1"
   id="Layer_1"
   x="0px"
   y="0px"
   width="141.732px"
   height="141.732px"
   viewBox="70.866 70.866 141.732 141.732"
   enable-background="new 70.866 70.866 141.732 141.732"
   xml:space="preserve"
   inkscape:version="0.91 r13725"
   sodipodi:docname="irc.svg"><metadata
     id="metadata9"><rdf:RDF><cc:Work
         rdf:about=""><dc:format>image/svg+xml</dc:format><dc:type
           rdf:resource="http://purl.org/dc/dcmitype/StillImage" /></cc:Work></rdf:RDF></metadata><defs
     id="defs7" /><sodipodi:namedview
     pagecolor="#ffffff"
     bordercolor="#666666"
     borderopacity="1"
     objecttolerance="10"
     gridtolerance="10"
     guidetolerance="10"
     inkscape:pageopacity="0"
     inkscape:pageshadow="2"
     inkscape:window-width="1304"
     inkscape:window-height="716"
     id="namedview5"
     showgrid="false"
     inkscape:zoom="1.6651145"
     inkscape:cx="-18.617339"
     inkscape:cy="70.865997"
     inkscape:window-x="282"
     inkscape:window-y="156"
     inkscape:window-maximized="0"
     inkscape:current-layer="Layer_1" /><path
     fill="#DD4814"
     d="M172.166,189.588c-9.004,5.745-19.461,8.837-30.398,8.837c-10.956,0-21.429-3.102-30.443-8.862  c1.294-1.312,2.048-3.097,2.048-4.987v-14.617h-3.591c-1.961,0-3.551-1.59-3.551-3.551c0-1.962,1.59-3.552,3.551-3.552h3.591  v-14.211h17.756c3.806,0,6.912-2.994,7.094-6.755c0.007-0.121,0.01-0.243,0.01-0.363c0-20.142-10.542-37.856-26.389-47.951  c8.896-5.551,19.178-8.535,29.924-8.535c10.731,0,21,2.976,29.887,8.513c-15.865,10.09-26.423,27.816-26.423,47.972  c0,0.119,0.004,0.24,0.011,0.361c0.18,3.763,3.287,6.757,7.094,6.757h17.757v14.213h3.592c1.961,0,3.551,1.59,3.551,3.551  s-1.59,3.551-3.551,3.551h-3.592v14.617C170.093,186.479,170.855,188.273,172.166,189.588z M184.334,123.738  c0-1.961-1.588-3.553-3.55-3.553c-1.961,0-3.552,1.592-3.552,3.553c0,1.961,1.591,3.549,3.552,3.549  C182.746,127.287,184.334,125.699,184.334,123.738z M102.68,120.186c-1.961,0-3.55,1.592-3.55,3.553c0,1.961,1.589,3.549,3.55,3.549  c1.961,0,3.553-1.588,3.553-3.549C106.233,121.778,104.641,120.186,102.68,120.186z"
     id="path3"
     style="fill:#2d333a;fill-opacity:1" /></svg>