<?xml version="1.0" encoding="UTF-8" standalone="no"?>
<!-- Generator: Adobe Illustrator 15.1.0, SVG Export Plug-In . SVG Version: 6.00 Build 0)  -->

<svg
   xmlns:dc="http://purl.org/dc/elements/1.1/"
   xmlns:cc="http://creativecommons.org/ns#"
   xmlns:rdf="http://www.w3.org/1999/02/22-rdf-syntax-ns#"
   xmlns:svg="http://www.w3.org/2000/svg"
   xmlns="http://www.w3.org/2000/svg"
   xmlns:sodipodi="http://sodipodi.sourceforge.net/DTD/sodipodi-0.dtd"
   xmlns:inkscape="http://www.inkscape.org/namespaces/inkscape"
   version="1.1"
   id="Layer_1"
   x="0px"
   y="0px"
   width="141.732px"
   height="141.732px"
   viewBox="70.866 70.866 141.732 141.732"
   enable-background="new 70.866 70.866 141.732 141.732"
   xml:space="preserve"
   inkscape:version="0.91 r13725"
   sodipodi:docname="pictogram-email-orange-hex.svg"><metadata
     id="metadata9"><rdf:RDF><cc:Work
         rdf:about=""><dc:format>image/svg+xml</dc:format><dc:type
           rdf:resource="http://purl.org/dc/dcmitype/StillImage" /></cc:Work></rdf:RDF></metadata><defs
     id="defs7" /><sodipodi:namedview
     pagecolor="#ffffff"
     bordercolor="#666666"
     borderopacity="1"
     objecttolerance="10"
     gridtolerance="10"
     guidetolerance="10"
     inkscape:pageopacity="0"
     inkscape:pageshadow="2"
     inkscape:window-width="705"
     inkscape:window-height="480"
     id="namedview5"
     showgrid="false"
     inkscape:zoom="1.6651145"
     inkscape:cx="70.865997"
     inkscape:cy="70.865997"
     inkscape:window-x="581"
     inkscape:window-y="255"
     inkscape:window-maximized="0"
     inkscape:current-layer="Layer_1" /><path
     fill="#DD4814"
     d="M198.412,141.731c0-31.26-25.432-56.692-56.688-56.692S85.04,110.471,85.04,141.731  c0,31.26,25.428,56.695,56.684,56.695h14.193c3.912,0,7.086-3.174,7.086-7.087c0-3.915-3.174-7.087-7.086-7.087h-14.193  c-23.441,0-42.514-19.075-42.514-42.521s19.073-42.519,42.514-42.519c23.445,0,42.515,19.073,42.515,42.523l0.015,21.275  c0,3.908-3.18,7.088-7.084,7.088c-3.908,0-7.088-3.18-7.088-7.088l-0.012,0.006v-20.418v-0.867c0-15.63-12.719-28.346-28.344-28.346  c-15.629,0-28.344,12.715-28.344,28.346c0,15.63,12.715,28.346,28.344,28.346c5.258,0,10.189-1.44,14.417-3.948l-0.004,0.002  c1.514,10.249,10.367,18.139,21.03,18.139c11.722,0,21.257-9.537,21.257-21.265L198.412,141.731z M141.732,155.904  c-7.815,0-14.173-6.357-14.173-14.172c0-7.816,6.358-14.174,14.173-14.174c7.812,0,14.174,6.358,14.174,14.174  C155.906,149.547,149.544,155.904,141.732,155.904z"
     id="path3"
     style="fill:#2d333a;fill-opacity:1" /></svg>