<?xml version="1.0" encoding="utf-8"?>
<!-- Generator: Adobe Illustrator 18.0.0, SVG Export Plug-In . SVG Version: 6.00 Build 0)  -->
<!DOCTYPE svg PUBLIC "-//W3C//DTD SVG 1.1//EN" "http://www.w3.org/Graphics/SVG/1.1/DTD/svg11.dtd">
<svg version="1.1" id="Layer_1" xmlns="http://www.w3.org/2000/svg" xmlns:xlink="http://www.w3.org/1999/xlink" x="0px" y="0px"
	 width="490px" height="221px" viewBox="0 0 490 221" enable-background="new 0 0 490 221" xml:space="preserve">
<path fill="#DD4815" d="M144,141H6c-3.3,0-6-2.7-6-6V87c0-3.3,2.7-6,6-6h138c3.3,0,6,2.7,6,6v48C150,138.3,147.3,141,144,141z"/>
<text transform="matrix(1 0 0 1 20.4908 117.5052)"><tspan x="0" y="0" fill="#FFFFFF" font-weight="300" font-family="Ubuntu" font-size="18">F</tspan><tspan x="10.1" y="0" fill="#FFFFFF" font-weight="300" font-family="Ubuntu" font-size="18">rameworks</tspan></text>
<path fill="none" stroke="#B2B2B2" stroke-width="2" stroke-miterlimit="10" d="M143,61H7c-3.3,0-6-2.7-6-6V7c0-3.3,2.7-6,6-6h136
	c3.3,0,6,2.7,6,6v48C149,58.3,146.3,61,143,61z"/>
<text transform="matrix(1 0 0 1 52.6502 37.5052)" fill="#333333" font-weight="300" font-family="Ubuntu" font-size="18">Apps</text>
<g>
	<path fill="#DD4815" d="M314,141H176c-3.3,0-6-2.7-6-6V87c0-3.3,2.7-6,6-6h138c3.3,0,6,2.7,6,6v48C320,138.3,317.3,141,314,141z"/>
	<text transform="matrix(1 0 0 1 190.4908 117.5052)"><tspan x="0" y="0" fill="#FFFFFF" font-weight="300" font-family="Ubuntu" font-size="18">F</tspan><tspan x="10.1" y="0" fill="#FFFFFF" font-weight="300" font-family="Ubuntu" font-size="18">rameworks</tspan></text>
</g>
<g>
	<path fill="#5E2750" d="M484,221H6c-3.3,0-6-2.7-6-6v-48c0-3.3,2.7-6,6-6h478c3.3,0,6,2.7,6,6v48C490,218.3,487.3,221,484,221z"/>
	<g>
		<text transform="matrix(1 0 0 1 189.5112 197.5052)" fill="#FFFFFF" font-weight="300" font-family="Ubuntu" font-size="18">Ubuntu core</text>
	</g>
</g>
<path fill="none" stroke="#B2B2B2" stroke-width="2" stroke-miterlimit="10" d="M313,61H177c-3.3,0-6-2.7-6-6V7c0-3.3,2.7-6,6-6h136
	c3.3,0,6,2.7,6,6v48C319,58.3,316.3,61,313,61z"/>
<text transform="matrix(1 0 0 1 222.6502 37.5052)" fill="#333333" font-weight="300" font-family="Ubuntu" font-size="18">Apps</text>
<g>
	<path fill="#DD4815" d="M484,141H346c-3.3,0-6-2.7-6-6V87c0-3.3,2.7-6,6-6h138c3.3,0,6,2.7,6,6v48C490,138.3,487.3,141,484,141z"/>
	<text transform="matrix(1 0 0 1 360.4908 117.5052)"><tspan x="0" y="0" fill="#FFFFFF" font-weight="300" font-family="Ubuntu" font-size="18">F</tspan><tspan x="10.1" y="0" fill="#FFFFFF" font-weight="300" font-family="Ubuntu" font-size="18">rameworks</tspan></text>
</g>
<path fill="none" stroke="#B2B2B2" stroke-width="2" stroke-miterlimit="10" d="M483,61H347c-3.3,0-6-2.7-6-6V7c0-3.3,2.7-6,6-6h136
	c3.3,0,6,2.7,6,6v48C489,58.3,486.3,61,483,61z"/>
<text transform="matrix(1 0 0 1 392.6502 37.5052)" fill="#333333" font-weight="300" font-family="Ubuntu" font-size="18">Apps</text>
</svg>
