<svg xmlns="http://www.w3.org/2000/svg" width="452" height="319.5" viewBox="0 0 452 319.5"><path fill="#DD4815" d="M201 88.5v57.8l-50-28.9V59.7zM251 59.7v57.7l-50 28.9V88.5zM201 30.8l50 28.9-50 28.8-50-28.8z"/><g fill="#DD4815" stroke="#fff" stroke-width="2" stroke-linecap="round" stroke-linejoin="round"><path d="M201 88.5v57.8M151 59.7v57.7M251 117.4V59.7M201 88.5l50-28.8M201 30.8l-50 28.9M251 117.4l-50 28.9M151 59.7l50 28.8M201 146.3l-50-28.9M251 59.7l-50-28.9"/></g><path fill="#333" d="M301 58.7v57.8l-50-28.9V29.9zM351 29.9v57.7l-50 28.9V58.7zM301 1l50 28.9-50 28.8-50-28.8z"/><g fill="#333" stroke="#fff" stroke-width="2" stroke-linecap="round" stroke-linejoin="round"><path d="M301 58.7v57.8M251 29.9v57.7M351 87.6V29.9M301 58.7l50-28.8M301 1l-50 28.9M351 87.6l-50 28.9M251 29.9l50 28.8M301 116.5l-50-28.9M351 29.9L301 1"/></g><g fill="#5E2750"><path d="M151 116.5v57.7l50-28.9V87.6zM101 87.6v57.7l50 28.9v-57.7zM151 58.7l-50 28.9 50 28.9 50-28.9z"/></g><g fill="none" stroke="#fff" stroke-width="2" stroke-linecap="round" stroke-linejoin="round"><path d="M151 116.5v57.7M101 87.6v57.7M201 145.3V87.6M201 145.3l-50 28.9M151 58.7l-50 28.9M151 116.5l50-28.9M151 174.2l-50-28.9M201 87.6l-50-28.9M101 87.6l50 28.9"/></g><g fill="#5E2750"><path d="M301 145.3v57.8l50-28.9v-57.7zM251 116.5v57.7l50 28.9v-57.8zM301 87.6l-50 28.9 50 28.8 50-28.8z"/></g><g fill="none" stroke="#fff" stroke-width="2" stroke-linecap="round" stroke-linejoin="round"><path d="M301 145.3v57.8M251 116.5v57.7M351 174.2v-57.7M351 174.2l-50 28.9M301 87.6l-50 28.9M301 145.3l50-28.8M301 203.1l-50-28.9M351 116.5l-50-28.9M251 116.5l50 28.8"/></g><g fill="#5E2750"><path d="M401 260.8v57.7l50-28.8v-57.8zM351 231.9v57.8l50 28.8v-57.7zM401 203.1l-50 28.8 50 28.9 50-28.9z"/></g><g fill="none" stroke="#fff" stroke-width="2" stroke-linecap="round" stroke-linejoin="round"><path d="M401 260.8v57.7M351 231.9v57.8M451 289.7v-57.8M451 289.7l-50 28.8M401 203.1l-50 28.8M401 260.8l50-28.9M401 318.5l-50-28.8M451 231.9l-50-28.8M351 231.9l50 28.9"/></g><g fill="#B2B2B2"><path d="M201 145.3v57.8l-50-28.9v-57.7zM251 116.5v57.7l-50 28.9v-57.8zM201 87.6l50 28.9-50 28.8-50-28.8z"/></g><g fill="#B2B2B2" stroke="#fff" stroke-width="2" stroke-linecap="round" stroke-linejoin="round"><path d="M201 145.3v57.8M151 116.5v57.7M251 174.2v-57.7M201 145.3l50-28.8M251 174.2l-50 28.9M201 87.6l-50 28.9M201 203.1l-50-28.9M251 116.5l-50-28.9M151 116.5l50 28.8"/></g><path fill="#B2B2B2" d="M51 145.3v57.8l50-28.9v-57.7zM1 116.5v57.7l50 28.9v-57.8zM51 87.6L1 116.5l50 28.8 50-28.8z"/><g fill="#B2B2B2" stroke="#fff" stroke-width="2" stroke-linecap="round" stroke-linejoin="round"><path d="M51 145.3v57.8M1 116.5v57.7M101 174.2v-57.7M101 174.2l-50 28.9M51 87.6L1 116.5M51 145.3l50-28.8M51 203.1L1 174.2M101 116.5L51 87.6M1 116.5l50 28.8"/></g><path fill="#DD4815" d="M151 174.2v57.7l-50-28.8v-57.8zM201 145.3v57.8l-50 28.8v-57.7zM151 116.5l50 28.8-50 28.9-50-28.9z"/><g fill="#DD4815" stroke="#fff" stroke-width="2" stroke-linecap="round" stroke-linejoin="round"><path d="M151 174.2v57.7M101 145.3v57.8M201 203.1v-57.8M151 174.2l50-28.9M151 116.5l-50 28.8M201 203.1l-50 28.8M101 145.3l50 28.9M151 231.9l-50-28.8M201 145.3l-50-28.8"/></g><g fill="#DD4815"><path d="M201 203.1v57.7l-50-28.9v-57.7zM251 174.2v57.7l-50 28.9v-57.7zM201 145.3l50 28.9-50 28.9-50-28.9z"/></g><g fill="none" stroke="#fff" stroke-width="2" stroke-linecap="round" stroke-linejoin="round"><path d="M201 203.1v57.7M251 231.9v-57.7M151 174.2v57.7M251 231.9l-50 28.9M201 145.3l-50 28.9M201 203.1l50-28.9M201 260.8l-50-28.9M151 174.2l50 28.9M251 174.2l-50-28.9"/></g></svg>