<?xml version="1.0" encoding="utf-8"?>
<!-- Generator: Adobe Illustrator 16.0.0, SVG Export Plug-In . SVG Version: 6.00 Build 0)  -->
<!DOCTYPE svg PUBLIC "-//W3C//DTD SVG 1.1//EN" "http://www.w3.org/Graphics/SVG/1.1/DTD/svg11.dtd">
<svg version="1.1"
	 id="svg6517" xmlns:dc="http://purl.org/dc/elements/1.1/" xmlns:ns0="http://www.w3.org/2000/svg" xmlns:ns1="http://www.inkscape.org/namespaces/inkscape" xmlns:ns2="http://sodipodi.sourceforge.net/DTD/sodipodi-0.dtd" xmlns:ns3="http://www.w3.org/1999/xlink" xmlns:ns5="http://creativecommons.org/ns#" xmlns:rdf="http://www.w3.org/1999/02/22-rdf-syntax-ns#" ns1:version="0.48+devel r12591" ns2:docname="openstack-nova.svg"
	 xmlns="http://www.w3.org/2000/svg" xmlns:xlink="http://www.w3.org/1999/xlink" x="0px" y="0px" width="262.5px" height="262.5px"
	 viewBox="0 0 262.5 262.5" enable-background="new 0 0 262.5 262.5" xml:space="preserve">
<ns0:filter  ns1:collect="always" ns1:label="Badge Shadow" id="filter891">
	<ns0:feGaussianBlur  ns1:collect="always" stdDeviation="0.71999962" id="feGaussianBlur893"></ns0:feGaussianBlur>
</ns0:filter>
<ns0:filter  ns1:collect="always" id="filter3885">
	<ns0:feGaussianBlur  ns1:collect="always" stdDeviation="5.7442192" id="feGaussianBlur3887"></ns0:feGaussianBlur>
</ns0:filter>
<ns0:filter  ns1:collect="always" id="filter3868" x="-0.17186206" y="-0.1643077" height="1.3286154" width="1.3437241">
	<ns0:feGaussianBlur  ns1:collect="always" stdDeviation="0.62628186" id="feGaussianBlur3870"></ns0:feGaussianBlur>
</ns0:filter>
<ns0:filter  ns1:collect="always" id="filter3831">
	<ns0:feGaussianBlur  ns1:collect="always" stdDeviation="0.86309522" id="feGaussianBlur3833"></ns0:feGaussianBlur>
</ns0:filter>
<ns0:filter  ns1:label="Inner Shadow" id="filter1121" style="color-interpolation-filters:sRGB;">
	<ns0:feFlood  result="flood" flood-opacity="0.59999999999999998" flood-color="rgb(0,0,0)" id="feFlood1123"></ns0:feFlood>
	<ns0:feComposite  operator="out" in2="SourceGraphic" in="flood" result="composite1" id="feComposite1125"></ns0:feComposite>
	<ns0:feGaussianBlur  in="composite1" stdDeviation="1" result="blur" id="feGaussianBlur1127"></ns0:feGaussianBlur>
	<ns0:feOffset  dy="2" dx="0" result="offset" id="feOffset1129"></ns0:feOffset>
	<ns0:feComposite  operator="atop" in2="SourceGraphic" in="offset" result="composite2" id="feComposite1131"></ns0:feComposite>
</ns0:filter>
<g id="layer1" transform="translate(268,-635.29076)" ns1:groupmode="layer" ns1:label="BACKGROUND">
	<g id="path6455" ns1:connector-curvature="0" ns2:nodetypes="sssssssss" filter="url(#filter1121)">
		
			<linearGradient id="SVGID_1_" gradientUnits="userSpaceOnUse" x1="-404.7505" y1="-165.4998" x2="-404.7505" y2="96.9998" gradientTransform="matrix(1 0 0 -1 268 732.2905)">
			<stop  offset="0" style="stop-color:#CCCCCC"/>
			<stop  offset="1" style="stop-color:#E6E6E6"/>
		</linearGradient>
		<path fill="url(#SVGID_1_)" d="M-268,812.657v-92.23c0-74.493,10.63-85.136,85.047-85.136h92.404
			c74.418,0,85.049,10.643,85.049,85.136v92.23c0,74.49-10.631,85.134-85.049,85.134h-92.404
			C-257.37,897.791-268,887.147-268,812.657z"/>
	</g>
	<path id="path4494" ns1:connector-curvature="0" ns2:nodetypes="cccc" fill="#C42E24" d="M-121.834,740.179l-8.961-8.96
		l-4.398,14.319L-121.834,740.179z"/>
	<g id="g4336">
		<g id="g3897" transform="matrix(0.06790711,0,0,-0.06790711,-239.0411,765.68623)">
			<g id="path3821" ns1:connector-curvature="0" opacity="0.7" filter="url(#filter3831)" enable-background="new    ">
				
					<radialGradient id="SVGID_2_" cx="-8993.2197" cy="-3092.0342" r="55.7968" gradientTransform="matrix(-1.0333 1.6395 0.8458 0.533 -5729.0107 15180.5811)" gradientUnits="userSpaceOnUse">
					<stop  offset="0" style="stop-color:#000000"/>
					<stop  offset="1" style="stop-color:#000000;stop-opacity:0"/>
				</radialGradient>
				<path fill="url(#SVGID_2_)" d="M322.406-579.781c-25.382,0.086-60.666-0.618-98.869-2.747
					c-76.449-4.285-165.474-13.69-225.895-44.437c-14.23-7.392-19.817-24.893-12.461-39.13c1.374-2.632,3.128-5.033,5.213-7.119
					l601.438-619.6c6.255-6.73,15.33-10.11,24.476-9.089l405.498,61.708c15.848,2.43,26.72,17.257,24.29,33.105
					c-1.007,6.414-4.113,12.339-8.873,16.797l-655.84,601.394c-4.904,4.803-11.333,7.708-18.149,8.183
					C363.233-580.715,347.774-579.852,322.406-579.781z"/>
			</g>
			<g id="path3858" ns1:connector-curvature="0" opacity="0.6" filter="url(#filter3868)" enable-background="new    ">
				
					<line fill="none" stroke="#000000" stroke-width="2.7743" stroke-linecap="round" x1="389.493" y1="-983.653" x2="643.358" y2="-1249.21"/>
			</g>
			<g id="path3874" ns1:connector-curvature="0" opacity="0.3" filter="url(#filter3885)" enable-background="new    ">
				
					<linearGradient id="SVGID_3_" gradientUnits="userSpaceOnUse" x1="68725.8906" y1="-99394.1641" x2="67631.9688" y2="-98300.2422" gradientTransform="matrix(0.0679 0 0 0.0679 -3823.9722 5643.7207)">
					<stop  offset="0" style="stop-color:#000000"/>
					<stop  offset="1" style="stop-color:#000000;stop-opacity:0"/>
				</linearGradient>
				<path fill="url(#SVGID_3_)" d="M479.33-647.845c-0.906-0.273-1.826-0.546-2.718-0.906l-117.017-14.51
					c-15.905-1.999-27.18-16.509-25.167-32.443c0.791-6.212,3.581-12.022,7.938-16.509l385.523-396.452
					c6.27-6.73,15.358-10.066,24.49-9.045l134.26,20.838c15.848,2.445,26.72,17.314,24.26,33.119
					c-0.935,5.968-3.696,11.562-7.924,15.876L500.211-655.985C494.631-650.592,487.11-647.644,479.33-647.845z"/>
			</g>
		</g>
		<path id="path4308" fill="#871F1C" d="M-211.406,691.388c-3.72,1.604-6.422,5.306-6.43,9.447l0.021,124.771
			c-0.011,2.393,0.908,4.479,2.376,6.02l-0.026,0.026l0.396,0.39c0.008,0.008,0.019,0.014,0.026,0.021l19.941,19.59l18.671-20.204
			l34.729-3.044l-8.956,0.779l0.006-35.898l8.961-0.785l-0.011,35.904l57.674-5.053c1.266-0.111,2.467-0.475,3.572-1.02
			l-50.372-50.372c-4.011,4.136-9.396,6.945-15.338,7.466c-12.369,1.084-22.395-8.08-22.394-20.476
			c0.002-6.614,2.875-12.796,7.418-17.304L-211.406,691.388z M-181.995,755.64v8.978l-35.819,3.135v-8.972L-181.995,755.64z"/>
		<path id="path4233" fill="#C42E24" d="M-83.921,679.735L-208.33,690.56c-1.082,0.096-2.105,0.41-3.076,0.828l50.266,50.26
			c3.971-3.938,9.211-6.603,14.98-7.108c0.773-0.069,1.538-0.096,2.291-0.085c11.296,0.158,20.104,8.945,20.102,20.566
			c0,6.44-2.723,12.468-7.06,16.94l50.372,50.372c3.477-1.715,5.931-5.312,5.938-9.266l0.027-57.876l-35.836,3.146v-8.982
			l35.841-3.141l0.011-25.101l17.656-19.108l-20.07-19.739l-0.021,0.027C-78.639,680.525-81.125,679.51-83.921,679.735z
			 M-141.669,684.765l-0.005,35.916l-8.962,0.785l0.006-35.921L-141.669,684.765z"/>
		<rect id="rect3585-3" x="-242.588" y="671.385" fill="none" width="189.237" height="189.238"/>
		
			<linearGradient id="path4256_1_" gradientUnits="userSpaceOnUse" x1="-208.9199" y1="657.9255" x2="-198.7698" y2="668.0757" gradientTransform="matrix(1 0 0 -1 0 1367.5815)">
			<stop  offset="0" style="stop-color:#871F1C"/>
			<stop  offset="1" style="stop-color:#C42E24"/>
		</linearGradient>
		<path id="path4256" fill="url(#path4256_1_)" d="M-207.764,690.512l-0.566,0.048c-5.201,0.462-9.438,5.004-9.495,10.189
			l17.261,17.262l2.579,2.579v-0.251c0.011-5.222,4.275-9.811,9.507-10.275l0.245-0.021l-2.185-2.185L-207.764,690.512z"/>
		
			<linearGradient id="path4272_1_" gradientUnits="userSpaceOnUse" x1="-69.2539" y1="677.8137" x2="-71.5572" y2="675.5105" gradientTransform="matrix(1 0 0 -1 0 1367.5815)">
			<stop  offset="0" style="stop-color:#871F1C"/>
			<stop  offset="1" style="stop-color:#C42E24"/>
		</linearGradient>
		<path id="path4272" opacity="0.536" fill="url(#path4272_1_)" enable-background="new    " d="M-83.895,679.735l1.918,1.917
			l17.612,17.613l0.294-0.026c2.602-0.211,4.951,0.64,6.66,2.185l-19.478-19.157l-0.021,0.027
			C-78.634,680.531-81.112,679.519-83.895,679.735z M-57.304,701.525c0.166,0.155,0.299,0.343,0.454,0.512l0.032-0.031
			L-57.304,701.525z"/>
		
			<linearGradient id="path4290_1_" gradientUnits="userSpaceOnUse" x1="-205.6777" y1="529.5647" x2="-207.328" y2="527.9144" gradientTransform="matrix(1 0 0 -1 0 1367.5815)">
			<stop  offset="0" style="stop-color:#871F1C"/>
			<stop  offset="1" style="stop-color:#651715"/>
		</linearGradient>
		<path id="path4290" fill="url(#path4290_1_)" d="M-217.788,825.912c0.068,2.265,0.945,4.24,2.35,5.715l-0.026,0.026l0.396,0.39
			c0.008,0.008,0.019,0.014,0.026,0.021l19.776,19.429c-1.517-1.415-2.465-3.409-2.628-5.688l-18.286-18.291L-217.788,825.912z
			 M-195.165,851.59l0.063,0.064l0.011-0.012C-195.113,851.622-195.143,851.611-195.165,851.59z"/>
		
			<linearGradient id="path4472_1_" gradientUnits="userSpaceOnUse" x1="-402.1992" y1="-57.2371" x2="-374.6642" y2="-29.7021" gradientTransform="matrix(1 0 0 -1 268 732.2905)">
			<stop  offset="0" style="stop-color:#871F1C"/>
			<stop  offset="1" style="stop-color:#C42E24"/>
		</linearGradient>
		<path id="path4472" ns1:connector-curvature="0" ns2:nodetypes="ccscccscc" fill="url(#path4472_1_)" d="M-123.815,753.964
			c0.017,0.353,0.048,0.7,0.048,1.058c0,6.44-2.723,12.468-7.06,16.94c-4.011,4.136-9.396,6.945-15.338,7.466
			c-0.846,0.075-1.679,0.088-2.5,0.069c-1.986,13.79-6.192,21.501,22.34,19.429c12.369-1.084,22.396-12.011,22.398-24.406
			C-103.924,762.972-112.624,754.23-123.815,753.964L-123.815,753.964z"/>
		<path id="path4488" ns1:connector-curvature="0" ns2:nodetypes="cccccc" fill="#C42E24" d="M-150.63,685.546l19.84,19.519
			l-10.883,8.844l-17.962-6.354l-18.148-19.637L-150.63,685.546z"/>
		<path id="path4498" ns1:connector-curvature="0" fill="#871F1C" d="M-54.639,774.718l-8.277-8.279l-35.251-2.592l2.219,25.576
			L-54.639,774.718z"/>
		<path id="path4517" ns1:connector-curvature="0" fill="#871F1C" d="M-121.86,847.904l-8.956-8.956l-10.878-32.283l31.146-1.058
			L-121.86,847.904z"/>
		
			<linearGradient id="path4633-5_1_" gradientUnits="userSpaceOnUse" x1="-126.2949" y1="520.6365" x2="-126.2949" y2="664.2554" gradientTransform="matrix(1 0 0 -1 0 1367.5815)">
			<stop  offset="0" style="stop-color:#D93023"/>
			<stop  offset="1" style="stop-color:#E63F46"/>
		</linearGradient>
		<path id="path4633-5" fill="url(#path4633-5_1_)" d="M-64.07,699.239l-57.758,5.025l-0.006,35.915l-8.961,0.785l0.005-35.921
			l-57.688,5.021c-5.231,0.465-9.496,5.054-9.507,10.275l0.011,57.939l35.819-3.14v8.978l-35.819,3.135l0.011,57.859
			c-0.021,5.221,4.229,9.098,9.458,8.642l124.329-10.896c5.252-0.464,9.501-5.073,9.512-10.285l0.026-57.882l-35.846,3.146v-8.982
			l35.846-3.141c0.032-87.028,0.032-59.04,0,8.978l0.032-66.789C-54.599,702.668-58.831,698.815-64.07,699.239z M-124.028,753.953
			c11.295,0.159,20.104,8.945,20.102,20.566c-0.003,12.396-10.029,23.322-22.398,24.406c-12.369,1.085-22.395-8.08-22.394-20.476
			c0.002-12.396,10.029-23.327,22.398-24.411C-125.546,753.969-124.781,753.942-124.028,753.953z M-121.85,812l-0.011,35.904
			l-8.956,0.78l0.005-35.899L-121.85,812z"/>
		<path id="path4486" ns1:connector-curvature="0" fill="#871F1C" d="M-217.814,758.781l19.84,19.498l-0.005-28.97l-19.852-20.184
			L-217.814,758.781z"/>
		<path id="path4490" ns1:connector-curvature="0" ns2:nodetypes="ccccccc" fill="#871F1C" d="M-141.669,684.765l19.841,19.499
			l-0.006,35.915l-8.961-8.96l0.005-26.176l-10.881-10.684L-141.669,684.765z"/>
		<path id="path4175" opacity="0.3" fill="#FFFFFF" enable-background="new    " d="M-64.07,699.239l-57.758,5.025v0.545
			l57.758-5.025c5.239-0.424,9.472,3.429,9.464,8.662v-0.545C-54.599,702.668-58.831,698.815-64.07,699.239z M-130.79,705.044
			l-57.688,5.021c-5.231,0.465-9.496,5.054-9.507,10.275v0.545c0.011-5.222,4.275-9.811,9.507-10.275l57.688-5.021V705.044z
			 M-121.834,740.179l-8.961,0.785v0.545l8.961-0.785V740.179z M-54.639,774.69l-35.846,3.146v0.545l35.846-3.146
			C-54.639,771.107-54.639,778.507-54.639,774.69z M-103.943,774.781c-0.144,12.289-10.099,23.068-22.382,24.145
			c-12.276,1.074-22.23-7.949-22.377-20.203c-0.001,0.091-0.017,0.182-0.017,0.272c-0.001,12.396,10.024,21.56,22.394,20.476
			s22.396-12.011,22.398-24.406C-103.927,774.969-103.943,774.878-103.943,774.781z M-162.155,784.117l-35.819,3.135v0.545
			l35.819-3.135V784.117z M-121.86,847.904l-8.956,0.78v0.011l8.956-0.785V847.904z"/>
	</g>
</g>
<g id="layer3" ns1:groupmode="layer" ns1:label="PLACE YOUR PICTOGRAM HERE">
</g>
<g id="layer2" ns2:insensitive="true" ns1:groupmode="layer" ns1:label="BADGE" display="none">
	<g id="g4394" transform="translate(-340.00001,-581)" display="inline">
		<g id="g855">
			<g id="g870" ns1:groupmode="maskhelper" opacity="0.6" filter="url(#filter891)">
				<path id="path844_1_" ns2:type="arc" ns2:ry="12" ns2:rx="12" ns2:cy="552.36218" ns2:cx="252" d="M366,591
					c0,9.941-8.059,18-18,18s-18-8.059-18-18s8.059-18,18-18S366,581.059,366,591z"/>
			</g>
			<g id="g862">
				<path id="path4398" ns2:type="arc" ns2:ry="12" ns2:rx="12" ns2:cy="552.36218" ns2:cx="252" fill="#F5F5F5" d="M366,590
					c0,9.941-8.059,18-18,18s-18-8.059-18-18s8.059-18,18-18S366,580.059,366,590z"/>
				<path id="path4400" ns2:type="arc" ns2:ry="12" ns2:rx="12" ns2:cy="552.36218" ns2:cx="252" fill="#DD4814" d="M363,590
					c0,8.284-6.716,15-15,15s-15-6.716-15-15s6.716-15,15-15S363,581.716,363,590z"/>
				
					<path id="path4459" ns1:rounded="0.1" ns1:randomized="0" ns1:flatsided="false" ns2:sides="5" ns2:r2="4.3458705" ns2:r1="7.2431178" ns2:arg2="1.6755161" ns2:arg1="1.0471976" ns2:type="star" ns2:cy="589.50385" ns2:cx="666.19574" fill="#F5F5F5" d="
					M354.511,598.909c-0.554,0.405-5.792-2.284-6.479-2.281c-0.687,0.002-5.908,2.724-6.465,2.322
					c-0.557-0.402,0.381-6.215,0.167-6.868c-0.214-0.652-4.416-4.777-4.206-5.431c0.21-0.654,6.028-1.558,6.583-1.963
					c0.554-0.405,3.179-5.676,3.865-5.678c0.688-0.002,3.345,5.252,3.901,5.654c0.557,0.402,6.381,1.269,6.595,1.922
					c0.214,0.652-3.961,4.803-4.172,5.458C354.09,592.697,355.065,598.503,354.511,598.909z"/>
			</g>
		</g>
	</g>
</g>
</svg>
