<?xml version="1.0" encoding="utf-8"?>
<!-- Generator: Adobe Illustrator 15.1.0, SVG Export Plug-In . SVG Version: 6.00 Build 0)  -->
<!DOCTYPE svg PUBLIC "-//W3C//DTD SVG 1.1//EN" "http://www.w3.org/Graphics/SVG/1.1/DTD/svg11.dtd">
<svg version="1.1" id="Layer_1" xmlns="http://www.w3.org/2000/svg" xmlns:xlink="http://www.w3.org/1999/xlink" x="0px" y="0px"
	 width="141.732px" height="141.732px" viewBox="70.866 70.866 141.732 141.732"
	 enable-background="new 70.866 70.866 141.732 141.732" xml:space="preserve">
<path fill="#DD4814" d="M141.731,85.039c-31.26,0-56.692,25.433-56.692,56.693c0,31.261,25.432,56.694,56.692,56.694
	c31.262,0,56.694-25.433,56.694-56.694C198.426,110.472,172.993,85.039,141.731,85.039z M141.71,92.052
	c1.957,0,3.543,1.586,3.543,3.543l0.002,14.304c0.001,1.957-1.586,3.543-3.542,3.544c-1.957,0-3.543-1.586-3.544-3.543
	l-0.002-14.304C138.167,93.639,139.753,92.052,141.71,92.052z M95.548,145.302c-1.957,0-3.543-1.587-3.543-3.543
	s1.587-3.543,3.543-3.543h14.255c1.957,0,3.543,1.587,3.543,3.543s-1.587,3.543-3.543,3.543H95.548z M121.654,166.828
	l-10.079,10.079c-0.692,0.69-1.599,1.036-2.506,1.036c-0.907,0-1.813-0.344-2.505-1.036c-1.384-1.384-1.384-3.628,0-5.013
	l10.079-10.078c1.384-1.383,3.627-1.385,5.011,0C123.038,163.2,123.038,165.443,121.654,166.828z M121.69,121.737
	c-0.692,0.692-1.599,1.038-2.506,1.038c-0.907,0-1.813-0.346-2.505-1.038l-10.114-10.114c-1.384-1.384-1.384-3.627,0-5.011
	c1.384-1.383,3.627-1.383,5.011,0l10.114,10.114C123.074,118.109,123.074,120.353,121.69,121.737z M145.254,187.924
	c0,1.957-1.587,3.543-3.543,3.543l0,0c-1.957,0-3.543-1.587-3.543-3.543l0.002-14.257c0-1.956,1.586-3.542,3.543-3.542l0,0
	c1.957,0,3.543,1.587,3.542,3.543L145.254,187.924z M155.964,159.415c0,1.957-1.586,3.543-3.543,3.543h-17.716
	c-1.957,0-3.543-1.586-3.543-3.543v-31.889c0-1.957,1.586-3.544,3.543-3.544h17.716c1.957,0,3.543,1.587,3.543,3.544V159.415z
	 M161.734,116.725l10.113-10.115c1.385-1.383,3.629-1.383,5.012,0c1.385,1.384,1.385,3.627,0,5.011l-10.113,10.115
	c-0.692,0.692-1.6,1.038-2.506,1.038c-0.907,0-1.813-0.346-2.506-1.038C160.352,120.352,160.352,118.108,161.734,116.725z
	 M176.861,176.908c-0.692,0.691-1.601,1.037-2.506,1.037c-0.907,0-1.813-0.346-2.506-1.037l-10.08-10.08
	c-1.384-1.385-1.384-3.628,0-5.012c1.386-1.383,3.629-1.383,5.013,0l10.079,10.08C178.245,173.281,178.245,175.525,176.861,176.908z
	 M187.877,145.302h-14.305c-1.957,0-3.543-1.587-3.543-3.543s1.586-3.543,3.543-3.543h14.305c1.957,0,3.543,1.587,3.543,3.543
	S189.834,145.302,187.877,145.302z M152.29,131.303c0,1.958-1.585,3.544-3.543,3.544c-1.957,0-3.543-1.586-3.543-3.544
	c0-1.956,1.586-3.544,3.543-3.544C150.705,127.759,152.29,129.347,152.29,131.303z"/>
</svg>
