<svg xmlns="http://www.w3.org/2000/svg" width="442" height="436" viewBox="0 0 442 436"><g><path fill="#888" d="M365 270.59v30.448c0 9.605-7.784 17.392-17.393 17.392-9.596 0-17.4-7.786-17.4-17.392 0-5.714-3.693-10.565-8.81-12.334-3.098 46.627-29.047 89.05-69.27 112.286 2.672.005 5.173.616 7.418 1.7 5.944 2.753 10.062 8.762 10.08 15.747.014 9.02-6.846 16.467-15.67 17.337h-.015c-.455.04-.93.078-1.396.083h-.074c-.06 0-.103 0-.16.005H112.903c-9.59-.055-17.324-7.838-17.31-17.425.024-9.595 7.806-17.36 17.39-17.36h.078c-.01-.007-.035-.096-.057-.124-40.218-23.31-66.127-65.742-69.22-112.32-5.222 1.715-9.002 6.63-9.002 12.405 0 9.605-7.79 17.392-17.392 17.392C7.78 318.43 0 310.644 0 301.038V270.59c0-4.614 1.83-9.04 5.092-12.3 3.262-3.264 7.687-5.097 12.297-5.097h.002l28.54.014c12.238-64.304 68.856-113.07 136.658-113.07 67.804 0 124.438 48.766 136.68 113.07l28.33-.014h.008c4.61 0 9.027 1.833 12.298 5.097 3.264 3.26 5.094 7.687 5.094 12.3zm-173.77-.22c0-4.806-3.89-8.697-8.672-8.697-4.81 0-8.706 3.89-8.706 8.697v26.09c0 4.792 3.898 8.69 8.706 8.69 4.78 0 8.673-3.898 8.673-8.69v-26.09zm78.202-60.737c0-27.615-23.346-50-52.154-50-13.352 0-25.52 4.808-34.746 12.712-9.225-7.905-21.402-12.71-34.738-12.71-28.818 0-52.187 22.383-52.187 49.998 0 27.608 23.368 50.002 52.187 50.002 13.336 0 25.514-4.814 34.738-12.718 9.227 7.904 21.394 12.718 34.746 12.718 28.808 0 52.154-22.394 52.154-50.002zm-43.506.048c0 4.797-3.893 8.702-8.686 8.702-4.81 0-8.706-3.905-8.706-8.7 0-4.803 3.897-8.69 8.706-8.69 4.793 0 8.686 3.886 8.686 8.69zm-78.178-8.687c-4.807 0-8.697 3.886-8.697 8.688 0 4.797 3.892 8.702 8.698 8.702 4.8 0 8.69-3.905 8.69-8.7 0-4.804-3.89-8.69-8.69-8.69z"/><path fill="#DD4814" d="M326.51 143.822L288 154.14l10.317-38.51-.017.008c-6.55-11.325-10.3-24.474-10.3-38.5 0-42.525 34.474-77 77-77s77 34.475 77 77c0 42.528-34.474 77.002-77 77.002-14.25 0-27.596-3.87-39.045-10.62l.555.302zm41.29-87.586c1.233 1.134 1.85 2.5 1.85 4.1 0 1.934-.634 3.65-1.9 5.15-1.266 1.5-2.665 3.017-4.198 4.55-1.067 1.067-2.1 2.167-3.1 3.3-1 1.134-1.885 2.35-2.65 3.65-.768 1.3-1.385 2.7-1.85 4.2-.468 1.5-.7 3.184-.7 5.05 0 .6.015 1.317.05 2.15.033.834.115 1.584.25 2.25h13.2c-.067-.4-.1-.866-.1-1.4v-1.2c0-1.133.23-2.25.7-3.35.465-1.1 1.05-2.15 1.75-3.15s1.482-1.95 2.35-2.85c.865-.9 1.7-1.75 2.5-2.55 1.064-1.065 2.165-2.2 3.3-3.4 1.132-1.2 2.132-2.466 3-3.8.865-1.333 1.583-2.783 2.15-4.35.565-1.566.85-3.283.85-5.15 0-1.866-.317-3.833-.95-5.9-.635-2.065-1.75-3.965-3.35-5.7-1.6-1.733-3.785-3.166-6.55-4.3-2.77-1.133-6.285-1.7-10.55-1.7-3.4 0-6.868.45-10.4 1.35-3.535.9-6.6 2.184-9.2 3.85l4.2 11.3c2.6-1.333 4.965-2.3 7.1-2.9 2.133-.6 4.4-.9 6.8-.9s4.214.568 5.45 1.7zm1 41.8c-1.9-1.6-4.05-2.4-6.45-2.4s-4.55.8-6.45 2.4c-1.9 1.6-2.85 3.867-2.85 6.8 0 2.934.95 5.2 2.85 6.8s4.052 2.4 6.45 2.4 4.55-.8 6.45-2.4 2.85-3.866 2.85-6.8c0-2.933-.95-5.2-2.85-6.8z"/></g></svg>