<?xml version="1.0" encoding="utf-8"?>
<!-- Generator: Adobe Illustrator 17.0.2, SVG Export Plug-In . SVG Version: 6.00 Build 0)  -->
<!DOCTYPE svg PUBLIC "-//W3C//DTD SVG 1.1//EN" "http://www.w3.org/Graphics/SVG/1.1/DTD/svg11.dtd">
<svg version="1.1" id="Layer_1" xmlns="http://www.w3.org/2000/svg" xmlns:xlink="http://www.w3.org/1999/xlink" x="0px" y="0px"
	 width="442px" height="436px" viewBox="0 0 442 436" enable-background="new 0 0 442 436" xml:space="preserve">
<g id="BK">
</g>
<g id="Comp">
	<path fill="#888888" d="M365,270.59v30.448c0,9.605-7.784,17.392-17.393,17.392c-9.596,0-17.4-7.786-17.4-17.392
		c0-5.714-3.693-10.565-8.811-12.334c-3.097,46.627-29.046,89.049-69.268,112.286c2.671,0.005,5.172,0.616,7.417,1.699
		c5.944,2.754,10.062,8.763,10.08,15.748c0.014,9.019-6.846,16.467-15.67,17.337h-0.015c-0.455,0.041-0.931,0.078-1.396,0.083
		h-0.017H252.5h-0.029c-0.062,0-0.104,0-0.16,0.005h-0.156h-0.09H113.156h-0.254c-9.589-0.055-17.324-7.838-17.311-17.425
		c0.025-9.595,7.807-17.359,17.39-17.359h0.079c-0.01-0.008-0.035-0.097-0.057-0.125c-40.218-23.311-66.127-65.742-69.219-112.32
		c-5.223,1.715-9.003,6.629-9.003,12.405c0,9.605-7.792,17.392-17.393,17.392C7.781,318.43,0,310.644,0,301.038V270.59
		c0-4.614,1.83-9.041,5.092-12.3c3.262-3.264,7.687-5.097,12.297-5.097h0.003l28.541,0.014
		c12.237-64.304,68.855-113.07,136.657-113.07c67.804,0,124.438,48.766,136.68,113.07l28.331-0.014h0.007
		c4.611,0,9.027,1.833,12.298,5.097C363.17,261.549,365,265.977,365,270.59z M191.231,270.37c0-4.806-3.892-8.697-8.673-8.697
		c-4.809,0-8.706,3.891-8.706,8.697v26.09c0,4.792,3.898,8.689,8.706,8.689c4.781,0,8.673-3.897,8.673-8.689V270.37z
		 M269.432,209.633c0-27.615-23.346-49.999-52.154-49.999c-13.352,0-25.52,4.807-34.746,12.711
		c-9.225-7.905-21.402-12.711-34.738-12.711c-28.818,0-52.187,22.384-52.187,49.999c0,27.608,23.368,50.002,52.187,50.002
		c13.336,0,25.514-4.814,34.738-12.718c9.227,7.904,21.394,12.718,34.746,12.718C246.086,259.635,269.432,237.241,269.432,209.633z
		 M225.926,209.681c0,4.796-3.893,8.701-8.686,8.701c-4.809,0-8.706-3.905-8.706-8.701c0-4.802,3.897-8.688,8.706-8.688
		C222.033,200.993,225.926,204.878,225.926,209.681z M147.748,200.993c-4.807,0-8.697,3.886-8.697,8.688
		c0,4.796,3.891,8.701,8.697,8.701c4.801,0,8.689-3.905,8.689-8.701C156.438,204.878,152.549,200.993,147.748,200.993z"/>
	<path fill="#DD4814" d="M326.51,143.822L288,154.14l10.317-38.509l-0.017,0.007c-6.549-11.325-10.3-24.474-10.3-38.5
		c0-42.525,34.474-77,76.999-77c42.527,0,77.001,34.475,77.001,77c0,42.528-34.474,77.002-77.001,77.002
		c-14.248,0-27.595-3.87-39.044-10.62L326.51,143.822z M367.801,56.236c1.232,1.134,1.85,2.5,1.85,4.1c0,1.934-0.635,3.65-1.9,5.15
		c-1.267,1.5-2.666,3.017-4.199,4.55c-1.067,1.067-2.1,2.167-3.1,3.3c-1,1.134-1.885,2.35-2.65,3.65c-0.768,1.3-1.385,2.7-1.85,4.2
		c-0.468,1.5-0.701,3.184-0.701,5.05c0,0.6,0.016,1.317,0.051,2.15c0.033,0.834,0.115,1.584,0.25,2.25h13.199
		c-0.066-0.4-0.1-0.866-0.1-1.4c0-0.533,0-0.933,0-1.2c0-1.133,0.232-2.25,0.7-3.35c0.466-1.1,1.05-2.15,1.75-3.15
		s1.483-1.95,2.351-2.85c0.865-0.9,1.699-1.75,2.5-2.55c1.064-1.065,2.165-2.2,3.299-3.4c1.133-1.2,2.133-2.466,3-3.8
		c0.866-1.333,1.584-2.783,2.15-4.35c0.566-1.566,0.85-3.283,0.85-5.15c0-1.866-0.316-3.833-0.949-5.9
		c-0.635-2.065-1.75-3.965-3.35-5.7c-1.601-1.733-3.785-3.166-6.551-4.3c-2.768-1.133-6.284-1.7-10.55-1.7
		c-3.399,0-6.867,0.45-10.399,1.35c-3.535,0.9-6.601,2.184-9.201,3.85l4.201,11.3c2.6-1.333,4.965-2.3,7.1-2.9
		c2.133-0.6,4.4-0.9,6.8-0.9S366.566,55.104,367.801,56.236z M368.801,98.036c-1.9-1.6-4.051-2.4-6.45-2.4s-4.55,0.8-6.45,2.4
		c-1.9,1.6-2.85,3.867-2.85,6.8c0,2.934,0.949,5.2,2.85,6.8s4.051,2.4,6.45,2.4s4.55-0.8,6.45-2.4s2.85-3.866,2.85-6.8
		C371.65,101.903,370.701,99.636,368.801,98.036z"/>
</g>
<g id="Grid" display="none">
	<g id="Grid_1_" display="inline">
	</g>
</g>
<g id="Labels">
</g>
</svg>
