<?xml version="1.0" encoding="utf-8"?>
<!-- Generator: Adobe Illustrator 17.0.2, SVG Export Plug-In . SVG Version: 6.00 Build 0)  -->
<!DOCTYPE svg PUBLIC "-//W3C//DTD SVG 1.1//EN" "http://www.w3.org/Graphics/SVG/1.1/DTD/svg11.dtd">
<svg version="1.1" xmlns="http://www.w3.org/2000/svg" xmlns:xlink="http://www.w3.org/1999/xlink" x="0px" y="0px" width="288px"
	 height="186px" viewBox="0 0 288 186" enable-background="new 0 0 288 186" xml:space="preserve">
<g id="BK">
</g>
<g id="Comp">
	<g>
		<path fill-rule="evenodd" clip-rule="evenodd" fill="#DD4814" d="M233.994,185.978H54.003C24.185,185.978,0,161.796,0,131.972
			c0-28.707,22.394-52.163,50.657-53.895c-12.635-25.342-3.517-56.46,21.346-70.813C96.855-7.085,128.37,0.573,144,24.19
			c15.633-23.61,47.141-31.275,72-16.924c24.855,14.354,33.969,45.472,21.344,70.814C265.605,79.816,288,103.269,288,131.976
			C288.004,161.796,263.818,185.978,233.994,185.978z"/>
		<path fill="#FFFFFF" d="M182.055,166.978h-77.108c-5.366,0-7.498-3.765-4.736-8.366L131,118.198V84.295l-8-8.317h42l-8,8.317
			v33.902l29.794,40.414C189.551,163.213,187.42,166.978,182.055,166.978z M173.121,158.978c2.2,0,2.932-1.449,1.627-3.22
			l-23.374-31.711c-1.305-1.771-2.373-5.02-2.373-7.22v-13.85c0-2.2-1.8-4-4-4h-2c-2.2,0-4,1.8-4,4v13.92
			c0,2.2-1.091,5.432-2.424,7.182l-24.164,31.717c-1.333,1.75-0.624,3.182,1.576,3.182H173.121z"/>
		<g>
			<circle fill="#FFFFFF" cx="158" cy="55.978" r="7"/>
		</g>
		<path fill="#FFFFFF" d="M182,27.978c4.411,0,8,3.589,8,8s-3.589,8-8,8s-8-3.589-8-8S177.589,27.978,182,27.978 M182,21.978
			c-7.732,0-14,6.268-14,14c0,7.732,6.268,14,14,14s14-6.268,14-14C196,28.246,189.732,21.978,182,21.978L182,21.978z"/>
	</g>
</g>
<g id="Grid" display="none">
</g>
</svg>
