<?xml version="1.0" encoding="utf-8"?>
<!-- Generator: Adobe Illustrator 17.0.2, SVG Export Plug-In . SVG Version: 6.00 Build 0)  -->
<!DOCTYPE svg PUBLIC "-//W3C//DTD SVG 1.1//EN" "http://www.w3.org/Graphics/SVG/1.1/DTD/svg11.dtd">
<svg version="1.1" id="Layer_1" xmlns="http://www.w3.org/2000/svg" xmlns:xlink="http://www.w3.org/1999/xlink" x="0px" y="0px"
	 width="389px" height="114px" viewBox="0 0 389 114" enable-background="new 0 0 389 114" xml:space="preserve">
<g id="BK">
</g>
<g id="Comp">
	<path fill="#5E2750" d="M359.647,9.82c-5.211,0.017-10.111,2.055-13.795,5.739c-3.701,3.701-5.74,8.621-5.741,13.855
		c0,5.233,2.039,10.154,5.74,13.855c1.045,1.044,2.411,1.565,3.779,1.565s2.737-0.522,3.779-1.565c2.088-2.086,2.088-5.47,0-7.557
		c-1.681-1.682-2.608-3.918-2.608-6.297s0.927-4.616,2.61-6.298c1.675-1.675,3.902-2.601,6.272-2.609
		c2.952-0.01,5.337-2.41,5.327-5.361C365.001,12.193,362.614,9.834,359.647,9.82z M352.158,36.961
		c1.39,1.391,1.39,3.647-0.001,5.037c-1.392,1.391-3.648,1.393-5.038,0.001c-1.394-1.39-1.394-3.647,0-5.038
		C348.509,35.569,350.766,35.57,352.158,36.961z M380.192,49.237c-0.09,0.105-0.18,0.209-0.278,0.309l-34.037,34.028
		c-1.043,1.044-2.41,1.565-3.778,1.565s-2.736-0.522-3.779-1.565c-2.087-2.086-2.087-5.47,0-7.557L356.6,57.74
		c-1.9-0.205-3.758-0.599-5.554-1.169l-16.089,16.086c-1.044,1.044-2.411,1.565-3.778,1.565c-1.368,0-2.736-0.522-3.779-1.565
		c-2.087-2.086-2.087-5.469,0-7.557l13.922-13.919c-0.607-0.514-1.197-1.048-1.767-1.616c-0.563-0.563-1.09-1.148-1.596-1.744
		l-13.922,13.918c-1.044,1.044-2.411,1.565-3.779,1.565c-1.367,0-2.736-0.522-3.779-1.565c-2.087-2.086-2.087-5.47,0-7.558
		l16.093-16.09c-0.577-1.814-0.969-3.672-1.174-5.549l-18.282,18.276c-1.044,1.044-2.412,1.565-3.779,1.565
		c-1.368,0-2.737-0.522-3.779-1.565c-2.087-2.086-2.087-5.47,0-7.557l33.81-33.802c0.063-0.065,0.123-0.134,0.189-0.198l7.3-7.298
		C342.067,0.678,337.081,0,331.99,0c-15.229,0-29.547,5.929-40.316,16.695c-22.229,22.224-22.229,58.386,0,80.608
		C302.441,108.07,316.759,114,331.989,114c15.228,0,29.545-5.929,40.313-16.695C383.07,86.54,389,72.226,389,57
		c0-5.035-0.662-9.966-1.919-14.706L380.192,49.237z M294.089,59.369c2.783-2.784,7.295-2.783,10.078-0.001
		c2.784,2.784,2.784,7.295,0,10.077c-2.783,2.783-7.294,2.783-10.078-0.001C291.306,66.663,291.306,62.151,294.089,59.369z
		 M309.518,94.717c-2.783,2.782-7.295,2.782-10.078-0.001c-2.784-2.783-2.784-7.293-0.001-10.075c2.784-2.783,7.296-2.783,10.079,0
		C312.3,87.423,312.301,91.934,309.518,94.717z M332.109,92.232c-2.783,2.783-7.295,2.783-10.078,0s-2.784-7.293-0.001-10.075
		c2.784-2.784,7.297-2.783,10.079,0C334.892,84.938,334.892,89.45,332.109,92.232z"/>
	<path fill="#DD4814" d="M57.001-0.001C25.519-0.001,0,25.523,0,57.003c0,31.477,25.52,56.998,57.001,56.998S114,88.479,114,57.003
		C114.001,25.523,88.482-0.001,57.001-0.001z M78.923,91.464c-0.828,0.409-1.712,0.603-2.582,0.603c-2.158,0-4.229-1.197-5.25-3.26
		L57.665,61.583L42.537,87.207h12.457c2.154,0,3.898,1.743,3.898,3.898c0,2.154-1.744,3.898-3.898,3.898H35.711
		c-1.399,0-2.691-0.75-3.384-1.968c-0.694-1.214-0.681-2.706,0.026-3.911l21.191-35.902L40.829,27.441
		c-1.427-2.9-0.235-6.402,2.663-7.828c2.894-1.431,6.399-0.239,7.829,2.657l30.257,61.359
		C83.011,86.532,81.819,90.038,78.923,91.464z"/>
	<g>
		<path fill="#888888" d="M189.521,62.97c1.393,1.392,3.214,2.086,5.038,2.086c1.823,0,3.646-0.695,5.036-2.086l12.734-12.734
			v24.566h-35.625v-24.65L189.521,62.97z M223.025,7.652c-2.205-1.277-4.923-1.279-7.129-0.007s-3.567,3.626-3.567,6.173v21.576
			l-12.734-12.732c-2.78-2.782-7.29-2.782-10.074,0L176.703,35.48V13.801c0-2.547-1.359-4.899-3.564-6.173
			c-2.205-1.271-4.922-1.271-7.126,0.004C148.428,17.801,137.5,36.716,137.5,56.996c0,31.431,25.572,57.004,57.001,57.004
			S251.5,88.427,251.5,56.996C251.5,36.735,240.59,17.827,223.025,7.652"/>
	</g>
</g>
<g id="Grid" display="none">
	<g id="Grid_1_" display="inline">
	</g>
</g>
<g id="Labels">
</g>
</svg>
