<?xml version="1.0" encoding="utf-8"?>
<!-- Generator: Adobe Illustrator 18.1.1, SVG Export Plug-In . SVG Version: 6.00 Build 0)  -->
<!DOCTYPE svg PUBLIC "-//W3C//DTD SVG 1.1//EN" "http://www.w3.org/Graphics/SVG/1.1/DTD/svg11.dtd">
<svg version="1.1" id="Layer_1" xmlns="http://www.w3.org/2000/svg" xmlns:xlink="http://www.w3.org/1999/xlink" x="0px" y="0px"
	 width="770.8px" height="1543px" viewBox="572 -571 770.8 1543" enable-background="new 572 -571 770.8 1543" xml:space="preserve"
	>
<g>
	<g>
		<path fill="#2C001E" d="M572,972.8c0-0.3,0.2-0.5,0.5-0.5l0,0c0.3,0,0.5,0.2,0.5,0.5l0,0c0,0.3-0.2,0.5-0.5,0.5l0,0
			C572.2,973.3,572,973.1,572,972.8z M581.5,972.7c0-0.3,0.2-0.5,0.5-0.5l0,0c0.3,0,0.5,0.2,0.5,0.5l0,0c0,0.3-0.2,0.5-0.5,0.5l0,0
			l0,0l0,0C581.8,973.3,581.5,973,581.5,972.7z M591,972.6c0-0.3,0.2-0.5,0.5-0.5l0,0c0.3,0,0.5,0.2,0.5,0.5l0,0
			c0,0.3-0.2,0.5-0.5,0.5l0,0l0,0l0,0l0,0l0,0C591.3,973.1,591.1,972.9,591,972.6z M600.6,972.3c0-0.3,0.2-0.5,0.5-0.5l0,0
			c0.3,0,0.5,0.2,0.5,0.5l0,0c0,0.3-0.2,0.5-0.5,0.6l0,0l0,0l0,0C600.8,972.8,600.6,972.6,600.6,972.3z M610.1,971.9
			c0-0.3,0.2-0.5,0.5-0.6l0,0c0.3,0,0.5,0.2,0.6,0.5l0,0c0,0.3-0.2,0.5-0.5,0.6l0,0l0,0l0,0l0,0l0,0
			C610.3,972.4,610.1,972.2,610.1,971.9z M619.6,971.4c0-0.3,0.2-0.5,0.5-0.6l0,0c0.3,0,0.5,0.2,0.6,0.5l0,0c0,0.3-0.2,0.6-0.5,0.6
			l0,0l0,0l0,0C619.9,971.9,619.6,971.6,619.6,971.4z M629.2,970.7c0-0.3,0.2-0.5,0.5-0.6l0,0c0.3,0,0.5,0.2,0.6,0.5l0,0
			c0,0.3-0.2,0.5-0.5,0.6l0,0l0,0l0,0l0,0l0,0C629.4,971.2,629.2,971,629.2,970.7z M638.7,970c0-0.3,0.2-0.6,0.5-0.6l0,0
			c0.3,0,0.6,0.2,0.6,0.5l0,0c0,0.3-0.2,0.5-0.5,0.6l0,0l0,0l0,0C638.9,970.4,638.7,970.2,638.7,970z M648.2,969.1
			c0-0.3,0.2-0.5,0.5-0.6l0,0c0.3,0,0.6,0.2,0.6,0.5l0,0c0,0.3-0.2,0.5-0.5,0.6l0,0l0,0l0,0C648.4,969.6,648.2,969.4,648.2,969.1z
			 M657.7,968.1c0-0.3,0.2-0.5,0.5-0.6l0,0c0.3,0,0.6,0.2,0.6,0.5l0,0c0,0.3-0.2,0.5-0.5,0.6l0,0c0,0,0,0-0.1,0l0,0
			C657.9,968.6,657.7,968.4,657.7,968.1z M667.1,967c0-0.3,0.2-0.5,0.5-0.6l0,0c0.3,0,0.6,0.2,0.6,0.5l0,0c0,0.3-0.2,0.5-0.5,0.6
			l0,0h-0.1l0,0C667.4,967.5,667.2,967.3,667.1,967z M676.6,965.8c0-0.3,0.2-0.5,0.5-0.6l0,0c0.3,0,0.6,0.2,0.6,0.5l0,0
			c0,0.3-0.2,0.6-0.5,0.6l0,0c0,0,0,0-0.1,0l0,0C676.9,966.2,676.6,966.1,676.6,965.8z M686.1,964.4c0-0.3,0.2-0.6,0.5-0.6l0,0
			c0.3,0,0.6,0.2,0.6,0.4l0,0c0,0.3-0.2,0.6-0.4,0.6l0,0h-0.1l0,0C686.3,964.9,686.1,964.7,686.1,964.4z M695.5,963
			c0-0.3,0.1-0.6,0.4-0.6l0,0c0.3-0.1,0.6,0.1,0.6,0.4l0,0c0,0.3-0.2,0.6-0.4,0.6l0,0l0,0l0,0H696l0,0
			C695.8,963.4,695.5,963.2,695.5,963z M704.9,961.4c0-0.3,0.2-0.6,0.4-0.6l0,0c0.3-0.1,0.6,0.1,0.6,0.4l0,0c0,0.3-0.1,0.6-0.4,0.6
			l0,0l0,0l0,0h-0.1l0,0C705.2,961.9,705,961.7,704.9,961.4z M714.3,959.7c-0.1-0.3,0.1-0.6,0.4-0.6l0,0c0.3-0.1,0.6,0.1,0.6,0.4
			l0,0c0.1,0.3-0.1,0.6-0.4,0.6l0,0h-0.1l0,0C714.6,960.2,714.3,960,714.3,959.7z M723.7,957.9c-0.1-0.3,0.1-0.6,0.4-0.6l0,0
			c0.3-0.1,0.6,0.1,0.6,0.4l0,0c0.1,0.3-0.1,0.6-0.4,0.6l0,0h-0.1l0,0C723.9,958.3,723.7,958.2,723.7,957.9z M733,956
			c-0.1-0.3,0.1-0.6,0.4-0.6l0,0c0.3-0.1,0.6,0.1,0.6,0.4l0,0c0.1,0.3-0.1,0.6-0.4,0.6l0,0h-0.1l0,0
			C733.3,956.4,733.1,956.2,733,956z M742.3,954c-0.1-0.3,0.1-0.6,0.4-0.6l0,0c0.3-0.1,0.6,0.1,0.6,0.4l0,0c0.1,0.3-0.1,0.6-0.4,0.6
			l0,0h-0.1l0,0C742.6,954.4,742.4,954.2,742.3,954z M751.6,951.8c-0.1-0.3,0.1-0.6,0.4-0.6l0,0c0.3-0.1,0.6,0.1,0.6,0.4l0,0
			c0.1,0.3-0.1,0.6-0.4,0.6l0,0h-0.1l0,0C751.9,952.2,751.7,952.1,751.6,951.8z M760.9,949.5c-0.1-0.3,0.1-0.6,0.4-0.6l0,0
			c0.3-0.1,0.6,0.1,0.6,0.4l0,0c0.1,0.3-0.1,0.6-0.4,0.6l0,0l0,0l0,0h-0.1l0,0C761.2,949.9,761,949.8,760.9,949.5z M770.1,947.1
			c-0.1-0.3,0.1-0.6,0.4-0.7l0,0c0.3-0.1,0.6,0.1,0.6,0.4l0,0c0.1,0.3-0.1,0.6-0.4,0.6l0,0l0,0l0,0h-0.1l0,0
			C770.4,947.5,770.2,947.4,770.1,947.1z M779.4,944.6c-0.1-0.3,0.1-0.6,0.4-0.7l0,0c0.3-0.1,0.6,0.1,0.7,0.4l0,0
			c0.1,0.3-0.1,0.6-0.4,0.7l0,0l0,0l0,0H780l0,0C779.6,945,779.4,944.9,779.4,944.6z M788.5,942c-0.1-0.3,0.1-0.6,0.4-0.6l0,0
			c0.3-0.1,0.6,0.1,0.7,0.4l0,0c0.1,0.3-0.1,0.6-0.4,0.7l0,0c-0.1,0-0.1,0-0.2,0l0,0C788.8,942.4,788.6,942.3,788.5,942z
			 M797.7,939.3c-0.1-0.3,0.1-0.6,0.4-0.7l0,0c0.3-0.1,0.6,0.1,0.7,0.4l0,0c0.1,0.3-0.1,0.6-0.4,0.7l0,0c-0.1,0-0.1,0-0.2,0l0,0
			C798,939.7,797.8,939.5,797.7,939.3z M806.8,936.5c-0.1-0.3,0.1-0.6,0.3-0.7l0,0c0.3-0.1,0.6,0.1,0.7,0.3l0,0
			c0.1,0.3-0.1,0.6-0.3,0.7l0,0l0,0l0,0c0,0-0.1,0-0.2,0l0,0C807.1,936.8,806.9,936.7,806.8,936.5z M815.9,933.5
			c-0.1-0.3,0.1-0.6,0.3-0.7l0,0c0.3-0.1,0.6,0,0.7,0.3l0,0c0.1,0.3-0.1,0.6-0.3,0.7l0,0c0,0-0.1,0-0.2,0l0,0
			C816.1,933.9,816,933.7,815.9,933.5z M824.9,930.4c-0.1-0.3,0-0.6,0.3-0.7l0,0c0.3-0.1,0.6,0,0.7,0.3l0,0c0.1,0.3-0.1,0.6-0.3,0.7
			l0,0c-0.1,0-0.1,0-0.2,0l0,0C825.2,930.8,825,930.7,824.9,930.4z M833.9,927.2c-0.1-0.3,0-0.6,0.3-0.7l0,0c0.3-0.1,0.6,0,0.7,0.3
			l0,0c0.1,0.3,0,0.6-0.3,0.7l0,0l0,0l0,0c-0.1,0-0.1,0-0.2,0l0,0C834.2,927.6,834,927.5,833.9,927.2z M842.9,924
			c-0.1-0.3,0-0.6,0.3-0.7l0,0c0.3-0.1,0.6,0,0.7,0.3l0,0c0.1,0.3,0,0.6-0.3,0.7l0,0l0,0l0,0c-0.1,0-0.1,0-0.2,0l0,0
			C843.1,924.3,842.9,924.2,842.9,924z M851.8,920.6c-0.1-0.3,0-0.6,0.3-0.7l0,0c0.3-0.1,0.6,0,0.7,0.3l0,0c0.1,0.3,0,0.6-0.3,0.7
			l0,0c-0.1,0-0.1,0-0.2,0l0,0C852.1,920.9,851.9,920.8,851.8,920.6z M860.6,917c-0.1-0.3,0-0.6,0.3-0.7l0,0c0.3-0.1,0.6,0,0.7,0.3
			l0,0c0.1,0.3,0,0.6-0.3,0.7l0,0l0,0l0,0c-0.1,0-0.1,0-0.2,0l0,0C860.9,917.4,860.7,917.2,860.6,917z M869.4,913.4
			c-0.1-0.3,0-0.6,0.3-0.7l0,0c0.3-0.1,0.6,0,0.7,0.3l0,0c0.1,0.3,0,0.6-0.3,0.7l0,0l0,0l0,0c-0.1,0-0.1,0-0.2,0l0,0
			C869.7,913.8,869.5,913.6,869.4,913.4z M878.2,909.7c-0.1-0.3,0-0.6,0.3-0.7l0,0c0.3-0.1,0.6,0,0.7,0.3l0,0c0.1,0.3,0,0.6-0.3,0.7
			l0,0c-0.1,0-0.1,0-0.2,0l0,0C878.5,910,878.3,909.9,878.2,909.7z M886.9,905.9c-0.1-0.3,0-0.6,0.3-0.7l0,0c0.3-0.1,0.6,0,0.7,0.3
			l0,0c0.1,0.3,0,0.6-0.3,0.7l0,0c-0.1,0-0.1,0-0.2,0l0,0C887.2,906.2,887,906.1,886.9,905.9z M895.5,901.9c-0.1-0.3,0-0.6,0.3-0.7
			l0,0c0.3-0.1,0.6,0,0.7,0.2l0,0c0.1,0.3,0,0.6-0.3,0.7l0,0l0,0l0,0c-0.1,0-0.2,0.1-0.2,0.1l0,0
			C895.8,902.3,895.6,902.1,895.5,901.9z M904.2,897.9c-0.1-0.3,0-0.6,0.2-0.7l0,0c0.3-0.1,0.6,0,0.7,0.2l0,0c0.1,0.3,0,0.6-0.2,0.7
			l0,0c-0.1,0-0.1,0.1-0.2,0.1l0,0C904.4,898.2,904.3,898.1,904.2,897.9z M912.7,893.7c-0.1-0.3,0-0.6,0.2-0.7l0,0
			c0.3-0.1,0.6,0,0.7,0.2l0,0c0.1,0.3,0,0.6-0.2,0.7l0,0c-0.1,0-0.2,0.1-0.2,0.1l0,0C913,894.1,912.8,893.9,912.7,893.7z
			 M921.2,889.5c-0.1-0.3,0-0.6,0.2-0.7l0,0c0.3-0.1,0.6,0,0.7,0.2l0,0c0.1,0.3,0,0.6-0.2,0.7l0,0c-0.1,0-0.2,0.1-0.2,0.1l0,0
			C921.5,889.8,921.3,889.7,921.2,889.5z M929.7,885.1c-0.1-0.3,0-0.6,0.2-0.7l0,0c0.3-0.1,0.6,0,0.7,0.2l0,0c0.1,0.3,0,0.6-0.2,0.7
			l0,0l0,0l0,0c-0.1,0-0.2,0.1-0.2,0.1l0,0C930,885.4,929.8,885.3,929.7,885.1z M938.1,880.7c-0.1-0.3,0-0.6,0.2-0.7l0,0
			c0.3-0.1,0.6,0,0.7,0.2l0,0c0.1,0.3,0,0.6-0.2,0.7l0,0c-0.1,0-0.2,0.1-0.3,0.1l0,0C938.4,880.9,938.2,880.8,938.1,880.7z
			 M946.4,876.1c-0.1-0.3-0.1-0.6,0.2-0.7l0,0c0.2-0.1,0.6,0,0.7,0.2l0,0c0.1,0.2,0,0.6-0.2,0.7l0,0c-0.1,0-0.2,0.1-0.3,0.1l0,0
			C946.7,876.4,946.5,876.3,946.4,876.1z M954.7,871.4c-0.2-0.2-0.1-0.6,0.2-0.7l0,0c0.3-0.1,0.6-0.1,0.7,0.2l0,0
			c0.1,0.3,0,0.6-0.2,0.7l0,0l0,0l0,0c-0.1,0-0.2,0.1-0.3,0.1l0,0C955,871.7,954.8,871.6,954.7,871.4z M963,866.6
			c-0.2-0.2-0.1-0.6,0.2-0.7l0,0c0.2-0.1,0.6-0.1,0.7,0.2l0,0c0.2,0.3,0.1,0.6-0.2,0.7l0,0l0,0l0,0c-0.1,0.1-0.2,0.1-0.3,0.1l0,0
			C963.2,866.9,963,866.8,963,866.6z M971.1,861.8c-0.2-0.2-0.1-0.6,0.2-0.7l0,0c0.2-0.2,0.6-0.1,0.7,0.2l0,0
			c0.1,0.2,0.1,0.6-0.2,0.7l0,0c-0.1,0-0.2,0.1-0.3,0.1l0,0C971.4,862,971.2,861.9,971.1,861.8z M979.2,856.8
			c-0.2-0.2-0.1-0.6,0.2-0.7l0,0c0.2-0.2,0.6-0.1,0.7,0.2l0,0c0.2,0.2,0.1,0.6-0.2,0.7l0,0l0,0l0,0c-0.1,0-0.2,0.1-0.3,0.1l0,0
			C979.5,857,979.3,856.9,979.2,856.8z M987.3,851.7c-0.2-0.2-0.1-0.6,0.2-0.7l0,0c0.2-0.2,0.6-0.1,0.7,0.2l0,0
			c0.2,0.2,0.1,0.6-0.2,0.7l0,0c-0.1,0.1-0.2,0.1-0.3,0.1l0,0C987.6,851.9,987.4,851.9,987.3,851.7z M995.3,846.5
			c-0.2-0.2-0.1-0.6,0.1-0.7l0,0c0.2-0.2,0.6-0.1,0.7,0.2l0,0c0.2,0.2,0.1,0.6-0.2,0.7l0,0c-0.1,0.1-0.2,0.1-0.3,0.1l0,0
			C995.6,846.8,995.4,846.7,995.3,846.5z M1003.2,841.2c-0.2-0.2-0.1-0.6,0.1-0.7l0,0c0.2-0.2,0.6-0.1,0.7,0.2l0,0
			c0.2,0.2,0.1,0.6-0.1,0.7l0,0c-0.1,0.1-0.2,0.1-0.3,0.1l0,0C1003.5,841.5,1003.3,841.4,1003.2,841.2z M1011.1,835.9
			c-0.2-0.2-0.1-0.6,0.1-0.7l0,0c0.2-0.2,0.6-0.1,0.7,0.1l0,0c0.2,0.2,0.1,0.6-0.1,0.7l0,0c-0.1,0.1-0.2,0.1-0.3,0.1l0,0
			C1011.3,836.1,1011.2,836,1011.1,835.9z M1018.9,830.4c-0.2-0.2-0.1-0.6,0.1-0.7l0,0c0.2-0.2,0.6-0.1,0.7,0.1l0,0
			c0.2,0.2,0.1,0.6-0.1,0.7l0,0c-0.1,0.1-0.2,0.1-0.3,0.1l0,0C1019.1,830.6,1019,830.5,1018.9,830.4z M1026.6,824.8
			c-0.2-0.2-0.1-0.6,0.1-0.7l0,0c0.2-0.2,0.6-0.1,0.7,0.1l0,0c0.2,0.2,0.1,0.6-0.1,0.7l0,0c-0.1,0.1-0.2,0.1-0.3,0.1l0,0
			C1026.9,825,1026.7,825,1026.6,824.8z M1034.3,819.1c-0.2-0.2-0.1-0.6,0.1-0.7l0,0c0.2-0.2,0.6-0.1,0.7,0.1l0,0
			c0.2,0.2,0.1,0.6-0.1,0.7l0,0c-0.1,0.1-0.2,0.1-0.3,0.1l0,0C1034.5,819.4,1034.4,819.3,1034.3,819.1z M1041.9,813.4
			c-0.2-0.2-0.1-0.6,0.1-0.7l0,0c0.2-0.2,0.6-0.1,0.7,0.1l0,0c0.2,0.2,0.1,0.6-0.1,0.7l0,0c-0.1,0.1-0.2,0.1-0.3,0.1l0,0
			C1042.1,813.6,1042,813.5,1041.9,813.4z M1049.4,807.5c-0.2-0.2-0.1-0.6,0.1-0.8l0,0c0.2-0.2,0.6-0.1,0.7,0.1l0,0
			c0.2,0.2,0.1,0.6-0.1,0.7l0,0c-0.1,0.1-0.2,0.1-0.3,0.1l0,0C1049.6,807.7,1049.5,807.7,1049.4,807.5z M1056.8,801.6
			c-0.2-0.2-0.2-0.6,0.1-0.8l0,0c0.2-0.2,0.6-0.2,0.7,0.1l0,0c0.2,0.2,0.1,0.6-0.1,0.8l0,0c-0.1,0.1-0.2,0.1-0.3,0.1l0,0
			C1057.1,801.8,1056.9,801.7,1056.8,801.6z M1064.2,795.6c-0.2-0.2-0.2-0.6,0.1-0.7l0,0c0.2-0.2,0.5-0.2,0.7,0.1l0,0
			c0.2,0.2,0.2,0.6-0.1,0.8l0,0c-0.1,0.1-0.2,0.1-0.3,0.1l0,0C1064.5,795.7,1064.3,795.7,1064.2,795.6z M1071.5,789.4
			c-0.2-0.2-0.2-0.6,0.1-0.8l0,0c0.2-0.2,0.6-0.2,0.8,0l0,0c0.2,0.2,0.2,0.6-0.1,0.8l0,0l0,0l0,0c-0.1,0.1-0.2,0.1-0.3,0.1l0,0
			C1071.8,789.6,1071.6,789.5,1071.5,789.4z M1078.7,783.2c-0.2-0.2-0.2-0.5,0-0.7l0,0c0.2-0.2,0.5-0.2,0.8,0l0,0
			c0.2,0.2,0.2,0.6,0,0.8l0,0l0,0l0,0c-0.1,0.1-0.2,0.1-0.4,0.1l0,0C1079,783.4,1078.9,783.3,1078.7,783.2z M1085.9,776.9
			c-0.2-0.2-0.2-0.5,0-0.8l0,0c0.2-0.2,0.6-0.2,0.8,0l0,0c0.2,0.2,0.2,0.5,0,0.7l0,0l0,0l0,0c-0.1,0.1-0.2,0.1-0.3,0.1l0,0
			C1086.1,777.1,1086,777,1085.9,776.9z M1093,770.5c-0.2-0.2-0.2-0.5,0-0.8l0,0c0.2-0.2,0.5-0.2,0.8,0l0,0c0.2,0.2,0.2,0.5,0,0.8
			l0,0c-0.1,0.1-0.2,0.1-0.4,0.1l0,0C1093.2,770.7,1093.1,770.6,1093,770.5z M1100,764c-0.2-0.2-0.2-0.6,0-0.8l0,0
			c0.2-0.2,0.5-0.2,0.8,0l0,0c0.2,0.2,0.2,0.6,0,0.8l0,0l0,0l0,0c-0.1,0.1-0.2,0.1-0.4,0.1l0,0C1100.2,764.2,1100.1,764.1,1100,764z
			 M1106.9,757.4c-0.2-0.2-0.2-0.5,0-0.8l0,0c0.2-0.2,0.5-0.2,0.8,0l0,0c0.2,0.2,0.2,0.5,0,0.8l0,0l0,0l0,0
			c-0.1,0.1-0.2,0.1-0.4,0.1l0,0C1107.1,757.6,1107,757.6,1106.9,757.4z M1113.7,750.8c-0.2-0.2-0.2-0.5,0-0.8l0,0
			c0.2-0.2,0.5-0.2,0.7,0l0,0c0.2,0.2,0.2,0.6,0,0.8l0,0l0,0l0,0c-0.1,0.1-0.2,0.2-0.4,0.2l0,0
			C1114,750.9,1113.8,750.9,1113.7,750.8z M1120.5,744.1c-0.2-0.2-0.2-0.5,0-0.8l0,0c0.2-0.2,0.5-0.2,0.8,0l0,0
			c0.2,0.2,0.2,0.5,0,0.8l0,0l0,0l0,0c-0.1,0.1-0.2,0.2-0.4,0.2l0,0C1120.7,744.2,1120.6,744.1,1120.5,744.1z M1127.2,737.2
			c-0.2-0.2-0.2-0.5,0-0.8l0,0c0.2-0.2,0.5-0.2,0.8,0l0,0c0.2,0.2,0.2,0.5,0,0.8l0,0l0,0l0,0c-0.1,0.1-0.2,0.2-0.4,0.2l0,0
			C1127.4,737.4,1127.3,737.3,1127.2,737.2z M1133.7,730.3c-0.2-0.2-0.2-0.5,0-0.8l0,0c0.2-0.2,0.5-0.2,0.8,0l0,0
			c0.2,0.2,0.2,0.5,0,0.8l0,0c-0.1,0.1-0.2,0.2-0.4,0.2l0,0C1134,730.5,1133.8,730.4,1133.7,730.3z M1140.3,723.3
			c-0.2-0.2-0.2-0.5,0-0.8l0,0c0.2-0.2,0.5-0.2,0.8,0l0,0c0.2,0.2,0.2,0.5,0,0.8l0,0l0,0l0,0c-0.1,0.1-0.2,0.2-0.4,0.2l0,0
			C1140.5,723.5,1140.3,723.4,1140.3,723.3z M1146.7,716.3c-0.2-0.2-0.2-0.5,0-0.8l0,0c0.2-0.2,0.5-0.2,0.8,0l0,0
			c0.2,0.2,0.2,0.5,0,0.8l0,0c-0.1,0.1-0.2,0.2-0.4,0.2l0,0C1146.9,716.4,1146.8,716.4,1146.7,716.3z M1153,709.1
			c-0.2-0.2-0.2-0.5,0-0.8l0,0c0.2-0.2,0.5-0.2,0.8-0.1l0,0c0.2,0.2,0.2,0.5,0,0.8l0,0c-0.1,0.1-0.3,0.2-0.4,0.2l0,0
			C1153.2,709.3,1153.1,709.2,1153,709.1z M1159.2,701.9c-0.2-0.2-0.2-0.5-0.1-0.7l0,0c0.2-0.2,0.5-0.2,0.7-0.1l0,0
			c0.2,0.2,0.2,0.5,0.1,0.7l0,0c-0.1,0.1-0.2,0.2-0.4,0.2l0,0C1159.5,702,1159.3,702,1159.2,701.9z M1165.4,694.6
			c-0.2-0.2-0.3-0.5-0.1-0.8l0,0c0.2-0.2,0.5-0.3,0.8-0.1l0,0c0.2,0.2,0.2,0.5,0.1,0.8l0,0l0,0l0,0c-0.1,0.1-0.3,0.2-0.4,0.2l0,0
			C1165.6,694.7,1165.5,694.7,1165.4,694.6z M1171.5,687.2c-0.2-0.2-0.3-0.5-0.1-0.8l0,0c0.2-0.2,0.5-0.3,0.7-0.1l0,0
			c0.2,0.2,0.3,0.5,0.1,0.7l0,0l0,0l0,0c-0.1,0.1-0.3,0.2-0.4,0.2l0,0C1171.7,687.3,1171.6,687.3,1171.5,687.2z M1177.4,679.8
			c-0.2-0.2-0.3-0.5-0.1-0.8l0,0c0.2-0.2,0.5-0.3,0.8-0.1l0,0c0.2,0.2,0.3,0.5,0.1,0.7l0,0l0,0l0,0c-0.1,0.1-0.3,0.2-0.4,0.2l0,0
			C1177.6,679.9,1177.5,679.9,1177.4,679.8z M1183.3,672.2c-0.2-0.2-0.3-0.5-0.1-0.7l0,0c0.2-0.2,0.5-0.3,0.7-0.1l0,0
			c0.2,0.2,0.3,0.5,0.1,0.8l0,0c-0.1,0.1-0.3,0.2-0.4,0.2l0,0C1183.5,672.4,1183.4,672.3,1183.3,672.2z M1189.1,664.7
			c-0.2-0.2-0.3-0.5-0.1-0.8l0,0c0.2-0.2,0.5-0.3,0.7-0.1l0,0c0.2,0.2,0.3,0.5,0.1,0.7l0,0c-0.1,0.1-0.3,0.2-0.4,0.2l0,0
			C1189.3,664.8,1189.2,664.7,1189.1,664.7z M1194.8,657c-0.2-0.2-0.3-0.5-0.1-0.7l0,0c0.2-0.2,0.5-0.3,0.7-0.1l0,0
			c0.2,0.2,0.3,0.5,0.1,0.7l0,0c-0.1,0.2-0.3,0.2-0.4,0.2l0,0C1195,657.1,1194.9,657.1,1194.8,657z M1200.4,649.2
			c-0.2-0.2-0.3-0.5-0.1-0.7l0,0c0.2-0.2,0.5-0.3,0.7-0.1l0,0c0.2,0.2,0.3,0.5,0.1,0.7l0,0l0,0l0,0c-0.1,0.2-0.3,0.2-0.4,0.2l0,0
			C1200.6,649.3,1200.5,649.3,1200.4,649.2z M1205.9,641.4c-0.2-0.2-0.3-0.5-0.1-0.7l0,0c0.2-0.2,0.5-0.3,0.7-0.1l0,0
			c0.2,0.2,0.3,0.5,0.1,0.7l0,0c-0.1,0.1-0.3,0.2-0.4,0.2l0,0C1206.1,641.5,1206,641.5,1205.9,641.4z M1211.3,633.6
			c-0.2-0.2-0.3-0.5-0.1-0.7l0,0c0.2-0.2,0.5-0.3,0.7-0.1l0,0c0.2,0.2,0.3,0.5,0.1,0.7l0,0l0,0l0,0c-0.1,0.2-0.3,0.2-0.4,0.2l0,0
			C1211.5,633.6,1211.4,633.6,1211.3,633.6z M1216.6,625.6c-0.2-0.2-0.3-0.5-0.1-0.7l0,0c0.2-0.2,0.5-0.3,0.7-0.2l0,0
			c0.2,0.2,0.3,0.5,0.2,0.7l0,0c-0.1,0.1-0.3,0.2-0.5,0.2l0,0C1216.8,625.7,1216.7,625.7,1216.6,625.6z M1221.9,617.6
			c-0.2-0.2-0.3-0.5-0.2-0.7l0,0c0.1-0.2,0.5-0.3,0.7-0.2l0,0c0.2,0.2,0.3,0.5,0.2,0.7l0,0c-0.1,0.2-0.3,0.2-0.5,0.2l0,0
			C1222,617.7,1221.9,617.7,1221.9,617.6z M1227,609.5c-0.2-0.2-0.3-0.5-0.2-0.7l0,0c0.2-0.2,0.5-0.3,0.7-0.2l0,0
			c0.2,0.1,0.3,0.5,0.2,0.7l0,0l0,0l0,0c-0.1,0.2-0.3,0.2-0.5,0.2l0,0C1227.2,609.6,1227.1,609.6,1227,609.5z M1232,601.4
			c-0.2-0.2-0.3-0.5-0.2-0.7l0,0c0.2-0.2,0.5-0.3,0.7-0.2l0,0c0.2,0.2,0.3,0.5,0.2,0.7l0,0c-0.1,0.2-0.3,0.3-0.5,0.3l0,0
			C1232.2,601.5,1232.1,601.4,1232,601.4z M1236.9,593.2c-0.3-0.1-0.3-0.5-0.2-0.7l0,0c0.2-0.2,0.5-0.3,0.7-0.2l0,0
			c0.3,0.1,0.3,0.5,0.2,0.7l0,0c-0.1,0.2-0.3,0.3-0.5,0.3l0,0C1237.1,593.3,1237,593.2,1236.9,593.2z M1241.7,584.9
			c-0.3-0.2-0.3-0.5-0.2-0.7l0,0c0.2-0.2,0.5-0.3,0.7-0.2l0,0c0.2,0.1,0.3,0.5,0.2,0.7l0,0c-0.1,0.2-0.3,0.3-0.5,0.3l0,0
			C1241.9,585,1241.8,585,1241.7,584.9z M1246.4,576.6c-0.3-0.1-0.3-0.5-0.2-0.7l0,0c0.1-0.2,0.5-0.3,0.7-0.2l0,0
			c0.2,0.1,0.3,0.5,0.2,0.7l0,0c-0.1,0.2-0.3,0.3-0.5,0.3l0,0C1246.6,576.7,1246.5,576.7,1246.4,576.6z M1251,568.2
			c-0.3-0.1-0.4-0.5-0.2-0.7l0,0c0.1-0.3,0.5-0.4,0.7-0.2l0,0c0.3,0.1,0.4,0.5,0.2,0.7l0,0c-0.1,0.2-0.3,0.3-0.5,0.3l0,0
			C1251.2,568.3,1251.1,568.3,1251,568.2z M1255.5,559.8c-0.2-0.1-0.4-0.4-0.2-0.7l0,0c0.1-0.3,0.5-0.4,0.7-0.2l0,0
			c0.3,0.1,0.4,0.5,0.2,0.7l0,0l0,0l0,0c-0.1,0.2-0.3,0.3-0.5,0.3l0,0C1255.7,559.9,1255.6,559.8,1255.5,559.8z M1260,551.3
			c-0.3-0.1-0.4-0.5-0.2-0.7l0,0c0.1-0.3,0.5-0.4,0.7-0.2l0,0c0.3,0.1,0.4,0.5,0.2,0.7l0,0c-0.1,0.2-0.3,0.3-0.5,0.3l0,0
			C1260.1,551.4,1260,551.3,1260,551.3z M1264.2,542.7c-0.3-0.1-0.4-0.4-0.2-0.7l0,0c0.1-0.3,0.5-0.4,0.7-0.2l0,0
			c0.3,0.1,0.4,0.4,0.2,0.7l0,0c-0.1,0.2-0.3,0.3-0.5,0.3l0,0C1264.4,542.8,1264.3,542.8,1264.2,542.7z M1268.4,534.1
			c-0.3-0.1-0.4-0.5-0.2-0.7l0,0c0.1-0.3,0.4-0.4,0.7-0.2l0,0c0.3,0.1,0.4,0.5,0.2,0.7l0,0l0,0l0,0c-0.1,0.2-0.3,0.3-0.5,0.3l0,0
			C1268.6,534.2,1268.5,534.2,1268.4,534.1z M1272.5,525.5c-0.3-0.1-0.4-0.4-0.3-0.7l0,0c0.1-0.3,0.4-0.4,0.7-0.3l0,0
			c0.3,0.1,0.4,0.4,0.2,0.7l0,0C1273,525.4,1272.8,525.5,1272.5,525.5L1272.5,525.5C1272.7,525.5,1272.6,525.5,1272.5,525.5z
			 M1276.5,516.8c-0.3-0.1-0.4-0.4-0.3-0.7l0,0c0.1-0.3,0.4-0.4,0.7-0.3l0,0c0.3,0.1,0.4,0.4,0.3,0.7l0,0c-0.1,0.2-0.3,0.3-0.5,0.3
			l0,0C1276.6,516.8,1276.6,516.8,1276.5,516.8z M1280.3,508c-0.3-0.1-0.4-0.4-0.3-0.7l0,0c0.1-0.3,0.4-0.4,0.7-0.3l0,0
			c0.3,0.1,0.4,0.4,0.3,0.7l0,0c-0.1,0.2-0.3,0.3-0.5,0.3l0,0C1280.5,508.1,1280.4,508.1,1280.3,508z M1284.1,499.2
			c-0.3-0.1-0.4-0.4-0.3-0.7l0,0c0.1-0.3,0.4-0.4,0.7-0.3l0,0c0.3,0.1,0.4,0.4,0.3,0.7l0,0l0,0l0,0c-0.1,0.2-0.3,0.3-0.5,0.3l0,0
			C1284.2,499.3,1284.2,499.2,1284.1,499.2z M1287.7,490.4c-0.3-0.1-0.4-0.4-0.3-0.7l0,0c0.1-0.3,0.4-0.4,0.7-0.3l0,0
			c0.3,0.1,0.4,0.4,0.3,0.7l0,0l0,0l0,0c-0.1,0.2-0.3,0.3-0.5,0.3l0,0C1287.9,490.4,1287.8,490.4,1287.7,490.4z M1291.3,481.5
			c-0.3-0.1-0.4-0.4-0.3-0.7l0,0c0.1-0.3,0.4-0.4,0.7-0.3l0,0c0.3,0.1,0.4,0.4,0.3,0.7l0,0l0,0l0,0c-0.1,0.2-0.3,0.3-0.5,0.3l0,0
			C1291.4,481.5,1291.3,481.5,1291.3,481.5z M1294.7,472.5c-0.3-0.1-0.4-0.4-0.3-0.7l0,0c0.1-0.3,0.4-0.4,0.7-0.3l0,0
			c0.3,0.1,0.4,0.4,0.3,0.7l0,0l0,0l0,0c-0.1,0.2-0.3,0.3-0.5,0.3l0,0C1294.8,472.6,1294.8,472.5,1294.7,472.5z M1298,463.5
			c-0.3-0.1-0.4-0.4-0.3-0.7l0,0c0.1-0.3,0.4-0.4,0.7-0.3l0,0c0.3,0.1,0.4,0.4,0.3,0.7l0,0c-0.1,0.2-0.3,0.4-0.5,0.4l0,0
			C1298.1,463.6,1298.1,463.6,1298,463.5z M1301.2,454.5c-0.3-0.1-0.4-0.4-0.3-0.7l0,0c0.1-0.3,0.4-0.4,0.7-0.3l0,0
			c0.3,0.1,0.4,0.4,0.3,0.7l0,0c-0.1,0.2-0.3,0.3-0.5,0.3l0,0C1301.3,454.5,1301.3,454.5,1301.2,454.5z M1304.3,445.4
			c-0.3-0.1-0.4-0.4-0.3-0.7l0,0c0.1-0.3,0.4-0.4,0.7-0.3l0,0c0.3,0.1,0.4,0.4,0.3,0.7l0,0c-0.1,0.2-0.3,0.4-0.5,0.4l0,0
			C1304.4,445.5,1304.4,445.4,1304.3,445.4z M1307.3,436.3c-0.3-0.1-0.4-0.4-0.3-0.7l0,0c0.1-0.3,0.4-0.4,0.7-0.3l0,0
			c0.3,0.1,0.4,0.4,0.3,0.7l0,0c-0.1,0.2-0.3,0.4-0.5,0.4l0,0C1307.4,436.3,1307.3,436.3,1307.3,436.3z M1310.2,427.2
			c-0.3-0.1-0.4-0.4-0.4-0.7l0,0c0.1-0.3,0.4-0.4,0.7-0.4l0,0c0.3,0.1,0.4,0.4,0.3,0.7l0,0c-0.1,0.2-0.3,0.4-0.5,0.4l0,0H1310.2z
			 M1312.9,418c-0.3-0.1-0.4-0.4-0.4-0.7l0,0c0.1-0.3,0.4-0.4,0.7-0.4l0,0c0.3,0.1,0.4,0.4,0.4,0.7l0,0c-0.1,0.2-0.3,0.4-0.5,0.4
			l0,0C1313,418.1,1312.9,418,1312.9,418z M1315.5,408.9c-0.3-0.1-0.4-0.4-0.4-0.7l0,0c0.1-0.3,0.4-0.5,0.7-0.4l0,0
			c0.3,0.1,0.4,0.4,0.4,0.7l0,0c-0.1,0.2-0.3,0.4-0.5,0.4l0,0C1315.6,408.9,1315.6,408.9,1315.5,408.9z M1318,399.6
			c-0.3-0.1-0.5-0.4-0.4-0.7l0,0c0.1-0.3,0.4-0.5,0.7-0.4l0,0c0.3,0.1,0.5,0.4,0.4,0.7l0,0c-0.1,0.2-0.3,0.4-0.5,0.4l0,0
			C1318.1,399.7,1318.1,399.6,1318,399.6z M1320.4,390.4c-0.3-0.1-0.5-0.4-0.4-0.6l0,0c0.1-0.3,0.4-0.4,0.6-0.4l0,0
			c0.3,0.1,0.5,0.4,0.4,0.7l0,0l0,0l0,0c0,0.2-0.3,0.4-0.5,0.4l0,0C1320.5,390.4,1320.5,390.4,1320.4,390.4z M1322.7,381.1
			c-0.3-0.1-0.5-0.4-0.4-0.6l0,0c0.1-0.3,0.4-0.5,0.6-0.4l0,0c0.3,0.1,0.5,0.3,0.4,0.6l0,0c-0.1,0.2-0.3,0.4-0.5,0.4l0,0H1322.7z
			 M1324.8,371.8c-0.3-0.1-0.5-0.3-0.4-0.6l0,0c0.1-0.3,0.3-0.5,0.6-0.4l0,0c0.3,0.1,0.5,0.3,0.4,0.6l0,0c0,0.2-0.3,0.4-0.5,0.4l0,0
			C1324.9,371.8,1324.9,371.8,1324.8,371.8z M1326.9,362.5c-0.3-0.1-0.5-0.3-0.4-0.6l0,0c0.1-0.3,0.4-0.5,0.6-0.4l0,0
			c0.3,0.1,0.5,0.3,0.4,0.6l0,0c0,0.2-0.3,0.4-0.5,0.4l0,0H1326.9z M1328.8,353.2c-0.3-0.1-0.5-0.3-0.4-0.6l0,0
			c0-0.3,0.3-0.5,0.6-0.4l0,0c0.3,0.1,0.5,0.3,0.4,0.6l0,0c-0.1,0.3-0.3,0.4-0.5,0.4l0,0C1328.9,353.2,1328.9,353.2,1328.8,353.2z
			 M1330.6,343.8c-0.3-0.1-0.5-0.3-0.4-0.6l0,0c0-0.3,0.3-0.5,0.6-0.4l0,0c0.3,0.1,0.5,0.3,0.4,0.6l0,0
			C1331.2,343.6,1331,343.8,1330.6,343.8L1330.6,343.8C1330.7,343.8,1330.7,343.8,1330.6,343.8z M1332.3,334.4
			c-0.3-0.1-0.5-0.3-0.4-0.6l0,0c0.1-0.3,0.3-0.5,0.6-0.4l0,0c0.3,0,0.5,0.3,0.4,0.6l0,0C1332.9,334.2,1332.7,334.4,1332.3,334.4
			L1332.3,334.4C1332.4,334.4,1332.4,334.4,1332.3,334.4z M1333.9,325c-0.3,0-0.5-0.3-0.4-0.6l0,0c0-0.3,0.3-0.5,0.6-0.4l0,0
			c0.3,0,0.5,0.3,0.4,0.6l0,0l0,0l0,0C1334.5,324.8,1334.3,325,1333.9,325L1333.9,325C1334,325,1333.9,325,1333.9,325z
			 M1335.4,315.6c-0.3,0-0.5-0.3-0.5-0.6l0,0c0-0.3,0.3-0.5,0.6-0.5l0,0c0.3,0,0.5,0.3,0.4,0.6l0,0l0,0l0,0
			C1335.9,315.4,1335.7,315.6,1335.4,315.6L1335.4,315.6L1335.4,315.6z M1336.7,306.1c-0.3,0-0.5-0.3-0.5-0.6l0,0
			c0-0.3,0.3-0.5,0.6-0.4l0,0c0.3,0,0.5,0.3,0.5,0.6l0,0C1337.3,305.9,1337,306.1,1336.7,306.1L1336.7,306.1
			C1336.8,306.1,1336.7,306.1,1336.7,306.1z M1337.9,296.6c-0.3,0-0.5-0.3-0.5-0.6l0,0c0-0.3,0.3-0.5,0.6-0.5l0,0
			c0.3,0,0.5,0.3,0.5,0.6l0,0C1338.5,296.4,1338.3,296.6,1337.9,296.6L1337.9,296.6C1338,296.6,1338,296.6,1337.9,296.6z
			 M1339.1,287.1c-0.3,0-0.5-0.3-0.5-0.6l0,0c0-0.3,0.3-0.5,0.6-0.5l0,0c0.3,0,0.5,0.3,0.5,0.6l0,0
			C1339.6,287,1339.4,287.2,1339.1,287.1L1339.1,287.1C1339.1,287.2,1339.1,287.2,1339.1,287.1z M1340,277.7c-0.3,0-0.5-0.3-0.5-0.6
			l0,0c0-0.3,0.3-0.5,0.6-0.5l0,0c0.3,0,0.5,0.3,0.5,0.6l0,0C1340.6,277.5,1340.4,277.7,1340,277.7L1340,277.7
			C1340.1,277.7,1340.1,277.7,1340,277.7z M1340.9,268.2c-0.3,0-0.5-0.3-0.5-0.6l0,0c0-0.3,0.3-0.5,0.6-0.5l0,0
			c0.3,0,0.5,0.3,0.5,0.6l0,0l0,0l0,0C1341.5,267.9,1341.2,268.2,1340.9,268.2L1340.9,268.2C1341,268.2,1340.9,268.2,1340.9,268.2z
			 M1341.7,258.6c-0.3,0-0.5-0.3-0.5-0.6l0,0c0-0.3,0.3-0.5,0.6-0.5l0,0c0.3,0,0.5,0.3,0.5,0.6l0,0
			C1342.2,258.4,1342,258.6,1341.7,258.6L1341.7,258.6L1341.7,258.6z M1342.3,249.1c-0.3,0-0.5-0.3-0.5-0.6l0,0
			c0-0.3,0.3-0.5,0.6-0.5l0,0c0.3,0,0.5,0.3,0.5,0.6l0,0C1342.9,248.9,1342.6,249.1,1342.3,249.1L1342.3,249.1L1342.3,249.1z
			 M1342.9,239.6c-0.3,0-0.5-0.3-0.5-0.6l0,0c0-0.3,0.3-0.5,0.6-0.5l0,0c0.3,0,0.5,0.3,0.5,0.6l0,0
			C1343.4,239.4,1343.2,239.6,1342.9,239.6L1342.9,239.6L1342.9,239.6z M1343.3,230.1c-0.3,0-0.5-0.2-0.5-0.6l0,0
			c0-0.3,0.2-0.5,0.5-0.5l0,0c0.3,0,0.5,0.3,0.5,0.5l0,0C1343.8,229.8,1343.6,230.1,1343.3,230.1L1343.3,230.1L1343.3,230.1z
			 M1343.6,220.5c-0.3,0-0.5-0.2-0.5-0.5l0,0c0-0.3,0.2-0.5,0.5-0.5l0,0c0.3,0,0.5,0.2,0.5,0.5l0,0
			C1344.1,220.3,1343.9,220.5,1343.6,220.5L1343.6,220.5L1343.6,220.5z M1343.7,211c-0.3,0-0.5-0.2-0.5-0.5l0,0
			c0-0.3,0.2-0.5,0.5-0.5l0,0c0.3,0,0.5,0.2,0.5,0.5l0,0l0,0l0,0C1344.3,210.7,1344,211,1343.7,211L1343.7,211L1343.7,211z
			 M1343.2,210.4L1343.2,210.4L1343.2,210.4L1343.2,210.4L1343.2,210.4L1343.2,210.4z M1343.3,200.9c0-0.3,0.2-0.5,0.5-0.5l0,0
			c0.3,0,0.5,0.2,0.5,0.5l0,0c0,0.3-0.2,0.5-0.5,0.5l0,0C1343.5,201.4,1343.3,201.2,1343.3,200.9z M1343.2,191.4
			c0-0.3,0.2-0.5,0.5-0.5l0,0c0.3,0,0.5,0.2,0.5,0.5l0,0c0,0.3-0.2,0.5-0.5,0.5l0,0l0,0l0,0C1343.5,191.9,1343.2,191.6,1343.2,191.4
			z M1343,181.8L1343,181.8c0-0.3,0.2-0.5,0.5-0.5l0,0c0.3,0,0.5,0.2,0.5,0.5l0,0l0,0l0,0c0,0.3-0.2,0.5-0.5,0.5l0,0l0,0l0,0
			C1343.3,182.3,1343,182.1,1343,181.8z M1342.7,172.3L1342.7,172.3c0-0.3,0.2-0.5,0.5-0.6l0,0c0.3,0,0.5,0.2,0.5,0.5l0,0l0,0l0,0
			c0,0.3-0.2,0.5-0.5,0.5l0,0l0,0l0,0C1343,172.8,1342.7,172.6,1342.7,172.3z M1342.3,162.8c0-0.3,0.2-0.5,0.5-0.6l0,0
			c0.3,0,0.5,0.2,0.5,0.5l0,0c0,0.3-0.2,0.5-0.5,0.5l0,0l0,0l0,0C1342.6,163.3,1342.3,163.1,1342.3,162.8z M1341.8,153.3
			c0-0.3,0.2-0.5,0.5-0.6l0,0c0.3,0,0.5,0.2,0.6,0.5l0,0l0,0l0,0c0,0.3-0.2,0.5-0.5,0.6l0,0l0,0l0,0
			C1342.1,153.8,1341.8,153.6,1341.8,153.3z M1341.2,143.8c0-0.3,0.2-0.5,0.5-0.6l0,0c0.3,0,0.5,0.2,0.6,0.5l0,0
			c0,0.3-0.2,0.5-0.5,0.6l0,0l0,0l0,0C1341.4,144.2,1341.2,144,1341.2,143.8z M1340.4,134.2L1340.4,134.2c0-0.3,0.2-0.6,0.5-0.6l0,0
			c0.3,0,0.5,0.2,0.6,0.5l0,0l0,0l0,0c0,0.3-0.2,0.5-0.5,0.6l0,0l0,0l0,0C1340.7,134.7,1340.4,134.5,1340.4,134.2z M1339.5,124.7
			L1339.5,124.7c0-0.3,0.2-0.6,0.5-0.6l0,0c0.3,0,0.5,0.2,0.6,0.5l0,0c0,0.3-0.2,0.5-0.5,0.6l0,0c0,0,0,0-0.1,0l0,0
			C1339.8,125.2,1339.6,125,1339.5,124.7z M1338.5,115.3c0-0.3,0.2-0.6,0.5-0.6l0,0c0.3,0,0.6,0.2,0.6,0.5l0,0
			c0,0.3-0.2,0.5-0.5,0.6l0,0c0,0,0,0-0.1,0l0,0C1338.8,115.7,1338.6,115.5,1338.5,115.3z M1337.4,105.8L1337.4,105.8
			c0-0.3,0.2-0.6,0.5-0.6l0,0c0.3,0,0.6,0.2,0.6,0.5l0,0l0,0l0,0c0,0.3-0.2,0.6-0.5,0.6l0,0h-0.1l0,0
			C1337.7,106.3,1337.5,106.1,1337.4,105.8z M1336.2,96.3c0-0.3,0.2-0.6,0.5-0.6l0,0c0.3,0,0.5,0.2,0.6,0.5l0,0l0,0l0,0
			c0,0.3-0.2,0.6-0.5,0.6l0,0c0,0,0,0-0.1,0l0,0C1336.5,96.8,1336.3,96.6,1336.2,96.3z M1334.9,86.9c0-0.3,0.2-0.6,0.4-0.6l0,0
			c0.3,0,0.6,0.2,0.6,0.4l0,0c0,0.3-0.2,0.6-0.5,0.6l0,0c0,0,0,0-0.1,0l0,0C1335.1,87.3,1334.9,87.2,1334.9,86.9z M1333.4,77.5
			c-0.1-0.3,0.1-0.6,0.4-0.6l0,0c0.3,0,0.6,0.1,0.6,0.4l0,0c0,0.3-0.2,0.6-0.4,0.6l0,0h-0.1l0,0
			C1333.7,77.9,1333.5,77.7,1333.4,77.5z M1331.8,68.1c0-0.3,0.1-0.6,0.4-0.6l0,0c0.3,0,0.6,0.1,0.6,0.4l0,0c0,0.3-0.1,0.6-0.4,0.6
			l0,0h-0.1l0,0C1332.1,68.5,1331.9,68.3,1331.8,68.1z M1330.1,58.7c0-0.3,0.1-0.6,0.4-0.6l0,0c0.3-0.1,0.6,0.1,0.6,0.4l0,0l0,0l0,0
			c0.1,0.3-0.1,0.6-0.4,0.6l0,0h-0.1l0,0C1330.4,59.1,1330.2,58.9,1330.1,58.7z M1328.3,49.3c-0.1-0.3,0.1-0.6,0.4-0.6l0,0
			c0.3-0.1,0.6,0.1,0.6,0.4l0,0c0.1,0.3-0.1,0.6-0.4,0.6l0,0h-0.1l0,0C1328.6,49.7,1328.4,49.6,1328.3,49.3z M1326.4,40
			c-0.1-0.3,0.1-0.6,0.4-0.6l0,0c0.3-0.1,0.6,0.1,0.6,0.4l0,0c0.1,0.3-0.1,0.6-0.4,0.6l0,0h-0.1l0,0
			C1326.7,40.4,1326.5,40.2,1326.4,40z M1324.4,30.6L1324.4,30.6c-0.1-0.3,0.1-0.6,0.4-0.6l0,0c0.3-0.1,0.6,0.1,0.6,0.4l0,0
			c0.1,0.3-0.1,0.6-0.4,0.6l0,0h-0.1l0,0C1324.6,31.1,1324.4,30.9,1324.4,30.6z M1322.2,21.4c-0.1-0.3,0.1-0.6,0.4-0.6l0,0
			c0.3-0.1,0.6,0.1,0.6,0.4l0,0c0.1,0.3-0.1,0.6-0.4,0.6l0,0h-0.1l0,0C1322.5,21.8,1322.3,21.6,1322.2,21.4z M1319.9,12.1
			c-0.1-0.3,0.1-0.6,0.4-0.6l0,0c0.3-0.1,0.6,0.1,0.7,0.4l0,0c0.1,0.3-0.1,0.6-0.4,0.6l0,0h-0.1l0,0
			C1320.2,12.5,1320,12.3,1319.9,12.1z M1317.5,2.9L1317.5,2.9c-0.1-0.3,0.1-0.6,0.4-0.7l0,0c0.3-0.1,0.6,0.1,0.7,0.4l0,0l0,0l0,0
			c0.1,0.3-0.1,0.6-0.4,0.6l0,0h-0.1l0,0C1317.8,3.3,1317.6,3.1,1317.5,2.9z M1315-6.3c-0.1-0.3,0.1-0.6,0.4-0.7l0,0
			c0.3-0.1,0.6,0.1,0.6,0.4l0,0l0,0l0,0c0.1,0.3-0.1,0.6-0.4,0.6l0,0c-0.1,0-0.1,0-0.1,0l0,0C1315.3-6,1315.1-6.1,1315-6.3z
			 M1312.4-15.5c-0.1-0.3,0.1-0.6,0.4-0.6l0,0c0.3-0.1,0.6,0.1,0.7,0.4l0,0c0.1,0.3-0.1,0.6-0.4,0.7l0,0c0,0-0.1,0-0.2,0l0,0
			C1312.7-15.1,1312.5-15.3,1312.4-15.5z M1309.7-24.7c-0.1-0.3,0.1-0.6,0.3-0.7l0,0c0.3-0.1,0.6,0.1,0.7,0.4l0,0
			c0.1,0.3-0.1,0.6-0.4,0.7l0,0h-0.1l0,0C1310-24.3,1309.8-24.4,1309.7-24.7z M1306.9-33.8c-0.1-0.3,0.1-0.6,0.3-0.7l0,0
			c0.3-0.1,0.6,0.1,0.7,0.3l0,0c0.1,0.3-0.1,0.6-0.4,0.7l0,0c0,0-0.1,0-0.2,0l0,0C1307.1-33.4,1306.9-33.5,1306.9-33.8z
			 M1303.9-42.8c-0.1-0.3,0.1-0.6,0.3-0.7l0,0c0.3-0.1,0.6,0,0.7,0.3l0,0c0.1,0.3-0.1,0.6-0.3,0.7l0,0c-0.1,0-0.1,0-0.2,0l0,0
			C1304.2-42.5,1304-42.6,1303.9-42.8z M1300.8-51.8L1300.8-51.8c-0.1-0.3,0-0.6,0.3-0.7l0,0c0.3-0.1,0.6,0,0.7,0.3l0,0l0,0l0,0
			c0.1,0.3,0,0.6-0.3,0.7l0,0c-0.1,0-0.1,0-0.2,0l0,0C1301.1-51.5,1300.9-51.6,1300.8-51.8z M1297.6-60.8c-0.1-0.3,0-0.6,0.3-0.7
			l0,0c0.3-0.1,0.6,0,0.7,0.3l0,0c0.1,0.3,0,0.6-0.3,0.7l0,0c-0.1,0-0.1,0-0.2,0l0,0C1297.9-60.5,1297.7-60.6,1297.6-60.8z
			 M1294.3-69.8L1294.3-69.8c-0.1-0.3,0-0.6,0.3-0.7l0,0c0.3-0.1,0.6,0,0.7,0.3l0,0l0,0l0,0c0.1,0.3,0,0.6-0.3,0.7l0,0
			c-0.1,0-0.1,0-0.2,0l0,0C1294.6-69.4,1294.4-69.6,1294.3-69.8z M1290.9-78.7c-0.1-0.3,0-0.6,0.3-0.7l0,0c0.3-0.1,0.6,0,0.7,0.3
			l0,0c0.1,0.3,0,0.6-0.3,0.7l0,0c-0.1,0-0.1,0-0.2,0l0,0C1291.2-78.4,1291-78.5,1290.9-78.7z M1287.4-87.6c-0.1-0.3,0-0.6,0.3-0.7
			l0,0c0.3-0.1,0.6,0,0.7,0.3l0,0l0,0l0,0c0.1,0.3,0,0.6-0.3,0.7l0,0c-0.1,0-0.1,0-0.2,0l0,0C1287.7-87.2,1287.5-87.4,1287.4-87.6z
			 M1283.8-96.3c-0.1-0.3,0-0.6,0.3-0.7l0,0c0.3-0.1,0.6,0,0.7,0.3l0,0l0,0l0,0c0.1,0.3,0,0.6-0.3,0.7l0,0c-0.1,0-0.1,0-0.2,0l0,0
			C1284.1-96,1283.9-96.1,1283.8-96.3z M1280.1-105.1c-0.1-0.3,0-0.6,0.3-0.7l0,0c0.3-0.1,0.6,0,0.7,0.3l0,0c0.1,0.3,0,0.6-0.3,0.7
			l0,0c-0.1,0-0.1,0-0.2,0l0,0C1280.4-104.8,1280.2-104.9,1280.1-105.1z M1276.3-113.8L1276.3-113.8c-0.1-0.3,0-0.6,0.3-0.7l0,0
			c0.3-0.1,0.6,0,0.7,0.3l0,0c0.1,0.3,0,0.6-0.3,0.7l0,0c-0.1,0-0.2,0.1-0.2,0.1l0,0C1276.5-113.5,1276.4-113.6,1276.3-113.8z
			 M1272.3-122.4c-0.1-0.3,0-0.6,0.3-0.7l0,0c0.3-0.1,0.6,0,0.7,0.3l0,0l0,0l0,0c0.1,0.3,0,0.6-0.3,0.7l0,0c-0.1,0-0.1,0-0.2,0l0,0
			C1272.6-122.1,1272.4-122.2,1272.3-122.4z M1268.3-131c-0.1-0.3,0-0.6,0.2-0.7l0,0c0.3-0.1,0.6,0,0.7,0.2l0,0
			c0.1,0.3,0,0.6-0.2,0.7l0,0c-0.1,0-0.2,0-0.2,0l0,0C1268.6-130.7,1268.4-130.8,1268.3-131z M1264.1-139.6c-0.1-0.3,0-0.6,0.2-0.7
			l0,0c0.3-0.1,0.6,0,0.7,0.2l0,0c0.1,0.3,0,0.6-0.2,0.7l0,0c-0.1,0-0.2,0-0.2,0l0,0C1264.4-139.3,1264.2-139.4,1264.1-139.6z
			 M1259.9-148.1c-0.1-0.3,0-0.6,0.2-0.7l0,0c0.3-0.1,0.6,0,0.7,0.2l0,0c0.1,0.3,0,0.6-0.2,0.7l0,0c-0.1,0-0.2,0.1-0.2,0.1l0,0
			C1260.1-147.8,1260-147.9,1259.9-148.1z M1255.5-156.5L1255.5-156.5c-0.1-0.3,0-0.6,0.2-0.7l0,0c0.2-0.1,0.6,0,0.7,0.2l0,0l0,0
			l0,0c0.1,0.3,0,0.6-0.2,0.7l0,0c-0.1,0-0.2,0.1-0.2,0.1l0,0C1255.8-156.2,1255.6-156.3,1255.5-156.5z M1251-164.9
			c-0.1-0.3,0-0.6,0.2-0.7l0,0c0.3-0.1,0.6-0.1,0.7,0.2l0,0c0.1,0.3,0,0.6-0.2,0.7l0,0c-0.1,0-0.2,0.1-0.2,0.1l0,0
			C1251.3-164.6,1251.1-164.7,1251-164.9z M1246.5-173.3c-0.1-0.3,0-0.6,0.2-0.7l0,0c0.2-0.1,0.6,0,0.7,0.2l0,0
			c0.1,0.3,0.1,0.6-0.2,0.7l0,0c-0.1,0.1-0.2,0.1-0.2,0.1l0,0C1246.7-173,1246.6-173.1,1246.5-173.3z M1241.8-181.5
			c-0.2-0.2-0.1-0.6,0.2-0.7l0,0c0.3-0.1,0.6-0.1,0.7,0.2l0,0c0.1,0.2,0,0.6-0.2,0.7l0,0c-0.1,0-0.2,0.1-0.3,0.1l0,0
			C1242.1-181.3,1241.9-181.4,1241.8-181.5z M1237-189.8c-0.1-0.3-0.1-0.6,0.2-0.7l0,0c0.2-0.1,0.6-0.1,0.7,0.2l0,0
			c0.2,0.2,0.1,0.6-0.2,0.7l0,0c-0.1,0-0.2,0.1-0.3,0.1l0,0C1237.3-189.5,1237.1-189.6,1237-189.8z M1232.1-197.9L1232.1-197.9
			c-0.1-0.2-0.1-0.6,0.2-0.7l0,0c0.2-0.1,0.6-0.1,0.7,0.2l0,0c0.2,0.2,0.1,0.6-0.2,0.7l0,0c-0.1,0-0.2,0.1-0.3,0.1l0,0
			C1232.4-197.7,1232.2-197.8,1232.1-197.9z M1227.2-206c-0.2-0.2-0.1-0.6,0.2-0.7l0,0c0.2-0.1,0.6-0.1,0.7,0.2l0,0
			c0.2,0.2,0.1,0.6-0.2,0.7l0,0c-0.1,0-0.2,0.1-0.3,0.1l0,0C1227.4-205.8,1227.3-205.9,1227.2-206z M1222.1-214.1L1222.1-214.1
			c-0.2-0.2-0.1-0.6,0.2-0.7l0,0c0.2-0.2,0.6-0.1,0.7,0.2l0,0l0,0l0,0c0.2,0.2,0.1,0.6-0.2,0.7l0,0c-0.1,0.1-0.2,0.1-0.3,0.1l0,0
			C1222.3-213.8,1222.2-213.9,1222.1-214.1z M1216.9-222.1c-0.2-0.2-0.1-0.6,0.2-0.7l0,0c0.2-0.2,0.6-0.1,0.7,0.2l0,0
			c0.2,0.2,0.1,0.6-0.2,0.7l0,0c-0.1,0.1-0.2,0.1-0.3,0.1l0,0C1217.2-221.8,1217-221.9,1216.9-222.1z M1211.6-230
			c-0.2-0.2-0.1-0.6,0.1-0.7l0,0c0.2-0.2,0.6-0.1,0.7,0.1l0,0c0.2,0.2,0.1,0.6-0.2,0.7l0,0c-0.1,0.1-0.2,0.1-0.3,0.1l0,0
			C1211.9-229.8,1211.7-229.8,1211.6-230z M1206.2-237.9L1206.2-237.9c-0.2-0.2-0.1-0.6,0.1-0.7l0,0c0.2-0.2,0.6-0.1,0.7,0.1l0,0
			c0.2,0.2,0.1,0.6-0.1,0.7l0,0c-0.1,0.1-0.2,0.1-0.3,0.1l0,0C1206.5-237.6,1206.3-237.7,1206.2-237.9z M1200.8-245.6
			c-0.2-0.2-0.1-0.6,0.1-0.7l0,0c0.2-0.2,0.6-0.1,0.7,0.1l0,0c0.2,0.2,0.1,0.6-0.1,0.7l0,0c-0.1,0.1-0.2,0.1-0.3,0.1l0,0
			C1201-245.4,1200.9-245.5,1200.8-245.6z M1195.2-253.4c-0.2-0.2-0.1-0.6,0.1-0.7l0,0c0.2-0.2,0.6-0.1,0.7,0.1l0,0
			c0.2,0.2,0.1,0.6-0.1,0.7l0,0c-0.1,0.1-0.2,0.1-0.3,0.1l0,0C1195.5-253.1,1195.3-253.2,1195.2-253.4z M1189.5-261
			c-0.2-0.2-0.1-0.6,0.1-0.7l0,0c0.2-0.2,0.6-0.1,0.7,0.1l0,0c0.2,0.2,0.1,0.6-0.1,0.7l0,0c-0.1,0.1-0.2,0.1-0.3,0.1l0,0
			C1189.8-260.8,1189.6-260.9,1189.5-261z M1183.8-268.6L1183.8-268.6c-0.2-0.2-0.1-0.6,0.1-0.8l0,0c0.2-0.2,0.6-0.1,0.7,0.1l0,0
			l0,0l0,0c0.2,0.2,0.1,0.6-0.1,0.8l0,0c-0.1,0.1-0.2,0.1-0.3,0.1l0,0C1184-268.4,1183.9-268.5,1183.8-268.6z M1177.9-276.1
			c-0.2-0.2-0.1-0.6,0.1-0.7l0,0c0.2-0.2,0.6-0.1,0.7,0.1l0,0c0.2,0.2,0.1,0.6-0.1,0.7l0,0c-0.1,0.1-0.2,0.1-0.3,0.1l0,0
			C1178.2-275.9,1178-276,1177.9-276.1z M1172-283.6c-0.2-0.2-0.2-0.6,0.1-0.8l0,0c0.2-0.2,0.6-0.1,0.8,0.1l0,0
			c0.2,0.2,0.1,0.6-0.1,0.8l0,0c-0.1,0.1-0.2,0.1-0.3,0.1l0,0C1172.2-283.4,1172.1-283.4,1172-283.6z M1165.9-290.9
			c-0.2-0.2-0.1-0.6,0.1-0.8l0,0c0.2-0.2,0.6-0.1,0.8,0.1l0,0c0.2,0.2,0.2,0.6-0.1,0.8l0,0c-0.1,0.1-0.2,0.1-0.3,0.1l0,0
			C1166.2-290.7,1166-290.8,1165.9-290.9z M1159.8-298.2c-0.2-0.2-0.2-0.6,0.1-0.8l0,0c0.2-0.2,0.5-0.2,0.7,0.1l0,0
			c0.2,0.2,0.2,0.6-0.1,0.8l0,0c-0.1,0.1-0.2,0.1-0.3,0.1l0,0C1160.1-298,1159.9-298.1,1159.8-298.2z M1153.6-305.5
			c-0.2-0.2-0.2-0.5,0-0.8l0,0c0.2-0.2,0.5-0.2,0.8,0.1l0,0c0.2,0.2,0.2,0.6-0.1,0.8l0,0c-0.1,0.1-0.2,0.1-0.4,0.1l0,0
			C1153.8-305.3,1153.7-305.3,1153.6-305.5z M1147.3-312.6c-0.2-0.2-0.2-0.6,0-0.8l0,0c0.2-0.2,0.6-0.2,0.8,0l0,0
			c0.2,0.2,0.2,0.6,0,0.8l0,0c-0.1,0.1-0.2,0.1-0.4,0.1l0,0C1147.5-312.4,1147.4-312.5,1147.3-312.6z M1140.9-319.7
			c-0.2-0.2-0.2-0.5,0-0.8l0,0c0.2-0.2,0.5-0.2,0.8,0l0,0c0.2,0.2,0.2,0.5,0,0.8l0,0c-0.1,0.1-0.2,0.1-0.3,0.1l0,0
			C1141.1-319.5,1141-319.6,1140.9-319.7z M1134.4-326.7L1134.4-326.7c-0.2-0.2-0.2-0.6,0-0.8l0,0c0.2-0.2,0.5-0.2,0.8,0l0,0
			c0.2,0.2,0.2,0.5,0,0.8l0,0c-0.1,0.1-0.2,0.1-0.4,0.1l0,0C1134.6-326.5,1134.5-326.5,1134.4-326.7z M1127.8-333.6
			c-0.2-0.2-0.2-0.5,0-0.8l0,0c0.2-0.2,0.5-0.2,0.8,0l0,0c0.2,0.2,0.2,0.6,0,0.8l0,0c-0.1,0.1-0.2,0.2-0.4,0.2l0,0
			C1128.1-333.4,1127.9-333.5,1127.8-333.6z M1121.2-340.4L1121.2-340.4c-0.2-0.2-0.2-0.5,0-0.8l0,0c0.2-0.2,0.5-0.2,0.8,0l0,0
			c0.2,0.2,0.2,0.6,0,0.8l0,0c-0.1,0.1-0.2,0.2-0.4,0.2l0,0C1121.4-340.2,1121.3-340.3,1121.2-340.4z M1114.4-347.1
			c-0.2-0.2-0.2-0.5,0-0.8l0,0c0.2-0.2,0.5-0.2,0.8,0l0,0c0.2,0.2,0.2,0.5,0,0.8l0,0c-0.1,0.1-0.2,0.1-0.4,0.1l0,0
			C1114.7-347,1114.5-347,1114.4-347.1z M1107.6-353.8c-0.2-0.2-0.2-0.5,0-0.8l0,0c0.2-0.2,0.5-0.2,0.8,0l0,0c0.2,0.2,0.2,0.5,0,0.8
			l0,0c-0.1,0.1-0.2,0.2-0.4,0.2l0,0C1107.9-353.7,1107.7-353.7,1107.6-353.8z M1100.7-360.4c-0.2-0.2-0.2-0.5,0-0.7l0,0
			c0.2-0.2,0.5-0.2,0.8,0l0,0c0.2,0.2,0.2,0.5,0,0.8l0,0c-0.1,0.1-0.2,0.2-0.4,0.2l0,0C1101-360.2,1100.8-360.3,1100.7-360.4z
			 M1093.7-366.9c-0.2-0.2-0.2-0.5,0-0.8l0,0c0.2-0.2,0.5-0.2,0.8,0l0,0c0.2,0.2,0.2,0.5,0,0.8l0,0c-0.1,0.1-0.2,0.2-0.4,0.2l0,0
			C1094-366.7,1093.8-366.8,1093.7-366.9z M1086.7-373.3c-0.2-0.2-0.2-0.5,0-0.8l0,0c0.2-0.2,0.5-0.2,0.8,0l0,0
			c0.2,0.2,0.2,0.5,0,0.8l0,0c-0.1,0.1-0.2,0.2-0.4,0.2l0,0C1086.9-373.2,1086.8-373.2,1086.7-373.3z M1079.5-379.6
			c-0.2-0.2-0.2-0.5-0.1-0.7l0,0c0.2-0.2,0.5-0.2,0.8-0.1l0,0c0.2,0.2,0.2,0.5,0.1,0.7l0,0c-0.1,0.1-0.2,0.2-0.4,0.2l0,0
			C1079.8-379.5,1079.6-379.5,1079.5-379.6z M1072.3-385.9c-0.2-0.2-0.2-0.5-0.1-0.8l0,0c0.2-0.2,0.5-0.2,0.8-0.1l0,0l0,0l0,0
			c0.2,0.2,0.2,0.5,0.1,0.8l0,0c-0.1,0.1-0.2,0.2-0.4,0.2l0,0C1072.5-385.7,1072.4-385.8,1072.3-385.9z M1065-392L1065-392
			c-0.2-0.2-0.2-0.5-0.1-0.8l0,0c0.2-0.2,0.5-0.2,0.8-0.1l0,0c0.2,0.2,0.3,0.5,0.1,0.8l0,0c-0.1,0.1-0.3,0.2-0.4,0.2l0,0
			C1065.2-391.9,1065.1-391.9,1065-392z M1057.6-398.1c-0.2-0.2-0.3-0.5-0.1-0.8l0,0c0.2-0.2,0.5-0.3,0.8-0.1l0,0
			c0.2,0.2,0.3,0.5,0.1,0.7l0,0c-0.1,0.1-0.3,0.2-0.4,0.2l0,0C1057.9-397.9,1057.7-398,1057.6-398.1z M1050.2-404
			c-0.2-0.2-0.3-0.5-0.1-0.7l0,0c0.2-0.2,0.5-0.3,0.8-0.1l0,0c0.2,0.2,0.3,0.5,0.1,0.8l0,0c-0.1,0.1-0.3,0.2-0.4,0.2l0,0
			C1050.4-403.9,1050.3-404,1050.2-404z M1042.7-409.9c-0.2-0.2-0.3-0.5-0.1-0.8l0,0c0.2-0.2,0.5-0.3,0.8-0.1l0,0l0,0l0,0
			c0.2,0.2,0.3,0.5,0.1,0.7l0,0c-0.1,0.1-0.3,0.2-0.4,0.2l0,0C1042.9-409.8,1042.8-409.8,1042.7-409.9z M1035.1-415.7
			c-0.2-0.2-0.3-0.5-0.1-0.7l0,0c0.2-0.2,0.5-0.3,0.7-0.1l0,0l0,0l0,0c0.2,0.2,0.3,0.5,0.1,0.7l0,0c-0.1,0.1-0.3,0.2-0.4,0.2l0,0
			C1035.3-415.6,1035.2-415.6,1035.1-415.7z M1027.4-421.4c-0.2-0.2-0.3-0.5-0.1-0.7l0,0c0.2-0.2,0.5-0.3,0.7-0.1l0,0
			c0.2,0.2,0.3,0.5,0.1,0.7l0,0c-0.1,0.1-0.3,0.2-0.4,0.2l0,0C1027.6-421.3,1027.5-421.3,1027.4-421.4z M1019.7-427L1019.7-427
			c-0.2-0.2-0.3-0.5-0.1-0.7l0,0c0.2-0.2,0.5-0.3,0.7-0.1l0,0l0,0l0,0c0.2,0.2,0.3,0.5,0.1,0.7l0,0c-0.1,0.1-0.3,0.2-0.4,0.2l0,0
			C1019.9-426.9,1019.8-426.9,1019.7-427z M1011.9-432.5L1011.9-432.5c-0.2-0.2-0.3-0.5-0.1-0.7l0,0c0.2-0.2,0.5-0.3,0.7-0.1l0,0
			l0,0l0,0c0.2,0.2,0.3,0.5,0.1,0.7l0,0c-0.1,0.1-0.3,0.2-0.4,0.2l0,0C1012.1-432.4,1012-432.4,1011.9-432.5z M1004-437.9
			L1004-437.9c-0.2-0.2-0.3-0.5-0.2-0.7l0,0c0.2-0.2,0.5-0.3,0.7-0.1l0,0l0,0l0,0c0.2,0.2,0.3,0.5,0.1,0.7l0,0
			c-0.1,0.2-0.3,0.2-0.4,0.2l0,0C1004.2-437.8,1004.1-437.8,1004-437.9z M996.1-443.2c-0.2-0.2-0.3-0.5-0.1-0.7l0,0
			c0.2-0.2,0.5-0.3,0.7-0.1l0,0c0.2,0.2,0.3,0.5,0.2,0.7l0,0c-0.1,0.1-0.3,0.2-0.4,0.2l0,0C996.3-443.1,996.1-443.1,996.1-443.2z
			 M988-448.4c-0.2-0.2-0.3-0.5-0.2-0.7l0,0c0.2-0.2,0.5-0.3,0.7-0.2l0,0c0.2,0.2,0.3,0.5,0.2,0.7l0,0c-0.1,0.2-0.3,0.2-0.5,0.2l0,0
			C988.2-448.3,988.1-448.3,988-448.4z M980-453.5L980-453.5c-0.2-0.1-0.3-0.5-0.2-0.7l0,0c0.2-0.2,0.5-0.3,0.7-0.2l0,0
			c0.2,0.2,0.3,0.5,0.2,0.7l0,0c-0.1,0.2-0.3,0.2-0.5,0.2l0,0C980.2-453.4,980.1-453.4,980-453.5z M971.8-458.5L971.8-458.5
			c-0.3-0.1-0.3-0.5-0.2-0.7l0,0c0.1-0.2,0.5-0.3,0.7-0.2l0,0c0.2,0.1,0.3,0.5,0.2,0.7l0,0c-0.1,0.2-0.3,0.3-0.4,0.3l0,0
			C972-458.4,971.9-458.5,971.8-458.5z M963.6-463.4c-0.2-0.1-0.3-0.5-0.2-0.7l0,0c0.1-0.2,0.5-0.3,0.7-0.2l0,0
			c0.2,0.1,0.3,0.5,0.2,0.7l0,0c-0.1,0.2-0.3,0.3-0.5,0.3l0,0C963.8-463.3,963.7-463.4,963.6-463.4z M955.4-468.2
			c-0.2-0.1-0.3-0.5-0.2-0.7l0,0c0.2-0.2,0.5-0.3,0.7-0.2l0,0c0.2,0.1,0.3,0.5,0.2,0.7l0,0c-0.1,0.2-0.3,0.3-0.5,0.3l0,0
			C955.6-468.1,955.5-468.2,955.4-468.2z M947.1-472.9c-0.2-0.1-0.3-0.5-0.2-0.7l0,0c0.1-0.3,0.5-0.4,0.7-0.2l0,0
			c0.2,0.1,0.3,0.5,0.2,0.7l0,0c-0.1,0.2-0.3,0.3-0.5,0.3l0,0C947.2-472.9,947.1-472.9,947.1-472.9z M938.7-477.5L938.7-477.5
			c-0.2-0.1-0.3-0.5-0.2-0.7l0,0c0.1-0.3,0.5-0.4,0.7-0.2l0,0l0,0l0,0c0.3,0.1,0.3,0.5,0.2,0.7l0,0c-0.1,0.2-0.3,0.3-0.5,0.3l0,0
			C938.9-477.5,938.8-477.5,938.7-477.5z M930.3-482L930.3-482c-0.3-0.1-0.4-0.5-0.2-0.7l0,0c0.1-0.2,0.5-0.4,0.7-0.2l0,0l0,0l0,0
			c0.3,0.1,0.4,0.5,0.2,0.7l0,0c-0.1,0.2-0.3,0.3-0.5,0.3l0,0C930.4-482,930.3-482,930.3-482z M921.8-486.4
			c-0.3-0.1-0.4-0.5-0.2-0.7l0,0c0.1-0.3,0.5-0.4,0.7-0.2l0,0c0.3,0.1,0.4,0.5,0.2,0.7l0,0c-0.1,0.2-0.3,0.3-0.5,0.3l0,0
			C921.9-486.4,921.8-486.4,921.8-486.4z M913.2-490.7c-0.3-0.1-0.4-0.5-0.2-0.7l0,0c0.1-0.3,0.5-0.4,0.7-0.2l0,0l0,0l0,0
			c0.3,0.1,0.4,0.4,0.2,0.7l0,0c-0.1,0.2-0.3,0.3-0.5,0.3l0,0C913.4-490.7,913.3-490.7,913.2-490.7z M904.6-494.9L904.6-494.9
			c-0.3-0.1-0.4-0.4-0.3-0.7l0,0c0.1-0.3,0.4-0.4,0.7-0.2l0,0c0.3,0.1,0.4,0.4,0.2,0.7l0,0C905.1-494.9,904.9-494.8,904.6-494.9
			L904.6-494.9C904.8-494.8,904.7-494.9,904.6-494.9z M896-499c-0.3-0.1-0.4-0.4-0.3-0.7l0,0c0.1-0.3,0.4-0.4,0.7-0.3l0,0
			c0.3,0.1,0.4,0.4,0.3,0.7l0,0c-0.1,0.2-0.3,0.3-0.5,0.3l0,0C896.1-498.9,896-498.9,896-499z M887.3-502.9L887.3-502.9
			c-0.3-0.1-0.4-0.4-0.3-0.7l0,0c0.1-0.3,0.4-0.4,0.7-0.3l0,0l0,0l0,0c0.3,0.1,0.4,0.4,0.3,0.7l0,0c-0.1,0.2-0.3,0.3-0.5,0.3l0,0
			C887.4-502.9,887.3-502.9,887.3-502.9z M878.5-506.8c-0.3-0.1-0.4-0.4-0.3-0.7l0,0c0.1-0.3,0.4-0.4,0.7-0.3l0,0
			c0.3,0.1,0.4,0.4,0.3,0.7l0,0c-0.1,0.2-0.3,0.3-0.5,0.3l0,0C878.7-506.8,878.6-506.8,878.5-506.8z M869.7-510.6L869.7-510.6
			c-0.3-0.1-0.4-0.4-0.3-0.7l0,0c0.1-0.3,0.4-0.4,0.7-0.3l0,0c0.3,0.1,0.4,0.4,0.3,0.7l0,0c-0.1,0.2-0.3,0.3-0.5,0.3l0,0
			C869.8-510.5,869.8-510.5,869.7-510.6z M860.9-514.2L860.9-514.2c-0.3-0.1-0.4-0.4-0.3-0.7l0,0c0.1-0.3,0.4-0.4,0.7-0.3l0,0l0,0
			l0,0c0.3,0.1,0.4,0.4,0.3,0.7l0,0c-0.1,0.2-0.3,0.3-0.5,0.3l0,0C861-514.1,860.9-514.2,860.9-514.2z M852-517.7
			c-0.3-0.1-0.4-0.4-0.3-0.7l0,0c0.1-0.3,0.4-0.4,0.7-0.3l0,0c0.3,0.1,0.4,0.4,0.3,0.7l0,0c-0.1,0.2-0.3,0.3-0.5,0.3l0,0
			C852.1-517.7,852-517.7,852-517.7z M843-521.1L843-521.1c-0.3-0.1-0.4-0.4-0.3-0.7l0,0c0.1-0.3,0.4-0.4,0.7-0.3l0,0
			c0.3,0.1,0.4,0.4,0.3,0.7l0,0c-0.1,0.2-0.3,0.4-0.5,0.4l0,0C843.1-521.1,843.1-521.1,843-521.1z M834-524.4
			c-0.3-0.1-0.4-0.4-0.3-0.7l0,0c0.1-0.3,0.4-0.4,0.7-0.3l0,0c0.3,0.1,0.4,0.4,0.3,0.7l0,0c-0.1,0.2-0.3,0.4-0.5,0.4l0,0
			C834.2-524.4,834.1-524.4,834-524.4z M825-527.6L825-527.6c-0.3-0.1-0.4-0.4-0.3-0.7l0,0c0.1-0.3,0.4-0.4,0.7-0.3l0,0
			c0.3,0.1,0.4,0.4,0.3,0.7l0,0c-0.1,0.2-0.3,0.4-0.5,0.4l0,0C825.1-527.6,825.1-527.6,825-527.6z M816-530.7
			c-0.3-0.1-0.4-0.4-0.3-0.7l0,0c0.1-0.3,0.4-0.4,0.7-0.3l0,0l0,0l0,0c0.3,0.1,0.4,0.4,0.3,0.7l0,0c-0.1,0.2-0.3,0.4-0.5,0.4l0,0
			C816.1-530.7,816-530.7,816-530.7z M806.8-533.7c-0.3-0.1-0.4-0.4-0.3-0.7l0,0c0.1-0.3,0.4-0.4,0.7-0.3l0,0
			c0.3,0.1,0.4,0.4,0.3,0.7l0,0c-0.1,0.2-0.3,0.4-0.5,0.4l0,0C807-533.7,806.9-533.7,806.8-533.7z M797.7-536.6
			c-0.3-0.1-0.4-0.4-0.4-0.7l0,0c0.1-0.3,0.4-0.4,0.7-0.4l0,0l0,0l0,0c0.3,0.1,0.4,0.4,0.4,0.7l0,0c-0.1,0.2-0.3,0.4-0.5,0.4l0,0
			C797.8-536.5,797.8-536.5,797.7-536.6z M788.6-539.3c-0.3-0.1-0.4-0.4-0.4-0.7l0,0c0.1-0.3,0.4-0.4,0.7-0.4l0,0
			c0.3,0.1,0.4,0.4,0.4,0.6l0,0c-0.1,0.2-0.3,0.4-0.5,0.4l0,0C788.7-539.3,788.6-539.3,788.6-539.3z M779.4-541.9
			c-0.3-0.1-0.5-0.4-0.4-0.6l0,0c0.1-0.3,0.4-0.5,0.7-0.4l0,0l0,0l0,0c0.3,0.1,0.4,0.4,0.4,0.6l0,0c-0.1,0.2-0.3,0.4-0.5,0.4l0,0
			C779.5-541.9,779.4-541.9,779.4-541.9z M770.2-544.4c-0.3-0.1-0.5-0.4-0.4-0.6l0,0c0.1-0.3,0.4-0.5,0.7-0.4l0,0
			c0.3,0.1,0.5,0.4,0.4,0.6l0,0c-0.1,0.2-0.3,0.4-0.5,0.4l0,0C770.3-544.4,770.2-544.4,770.2-544.4z M761-546.8L761-546.8
			c-0.3-0.1-0.5-0.4-0.4-0.6l0,0c0.1-0.3,0.4-0.5,0.6-0.4l0,0l0,0l0,0c0.3,0.1,0.5,0.4,0.4,0.6l0,0C761.5-547,761.3-546.8,761-546.8
			L761-546.8C761-546.8,761-546.8,761-546.8z M751.7-549.1c-0.3-0.1-0.5-0.3-0.4-0.6l0,0c0.1-0.3,0.3-0.5,0.6-0.4l0,0l0,0l0,0
			c0.3,0.1,0.5,0.4,0.4,0.6l0,0C752.2-549.3,752-549.1,751.7-549.1L751.7-549.1C751.8-549,751.7-549,751.7-549.1z M742.4-551.2
			c-0.3-0.1-0.5-0.4-0.4-0.6l0,0c0.1-0.3,0.3-0.5,0.6-0.4l0,0c0.3,0.1,0.5,0.4,0.4,0.6l0,0C742.9-551.4,742.7-551.2,742.4-551.2
			L742.4-551.2L742.4-551.2z M733.1-553.2L733.1-553.2c-0.3-0.1-0.5-0.3-0.4-0.6l0,0c0.1-0.3,0.3-0.5,0.6-0.4l0,0
			c0.3,0.1,0.5,0.3,0.4,0.6l0,0C733.6-553.4,733.4-553.2,733.1-553.2L733.1-553.2C733.1-553.2,733.1-553.2,733.1-553.2z
			 M723.7-555.2c-0.3-0.1-0.5-0.3-0.4-0.6l0,0c0.1-0.3,0.3-0.5,0.6-0.4l0,0c0.3,0.1,0.5,0.3,0.4,0.6l0,0
			C724.3-555.4,724-555.2,723.7-555.2L723.7-555.2C723.8-555.2,723.8-555.2,723.7-555.2z M714.4-557L714.4-557
			c-0.3-0.1-0.5-0.3-0.4-0.6l0,0c0-0.3,0.3-0.5,0.6-0.4l0,0c0.3,0.1,0.5,0.3,0.4,0.6l0,0C714.9-557.1,714.7-557,714.4-557L714.4-557
			L714.4-557z M705-558.7L705-558.7c-0.3,0-0.5-0.3-0.4-0.6l0,0c0-0.3,0.3-0.5,0.6-0.4l0,0c0.3,0,0.5,0.3,0.4,0.6l0,0
			C705.5-558.8,705.3-558.7,705-558.7L705-558.7L705-558.7z M695.6-560.2L695.6-560.2c-0.3,0-0.5-0.3-0.4-0.6l0,0
			c0-0.3,0.3-0.5,0.6-0.4l0,0l0,0l0,0c0.3,0,0.5,0.3,0.4,0.6l0,0C696.1-560.4,695.9-560.2,695.6-560.2L695.6-560.2L695.6-560.2z
			 M686.1-561.7c-0.3,0-0.5-0.3-0.4-0.6l0,0c0-0.3,0.3-0.5,0.6-0.4l0,0c0.3,0,0.5,0.3,0.5,0.6l0,0
			C686.7-561.9,686.5-561.7,686.1-561.7L686.1-561.7C686.2-561.7,686.2-561.7,686.1-561.7z M676.7-563c-0.3,0-0.5-0.3-0.5-0.6l0,0
			c0-0.3,0.3-0.5,0.6-0.5l0,0c0.3,0,0.5,0.3,0.5,0.6l0,0C677.3-563.2,677-563,676.7-563L676.7-563L676.7-563z M667.3-564.3
			c-0.3,0-0.5-0.3-0.5-0.6l0,0c0-0.3,0.3-0.5,0.6-0.5l0,0c0.3,0,0.5,0.3,0.5,0.6l0,0C667.8-564.5,667.6-564.3,667.3-564.3
			L667.3-564.3L667.3-564.3z M657.8-565.4L657.8-565.4c-0.3,0-0.5-0.3-0.5-0.6l0,0c0-0.3,0.3-0.5,0.6-0.5l0,0c0.3,0,0.5,0.3,0.5,0.6
			l0,0C658.3-565.6,658.1-565.4,657.8-565.4L657.8-565.4L657.8-565.4z M648.3-566.4c-0.3,0-0.5-0.3-0.5-0.6l0,0
			c0-0.3,0.3-0.5,0.6-0.5l0,0c0.3,0,0.5,0.3,0.5,0.6l0,0C648.8-566.6,648.6-566.4,648.3-566.4L648.3-566.4L648.3-566.4z
			 M638.8-567.2L638.8-567.2c-0.3,0-0.5-0.3-0.5-0.6l0,0c0-0.3,0.3-0.5,0.6-0.5l0,0l0,0l0,0c0.3,0,0.5,0.3,0.5,0.6l0,0
			C639.3-567.4,639.1-567.2,638.8-567.2L638.8-567.2L638.8-567.2z M629.3-568c-0.3,0-0.5-0.3-0.5-0.6l0,0c0-0.3,0.3-0.5,0.6-0.5l0,0
			l0,0l0,0c0.3,0,0.5,0.3,0.5,0.6l0,0C629.8-568.2,629.6-568,629.3-568L629.3-568L629.3-568z M619.8-568.6c-0.3,0-0.5-0.3-0.5-0.6
			l0,0c0-0.3,0.3-0.5,0.6-0.5l0,0c0.3,0,0.5,0.3,0.5,0.6l0,0C620.3-568.8,620.1-568.6,619.8-568.6L619.8-568.6L619.8-568.6z
			 M610.2-569.1c-0.3,0-0.5-0.3-0.5-0.6l0,0c0-0.3,0.3-0.5,0.6-0.5l0,0l0,0l0,0c0.3,0,0.5,0.3,0.5,0.6l0,0
			C610.8-569.4,610.5-569.1,610.2-569.1L610.2-569.1C610.3-569.1,610.3-569.1,610.2-569.1z M600.7-569.6c-0.3,0-0.5-0.3-0.5-0.5l0,0
			c0-0.3,0.3-0.5,0.6-0.5l0,0c0.3,0,0.5,0.3,0.5,0.5l0,0C601.2-569.8,601-569.6,600.7-569.6L600.7-569.6L600.7-569.6z M591.2-569.8
			c-0.3,0-0.5-0.2-0.5-0.5l0,0c0-0.3,0.2-0.5,0.5-0.5l0,0c0.3,0,0.5,0.2,0.5,0.5l0,0C591.7-570.1,591.5-569.8,591.2-569.8
			L591.2-569.8L591.2-569.8z M581.6-570c-0.3,0-0.5-0.2-0.5-0.5l0,0c0-0.3,0.2-0.5,0.5-0.5l0,0l0,0l0,0c0.3,0,0.5,0.2,0.5,0.5l0,0
			C582.2-570.3,581.9-570,581.6-570L581.6-570L581.6-570z"/>
	</g>
</g>
</svg>
