<?xml version="1.0" encoding="utf-8"?>
<!-- Generator: Adobe Illustrator 18.1.1, SVG Export Plug-In . SVG Version: 6.00 Build 0)  -->
<svg version="1.1" id="Layer_1" xmlns="http://www.w3.org/2000/svg" xmlns:xlink="http://www.w3.org/1999/xlink" x="0px" y="0px"
	 width="79px" height="100px" viewBox="-258 370.9 79 100" enable-background="new -258 370.9 79 100" xml:space="preserve">
<path fill="#888888" d="M-253.6,447.9l3.9-6.8c1.3,1.2,2.8,2.4,4.3,3.4l1.9-3.3c-8.7-6.1-14.5-16.2-14.5-27.7
	c0-18.7,15.1-33.8,33.8-33.8c5.1,0,10,1.2,14.3,3.2l1.9-3.3c-1.6-0.8-3.3-1.5-5.1-2l3.9-6.7c17.6,6.2,30.2,23,30.2,42.7
	c0,24-18.8,43.7-42.4,45.2v2.5c6.5,1.3,21.4,4.8,20.4,9.6h-46.6c-0.4-5,14.2-8.4,20.5-9.7v-2.6C-237.2,458-246.4,454.1-253.6,447.9z
	 M-186.6,413.6c0-12.9-6.5-24.2-16.4-31l-1.9,3.3c8.7,6.1,14.5,16.2,14.5,27.7c0,18.7-15.1,33.8-33.8,33.8c-5.1,0-10-1.2-14.3-3.2
	l-1.9,3.3c4.9,2.4,10.4,3.8,16.2,3.8C-203.5,451.2-186.6,434.3-186.6,413.6z"/>
<g id="Comp">
	<g>
		<path fill="#D63023" d="M-189.8,413.7c0,18.9-15.3,34.3-34.3,34.3c-18.9,0-34.3-15.3-34.3-34.3c0-18.9,15.3-34.3,34.3-34.3
			C-205.2,379.5-189.8,394.8-189.8,413.7z"/>
		<path id="rect1227_2_" fill="#FFFFFF" d="M-239.5,395.9c-1.3,0-2.3,1-2.3,2.3v8.3h7.1v-2.3c0-0.6,0.5-1.2,1.2-1.2h19
			c0.6,0,1.2,0.5,1.2,1.2v2.3h7.1v-8.3c0-1.3-1-2.3-2.3-2.3C-208.7,395.9-239.5,395.9-239.5,395.9z M-241.9,409v9.5h7.1V409H-241.9
			L-241.9,409z M-213.4,409v9.5h7.1V409H-213.4L-213.4,409z M-241.9,420.9v8.3c0,1.3,1,2.3,2.3,2.3h30.8c1.3,0,2.3-1,2.3-2.3v-8.3
			h-7.1v2.3c0,0.6-0.5,1.2-1.2,1.2h-19c-0.6,0-1.2-0.5-1.2-1.2v-2.3H-241.9z"/>
	</g>
</g>
</svg>
