<?xml version="1.0" encoding="utf-8"?>
<!-- Generator: Adobe Illustrator 18.1.0, SVG Export Plug-In . SVG Version: 6.00 Build 0)  -->
<!DOCTYPE svg PUBLIC "-//W3C//DTD SVG 1.1//EN" "http://www.w3.org/Graphics/SVG/1.1/DTD/svg11.dtd">
<svg version="1.1" xmlns="http://www.w3.org/2000/svg" xmlns:xlink="http://www.w3.org/1999/xlink" x="0px" y="0px"
	 viewBox="0 0 290 324" enable-background="new 0 0 290 324" xml:space="preserve">
<g id="BK">
</g>
<g id="Comp">
	<path fill="#DD4814" d="M253.3,250.3c-20.3,0-36.7,16.5-36.7,36.7s16.5,36.7,36.7,36.7S290,307.3,290,287S273.5,250.3,253.3,250.3z
		"/>
	<path fill-rule="evenodd" clip-rule="evenodd" fill="#FFFFFF" d="M270.5,297.3H236c-5.7,0-10.3-4.6-10.3-10.3
		c0-5.5,4.3-10,9.7-10.3c-2.4-4.8-0.7-10.8,4.1-13.6c4.8-2.7,10.8-1.3,13.8,3.2c3-4.5,9-6,13.8-3.2c4.8,2.7,6.5,8.7,4.1,13.5
		c5.4,0.3,9.7,4.8,9.7,10.3C280.8,292.7,276.2,297.3,270.5,297.3z M241.8,282.6c0,1.3-1,2.3-2.3,2.3s-2.3-1-2.3-2.3
		c0-1.3,1-2.3,2.3-2.3C240.8,280.3,241.8,281.4,241.8,282.6z M248.7,282.6c0,1.3-1,2.3-2.3,2.3c-1.3,0-2.3-1-2.3-2.3
		c0-1.3,1-2.3,2.3-2.3C247.6,280.3,248.7,281.4,248.7,282.6z M255.6,282.6c0,1.3-1,2.3-2.3,2.3s-2.3-1-2.3-2.3c0-1.3,1-2.3,2.3-2.3
		S255.6,281.4,255.6,282.6z M262.4,282.6c0,1.3-1,2.3-2.3,2.3c-1.3,0-2.3-1-2.3-2.3c0-1.3,1-2.3,2.3-2.3
		C261.4,280.3,262.4,281.4,262.4,282.6z M269.3,282.6c0,1.3-1,2.3-2.3,2.3c-1.3,0-2.3-1-2.3-2.3c0-1.3,1-2.3,2.3-2.3
		C268.3,280.3,269.3,281.4,269.3,282.6z M241.8,289.5c0,1.3-1,2.3-2.3,2.3s-2.3-1-2.3-2.3c0-1.3,1-2.3,2.3-2.3
		C240.8,287.2,241.8,288.2,241.8,289.5z M246.4,291.8c-1.3,0-2.3-1-2.3-2.3c0-1.3,1-2.3,2.3-2.3h13.8c1.3,0,2.3,1,2.3,2.3
		c0,1.3-1,2.3-2.3,2.3H246.4z M269.3,289.5c0,1.3-1,2.3-2.3,2.3c-1.3,0-2.3-1-2.3-2.3c0-1.3,1-2.3,2.3-2.3
		C268.3,287.2,269.3,288.2,269.3,289.5z"/>
	<path fill="#772953" d="M253.3,60.4c-12.9,0-23.4-10.5-23.4-23.4c0-12.9,10.5-23.4,23.4-23.4c12.9,0,23.4,10.5,23.4,23.4
		C276.7,49.9,266.2,60.4,253.3,60.4z"/>
	<path fill="#772953" d="M290,37c0,20.3-16.4,36.7-36.7,36.7c-20.3,0-36.7-16.4-36.7-36.7c0-20.3,16.4-36.7,36.7-36.7
		C273.5,0.3,290,16.7,290,37z M253.3,9.2c-15.4,0-27.8,12.4-27.8,27.8c0,15.4,12.4,27.8,27.8,27.8c15.4,0,27.8-12.4,27.8-27.8
		C281.1,21.6,268.6,9.2,253.3,9.2z"/>
	<circle fill="#555759" cx="181.1" cy="162" r="98"/>
	<polyline fill="#82BC00" points="149.5,150.2 149.5,185.8 107.6,185.8 107.6,143.9 144.1,143.9 149.5,150.2 	"/>
	<path fill="#82BC00" d="M155.5,148.5c0.2-3.9,3.7-5,7.1-5c3,0,6.6,0.7,6.6,4.3v7.9c0,1.4,0.1,2.7,0.5,3.4h-4.2
		c-0.1-0.5-0.3-1-0.3-1.5c-1.3,1.4-3.2,1.9-5.1,1.9c-2.9,0-5.1-1.4-5.1-4.5c0-3.4,2.6-4.2,5.1-4.6c2.5-0.4,4.9-0.3,4.9-2
		c0-1.8-1.2-2-2.7-2c-1.6,0-2.6,0.6-2.7,2.3L155.5,148.5 M165,151.6c-0.7,0.6-2.2,0.6-3.4,0.9c-1.3,0.3-2.5,0.7-2.5,2.2
		c0,1.5,1.2,1.9,2.5,1.9c3.2,0,3.4-2.6,3.4-3.5V151.6z"/>
	<path fill="#82BC00" d="M172.4,143.9h3.9v1.9h0.1c1-1.6,2.6-2.3,4.5-2.3c4.7,0,6.9,3.8,6.9,8.1c0,4-2.2,7.8-6.6,7.8
		c-1.8,0-3.5-0.8-4.5-2.3h-0.1v7.2h-4.1V143.9 M183.6,151.5c0-2.4-1-4.9-3.6-4.9c-2.7,0-3.6,2.4-3.6,4.9c0,2.5,0.9,4.8,3.6,4.8
		C182.7,156.3,183.6,153.9,183.6,151.5z"/>
	<path fill="#82BC00" d="M190.2,143.9h3.9v1.9h0.1c1-1.6,2.6-2.3,4.5-2.3c4.7,0,6.9,3.8,6.9,8.1c0,4-2.2,7.8-6.6,7.8
		c-1.8,0-3.5-0.8-4.5-2.3h-0.1v7.2h-4.1V143.9 M201.4,151.5c0-2.4-1-4.9-3.6-4.9c-2.7,0-3.6,2.4-3.6,4.9c0,2.5,0.9,4.8,3.6,4.8
		C200.6,156.3,201.4,153.9,201.4,151.5z"/>
	<rect x="208.2" y="138.1" fill="#82BC00" width="4.1" height="20.8"/>
	<path fill="#82BC00" d="M219.8,141.5h-4.1v-3.4h4.1V141.5z M215.7,143.9h4.1V159h-4.1V143.9z"/>
	<path fill="#82BC00" d="M226.5,152.4c0.1,2.6,1.4,3.8,3.7,3.8c1.7,0,3-1,3.3-2h3.7c-1.2,3.6-3.7,5.1-7.1,5.1
		c-4.8,0-7.7-3.3-7.7-7.9c0-4.5,3.1-8,7.7-8c5.1,0,7.6,4.3,7.3,9L226.5,152.4 M233.3,149.8c-0.4-2.1-1.3-3.2-3.3-3.2
		c-2.6,0-3.4,2-3.4,3.2H233.3z"/>
	<path fill="#82BC00" d="M250.6,157L250.6,157c-1,1.6-2.7,2.3-4.6,2.3c-4.6,0-6.8-3.9-6.8-8.1c0-4.1,2.2-7.8,6.7-7.8
		c1.8,0,3.5,0.8,4.5,2.2h0h0.1v-7.6h4.1V159h-3.9L250.6,157 M247,146.6c-2.7,0-3.6,2.3-3.6,4.8c0,2.4,1.1,4.8,3.6,4.8
		c2.7,0,3.6-2.4,3.6-4.9C250.6,148.9,249.7,146.6,247,146.6z"/>
	<path fill="#FFFFFF" d="M155.7,170.4h3.9v2h0.1c1.1-1.5,2.7-2.5,4.6-2.5c1.9,0,3.6,0.7,4.4,2.5c0.9-1.3,2.5-2.5,4.6-2.5
		c3.2,0,5.5,1.5,5.5,5.4v10.1h-4.1v-8.6c0-2-0.2-3.7-2.5-3.7c-2.3,0-2.8,1.9-2.8,3.8v8.4h-4.1V177c0-1.8,0.1-3.8-2.5-3.8
		c-0.8,0-2.8,0.5-2.8,3.5v8.8h-4.1L155.7,170.4"/>
	<path fill="#FFFFFF" d="M186.3,168h-4.1v-3.4h4.1V168z M182.2,170.4h4.1v15.1h-4.1V170.4z"/>
	<path fill="#FFFFFF" d="M199.8,175.7c-0.3-1.7-1.3-2.6-3.1-2.6c-2.7,0-3.5,2.7-3.5,4.9c0,2.2,0.8,4.8,3.4,4.8c1.9,0,3-1.2,3.3-3.1
		h4c-0.5,4-3.3,6.2-7.3,6.2c-4.6,0-7.6-3.2-7.6-7.7c0-4.7,2.8-8.2,7.7-8.2c3.6,0,6.8,1.9,7.1,5.7H199.8"/>
	<path fill="#FFFFFF" d="M206.3,170.4h3.9v2.8h0.1c0.8-1.9,2.8-3.2,4.8-3.2c0.3,0,0.6,0.1,0.9,0.1v3.9c-0.4-0.1-1-0.1-1.5-0.1
		c-3,0-4.1,2.2-4.1,4.8v6.8h-4.1L206.3,170.4"/>
	<path fill="#FFFFFF" d="M224.5,170c4.8,0,7.8,3.2,7.8,8c0,4.8-3.1,7.9-7.8,7.9c-4.7,0-7.8-3.2-7.8-7.9
		C216.7,173.1,219.7,170,224.5,170 M224.5,182.7c2.8,0,3.7-2.4,3.7-4.8c0-2.4-0.8-4.8-3.7-4.8c-2.8,0-3.7,2.4-3.7,4.8
		C220.8,180.3,221.7,182.7,224.5,182.7z"/>
	<path fill="#FFFFFF" d="M144.6,164.6v-3.1c0-2.2-1.5-3.2-3.6-3.2c-1.4,0-2.7,0.7-3.4,1.9c-0.4-1.3-1.7-1.9-3-1.9
		c-1.5,0-2.7,0.6-3.5,1.9h0v-1.6h-1.7v5.4c0-3-1.7-5.7-5-5.7c-1.5,0-3,0.6-3.7,1.9h0c-0.5-1.6-2.3-1.9-3.9-1.9
		c-2.4,0-4.5,0.9-4.6,3.6h1.8c0.1-1.6,1.2-2.1,2.7-2.1c1.1,0,2.3,0.2,2.4,1.5v0.4c-0.1,1.2-1.8,1.1-3.6,1.4
		c-1.8,0.4-3.7,0.9-3.7,3.3c0,2.2,1.6,3,3.6,3c1.5,0,2.7-0.5,3.7-1.6v6.2h1.8v-6.3h0c0.8,1.3,2.4,1.7,3.5,1.7c3.3,0,4.9-2.6,5-5.6
		v5.3h1.8v-6.8c0-0.8,0.8-2.8,2.9-2.8c1.6,0,2,1,2,2.4v7.1h1.8v-6.8c0-1.7,1.1-2.8,2.8-2.8c1.7,0,2.1,1.1,2.1,2.4v2.2
		c-1,0.4-1.8,1.3-1.8,2.5c0,1.5,1.2,2.6,2.7,2.6c1.5,0,2.7-1.2,2.7-2.6C146.3,166,145.6,165,144.6,164.6 M119,165.8
		c0,1-1,2.5-3.3,2.5c-1.1,0-2.1-0.4-2.1-1.6c0-1.3,1-1.7,2.2-2c1.2-0.2,2.5-0.2,3.2-0.7V165.8z M124.2,168.2c-2.5,0-3.4-2-3.4-4.1
		c0-2,0.9-4.1,3.3-4.1c2.3,0,3.4,2,3.4,4C127.4,166.1,126.6,168.2,124.2,168.2z M143.7,168.5c-0.7,0-1.3-0.6-1.3-1.3
		c0-0.7,0.6-1.3,1.3-1.3c0.7,0,1.3,0.6,1.3,1.3C145,167.9,144.4,168.5,143.7,168.5z"/>
	<path fill="#FFFFFF" d="M232.6,168.8c0.1-0.3,0.3-0.5,0.5-0.7c0.2-0.2,0.5-0.4,0.8-0.5c0.3-0.1,0.6-0.2,0.9-0.2
		c0.3,0,0.6,0.1,0.9,0.2c0.3,0.1,0.5,0.3,0.8,0.5c0.2,0.2,0.4,0.5,0.5,0.7c0.1,0.3,0.2,0.6,0.2,0.9c0,0.3-0.1,0.7-0.2,0.9
		s-0.3,0.5-0.5,0.8c-0.2,0.2-0.5,0.4-0.8,0.5c-0.3,0.1-0.6,0.2-0.9,0.2c-0.3,0-0.6-0.1-0.9-0.2c-0.3-0.1-0.5-0.3-0.8-0.5
		c-0.2-0.2-0.4-0.5-0.5-0.8c-0.1-0.3-0.2-0.6-0.2-0.9C232.4,169.4,232.5,169.1,232.6,168.8z M233,170.6c0.1,0.2,0.2,0.5,0.4,0.6
		c0.2,0.2,0.4,0.3,0.6,0.4c0.2,0.1,0.5,0.2,0.8,0.2c0.3,0,0.5-0.1,0.8-0.2c0.2-0.1,0.4-0.2,0.6-0.4c0.2-0.2,0.3-0.4,0.4-0.6
		c0.1-0.2,0.1-0.5,0.1-0.8c0-0.3,0-0.5-0.1-0.8c-0.1-0.2-0.2-0.5-0.4-0.6s-0.4-0.3-0.6-0.4c-0.2-0.1-0.5-0.2-0.8-0.2
		c-0.3,0-0.5,0.1-0.8,0.2c-0.2,0.1-0.4,0.2-0.6,0.4c-0.2,0.2-0.3,0.4-0.4,0.6c-0.1,0.2-0.1,0.5-0.1,0.8
		C232.9,170.1,232.9,170.3,233,170.6z M235,168.4c0.3,0,0.6,0.1,0.7,0.2c0.2,0.1,0.2,0.3,0.2,0.6c0,0.2-0.1,0.4-0.2,0.5
		c-0.1,0.1-0.3,0.2-0.5,0.2l0.8,1.2h-0.5l-0.8-1.2h-0.5v1.2h-0.4v-2.8H235z M234.8,169.6c0.1,0,0.2,0,0.3,0c0.1,0,0.2,0,0.2-0.1
		s0.1-0.1,0.2-0.1c0-0.1,0.1-0.1,0.1-0.3c0-0.1,0-0.2-0.1-0.2c0-0.1-0.1-0.1-0.1-0.1c-0.1,0-0.1,0-0.2-0.1c-0.1,0-0.1,0-0.2,0h-0.6
		v0.9L234.8,169.6z"/>
	<path fill="#888888" d="M55.1,130.2c-17.6-10.1-40-4.1-50.2,13.4c-10.1,17.6-4.1,40,13.4,50.2c17.6,10.1,40,4.1,50.2-13.4
		C78.7,162.8,72.7,140.3,55.1,130.2z M50.5,178.5c0,3-2.5,5.5-5.5,5.5H28.5c-3,0-5.5-2.5-5.5-5.5v-33.1c0-3,2.5-5.5,5.5-5.5H45
		c3,0,5.5,2.5,5.5,5.5L50.5,178.5L50.5,178.5z M42.8,153H30.6c-1.2,0-2.2-0.9-2.2-2.1c0-1.1,1-2.1,2.2-2.1h12.2
		c1.2,0,2.2,0.9,2.2,2.1C45,152.1,44,153,42.8,153L42.8,153z M42.8,147.5H30.6c-1.2,0-2.2-0.9-2.2-2.1c0-1.1,1-2.1,2.2-2.1h12.2
		c1.2,0,2.2,0.9,2.2,2.1C45,146.6,44,147.5,42.8,147.5L42.8,147.5z M42.8,158.6H30.6c-1.2,0-2.2-0.9-2.2-2.1c0-1.1,1-2.1,2.2-2.1
		h12.2c1.2,0,2.2,0.9,2.2,2.1C45,157.6,44,158.6,42.8,158.6L42.8,158.6z M34,173c0,1.5-1.2,2.8-2.8,2.8c-1.5,0-2.8-1.2-2.8-2.8
		c0-1.5,1.2-2.8,2.8-2.8C32.8,170.3,34,171.5,34,173z"/>
</g>
<g id="Grid" display="none">
	<g id="Grid_1_" display="inline">
	</g>
</g>
<g id="Labels">
</g>
</svg>
