<?xml version="1.0" encoding="utf-8"?>
<svg xmlns="http://www.w3.org/2000/svg"
	xmlns:xlink="http://www.w3.org/1999/xlink"
	width="77px" height="77px">
<path fill="rgb(119,41,83)" fill-rule="evenodd" d="M38.50 77.00 C17.27 77.00 0.00 59.73 0.00 38.50 C0.00 17.27 17.27 0.00 38.50 0.00 C59.73 0.00 77.00 17.27 77.00 38.50 C77.00 59.73 59.73 77.00 38.50 77.00 Z M38.50 9.62 C22.58 9.62 9.62 22.58 9.62 38.50 C9.62 54.42 22.58 67.37 38.50 67.37 C54.42 67.37 67.37 54.42 67.37 38.50 C67.37 22.58 54.42 9.62 38.50 9.62 Z M38.50 62.56 C30.54 62.56 24.06 56.09 24.06 48.12 C24.06 48.12 33.69 48.12 33.69 48.12 C33.69 50.78 35.85 52.94 38.50 52.94 C41.15 52.94 43.31 50.78 43.31 48.12 C43.31 48.12 52.94 48.12 52.94 48.12 C52.94 56.09 46.46 62.56 38.50 62.56 Z"/>
</svg>