<?xml version="1.0" encoding="utf-8"?>
<!-- Generator: Adobe Illustrator 15.1.0, SVG Export Plug-In . SVG Version: 6.00 Build 0)  -->
<!DOCTYPE svg PUBLIC "-//W3C//DTD SVG 1.1//EN" "http://www.w3.org/Graphics/SVG/1.1/DTD/svg11.dtd">
<svg version="1.1" id="Layer_1" xmlns="http://www.w3.org/2000/svg" xmlns:xlink="http://www.w3.org/1999/xlink" x="0px" y="0px"
	 width="1543px" height="1543px" viewBox="0 0 1543 1543" enable-background="new 0 0 1543 1543" xml:space="preserve">
<g>
	<g>
		<path fill="#2C001E" d="M494.4,1536.5c0-0.3,0.2-0.5,0.5-0.5l0,0c0.3,0,0.5,0.2,0.5,0.5l0,0c0,0.3-0.2,0.5-0.5,0.5l0,0
			C494.601,1537,494.4,1536.8,494.4,1536.5z M503.9,1536.399c0-0.3,0.2-0.5,0.5-0.5l0,0c0.3,0,0.5,0.2,0.5,0.5l0,0
			c0,0.301-0.2,0.5-0.5,0.5l0,0l0,0l0,0C504.2,1537,503.9,1536.7,503.9,1536.399z M513.4,1536.3c0-0.3,0.2-0.5,0.5-0.5l0,0
			c0.3,0,0.5,0.2,0.5,0.5l0,0c0,0.3-0.2,0.5-0.5,0.5l0,0l0,0l0,0l0,0l0,0C513.7,1536.8,513.5,1536.6,513.4,1536.3z M523,1536
			c0-0.3,0.2-0.5,0.5-0.5l0,0c0.301,0,0.5,0.2,0.5,0.5l0,0c0,0.3-0.199,0.5-0.5,0.6l0,0l0,0l0,0C523.2,1536.5,523,1536.3,523,1536z
			 M532.5,1535.6c0-0.3,0.2-0.5,0.5-0.6l0,0c0.301,0,0.5,0.2,0.601,0.5l0,0c0,0.3-0.2,0.5-0.5,0.6l0,0l0,0l0,0l0,0l0,0
			C532.7,1536.1,532.5,1535.899,532.5,1535.6z M542,1535.1c0-0.3,0.2-0.5,0.5-0.6l0,0c0.301,0,0.5,0.2,0.601,0.5l0,0
			c0,0.3-0.2,0.6-0.5,0.6l0,0l0,0l0,0C542.301,1535.6,542,1535.3,542,1535.1z M551.601,1534.399c0-0.3,0.2-0.5,0.5-0.6l0,0
			c0.3,0,0.5,0.2,0.6,0.5l0,0c0,0.3-0.2,0.5-0.5,0.6l0,0l0,0l0,0l0,0l0,0C551.801,1534.899,551.601,1534.7,551.601,1534.399z
			 M561.101,1533.7c0-0.301,0.2-0.601,0.5-0.601l0,0c0.3,0,0.6,0.2,0.6,0.5l0,0c0,0.3-0.2,0.5-0.5,0.601l0,0l0,0l0,0
			C561.301,1534.1,561.101,1533.899,561.101,1533.7z M570.601,1532.8c0-0.3,0.2-0.5,0.5-0.6l0,0c0.3,0,0.6,0.199,0.6,0.5l0,0
			c0,0.3-0.2,0.5-0.5,0.6l0,0l0,0l0,0C570.801,1533.3,570.601,1533.1,570.601,1532.8z M580.101,1531.8c0-0.3,0.2-0.5,0.5-0.6l0,0
			c0.3,0,0.6,0.199,0.6,0.5l0,0c0,0.3-0.2,0.5-0.5,0.6l0,0c0,0,0,0-0.1,0l0,0C580.301,1532.3,580.101,1532.1,580.101,1531.8z
			 M589.5,1530.7c0-0.301,0.2-0.5,0.5-0.601l0,0c0.301,0,0.601,0.2,0.601,0.5l0,0c0,0.3-0.2,0.5-0.5,0.601l0,0H590l0,0
			C589.801,1531.2,589.601,1531,589.5,1530.7z M599,1529.5c0-0.3,0.2-0.5,0.5-0.601l0,0c0.301,0,0.601,0.2,0.601,0.5l0,0
			c0,0.301-0.2,0.601-0.5,0.601l0,0c0,0,0,0-0.101,0l0,0C599.301,1529.899,599,1529.8,599,1529.5z M608.5,1528.1
			c0-0.3,0.2-0.6,0.5-0.6l0,0c0.301,0,0.601,0.2,0.601,0.399l0,0c0,0.301-0.2,0.601-0.4,0.601l0,0h-0.1l0,0
			C608.7,1528.6,608.5,1528.399,608.5,1528.1z M617.9,1526.7c0-0.301,0.1-0.601,0.4-0.601l0,0c0.3-0.1,0.6,0.101,0.6,0.4l0,0
			c0,0.3-0.2,0.6-0.4,0.6l0,0l0,0l0,0h-0.1l0,0C618.2,1527.1,617.9,1526.899,617.9,1526.7z M627.301,1525.1
			c0-0.3,0.199-0.6,0.399-0.6l0,0c0.3-0.101,0.601,0.1,0.601,0.399l0,0c0,0.301-0.101,0.601-0.4,0.601l0,0l0,0l0,0h-0.1l0,0
			C627.601,1525.6,627.4,1525.399,627.301,1525.1z M636.7,1523.399c-0.1-0.3,0.101-0.6,0.4-0.6l0,0c0.3-0.1,0.6,0.1,0.6,0.4l0,0
			c0.101,0.3-0.1,0.6-0.399,0.6l0,0H637.2l0,0C637,1523.899,636.7,1523.7,636.7,1523.399z M646.101,1521.6
			c-0.101-0.3,0.1-0.6,0.399-0.6l0,0c0.301-0.101,0.601,0.1,0.601,0.399l0,0c0.1,0.301-0.101,0.601-0.4,0.601l0,0h-0.1l0,0
			C646.301,1522,646.101,1521.899,646.101,1521.6z M655.4,1519.7c-0.1-0.301,0.1-0.601,0.4-0.601l0,0c0.3-0.1,0.6,0.101,0.6,0.4l0,0
			c0.1,0.3-0.1,0.6-0.4,0.6l0,0h-0.1l0,0C655.7,1520.1,655.5,1519.899,655.4,1519.7z M664.7,1517.7
			c-0.1-0.301,0.101-0.601,0.4-0.601l0,0c0.3-0.1,0.6,0.101,0.6,0.4l0,0c0.101,0.3-0.1,0.6-0.399,0.6l0,0H665.2l0,0
			C665,1518.1,664.801,1517.899,664.7,1517.7z M674,1515.5c-0.1-0.3,0.101-0.601,0.4-0.601l0,0c0.3-0.1,0.6,0.101,0.6,0.4l0,0
			c0.101,0.3-0.1,0.6-0.399,0.6l0,0H674.5l0,0C674.301,1515.899,674.101,1515.8,674,1515.5z M683.301,1513.2
			c-0.101-0.301,0.1-0.601,0.399-0.601l0,0c0.3-0.1,0.601,0.101,0.601,0.4l0,0c0.1,0.3-0.101,0.6-0.4,0.6l0,0l0,0l0,0h-0.1l0,0
			C683.601,1513.6,683.4,1513.5,683.301,1513.2z M692.5,1510.8c-0.1-0.3,0.101-0.6,0.4-0.7l0,0c0.3-0.1,0.6,0.101,0.6,0.4l0,0
			c0.101,0.3-0.1,0.6-0.399,0.6l0,0l0,0l0,0H693l0,0C692.801,1511.2,692.601,1511.1,692.5,1510.8z M701.801,1508.3
			c-0.101-0.3,0.1-0.6,0.399-0.7l0,0c0.3-0.1,0.601,0.101,0.7,0.4l0,0c0.1,0.3-0.1,0.6-0.4,0.7l0,0l0,0l0,0h-0.1l0,0
			C702,1508.7,701.801,1508.6,701.801,1508.3z M710.9,1505.7c-0.1-0.301,0.1-0.601,0.4-0.601l0,0c0.3-0.1,0.6,0.101,0.699,0.4l0,0
			c0.101,0.3-0.1,0.6-0.399,0.7l0,0c-0.101,0-0.101,0-0.2,0l0,0C711.2,1506.1,711,1506,710.9,1505.7z M720.101,1503
			c-0.101-0.3,0.1-0.601,0.399-0.7l0,0c0.301-0.1,0.601,0.1,0.7,0.4l0,0c0.101,0.3-0.1,0.6-0.399,0.699l0,0c-0.101,0-0.101,0-0.2,0
			l0,0C720.4,1503.399,720.2,1503.2,720.101,1503z M729.2,1500.2c-0.1-0.301,0.101-0.601,0.3-0.7l0,0c0.301-0.101,0.601,0.1,0.7,0.3
			l0,0c0.101,0.3-0.1,0.6-0.3,0.7l0,0l0,0l0,0c0,0-0.1,0-0.2,0l0,0C729.5,1500.5,729.301,1500.399,729.2,1500.2z M738.301,1497.2
			c-0.101-0.301,0.1-0.601,0.3-0.7l0,0c0.3-0.101,0.6,0,0.7,0.3l0,0c0.1,0.3-0.101,0.6-0.301,0.7l0,0c0,0-0.1,0-0.199,0l0,0
			C738.5,1497.6,738.4,1497.399,738.301,1497.2z M747.301,1494.1c-0.101-0.3,0-0.6,0.3-0.7l0,0c0.3-0.1,0.6,0,0.7,0.301l0,0
			c0.1,0.3-0.101,0.6-0.301,0.699l0,0c-0.1,0-0.1,0-0.199,0l0,0C747.601,1494.5,747.4,1494.399,747.301,1494.1z M756.301,1490.899
			c-0.101-0.3,0-0.6,0.3-0.699l0,0c0.3-0.101,0.6,0,0.7,0.3l0,0c0.1,0.3,0,0.6-0.301,0.7l0,0l0,0l0,0c-0.1,0-0.1,0-0.199,0l0,0
			C756.601,1491.3,756.4,1491.2,756.301,1490.899z M765.301,1487.7c-0.101-0.301,0-0.601,0.3-0.7l0,0c0.3-0.101,0.6,0,0.7,0.3l0,0
			c0.1,0.3,0,0.6-0.301,0.7l0,0l0,0l0,0c-0.1,0-0.1,0-0.199,0l0,0C765.5,1488,765.301,1487.899,765.301,1487.7z M774.2,1484.3
			c-0.1-0.3,0-0.6,0.3-0.7l0,0c0.301-0.1,0.601,0,0.7,0.3l0,0c0.101,0.301,0,0.601-0.3,0.7l0,0c-0.1,0-0.1,0-0.2,0l0,0
			C774.5,1484.6,774.301,1484.5,774.2,1484.3z M783,1480.7c-0.1-0.301,0-0.601,0.301-0.7l0,0c0.3-0.101,0.6,0,0.699,0.3l0,0
			c0.101,0.3,0,0.6-0.3,0.7l0,0l0,0l0,0c-0.1,0-0.1,0-0.2,0l0,0C783.301,1481.1,783.101,1480.899,783,1480.7z M791.801,1477.1
			c-0.101-0.3,0-0.6,0.3-0.7l0,0c0.3-0.1,0.6,0,0.7,0.301l0,0c0.1,0.3,0,0.6-0.301,0.699l0,0l0,0l0,0c-0.1,0-0.1,0-0.199,0l0,0
			C792.101,1477.5,791.9,1477.3,791.801,1477.1z M800.601,1473.399c-0.101-0.3,0-0.6,0.3-0.699l0,0c0.3-0.101,0.6,0,0.7,0.3l0,0
			c0.1,0.3,0,0.6-0.3,0.7l0,0c-0.101,0-0.101,0-0.2,0l0,0C800.9,1473.7,800.7,1473.6,800.601,1473.399z M809.301,1469.6
			c-0.101-0.3,0-0.6,0.3-0.7l0,0c0.3-0.1,0.6,0,0.7,0.301l0,0c0.1,0.3,0,0.6-0.301,0.699l0,0c-0.1,0-0.1,0-0.199,0l0,0
			C809.601,1469.899,809.4,1469.8,809.301,1469.6z M817.9,1465.6c-0.1-0.3,0-0.6,0.3-0.7l0,0c0.3-0.1,0.601,0,0.7,0.2l0,0
			c0.1,0.3,0,0.601-0.3,0.7l0,0l0,0l0,0c-0.101,0-0.2,0.1-0.2,0.1l0,0C818.2,1466,818,1465.8,817.9,1465.6z M826.601,1461.6
			c-0.101-0.3,0-0.6,0.2-0.7l0,0c0.3-0.1,0.6,0,0.699,0.2l0,0c0.101,0.3,0,0.601-0.199,0.7l0,0c-0.101,0-0.101,0.1-0.2,0.1l0,0
			C826.801,1461.899,826.7,1461.8,826.601,1461.6z M835.101,1457.399c-0.101-0.3,0-0.6,0.2-0.699l0,0c0.3-0.101,0.6,0,0.699,0.199
			l0,0c0.101,0.301,0,0.601-0.199,0.7l0,0c-0.101,0-0.2,0.101-0.2,0.101l0,0C835.4,1457.8,835.2,1457.6,835.101,1457.399z
			 M843.601,1453.2c-0.101-0.301,0-0.601,0.2-0.7l0,0c0.3-0.101,0.6,0,0.699,0.2l0,0c0.101,0.3,0,0.6-0.199,0.699l0,0
			c-0.101,0-0.2,0.101-0.2,0.101l0,0C843.9,1453.5,843.7,1453.399,843.601,1453.2z M852.101,1448.8c-0.101-0.3,0-0.6,0.2-0.7l0,0
			c0.3-0.1,0.6,0,0.699,0.2l0,0c0.101,0.3,0,0.6-0.199,0.7l0,0l0,0l0,0c-0.101,0-0.2,0.1-0.2,0.1l0,0
			C852.4,1449.1,852.2,1449,852.101,1448.8z M860.5,1444.399c-0.1-0.3,0-0.6,0.2-0.699l0,0c0.3-0.101,0.601,0,0.7,0.199l0,0
			c0.1,0.301,0,0.601-0.2,0.7l0,0c-0.1,0-0.2,0.101-0.3,0.101l0,0C860.801,1444.6,860.601,1444.5,860.5,1444.399z M868.801,1439.8
			c-0.101-0.3-0.101-0.6,0.199-0.7l0,0c0.2-0.1,0.601,0,0.7,0.2l0,0c0.101,0.2,0,0.6-0.2,0.7l0,0c-0.1,0-0.199,0.1-0.3,0.1l0,0
			C869.101,1440.1,868.9,1440,868.801,1439.8z M877.101,1435.1c-0.2-0.2-0.101-0.6,0.2-0.7l0,0c0.3-0.1,0.6-0.1,0.699,0.2l0,0
			c0.101,0.3,0,0.601-0.199,0.7l0,0l0,0l0,0c-0.101,0-0.2,0.1-0.301,0.1l0,0C877.4,1435.399,877.2,1435.3,877.101,1435.1z
			 M885.4,1430.3c-0.2-0.2-0.1-0.6,0.2-0.7l0,0c0.2-0.1,0.6-0.1,0.7,0.2l0,0c0.199,0.3,0.1,0.6-0.2,0.7l0,0l0,0l0,0
			c-0.101,0.1-0.2,0.1-0.3,0.1l0,0C885.601,1430.6,885.4,1430.5,885.4,1430.3z M893.5,1425.5c-0.199-0.2-0.1-0.601,0.2-0.7l0,0
			c0.2-0.2,0.601-0.1,0.7,0.2l0,0c0.1,0.2,0.1,0.6-0.2,0.7l0,0c-0.1,0-0.2,0.1-0.3,0.1l0,0
			C893.801,1425.7,893.601,1425.6,893.5,1425.5z M901.601,1420.5c-0.2-0.2-0.101-0.601,0.2-0.7l0,0c0.199-0.2,0.6-0.1,0.699,0.2l0,0
			c0.2,0.2,0.101,0.6-0.199,0.7l0,0l0,0l0,0c-0.101,0-0.2,0.1-0.301,0.1l0,0C901.9,1420.7,901.7,1420.6,901.601,1420.5z
			 M909.7,1415.399c-0.2-0.199-0.1-0.6,0.2-0.699l0,0c0.2-0.2,0.6-0.101,0.7,0.199l0,0c0.2,0.2,0.1,0.601-0.2,0.7l0,0
			c-0.1,0.101-0.2,0.101-0.3,0.101l0,0C910,1415.6,909.801,1415.6,909.7,1415.399z M917.7,1410.2c-0.2-0.2-0.1-0.601,0.101-0.7l0,0
			c0.199-0.2,0.6-0.101,0.699,0.2l0,0c0.2,0.199,0.101,0.6-0.199,0.699l0,0c-0.101,0.101-0.2,0.101-0.301,0.101l0,0
			C918,1410.5,917.801,1410.399,917.7,1410.2z M925.601,1404.899c-0.2-0.199-0.101-0.6,0.1-0.699l0,0c0.2-0.2,0.601-0.101,0.7,0.199
			l0,0c0.2,0.2,0.1,0.601-0.1,0.7l0,0c-0.101,0.101-0.2,0.101-0.301,0.101l0,0C925.9,1405.2,925.7,1405.1,925.601,1404.899z
			 M933.5,1399.6c-0.199-0.2-0.1-0.6,0.101-0.7l0,0c0.2-0.199,0.6-0.1,0.7,0.101l0,0c0.199,0.2,0.1,0.6-0.101,0.7l0,0
			c-0.1,0.1-0.2,0.1-0.3,0.1l0,0C933.7,1399.8,933.601,1399.7,933.5,1399.6z M941.301,1394.1c-0.2-0.2-0.101-0.6,0.1-0.7l0,0
			c0.2-0.199,0.6-0.1,0.7,0.101l0,0c0.2,0.2,0.1,0.6-0.101,0.7l0,0c-0.1,0.1-0.199,0.1-0.3,0.1l0,0
			C941.5,1394.3,941.4,1394.2,941.301,1394.1z M949,1388.5c-0.199-0.2-0.1-0.601,0.101-0.7l0,0c0.2-0.2,0.6-0.1,0.7,0.1l0,0
			c0.199,0.2,0.1,0.601-0.101,0.7l0,0c-0.1,0.101-0.2,0.101-0.3,0.101l0,0C949.301,1388.7,949.101,1388.7,949,1388.5z M956.7,1382.8
			c-0.2-0.2-0.1-0.6,0.101-0.7l0,0c0.199-0.2,0.6-0.1,0.699,0.101l0,0c0.2,0.199,0.101,0.6-0.1,0.699l0,0
			c-0.1,0.101-0.2,0.101-0.3,0.101l0,0C956.9,1383.1,956.801,1383,956.7,1382.8z M964.301,1377.1c-0.2-0.2-0.101-0.6,0.1-0.7l0,0
			c0.2-0.199,0.6-0.1,0.7,0.101l0,0c0.2,0.2,0.1,0.6-0.101,0.7l0,0c-0.1,0.1-0.199,0.1-0.3,0.1l0,0
			C964.5,1377.3,964.4,1377.2,964.301,1377.1z M971.801,1371.2c-0.2-0.2-0.101-0.601,0.1-0.801l0,0c0.2-0.199,0.6-0.1,0.7,0.101l0,0
			c0.2,0.2,0.1,0.6-0.101,0.7l0,0c-0.1,0.1-0.199,0.1-0.3,0.1l0,0C972,1371.399,971.9,1371.399,971.801,1371.2z M979.2,1365.3
			c-0.2-0.2-0.2-0.6,0.101-0.8l0,0c0.199-0.2,0.6-0.2,0.699,0.1l0,0c0.2,0.2,0.101,0.601-0.1,0.8l0,0
			c-0.1,0.101-0.2,0.101-0.3,0.101l0,0C979.5,1365.5,979.301,1365.399,979.2,1365.3z M986.601,1359.3c-0.2-0.2-0.2-0.6,0.1-0.7l0,0
			c0.2-0.2,0.5-0.2,0.7,0.101l0,0c0.2,0.199,0.2,0.6-0.1,0.8l0,0c-0.101,0.1-0.2,0.1-0.301,0.1l0,0
			C986.9,1359.399,986.7,1359.399,986.601,1359.3z M993.9,1353.1c-0.2-0.2-0.2-0.6,0.1-0.8l0,0c0.2-0.2,0.601-0.2,0.801,0l0,0
			c0.199,0.2,0.199,0.6-0.101,0.8l0,0l0,0l0,0c-0.1,0.101-0.2,0.101-0.3,0.101l0,0C994.2,1353.3,994,1353.2,993.9,1353.1z
			 M1001.101,1346.899c-0.2-0.199-0.2-0.5,0-0.699l0,0c0.2-0.2,0.5-0.2,0.8,0l0,0c0.2,0.199,0.2,0.6,0,0.8l0,0l0,0l0,0
			c-0.1,0.1-0.2,0.1-0.4,0.1l0,0C1001.4,1347.1,1001.301,1347,1001.101,1346.899z M1008.301,1340.6c-0.2-0.2-0.2-0.5,0-0.8l0,0
			c0.199-0.2,0.6-0.2,0.8,0l0,0c0.2,0.2,0.2,0.5,0,0.7l0,0l0,0l0,0c-0.101,0.1-0.2,0.1-0.3,0.1l0,0
			C1008.5,1340.8,1008.4,1340.7,1008.301,1340.6z M1015.4,1334.2c-0.2-0.2-0.2-0.5,0-0.801l0,0c0.2-0.199,0.5-0.199,0.8,0l0,0
			c0.2,0.2,0.2,0.5,0,0.801l0,0c-0.1,0.1-0.2,0.1-0.399,0.1l0,0C1015.601,1334.399,1015.5,1334.3,1015.4,1334.2z M1022.4,1327.7
			c-0.2-0.2-0.2-0.601,0-0.801l0,0c0.2-0.199,0.5-0.199,0.8,0l0,0c0.2,0.2,0.2,0.601,0,0.801l0,0l0,0l0,0
			c-0.1,0.1-0.2,0.1-0.399,0.1l0,0C1022.601,1327.899,1022.5,1327.8,1022.4,1327.7z M1029.301,1321.1c-0.2-0.2-0.2-0.5,0-0.8l0,0
			c0.199-0.2,0.5-0.2,0.8,0l0,0c0.2,0.2,0.2,0.5,0,0.8l0,0l0,0l0,0c-0.101,0.101-0.2,0.101-0.4,0.101l0,0
			C1029.5,1321.3,1029.4,1321.3,1029.301,1321.1z M1036.101,1314.5c-0.2-0.2-0.2-0.5,0-0.8l0,0c0.2-0.2,0.5-0.2,0.7,0l0,0
			c0.199,0.199,0.199,0.6,0,0.8l0,0l0,0l0,0c-0.101,0.1-0.2,0.2-0.4,0.2l0,0C1036.4,1314.6,1036.2,1314.6,1036.101,1314.5z
			 M1042.9,1307.8c-0.2-0.2-0.2-0.5,0-0.8l0,0c0.2-0.2,0.5-0.2,0.8,0l0,0c0.2,0.2,0.2,0.5,0,0.8l0,0l0,0l0,0
			c-0.1,0.1-0.2,0.2-0.399,0.2l0,0C1043.101,1307.899,1043,1307.8,1042.9,1307.8z M1049.601,1300.899c-0.2-0.199-0.2-0.5,0-0.8l0,0
			c0.2-0.2,0.5-0.2,0.8,0l0,0c0.2,0.2,0.2,0.5,0,0.8l0,0l0,0l0,0c-0.1,0.101-0.2,0.2-0.4,0.2l0,0
			C1049.801,1301.1,1049.7,1301,1049.601,1300.899z M1056.101,1294c-0.2-0.2-0.2-0.5,0-0.8l0,0c0.2-0.2,0.5-0.2,0.8,0l0,0
			c0.2,0.199,0.2,0.5,0,0.8l0,0c-0.1,0.1-0.2,0.2-0.4,0.2l0,0C1056.4,1294.2,1056.2,1294.1,1056.101,1294z M1062.7,1287
			c-0.2-0.2-0.2-0.5,0-0.8l0,0c0.2-0.2,0.5-0.2,0.8,0l0,0c0.2,0.199,0.2,0.5,0,0.8l0,0l0,0l0,0c-0.1,0.1-0.199,0.2-0.399,0.2l0,0
			C1062.9,1287.2,1062.7,1287.1,1062.7,1287z M1069.101,1280c-0.2-0.2-0.2-0.5,0-0.8l0,0c0.2-0.2,0.5-0.2,0.8,0l0,0
			c0.2,0.199,0.2,0.5,0,0.8l0,0c-0.1,0.1-0.2,0.2-0.4,0.2l0,0C1069.301,1280.1,1069.2,1280.1,1069.101,1280z M1075.4,1272.8
			c-0.2-0.2-0.2-0.5,0-0.8l0,0c0.2-0.2,0.5-0.2,0.8-0.101l0,0c0.2,0.2,0.2,0.5,0,0.801l0,0c-0.1,0.1-0.3,0.199-0.399,0.199l0,0
			C1075.601,1273,1075.5,1272.899,1075.4,1272.8z M1081.601,1265.6c-0.2-0.2-0.2-0.5-0.101-0.7l0,0c0.2-0.199,0.5-0.199,0.7-0.1l0,0
			c0.2,0.2,0.2,0.5,0.101,0.7l0,0c-0.101,0.1-0.2,0.2-0.4,0.2l0,0C1081.9,1265.7,1081.7,1265.7,1081.601,1265.6z M1087.801,1258.3
			c-0.2-0.2-0.301-0.5-0.101-0.8l0,0c0.2-0.2,0.5-0.3,0.8-0.101l0,0c0.2,0.2,0.2,0.5,0.101,0.801l0,0l0,0l0,0
			c-0.101,0.1-0.3,0.199-0.4,0.199l0,0C1088,1258.399,1087.9,1258.399,1087.801,1258.3z M1093.9,1250.899
			c-0.2-0.199-0.3-0.5-0.1-0.8l0,0c0.199-0.2,0.5-0.3,0.699-0.1l0,0c0.2,0.2,0.301,0.5,0.101,0.7l0,0l0,0l0,0
			c-0.101,0.1-0.3,0.199-0.4,0.199l0,0C1094.101,1251,1094,1251,1093.9,1250.899z M1099.801,1243.5c-0.2-0.2-0.301-0.5-0.101-0.8
			l0,0c0.2-0.2,0.5-0.301,0.8-0.101l0,0c0.2,0.2,0.301,0.5,0.101,0.7l0,0l0,0l0,0c-0.101,0.1-0.3,0.2-0.4,0.2l0,0
			C1100,1243.6,1099.9,1243.6,1099.801,1243.5z M1105.7,1235.899c-0.2-0.199-0.3-0.5-0.1-0.699l0,0c0.2-0.2,0.5-0.301,0.7-0.101l0,0
			c0.199,0.2,0.3,0.5,0.1,0.8l0,0c-0.1,0.101-0.3,0.2-0.4,0.2l0,0C1105.9,1236.1,1105.801,1236,1105.7,1235.899z M1111.5,1228.399
			c-0.199-0.199-0.3-0.5-0.1-0.8l0,0c0.2-0.2,0.5-0.3,0.7-0.1l0,0c0.2,0.2,0.3,0.5,0.1,0.7l0,0c-0.1,0.1-0.3,0.199-0.399,0.199l0,0
			C1111.7,1228.5,1111.601,1228.399,1111.5,1228.399z M1117.2,1220.7c-0.2-0.2-0.3-0.5-0.1-0.7l0,0c0.2-0.2,0.5-0.3,0.7-0.101l0,0
			c0.199,0.2,0.3,0.5,0.1,0.7l0,0c-0.1,0.2-0.3,0.2-0.4,0.2l0,0C1117.4,1220.8,1117.301,1220.8,1117.2,1220.7z M1122.801,1212.899
			c-0.2-0.199-0.301-0.5-0.101-0.699l0,0c0.2-0.2,0.5-0.301,0.7-0.101l0,0c0.2,0.2,0.3,0.5,0.1,0.7l0,0l0,0l0,0
			c-0.1,0.2-0.3,0.2-0.399,0.2l0,0C1123,1213,1122.9,1213,1122.801,1212.899z M1128.301,1205.1c-0.2-0.2-0.301-0.5-0.101-0.7l0,0
			c0.2-0.199,0.5-0.3,0.7-0.1l0,0c0.2,0.2,0.3,0.5,0.1,0.7l0,0c-0.1,0.1-0.3,0.2-0.399,0.2l0,0
			C1128.5,1205.2,1128.4,1205.2,1128.301,1205.1z M1133.7,1197.3c-0.2-0.2-0.3-0.5-0.1-0.7l0,0c0.2-0.2,0.5-0.3,0.7-0.1l0,0
			c0.199,0.2,0.3,0.5,0.1,0.7l0,0l0,0l0,0c-0.1,0.199-0.3,0.199-0.4,0.199l0,0C1133.9,1197.3,1133.801,1197.3,1133.7,1197.3z
			 M1139,1189.3c-0.199-0.2-0.3-0.5-0.1-0.7l0,0c0.2-0.2,0.5-0.3,0.7-0.2l0,0c0.2,0.2,0.3,0.5,0.2,0.7l0,0
			c-0.101,0.101-0.301,0.2-0.5,0.2l0,0C1139.2,1189.399,1139.101,1189.399,1139,1189.3z M1144.301,1181.3
			c-0.2-0.2-0.301-0.5-0.2-0.7l0,0c0.1-0.2,0.5-0.3,0.7-0.2l0,0c0.199,0.2,0.3,0.5,0.199,0.7l0,0c-0.1,0.2-0.3,0.2-0.5,0.2l0,0
			C1144.4,1181.399,1144.301,1181.399,1144.301,1181.3z M1149.4,1173.2c-0.2-0.2-0.3-0.5-0.2-0.7l0,0c0.2-0.2,0.5-0.3,0.7-0.2l0,0
			c0.2,0.1,0.3,0.5,0.2,0.7l0,0l0,0l0,0c-0.101,0.2-0.3,0.2-0.5,0.2l0,0C1149.601,1173.3,1149.5,1173.3,1149.4,1173.2z
			 M1154.4,1165.1c-0.2-0.2-0.3-0.5-0.2-0.7l0,0c0.2-0.199,0.5-0.3,0.7-0.199l0,0c0.2,0.199,0.3,0.5,0.2,0.699l0,0
			c-0.101,0.2-0.3,0.301-0.5,0.301l0,0C1154.601,1165.2,1154.5,1165.1,1154.4,1165.1z M1159.301,1156.899
			c-0.301-0.1-0.301-0.5-0.2-0.699l0,0c0.2-0.2,0.5-0.301,0.7-0.2l0,0c0.3,0.1,0.3,0.5,0.199,0.7l0,0c-0.1,0.199-0.3,0.3-0.5,0.3
			l0,0C1159.5,1157,1159.4,1156.899,1159.301,1156.899z M1164.101,1148.6c-0.3-0.2-0.3-0.5-0.2-0.7l0,0c0.2-0.199,0.5-0.3,0.7-0.199
			l0,0c0.2,0.1,0.3,0.5,0.2,0.699l0,0c-0.101,0.2-0.301,0.301-0.5,0.301l0,0C1164.301,1148.7,1164.2,1148.7,1164.101,1148.6z
			 M1168.801,1140.3c-0.301-0.1-0.301-0.5-0.2-0.7l0,0c0.1-0.2,0.5-0.3,0.7-0.2l0,0c0.199,0.101,0.3,0.5,0.199,0.7l0,0
			c-0.1,0.2-0.3,0.3-0.5,0.3l0,0C1169,1140.399,1168.9,1140.399,1168.801,1140.3z M1173.4,1131.899c-0.3-0.1-0.4-0.5-0.2-0.699l0,0
			c0.101-0.301,0.5-0.4,0.7-0.2l0,0c0.3,0.1,0.4,0.5,0.2,0.7l0,0c-0.101,0.199-0.3,0.3-0.5,0.3l0,0
			C1173.601,1132,1173.5,1132,1173.4,1131.899z M1177.9,1123.5c-0.2-0.101-0.4-0.4-0.2-0.7l0,0c0.101-0.3,0.5-0.4,0.7-0.2l0,0
			c0.3,0.101,0.4,0.5,0.2,0.7l0,0l0,0l0,0c-0.101,0.2-0.3,0.3-0.5,0.3l0,0C1178.101,1123.6,1178,1123.5,1177.9,1123.5z M1182.4,1115
			c-0.3-0.101-0.4-0.5-0.2-0.7l0,0c0.101-0.3,0.5-0.4,0.7-0.2l0,0c0.3,0.101,0.4,0.5,0.2,0.7l0,0c-0.101,0.2-0.3,0.3-0.5,0.3l0,0
			C1182.5,1115.1,1182.4,1115,1182.4,1115z M1186.601,1106.399c-0.3-0.1-0.4-0.399-0.2-0.699l0,0c0.1-0.301,0.5-0.4,0.7-0.2l0,0
			c0.3,0.1,0.399,0.399,0.2,0.7l0,0c-0.101,0.199-0.301,0.3-0.5,0.3l0,0C1186.801,1106.5,1186.7,1106.5,1186.601,1106.399z
			 M1190.801,1097.8c-0.301-0.1-0.4-0.5-0.2-0.7l0,0c0.1-0.3,0.399-0.399,0.7-0.2l0,0c0.3,0.101,0.399,0.5,0.199,0.7l0,0l0,0l0,0
			c-0.1,0.2-0.3,0.3-0.5,0.3l0,0C1191,1097.899,1190.9,1097.899,1190.801,1097.8z M1194.9,1089.2c-0.3-0.101-0.4-0.4-0.3-0.7l0,0
			c0.1-0.3,0.399-0.4,0.7-0.3l0,0c0.3,0.1,0.399,0.399,0.199,0.699l0,0c-0.1,0.2-0.3,0.301-0.5,0.301l0,0
			C1195.101,1089.2,1195,1089.2,1194.9,1089.2z M1198.9,1080.5c-0.3-0.101-0.4-0.4-0.3-0.7l0,0c0.1-0.3,0.399-0.4,0.7-0.3l0,0
			c0.3,0.1,0.399,0.399,0.3,0.7l0,0c-0.101,0.199-0.3,0.3-0.5,0.3l0,0C1199,1080.5,1199,1080.5,1198.9,1080.5z M1202.7,1071.7
			c-0.3-0.101-0.399-0.4-0.3-0.7l0,0c0.1-0.3,0.4-0.4,0.7-0.3l0,0c0.3,0.1,0.399,0.399,0.3,0.699l0,0c-0.1,0.2-0.3,0.301-0.5,0.301
			l0,0C1202.9,1071.8,1202.801,1071.8,1202.7,1071.7z M1206.5,1062.899c-0.3-0.1-0.399-0.399-0.3-0.699l0,0
			c0.101-0.301,0.4-0.4,0.7-0.301l0,0c0.3,0.101,0.4,0.4,0.3,0.7l0,0l0,0l0,0c-0.1,0.2-0.3,0.3-0.5,0.3l0,0
			C1206.601,1063,1206.601,1062.899,1206.5,1062.899z M1210.101,1054.1c-0.3-0.1-0.4-0.399-0.3-0.7l0,0
			c0.1-0.3,0.399-0.399,0.699-0.3l0,0c0.301,0.101,0.4,0.4,0.301,0.7l0,0l0,0l0,0c-0.101,0.2-0.301,0.3-0.5,0.3l0,0
			C1210.301,1054.1,1210.2,1054.1,1210.101,1054.1z M1213.7,1045.2c-0.3-0.101-0.399-0.4-0.3-0.7l0,0c0.1-0.3,0.4-0.4,0.7-0.3l0,0
			c0.3,0.1,0.399,0.399,0.3,0.699l0,0l0,0l0,0c-0.1,0.2-0.3,0.301-0.5,0.301l0,0C1213.801,1045.2,1213.7,1045.2,1213.7,1045.2z
			 M1217.101,1036.2c-0.3-0.101-0.4-0.4-0.3-0.7l0,0c0.1-0.3,0.399-0.4,0.699-0.3l0,0c0.301,0.1,0.4,0.399,0.301,0.699l0,0l0,0l0,0
			c-0.101,0.2-0.301,0.301-0.5,0.301l0,0C1217.2,1036.3,1217.2,1036.2,1217.101,1036.2z M1220.4,1027.2c-0.3-0.101-0.4-0.4-0.3-0.7
			l0,0c0.1-0.3,0.399-0.4,0.7-0.3l0,0c0.3,0.1,0.399,0.399,0.3,0.699l0,0c-0.101,0.2-0.3,0.4-0.5,0.4l0,0
			C1220.5,1027.3,1220.5,1027.3,1220.4,1027.2z M1223.601,1018.2c-0.3-0.101-0.4-0.4-0.3-0.7l0,0c0.1-0.3,0.399-0.4,0.699-0.3l0,0
			c0.301,0.1,0.4,0.399,0.301,0.699l0,0c-0.101,0.2-0.301,0.301-0.5,0.301l0,0C1223.7,1018.2,1223.7,1018.2,1223.601,1018.2z
			 M1226.7,1009.1c-0.3-0.1-0.399-0.399-0.3-0.7l0,0c0.1-0.3,0.4-0.399,0.7-0.3l0,0c0.3,0.101,0.399,0.4,0.3,0.7l0,0
			c-0.1,0.2-0.3,0.4-0.5,0.4l0,0C1226.801,1009.2,1226.801,1009.1,1226.7,1009.1z M1229.7,1000c-0.3-0.101-0.399-0.4-0.3-0.7l0,0
			c0.1-0.3,0.4-0.4,0.7-0.3l0,0c0.3,0.1,0.399,0.399,0.3,0.7l0,0c-0.1,0.199-0.3,0.399-0.5,0.399l0,0
			C1229.801,1000,1229.7,1000,1229.7,1000z M1232.601,990.899c-0.3-0.1-0.4-0.399-0.4-0.699l0,0c0.101-0.301,0.4-0.4,0.7-0.4l0,0
			c0.3,0.1,0.4,0.4,0.3,0.7l0,0c-0.1,0.2-0.3,0.399-0.5,0.399l0,0H1232.601z M1235.301,981.7c-0.301-0.101-0.4-0.4-0.4-0.7l0,0
			c0.1-0.3,0.4-0.4,0.7-0.4l0,0c0.3,0.101,0.399,0.4,0.399,0.7l0,0c-0.1,0.2-0.3,0.4-0.5,0.4l0,0
			C1235.4,981.8,1235.301,981.7,1235.301,981.7z M1237.9,972.6c-0.3-0.1-0.4-0.399-0.4-0.7l0,0c0.101-0.3,0.4-0.5,0.7-0.399l0,0
			c0.3,0.1,0.4,0.399,0.4,0.7l0,0c-0.101,0.199-0.3,0.399-0.5,0.399l0,0C1238,972.6,1238,972.6,1237.9,972.6z M1240.4,963.3
			c-0.3-0.1-0.5-0.4-0.4-0.7l0,0c0.101-0.3,0.4-0.5,0.7-0.399l0,0c0.3,0.1,0.5,0.399,0.4,0.699l0,0c-0.101,0.2-0.3,0.4-0.5,0.4l0,0
			C1240.5,963.399,1240.5,963.3,1240.4,963.3z M1242.801,954.1c-0.301-0.1-0.5-0.399-0.4-0.6l0,0c0.1-0.3,0.4-0.4,0.6-0.4l0,0
			c0.301,0.101,0.5,0.4,0.4,0.7l0,0l0,0l0,0c0,0.2-0.3,0.4-0.5,0.4l0,0C1242.9,954.1,1242.9,954.1,1242.801,954.1z M1245.101,944.8
			c-0.3-0.1-0.5-0.4-0.4-0.6l0,0c0.101-0.301,0.4-0.5,0.601-0.4l0,0c0.3,0.1,0.5,0.3,0.399,0.6l0,0c-0.1,0.2-0.3,0.4-0.5,0.4l0,0
			H1245.101z M1247.2,935.5c-0.3-0.101-0.5-0.3-0.399-0.601l0,0c0.1-0.3,0.3-0.5,0.6-0.399l0,0c0.301,0.1,0.5,0.3,0.4,0.6l0,0
			c0,0.2-0.301,0.4-0.5,0.4l0,0C1247.301,935.5,1247.301,935.5,1247.2,935.5z M1249.301,926.2c-0.301-0.101-0.5-0.301-0.4-0.601l0,0
			c0.1-0.3,0.4-0.5,0.6-0.399l0,0c0.301,0.1,0.5,0.3,0.4,0.6l0,0c0,0.2-0.3,0.4-0.5,0.4l0,0H1249.301z M1251.2,916.899
			c-0.3-0.1-0.5-0.3-0.399-0.6l0,0c0-0.3,0.3-0.5,0.6-0.4l0,0c0.301,0.101,0.5,0.301,0.4,0.601l0,0
			c-0.101,0.3-0.301,0.399-0.5,0.399l0,0C1251.301,916.899,1251.301,916.899,1251.2,916.899z M1253,907.5
			c-0.3-0.101-0.5-0.3-0.399-0.601l0,0c0-0.3,0.3-0.5,0.601-0.399l0,0c0.3,0.1,0.5,0.3,0.399,0.6l0,0
			C1253.601,907.3,1253.4,907.5,1253,907.5L1253,907.5C1253.101,907.5,1253.101,907.5,1253,907.5z M1254.7,898.1
			c-0.3-0.1-0.5-0.3-0.399-0.6l0,0c0.1-0.3,0.3-0.5,0.6-0.4l0,0c0.301,0,0.5,0.3,0.4,0.601l0,0
			C1255.301,897.899,1255.101,898.1,1254.7,898.1L1254.7,898.1C1254.801,898.1,1254.801,898.1,1254.7,898.1z M1256.301,888.7
			c-0.301,0-0.5-0.301-0.4-0.601l0,0c0-0.3,0.3-0.5,0.6-0.399l0,0c0.301,0,0.5,0.3,0.4,0.6l0,0l0,0l0,0
			C1256.9,888.5,1256.7,888.7,1256.301,888.7L1256.301,888.7C1256.4,888.7,1256.301,888.7,1256.301,888.7z M1257.801,879.3
			c-0.301,0-0.5-0.3-0.5-0.6l0,0c0-0.301,0.3-0.5,0.6-0.5l0,0c0.3,0,0.5,0.3,0.4,0.6l0,0l0,0l0,0
			C1258.301,879.1,1258.101,879.3,1257.801,879.3L1257.801,879.3L1257.801,879.3z M1259.101,869.8c-0.3,0-0.5-0.3-0.5-0.6l0,0
			c0-0.301,0.3-0.5,0.6-0.4l0,0c0.3,0,0.5,0.3,0.5,0.6l0,0C1259.7,869.6,1259.4,869.8,1259.101,869.8L1259.101,869.8
			C1259.2,869.8,1259.101,869.8,1259.101,869.8z M1260.301,860.3c-0.301,0-0.5-0.3-0.5-0.6l0,0c0-0.301,0.3-0.5,0.6-0.5l0,0
			c0.3,0,0.5,0.3,0.5,0.6l0,0C1260.9,860.1,1260.7,860.3,1260.301,860.3L1260.301,860.3C1260.4,860.3,1260.4,860.3,1260.301,860.3z
			 M1261.5,850.8c-0.3,0-0.5-0.3-0.5-0.6l0,0c0-0.301,0.301-0.5,0.601-0.5l0,0c0.3,0,0.5,0.3,0.5,0.6l0,0
			C1262,850.7,1261.801,850.899,1261.5,850.8L1261.5,850.8C1261.5,850.899,1261.5,850.899,1261.5,850.8z M1262.4,841.399
			c-0.3,0-0.5-0.3-0.5-0.6l0,0c0-0.3,0.3-0.5,0.6-0.5l0,0c0.301,0,0.5,0.3,0.5,0.6l0,0C1263,841.2,1262.801,841.399,1262.4,841.399
			L1262.4,841.399C1262.5,841.399,1262.5,841.399,1262.4,841.399z M1263.301,831.899c-0.301,0-0.5-0.3-0.5-0.6l0,0
			c0-0.3,0.3-0.5,0.6-0.5l0,0c0.3,0,0.5,0.3,0.5,0.6l0,0l0,0l0,0C1263.9,831.6,1263.601,831.899,1263.301,831.899L1263.301,831.899
			C1263.4,831.899,1263.301,831.899,1263.301,831.899z M1264.101,822.3c-0.3,0-0.5-0.3-0.5-0.6l0,0c0-0.301,0.3-0.5,0.6-0.5l0,0
			c0.3,0,0.5,0.3,0.5,0.6l0,0C1264.601,822.1,1264.4,822.3,1264.101,822.3L1264.101,822.3L1264.101,822.3z M1264.7,812.8
			c-0.3,0-0.5-0.3-0.5-0.601l0,0c0-0.299,0.3-0.5,0.601-0.5l0,0c0.3,0,0.5,0.301,0.5,0.601l0,0
			C1265.301,812.6,1265,812.8,1264.7,812.8L1264.7,812.8L1264.7,812.8z M1265.301,803.3c-0.301,0-0.5-0.3-0.5-0.601l0,0
			c0-0.299,0.3-0.5,0.6-0.5l0,0c0.3,0,0.5,0.301,0.5,0.601l0,0C1265.801,803.1,1265.601,803.3,1265.301,803.3L1265.301,803.3
			L1265.301,803.3z M1265.7,793.8c-0.3,0-0.5-0.2-0.5-0.601l0,0c0-0.299,0.2-0.5,0.5-0.5l0,0c0.3,0,0.5,0.301,0.5,0.5l0,0
			C1266.2,793.5,1266,793.8,1265.7,793.8L1265.7,793.8L1265.7,793.8z M1266,784.199c-0.3,0-0.5-0.199-0.5-0.5l0,0
			c0-0.299,0.2-0.5,0.5-0.5l0,0c0.301,0,0.5,0.201,0.5,0.5l0,0C1266.5,784,1266.301,784.199,1266,784.199L1266,784.199L1266,784.199
			z M1266.101,774.699c-0.3,0-0.5-0.199-0.5-0.5l0,0c0-0.299,0.2-0.5,0.5-0.5l0,0c0.3,0,0.5,0.201,0.5,0.5l0,0l0,0l0,0
			C1266.7,774.4,1266.4,774.699,1266.101,774.699L1266.101,774.699L1266.101,774.699z M1265.601,774.1L1265.601,774.1
			L1265.601,774.1L1265.601,774.1L1265.601,774.1L1265.601,774.1z M1265.7,764.6c0-0.3,0.2-0.5,0.5-0.5l0,0c0.3,0,0.5,0.2,0.5,0.5
			l0,0c0,0.3-0.2,0.5-0.5,0.5l0,0C1265.9,765.1,1265.7,764.9,1265.7,764.6z M1265.601,755.1c0-0.3,0.2-0.5,0.5-0.5l0,0
			c0.3,0,0.5,0.2,0.5,0.5l0,0c0,0.3-0.2,0.5-0.5,0.5l0,0l0,0l0,0C1265.9,755.6,1265.601,755.3,1265.601,755.1z M1265.4,745.5
			L1265.4,745.5c0-0.3,0.2-0.5,0.5-0.5l0,0c0.3,0,0.5,0.2,0.5,0.5l0,0l0,0l0,0c0,0.3-0.2,0.5-0.5,0.5l0,0l0,0l0,0
			C1265.7,746,1265.4,745.8,1265.4,745.5z M1265.101,736L1265.101,736c0-0.3,0.2-0.5,0.5-0.6l0,0c0.3,0,0.5,0.2,0.5,0.5l0,0l0,0l0,0
			c0,0.3-0.2,0.5-0.5,0.5l0,0l0,0l0,0C1265.4,736.5,1265.101,736.3,1265.101,736z M1264.7,726.5c0-0.3,0.2-0.5,0.5-0.6l0,0
			c0.3,0,0.5,0.2,0.5,0.5l0,0c0,0.3-0.2,0.5-0.5,0.5l0,0l0,0l0,0C1265,727,1264.7,726.8,1264.7,726.5z M1264.2,717
			c0-0.3,0.2-0.5,0.5-0.6l0,0c0.3,0,0.5,0.2,0.601,0.5l0,0l0,0l0,0c0,0.3-0.2,0.5-0.5,0.6l0,0l0,0l0,0
			C1264.5,717.5,1264.2,717.3,1264.2,717z M1263.601,707.5c0-0.3,0.2-0.5,0.5-0.6l0,0c0.3,0,0.5,0.2,0.6,0.5l0,0
			c0,0.3-0.2,0.5-0.5,0.6l0,0l0,0l0,0C1263.801,707.9,1263.601,707.7,1263.601,707.5z M1262.801,697.9L1262.801,697.9
			c0-0.3,0.199-0.6,0.5-0.6l0,0c0.3,0,0.5,0.2,0.6,0.5l0,0l0,0l0,0c0,0.3-0.2,0.5-0.5,0.6l0,0l0,0l0,0
			C1263.101,698.4,1262.801,698.2,1262.801,697.9z M1261.9,688.4L1261.9,688.4c0-0.3,0.2-0.6,0.5-0.6l0,0c0.3,0,0.5,0.2,0.6,0.5l0,0
			c0,0.3-0.199,0.5-0.5,0.6l0,0c0,0,0,0-0.1,0l0,0C1262.2,688.9,1262,688.7,1261.9,688.4z M1260.9,679c0-0.3,0.2-0.6,0.5-0.6l0,0
			c0.3,0,0.6,0.2,0.6,0.5l0,0c0,0.3-0.199,0.5-0.5,0.6l0,0c0,0,0,0-0.1,0l0,0C1261.2,679.4,1261,679.2,1260.9,679z M1259.801,669.5
			L1259.801,669.5c0-0.3,0.199-0.6,0.5-0.6l0,0c0.3,0,0.6,0.2,0.6,0.5l0,0l0,0l0,0c0,0.3-0.2,0.6-0.5,0.6l0,0h-0.1l0,0
			C1260.101,670,1259.9,669.8,1259.801,669.5z M1258.601,660c0-0.3,0.2-0.6,0.5-0.6l0,0c0.3,0,0.5,0.2,0.6,0.5l0,0l0,0l0,0
			c0,0.3-0.2,0.6-0.5,0.6l0,0c0,0,0,0-0.1,0l0,0C1258.9,660.5,1258.7,660.3,1258.601,660z M1257.301,650.6
			c0-0.3,0.199-0.6,0.399-0.6l0,0c0.3,0,0.601,0.2,0.601,0.4l0,0c0,0.3-0.2,0.6-0.5,0.6l0,0c0,0,0,0-0.101,0l0,0
			C1257.5,651,1257.301,650.9,1257.301,650.6z M1255.801,641.2c-0.101-0.3,0.1-0.6,0.399-0.6l0,0c0.3,0,0.601,0.1,0.601,0.4l0,0
			c0,0.3-0.2,0.6-0.4,0.6l0,0h-0.1l0,0C1256.101,641.6,1255.9,641.4,1255.801,641.2z M1254.2,631.8c0-0.3,0.101-0.6,0.4-0.6l0,0
			c0.3,0,0.6,0.1,0.6,0.4l0,0c0,0.3-0.1,0.6-0.399,0.6l0,0h-0.101l0,0C1254.5,632.2,1254.301,632,1254.2,631.8z M1252.5,622.4
			c0-0.3,0.101-0.6,0.4-0.6l0,0c0.3-0.1,0.6,0.1,0.6,0.4l0,0l0,0l0,0c0.101,0.3-0.1,0.6-0.399,0.6l0,0H1253l0,0
			C1252.801,622.8,1252.601,622.6,1252.5,622.4z M1250.7,613c-0.1-0.3,0.101-0.6,0.4-0.6l0,0c0.3-0.1,0.6,0.1,0.6,0.4l0,0
			c0.101,0.3-0.1,0.6-0.399,0.6l0,0h-0.101l0,0C1251,613.4,1250.801,613.3,1250.7,613z M1248.801,603.7
			c-0.101-0.3,0.1-0.6,0.399-0.6l0,0c0.3-0.1,0.601,0.1,0.601,0.4l0,0c0.1,0.3-0.101,0.6-0.4,0.6l0,0h-0.1l0,0
			C1249.101,604.1,1248.9,603.9,1248.801,603.7z M1246.801,594.3L1246.801,594.3c-0.101-0.3,0.1-0.6,0.399-0.6l0,0
			c0.3-0.1,0.601,0.1,0.601,0.4l0,0c0.1,0.3-0.101,0.6-0.4,0.6l0,0h-0.1l0,0C1247,594.8,1246.801,594.6,1246.801,594.3z
			 M1244.601,585.1c-0.101-0.3,0.1-0.6,0.399-0.6l0,0c0.301-0.1,0.601,0.1,0.601,0.4l0,0c0.1,0.3-0.101,0.6-0.4,0.6l0,0h-0.1l0,0
			C1244.9,585.5,1244.7,585.3,1244.601,585.1z M1242.301,575.8c-0.101-0.3,0.1-0.6,0.399-0.6l0,0c0.3-0.1,0.601,0.1,0.7,0.4l0,0
			c0.1,0.3-0.101,0.6-0.4,0.6l0,0h-0.1l0,0C1242.601,576.2,1242.4,576,1242.301,575.8z M1239.9,566.6L1239.9,566.6
			c-0.1-0.3,0.1-0.6,0.4-0.7l0,0c0.3-0.1,0.6,0.1,0.699,0.4l0,0l0,0l0,0c0.101,0.3-0.1,0.6-0.399,0.6l0,0h-0.101l0,0
			C1240.2,567,1240,566.8,1239.9,566.6z M1237.4,557.4c-0.1-0.3,0.1-0.6,0.4-0.7l0,0c0.3-0.1,0.6,0.1,0.6,0.4l0,0l0,0l0,0
			c0.1,0.3-0.1,0.6-0.4,0.6l0,0c-0.1,0-0.1,0-0.1,0l0,0C1237.7,557.7,1237.5,557.6,1237.4,557.4z M1234.801,548.2
			c-0.101-0.3,0.1-0.6,0.399-0.6l0,0c0.3-0.1,0.601,0.1,0.7,0.4l0,0c0.1,0.3-0.101,0.6-0.4,0.7l0,0c0,0-0.1,0-0.199,0l0,0
			C1235.101,548.6,1234.9,548.4,1234.801,548.2z M1232.101,539c-0.101-0.3,0.1-0.6,0.3-0.7l0,0c0.3-0.1,0.6,0.1,0.7,0.4l0,0
			c0.1,0.3-0.101,0.6-0.4,0.7l0,0h-0.1l0,0C1232.4,539.4,1232.2,539.3,1232.101,539z M1229.301,529.9c-0.101-0.3,0.1-0.6,0.3-0.7
			l0,0c0.3-0.1,0.6,0.1,0.7,0.3l0,0c0.1,0.3-0.101,0.6-0.4,0.7l0,0c0,0-0.1,0-0.2,0l0,0C1229.5,530.3,1229.301,530.2,1229.301,529.9
			z M1226.301,520.9c-0.101-0.3,0.1-0.6,0.3-0.7l0,0c0.3-0.1,0.6,0,0.7,0.3l0,0c0.1,0.3-0.101,0.6-0.301,0.7l0,0
			c-0.1,0-0.1,0-0.199,0l0,0C1226.601,521.2,1226.4,521.1,1226.301,520.9z M1223.2,511.9L1223.2,511.9c-0.1-0.3,0-0.6,0.3-0.7l0,0
			c0.301-0.1,0.601,0,0.7,0.3l0,0l0,0l0,0c0.101,0.3,0,0.6-0.3,0.7l0,0c-0.1,0-0.1,0-0.2,0l0,0
			C1223.5,512.2,1223.301,512.1,1223.2,511.9z M1220,502.9c-0.1-0.3,0-0.6,0.301-0.7l0,0c0.3-0.1,0.6,0,0.699,0.3l0,0
			c0.101,0.3,0,0.6-0.3,0.7l0,0c-0.1,0-0.1,0-0.2,0l0,0C1220.301,503.2,1220.101,503.1,1220,502.9z M1216.7,493.9L1216.7,493.9
			c-0.1-0.3,0-0.6,0.3-0.7l0,0c0.301-0.1,0.601,0,0.7,0.3l0,0l0,0l0,0c0.101,0.3,0,0.6-0.3,0.7l0,0c-0.1,0-0.1,0-0.2,0l0,0
			C1217,494.3,1216.801,494.1,1216.7,493.9z M1213.301,485c-0.101-0.3,0-0.6,0.3-0.7l0,0c0.3-0.1,0.6,0,0.7,0.3l0,0
			c0.1,0.3,0,0.6-0.301,0.7l0,0c-0.1,0-0.1,0-0.199,0l0,0C1213.601,485.3,1213.4,485.2,1213.301,485z M1209.801,476.1
			c-0.101-0.3,0-0.6,0.3-0.7l0,0c0.3-0.1,0.6,0,0.7,0.3l0,0l0,0l0,0c0.1,0.3,0,0.6-0.301,0.7l0,0c-0.1,0-0.1,0-0.199,0l0,0
			C1210.101,476.5,1209.9,476.3,1209.801,476.1z M1206.2,467.4c-0.1-0.3,0-0.6,0.3-0.7l0,0c0.301-0.1,0.601,0,0.7,0.3l0,0l0,0l0,0
			c0.101,0.3,0,0.6-0.3,0.7l0,0c-0.1,0-0.1,0-0.2,0l0,0C1206.5,467.7,1206.301,467.6,1206.2,467.4z M1202.5,458.6
			c-0.1-0.3,0-0.6,0.301-0.7l0,0c0.3-0.1,0.6,0,0.699,0.3l0,0c0.101,0.3,0,0.6-0.3,0.7l0,0c-0.1,0-0.1,0-0.2,0l0,0
			C1202.801,458.9,1202.601,458.8,1202.5,458.6z M1198.7,449.9L1198.7,449.9c-0.1-0.3,0-0.6,0.3-0.7l0,0c0.301-0.1,0.601,0,0.7,0.3
			l0,0c0.101,0.3,0,0.6-0.3,0.7l0,0c-0.1,0-0.2,0.1-0.2,0.1l0,0C1198.9,450.2,1198.801,450.1,1198.7,449.9z M1194.7,441.3
			c-0.1-0.3,0-0.6,0.3-0.7l0,0c0.301-0.1,0.601,0,0.7,0.3l0,0l0,0l0,0c0.101,0.3,0,0.6-0.3,0.7l0,0c-0.1,0-0.1,0-0.2,0l0,0
			C1195,441.6,1194.801,441.5,1194.7,441.3z M1190.7,432.7c-0.1-0.3,0-0.6,0.2-0.7l0,0c0.3-0.1,0.6,0,0.7,0.2l0,0
			c0.1,0.3,0,0.6-0.2,0.7l0,0c-0.1,0-0.2,0-0.2,0l0,0C1191,433,1190.801,432.9,1190.7,432.7z M1186.5,424.1c-0.1-0.3,0-0.6,0.2-0.7
			l0,0c0.3-0.1,0.601,0,0.7,0.2l0,0c0.1,0.3,0,0.6-0.2,0.7l0,0c-0.1,0-0.2,0-0.2,0l0,0C1186.801,424.4,1186.601,424.3,1186.5,424.1z
			 M1182.301,415.6c-0.101-0.3,0-0.6,0.199-0.7l0,0c0.301-0.1,0.601,0,0.7,0.2l0,0c0.101,0.3,0,0.6-0.2,0.7l0,0
			c-0.1,0-0.199,0.1-0.199,0.1l0,0C1182.5,415.9,1182.4,415.8,1182.301,415.6z M1177.9,407.2L1177.9,407.2c-0.1-0.3,0-0.6,0.2-0.7
			l0,0c0.2-0.1,0.6,0,0.7,0.2l0,0l0,0l0,0c0.1,0.3,0,0.6-0.2,0.7l0,0c-0.101,0-0.2,0.1-0.2,0.1l0,0
			C1178.2,407.5,1178,407.4,1177.9,407.2z M1173.4,398.8c-0.1-0.3,0-0.6,0.2-0.7l0,0c0.3-0.1,0.6-0.1,0.7,0.2l0,0
			c0.1,0.3,0,0.6-0.2,0.7l0,0c-0.101,0-0.2,0.1-0.2,0.1l0,0C1173.7,399.1,1173.5,399,1173.4,398.8z M1168.9,390.4
			c-0.1-0.3,0-0.6,0.2-0.7l0,0c0.2-0.1,0.6,0,0.7,0.2l0,0c0.1,0.3,0.1,0.6-0.2,0.7l0,0c-0.101,0.1-0.2,0.1-0.2,0.1l0,0
			C1169.101,390.7,1169,390.6,1168.9,390.4z M1164.2,382.2c-0.2-0.2-0.1-0.6,0.2-0.7l0,0c0.3-0.1,0.6-0.1,0.7,0.2l0,0
			c0.1,0.2,0,0.6-0.2,0.7l0,0c-0.1,0-0.2,0.1-0.3,0.1l0,0C1164.5,382.4,1164.301,382.3,1164.2,382.2z M1159.4,373.9
			c-0.1-0.3-0.1-0.6,0.2-0.7l0,0c0.2-0.1,0.6-0.1,0.7,0.2l0,0c0.199,0.2,0.1,0.6-0.2,0.7l0,0c-0.101,0-0.2,0.1-0.3,0.1l0,0
			C1159.7,374.2,1159.5,374.1,1159.4,373.9z M1154.5,365.8L1154.5,365.8c-0.1-0.2-0.1-0.6,0.2-0.7l0,0c0.2-0.1,0.601-0.1,0.7,0.2
			l0,0c0.2,0.2,0.1,0.6-0.2,0.7l0,0c-0.1,0-0.2,0.1-0.3,0.1l0,0C1154.801,366,1154.601,365.9,1154.5,365.8z M1149.601,357.7
			c-0.2-0.2-0.101-0.6,0.2-0.7l0,0c0.199-0.1,0.6-0.1,0.699,0.2l0,0c0.2,0.2,0.101,0.6-0.199,0.7l0,0c-0.101,0-0.2,0.1-0.301,0.1
			l0,0C1149.801,357.9,1149.7,357.8,1149.601,357.7z M1144.5,349.6L1144.5,349.6c-0.199-0.2-0.1-0.6,0.2-0.7l0,0
			c0.2-0.2,0.601-0.1,0.7,0.2l0,0l0,0l0,0c0.2,0.2,0.1,0.6-0.2,0.7l0,0c-0.1,0.1-0.2,0.1-0.3,0.1l0,0
			C1144.7,349.9,1144.601,349.8,1144.5,349.6z M1139.301,341.6c-0.2-0.2-0.101-0.6,0.199-0.7l0,0c0.2-0.2,0.601-0.1,0.7,0.2l0,0
			c0.2,0.2,0.101,0.6-0.2,0.7l0,0c-0.1,0.1-0.199,0.1-0.3,0.1l0,0C1139.601,341.9,1139.4,341.8,1139.301,341.6z M1134,333.7
			c-0.199-0.2-0.1-0.6,0.101-0.7l0,0c0.2-0.2,0.6-0.1,0.7,0.1l0,0c0.199,0.2,0.1,0.6-0.2,0.7l0,0c-0.101,0.1-0.2,0.1-0.3,0.1l0,0
			C1134.301,333.9,1134.101,333.9,1134,333.7z M1128.601,325.8L1128.601,325.8c-0.2-0.2-0.101-0.6,0.1-0.7l0,0
			c0.2-0.2,0.601-0.1,0.7,0.1l0,0c0.2,0.2,0.1,0.6-0.1,0.7l0,0c-0.101,0.1-0.2,0.1-0.301,0.1l0,0
			C1128.9,326.1,1128.7,326,1128.601,325.8z M1123.2,318.1c-0.2-0.2-0.1-0.6,0.101-0.7l0,0c0.199-0.2,0.6-0.1,0.699,0.1l0,0
			c0.2,0.2,0.101,0.6-0.1,0.7l0,0c-0.1,0.1-0.2,0.1-0.3,0.1l0,0C1123.4,318.3,1123.301,318.2,1123.2,318.1z M1117.601,310.3
			c-0.2-0.2-0.101-0.6,0.1-0.7l0,0c0.2-0.2,0.601-0.1,0.7,0.1l0,0c0.2,0.2,0.1,0.6-0.1,0.7l0,0c-0.101,0.1-0.2,0.1-0.301,0.1l0,0
			C1117.9,310.6,1117.7,310.5,1117.601,310.3z M1111.9,302.7c-0.2-0.2-0.1-0.6,0.1-0.7l0,0c0.2-0.2,0.601-0.1,0.7,0.1l0,0
			c0.2,0.2,0.101,0.6-0.1,0.7l0,0c-0.101,0.1-0.2,0.1-0.3,0.1l0,0C1112.2,302.9,1112,302.8,1111.9,302.7z M1106.2,295.1
			L1106.2,295.1c-0.2-0.2-0.1-0.6,0.101-0.8l0,0c0.199-0.2,0.6-0.1,0.699,0.1l0,0l0,0l0,0c0.2,0.2,0.101,0.6-0.1,0.8l0,0
			c-0.1,0.1-0.2,0.1-0.3,0.1l0,0C1106.4,295.3,1106.301,295.2,1106.2,295.1z M1100.301,287.6c-0.2-0.2-0.101-0.6,0.1-0.7l0,0
			c0.2-0.2,0.6-0.1,0.7,0.1l0,0c0.2,0.2,0.1,0.6-0.101,0.7l0,0c-0.1,0.1-0.199,0.1-0.3,0.1l0,0
			C1100.601,287.8,1100.4,287.7,1100.301,287.6z M1094.4,280.1c-0.2-0.2-0.2-0.6,0.1-0.8l0,0c0.2-0.2,0.601-0.1,0.801,0.1l0,0
			c0.199,0.2,0.1,0.6-0.101,0.8l0,0c-0.1,0.1-0.2,0.1-0.3,0.1l0,0C1094.601,280.3,1094.5,280.3,1094.4,280.1z M1088.301,272.8
			c-0.2-0.2-0.101-0.6,0.1-0.8l0,0c0.2-0.2,0.6-0.1,0.8,0.1l0,0c0.2,0.2,0.2,0.6-0.1,0.8l0,0c-0.101,0.1-0.2,0.1-0.3,0.1l0,0
			C1088.601,273,1088.4,272.9,1088.301,272.8z M1082.2,265.5c-0.2-0.2-0.2-0.6,0.101-0.8l0,0c0.199-0.2,0.5-0.2,0.699,0.1l0,0
			c0.2,0.2,0.2,0.6-0.1,0.8l0,0c-0.1,0.1-0.2,0.1-0.3,0.1l0,0C1082.5,265.7,1082.301,265.6,1082.2,265.5z M1076,258.2
			c-0.199-0.2-0.199-0.5,0-0.8l0,0c0.2-0.2,0.5-0.2,0.801,0.1l0,0c0.199,0.2,0.199,0.6-0.101,0.8l0,0c-0.1,0.1-0.2,0.1-0.399,0.1
			l0,0C1076.2,258.4,1076.101,258.4,1076,258.2z M1069.7,251.1c-0.2-0.2-0.2-0.6,0-0.8l0,0c0.2-0.2,0.601-0.2,0.8,0l0,0
			c0.2,0.2,0.2,0.6,0,0.8l0,0c-0.1,0.1-0.199,0.1-0.399,0.1l0,0C1069.9,251.3,1069.801,251.2,1069.7,251.1z M1063.301,244
			c-0.2-0.2-0.2-0.5,0-0.8l0,0c0.199-0.2,0.5-0.2,0.8,0l0,0c0.2,0.2,0.2,0.5,0,0.8l0,0c-0.101,0.1-0.2,0.1-0.3,0.1l0,0
			C1063.5,244.2,1063.4,244.1,1063.301,244z M1056.801,237L1056.801,237c-0.2-0.2-0.2-0.6,0-0.8l0,0c0.199-0.2,0.5-0.2,0.8,0l0,0
			c0.2,0.2,0.2,0.5,0,0.8l0,0c-0.101,0.1-0.2,0.1-0.4,0.1l0,0C1057,237.2,1056.9,237.2,1056.801,237z M1050.2,230.1
			c-0.2-0.2-0.2-0.5,0-0.8l0,0c0.2-0.2,0.5-0.2,0.8,0l0,0c0.2,0.2,0.2,0.6,0,0.8l0,0c-0.1,0.1-0.199,0.2-0.399,0.2l0,0
			C1050.5,230.3,1050.301,230.2,1050.2,230.1z M1043.601,223.3L1043.601,223.3c-0.2-0.2-0.2-0.5,0-0.8l0,0c0.2-0.2,0.5-0.2,0.8,0
			l0,0c0.2,0.2,0.2,0.6,0,0.8l0,0c-0.1,0.1-0.2,0.2-0.4,0.2l0,0C1043.801,223.5,1043.7,223.4,1043.601,223.3z M1036.801,216.6
			c-0.2-0.2-0.2-0.5,0-0.8l0,0c0.199-0.2,0.5-0.2,0.8,0l0,0c0.2,0.2,0.2,0.5,0,0.8l0,0c-0.101,0.1-0.2,0.1-0.4,0.1l0,0
			C1037.101,216.7,1036.9,216.7,1036.801,216.6z M1030,209.9c-0.199-0.2-0.199-0.5,0-0.8l0,0c0.2-0.2,0.5-0.2,0.801,0l0,0
			c0.199,0.2,0.199,0.5,0,0.8l0,0c-0.101,0.1-0.2,0.2-0.4,0.2l0,0C1030.301,210,1030.101,210,1030,209.9z M1023.101,203.3
			c-0.2-0.2-0.2-0.5,0-0.7l0,0c0.2-0.2,0.5-0.2,0.8,0l0,0c0.2,0.2,0.2,0.5,0,0.8l0,0c-0.1,0.1-0.2,0.2-0.4,0.2l0,0
			C1023.4,203.5,1023.2,203.4,1023.101,203.3z M1016.101,196.8c-0.2-0.2-0.2-0.5,0-0.8l0,0c0.2-0.2,0.5-0.2,0.8,0l0,0
			c0.2,0.2,0.2,0.5,0,0.8l0,0c-0.1,0.1-0.2,0.2-0.4,0.2l0,0C1016.4,197,1016.2,196.9,1016.101,196.8z M1009.101,190.4
			c-0.2-0.2-0.2-0.5,0-0.8l0,0c0.2-0.2,0.5-0.2,0.8,0l0,0c0.2,0.2,0.2,0.5,0,0.8l0,0c-0.1,0.1-0.2,0.2-0.4,0.2l0,0
			C1009.301,190.5,1009.2,190.5,1009.101,190.4z M1001.9,184.1c-0.2-0.2-0.2-0.5-0.1-0.7l0,0c0.199-0.2,0.5-0.2,0.8-0.1l0,0
			c0.2,0.2,0.2,0.5,0.1,0.7l0,0c-0.1,0.1-0.2,0.2-0.399,0.2l0,0C1002.2,184.2,1002,184.2,1001.9,184.1z M994.7,177.8
			c-0.2-0.2-0.2-0.5-0.1-0.8l0,0c0.2-0.2,0.5-0.2,0.8-0.1l0,0l0,0l0,0c0.2,0.2,0.2,0.5,0.1,0.8l0,0c-0.1,0.1-0.199,0.2-0.399,0.2
			l0,0C994.9,178,994.801,177.9,994.7,177.8z M987.4,171.7L987.4,171.7c-0.2-0.2-0.2-0.5-0.1-0.8l0,0c0.199-0.2,0.5-0.2,0.8-0.1l0,0
			c0.2,0.2,0.3,0.5,0.1,0.8l0,0c-0.1,0.1-0.3,0.2-0.399,0.2l0,0C987.601,171.8,987.5,171.8,987.4,171.7z M980,165.6
			c-0.199-0.2-0.3-0.5-0.1-0.8l0,0c0.2-0.2,0.5-0.3,0.8-0.1l0,0c0.2,0.2,0.3,0.5,0.101,0.7l0,0c-0.101,0.1-0.301,0.2-0.4,0.2l0,0
			C980.301,165.8,980.101,165.7,980,165.6z M972.601,159.7c-0.2-0.2-0.3-0.5-0.101-0.7l0,0c0.2-0.2,0.5-0.3,0.801-0.1l0,0
			c0.199,0.2,0.3,0.5,0.1,0.8l0,0c-0.1,0.1-0.3,0.2-0.4,0.2l0,0C972.801,159.8,972.7,159.7,972.601,159.7z M965.101,153.8
			c-0.2-0.2-0.3-0.5-0.101-0.8l0,0c0.2-0.2,0.5-0.3,0.801-0.1l0,0l0,0l0,0c0.199,0.2,0.3,0.5,0.1,0.7l0,0c-0.1,0.1-0.3,0.2-0.4,0.2
			l0,0C965.301,153.9,965.2,153.9,965.101,153.8z M957.5,148c-0.199-0.2-0.3-0.5-0.1-0.7l0,0c0.2-0.2,0.5-0.3,0.7-0.1l0,0l0,0l0,0
			c0.2,0.2,0.3,0.5,0.1,0.7l0,0c-0.1,0.1-0.3,0.2-0.399,0.2l0,0C957.7,148.1,957.601,148.1,957.5,148z M949.801,142.3
			c-0.2-0.2-0.301-0.5-0.101-0.7l0,0c0.2-0.2,0.5-0.3,0.7-0.1l0,0c0.2,0.2,0.3,0.5,0.1,0.7l0,0c-0.1,0.1-0.3,0.2-0.399,0.2l0,0
			C950,142.4,949.9,142.4,949.801,142.3z M942.101,136.7L942.101,136.7c-0.2-0.2-0.3-0.5-0.101-0.7l0,0c0.2-0.2,0.5-0.3,0.7-0.1l0,0
			l0,0l0,0c0.2,0.2,0.3,0.5,0.101,0.7l0,0c-0.101,0.1-0.301,0.2-0.4,0.2l0,0C942.301,136.8,942.2,136.8,942.101,136.7z
			 M934.301,131.2L934.301,131.2c-0.2-0.2-0.301-0.5-0.101-0.7l0,0c0.2-0.2,0.5-0.3,0.7-0.1l0,0l0,0l0,0c0.2,0.2,0.3,0.5,0.1,0.7
			l0,0c-0.1,0.1-0.3,0.2-0.399,0.2l0,0C934.5,131.3,934.4,131.3,934.301,131.2z M926.4,125.8L926.4,125.8c-0.2-0.2-0.3-0.5-0.2-0.7
			l0,0c0.2-0.2,0.5-0.3,0.7-0.1l0,0l0,0l0,0c0.2,0.2,0.3,0.5,0.1,0.7l0,0c-0.1,0.2-0.3,0.2-0.399,0.2l0,0
			C926.601,125.9,926.5,125.9,926.4,125.8z M918.5,120.5c-0.199-0.2-0.3-0.5-0.1-0.7l0,0c0.2-0.2,0.5-0.3,0.7-0.1l0,0
			c0.2,0.2,0.3,0.5,0.2,0.7l0,0c-0.101,0.1-0.301,0.2-0.4,0.2l0,0C918.7,120.6,918.5,120.6,918.5,120.5z M910.4,115.3
			c-0.2-0.2-0.3-0.5-0.2-0.7l0,0c0.2-0.2,0.5-0.3,0.7-0.2l0,0c0.2,0.2,0.3,0.5,0.2,0.7l0,0c-0.101,0.2-0.3,0.2-0.5,0.2l0,0
			C910.601,115.4,910.5,115.4,910.4,115.3z M902.4,110.2L902.4,110.2c-0.2-0.1-0.3-0.5-0.2-0.7l0,0c0.2-0.2,0.5-0.3,0.7-0.2l0,0
			c0.2,0.2,0.3,0.5,0.2,0.7l0,0c-0.101,0.2-0.3,0.2-0.5,0.2l0,0C902.601,110.3,902.5,110.3,902.4,110.2z M894.2,105.2L894.2,105.2
			c-0.3-0.1-0.3-0.5-0.2-0.7l0,0c0.101-0.2,0.5-0.3,0.7-0.2l0,0c0.2,0.1,0.3,0.5,0.2,0.7l0,0c-0.1,0.2-0.3,0.3-0.4,0.3l0,0
			C894.4,105.3,894.301,105.2,894.2,105.2z M886,100.3c-0.199-0.1-0.3-0.5-0.199-0.7l0,0c0.1-0.2,0.5-0.3,0.699-0.2l0,0
			c0.2,0.1,0.301,0.5,0.2,0.7l0,0c-0.1,0.2-0.3,0.3-0.5,0.3l0,0C886.2,100.4,886.101,100.3,886,100.3z M877.801,95.5
			c-0.2-0.1-0.301-0.5-0.2-0.7l0,0c0.2-0.2,0.5-0.3,0.7-0.2l0,0c0.199,0.1,0.3,0.5,0.199,0.7l0,0c-0.1,0.2-0.3,0.3-0.5,0.3l0,0
			C878,95.6,877.9,95.5,877.801,95.5z M869.5,90.8c-0.199-0.1-0.3-0.5-0.199-0.7l0,0c0.1-0.3,0.5-0.4,0.699-0.2l0,0
			c0.2,0.1,0.301,0.5,0.2,0.7l0,0c-0.1,0.2-0.3,0.3-0.5,0.3l0,0C869.601,90.8,869.5,90.8,869.5,90.8z M861.101,86.2L861.101,86.2
			c-0.2-0.1-0.3-0.5-0.2-0.7l0,0c0.1-0.3,0.5-0.4,0.7-0.2l0,0l0,0l0,0c0.3,0.1,0.3,0.5,0.2,0.7l0,0c-0.101,0.2-0.301,0.3-0.5,0.3
			l0,0C861.301,86.2,861.2,86.2,861.101,86.2z M852.7,81.7L852.7,81.7c-0.3-0.1-0.399-0.5-0.2-0.7l0,0c0.101-0.2,0.5-0.4,0.7-0.2
			l0,0l0,0l0,0c0.3,0.1,0.4,0.5,0.2,0.7l0,0c-0.1,0.2-0.3,0.3-0.5,0.3l0,0C852.801,81.7,852.7,81.7,852.7,81.7z M844.2,77.3
			c-0.3-0.1-0.399-0.5-0.2-0.7l0,0c0.101-0.3,0.5-0.4,0.7-0.2l0,0c0.3,0.1,0.4,0.5,0.2,0.7l0,0c-0.1,0.2-0.3,0.3-0.5,0.3l0,0
			C844.301,77.3,844.2,77.3,844.2,77.3z M835.601,73c-0.3-0.1-0.4-0.5-0.2-0.7l0,0c0.1-0.3,0.5-0.4,0.7-0.2l0,0l0,0l0,0
			c0.3,0.1,0.399,0.4,0.2,0.7l0,0c-0.101,0.2-0.301,0.3-0.5,0.3l0,0C835.801,73,835.7,73,835.601,73z M827,68.8L827,68.8
			c-0.3-0.1-0.399-0.4-0.3-0.7l0,0c0.101-0.3,0.4-0.4,0.7-0.2l0,0c0.3,0.1,0.4,0.4,0.2,0.7l0,0c-0.101,0.2-0.301,0.3-0.5,0.3l0,0
			C827.2,68.9,827.101,68.8,827,68.8z M818.4,64.7c-0.3-0.1-0.4-0.4-0.3-0.7l0,0c0.1-0.3,0.399-0.4,0.7-0.3l0,0
			c0.3,0.1,0.399,0.4,0.3,0.7l0,0c-0.101,0.2-0.3,0.3-0.5,0.3l0,0C818.5,64.8,818.4,64.8,818.4,64.7z M809.7,60.8L809.7,60.8
			c-0.3-0.1-0.399-0.4-0.3-0.7l0,0c0.1-0.3,0.4-0.4,0.7-0.3l0,0l0,0l0,0c0.3,0.1,0.399,0.4,0.3,0.7l0,0c-0.1,0.2-0.3,0.3-0.5,0.3
			l0,0C809.801,60.8,809.7,60.8,809.7,60.8z M800.9,56.9c-0.3-0.1-0.4-0.4-0.3-0.7l0,0c0.1-0.3,0.399-0.4,0.7-0.3l0,0
			c0.3,0.1,0.399,0.4,0.3,0.7l0,0c-0.101,0.2-0.3,0.3-0.5,0.3l0,0C801.101,56.9,801,56.9,800.9,56.9z M792.101,53.1L792.101,53.1
			c-0.3-0.1-0.4-0.4-0.3-0.7l0,0c0.1-0.3,0.399-0.4,0.699-0.3l0,0c0.301,0.1,0.4,0.4,0.301,0.7l0,0c-0.101,0.2-0.301,0.3-0.5,0.3
			l0,0C792.2,53.2,792.2,53.2,792.101,53.1z M783.301,49.5L783.301,49.5c-0.301-0.1-0.4-0.4-0.301-0.7l0,0
			c0.101-0.3,0.4-0.4,0.7-0.3l0,0l0,0l0,0c0.3,0.1,0.4,0.4,0.3,0.7l0,0c-0.1,0.2-0.3,0.3-0.5,0.3l0,0
			C783.4,49.6,783.301,49.5,783.301,49.5z M774.4,46c-0.3-0.1-0.4-0.4-0.3-0.7l0,0c0.1-0.3,0.399-0.4,0.7-0.3l0,0
			c0.3,0.1,0.399,0.4,0.3,0.7l0,0c-0.101,0.2-0.3,0.3-0.5,0.3l0,0C774.5,46,774.4,46,774.4,46z M765.4,42.6L765.4,42.6
			c-0.3-0.1-0.4-0.4-0.3-0.7l0,0c0.1-0.3,0.399-0.4,0.7-0.3l0,0c0.3,0.1,0.399,0.4,0.3,0.7l0,0c-0.101,0.2-0.3,0.4-0.5,0.4l0,0
			C765.5,42.6,765.5,42.6,765.4,42.6z M756.4,39.3c-0.3-0.1-0.4-0.4-0.3-0.7l0,0c0.1-0.3,0.399-0.4,0.7-0.3l0,0
			c0.3,0.1,0.399,0.4,0.3,0.7l0,0c-0.101,0.2-0.3,0.4-0.5,0.4l0,0C756.601,39.3,756.5,39.3,756.4,39.3z M747.4,36.1L747.4,36.1
			c-0.3-0.1-0.4-0.4-0.3-0.7l0,0c0.1-0.3,0.399-0.4,0.7-0.3l0,0c0.3,0.1,0.399,0.4,0.3,0.7l0,0c-0.101,0.2-0.3,0.4-0.5,0.4l0,0
			C747.5,36.1,747.5,36.1,747.4,36.1z M738.4,33c-0.3-0.1-0.4-0.4-0.3-0.7l0,0c0.1-0.3,0.399-0.4,0.7-0.3l0,0l0,0l0,0
			c0.3,0.1,0.399,0.4,0.3,0.7l0,0c-0.101,0.2-0.3,0.4-0.5,0.4l0,0C738.5,33,738.4,33,738.4,33z M729.2,30
			c-0.3-0.1-0.399-0.4-0.3-0.7l0,0c0.1-0.3,0.4-0.4,0.7-0.3l0,0c0.3,0.1,0.399,0.4,0.3,0.7l0,0c-0.1,0.2-0.3,0.4-0.5,0.4l0,0
			C729.4,30,729.301,30,729.2,30z M720.101,27.1c-0.3-0.1-0.4-0.4-0.4-0.7l0,0c0.101-0.3,0.4-0.4,0.7-0.4l0,0l0,0l0,0
			c0.3,0.1,0.4,0.4,0.4,0.7l0,0c-0.101,0.2-0.301,0.4-0.5,0.4l0,0C720.2,27.2,720.2,27.2,720.101,27.1z M711,24.4
			c-0.3-0.1-0.399-0.4-0.399-0.7l0,0c0.1-0.3,0.399-0.4,0.7-0.4l0,0c0.3,0.1,0.399,0.4,0.399,0.6l0,0c-0.1,0.2-0.3,0.4-0.5,0.4l0,0
			C711.101,24.4,711,24.4,711,24.4z M701.801,21.8c-0.301-0.1-0.5-0.4-0.4-0.6l0,0c0.1-0.3,0.4-0.5,0.7-0.4l0,0l0,0l0,0
			c0.3,0.1,0.399,0.4,0.399,0.6l0,0c-0.1,0.2-0.3,0.4-0.5,0.4l0,0C701.9,21.8,701.801,21.8,701.801,21.8z M692.601,19.3
			c-0.3-0.1-0.5-0.4-0.4-0.6l0,0c0.101-0.3,0.4-0.5,0.7-0.4l0,0c0.3,0.1,0.5,0.4,0.4,0.6l0,0c-0.101,0.2-0.301,0.4-0.5,0.4l0,0
			C692.7,19.3,692.601,19.3,692.601,19.3z M683.4,16.9L683.4,16.9c-0.3-0.1-0.5-0.4-0.4-0.6l0,0c0.101-0.3,0.4-0.5,0.601-0.4l0,0
			l0,0l0,0c0.3,0.1,0.5,0.4,0.399,0.6l0,0c-0.1,0.2-0.3,0.4-0.5,0.4l0,0C683.4,16.9,683.4,16.9,683.4,16.9z M674.101,14.6
			c-0.3-0.1-0.5-0.3-0.4-0.6l0,0c0.101-0.3,0.3-0.5,0.601-0.4l0,0l0,0l0,0c0.3,0.1,0.5,0.4,0.399,0.6l0,0c-0.1,0.2-0.3,0.4-0.5,0.4
			l0,0C674.2,14.7,674.101,14.7,674.101,14.6z M664.801,12.5c-0.301-0.1-0.5-0.4-0.4-0.6l0,0c0.1-0.3,0.3-0.5,0.6-0.4l0,0
			c0.301,0.1,0.5,0.4,0.4,0.6l0,0c-0.1,0.2-0.3,0.4-0.5,0.4l0,0H664.801z M655.5,10.5L655.5,10.5c-0.3-0.1-0.5-0.3-0.399-0.6l0,0
			c0.1-0.3,0.3-0.5,0.6-0.4l0,0c0.3,0.1,0.5,0.3,0.4,0.6l0,0c-0.101,0.2-0.3,0.4-0.5,0.4l0,0C655.5,10.5,655.5,10.5,655.5,10.5z
			 M646.101,8.5c-0.3-0.1-0.5-0.3-0.4-0.6l0,0c0.101-0.3,0.3-0.5,0.601-0.4l0,0c0.3,0.1,0.5,0.3,0.399,0.6l0,0
			c0,0.2-0.3,0.4-0.5,0.4l0,0C646.2,8.5,646.2,8.5,646.101,8.5z M636.801,6.7L636.801,6.7c-0.301-0.1-0.5-0.3-0.4-0.6l0,0
			c0-0.3,0.3-0.5,0.6-0.4l0,0c0.301,0.1,0.5,0.3,0.4,0.6l0,0C637.301,6.6,637.101,6.7,636.801,6.7L636.801,6.7L636.801,6.7z
			 M627.4,5L627.4,5c-0.3,0-0.5-0.3-0.4-0.6l0,0c0-0.3,0.301-0.5,0.601-0.4l0,0c0.3,0,0.5,0.3,0.399,0.6l0,0
			C627.9,4.9,627.7,5,627.4,5L627.4,5L627.4,5z M618,3.5L618,3.5c-0.3,0-0.5-0.3-0.399-0.6l0,0c0-0.3,0.3-0.5,0.6-0.4l0,0l0,0l0,0
			c0.3,0,0.5,0.3,0.4,0.6l0,0C618.5,3.3,618.301,3.5,618,3.5L618,3.5L618,3.5z M608.5,2c-0.3,0-0.5-0.3-0.399-0.6l0,0
			c0-0.3,0.3-0.5,0.6-0.4l0,0c0.3,0,0.5,0.3,0.5,0.6l0,0C609.101,1.8,608.9,2,608.5,2L608.5,2C608.601,2,608.601,2,608.5,2z
			 M599.101,0.7c-0.3,0-0.5-0.3-0.5-0.6l0,0c0-0.3,0.3-0.5,0.6-0.5l0,0c0.3,0,0.5,0.3,0.5,0.6l0,0C599.7,0.5,599.4,0.7,599.101,0.7
			L599.101,0.7L599.101,0.7z M589.7-0.6c-0.3,0-0.5-0.3-0.5-0.6l0,0c0-0.3,0.3-0.5,0.601-0.5l0,0c0.3,0,0.5,0.3,0.5,0.6l0,0
			C590.2-0.8,590-0.6,589.7-0.6L589.7-0.6L589.7-0.6z M580.2-1.7L580.2-1.7c-0.3,0-0.5-0.3-0.5-0.6l0,0c0-0.3,0.3-0.5,0.601-0.5l0,0
			c0.3,0,0.5,0.3,0.5,0.6l0,0C580.7-1.9,580.5-1.7,580.2-1.7L580.2-1.7L580.2-1.7z M570.7-2.7c-0.3,0-0.5-0.3-0.5-0.6l0,0
			c0-0.3,0.3-0.5,0.601-0.5l0,0c0.3,0,0.5,0.3,0.5,0.6l0,0C571.2-2.9,571-2.7,570.7-2.7L570.7-2.7L570.7-2.7z M561.2-3.5L561.2-3.5
			c-0.3,0-0.5-0.3-0.5-0.6l0,0c0-0.3,0.3-0.5,0.601-0.5l0,0l0,0l0,0c0.3,0,0.5,0.3,0.5,0.6l0,0C561.7-3.7,561.5-3.5,561.2-3.5
			L561.2-3.5L561.2-3.5z M551.7-4.3c-0.3,0-0.5-0.3-0.5-0.6l0,0c0-0.3,0.3-0.5,0.601-0.5l0,0l0,0l0,0c0.3,0,0.5,0.3,0.5,0.6l0,0
			C552.2-4.5,552-4.3,551.7-4.3L551.7-4.3L551.7-4.3z M542.2-4.9c-0.3,0-0.5-0.3-0.5-0.6l0,0c0-0.3,0.3-0.5,0.601-0.5l0,0
			c0.3,0,0.5,0.3,0.5,0.6l0,0C542.7-5.1,542.5-4.9,542.2-4.9L542.2-4.9L542.2-4.9z M532.601-5.4c-0.3,0-0.5-0.3-0.5-0.6l0,0
			c0-0.3,0.3-0.5,0.6-0.5l0,0l0,0l0,0c0.3,0,0.5,0.3,0.5,0.6l0,0C533.2-5.7,532.9-5.4,532.601-5.4L532.601-5.4
			C532.7-5.4,532.7-5.4,532.601-5.4z M523.101-5.9c-0.3,0-0.5-0.3-0.5-0.5l0,0c0-0.3,0.3-0.5,0.6-0.5l0,0c0.3,0,0.5,0.3,0.5,0.5l0,0
			C523.601-6.1,523.4-5.9,523.101-5.9L523.101-5.9L523.101-5.9z M513.601-6.1c-0.3,0-0.5-0.2-0.5-0.5l0,0c0-0.3,0.2-0.5,0.5-0.5l0,0
			c0.3,0,0.5,0.2,0.5,0.5l0,0C514.101-6.4,513.9-6.1,513.601-6.1L513.601-6.1L513.601-6.1z M504-6.3c-0.3,0-0.5-0.2-0.5-0.5l0,0
			c0-0.3,0.2-0.5,0.5-0.5l0,0l0,0l0,0c0.301,0,0.5,0.2,0.5,0.5l0,0C504.601-6.6,504.301-6.3,504-6.3L504-6.3L504-6.3z"/>
	</g>
</g>
</svg>
