<?xml version="1.0" encoding="utf-8"?>
<!-- Generator: Adobe Illustrator 18.1.1, SVG Export Plug-In . SVG Version: 6.00 Build 0)  -->
<!DOCTYPE svg PUBLIC "-//W3C//DTD SVG 1.1//EN" "http://www.w3.org/Graphics/SVG/1.1/DTD/svg11.dtd">
<svg version="1.1" id="Layer_1" xmlns="http://www.w3.org/2000/svg" xmlns:xlink="http://www.w3.org/1999/xlink" x="0px" y="0px"
	 width="400px" height="400px" viewBox="0 0 400 400" enable-background="new 0 0 400 400" xml:space="preserve">
<g>
	<g opacity="0.1">
		<g>
			<path fill="#772953" d="M200,327.4c-70.3,0-127.4-57-127.4-127.4c0-70.3,57-127.3,127.4-127.3c70.3,0,127.3,57,127.3,127.3
				C327.4,270.4,270.3,327.4,200,327.4z"/>
		</g>
		<g>
			<path fill="#772953" d="M400,200c0,110.5-89.5,200-200,200S0,310.5,0,200S89.5,0,200,0S400,89.5,400,200z M200,48.6
				c-83.6,0-151.3,67.8-151.3,151.4S116.5,351.3,200,351.3c83.6,0,151.3-67.7,151.3-151.3C351.4,116.4,283.6,48.6,200,48.6z"/>
		</g>
	</g>
	<g>
		<path fill="#2C001E" d="M272.6,325.8c-0.1-0.2-0.1-0.5,0.2-0.7l0,0c0.2-0.1,0.5-0.1,0.7,0.2l0,0c0.1,0.2,0.1,0.5-0.2,0.7l0,0
			c-0.1,0.1-0.2,0.1-0.3,0.1l0,0C272.8,326,272.7,326,272.6,325.8z M268,318c-0.1-0.2-0.1-0.5,0.2-0.7l0,0c0.2-0.1,0.6-0.1,0.7,0.2
			l0,0c0.1,0.2,0.1,0.5-0.2,0.7l0,0c-0.1,0-0.2,0.1-0.2,0.1l0,0C268.3,318.2,268.1,318.1,268,318z M263.4,310.2
			c-0.1-0.2-0.1-0.5,0.2-0.7l0,0c0.2-0.1,0.5-0.1,0.7,0.2l0,0c0.1,0.2,0.1,0.5-0.2,0.7l0,0c-0.1,0-0.2,0.1-0.3,0.1l0,0
			C263.7,310.4,263.5,310.3,263.4,310.2z M258.9,302.3c-0.1-0.2-0.1-0.5,0.2-0.7l0,0c0.2-0.1,0.5-0.1,0.7,0.2l0,0
			c0.1,0.2,0.1,0.5-0.2,0.7l0,0c-0.1,0-0.2,0.1-0.3,0.1l0,0C259.1,302.6,259,302.5,258.9,302.3z M254.3,294.5
			c-0.1-0.2-0.1-0.5,0.2-0.7l0,0c0.2-0.1,0.5-0.1,0.7,0.2l0,0c0.1,0.2,0.1,0.5-0.2,0.7l0,0c-0.1,0-0.2,0.1-0.2,0.1l0,0
			C254.5,294.8,254.4,294.7,254.3,294.5z M249.7,286.7c-0.1-0.2-0.1-0.5,0.2-0.7l0,0c0.2-0.1,0.5-0.1,0.7,0.2l0,0
			c0.1,0.2,0.1,0.5-0.2,0.7l0,0c-0.1,0.1-0.2,0.1-0.3,0.1l0,0C250,287,249.8,286.9,249.7,286.7z M245.1,278.9
			c-0.1-0.2-0.1-0.6,0.2-0.7l0,0c0.2-0.1,0.5-0.1,0.7,0.2l0,0c0.1,0.2,0.1,0.6-0.2,0.7l0,0c-0.1,0-0.2,0.1-0.2,0.1l0,0
			C245.4,279.2,245.2,279.1,245.1,278.9z M240.5,271.1c-0.1-0.2-0.1-0.5,0.2-0.7l0,0c0.2-0.1,0.6-0.1,0.7,0.2l0,0
			c0.1,0.2,0.1,0.5-0.2,0.7l0,0c-0.1,0-0.2,0.1-0.2,0.1l0,0C240.8,271.3,240.6,271.2,240.5,271.1z M236,263.3
			c-0.1-0.2-0.1-0.6,0.2-0.7l0,0c0.2-0.1,0.5-0.1,0.7,0.2l0,0c0.1,0.2,0.1,0.5-0.2,0.7l0,0c-0.1,0-0.2,0.1-0.3,0.1l0,0
			C236.2,263.5,236.1,263.4,236,263.3z M231.4,255.5c-0.1-0.2-0.1-0.5,0.2-0.7l0,0c0.2-0.1,0.5-0.1,0.7,0.2l0,0
			c0.1,0.2,0.1,0.5-0.2,0.7l0,0c-0.1,0-0.2,0.1-0.3,0.1l0,0C231.7,255.7,231.5,255.6,231.4,255.5z M226.8,247.6
			c-0.1-0.2-0.1-0.5,0.2-0.7l0,0c0.2-0.1,0.5-0.1,0.7,0.2l0,0c0.1,0.2,0.1,0.5-0.2,0.7l0,0c-0.1,0-0.2,0.1-0.2,0.1l0,0
			C227.1,247.9,226.9,247.8,226.8,247.6z M222.2,239.8c-0.1-0.2-0.1-0.5,0.2-0.7l0,0c0.2-0.1,0.5-0.1,0.7,0.2l0,0
			c0.2,0.2,0.1,0.6-0.2,0.7l0,0c-0.1,0-0.2,0.1-0.3,0.1l0,0C222.5,240.1,222.3,240,222.2,239.8z M217.7,232
			c-0.1-0.2-0.1-0.5,0.2-0.7l0,0c0.2-0.1,0.5-0.1,0.7,0.2l0,0c0.1,0.2,0.1,0.5-0.2,0.7l0,0c-0.1,0-0.2,0.1-0.2,0.1l0,0
			C217.9,232.3,217.8,232.2,217.7,232z M213.1,224.2c-0.1-0.2,0-0.6,0.2-0.7l0,0c0.2-0.1,0.5-0.1,0.7,0.2l0,0
			c0.1,0.2,0.1,0.6-0.2,0.7l0,0c-0.1,0-0.2,0.1-0.2,0.1l0,0C213.4,224.5,213.2,224.4,213.1,224.2z M208.5,216.4
			c-0.1-0.2-0.1-0.5,0.2-0.7l0,0c0.2-0.1,0.5-0.1,0.7,0.2l0,0c0.1,0.2,0,0.5-0.2,0.7l0,0c-0.1,0-0.2,0.1-0.3,0.1l0,0
			C208.8,216.6,208.6,216.5,208.5,216.4z M203.9,208.6c-0.1-0.2-0.1-0.5,0.2-0.7l0,0c0.2-0.1,0.5-0.1,0.7,0.2l0,0
			c0.1,0.2,0.1,0.5-0.2,0.7l0,0c-0.1,0-0.2,0.1-0.2,0.1l0,0C204.2,208.8,204,208.7,203.9,208.6z M199.4,200.8
			c-0.1-0.2,0-0.5,0.2-0.7l0,0c0.2-0.1,0.5-0.1,0.7,0.2l0,0c0.1,0.2,0.1,0.5-0.2,0.7l0,0c-0.1,0-0.2,0.1-0.2,0.1l0,0
			C199.6,201,199.5,200.9,199.4,200.8z"/>
	</g>
	<g>
		<path fill="#2C001E" d="M199.5,200.9c-0.2-0.1-0.3-0.4-0.2-0.7l0,0c0.1-0.2,0.5-0.3,0.7-0.2l0,0c0.2,0.1,0.3,0.5,0.2,0.7l0,0
			c-0.1,0.2-0.3,0.2-0.4,0.2l0,0C199.7,201,199.6,201,199.5,200.9z M204.1,193.1c-0.2-0.1-0.3-0.4-0.2-0.7l0,0
			c0.1-0.2,0.4-0.3,0.7-0.2l0,0c0.2,0.1,0.3,0.4,0.2,0.7l0,0c-0.1,0.2-0.3,0.2-0.4,0.2l0,0C204.2,193.1,204.1,193.1,204.1,193.1z
			 M208.6,185.2c-0.2-0.1-0.3-0.4-0.2-0.7l0,0c0.1-0.2,0.5-0.3,0.7-0.2l0,0c0.2,0.1,0.3,0.5,0.2,0.7l0,0c-0.1,0.2-0.3,0.2-0.4,0.2
			l0,0C208.7,185.3,208.6,185.3,208.6,185.2z M213.1,177.4c-0.2-0.1-0.3-0.5-0.2-0.7l0,0c0.1-0.2,0.5-0.3,0.7-0.2l0,0
			c0.2,0.1,0.3,0.4,0.2,0.7l0,0c-0.1,0.2-0.3,0.3-0.4,0.3l0,0C213.2,177.4,213.2,177.4,213.1,177.4z M217.6,169.5
			c-0.2-0.1-0.3-0.5-0.2-0.7l0,0c0.1-0.2,0.4-0.3,0.7-0.2l0,0c0.2,0.1,0.3,0.4,0.2,0.7l0,0c-0.1,0.2-0.3,0.2-0.4,0.2l0,0
			C217.8,169.6,217.7,169.6,217.6,169.5z M222.1,161.7c-0.2-0.1-0.3-0.4-0.2-0.7l0,0c0.1-0.2,0.5-0.3,0.7-0.2l0,0
			c0.2,0.1,0.3,0.5,0.2,0.7l0,0c-0.1,0.2-0.3,0.2-0.4,0.2l0,0C222.3,161.7,222.2,161.7,222.1,161.7z M226.6,153.8
			c-0.2-0.1-0.3-0.4-0.2-0.7l0,0c0.1-0.2,0.5-0.3,0.7-0.2l0,0c0.2,0.1,0.3,0.5,0.2,0.7l0,0c-0.1,0.2-0.3,0.2-0.4,0.2l0,0
			C226.8,153.9,226.7,153.9,226.6,153.8z M231.1,146c-0.2-0.1-0.3-0.4-0.2-0.7l0,0c0.1-0.2,0.4-0.3,0.7-0.2l0,0
			c0.2,0.1,0.3,0.4,0.2,0.7l0,0c-0.1,0.2-0.3,0.2-0.4,0.2l0,0C231.3,146,231.2,146,231.1,146z M235.7,138.1
			c-0.2-0.1-0.3-0.4-0.2-0.7l0,0c0.1-0.2,0.5-0.3,0.7-0.2l0,0c0.2,0.1,0.3,0.4,0.2,0.7l0,0c-0.1,0.2-0.3,0.3-0.4,0.3l0,0
			C235.8,138.2,235.7,138.2,235.7,138.1z M240.2,130.3c-0.2-0.1-0.3-0.5-0.2-0.7l0,0c0.1-0.2,0.5-0.3,0.7-0.2l0,0
			c0.2,0.1,0.3,0.4,0.2,0.7l0,0c-0.1,0.2-0.3,0.2-0.4,0.2l0,0C240.3,130.3,240.2,130.3,240.2,130.3z M244.7,122.4
			c-0.2-0.1-0.3-0.4-0.2-0.7l0,0c0.1-0.2,0.4-0.3,0.7-0.2l0,0c0.2,0.1,0.3,0.4,0.2,0.7l0,0c-0.1,0.2-0.3,0.2-0.4,0.2l0,0
			C244.8,122.5,244.8,122.5,244.7,122.4z M249.2,114.6c-0.2-0.1-0.3-0.4-0.2-0.7l0,0c0.1-0.2,0.5-0.3,0.7-0.2l0,0
			c0.2,0.1,0.3,0.4,0.2,0.7l0,0c-0.1,0.2-0.3,0.2-0.4,0.2l0,0C249.4,114.6,249.3,114.6,249.2,114.6z M253.7,106.7
			c-0.2-0.1-0.3-0.5-0.2-0.7l0,0c0.1-0.2,0.5-0.3,0.7-0.2l0,0c0.2,0.1,0.3,0.4,0.2,0.7l0,0c-0.1,0.2-0.3,0.2-0.4,0.2l0,0
			C253.9,106.8,253.8,106.8,253.7,106.7z M258.2,98.9c-0.2-0.1-0.3-0.5-0.2-0.7l0,0c0.1-0.2,0.4-0.3,0.7-0.2l0,0
			c0.2,0.1,0.3,0.4,0.2,0.7l0,0c-0.1,0.2-0.3,0.3-0.4,0.3l0,0C258.4,98.9,258.3,98.9,258.2,98.9z M262.7,91
			c-0.2-0.1-0.3-0.4-0.2-0.7l0,0c0.1-0.2,0.5-0.3,0.7-0.2l0,0c0.2,0.1,0.3,0.4,0.2,0.7l0,0c-0.1,0.2-0.3,0.2-0.4,0.2l0,0
			C262.9,91.1,262.8,91,262.7,91z M267.2,83.1c-0.2-0.1-0.3-0.4-0.2-0.7l0,0c0.1-0.2,0.5-0.3,0.7-0.2l0,0c0.2,0.1,0.3,0.5,0.2,0.7
			l0,0c-0.1,0.2-0.3,0.2-0.4,0.2l0,0C267.4,83.2,267.3,83.2,267.2,83.1z M271.8,75.3c-0.2-0.1-0.3-0.4-0.2-0.7l0,0
			c0.1-0.2,0.4-0.3,0.7-0.2l0,0c0.2,0.1,0.3,0.5,0.2,0.7l0,0c-0.1,0.2-0.3,0.2-0.4,0.2l0,0C271.9,75.4,271.8,75.3,271.8,75.3z"/>
	</g>
	<g>
		<path fill="#2C001E" d="M199.8,201c-0.3,0-0.5-0.2-0.5-0.5l0,0c0-0.3,0.2-0.5,0.5-0.5l0,0c0.3,0,0.5,0.2,0.5,0.5l0,0
			C200.3,200.8,200.1,201,199.8,201L199.8,201L199.8,201z M190.2,200.5c0-0.3,0.2-0.5,0.5-0.5l0,0c0.3,0,0.5,0.2,0.5,0.5l0,0
			c0,0.3-0.2,0.5-0.5,0.5l0,0C190.5,201,190.2,200.8,190.2,200.5z M181.7,200.9c-0.3,0-0.5-0.2-0.5-0.5l0,0c0-0.3,0.2-0.5,0.5-0.5
			l0,0c0.3,0,0.5,0.2,0.5,0.5l0,0C182.2,200.7,182,200.9,181.7,200.9L181.7,200.9L181.7,200.9z M172.1,200.4c0-0.3,0.2-0.5,0.5-0.5
			l0,0c0.3,0,0.5,0.2,0.5,0.5l0,0c0,0.3-0.2,0.5-0.5,0.5l0,0C172.3,200.9,172.1,200.7,172.1,200.4z M163.6,200.9
			c-0.3,0-0.5-0.2-0.5-0.5l0,0c0-0.3,0.2-0.5,0.5-0.5l0,0c0.3,0,0.5,0.2,0.5,0.5l0,0C164.1,200.7,163.8,200.9,163.6,200.9
			L163.6,200.9C163.6,200.9,163.6,200.9,163.6,200.9z M154,200.3c0-0.3,0.2-0.5,0.5-0.5l0,0c0.3,0,0.5,0.2,0.5,0.5l0,0
			c0,0.3-0.2,0.5-0.5,0.5l0,0C154.2,200.8,154,200.6,154,200.3z M145.5,200.8c-0.3,0-0.5-0.2-0.5-0.5l0,0c0-0.3,0.2-0.5,0.5-0.5l0,0
			c0.3,0,0.5,0.2,0.5,0.5l0,0C146,200.6,145.7,200.8,145.5,200.8L145.5,200.8L145.5,200.8z M136.4,200.8c-0.3,0-0.5-0.2-0.5-0.5l0,0
			c0-0.3,0.2-0.5,0.5-0.5l0,0c0.3,0,0.5,0.2,0.5,0.5l0,0C136.9,200.6,136.7,200.8,136.4,200.8L136.4,200.8L136.4,200.8z
			 M127.3,200.8c-0.3,0-0.5-0.2-0.5-0.5l0,0c0-0.3,0.2-0.5,0.5-0.5l0,0c0.3,0,0.5,0.2,0.5,0.5l0,0
			C127.8,200.5,127.6,200.8,127.3,200.8L127.3,200.8C127.3,200.8,127.3,200.8,127.3,200.8z M118.3,200.7c-0.3,0-0.5-0.2-0.5-0.5l0,0
			c0-0.3,0.2-0.5,0.5-0.5l0,0c0.3,0,0.5,0.2,0.5,0.5l0,0C118.8,200.5,118.6,200.7,118.3,200.7L118.3,200.7L118.3,200.7z
			 M109.2,200.7c-0.3,0-0.5-0.2-0.5-0.5l0,0c0-0.3,0.2-0.5,0.5-0.5l0,0c0.3,0,0.5,0.2,0.5,0.5l0,0
			C109.7,200.5,109.5,200.7,109.2,200.7L109.2,200.7L109.2,200.7z M100.2,200.7c-0.3,0-0.5-0.2-0.5-0.5l0,0c0-0.3,0.2-0.5,0.5-0.5
			l0,0c0.3,0,0.5,0.2,0.5,0.5l0,0C100.7,200.5,100.4,200.7,100.2,200.7L100.2,200.7C100.2,200.7,100.2,200.7,100.2,200.7z
			 M91.1,200.6c-0.3,0-0.5-0.2-0.5-0.5l0,0c0-0.3,0.2-0.5,0.5-0.5l0,0c0.3,0,0.5,0.2,0.5,0.5l0,0C91.6,200.4,91.4,200.6,91.1,200.6
			L91.1,200.6L91.1,200.6z M82.1,200.6c-0.3,0-0.5-0.2-0.5-0.5l0,0c0-0.3,0.2-0.5,0.5-0.5l0,0c0.3,0,0.5,0.2,0.5,0.5l0,0
			C82.6,200.4,82.3,200.6,82.1,200.6L82.1,200.6L82.1,200.6z M72.5,200.1c0-0.3,0.2-0.5,0.5-0.5l0,0c0.3,0,0.5,0.2,0.5,0.5l0,0
			c0,0.3-0.2,0.5-0.5,0.5l0,0C72.7,200.6,72.5,200.4,72.5,200.1z M63.9,200.6c-0.3,0-0.5-0.2-0.5-0.5l0,0c0-0.3,0.2-0.5,0.5-0.5l0,0
			c0.3,0,0.5,0.2,0.5,0.5l0,0C64.4,200.3,64.2,200.6,63.9,200.6L63.9,200.6L63.9,200.6z M54.4,200c0-0.3,0.2-0.5,0.5-0.5l0,0
			c0.3,0,0.5,0.2,0.5,0.5l0,0c0,0.3-0.2,0.5-0.5,0.5l0,0C54.6,200.5,54.4,200.3,54.4,200z"/>
	</g>
	<g>
		<g>
			<path fill="#DD4814" d="M274.5,200.1c0.1,41-33,74.4-74,74.5s-74.4-33-74.5-74s33-74.4,74-74.5S274.4,159.1,274.5,200.1z"/>
		</g>
		<g>
			<path fill="#FFFFFF" d="M149.7,190.6c-5.5,0-9.9,4.5-9.9,9.9c0,5.5,4.5,9.9,9.9,9.9c5.5,0,9.9-4.5,9.9-9.9
				C159.6,195,155.2,190.6,149.7,190.6z M220.6,235.4c-4.7,2.8-6.3,8.8-3.6,13.6c2.8,4.7,8.8,6.3,13.6,3.6c4.7-2.8,6.3-8.8,3.6-13.6
				C231.4,234.3,225.4,232.7,220.6,235.4z M171.3,200.5c0-9.8,4.8-18.5,12.2-23.7l-7.3-12.1c-8.7,5.8-15.1,14.7-17.7,25.1
				c3.1,2.5,5.2,6.4,5.2,10.8c0,4.4-2,8.3-5.1,10.8c2.7,10.4,9.2,19.2,17.9,25l7.2-12.2C176.2,218.9,171.3,210.3,171.3,200.5z
				 M200.1,171.4c15.1-0.1,27.6,11.5,28.9,26.3l14.1-0.3c-0.7-10.9-5.5-20.7-12.9-27.9c-3.8,1.4-8.1,1.2-11.9-0.9
				c-3.8-2.2-6.2-5.8-6.8-9.8c-3.7-1-7.5-1.5-11.5-1.5c-6.9,0-13.3,1.7-19.1,4.5l6.9,12.3C191.6,172.4,195.8,171.4,200.1,171.4z
				 M229.1,197.7l14.1-0.3 M200.3,229.3c-4.4,0-8.5-0.9-12.2-2.7l-6.8,12.4c5.8,2.8,12.2,4.4,19.1,4.4c4,0,7.8-0.6,11.5-1.6
				c0.6-4,3-7.7,6.7-9.9c3.8-2.2,8.1-2.4,11.9-1c7.3-7.2,12-17.1,12.7-28l-14.1-0.2C227.8,217.6,215.5,229.3,200.3,229.3z
				 M220.4,165.1c4.8,2.7,10.8,1.1,13.5-3.7s1.1-10.8-3.7-13.5s-10.8-1.1-13.5,3.7C214,156.4,215.7,162.4,220.4,165.1z"/>
		</g>
	</g>
	<g>
		<circle fill="#5C274F" cx="276.1" cy="330.8" r="35"/>
	</g>
	<g>
		<circle fill="#5C274F" cx="275.5" cy="68.8" r="35"/>
	</g>
	<g>
		<circle fill="#5C274F" cx="48.7" cy="200.9" r="35"/>
	</g>
	<g>
		<path fill="#FFFFFF" d="M48.7,180.7c-12.1,0-13.4,0-13.4,8.1V213c0,8.1,1.3,8.1,13.4,8.1s13.4,0,13.4-8.1v-24.2
			C62.1,180.7,60.8,180.7,48.7,180.7z M45.4,182.1L45.4,182.1h6.4c0.4,0,0.7,0.3,0.7,0.7s-0.3,0.7-0.7,0.7l0,0h-6.3
			c-0.4,0-0.7-0.2-0.7-0.6C44.8,182.4,45,182.1,45.4,182.1z M59.4,210.3c0,5.4,0,5.4-10.8,5.4s-10.8,0-10.8-5.4v-20.2
			c0-5.4,0-5.4,10.8-5.4s10.8,0,10.8,5.4V210.3z"/>
	</g>
	<g>
		<g>
			<path fill="#FFFFFF" d="M291.9,78.6h-32.8c-5.4,0-9.8-4.4-9.8-9.8c0-5.2,4.1-9.5,9.2-9.8c-2.3-4.6-0.6-10.3,3.9-12.9
				s10.3-1.2,13.1,3.1c2.9-4.3,8.6-5.7,13.1-3.1c4.5,2.6,6.2,8.3,3.9,12.9c5.2,0.3,9.2,4.6,9.2,9.8
				C301.8,74.2,297.4,78.6,291.9,78.6z"/>
		</g>
	</g>
	<g>
		<g>
			<polygon fill="#FFFFFF" points="276.1,330.8 276.1,352 257.8,341.4 257.8,320.2 			"/>
		</g>
		<g>
			<polygon fill="#FFFFFF" points="294.5,320.2 294.5,341.4 276.1,352 276.1,330.8 			"/>
		</g>
		<g>
			<polygon fill="#FFFFFF" points="276.1,309.5 294.5,320.2 276.1,330.8 257.8,320.2 			"/>
		</g>
	</g>
	<g>
		<g>
			<rect x="275.3" y="330.8" fill="#5C274F" width="1.6" height="21.2"/>
		</g>
		<g>
			<rect x="293.7" y="320.2" fill="#5C274F" width="1.6" height="21.2"/>
		</g>
		<g>
			<rect x="257" y="320.2" fill="#5C274F" width="1.6" height="21.2"/>
		</g>
		<g>
			
				<rect x="284.5" y="336.1" transform="matrix(0.4994 0.8663 -0.8663 0.4994 443.1732 -73.6247)" fill="#5C274F" width="1.6" height="21.2"/>
		</g>
		<g>
			
				<rect x="266.2" y="304.3" transform="matrix(0.5047 0.8633 -0.8633 0.5047 404.0239 -74.5127)" fill="#5C274F" width="1.6" height="21.2"/>
		</g>
		<g>
			
				<rect x="284.5" y="314.9" transform="matrix(0.4994 0.8663 -0.8663 0.4994 424.8065 -84.2366)" fill="#5C274F" width="1.6" height="21.2"/>
		</g>
		<g>
			
				<rect x="256.4" y="345.9" transform="matrix(0.8653 0.5012 -0.5012 0.8653 209.7223 -87.1064)" fill="#5C274F" width="21.1" height="1.6"/>
		</g>
		<g>
			
				<rect x="256.4" y="324.7" transform="matrix(0.8653 0.5012 -0.5012 0.8653 199.0965 -89.9616)" fill="#5C274F" width="21.1" height="1.6"/>
		</g>
		<g>
			
				<rect x="274.7" y="314.1" transform="matrix(0.8645 0.5027 -0.5027 0.8645 196.9449 -100.7458)" fill="#5C274F" width="21.3" height="1.6"/>
		</g>
	</g>
</g>
</svg>
