<?xml version="1.0" encoding="utf-8"?>
<!-- Generator: Adobe Illustrator 17.0.2, SVG Export Plug-In . SVG Version: 6.00 Build 0)  -->
<!DOCTYPE svg PUBLIC "-//W3C//DTD SVG 1.1//EN" "http://www.w3.org/Graphics/SVG/1.1/DTD/svg11.dtd">
<svg version="1.1" id="Layer_1" xmlns="http://www.w3.org/2000/svg" xmlns:xlink="http://www.w3.org/1999/xlink" x="0px" y="0px"
	 width="288px" height="211px" viewBox="0 0 288 211" enable-background="new 0 0 288 211" xml:space="preserve">
<g id="BK">
</g>
<g id="Comp">
	<g>
		<path fill="#888888" d="M273.869,158.259C282.854,142.736,288,124.72,288,105.5C288,47.232,240.768,0,182.498,0
			C135.013,0,94.859,31.373,81.625,74.522c17.062,3.587,31.887,13.317,42.046,26.763c3.268-5.964,6.187-13.032,8.329-19.983
			l4.979,1.5c-0.239,0.601-0.779,0.72-1.439,0.66c-1.62,4.8-3.539,9.659-5.7,14.22l1.74,0.479c-0.12,0.36-0.42,0.66-1.2,0.72v13.177
			c2.147,4.243,3.883,8.725,5.149,13.401c3.326-4.641,6.143-11.823,7.87-18.957l4.859,1.319c-0.181,0.42-0.6,0.659-1.32,0.659
			c-1.919,7.38-5.219,15.24-8.998,20.04c-0.492-0.416-1.245-0.927-1.976-1.368c1.32,5.404,2.036,11.042,2.036,16.847
			c0,17.898-6.671,34.258-17.639,46.76C137.791,203.484,159.265,211,182.498,211c19.217,0,37.234-5.139,52.749-14.116l-0.01-0.021
			L288,211L273.869,158.259z M157.139,132.06c0,4.32-1.562,5.101-9.961,5.101c-0.24-1.2-0.84-2.94-1.5-4.141
			c1.5,0.061,2.94,0.061,4.08,0.061h2.4c0.779,0,1.02-0.24,1.02-1.021V97.021h-9.659c-1.8,4.38-3.9,8.34-6.181,11.34
			c-0.72-0.721-2.099-1.92-3.06-2.46c4.319-5.58,7.86-15,9.899-24.419l4.98,1.319c-0.12,0.42-0.54,0.66-1.32,0.601
			c-0.779,3.3-1.74,6.659-2.88,9.839h26.52l2.1,0.061c0,1.02-1.44,8.88-2.7,13.2l-3.42-0.661c0.48-2.22,1.08-5.579,1.62-8.819
			h-11.938V132.06z M170.037,128.04c-1.14-5.64-4.619-14.279-8.22-20.699l3.54-1.26c3.779,6.421,7.319,14.88,8.52,20.52
			L170.037,128.04z M199.5,130.92c-1.5-1.92-3.781-4.08-6.421-6.239c-3.06,5.579-7.08,9.659-11.88,12.539
			c-0.54-1.02-1.681-2.46-2.52-3.3c4.5-2.4,8.279-6.3,11.279-11.699c-2.22-1.681-4.561-3.24-6.84-4.62l-0.721,2.64l-3.42-1.8
			c1.5-5.279,3.361-12.899,5.102-20.639h-6v-3.78h6.839c0.96-4.5,1.8-8.819,2.521-12.659l4.92,0.6c-0.061,0.42-0.42,0.66-1.2,0.72
			c-0.659,3.42-1.5,7.32-2.401,11.34H198l0.719-0.18l2.281,0.6l-0.361,0.84c-0.841,10.62-2.76,19.14-5.76,25.799
			c2.939,2.28,5.459,4.5,7.08,6.54L199.5,130.92z M233.697,112.021h-14.459v19.859c0,4.62-1.801,5.34-12.42,5.22
			c-0.241-1.08-0.899-2.819-1.5-4.02c2.88,0.06,5.52,0.12,7.2,0.12c2.039,0,2.64,0,2.64-1.26v-19.92h-14.699v-3.899h14.699V97.922
			l1.98,0.119c3.119-2.64,6.419-6.419,8.879-9.779h-23.099v-3.779h26.158l0.78-0.24l3.18,1.979c-0.18,0.3-0.6,0.48-0.96,0.601
			c-3.12,4.439-8.279,10.139-12.839,13.859v7.439h14.459v3.9H233.697z M251.879,86.282l-0.9,32.878h-3.96l-0.9-32.878H251.879z
			 M248.938,132.72c-2.158,0-3.719-1.859-3.719-3.899c0-2.16,1.68-3.9,3.719-3.9c2.041,0,3.721,1.74,3.721,3.9
			S250.979,132.72,248.938,132.72z"/>
		<path fill="#AEA79F" d="M126.359,105.111v-0.71c-0.072,0.126-0.146,0.244-0.219,0.37
			C126.215,104.883,126.285,104.999,126.359,105.111z"/>
		<path fill="#888888" d="M187.919,97.802c-1.26,5.579-2.641,11.219-3.9,16.139c2.521,1.38,5.101,3.062,7.621,4.74
			c2.399-5.58,4.14-12.54,4.979-20.879H187.919z"/>
	</g>
	<path fill="#DD4814" d="M33.509,202.021L0,211l8.979-33.508l-0.014,0.006C3.264,167.645,0,156.203,0,143.999
		C0,106.996,29.998,77,67,77c37.004,0,67,29.996,67,66.999C134,181.004,104.004,211,67,211c-12.399,0-24.012-3.366-33.975-9.24
		L33.509,202.021z M25.238,161.359h2.68v-25.436c0.519-0.04,0.72-0.24,0.8-0.48l-1.16-0.319c1.44-3.04,2.719-6.279,3.799-9.478
		c0.44,0.04,0.799-0.04,0.96-0.44l-3.319-0.999c-2.28,7.398-5.879,14.997-9.639,19.477c0.519,0.56,1.359,1.6,1.72,2.159
		c1.44-1.8,2.839-3.919,4.159-6.238V161.359z M54.914,141.003c0.84-2.88,1.8-8.119,1.8-8.799l-1.4-0.04H37.637
		c0.76-2.119,1.398-4.359,1.92-6.559c0.519,0.04,0.8-0.12,0.88-0.4l-3.32-0.88c-1.36,6.279-3.719,12.559-6.599,16.277
		c0.639,0.36,1.559,1.16,2.04,1.64c1.519-1.999,2.919-4.639,4.119-7.559h6.438v23.356c0,0.52-0.159,0.68-0.68,0.68h-1.599
		c-0.76,0-1.72,0-2.719-0.04c0.44,0.8,0.839,1.96,0.999,2.76c5.6,0,6.639-0.52,6.639-3.4v-23.356h7.958
		c-0.359,2.16-0.759,4.399-1.079,5.879L54.914,141.003z M36.597,141.003c-1.239,5.119-3.32,10.278-5.759,13.317
		c0.64,0.32,1.6,0.92,2.12,1.36c2.519-3.2,4.719-8.438,5.999-13.358c0.48,0,0.76-0.159,0.88-0.439L36.597,141.003z M56.914,154.4
		c-0.8-3.759-3.16-9.398-5.679-13.678l-2.359,0.84c2.399,4.279,4.719,10.039,5.479,13.798L56.914,154.4z M72.998,132.685h-6.159
		c0.6-2.68,1.16-5.279,1.6-7.558c0.521-0.041,0.76-0.201,0.8-0.481l-3.279-0.399c-0.48,2.56-1.04,5.438-1.681,8.438H59.72v2.52h4
		c-1.16,5.159-2.401,10.238-3.401,13.758l2.281,1.199l0.48-1.76c1.519,0.92,3.079,1.96,4.559,3.08c-2,3.599-4.519,6.198-7.519,7.798
		c0.56,0.561,1.319,1.521,1.679,2.2c3.201-1.92,5.88-4.64,7.92-8.358c1.759,1.439,3.279,2.879,4.278,4.159l1.64-2.2
		c-1.08-1.359-2.759-2.839-4.719-4.358c2-4.439,3.28-10.119,3.839-17.197l0.24-0.561l-1.52-0.399L72.998,132.685z M72.077,135.204
		c-0.559,5.559-1.719,10.198-3.318,13.917c-1.681-1.119-3.4-2.239-5.079-3.159c0.839-3.279,1.759-7.039,2.599-10.758L72.077,135.204
		L72.077,135.204z M87.155,142.083v-4.96c3.039-2.479,6.479-6.278,8.559-9.238c0.24-0.08,0.52-0.199,0.64-0.399l-2.12-1.32
		l-0.52,0.16H76.277v2.519h15.397c-1.64,2.241-3.839,4.76-5.919,6.52l-1.32-0.08v6.799h-9.798v2.6h9.798v13.277
		c0,0.84-0.4,0.84-1.759,0.84c-1.12,0-2.879-0.04-4.798-0.08c0.399,0.8,0.839,1.96,0.999,2.68c7.079,0.08,8.278-0.4,8.278-3.479
		v-13.237h9.639v-2.6h-9.639V142.083z M106.956,158.48c1.36,0,2.48-1.159,2.48-2.6c0-1.439-1.12-2.599-2.48-2.599
		c-1.359,0-2.479,1.159-2.479,2.599C104.477,157.24,105.517,158.48,106.956,158.48z M108.316,149.441l0.6-21.916h-3.84l0.6,21.916
		H108.316z"/>
</g>
<g id="Grid" display="none">
	<g id="Grid_1_" display="inline">
	</g>
</g>
<g id="Labels">
</g>
</svg>
