<?xml version="1.0" encoding="iso-8859-1"?>
<!-- Generator: Adobe Illustrator 17.0.2, SVG Export Plug-In . SVG Version: 6.00 Build 0)  -->
<!DOCTYPE svg PUBLIC "-//W3C//DTD SVG 1.1//EN" "http://www.w3.org/Graphics/SVG/1.1/DTD/svg11.dtd">
<svg version="1.1" xmlns="http://www.w3.org/2000/svg" xmlns:xlink="http://www.w3.org/1999/xlink" x="0px" y="0px" width="400px"
	 height="120px" viewBox="0 0 400 120" style="enable-background:new 0 0 400 120;" xml:space="preserve">
<g id="BK" style="display:none;">
	<rect x="-1600" y="-240" style="display:inline;fill:#333333;" width="5100" height="3600"/>
</g>
<g id="Comp">
	<g>
		<path style="fill-rule:evenodd;clip-rule:evenodd;fill:#0094C3;" d="M134.888,119.659h-31.852l-9.745-23.497H40.205l-8.878,23.497
			H0L47.864,0.956H82.15L134.888,119.659L134.888,119.659z M65.442,29.327L48.038,75.45h36.549L65.442,29.327L65.442,29.327z"/>
		<path style="fill-rule:evenodd;clip-rule:evenodd;fill:#0094C3;" d="M194.807,0.956c24.366,0,38.812,16.362,38.812,34.111
			c0,13.056-6.785,22.804-20.363,29.071c12.184,6.089,15.84,20.709,32.548,55.52h-32.548
			c-12.704-25.412-17.404-48.212-33.416-48.212h-8.53v48.212h-29.589V0.956H194.807L194.807,0.956z M171.31,49.69h15.667
			c8.179,0,16.186-3.481,16.186-13.575c0-8.878-5.744-13.403-16.882-13.403h-14.97V49.69L171.31,49.69z"/>
		<polygon style="fill-rule:evenodd;clip-rule:evenodd;fill:#0094C3;" points="355.965,0.956 381.725,0.956 381.725,119.659 
			352.135,119.659 352.135,45.516 320.109,82.761 315.587,82.761 283.56,45.516 283.56,119.659 253.971,119.659 253.971,0.956 
			279.731,0.956 317.849,44.99 355.965,0.956 		"/>
		<path style="fill-rule:evenodd;clip-rule:evenodd;fill:#0094C3;" d="M394.461,10.516c-2.547,0-4.61-2.066-4.61-4.619
			c0-2.513,2.063-4.581,4.61-4.581c2.539,0,4.561,2.068,4.561,4.581C399.022,8.45,397,10.516,394.461,10.516L394.461,10.516z
			 M394.461,11.493c3.081,0,5.539-2.495,5.539-5.596c0-3.055-2.458-5.556-5.539-5.556c-3.095,0-5.585,2.501-5.585,5.556
			C388.876,8.998,391.366,11.493,394.461,11.493L394.461,11.493z M394.148,6.265c0.354,0.029,0.693,0,0.946,0.264
			c0.296,0.31,0.296,0.83,0.371,1.392c0.044,0.386,0.145,0.801,0.217,1.17h1.295c-0.224-0.592-0.296-1.274-0.386-1.895
			c-0.102-0.71-0.206-1.108-1.097-1.285V5.882c0.87-0.177,1.329-0.763,1.329-1.521c0-1.476-1.242-1.799-2.451-1.799h-2.115v6.529
			h1.012V6.265H394.148L394.148,6.265z M393.268,5.253V3.576h1.239c0.821,0,1.041,0.252,1.041,0.74c0,0.505-0.22,0.908-1.192,0.937
			H393.268L393.268,5.253z"/>
	</g>
</g>
<g id="Grid" style="display:none;">
</g>
</svg>
