<?xml version="1.0" encoding="utf-8"?>
<!-- Generator: Adobe Illustrator 17.0.2, SVG Export Plug-In . SVG Version: 6.00 Build 0)  -->
<!DOCTYPE svg PUBLIC "-//W3C//DTD SVG 1.1//EN" "http://www.w3.org/Graphics/SVG/1.1/DTD/svg11.dtd">
<svg version="1.1" xmlns="http://www.w3.org/2000/svg" xmlns:xlink="http://www.w3.org/1999/xlink" x="0px" y="0px" width="365px"
	 height="91px" viewBox="0 0 365 91" enable-background="new 0 0 365 91" xml:space="preserve">
<g id="BK">
</g>
<g id="Comp">
	<g id="Comp_2_">
		<g>
			<path fill="#12110C" d="M226.068,37.654c-1.921,1.499-4.393,2.249-7.414,2.249c-2.188,0-4.095-0.279-5.724-0.838
				c-1.628-0.558-3.107-1.5-4.436-2.826l3.518-3.513c0.832,0.834,1.816,1.433,2.949,1.797c1.134,0.365,2.391,0.547,3.771,0.547
				c3.283,0,4.924-1.151,4.924-3.452c0-0.968-0.248-1.719-0.745-2.256c-0.496-0.536-1.356-0.895-2.583-1.079l-1.566-0.235
				l-1.801-0.235c-2.375-0.338-4.176-1.106-5.403-2.303c-1.33-1.327-1.995-3.148-1.995-5.465c0-2.524,0.872-4.56,2.619-6.108
				c1.747-1.549,4.104-2.323,7.075-2.323c1.953,0,3.647,0.255,5.08,0.763c1.433,0.508,2.735,1.337,3.908,2.484l-3.44,3.401
				c-0.781-0.756-1.647-1.264-2.598-1.524c-0.95-0.261-1.986-0.391-3.106-0.391c-1.382,0-2.444,0.331-3.186,0.994
				c-0.743,0.662-1.113,1.501-1.113,2.513c0,0.727,0.287,1.383,0.86,1.968c0.573,0.584,1.42,0.954,2.539,1.11l1.681,0.235
				l1.601,0.235c1.251,0.183,2.299,0.444,3.145,0.783c0.846,0.339,1.57,0.795,2.169,1.368c1.432,1.356,2.149,3.325,2.149,5.906
				C228.949,34.089,227.987,36.155,226.068,37.654z"/>
			<path fill="#12110C" d="M249.396,16.651v22.998h-5.444V16.651h-7.267v-4.834h19.979v4.834H249.396z"/>
			<path fill="#12110C" d="M268.118,39.648V11.817h18.339v4.834h-12.895v6.564h10.979v4.834h-10.979v6.767h12.895v4.834
				C286.458,39.648,268.118,39.648,268.118,39.648z"/>
			<path fill="#12110C" d="M314.613,39.648l-1.64-4.936h-9.888l-1.68,4.936h-5.666l10.121-27.831h4.26l10.16,27.831H314.613z
				 M308.127,20.023l-3.518,10.111h6.917L308.127,20.023z"/>
			<path fill="#12110C" d="M349.716,39.648V23.432l-5.298,10.55h-3.663l-5.337-10.55v16.216h-5.444V11.817h5.349l7.263,15.043
				l7.224-15.043h5.349v27.831H349.716z"/>
			<path fill="#12110C" d="M169.898,0c-14.584,0-26.451,11.866-26.451,26.452c0,0.113,0.003,0.228,0.004,0.341l-17.046,24.71
				c-2.757-0.116-5.529,0.363-8.155,1.444c-1.152,0.475-2.238,1.055-3.258,1.723L38.187,22.917
				c-1.292-5.978-5.385-11.253-11.445-13.779c-9.83-4.096-21.16,0.569-25.256,10.4c-4.096,9.829,0.569,21.159,10.399,25.255
				c4.762,1.983,10.011,1.995,14.782,0.03c1.1-0.453,2.137-1.008,3.118-1.639l76.976,31.824c1.328,5.915,5.405,11.121,11.414,13.625
				c9.829,4.096,21.158-0.569,25.254-10.399c1.066-2.555,1.557-5.252,1.484-7.939l24.387-17.4c0.199,0.005,0.399,0.008,0.6,0.008
				c14.586,0,26.452-11.868,26.452-26.453C196.349,11.867,184.484,0,169.898,0z M13.582,40.719
				c-5.716-2.382-9.168-7.935-9.168-13.773c0-1.906,0.368-3.843,1.146-5.71c3.159-7.584,11.9-11.183,19.483-8.023
				c3.57,1.487,6.242,4.218,7.756,7.478l-8.808-3.643c-5.592-2.33-12.015,0.315-14.345,5.908
				c-2.331,5.592,0.315,12.016,5.908,14.345l8.838,3.655C20.872,42.236,17.059,42.168,13.582,40.719z M139.354,76.538
				c-3.161,7.584-11.902,11.183-19.484,8.024c-3.507-1.462-6.147-4.124-7.675-7.303l8.616,3.561
				c5.592,2.331,12.016-0.315,14.345-5.907c2.33-5.592-0.315-12.014-5.907-14.345l-8.901-3.681c3.43-1.294,7.336-1.35,10.982,0.168
				c3.674,1.531,6.532,4.401,8.046,8.079C140.893,68.814,140.886,72.865,139.354,76.538z M169.898,44.077
				c-9.718,0-17.625-7.906-17.625-17.625s7.908-17.626,17.625-17.626c9.719,0,17.625,7.907,17.625,17.626
				S179.617,44.077,169.898,44.077z M169.928,39.662c-7.312,0-13.24-5.927-13.24-13.239s5.928-13.24,13.24-13.24
				c7.314,0,13.24,5.928,13.24,13.24S177.241,39.662,169.928,39.662z"/>
			<g>
				<path fill="#1D1D1B" d="M361.956,10.295c1.695,0,3.044,1.378,3.044,3.099c0,1.749-1.35,3.113-3.057,3.113
					c-1.694,0-3.071-1.363-3.071-3.113c0-1.721,1.378-3.099,3.071-3.099H361.956z M361.943,10.777c-1.363,0-2.479,1.171-2.479,2.616
					c0,1.474,1.116,2.631,2.492,2.631c1.378,0.014,2.479-1.156,2.479-2.616s-1.101-2.631-2.479-2.631
					C361.956,10.777,361.943,10.777,361.943,10.777z M361.365,15.198h-0.551v-3.457c0.289-0.041,0.565-0.082,0.977-0.082
					c0.524,0,0.868,0.11,1.074,0.262c0.207,0.151,0.317,0.385,0.317,0.715c0,0.454-0.302,0.73-0.674,0.839v0.027
					c0.304,0.056,0.509,0.33,0.578,0.84c0.083,0.537,0.166,0.744,0.22,0.853h-0.578c-0.083-0.11-0.165-0.427-0.234-0.881
					c-0.083-0.441-0.304-0.607-0.744-0.607h-0.385L361.365,15.198L361.365,15.198z M361.365,13.283h0.399
					c0.455,0,0.84-0.165,0.84-0.592c0-0.304-0.22-0.606-0.84-0.606c-0.178,0-0.302,0.014-0.399,0.027V13.283z"/>
			</g>
		</g>
	</g>
</g>
<g id="Grid" display="none">
	<g id="Grid_1_" display="inline">
	</g>
</g>
<g id="Labels">
</g>
</svg>
