<?xml version="1.0" encoding="utf-8"?>
<!-- Generator: Adobe Illustrator 17.0.2, SVG Export Plug-In . SVG Version: 6.00 Build 0)  -->
<!DOCTYPE svg PUBLIC "-//W3C//DTD SVG 1.1//EN" "http://www.w3.org/Graphics/SVG/1.1/DTD/svg11.dtd">
<svg version="1.1"
	 inkscape:version="0.48.2 r9819" sodipodi:docname="U1_logo.svg" xmlns:rdf="http://www.w3.org/1999/02/22-rdf-syntax-ns#" xmlns:cc="http://creativecommons.org/ns#" xmlns:dc="http://purl.org/dc/elements/1.1/" xmlns:sodipodi="http://sodipodi.sourceforge.net/DTD/sodipodi-0.dtd" xmlns:svg="http://www.w3.org/2000/svg" xmlns:inkscape="http://www.inkscape.org/namespaces/inkscape"
	 xmlns="http://www.w3.org/2000/svg" xmlns:xlink="http://www.w3.org/1999/xlink" x="0px" y="0px" width="262px" height="107px"
	 viewBox="0 0.521 262 107" enable-background="new 0 0.521 262 107" xml:space="preserve">
<path id="path3871" inkscape:connector-curvature="0" fill="#DD4713" d="M116.058,42.956c-1.19,0.297-2.77,0.613-4.74,0.948
	c-1.933,0.335-4.182,0.502-6.747,0.502c-2.231,0-4.108-0.316-5.632-0.948c-1.524-0.669-2.751-1.599-3.68-2.788
	c-0.929-1.19-1.599-2.584-2.007-4.182c-0.409-1.636-0.613-3.439-0.613-5.409V14.796h5.186v15.167c0,3.532,0.558,6.06,1.673,7.584
	c1.115,1.524,2.993,2.286,5.632,2.286c0.558,0,1.134-0.019,1.729-0.056c0.595-0.037,1.152-0.074,1.673-0.112
	c0.52-0.074,0.985-0.13,1.394-0.167c0.446-0.074,0.762-0.149,0.948-0.223v-24.48h5.186L116.058,42.956"/>
<path id="path3873" inkscape:connector-curvature="0" fill="#DD4713" d="M128.817,16.078c0.632-0.409,1.58-0.836,2.844-1.283
	c1.301-0.446,2.788-0.669,4.461-0.669c2.082,0,3.922,0.372,5.52,1.115c1.636,0.744,3.011,1.784,4.126,3.123
	c1.115,1.338,1.952,2.937,2.509,4.796c0.595,1.859,0.892,3.903,0.892,6.134c0,2.342-0.353,4.461-1.059,6.357
	c-0.669,1.859-1.636,3.439-2.9,4.74c-1.264,1.301-2.788,2.305-4.573,3.011c-1.784,0.706-3.792,1.059-6.022,1.059
	c-2.416,0-4.554-0.167-6.413-0.502c-1.859-0.335-3.383-0.669-4.573-1.004V1.413l5.186-0.892L128.817,16.078 M128.817,39.275
	c0.52,0.149,1.245,0.297,2.175,0.446c0.967,0.112,2.156,0.167,3.569,0.167c2.788,0,5.019-0.911,6.691-2.732
	c1.673-1.859,2.509-4.48,2.509-7.862c0-1.487-0.149-2.881-0.446-4.182c-0.297-1.301-0.781-2.416-1.45-3.346
	c-0.669-0.967-1.543-1.71-2.621-2.23c-1.041-0.558-2.305-0.836-3.792-0.836c-1.413,0-2.714,0.242-3.903,0.725
	c-1.19,0.483-2.1,0.985-2.732,1.506L128.817,39.275"/>
<path id="path3875" inkscape:connector-curvature="0" fill="#DD4713" d="M178.927,42.956c-1.19,0.297-2.77,0.613-4.74,0.948
	c-1.933,0.335-4.182,0.502-6.747,0.502c-2.23,0-4.108-0.316-5.632-0.948c-1.524-0.669-2.751-1.599-3.68-2.788
	c-0.929-1.19-1.599-2.584-2.007-4.182c-0.409-1.636-0.613-3.439-0.613-5.409V14.796h5.186v15.167c0,3.532,0.558,6.06,1.673,7.584
	c1.115,1.524,2.993,2.286,5.632,2.286c0.558,0,1.134-0.019,1.729-0.056c0.595-0.037,1.152-0.074,1.673-0.112
	c0.52-0.074,0.985-0.13,1.394-0.167c0.446-0.074,0.762-0.149,0.948-0.223v-24.48h5.186L178.927,42.956"/>
<path id="path3877" inkscape:connector-curvature="0" fill="#DD4713" d="M187.181,15.632c1.19-0.297,2.77-0.613,4.74-0.948
	c1.97-0.335,4.238-0.502,6.803-0.502c2.305,0,4.219,0.335,5.744,1.004c1.524,0.632,2.732,1.543,3.625,2.732
	c0.929,1.152,1.58,2.547,1.952,4.182c0.372,1.636,0.558,3.439,0.558,5.409v16.283h-5.186V28.625c0-1.784-0.13-3.309-0.39-4.573
	c-0.223-1.264-0.613-2.286-1.171-3.067c-0.558-0.781-1.301-1.338-2.23-1.673c-0.929-0.372-2.082-0.558-3.457-0.558
	c-0.558,0-1.134,0.019-1.729,0.056c-0.595,0.037-1.171,0.093-1.729,0.167c-0.52,0.037-1.004,0.093-1.45,0.167
	c-0.409,0.074-0.706,0.13-0.892,0.167v24.48h-5.186V15.632"/>
<path id="path3879" inkscape:connector-curvature="0" fill="#DD4713" d="M222.011,14.796h10.985v4.349h-10.985v13.383
	c0,1.45,0.112,2.658,0.335,3.625c0.223,0.929,0.558,1.673,1.004,2.23c0.446,0.52,1.004,0.892,1.673,1.115
	c0.669,0.223,1.45,0.335,2.342,0.335c1.561,0,2.807-0.167,3.736-0.502c0.967-0.372,1.636-0.632,2.007-0.781l1.004,4.294
	c-0.52,0.26-1.431,0.576-2.732,0.948c-1.301,0.409-2.788,0.613-4.461,0.613c-1.97,0-3.606-0.242-4.907-0.725
	c-1.264-0.52-2.286-1.283-3.067-2.286c-0.781-1.004-1.338-2.23-1.673-3.68c-0.297-1.487-0.446-3.197-0.446-5.13V6.71l5.186-0.892
	L222.011,14.796"/>
<path id="path3881" inkscape:connector-curvature="0" fill="#DD4713" d="M262,42.956c-1.19,0.297-2.77,0.613-4.74,0.948
	c-1.933,0.335-4.182,0.502-6.747,0.502c-2.23,0-4.108-0.316-5.632-0.948c-1.524-0.669-2.751-1.599-3.68-2.788
	c-0.929-1.19-1.599-2.584-2.007-4.182c-0.409-1.636-0.613-3.439-0.613-5.409V14.796h5.186v15.167c0,3.532,0.558,6.06,1.673,7.584
	c1.115,1.524,2.993,2.286,5.632,2.286c0.558,0,1.134-0.019,1.729-0.056c0.595-0.037,1.152-0.074,1.673-0.112
	c0.52-0.074,0.985-0.13,1.394-0.167c0.446-0.074,0.762-0.149,0.948-0.223v-24.48H262L262,42.956"/>
<path id="path3883" inkscape:connector-curvature="0" fill="#333333" d="M117.886,68.377c0,2.305-0.335,4.387-1.004,6.245
	c-0.669,1.859-1.617,3.457-2.844,4.796c-1.19,1.338-2.621,2.379-4.294,3.123c-1.673,0.706-3.494,1.059-5.465,1.059
	c-1.97,0-3.792-0.353-5.465-1.059c-1.673-0.743-3.123-1.784-4.349-3.123c-1.19-1.338-2.119-2.937-2.788-4.796
	c-0.669-1.859-1.004-3.941-1.004-6.245c0-2.268,0.335-4.331,1.004-6.19c0.669-1.896,1.599-3.513,2.788-4.851
	c1.227-1.338,2.677-2.361,4.349-3.067c1.673-0.743,3.494-1.115,5.465-1.115c1.97,0,3.792,0.372,5.465,1.115
	c1.673,0.706,3.104,1.729,4.294,3.067c1.227,1.338,2.175,2.955,2.844,4.851C117.552,64.046,117.886,66.109,117.886,68.377
	 M112.477,68.377c0-3.271-0.744-5.855-2.23-7.751c-1.45-1.933-3.439-2.9-5.967-2.9c-2.528,0-4.535,0.967-6.022,2.9
	c-1.45,1.896-2.175,4.48-2.175,7.751c0,3.271,0.725,5.874,2.175,7.807c1.487,1.896,3.494,2.844,6.022,2.844
	c2.528,0,4.517-0.948,5.967-2.844C111.734,74.251,112.477,71.648,112.477,68.377"/>
<path id="path3885" inkscape:connector-curvature="0" fill="#333333" d="M123.822,54.715c1.19-0.297,2.77-0.613,4.74-0.948
	c1.97-0.335,4.238-0.502,6.803-0.502c2.305,0,4.219,0.335,5.744,1.004c1.524,0.632,2.732,1.543,3.625,2.732
	c0.929,1.152,1.58,2.547,1.952,4.182c0.372,1.636,0.558,3.439,0.558,5.409v16.283h-5.186V67.708c0-1.784-0.13-3.309-0.39-4.573
	c-0.223-1.264-0.613-2.286-1.171-3.067c-0.558-0.781-1.301-1.338-2.23-1.673c-0.929-0.372-2.082-0.558-3.457-0.558
	c-0.558,0-1.134,0.019-1.729,0.056c-0.595,0.037-1.171,0.093-1.729,0.167c-0.52,0.037-1.004,0.093-1.45,0.167
	c-0.409,0.074-0.706,0.13-0.892,0.167v24.48h-5.186V54.715"/>
<path id="path3887" inkscape:connector-curvature="0" fill="#333333" d="M152.863,68.433c0-2.565,0.372-4.796,1.115-6.691
	c0.743-1.933,1.729-3.532,2.955-4.796c1.227-1.264,2.639-2.212,4.238-2.844c1.599-0.632,3.234-0.948,4.907-0.948
	c3.903,0,6.896,1.227,8.978,3.68c2.082,2.416,3.123,6.115,3.123,11.097c0,0.223,0,0.52,0,0.892c0,0.335-0.019,0.651-0.056,0.948
	h-19.851c0.223,3.011,1.097,5.297,2.621,6.859c1.524,1.561,3.903,2.342,7.138,2.342c1.822,0,3.346-0.149,4.573-0.446
	c1.264-0.335,2.212-0.651,2.844-0.948l0.725,4.349c-0.632,0.335-1.747,0.688-3.346,1.059c-1.561,0.372-3.346,0.558-5.353,0.558
	c-2.528,0-4.721-0.372-6.58-1.115c-1.822-0.781-3.327-1.84-4.517-3.178c-1.19-1.338-2.082-2.918-2.677-4.74
	C153.142,72.652,152.863,70.626,152.863,68.433 M172.771,65.589c0.037-2.342-0.558-4.257-1.784-5.744
	c-1.19-1.524-2.844-2.286-4.963-2.286c-1.19,0-2.249,0.242-3.178,0.725c-0.892,0.446-1.654,1.041-2.286,1.784
	c-0.632,0.744-1.134,1.599-1.506,2.565c-0.335,0.967-0.558,1.952-0.669,2.955H172.771"/>
<path id="path3049" inkscape:connector-curvature="0" sodipodi:nodetypes="ccsccccccccc" fill="#DD4713" d="M0,14.848l0.341,60.861
	c0,0-0.321,25.582,27.455,30.974c15.975,3.101,46.19-4.09,46.19-4.09l-0.241-87.809H49.448v68.323H26.594V37.879H16.73
	l11.548-23.336L0,14.848z"/>
</svg>
