<?xml version="1.0" encoding="UTF-8" standalone="no"?>
<!-- Created with Inkscape (http://www.inkscape.org/) -->

<svg
   xmlns:dc="http://purl.org/dc/elements/1.1/"
   xmlns:cc="http://creativecommons.org/ns#"
   xmlns:rdf="http://www.w3.org/1999/02/22-rdf-syntax-ns#"
   xmlns:svg="http://www.w3.org/2000/svg"
   xmlns="http://www.w3.org/2000/svg"
   xmlns:sodipodi="http://sodipodi.sourceforge.net/DTD/sodipodi-0.dtd"
   xmlns:inkscape="http://www.inkscape.org/namespaces/inkscape"
   width="90"
   height="90"
   id="svg3289"
   version="1.1"
   inkscape:version="0.48.4 r9939"
   sodipodi:docname="messages.svg">
  <defs
     id="defs3291" />
  <sodipodi:namedview
     id="base"
     pagecolor="#ffffff"
     bordercolor="#666666"
     borderopacity="1.0"
     inkscape:pageopacity="0.0"
     inkscape:pageshadow="2"
     inkscape:zoom="5.0931703"
     inkscape:cx="45.30577"
     inkscape:cy="78.045741"
     inkscape:document-units="px"
     inkscape:current-layer="g4451"
     showgrid="true"
     inkscape:window-width="1861"
     inkscape:window-height="1056"
     inkscape:window-x="1425"
     inkscape:window-y="24"
     inkscape:window-maximized="1"
     fit-margin-top="0"
     fit-margin-left="0"
     fit-margin-right="0"
     fit-margin-bottom="0">
    <inkscape:grid
       type="xygrid"
       id="grid3061"
       empspacing="6"
       visible="true"
       enabled="true"
       snapvisiblegridlinesonly="true"
       originx="0px"
       originy="2.5e-05px" />
  </sodipodi:namedview>
  <metadata
     id="metadata3294">
    <rdf:RDF>
      <cc:Work
         rdf:about="">
        <dc:format>image/svg+xml</dc:format>
        <dc:type
           rdf:resource="http://purl.org/dc/dcmitype/StillImage" />
        <dc:title></dc:title>
      </cc:Work>
    </rdf:RDF>
  </metadata>
  <g
     inkscape:label="Layer 1"
     inkscape:groupmode="layer"
     id="layer1"
     transform="translate(0,-962.36223)">
    <g
       style="display:inline"
       transform="translate(-789,604.3622)"
       id="g4451">
      <g
         transform="matrix(1.875,0,0,1.875,249,-1435.1791)"
         id="g4143">
        <rect
           style="opacity:0.21171169;fill:none;stroke:none"
           id="rect4145"
           width="48"
           height="48"
           x="288"
           y="152"
           transform="translate(0,804.3622)" />
      </g>
      <path
         style="fill:#ffffff;fill-opacity:1"
         d="m 819,367.00003 c -27,0 -30,0 -30,18 l 0,24 c 0,18 3,18 30,18 l 30,0 c 27,0 30,0 30,-18 l 0,-24 c 0,-18 -3,-18 -30,-18 l -30,0 z m -12,15 54,0 0,6 -54,0 0,-6 z m 0,12 54,0 0,6 -54,0 0,-6 z m 0,12 30,0 0,6 -30,0 0,-6 z"
         id="path3004"
         inkscape:connector-curvature="0" />
      <path
         style="color:#000000;fill:#ffffff;fill-opacity:1;fill-rule:nonzero;stroke:none;stroke-width:4;marker:none;visibility:visible;display:inline;overflow:visible;enable-background:accumulate"
         d="m 807,425 0,20 20,-20 z"
         id="path3774"
         inkscape:connector-curvature="0"
         sodipodi:nodetypes="cccc" />
    </g>
  </g>
</svg>
