<?xml version="1.0" encoding="utf-8"?>
<!-- Generator: Adobe Illustrator 17.0.2, SVG Export Plug-In . SVG Version: 6.00 Build 0)  -->
<!DOCTYPE svg PUBLIC "-//W3C//DTD SVG 1.1//EN" "http://www.w3.org/Graphics/SVG/1.1/DTD/svg11.dtd">
<svg version="1.1" xmlns="http://www.w3.org/2000/svg" xmlns:xlink="http://www.w3.org/1999/xlink" x="0px" y="0px" width="211px"
	 height="211px" viewBox="0 0 211 211" enable-background="new 0 0 211 211" xml:space="preserve">
<g id="BK">
</g>
<g id="Comp">
	<path fill="#DD4814" d="M105.5,0C47.234,0,0,47.232,0,105.505c0,32.752,14.926,62.018,38.349,81.371V53.574h24.449v12.182h-6.197
		v12.21h24.417v-12.21h-6.012V53.574h24.418v12.182h-6.152v12.21h24.422v-12.21h-6.059V53.574h24.413v12.182h-6.145v12.21h24.417
		v-12.21h-6.061V53.574h24.391v133.301c23.421-19.348,38.35-48.619,38.35-81.371C211.003,47.232,163.767,0,105.5,0z"/>
	<g>
		<path fill="#DD4814" d="M92,184.437c-0.717,0.219-1.619,0.418-2.705,0.598c-1.086,0.179-2.227,0.269-3.423,0.269
			c-1.235,0-2.342-0.19-3.318-0.568c-0.977-0.378-1.808-0.922-2.496-1.629c-0.688-0.707-1.216-1.564-1.584-2.57
			c-0.369-1.006-0.553-2.138-0.553-3.393c0-1.235,0.154-2.356,0.463-3.363c0.309-1.006,0.762-1.868,1.36-2.585
			c0.598-0.717,1.325-1.271,2.182-1.659c0.856-0.389,1.843-0.583,2.959-0.583c0.757,0,1.425,0.089,2.003,0.269
			c0.578,0.18,1.076,0.379,1.495,0.598v-7.503L92,161.719V184.437z M81.627,177.054c0,1.594,0.378,2.845,1.136,3.751
			c0.757,0.907,1.803,1.36,3.139,1.36c0.578,0,1.071-0.025,1.479-0.075c0.408-0.05,0.742-0.104,1.001-0.165v-8.967
			c-0.319-0.219-0.743-0.423-1.271-0.613c-0.528-0.189-1.091-0.284-1.689-0.284c-1.315,0-2.277,0.448-2.884,1.345
			C81.931,174.304,81.627,175.519,81.627,177.054z"/>
		<path fill="#DD4814" d="M101.804,168.893c1.195,0,2.202,0.149,3.019,0.448c0.817,0.299,1.469,0.718,1.958,1.256
			c0.488,0.538,0.837,1.191,1.046,1.958c0.209,0.768,0.314,1.61,0.314,2.526v9.476c-0.558,0.12-1.4,0.265-2.526,0.434
			c-1.126,0.169-2.396,0.254-3.811,0.254c-0.937,0-1.793-0.089-2.571-0.269c-0.777-0.179-1.44-0.468-1.988-0.867
			c-0.548-0.398-0.977-0.917-1.285-1.554c-0.31-0.638-0.463-1.425-0.463-2.361c0-0.897,0.174-1.654,0.523-2.272
			s0.822-1.121,1.42-1.51c0.598-0.388,1.29-0.667,2.078-0.837c0.787-0.169,1.609-0.254,2.466-0.254c0.398,0,0.817,0.025,1.255,0.075
			c0.438,0.05,0.907,0.135,1.405,0.254v-0.598c0-0.418-0.05-0.817-0.149-1.196c-0.1-0.378-0.274-0.712-0.523-1.001
			c-0.25-0.289-0.578-0.513-0.986-0.672c-0.409-0.159-0.922-0.239-1.54-0.239c-0.837,0-1.604,0.06-2.302,0.18
			c-0.698,0.12-1.266,0.259-1.704,0.418l-0.448-2.93c0.458-0.159,1.125-0.318,2.002-0.478
			C99.871,168.973,100.808,168.893,101.804,168.893z M102.103,182.374c1.116,0,1.962-0.06,2.541-0.179v-4.005
			c-0.199-0.06-0.488-0.12-0.867-0.179c-0.379-0.06-0.797-0.09-1.255-0.09c-0.399,0-0.802,0.03-1.21,0.09
			c-0.409,0.06-0.777,0.169-1.106,0.329c-0.329,0.16-0.593,0.384-0.792,0.672c-0.199,0.29-0.299,0.653-0.299,1.091
			c0,0.857,0.269,1.45,0.807,1.778C100.459,182.21,101.186,182.374,102.103,182.374z"/>
		<path fill="#DD4814" d="M124.94,169.282c-1.611,5.938-3.481,11.319-5.609,16.142c-0.399,0.896-0.808,1.664-1.227,2.302
			c-0.419,0.637-0.888,1.166-1.406,1.584c-0.519,0.418-1.098,0.722-1.735,0.912c-0.639,0.189-1.376,0.284-2.214,0.284
			c-0.559,0-1.113-0.06-1.661-0.18c-0.549-0.119-0.962-0.249-1.242-0.388l0.658-2.9c0.721,0.279,1.431,0.419,2.132,0.419
			c0.941,0,1.676-0.225,2.207-0.673c0.53-0.448,0.996-1.141,1.396-2.078c-1.141-2.192-2.237-4.583-3.288-7.174
			c-1.051-2.59-1.986-5.34-2.807-8.25H114c0.2,0.837,0.445,1.744,0.735,2.72c0.29,0.977,0.605,1.968,0.945,2.974
			c0.34,1.006,0.7,2.008,1.08,3.004c0.38,0.997,0.76,1.923,1.141,2.78c0.635-1.773,1.23-3.662,1.786-5.665
			c0.555-2.003,1.061-3.94,1.518-5.814H124.94z"/>
		<path fill="#DD4814" d="M131.606,182.314c0.957,0,1.654-0.114,2.093-0.344c0.438-0.229,0.657-0.623,0.657-1.181
			c0-0.518-0.234-0.946-0.702-1.285c-0.469-0.339-1.241-0.708-2.317-1.106c-0.657-0.239-1.26-0.493-1.808-0.762
			c-0.548-0.269-1.021-0.583-1.42-0.941c-0.399-0.359-0.713-0.792-0.942-1.3s-0.344-1.131-0.344-1.868
			c0-1.435,0.528-2.565,1.584-3.393c1.056-0.827,2.491-1.241,4.304-1.241c0.917,0,1.794,0.085,2.631,0.254
			c0.837,0.17,1.464,0.334,1.883,0.494l-0.657,2.929c-0.399-0.179-0.907-0.344-1.525-0.493s-1.335-0.224-2.152-0.224
			c-0.738,0-1.335,0.125-1.793,0.374c-0.459,0.25-0.688,0.633-0.688,1.151c0,0.259,0.044,0.488,0.134,0.688s0.244,0.384,0.463,0.553
			c0.219,0.17,0.508,0.339,0.867,0.508c0.359,0.169,0.797,0.344,1.315,0.523c0.856,0.319,1.584,0.633,2.182,0.942
			c0.598,0.309,1.091,0.658,1.479,1.046c0.389,0.389,0.673,0.833,0.852,1.331s0.269,1.096,0.269,1.793
			c0,1.495-0.553,2.625-1.659,3.393s-2.686,1.151-4.738,1.151c-1.375,0-2.481-0.115-3.318-0.344s-1.425-0.414-1.764-0.553
			l0.628-3.019c0.538,0.22,1.181,0.429,1.928,0.628C129.798,182.215,130.649,182.314,131.606,182.314z"/>
	</g>
	<path fill="#DD4814" d="M134.731,155.234H79.786c-9.104,0-16.486-7.381-16.486-16.484c0-8.764,6.834-15.925,15.462-16.454
		c-3.855-7.734-1.069-17.236,6.518-21.62c7.588-4.379,17.207-2.04,21.979,5.168c4.772-7.206,14.389-9.547,21.98-5.164
		c7.586,4.381,10.37,13.881,6.514,21.617c8.631,0.527,15.464,7.689,15.464,16.453C151.217,147.852,143.834,155.234,134.731,155.234z
		 M111.258,139.936c-0.235,0.571-0.608,1.077-1.121,1.517c-0.513,0.439-1.18,0.784-2,1.033c-0.821,0.25-1.802,0.374-2.945,0.374
		c-1.67,0-3.084-0.168-4.242-0.506c-1.158-0.336-2.044-0.652-2.66-0.945l-1.011,4.483c0.292,0.147,0.732,0.308,1.318,0.484
		c0.586,0.176,1.253,0.345,2,0.505c0.747,0.161,1.531,0.3,2.352,0.417c0.82,0.117,1.626,0.176,2.417,0.176
		c1.963,0,3.678-0.242,5.144-0.725c1.465-0.483,2.681-1.15,3.648-2c0.967-0.85,1.685-1.861,2.154-3.033
		c0.468-1.172,0.703-2.447,0.703-3.824c0-3.018-1.033-5.399-3.099-7.144c-2.066-1.743-5.269-2.732-9.605-2.967
		c0.058-0.41,0.117-0.908,0.176-1.494c0.058-0.586,0.11-1.202,0.154-1.847c0.044-0.644,0.088-1.281,0.132-1.912
		c0.044-0.63,0.081-1.194,0.11-1.692h11.034v-4.483h-15.562c-0.117,2.549-0.264,5.092-0.439,7.626
		c-0.176,2.535-0.425,5.209-0.747,8.022c2.432,0,4.446,0.132,6.044,0.396c1.597,0.264,2.872,0.66,3.825,1.187
		c0.952,0.527,1.619,1.172,2,1.934c0.38,0.763,0.571,1.626,0.571,2.594C111.609,138.757,111.492,139.364,111.258,139.936z"/>
</g>
<g id="Grid" display="none">
</g>
</svg>
