<?xml version="1.0" encoding="utf-8"?>
<!-- Generator: Adobe Illustrator 17.0.2, SVG Export Plug-In . SVG Version: 6.00 Build 0)  -->
<!DOCTYPE svg PUBLIC "-//W3C//DTD SVG 1.1//EN" "http://www.w3.org/Graphics/SVG/1.1/DTD/svg11.dtd">
<svg version="1.1" xmlns="http://www.w3.org/2000/svg" xmlns:xlink="http://www.w3.org/1999/xlink" x="0px" y="0px" width="288px"
	 height="186px" viewBox="0 0 288 186" enable-background="new 0 0 288 186" xml:space="preserve">
<g id="BK">
</g>
<g id="Comp">
	<path fill="#DD4814" d="M233.994,185.977H54.007C24.181,185.977,0,161.802,0,131.982c0-28.71,22.392-52.165,50.656-53.897
		c-12.634-25.34-3.51-56.467,21.346-70.822c24.856-14.346,56.369-6.688,72,16.93c15.634-23.61,47.139-31.273,72.002-16.922
		c24.854,14.353,33.975,45.475,21.337,70.816C265.617,79.82,288,103.28,288,131.986C288,161.802,263.816,185.977,233.994,185.977z"
		/>
	<g>
		<g>
			<path fill="#FFFFFF" d="M193.009,74.525l-19.904,19.906c-2.756,2.749-7.766,7.765-17.689-2.155
				c-9.925-9.92-4.9-14.941-2.159-17.689L173.17,54.68c-12.59-4.922-27.428-2.336-37.6,7.827c-13.697,13.703-13.697,35.911,0,49.613
				c13.703,13.703,35.908,13.703,49.614,0C195.348,101.953,197.934,87.11,193.009,74.525z M120.656,103.998l-32.67,32.666
				c-6.354,6.362-6.354,16.678,0,23.034c6.368,6.362,16.684,6.362,23.041,0l32.663-32.662c-5.006-2.105-9.704-5.173-13.785-9.244
				C125.825,113.705,122.757,109.007,120.656,103.998z M105.273,153.938c-3.184,3.185-8.344,3.185-11.523,0
				c-3.182-3.182-3.182-8.335,0-11.524c1.591-1.578,3.675-2.376,5.761-2.376s4.166,0.787,5.762,2.376
				C108.447,145.603,108.447,150.756,105.273,153.938z"/>
		</g>
	</g>
</g>
<g id="Grid" display="none">
</g>
</svg>
