<?xml version="1.0" encoding="utf-8"?>
<!-- Generator: Adobe Illustrator 17.0.2, SVG Export Plug-In . SVG Version: 6.00 Build 0)  -->
<!DOCTYPE svg PUBLIC "-//W3C//DTD SVG 1.1//EN" "http://www.w3.org/Graphics/SVG/1.1/DTD/svg11.dtd">
<svg version="1.1" xmlns="http://www.w3.org/2000/svg" xmlns:xlink="http://www.w3.org/1999/xlink" x="0px" y="0px" width="24px"
	 height="24px" viewBox="0 0 24 24" enable-background="new 0 0 24 24" xml:space="preserve">
<g id="BK">
</g>
<g id="Comp">
	<rect y="0" fill="#FFFFFF" width="24" height="24"/>
	<rect y="0" fill="none" width="24" height="24.001"/>
	<rect y="0.001" opacity="0.03" width="24" height="24"/>
	<rect y="0.001" opacity="0.07" width="1" height="1"/>
	<rect x="2" y="2.001" opacity="0.07" width="1" height="1"/>
	<rect x="4" y="4.001" opacity="0.07" width="1" height="1"/>
	<rect x="6" y="6.001" opacity="0.07" width="1" height="1"/>
	<rect x="8" y="8.001" opacity="0.07" width="1" height="1"/>
	<rect x="10" y="10.001" opacity="0.07" width="1" height="1"/>
	<rect x="23" y="0.001" opacity="0.07" width="1" height="1"/>
	<rect x="21" y="2.001" opacity="0.07" width="1" height="1"/>
	<rect x="19" y="4.001" opacity="0.07" width="1" height="1"/>
	<rect x="17" y="6.001" opacity="0.07" width="1" height="1"/>
	<rect x="15" y="8.001" opacity="0.07" width="1" height="1"/>
	<rect x="13" y="10.001" opacity="0.07" width="1" height="1"/>
	<rect y="23.001" opacity="0.07" width="1" height="1"/>
	<rect x="2" y="21.001" opacity="0.07" width="1" height="1"/>
	<rect x="4" y="19.001" opacity="0.07" width="1" height="1"/>
	<rect x="6" y="17.001" opacity="0.07" width="1" height="1"/>
	<rect x="8" y="15.001" opacity="0.07" width="1" height="1"/>
	<rect x="10" y="13.001" opacity="0.07" width="1" height="1"/>
	<rect x="23" y="23.001" opacity="0.07" width="1" height="1"/>
	<rect x="21" y="21.001" opacity="0.07" width="1" height="1"/>
	<rect x="19" y="19.001" opacity="0.07" width="1" height="1"/>
	<rect x="17" y="17.001" opacity="0.07" width="1" height="1"/>
	<rect x="15" y="15.001" opacity="0.07" width="1" height="1"/>
	<rect x="13" y="13.001" opacity="0.07" width="1" height="1"/>
</g>
<g id="Grid" display="none">
</g>
<g id="Labels">
</g>
</svg>
