<?xml version="1.0" encoding="iso-8859-1"?>
<!-- Generator: Adobe Illustrator 17.0.2, SVG Export Plug-In . SVG Version: 6.00 Build 0)  -->
<!DOCTYPE svg PUBLIC "-//W3C//DTD SVG 1.1//EN" "http://www.w3.org/Graphics/SVG/1.1/DTD/svg11.dtd">
<svg version="1.1" xmlns="http://www.w3.org/2000/svg" xmlns:xlink="http://www.w3.org/1999/xlink" x="0px" y="0px" width="459px"
	 height="398px" viewBox="0 0 459 398" style="enable-background:new 0 0 459 398;" xml:space="preserve">
<g id="BK">
	<g>
		<defs>
			<rect id="SVGID_23_" x="-221" y="-2175" width="1440" height="1600"/>
		</defs>
		<clipPath id="SVGID_2_">
			<use xlink:href="#SVGID_23_"  style="overflow:visible;"/>
		</clipPath>
		<g style="clip-path:url(#SVGID_2_);">
		</g>
	</g>
</g>
<g id="Comp">
	<path style="fill:#DD4814;" d="M293,175c0,44.179-35.816,80-80,80s-80-35.821-80-80c0-44.183,35.819-80,80-80
		C257.184,95,293,130.817,293,175z"/>
	<path style="fill:#FFFFFF;" d="M158.602,164.314c-5.901,0-10.681,4.785-10.681,10.686c0,5.898,4.78,10.679,10.681,10.679
		c5.898,0,10.68-4.781,10.68-10.679C169.282,169.098,164.5,164.314,158.602,164.314z"/>
	<path style="fill:#FFFFFF;" d="M234.862,212.86c-5.106,2.951-6.859,9.48-3.906,14.586c2.947,5.107,9.474,6.863,14.583,3.912
		c5.108-2.951,6.86-9.482,3.911-14.592C246.5,211.665,239.969,209.915,234.862,212.86z"/>
	<path style="fill:#FFFFFF;" d="M181.803,175c0-10.554,5.242-19.878,13.266-25.527l-7.809-13.082
		c-9.346,6.248-16.299,15.796-19.188,26.969c3.372,2.756,5.53,6.944,5.53,11.64c0,4.688-2.158,8.877-5.53,11.634
		c2.888,11.179,9.841,20.724,19.188,26.974l7.809-13.086C187.045,194.878,181.803,185.559,181.803,175z"/>
	<path style="fill:#FFFFFF;" d="M213,143.798c16.3,0,29.67,12.496,31.075,28.434l15.221-0.223
		c-0.75-11.768-5.89-22.329-13.788-30.094c-4.062,1.53-8.752,1.3-12.806-1.041c-4.062-2.344-6.609-6.296-7.305-10.59
		c-3.948-1.087-8.101-1.679-12.397-1.679c-7.382,0-14.366,1.731-20.563,4.799l7.421,13.299
		C203.853,144.844,208.305,143.798,213,143.798z"/>
	<path style="fill:#FFFFFF;" d="M213,206.196c-4.695,0-9.147-1.044-13.14-2.9l-7.423,13.297c6.199,3.072,13.181,4.81,20.563,4.81
		c4.296,0,8.452-0.599,12.396-1.693c0.696-4.289,3.244-8.241,7.305-10.588c4.058-2.34,8.745-2.574,12.806-1.042
		c7.898-7.766,13.037-18.327,13.788-30.094l-15.228-0.221C242.67,193.704,229.3,206.196,213,206.196z"/>
	<path style="fill:#FFFFFF;" d="M234.859,137.134c5.109,2.945,11.639,1.201,14.586-3.906c2.953-5.11,1.204-11.636-3.906-14.587
		c-5.109-2.952-11.636-1.202-14.589,3.907C228.003,127.656,229.755,134.184,234.859,137.134z"/>
	<path style="fill:#D53023;" d="M459,173c0,22.089-17.908,40-40,40c-22.092,0-40-17.911-40-40c0-22.092,17.909-40,40-40
		C441.092,133,459,150.908,459,173z"/>
	
		<path id="rect1227_3_" style="fill:#FFFFFF;" d="
		M400.991,152.221c-1.535,0-2.771,1.236-2.771,2.77v9.697h8.312v-2.77c0-0.767,0.617-1.385,1.385-1.385h22.164
		c0.766,0,1.385,0.618,1.385,1.385v2.77h8.311v-9.697c0-1.535-1.236-2.77-2.77-2.77H400.991z M398.221,167.459v11.083h8.312v-11.083
		H398.221z M431.468,167.459v11.083h8.311v-11.083H431.468z M398.221,181.312v9.697c0,1.534,1.236,2.77,2.771,2.77h36.018
		c1.534,0,2.77-1.236,2.77-2.77v-9.697h-8.311v2.77c0,0.768-0.619,1.386-1.385,1.386h-22.164c-0.768,0-1.385-0.618-1.385-1.386
		v-2.77H398.221z"/>
	<path style="fill:#DD4814;" d="M212,307c0-0.55,0.45-1,1-1l0,0c0.55,0,1,0.45,1,1l0,0c0,0.551-0.45,1-1,1l0,0
		C212.45,308,212,307.551,212,307z M212,303c0-0.55,0.45-1,1-1l0,0c0.55,0,1,0.45,1,1l0,0c0,0.551-0.45,1-1,1l0,0
		C212.45,304,212,303.551,212,303z M212,299c0-0.55,0.45-1,1-1l0,0c0.55,0,1,0.45,1,1l0,0c0,0.551-0.45,1-1,1l0,0
		C212.45,300,212,299.551,212,299z M212,295c0-0.55,0.45-1,1-1l0,0c0.55,0,1,0.45,1,1l0,0c0,0.551-0.45,1-1,1l0,0
		C212.45,296,212,295.551,212,295z M212,291c0-0.55,0.45-1,1-1l0,0c0.55,0,1,0.45,1,1l0,0c0,0.551-0.45,1-1,1l0,0
		C212.45,292,212,291.551,212,291z M212,287c0-0.55,0.45-1,1-1l0,0c0.55,0,1,0.45,1,1l0,0c0,0.551-0.45,1-1,1l0,0
		C212.45,288,212,287.551,212,287z M212,283c0-0.55,0.45-1,1-1l0,0c0.55,0,1,0.45,1,1l0,0c0,0.551-0.45,1-1,1l0,0
		C212.45,284,212,283.551,212,283z M212,279c0-0.55,0.45-1,1-1l0,0c0.55,0,1,0.45,1,1l0,0c0,0.551-0.45,1-1,1l0,0
		C212.45,280,212,279.551,212,279z M212,275c0-0.55,0.45-1,1-1l0,0c0.55,0,1,0.45,1,1l0,0c0,0.551-0.45,1-1,1l0,0
		C212.45,276,212,275.551,212,275z M212,271c0-0.55,0.45-1,1-1l0,0c0.55,0,1,0.45,1,1l0,0c0,0.551-0.45,1-1,1l0,0
		C212.45,272,212,271.551,212,271z M212,267c0-0.55,0.45-1,1-1l0,0c0.55,0,1,0.45,1,1l0,0c0,0.551-0.45,1-1,1l0,0
		C212.45,268,212,267.551,212,267z"/>
	<path style="fill:#DD4814;" d="M121.779,266.221c-0.39-0.4-0.39-1.03,0-1.42l0,0c0.391-0.391,1.03-0.391,1.421,0l0,0
		c0.38,0.39,0.38,1.02,0,1.42l0,0c-0.2,0.189-0.46,0.29-0.71,0.29l0,0C122.229,266.511,121.979,266.41,121.779,266.221z
		 M124.609,263.391c-0.39-0.391-0.39-1.03,0-1.42l0,0c0.391-0.391,1.021-0.391,1.41,0l0,0c0.4,0.39,0.4,1.029,0,1.42l0,0
		c-0.189,0.189-0.45,0.29-0.7,0.29l0,0C125.06,263.681,124.81,263.58,124.609,263.391z M127.439,260.561
		c-0.39-0.39-0.39-1.021,0-1.42l0,0c0.391-0.391,1.021-0.391,1.41,0l0,0c0.391,0.399,0.391,1.03,0,1.42l0,0
		c-0.189,0.189-0.45,0.29-0.7,0.29l0,0C127.89,260.851,127.64,260.75,127.439,260.561z M130.27,257.731
		c-0.39-0.39-0.39-1.021,0-1.41l0,0c0.391-0.39,1.021-0.39,1.41,0l0,0c0.39,0.39,0.39,1.021,0,1.41l0,0
		c-0.189,0.2-0.45,0.29-0.7,0.29l0,0C130.72,258.021,130.46,257.931,130.27,257.731z M133.1,254.901c-0.39-0.39-0.39-1.02,0-1.41
		l0,0c0.391-0.39,1.021-0.39,1.41,0l0,0c0.39,0.391,0.39,1.021,0,1.41l0,0c-0.2,0.2-0.45,0.3-0.71,0.3l0,0
		C133.55,255.2,133.29,255.101,133.1,254.901z M135.92,252.071c-0.391-0.39-0.391-1.02,0-1.41l0,0c0.39-0.39,1.03-0.39,1.42,0l0,0
		c0.39,0.391,0.39,1.021,0,1.41l0,0c-0.2,0.2-0.45,0.3-0.71,0.3l0,0C136.38,252.37,136.12,252.271,135.92,252.071z M138.75,249.25
		c-0.391-0.399-0.391-1.029,0-1.42l0,0c0.39-0.39,1.029-0.39,1.42,0l0,0c0.39,0.391,0.39,1.021,0,1.42l0,0
		c-0.2,0.19-0.45,0.29-0.71,0.29l0,0C139.2,249.54,138.95,249.441,138.75,249.25z M141.58,246.421c-0.391-0.391-0.391-1.03,0-1.421
		l0,0c0.39-0.39,1.029-0.39,1.42,0l0,0c0.39,0.391,0.39,1.03,0,1.421l0,0c-0.2,0.189-0.46,0.289-0.71,0.289l0,0
		C142.029,246.71,141.779,246.611,141.58,246.421z M144.41,243.591c-0.391-0.391-0.391-1.021,0-1.41l0,0c0.39-0.4,1.02-0.4,1.409,0
		l0,0c0.391,0.39,0.391,1.02,0,1.41l0,0c-0.189,0.189-0.449,0.29-0.699,0.29l0,0C144.859,243.881,144.609,243.781,144.41,243.591z
		 M147.24,240.761c-0.391-0.391-0.391-1.021,0-1.41l0,0c0.39-0.391,1.02-0.391,1.409,0l0,0c0.391,0.39,0.391,1.02,0,1.41l0,0
		c-0.189,0.199-0.449,0.29-0.71,0.29l0,0C147.689,241.051,147.43,240.96,147.24,240.761z"/>
	<path style="fill:#DD4814;" d="M12.21,223.79c-0.391-0.39-0.391-1.02,0-1.42l0,0c0.39-0.39,1.02-0.39,1.41,0l0,0
		c0.39,0.4,0.39,1.03,0,1.42l0,0c-0.19,0.19-0.45,0.29-0.71,0.29l0,0C12.66,224.08,12.399,223.981,12.21,223.79z M15.04,220.96
		c-0.391-0.39-0.391-1.029,0-1.409l0,0c0.39-0.391,1.02-0.391,1.41,0l0,0c0.39,0.38,0.39,1.02,0,1.409l0,0
		c-0.19,0.2-0.45,0.29-0.71,0.29l0,0C15.49,221.25,15.229,221.16,15.04,220.96z M17.859,218.131c-0.38-0.391-0.38-1.021,0-1.41l0,0
		c0.4-0.391,1.03-0.391,1.42,0l0,0c0.391,0.39,0.391,1.02,0,1.41l0,0c-0.199,0.199-0.449,0.3-0.71,0.3l0,0
		C18.319,218.431,18.06,218.33,17.859,218.131z M20.689,215.301c-0.39-0.391-0.39-1.021,0-1.41l0,0c0.391-0.391,1.03-0.391,1.42,0
		l0,0c0.391,0.39,0.391,1.02,0,1.41l0,0c-0.199,0.199-0.449,0.3-0.71,0.3l0,0C21.149,215.601,20.89,215.5,20.689,215.301z
		 M23.52,212.481c-0.39-0.4-0.39-1.03,0-1.42l0,0c0.391-0.39,1.03-0.39,1.42,0l0,0c0.38,0.39,0.38,1.02,0,1.42l0,0
		c-0.199,0.19-0.46,0.29-0.71,0.29l0,0C23.97,212.771,23.72,212.671,23.52,212.481z M26.35,209.651c-0.39-0.39-0.39-1.03,0-1.42l0,0
		c0.391-0.39,1.021-0.39,1.42,0l0,0c0.391,0.39,0.391,1.03,0,1.42l0,0c-0.2,0.19-0.46,0.29-0.71,0.29l0,0
		C26.8,209.941,26.55,209.841,26.35,209.651z M29.18,206.821c-0.39-0.39-0.39-1.02,0-1.42l0,0c0.39-0.39,1.021-0.39,1.41,0l0,0
		c0.39,0.4,0.39,1.03,0,1.42l0,0c-0.19,0.19-0.45,0.29-0.7,0.29l0,0C29.63,207.111,29.37,207.011,29.18,206.821z M32.01,203.991
		c-0.39-0.39-0.39-1.02,0-1.42l0,0c0.39-0.38,1.02-0.38,1.41,0l0,0c0.39,0.4,0.39,1.03,0,1.42l0,0c-0.19,0.19-0.45,0.29-0.71,0.29
		l0,0C32.46,204.281,32.2,204.181,32.01,203.991z M34.83,201.16c-0.391-0.39-0.391-1.02,0-1.41l0,0c0.399-0.39,1.029-0.39,1.42,0
		l0,0c0.39,0.391,0.39,1.021,0,1.41l0,0c-0.19,0.2-0.45,0.29-0.71,0.29l0,0C35.29,201.45,35.029,201.361,34.83,201.16z
		 M37.67,198.33c-0.4-0.39-0.4-1.02,0-1.409l0,0c0.39-0.391,1.02-0.391,1.41,0l0,0c0.39,0.39,0.39,1.02,0,1.409l0,0
		c-0.2,0.2-0.45,0.301-0.71,0.301l0,0C38.12,198.631,37.859,198.531,37.67,198.33z M40.49,195.511c-0.391-0.4-0.391-1.03,0-1.42l0,0
		c0.39-0.391,1.029-0.391,1.42,0l0,0c0.39,0.39,0.39,1.02,0,1.42l0,0c-0.2,0.189-0.45,0.29-0.71,0.29l0,0
		C40.939,195.801,40.689,195.7,40.49,195.511z M43.319,192.681c-0.39-0.391-0.39-1.03,0-1.42l0,0c0.391-0.391,1.021-0.391,1.421,0
		l0,0c0.39,0.39,0.39,1.029,0,1.42l0,0c-0.2,0.189-0.461,0.29-0.711,0.29l0,0C43.77,192.971,43.52,192.87,43.319,192.681z
		 M46.149,189.851c-0.39-0.391-0.39-1.03,0-1.42l0,0c0.391-0.391,1.03-0.391,1.41,0l0,0c0.391,0.39,0.391,1.029,0,1.42l0,0
		c-0.189,0.189-0.45,0.29-0.7,0.29l0,0C46.6,190.141,46.34,190.04,46.149,189.851z M48.979,187.021c-0.39-0.39-0.39-1.021,0-1.42
		l0,0c0.391-0.38,1.021-0.38,1.41,0l0,0c0.39,0.399,0.39,1.03,0,1.42l0,0c-0.189,0.2-0.45,0.29-0.7,0.29l0,0
		C49.43,187.311,49.17,187.221,48.979,187.021z M51.81,184.191c-0.39-0.39-0.39-1.02,0-1.41l0,0c0.391-0.39,1.021-0.39,1.41,0l0,0
		c0.39,0.391,0.39,1.021,0,1.41l0,0c-0.19,0.2-0.45,0.29-0.71,0.29l0,0C52.26,184.481,52,184.391,51.81,184.191z M54.64,181.361
		c-0.39-0.39-0.39-1.02,0-1.41l0,0c0.38-0.39,1.021-0.39,1.41,0l0,0c0.39,0.391,0.39,1.021,0,1.41l0,0c-0.19,0.2-0.45,0.3-0.71,0.3
		l0,0C55.09,181.66,54.83,181.561,54.64,181.361z M57.46,178.54c-0.391-0.399-0.391-1.029,0-1.42l0,0c0.39-0.39,1.03-0.39,1.42,0
		l0,0c0.39,0.391,0.39,1.021,0,1.42l0,0c-0.2,0.19-0.45,0.29-0.71,0.29l0,0C57.91,178.83,57.66,178.731,57.46,178.54z M120,175
		c0-0.55,0.45-1,1-1l0,0c0.55,0,1,0.45,1,1l0,0c0,0.551-0.45,1-1,1l0,0C120.45,176,120,175.551,120,175z M116,175c0-0.55,0.45-1,1-1
		l0,0c0.55,0,1,0.45,1,1l0,0c0,0.551-0.45,1-1,1l0,0C116.45,176,116,175.551,116,175z M112,175c0-0.55,0.45-1,1-1l0,0
		c0.55,0,1,0.45,1,1l0,0c0,0.551-0.45,1-1,1l0,0C112.45,176,112,175.551,112,175z M108,175c0-0.55,0.45-1,1-1l0,0c0.55,0,1,0.45,1,1
		l0,0c0,0.551-0.45,1-1,1l0,0C108.45,176,108,175.551,108,175z M104,175c0-0.55,0.45-1,1-1l0,0c0.55,0,1,0.45,1,1l0,0
		c0,0.551-0.45,1-1,1l0,0C104.45,176,104,175.551,104,175z M100,175c0-0.55,0.45-1,1-1l0,0c0.55,0,1,0.45,1,1l0,0
		c0,0.551-0.45,1-1,1l0,0C100.45,176,100,175.551,100,175z M96,175c0-0.55,0.45-1,1-1l0,0c0.55,0,1,0.45,1,1l0,0c0,0.551-0.45,1-1,1
		l0,0C96.45,176,96,175.551,96,175z M92,175c0-0.55,0.45-1,1-1l0,0c0.55,0,1,0.45,1,1l0,0c0,0.551-0.45,1-1,1l0,0
		C92.45,176,92,175.551,92,175z M88,175c0-0.55,0.45-1,1-1l0,0c0.55,0,1,0.45,1,1l0,0c0,0.551-0.45,1-1,1l0,0
		C88.45,176,88,175.551,88,175z M84,175c0-0.55,0.45-1,1-1l0,0c0.55,0,1,0.45,1,1l0,0c0,0.551-0.45,1-1,1l0,0
		C84.45,176,84,175.551,84,175z M80,175c0-0.55,0.45-1,1-1l0,0c0.55,0,1,0.45,1,1l0,0c0,0.551-0.45,1-1,1l0,0
		C80.45,176,80,175.551,80,175z M76,175c0-0.55,0.45-1,1-1l0,0c0.55,0,1,0.45,1,1l0,0c0,0.551-0.45,1-1,1l0,0
		C76.45,176,76,175.551,76,175z M72,175c0-0.55,0.45-1,1-1l0,0c0.55,0,1,0.45,1,1l0,0c0,0.551-0.45,1-1,1l0,0
		C72.45,176,72,175.551,72,175z M68,175c0-0.55,0.45-1,1-1l0,0c0.55,0,1,0.45,1,1l0,0c0,0.551-0.45,1-1,1l0,0
		C68.45,176,68,175.551,68,175z M64,175c0-0.55,0.45-1,1-1l0,0c0.55,0,1,0.45,1,1l0,0c0,0.551-0.45,1-1,1l0,0
		C64.45,176,64,175.551,64,175z M60,175c0-0.55,0.45-1,1-1l0,0c0.55,0,1,0.45,1,1l0,0c0,0.551-0.45,1-1,1l0,0
		C60.45,176,60,175.551,60,175z"/>
	<path style="fill:#DD4814;" d="M147.24,110.651c-0.391-0.39-0.391-1.02,0-1.41l0,0c0.39-0.39,1.02-0.39,1.409,0l0,0
		c0.391,0.391,0.391,1.021,0,1.41l0,0c-0.189,0.2-0.449,0.29-0.699,0.29l0,0C147.689,110.941,147.43,110.851,147.24,110.651z
		 M144.41,107.821c-0.391-0.39-0.391-1.02,0-1.41l0,0c0.39-0.39,1.02-0.39,1.409,0l0,0c0.391,0.391,0.391,1.021,0,1.41l0,0
		c-0.189,0.2-0.449,0.3-0.699,0.3l0,0C144.859,108.12,144.6,108.021,144.41,107.821z M141.58,105c-0.391-0.399-0.391-1.029,0-1.42
		l0,0c0.39-0.39,1.02-0.39,1.42,0l0,0c0.39,0.391,0.39,1.021,0,1.42l0,0c-0.2,0.19-0.46,0.29-0.71,0.29l0,0
		C142.029,105.29,141.779,105.191,141.58,105z M138.75,102.171c-0.391-0.391-0.391-1.03,0-1.421l0,0c0.39-0.39,1.029-0.39,1.42,0
		l0,0c0.39,0.391,0.39,1.03,0,1.421l0,0c-0.2,0.189-0.45,0.289-0.71,0.289l0,0C139.2,102.46,138.95,102.361,138.75,102.171z
		 M135.92,99.341c-0.391-0.391-0.391-1.03,0-1.42l0,0c0.39-0.391,1.03-0.391,1.42,0l0,0c0.39,0.39,0.39,1.029,0,1.42l0,0
		c-0.2,0.189-0.45,0.29-0.71,0.29l0,0C136.38,99.631,136.12,99.531,135.92,99.341z M133.1,96.511c-0.39-0.391-0.39-1.021,0-1.41l0,0
		c0.38-0.4,1.021-0.4,1.41,0l0,0c0.39,0.39,0.39,1.02,0,1.41l0,0c-0.2,0.199-0.45,0.29-0.71,0.29l0,0
		C133.55,96.801,133.29,96.71,133.1,96.511z M130.27,93.681c-0.39-0.391-0.39-1.021,0-1.41l0,0c0.391-0.39,1.021-0.39,1.41,0l0,0
		c0.39,0.39,0.39,1.02,0,1.41l0,0c-0.189,0.2-0.45,0.29-0.7,0.29l0,0C130.72,93.971,130.46,93.881,130.27,93.681z M127.439,90.851
		c-0.39-0.391-0.39-1.021,0-1.41l0,0c0.391-0.39,1.021-0.39,1.41,0l0,0c0.391,0.39,0.391,1.02,0,1.41l0,0
		c-0.189,0.2-0.45,0.3-0.7,0.3l0,0C127.89,91.151,127.63,91.051,127.439,90.851z M124.609,88.031c-0.39-0.399-0.39-1.03,0-1.42l0,0
		c0.391-0.39,1.021-0.39,1.42,0l0,0c0.381,0.39,0.381,1.021,0,1.42l0,0c-0.199,0.19-0.46,0.29-0.71,0.29l0,0
		C125.06,88.321,124.81,88.221,124.609,88.031z M121.779,85.2c-0.39-0.39-0.39-1.029,0-1.42l0,0c0.391-0.39,1.03-0.39,1.421,0l0,0
		c0.39,0.391,0.39,1.03,0,1.42l0,0c-0.2,0.19-0.45,0.29-0.71,0.29l0,0C122.229,85.491,121.979,85.391,121.779,85.2z M118.95,82.37
		c-0.391-0.39-0.391-1.029,0-1.42l0,0c0.39-0.39,1.029-0.39,1.42,0l0,0c0.39,0.391,0.39,1.03,0,1.42l0,0
		c-0.2,0.19-0.45,0.29-0.71,0.29l0,0C119.399,82.66,119.149,82.561,118.95,82.37z M116.13,79.54c-0.39-0.39-0.39-1.029,0-1.409l0,0
		c0.38-0.4,1.02-0.4,1.41,0l0,0c0.39,0.38,0.39,1.02,0,1.409l0,0c-0.2,0.19-0.45,0.29-0.71,0.29l0,0
		C116.58,79.83,116.319,79.731,116.13,79.54z M113.3,76.71c-0.39-0.39-0.39-1.02,0-1.409l0,0c0.39-0.391,1.02-0.391,1.41,0l0,0
		c0.39,0.39,0.39,1.02,0,1.409l0,0c-0.19,0.2-0.45,0.29-0.71,0.29l0,0C113.75,77,113.49,76.91,113.3,76.71z M110.47,73.881
		c-0.39-0.391-0.39-1.021,0-1.41l0,0c0.39-0.391,1.021-0.391,1.41,0l0,0c0.39,0.39,0.39,1.02,0,1.41l0,0
		c-0.19,0.199-0.45,0.29-0.7,0.29l0,0C110.92,74.171,110.66,74.08,110.47,73.881z M107.64,71.051c-0.39-0.391-0.39-1.021,0-1.41l0,0
		c0.39-0.391,1.021-0.391,1.42,0l0,0c0.38,0.39,0.38,1.02,0,1.41l0,0c-0.2,0.199-0.46,0.3-0.71,0.3l0,0
		C108.09,71.351,107.83,71.25,107.64,71.051z M104.81,68.231c-0.39-0.39-0.39-1.03,0-1.42l0,0c0.391-0.39,1.03-0.39,1.42,0l0,0
		c0.391,0.39,0.391,1.03,0,1.42l0,0c-0.2,0.19-0.45,0.29-0.71,0.29l0,0C105.26,68.521,105.01,68.421,104.81,68.231z"/>
	<path style="fill:#DD4814;" d="M212,83c0-0.55,0.45-1,1-1l0,0c0.55,0,1,0.45,1,1l0,0c0,0.551-0.45,1-1,1l0,0
		C212.45,84,212,83.551,212,83z M212,79c0-0.55,0.45-1,1-1l0,0c0.55,0,1,0.45,1,1l0,0c0,0.551-0.45,1-1,1l0,0
		C212.45,80,212,79.551,212,79z M212,75c0-0.55,0.45-1,1-1l0,0c0.55,0,1,0.45,1,1l0,0c0,0.551-0.45,1-1,1l0,0
		C212.45,76,212,75.551,212,75z M212,71c0-0.55,0.45-1,1-1l0,0c0.55,0,1,0.45,1,1l0,0c0,0.551-0.45,1-1,1l0,0
		C212.45,72,212,71.551,212,71z M212,67c0-0.55,0.45-1,1-1l0,0c0.55,0,1,0.45,1,1l0,0c0,0.551-0.45,1-1,1l0,0
		C212.45,68,212,67.551,212,67z M212,63c0-0.55,0.45-1,1-1l0,0c0.55,0,1,0.45,1,1l0,0c0,0.551-0.45,1-1,1l0,0
		C212.45,64,212,63.551,212,63z M212,59c0-0.55,0.45-1,1-1l0,0c0.55,0,1,0.45,1,1l0,0c0,0.551-0.45,1-1,1l0,0
		C212.45,60,212,59.551,212,59z M212,55c0-0.55,0.45-1,1-1l0,0c0.55,0,1,0.45,1,1l0,0c0,0.551-0.45,1-1,1l0,0
		C212.45,56,212,55.551,212,55z M212,51c0-0.55,0.45-1,1-1l0,0c0.55,0,1,0.45,1,1l0,0c0,0.551-0.45,1-1,1l0,0
		C212.45,52,212,51.551,212,51z M212,47c0-0.55,0.45-1,1-1l0,0c0.55,0,1,0.45,1,1l0,0c0,0.551-0.45,1-1,1l0,0
		C212.45,48,212,47.551,212,47z M212,43c0-0.55,0.45-1,1-1l0,0c0.55,0,1,0.45,1,1l0,0c0,0.551-0.45,1-1,1l0,0
		C212.45,44,212,43.551,212,43z M212,39c0-0.55,0.45-1,1-1l0,0c0.55,0,1,0.45,1,1l0,0c0,0.551-0.45,1-1,1l0,0
		C212.45,40,212,39.551,212,39z M212,35c0-0.55,0.45-1,1-1l0,0c0.55,0,1,0.45,1,1l0,0c0,0.551-0.45,1-1,1l0,0
		C212.45,36,212,35.551,212,35z M212,31c0-0.55,0.45-1,1-1l0,0c0.55,0,1,0.45,1,1l0,0c0,0.551-0.45,1-1,1l0,0
		C212.45,32,212,31.551,212,31z M212,27c0-0.55,0.45-1,1-1l0,0c0.55,0,1,0.45,1,1l0,0c0,0.551-0.45,1-1,1l0,0
		C212.45,28,212,27.551,212,27z M212,23c0-0.55,0.45-1,1-1l0,0c0.55,0,1,0.45,1,1l0,0c0,0.551-0.45,1-1,1l0,0
		C212.45,24,212,23.551,212,23z"/>
	<path style="fill:#DD4814;" d="M277.35,110.651c-0.399-0.39-0.399-1.02,0-1.41l0,0c0.391-0.39,1.021-0.39,1.41,0l0,0
		c0.39,0.391,0.39,1.021,0,1.41l0,0c-0.19,0.2-0.45,0.29-0.71,0.29l0,0C277.8,110.941,277.54,110.851,277.35,110.651z
		 M280.17,107.821c-0.391-0.39-0.391-1.02,0-1.41l0,0c0.39-0.39,1.03-0.39,1.42,0l0,0c0.39,0.391,0.39,1.021,0,1.41l0,0
		c-0.2,0.2-0.45,0.3-0.71,0.3l0,0C280.63,108.12,280.37,108.021,280.17,107.821z M283,105c-0.391-0.399-0.391-1.029,0-1.42l0,0
		c0.39-0.39,1.029-0.39,1.42,0l0,0c0.39,0.391,0.39,1.021,0,1.42l0,0c-0.2,0.19-0.45,0.29-0.71,0.29l0,0
		C283.45,105.29,283.2,105.191,283,105z M285.83,102.171c-0.391-0.391-0.391-1.03,0-1.421l0,0c0.39-0.39,1.029-0.39,1.41,0l0,0
		c0.399,0.391,0.399,1.03,0,1.421l0,0c-0.19,0.189-0.45,0.289-0.7,0.289l0,0C286.279,102.46,286.02,102.361,285.83,102.171z
		 M288.66,99.341c-0.391-0.391-0.391-1.03,0-1.42l0,0c0.39-0.391,1.029-0.391,1.409,0l0,0c0.391,0.39,0.391,1.029,0,1.42l0,0
		c-0.189,0.189-0.449,0.29-0.699,0.29l0,0C289.109,99.631,288.859,99.531,288.66,99.341z M291.49,96.511
		c-0.391-0.391-0.391-1.021,0-1.41l0,0c0.39-0.4,1.02-0.4,1.409,0l0,0c0.391,0.39,0.391,1.02,0,1.41l0,0
		c-0.189,0.199-0.449,0.29-0.71,0.29l0,0C291.939,96.801,291.68,96.71,291.49,96.511z M294.31,93.681c-0.38-0.391-0.38-1.021,0-1.41
		l0,0c0.4-0.39,1.03-0.39,1.42,0l0,0c0.391,0.39,0.391,1.02,0,1.41l0,0c-0.2,0.2-0.45,0.29-0.71,0.29l0,0
		C294.77,93.971,294.51,93.881,294.31,93.681z M297.14,90.851c-0.38-0.391-0.38-1.021,0-1.41l0,0c0.4-0.39,1.03-0.39,1.42,0l0,0
		c0.391,0.39,0.391,1.02,0,1.41l0,0c-0.2,0.2-0.45,0.3-0.71,0.3l0,0C297.6,91.151,297.34,91.051,297.14,90.851z M299.97,88.031
		c-0.39-0.399-0.39-1.03,0-1.42l0,0c0.39-0.39,1.03-0.39,1.42,0l0,0c0.39,0.39,0.39,1.021,0,1.42l0,0c-0.2,0.19-0.45,0.29-0.71,0.29
		l0,0C300.42,88.321,300.17,88.221,299.97,88.031z M302.8,85.2c-0.39-0.39-0.39-1.029,0-1.42l0,0c0.39-0.39,1.03-0.39,1.41,0l0,0
		c0.399,0.391,0.399,1.03,0,1.42l0,0c-0.19,0.19-0.45,0.29-0.7,0.29l0,0C303.25,85.491,303,85.391,302.8,85.2z M305.63,82.37
		c-0.39-0.39-0.39-1.029,0-1.42l0,0c0.39-0.39,1.02-0.39,1.41,0l0,0c0.39,0.391,0.39,1.03,0,1.42l0,0c-0.19,0.19-0.45,0.29-0.7,0.29
		l0,0C306.08,82.66,305.83,82.561,305.63,82.37z M308.46,79.54c-0.391-0.39-0.391-1.029,0-1.409l0,0c0.39-0.4,1.02-0.4,1.41,0l0,0
		c0.39,0.38,0.39,1.02,0,1.409l0,0c-0.19,0.19-0.45,0.29-0.7,0.29l0,0C308.91,79.83,308.649,79.731,308.46,79.54z"/>
	<path style="fill:#DD4814;" d="M364,175c0-0.55,0.439-1,1-1l0,0c0.55,0,1,0.45,1,1l0,0c0,0.551-0.45,1-1,1l0,0
		C364.439,176,364,175.551,364,175z M360,175c0-0.55,0.45-1,1-1l0,0c0.55,0,1,0.45,1,1l0,0c0,0.551-0.45,1-1,1l0,0
		C360.45,176,360,175.551,360,175z M356,175c0-0.55,0.45-1,1-1l0,0c0.55,0,1,0.45,1,1l0,0c0,0.551-0.45,1-1,1l0,0
		C356.45,176,356,175.551,356,175z M352,175c0-0.55,0.439-1,1-1l0,0c0.55,0,1,0.45,1,1l0,0c0,0.551-0.45,1-1,1l0,0
		C352.439,176,352,175.551,352,175z M348,175c0-0.55,0.45-1,1-1l0,0c0.55,0,1,0.45,1,1l0,0c0,0.551-0.45,1-1,1l0,0
		C348.45,176,348,175.551,348,175z M344,175c0-0.55,0.45-1,1-1l0,0c0.55,0,1,0.45,1,1l0,0c0,0.551-0.45,1-1,1l0,0
		C344.45,176,344,175.551,344,175z M340,175c0-0.55,0.45-1,1-1l0,0c0.55,0,1,0.45,1,1l0,0c0,0.551-0.45,1-1,1l0,0
		C340.45,176,340,175.551,340,175z M336,175c0-0.55,0.45-1,1-1l0,0c0.55,0,1,0.45,1,1l0,0c0,0.551-0.45,1-1,1l0,0
		C336.45,176,336,175.551,336,175z M332,175c0-0.55,0.45-1,1-1l0,0c0.55,0,1,0.45,1,1l0,0c0,0.551-0.45,1-1,1l0,0
		C332.45,176,332,175.551,332,175z M328,175c0-0.55,0.45-1,1-1l0,0c0.55,0,1,0.45,1,1l0,0c0,0.551-0.45,1-1,1l0,0
		C328.45,176,328,175.551,328,175z M324,175c0-0.55,0.45-1,1-1l0,0c0.55,0,1,0.45,1,1l0,0c0,0.551-0.45,1-1,1l0,0
		C324.45,176,324,175.551,324,175z M320,175c0-0.55,0.45-1,1-1l0,0c0.55,0,1,0.45,1,1l0,0c0,0.551-0.45,1-1,1l0,0
		C320.45,176,320,175.551,320,175z M316,175c0-0.55,0.45-1,1-1l0,0c0.55,0,1,0.45,1,1l0,0c0,0.551-0.45,1-1,1l0,0
		C316.45,176,316,175.551,316,175z M312,175c0-0.55,0.45-1,1-1l0,0c0.55,0,1,0.45,1,1l0,0c0,0.551-0.45,1-1,1l0,0
		C312.45,176,312,175.551,312,175z M308,175c0-0.55,0.45-1,1-1l0,0c0.55,0,1,0.45,1,1l0,0c0,0.551-0.45,1-1,1l0,0
		C308.45,176,308,175.551,308,175z M304,175c0-0.55,0.45-1,1-1l0,0c0.55,0,1,0.45,1,1l0,0c0,0.551-0.45,1-1,1l0,0
		C304.45,176,304,175.551,304,175z"/>
	<path style="fill:#DD4814;" d="M319.479,342.481c0-0.55,0.45-1,1-1l0,0c0.55,0,1,0.45,1,1l0,0c0,0.55-0.45,1-1,1l0,0
		C319.93,343.481,319.479,343.031,319.479,342.481z M319.479,338.481c0-0.55,0.45-1,1-1l0,0c0.55,0,1,0.45,1,1l0,0
		c0,0.55-0.45,1-1,1l0,0C319.93,339.481,319.479,339.031,319.479,338.481z M319.479,334.481c0-0.55,0.45-1,1-1l0,0
		c0.55,0,1,0.45,1,1l0,0c0,0.55-0.45,1-1,1l0,0C319.93,335.481,319.479,335.031,319.479,334.481z M319.479,330.481
		c0-0.55,0.45-1,1-1l0,0c0.55,0,1,0.45,1,1l0,0c0,0.55-0.45,1-1,1l0,0C319.93,331.481,319.479,331.031,319.479,330.481z
		 M319.479,326.481c0-0.55,0.45-1,1-1l0,0c0.55,0,1,0.45,1,1l0,0c0,0.55-0.45,1-1,1l0,0
		C319.93,327.481,319.479,327.031,319.479,326.481z M319.479,322.481c0-0.55,0.45-1,1-1l0,0c0.55,0,1,0.45,1,1l0,0
		c0,0.55-0.45,1-1,1l0,0C319.93,323.481,319.479,323.031,319.479,322.481z M319.479,318.481c0-0.55,0.45-1,1-1l0,0
		c0.55,0,1,0.45,1,1l0,0c0,0.55-0.45,1-1,1l0,0C319.93,319.481,319.479,319.031,319.479,318.481z M319.479,314.481
		c0-0.55,0.45-1,1-1l0,0c0.55,0,1,0.45,1,1l0,0c0,0.55-0.45,1-1,1l0,0C319.93,315.481,319.479,315.031,319.479,314.481z
		 M319.479,310.481c0-0.55,0.45-1,1-1l0,0c0.55,0,1,0.45,1,1l0,0c0,0.55-0.45,1-1,1l0,0
		C319.93,311.481,319.479,311.031,319.479,310.481z M319.479,306.481c0-0.55,0.45-1,1-1l0,0c0.55,0,1,0.45,1,1l0,0
		c0,0.55-0.45,1-1,1l0,0C319.93,307.481,319.479,307.031,319.479,306.481z M319.479,302.481c0-0.55,0.45-1,1-1l0,0
		c0.55,0,1,0.45,1,1l0,0c0,0.55-0.45,1-1,1l0,0C319.93,303.481,319.479,303.031,319.479,302.481z M319.479,298.481
		c0-0.55,0.45-1,1-1l0,0c0.55,0,1,0.45,1,1l0,0c0,0.55-0.45,1-1,1l0,0C319.93,299.481,319.479,299.031,319.479,298.481z
		 M319.479,294.481c0-0.55,0.45-1,1-1l0,0c0.55,0,1,0.45,1,1l0,0c0,0.55-0.45,1-1,1l0,0
		C319.93,295.481,319.479,295.031,319.479,294.481z M319.479,290.481c0-0.55,0.45-1,1-1l0,0c0.55,0,1,0.45,1,1l0,0
		c0,0.55-0.45,1-1,1l0,0C319.93,291.481,319.479,291.031,319.479,290.481z M319.479,286.481c0-0.55,0.45-1,1-1l0,0
		c0.55,0,1,0.45,1,1l0,0c0,0.55-0.45,1-1,1l0,0C319.93,287.481,319.479,287.031,319.479,286.481z M319.479,282.481
		c0-0.55,0.45-1,1-1l0,0c0.55,0,1,0.45,1,1l0,0c0,0.55-0.45,1-1,1l0,0C319.93,283.481,319.479,283.031,319.479,282.481z
		 M316.939,280.361c-0.39-0.39-0.39-1.03,0-1.42l0,0c0.391-0.39,1.03-0.39,1.42,0l0,0c0.391,0.39,0.391,1.03,0,1.42l0,0
		c-0.199,0.19-0.449,0.29-0.71,0.29l0,0C317.399,280.651,317.14,280.551,316.939,280.361z M314.109,277.531
		c-0.38-0.39-0.38-1.02,0-1.42l0,0c0.4-0.39,1.03-0.39,1.42,0l0,0c0.391,0.4,0.391,1.03,0,1.42l0,0
		c-0.189,0.19-0.449,0.29-0.71,0.29l0,0C314.569,277.821,314.31,277.721,314.109,277.531z M311.29,274.701
		c-0.391-0.39-0.391-1.02,0-1.42l0,0c0.39-0.38,1.02-0.38,1.41,0l0,0c0.39,0.4,0.39,1.03,0,1.42l0,0c-0.19,0.2-0.45,0.29-0.71,0.29
		l0,0C311.74,274.991,311.479,274.901,311.29,274.701z M308.46,271.87c-0.391-0.39-0.391-1.02,0-1.41l0,0
		c0.39-0.39,1.02-0.39,1.41,0l0,0c0.39,0.391,0.39,1.021,0,1.41l0,0c-0.19,0.2-0.45,0.301-0.7,0.301l0,0
		C308.91,272.171,308.649,272.071,308.46,271.87z M305.63,269.04c-0.39-0.39-0.39-1.02,0-1.409l0,0c0.39-0.391,1.03-0.391,1.42,0
		l0,0c0.39,0.39,0.39,1.02,0,1.409l0,0c-0.2,0.2-0.46,0.301-0.71,0.301l0,0C306.08,269.341,305.819,269.241,305.63,269.04z
		 M302.8,266.221c-0.39-0.391-0.39-1.03,0-1.42l0,0c0.39-0.391,1.03-0.391,1.42,0l0,0c0.39,0.39,0.39,1.029,0,1.42l0,0
		c-0.2,0.189-0.46,0.29-0.71,0.29l0,0C303.25,266.511,303,266.41,302.8,266.221z M299.97,263.391c-0.39-0.391-0.39-1.03,0-1.42l0,0
		c0.39-0.391,1.03-0.391,1.42,0l0,0c0.39,0.39,0.39,1.029,0,1.42l0,0c-0.2,0.189-0.45,0.29-0.71,0.29l0,0
		C300.42,263.681,300.17,263.58,299.97,263.391z M297.14,260.561c-0.39-0.39-0.39-1.021,0-1.42l0,0c0.39-0.391,1.03-0.391,1.42,0
		l0,0c0.391,0.399,0.391,1.03,0,1.42l0,0c-0.2,0.189-0.45,0.29-0.71,0.29l0,0C297.6,260.851,297.34,260.75,297.14,260.561z
		 M294.319,257.731c-0.39-0.39-0.39-1.021,0-1.42l0,0c0.391-0.38,1.021-0.38,1.41,0l0,0c0.391,0.399,0.391,1.03,0,1.42l0,0
		c-0.189,0.2-0.45,0.29-0.71,0.29l0,0C294.77,258.021,294.51,257.931,294.319,257.731z M291.49,254.901
		c-0.391-0.39-0.391-1.02,0-1.41l0,0c0.39-0.39,1.02-0.39,1.409,0l0,0c0.391,0.391,0.391,1.021,0,1.41l0,0
		c-0.189,0.2-0.449,0.29-0.71,0.29l0,0C291.939,255.191,291.68,255.101,291.49,254.901z M288.66,252.071
		c-0.391-0.39-0.391-1.02,0-1.41l0,0c0.39-0.39,1.02-0.39,1.409,0l0,0c0.391,0.391,0.391,1.021,0,1.41l0,0
		c-0.189,0.2-0.449,0.3-0.699,0.3l0,0C289.109,252.37,288.859,252.271,288.66,252.071z M285.83,249.241
		c-0.391-0.39-0.391-1.02,0-1.41l0,0c0.39-0.39,1.029-0.39,1.42,0l0,0c0.39,0.391,0.39,1.021,0,1.41l0,0c-0.2,0.2-0.45,0.3-0.71,0.3
		l0,0C286.279,249.54,286.029,249.441,285.83,249.241z M283,246.421c-0.391-0.391-0.391-1.03,0-1.421l0,0
		c0.39-0.39,1.029-0.39,1.42,0l0,0c0.39,0.391,0.39,1.03,0,1.421l0,0c-0.2,0.189-0.46,0.289-0.71,0.289l0,0
		C283.45,246.71,283.2,246.611,283,246.421z M280.18,243.591c-0.4-0.391-0.4-1.03,0-1.42l0,0c0.38-0.391,1.021-0.391,1.41,0l0,0
		c0.39,0.39,0.39,1.029,0,1.42l0,0c-0.2,0.189-0.45,0.29-0.71,0.29l0,0C280.63,243.881,280.37,243.781,280.18,243.591z
		 M277.34,240.761c-0.38-0.391-0.38-1.021,0-1.41l0,0c0.4-0.391,1.03-0.391,1.42,0l0,0c0.39,0.39,0.39,1.02,0,1.41l0,0
		c-0.19,0.189-0.45,0.29-0.71,0.29l0,0C277.8,241.051,277.54,240.95,277.34,240.761z"/>
	<g>
		<path style="fill:#DD4814;" d="M213,8c1.654,0,3,1.346,3,3s-1.346,3-3,3s-3-1.346-3-3S211.346,8,213,8 M213,6
			c-2.762,0-5,2.239-5,5s2.238,5,5,5s5-2.239,5-5S215.762,6,213,6L213,6z"/>
	</g>
	<g>
		<path style="fill:#DD4814;" d="M98,57c1.654,0,3,1.346,3,3s-1.346,3-3,3s-3-1.346-3-3S96.346,57,98,57 M98,55
			c-2.762,0-5,2.239-5,5s2.238,5,5,5s5-2.239,5-5S100.762,55,98,55L98,55z"/>
	</g>
	<g>
		<path style="fill:#DD4814;" d="M5,228c1.654,0,3,1.346,3,3s-1.346,3-3,3s-3-1.346-3-3S3.346,228,5,228 M5,226
			c-2.762,0-5,2.239-5,5s2.238,5,5,5s5-2.239,5-5S7.762,226,5,226L5,226z"/>
	</g>
	<g>
		<path style="fill:#DD4814;" d="M320.5,351c1.654,0,3,1.346,3,3s-1.346,3-3,3s-3-1.346-3-3S318.846,351,320.5,351 M320.5,349
			c-2.762,0-5,2.239-5,5s2.238,5,5,5s5-2.239,5-5S323.262,349,320.5,349L320.5,349z"/>
	</g>
	<path style="fill:#AEA79F;" d="M85.018,261.665c-22.055,0-40,17.944-40,39.999s17.945,40,40,40c22.056,0,40-17.945,40-40
		S107.074,261.665,85.018,261.665z M103.765,312.89H66.271c-6.212,0-11.249-5.036-11.249-11.249c0-5.98,4.664-10.866,10.551-11.227
		c-2.632-5.278-0.732-11.762,4.447-14.752c5.177-2.989,11.741-1.393,14.997,3.526c3.258-4.918,9.821-6.514,14.999-3.525
		c5.177,2.989,7.077,9.472,4.445,14.752c5.889,0.361,10.552,5.247,10.552,11.227C115.014,307.854,109.977,312.89,103.765,312.89z
		 M78.017,308.864l4.209-11.782c-2.476-1.079-4.209-3.545-4.209-6.418c0-3.866,3.134-7,7-7c3.866,0,7,3.134,7,7
		c0,2.873-1.732,5.338-4.208,6.418l4.209,11.783L78.017,308.864L78.017,308.864z"/>
	<path style="fill:#AEA79F;" d="M346.213,0.471c-22.056,0-40,17.944-40,39.999s17.944,40.001,40,40.001s40-17.945,40-40.001
		S368.269,0.471,346.213,0.471z M364.96,51.696h-37.493c-6.213,0-11.25-5.036-11.25-11.249c0-5.98,4.664-10.866,10.552-11.227
		c-2.632-5.278-0.732-11.762,4.446-14.752c5.178-2.989,11.742-1.393,14.998,3.526c3.257-4.918,9.82-6.514,14.999-3.525
		c5.177,2.989,7.077,9.472,4.445,14.752c5.889,0.361,10.552,5.247,10.552,11.227C376.209,46.66,371.172,51.696,364.96,51.696z
		 M333.713,35.693c0,1.381-1.119,2.5-2.5,2.5s-2.5-1.119-2.5-2.5s1.119-2.5,2.5-2.5C332.594,33.193,333.713,34.312,333.713,35.693z
		 M341.213,35.693c0,1.381-1.119,2.5-2.5,2.5s-2.5-1.119-2.5-2.5s1.119-2.5,2.5-2.5S341.213,34.312,341.213,35.693z M348.712,35.693
		c0,1.381-1.119,2.5-2.5,2.5s-2.5-1.119-2.5-2.5s1.119-2.5,2.5-2.5S348.712,34.312,348.712,35.693z M356.212,35.693
		c0,1.381-1.119,2.5-2.5,2.5c-1.38,0-2.5-1.119-2.5-2.5s1.12-2.5,2.5-2.5C355.093,33.193,356.212,34.312,356.212,35.693z
		 M363.712,35.693c0,1.381-1.119,2.5-2.5,2.5c-1.38,0-2.5-1.119-2.5-2.5s1.12-2.5,2.5-2.5
		C362.593,33.193,363.712,34.312,363.712,35.693z M333.713,43.193c0,1.38-1.119,2.5-2.5,2.5s-2.5-1.12-2.5-2.5
		c0-1.381,1.119-2.5,2.5-2.5C332.594,40.693,333.713,41.812,333.713,43.193z M338.713,45.693c-1.381,0-2.5-1.12-2.5-2.5
		c0-1.381,1.119-2.5,2.5-2.5h14.999c1.381,0,2.5,1.119,2.5,2.5c0,1.38-1.119,2.5-2.5,2.5H338.713z M363.712,43.193
		c0,1.38-1.119,2.5-2.5,2.5c-1.38,0-2.5-1.12-2.5-2.5c0-1.381,1.12-2.5,2.5-2.5C362.593,40.693,363.712,41.812,363.712,43.193z"/>
	<path style="fill:#AEA79F;" d="M213,317.53c-22.056,0-40,17.943-40,39.999c0,22.055,17.944,40,40,40c22.056,0,40-17.945,40-40
		C253,335.473,235.056,317.53,213,317.53z M231.747,368.755h-16.505v-24.725l6.758-4.5h-18v29.225h-9.747
		c-6.213,0-11.249-5.036-11.249-11.249c0-5.98,4.664-10.866,10.552-11.227c-2.632-5.278-0.732-11.762,4.447-14.752
		c5.177-2.989,11.741-1.393,14.997,3.526c3.258-4.918,9.821-6.514,14.999-3.525c5.177,2.989,7.077,9.472,4.445,14.752
		c5.889,0.361,10.552,5.247,10.552,11.227C242.996,363.718,237.959,368.755,231.747,368.755z"/>
</g>
<g id="Grid" style="display:none;">
	<g id="Grid_1_" style="display:inline;">
	</g>
</g>
<g id="Labels">
</g>
</svg>
