<?xml version="1.0" encoding="utf-8"?>
<!-- Generator: Adobe Illustrator 17.0.2, SVG Export Plug-In . SVG Version: 6.00 Build 0)  -->
<!DOCTYPE svg PUBLIC "-//W3C//DTD SVG 1.1//EN" "http://www.w3.org/Graphics/SVG/1.1/DTD/svg11.dtd">
<svg version="1.1" id="Layer_1" xmlns="http://www.w3.org/2000/svg" xmlns:xlink="http://www.w3.org/1999/xlink" x="0px" y="0px"
	 width="288px" height="155px" viewBox="0 0 288 155" enable-background="new 0 0 288 155" xml:space="preserve">
<g id="BK">
</g>
<g id="Comp">
	<g id="ubuntu-advantage-hero">
		<g>
			<circle fill="#888888" fill-opacity="0" cx="40" cy="115" r="40"/>
			<g>
				<path fill="#888888" d="M36.506,119.188c0.977,0.977,2.255,1.463,3.535,1.463c1.279,0,2.558-0.486,3.534-1.463l8.935-8.935
					v17.238h-25v-17.298L36.506,119.188z M60.018,80.371c-1.546-0.898-3.455-0.898-5.003-0.008
					c-1.549,0.895-2.504,2.547-2.504,4.334V99.84l-8.935-8.937c-1.951-1.951-5.117-1.951-7.069,0L27.511,99.9V84.684
					c0-1.787-0.953-3.438-2.5-4.331c-1.547-0.892-3.455-0.892-5.001,0.003C7.669,87.492,0,100.765,0,114.996
					C0,137.054,17.945,155,40,155c22.056,0,40-17.946,40-40.004C80,100.776,72.343,87.509,60.018,80.371"/>
			</g>
		</g>
		<g>
			<circle fill="#AEA79F" fill-opacity="0" cx="110" cy="40" r="40"/>
			<path fill="#77216F" d="M129.402,6.891c-3.657,0.012-7.095,1.441-9.68,4.027c-2.597,2.598-4.028,6.051-4.028,9.723
				s1.431,7.125,4.028,9.723c0.733,0.734,1.692,1.098,2.652,1.098c0.961,0,1.92-0.363,2.652-1.098c1.466-1.465,1.466-3.84,0-5.301
				c-1.18-1.184-1.83-2.754-1.83-4.422s0.651-3.238,1.832-4.418c1.175-1.176,2.738-1.828,4.402-1.832
				c2.07-0.008,3.744-1.691,3.737-3.762C133.159,8.559,131.484,6.902,129.402,6.891z M124.146,25.938
				c0.975,0.977,0.975,2.559,0,3.536c-0.977,0.976-2.559,0.976-3.536,0c-0.978-0.977-0.978-2.559,0-3.536
				C121.587,24.961,123.17,24.961,124.146,25.938z M143.82,34.555c-0.063,0.07-0.126,0.145-0.196,0.215l-23.886,23.879
				c-0.731,0.734-1.692,1.098-2.652,1.098s-1.919-0.363-2.651-1.098c-1.465-1.465-1.465-3.84,0-5.301l12.828-12.828
				c-1.334-0.145-2.637-0.422-3.898-0.82l-11.29,11.289c-0.732,0.73-1.692,1.098-2.652,1.098s-1.919-0.367-2.652-1.098
				c-1.464-1.465-1.464-3.84,0-5.305l9.77-9.765c-0.426-0.364-0.84-0.739-1.24-1.137c-0.395-0.395-0.764-0.805-1.119-1.223
				l-9.77,9.766c-0.732,0.734-1.692,1.098-2.652,1.098c-0.959,0-1.919-0.363-2.652-1.098c-1.465-1.461-1.465-3.84,0-5.301
				L110.4,26.73c-0.405-1.273-0.681-2.578-0.825-3.894L96.747,35.664c-0.733,0.73-1.693,1.098-2.652,1.098
				c-0.96,0-1.92-0.367-2.652-1.098c-1.465-1.464-1.465-3.84,0-5.305L115.17,6.636c0.045-0.043,0.086-0.094,0.132-0.137l5.123-5.122
				C117.063,0.477,113.565,0,109.992,0C99.304,0,89.257,4.16,81.7,11.715c-15.599,15.598-15.599,40.973-0.001,56.57
				C89.257,75.84,99.304,80,109.992,80c10.687,0,20.734-4.16,28.29-11.715C145.839,60.73,150,50.684,150,40
				c0-3.531-0.464-6.992-1.347-10.32L143.82,34.555z M83.396,41.664c1.953-1.953,5.12-1.953,7.072,0c1.954,1.954,1.954,5.117,0,7.07
				c-1.952,1.953-5.118,1.953-7.072,0C81.443,46.781,81.443,43.618,83.396,41.664z M94.223,66.469c-1.953,1.953-5.12,1.953-7.072,0
				c-1.954-1.953-1.954-5.117-0.001-7.07s5.12-1.953,7.073,0C96.176,61.352,96.176,64.516,94.223,66.469z M110.077,64.727
				c-1.953,1.953-5.119,1.953-7.073,0c-1.952-1.953-1.953-5.121,0-7.07c1.953-1.957,5.12-1.953,7.074,0
				C112.031,59.605,112.031,62.773,110.077,64.727z"/>
		</g>
		<g>
			<circle fill="#AEA79F" fill-opacity="0" cx="248" cy="40" r="40"/>
			<path fill="#DD4814" d="M276.283,11.715C268.728,4.16,258.685,0,248,0s-20.729,4.16-28.283,11.715
				C212.161,19.271,208,29.316,208,40s4.161,20.73,11.717,28.285C227.272,75.839,237.316,80,248.002,80
				c10.684,0,20.727-4.161,28.281-11.715C283.837,60.73,288,50.686,288,40C288,29.316,283.837,19.27,276.283,11.715z M272,68.002
				c0,0.551-0.448,0.998-1,0.998h-46c-0.552,0-0.999-0.447-0.999-0.998V12c0-0.553,0.447-1,0.999-1h46c0.552,0,1,0.449,1,1V68.002z
				 M268,24.5h-40.001v-5H268V24.5L268,24.5z M268,34.5h-40.001v-4.998H268V34.5L268,34.5z M268,44.5h-40.001v-5H268V44.5L268,44.5z
				 M253.999,54.5h-26.001v-5h26.001V54.5L253.999,54.5z"/>
		</g>
		<g>
			<circle fill="#AEA79F" fill-opacity="0" cx="179" cy="115" r="40"/>
			<path fill="#5E2750" d="M199.244,80.512h0.002l-17.467,34.498c-0.518,1.034-1.568,1.658-2.685,1.658h-0.002
				c-1.115,0-2.164-0.627-2.683-1.658l-17.333-34.688v0.002C147.086,87.24,139,100.193,139,115.001
				C139,137.057,156.943,155,178.999,155C201.056,155,219,137.057,219,115.001C219,100.325,211.057,87.473,199.244,80.512z
				 M168.974,135.256c-1.38,0-2.499-1.12-2.499-2.5c0-1.381,1.119-2.5,2.499-2.5c1.381,0,2.501,1.119,2.501,2.5
				C171.475,134.136,170.355,135.256,168.974,135.256z M168.974,125.1c-1.38,0-2.499-1.12-2.499-2.502c0-1.379,1.119-2.5,2.499-2.5
				c1.381,0,2.501,1.121,2.501,2.5C171.475,123.98,170.355,125.1,168.974,125.1z M207.199,115.001h-7.077l-7.159-0.026
				c-0.403,0-0.779-0.209-0.989-0.553c-0.214-0.344-0.233-0.773-0.051-1.133l7.157-14.221c0.202-0.402,0.608-0.646,1.043-0.646
				c0.436,0,0.841,0.244,1.043,0.646l7.077,14.248c0.18,0.36,0.161,0.787-0.05,1.133
				C207.978,114.791,207.604,115.001,207.199,115.001z M188.672,76.182l-3.726,7.151l0,0l4.456,9.224V92.49l-8.414,16.426
				c-0.358,0.719-1.088,1.152-1.864,1.152h-0.001c-0.775,0-1.506-0.434-1.865-1.152l-8.284-16.385v0.067l4.457-9.108l-3.793-7.383
				v-0.002c3.005-0.723,6.137-1.105,9.36-1.105C182.335,75,185.574,75.41,188.672,76.182"/>
		</g>
	</g>
</g>
<g id="Grid" display="none">
</g>
</svg>
