<?xml version="1.0" encoding="utf-8"?>
<!-- Generator: Adobe Illustrator 17.0.2, SVG Export Plug-In . SVG Version: 6.00 Build 0)  -->
<!DOCTYPE svg PUBLIC "-//W3C//DTD SVG 1.1//EN" "http://www.w3.org/Graphics/SVG/1.1/DTD/svg11.dtd">
<svg version="1.1" id="Layer_1" xmlns="http://www.w3.org/2000/svg" xmlns:xlink="http://www.w3.org/1999/xlink" x="0px" y="0px"
	 width="156px" height="155px" viewBox="0 0 156 155" enable-background="new 0 0 156 155" xml:space="preserve">
<g id="BK">
</g>
<g id="Comp">
	<g id="ubuntu-advantage-hero">
		<g>
			<circle fill="#888888" fill-opacity="0" cx="40" cy="115" r="40"/>
			<g>
				<path fill="#888888" d="M36.506,119.188c0.977,0.977,2.255,1.463,3.535,1.463c1.279,0,2.558-0.486,3.534-1.463l8.935-8.935
					v17.238h-25v-17.298L36.506,119.188z M60.018,80.371c-1.546-0.898-3.455-0.898-5.003-0.008
					c-1.549,0.895-2.504,2.547-2.504,4.334V99.84l-8.935-8.937c-1.951-1.951-5.117-1.951-7.069,0L27.511,99.9V84.684
					c0-1.787-0.953-3.438-2.5-4.331c-1.547-0.892-3.455-0.892-5.001,0.003C7.669,87.492,0,100.765,0,114.996
					C0,137.054,17.945,155,40,155c22.056,0,40-17.946,40-40.004C80,100.776,72.343,87.509,60.018,80.371"/>
			</g>
		</g>
		<g>
			<circle fill="#AEA79F" fill-opacity="0" cx="110" cy="40" r="40"/>
			<path fill="#77216F" d="M129.402,6.891c-3.657,0.012-7.095,1.441-9.68,4.027c-2.597,2.598-4.028,6.051-4.028,9.723
				s1.431,7.125,4.028,9.723c0.733,0.734,1.692,1.098,2.652,1.098c0.961,0,1.92-0.363,2.652-1.098c1.466-1.465,1.466-3.84,0-5.301
				c-1.18-1.184-1.83-2.754-1.83-4.422s0.651-3.238,1.832-4.418c1.175-1.176,2.738-1.828,4.402-1.832
				c2.07-0.008,3.744-1.691,3.737-3.762C133.159,8.559,131.484,6.902,129.402,6.891z M124.146,25.938
				c0.975,0.977,0.975,2.559,0,3.536c-0.977,0.976-2.559,0.976-3.536,0c-0.978-0.977-0.978-2.559,0-3.536
				C121.587,24.961,123.17,24.961,124.146,25.938z M143.82,34.555c-0.063,0.07-0.126,0.145-0.196,0.215l-23.886,23.879
				c-0.731,0.734-1.692,1.098-2.652,1.098s-1.919-0.363-2.651-1.098c-1.465-1.465-1.465-3.84,0-5.301l12.828-12.828
				c-1.334-0.145-2.637-0.422-3.898-0.82l-11.29,11.289c-0.732,0.73-1.692,1.098-2.652,1.098s-1.919-0.367-2.652-1.098
				c-1.464-1.465-1.464-3.84,0-5.305l9.77-9.765c-0.426-0.364-0.84-0.739-1.24-1.137c-0.395-0.395-0.764-0.805-1.119-1.223
				l-9.77,9.766c-0.732,0.734-1.692,1.098-2.652,1.098c-0.959,0-1.919-0.363-2.652-1.098c-1.465-1.461-1.465-3.84,0-5.301
				L110.4,26.73c-0.405-1.273-0.681-2.578-0.825-3.894L96.747,35.664c-0.733,0.73-1.693,1.098-2.652,1.098
				c-0.96,0-1.92-0.367-2.652-1.098c-1.465-1.464-1.465-3.84,0-5.305L115.17,6.636c0.045-0.043,0.086-0.094,0.132-0.137l5.123-5.122
				C117.063,0.477,113.565,0,109.992,0C99.304,0,89.257,4.16,81.7,11.715c-15.599,15.598-15.599,40.973-0.001,56.57
				C89.257,75.84,99.304,80,109.992,80c10.687,0,20.734-4.16,28.29-11.715C145.839,60.73,150,50.684,150,40
				c0-3.531-0.464-6.992-1.347-10.32L143.82,34.555z M83.396,41.664c1.953-1.953,5.12-1.953,7.072,0c1.954,1.954,1.954,5.117,0,7.07
				c-1.952,1.953-5.118,1.953-7.072,0C81.443,46.781,81.443,43.618,83.396,41.664z M94.223,66.469c-1.953,1.953-5.12,1.953-7.072,0
				c-1.954-1.953-1.954-5.117-0.001-7.07s5.12-1.953,7.073,0C96.176,61.352,96.176,64.516,94.223,66.469z M110.077,64.727
				c-1.953,1.953-5.119,1.953-7.073,0c-1.952-1.953-1.953-5.121,0-7.07c1.953-1.957,5.12-1.953,7.074,0
				C112.031,59.605,112.031,62.773,110.077,64.727z"/>
		</g>
	</g>
</g>
<g id="Grid" display="none">
</g>
</svg>
