<?xml version="1.0" encoding="utf-8"?>
<!-- Generator: Adobe Illustrator 17.0.2, SVG Export Plug-In . SVG Version: 6.00 Build 0)  -->
<!DOCTYPE svg PUBLIC "-//W3C//DTD SVG 1.1//EN" "http://www.w3.org/Graphics/SVG/1.1/DTD/svg11.dtd">
<svg version="1.1" xmlns="http://www.w3.org/2000/svg" xmlns:xlink="http://www.w3.org/1999/xlink" x="0px" y="0px" width="134px"
	 height="94px" viewBox="0 0 134 94" enable-background="new 0 0 134 94" xml:space="preserve">
<symbol  id="Grid_2_" viewBox="-502 -2550 984 3000">
	<polygon opacity="0.2" fill="#3081FF" points="482,-2550 -502,-2550 -502,450 482,450 	"/>
	<polygon opacity="0.8" fill="#3081FF" points="-462,-2550 -502,-2550 -502,450 -462,450 	"/>
	<polygon opacity="0.8" fill="#3081FF" points="482,-2550 442,-2550 442,450 482,450 	"/>
	<polygon opacity="0.3" fill="#3081FF" points="-405,-2550 -462,-2550 -462,450 -405,450 	"/>
	<polygon opacity="0.5" fill="#3081FF" points="-328,-2550 -385,-2550 -385,450 -328,450 	"/>
	<polygon opacity="0.3" fill="#3081FF" points="-251,-2550 -308,-2550 -308,450 -251,450 	"/>
	<polygon opacity="0.5" fill="#3081FF" points="-174,-2550 -231,-2550 -231,450 -174,450 	"/>
	<polygon opacity="0.3" fill="#3081FF" points="-97,-2550 -154,-2550 -154,450 -97,450 	"/>
	<polygon opacity="0.5" fill="#3081FF" points="-20,-2550 -77,-2550 -77,450 -20,450 	"/>
	<polygon opacity="0.3" fill="#3081FF" points="57,-2550 0,-2550 0,450 57,450 	"/>
	<polygon opacity="0.5" fill="#3081FF" points="134,-2550 77,-2550 77,450 134,450 	"/>
	<polygon opacity="0.3" fill="#3081FF" points="211,-2550 154,-2550 154,450 211,450 	"/>
	<polygon opacity="0.5" fill="#3081FF" points="288,-2550 231,-2550 231,450 288,450 	"/>
	<polygon opacity="0.3" fill="#3081FF" points="365,-2550 308,-2550 308,450 365,450 	"/>
	<polygon opacity="0.5" fill="#3081FF" points="442,-2550 385,-2550 385,450 442,450 	"/>
</symbol>
<g id="BK">
</g>
<g id="Comp">
	<path fill="#2C001E" d="M114.245,5.512l0.001,0.001L96.778,40.008c-0.517,1.033-1.568,1.66-2.684,1.66l-0.002-0.001
		c-1.116,0-2.166-0.626-2.683-1.659L74.074,5.323l0.001,0.001C62.087,12.24,54,25.193,54,40.001C54,62.057,71.943,80,93.999,80
		C116.056,80,134,62.056,134,40.001C134,25.326,126.057,12.472,114.245,5.512z M83.974,60.255c-1.38,0-2.499-1.119-2.499-2.5
		c0-1.38,1.118-2.499,2.499-2.499c1.382,0,2.501,1.119,2.501,2.499C86.475,59.137,85.355,60.255,83.974,60.255z M83.974,50.099
		c-1.38,0-2.499-1.118-2.499-2.501c0-1.38,1.118-2.5,2.499-2.5c1.382,0,2.501,1.12,2.501,2.5
		C86.475,48.981,85.355,50.099,83.974,50.099z M122.201,40.001h-7.077l-7.16-0.026c-0.402,0-0.779-0.21-0.99-0.553
		c-0.214-0.344-0.233-0.773-0.051-1.132l7.158-14.222c0.202-0.401,0.609-0.645,1.044-0.645c0.435,0,0.841,0.243,1.043,0.645
		l7.076,14.247c0.179,0.36,0.162,0.79-0.049,1.133C122.979,39.791,122.604,40.001,122.201,40.001z M103.673,1.182l-3.726,7.151
		V8.332l4.458,9.225V17.49l-8.415,16.426c-0.357,0.717-1.088,1.153-1.863,1.153h-0.001c-0.776,0-1.506-0.436-1.865-1.155
		l-8.284-16.384v0.067l4.456-9.107l-3.792-7.382V1.107C87.645,0.383,90.777,0,93.999,0C97.335,0.001,100.574,0.41,103.673,1.182"/>
	<path fill="#DD4814" d="M46.65,37.497L50,50l-12.503-3.35l0.002,0.005C33.823,48.782,29.553,50,25,50C11.193,50,0,38.807,0,25
		C0,11.192,11.193,0,25,0c13.808,0,25,11.192,25,25c0,4.627-1.256,8.96-3.448,12.677L46.65,37.497z"/>
	<path fill="#5E2750" d="M38,54.001c-11.028,0-20,8.973-20,20C18,85.028,26.972,94,38,94c11.029,0,20-8.972,20-19.999
		C58,62.973,49.028,54.001,38,54.001z M47.373,79.613H28.627c-3.106,0-5.625-2.517-5.625-5.624c0-2.991,2.332-5.434,5.276-5.614
		c-1.316-2.639-0.366-5.882,2.223-7.378c2.589-1.493,5.871-0.695,7.499,1.764c1.629-2.459,4.91-3.256,7.499-1.762
		c2.589,1.496,3.539,4.737,2.223,7.376c2.945,0.18,5.276,2.623,5.276,5.614C52.998,77.096,50.48,79.613,47.373,79.613z
		 M31.75,71.612c0,0.69-0.56,1.25-1.25,1.25c-0.69,0-1.25-0.561-1.25-1.25c0-0.691,0.56-1.25,1.25-1.25
		C31.191,70.362,31.75,70.92,31.75,71.612z M35.5,71.612c0,0.69-0.56,1.25-1.25,1.25c-0.69,0-1.25-0.561-1.25-1.25
		c0-0.691,0.56-1.25,1.25-1.25C34.941,70.362,35.5,70.92,35.5,71.612z M39.25,71.612c0,0.69-0.559,1.25-1.25,1.25
		c-0.69,0-1.25-0.561-1.25-1.25c0-0.691,0.56-1.25,1.25-1.25C38.691,70.362,39.25,70.92,39.25,71.612z M43,71.612
		c0,0.69-0.559,1.25-1.25,1.25c-0.69,0-1.25-0.561-1.25-1.25c0-0.691,0.559-1.25,1.25-1.25C42.441,70.362,43,70.92,43,71.612z
		 M46.75,71.612c0,0.69-0.559,1.25-1.25,1.25c-0.69,0-1.25-0.561-1.25-1.25c0-0.691,0.56-1.25,1.25-1.25
		C46.19,70.362,46.75,70.92,46.75,71.612z M31.75,75.361c0,0.69-0.56,1.25-1.25,1.25c-0.69,0-1.25-0.56-1.25-1.25
		c0-0.69,0.56-1.249,1.25-1.249C31.191,74.112,31.75,74.67,31.75,75.361z M34.25,76.611c-0.69,0-1.25-0.56-1.25-1.25
		c0-0.69,0.56-1.249,1.25-1.249h7.499c0.691,0,1.25,0.559,1.25,1.249c0,0.69-0.559,1.25-1.25,1.25H34.25z M46.75,75.361
		c0,0.69-0.559,1.25-1.25,1.25c-0.69,0-1.25-0.56-1.25-1.25c0-0.69,0.56-1.249,1.25-1.249C46.19,74.112,46.75,74.67,46.75,75.361z"
		/>
</g>
<g id="Grid" display="none">
	<g id="Grid_1_" display="inline">
	</g>
	
		<use xlink:href="#Grid_2_"  width="984" height="3000" id="XMLID_10_" x="-502" y="-2550" transform="matrix(1 0 0 -1 530 -764)" display="inline" overflow="visible"/>
</g>
<g id="Labels">
</g>
</svg>
