<svg xmlns="http://www.w3.org/2000/svg" width="134" height="94" viewBox="0 0 134 94"><symbol viewBox="-502 -2550 984 3000"><path opacity=".2" fill="#3081FF" d="M482-2550h-984V450h984z"/><path opacity=".8" fill="#3081FF" d="M-462-2550h-40V450h40zM482-2550h-40V450h40z"/><path opacity=".3" fill="#3081FF" d="M-405-2550h-57V450h57z"/><path opacity=".5" fill="#3081FF" d="M-328-2550h-57V450h57z"/><path opacity=".3" fill="#3081FF" d="M-251-2550h-57V450h57z"/><path opacity=".5" fill="#3081FF" d="M-174-2550h-57V450h57z"/><path opacity=".3" fill="#3081FF" d="M-97-2550h-57V450h57z"/><path opacity=".5" fill="#3081FF" d="M-20-2550h-57V450h57z"/><path opacity=".3" fill="#3081FF" d="M57-2550H0V450h57z"/><path opacity=".5" fill="#3081FF" d="M134-2550H77V450h57z"/><path opacity=".3" fill="#3081FF" d="M211-2550h-57V450h57z"/><path opacity=".5" fill="#3081FF" d="M288-2550h-57V450h57z"/><path opacity=".3" fill="#3081FF" d="M365-2550h-57V450h57z"/><path opacity=".5" fill="#3081FF" d="M442-2550h-57V450h57z"/></symbol><g><path fill="#2C001E" d="M114.245 5.512L96.78 40.01c-.517 1.033-1.568 1.66-2.684 1.66h-.002c-1.116 0-2.166-.627-2.683-1.66L74.073 5.323C62.088 12.24 54 25.194 54 40.002c0 22.057 17.943 40 40 40 22.056 0 40-17.944 40-40 0-14.674-7.943-27.528-19.755-34.488zm-30.27 54.743c-1.38 0-2.5-1.12-2.5-2.5s1.118-2.5 2.5-2.5c1.38 0 2.5 1.12 2.5 2.5 0 1.382-1.12 2.5-2.5 2.5zm0-10.156c-1.38 0-2.5-1.12-2.5-2.502 0-1.38 1.118-2.5 2.5-2.5 1.38 0 2.5 1.12 2.5 2.5 0 1.383-1.12 2.5-2.5 2.5zM122.2 40h-7.076l-7.16-.025c-.402 0-.78-.21-.99-.553-.214-.344-.233-.773-.05-1.132l7.157-14.222c.203-.4.61-.645 1.045-.645.435 0 .84.243 1.043.645l7.076 14.247c.18.36.162.79-.05 1.133-.215.343-.59.553-.993.553zM103.674 1.183l-3.726 7.15 4.458 9.225v-.067L95.99 33.916c-.357.717-1.088 1.153-1.863 1.153-.777 0-1.507-.437-1.866-1.156L83.978 17.53v.067l4.456-9.107-3.792-7.382C87.646.382 90.778 0 94 0c3.335 0 6.574.41 9.673 1.182"/><path fill="#DD4814" d="M46.65 37.497L50 50l-12.503-3.35.002.005C33.822 48.782 29.552 50 25 50 11.193 50 0 38.807 0 25 0 11.192 11.193 0 25 0c13.808 0 25 11.192 25 25 0 4.627-1.256 8.96-3.448 12.677l.098-.18z"/><path fill="#5E2750" d="M38 54c-11.028 0-20 8.974-20 20 0 11.028 8.972 20 20 20 11.03 0 20-8.972 20-20 0-11.027-8.972-20-20-20zm9.373 25.613H28.627c-3.106 0-5.625-2.517-5.625-5.624 0-2.992 2.332-5.435 5.276-5.615-1.316-2.64-.366-5.882 2.223-7.378 2.59-1.493 5.872-.695 7.5 1.764 1.63-2.458 4.91-3.255 7.5-1.76 2.588 1.495 3.538 4.736 2.222 7.375 2.945.18 5.276 2.623 5.276 5.614 0 3.106-2.518 5.623-5.625 5.623zm-15.623-8c0 .69-.56 1.25-1.25 1.25s-1.25-.562-1.25-1.25c0-.692.56-1.25 1.25-1.25s1.25.557 1.25 1.25zm3.75 0c0 .69-.56 1.25-1.25 1.25S33 72.3 33 71.612c0-.692.56-1.25 1.25-1.25s1.25.557 1.25 1.25zm3.75 0c0 .69-.56 1.25-1.25 1.25s-1.25-.562-1.25-1.25c0-.692.56-1.25 1.25-1.25s1.25.557 1.25 1.25zm3.75 0c0 .69-.56 1.25-1.25 1.25s-1.25-.562-1.25-1.25c0-.692.56-1.25 1.25-1.25s1.25.557 1.25 1.25zm3.75 0c0 .69-.56 1.25-1.25 1.25s-1.25-.562-1.25-1.25c0-.692.56-1.25 1.25-1.25s1.25.557 1.25 1.25zm-15 3.748c0 .69-.56 1.25-1.25 1.25s-1.25-.56-1.25-1.25.56-1.248 1.25-1.248 1.25.558 1.25 1.25zm2.5 1.25c-.69 0-1.25-.56-1.25-1.25s.56-1.248 1.25-1.248h7.5c.69 0 1.25.56 1.25 1.25s-.56 1.25-1.25 1.25h-7.5zm12.5-1.25c0 .69-.56 1.25-1.25 1.25s-1.25-.56-1.25-1.25.56-1.248 1.25-1.248 1.25.558 1.25 1.25z"/></g></svg>