<svg baseProfile="full" xmlns="http://www.w3.org/2000/svg" width="160" height="160"><path fill="#e1e1e1" fill-rule="evenodd" d="M79.965 0C47.41 0 19.353 19.545 6.865 47.503h35.103c-1.357 1.584-2.62 3.252-3.773 5H4.81c-1.188 3.238-2.153 6.58-2.92 9.997h31.216c-.61 1.63-1.142 3.296-1.58 5H.92C.405 70.773.106 74.113 0 77.503h30.012c-.04.83-.062 1.66-.062 2.498 0 .84.023 1.673.062 2.5H0c.104 3.39.405 6.73.92 10h30.605c.44 1.705.972 3.372 1.58 5.002H1.89c.767 3.418 1.732 6.762 2.92 10H38.2c1.153 1.748 2.417 3.417 3.775 5H6.868c12.49 27.96 40.544 47.5 73.1 47.5C124.097 160 160 124.11 160 80c0-44.112-35.903-80-80.035-80zM72.47 45.035c0-4.142 3.36-7.5 7.504-7.5 4.145 0 7.503 3.358 7.503 7.5v35.15c0 4.14-3.36 7.498-7.503 7.498-4.143 0-7.503-3.358-7.503-7.5V45.036zm34.105 61.537c-7.088 7.085-16.506 10.983-26.526 10.983h-.004c-10.022 0-19.442-3.9-26.527-10.985-14.068-14.062-14.706-36.68-1.455-51.493 2.763-3.088 7.508-3.352 10.593-.59 3.09 2.76 3.355 7.502.592 10.59-7.946 8.884-7.563 22.45.88 30.886 4.25 4.252 9.904 6.594 15.916 6.594 6.012 0 11.664-2.34 15.915-6.59 8.412-8.408 8.82-21.95.933-30.83-2.75-3.1-2.47-7.84.628-10.59 3.1-2.753 7.843-2.47 10.594.628 13.154 14.808 12.478 37.384-1.54 51.397z"/></svg>