<?xml version="1.0" encoding="UTF-8"?>
<!-- Generator: Adobe Illustrator 15.0.0, SVG Export Plug-In . SVG Version: 6.00 Build 0)  -->
<!DOCTYPE svg PUBLIC "-//W3C//DTD SVG 1.1//EN" "http://www.w3.org/Graphics/SVG/1.1/DTD/svg11.dtd">
<svg version="1.1" id="图层_1" xmlns="http://www.w3.org/2000/svg" xmlns:xlink="http://www.w3.org/1999/xlink" x="0px" y="0px" width="841.89px" height="595.28px" viewBox="0 0 841.89 595.28" enable-background="new 0 0 841.89 595.28" xml:space="preserve">
<g>
	<path d="M152.587,286.985l-9.058,22.87l-18.312-45.712c-0.015-0.037-0.029-0.075-0.045-0.112l-0.042-0.105l-0.012,0.005   c-0.912-1.996-2.913-3.393-5.253-3.393c-3.195,0-5.783,2.597-5.783,5.787c0,0.71,0.146,1.383,0.379,2.011l-0.018,0.007l4.767,12.95   l22.024,54.769h4.03l13.727-34.09L152.587,286.985z"/>
	<path d="M208.824,265.953c0-3.257-2.64-5.896-5.899-5.896c-2.849,0-5.227,2.021-5.776,4.708l-17.607,45.088l-17.367-45.574   l-0.027,0.008c-0.714-2.452-2.95-4.253-5.637-4.253c-3.255,0-5.894,2.639-5.894,5.896c0,0.533,0.093,1.04,0.225,1.53l-0.042,0.012   l4.426,13.819l22.016,54.769h4.038l26.502-66.456C208.418,268.374,208.824,267.072,208.824,265.953z"/>
	<path d="M100.091,264.424c-0.792-2.256-2.917-3.884-5.441-3.884c-2.505,0-4.62,1.603-5.427,3.832l-30.587,71.502h12.912   l8.272-19.656h14.74v-0.047c2.985-0.146,5.365-2.592,5.365-5.612c0-3.02-2.38-5.464-5.365-5.61v-0.028h-9.986l9.751-23.17   l21.701,54.104h4.036l9.321,0.04L100.091,264.424z"/>
	<path d="M299.887,336.111c-3.827-1.711-7.311-4.077-10.439-7.087c-1.544-1.483-2.918-3.066-4.137-4.725H271.97v-57.51   c0.015-0.181,0.054-0.353,0.054-0.538c0-3.588-2.905-6.492-6.494-6.492c-3.584,0-6.488,2.904-6.488,6.492   c0,0.021,0.006,0.042,0.006,0.062h-0.006v70.023h40.905L299.887,336.111z"/>
	<path d="M485.568,278.095c-3.561-6.036-8.438-10.68-14.49-13.799c-5.998-3.094-14.207-4.663-24.381-4.663h-41.187v0.022   c-3.479,0.108-6.279,2.936-6.293,6.444c0,0.123,0.028,0.236,0.034,0.356l-0.034,0.009v37.468c0,5.236-0.396,8.939-1.188,11.006   c-0.763,2-2.036,3.759-3.763,5.225c-3.403,2.823-7.914,4.253-13.401,4.253c-3.875,0-7.261-0.717-10.072-2.139   c-2.757-1.392-4.831-3.257-6.161-5.534c-1.339-2.295-2.024-6.604-2.024-12.811v-37.64c0-0.014,0.004-0.026,0.004-0.041   c0-3.588-2.903-6.492-6.49-6.492c-3.584,0-6.492,2.904-6.492,6.492v9.905c-0.277-0.28-0.523-0.576-0.812-0.851   c-7.098-6.759-16.092-10.183-26.727-10.183c-10.643,0-19.576,3.43-26.562,10.189c-7.004,6.775-10.552,15.439-10.552,25.755   c0,10.069,3.528,18.569,10.484,25.261c6.936,6.677,15.715,10.068,26.104,10.068c10.857,0,19.984-3.384,27.143-10.051   c1.541-1.436,2.886-2.974,4.101-4.58c0.316,0.627,0.645,1.225,0.996,1.779c1.209,1.915,2.709,3.662,4.474,5.217   c5.703,4.909,13.337,7.401,22.688,7.401c9.181,0,16.745-2.504,22.478-7.452c1.763-1.512,3.269-3.246,4.482-5.166   c1.213-1.916,2.237-4.321,3.05-7.154c0.823-2.874,1.225-6.952,1.225-12.458v-25.544c0.16-3.396,2.938-6.104,6.37-6.104v-0.103   h15.509v-0.014h11.513c4.928,0,8.525,0.185,10.694,0.556c2.123,0.355,4.414,1.11,6.797,2.229c2.363,1.106,4.488,2.548,6.327,4.287   c5.026,4.691,7.466,10.603,7.466,18.081c0,7.532-2.455,13.843-7.289,18.742c-1.506,1.502-3.179,2.785-4.983,3.804   c-1.795,1.02-4.101,1.886-6.859,2.568c-2.757,0.679-6.731,1.025-11.833,1.025H434.08v-36.565h-0.002   c0.002-0.059,0.019-0.114,0.019-0.175c0-3.781-3.061-6.845-6.841-6.845c-3.781,0-6.846,3.064-6.846,6.845   c0,0.061,0.016,0.116,0.018,0.175h-0.034v49.104h24.775c6.65,0,11.052-0.185,13.476-0.574c2.418-0.381,5.09-1.146,7.918-2.257   c4.909-1.861,9.274-4.645,12.979-8.272c3.633-3.526,6.47-7.675,8.432-12.323c1.962-4.646,2.96-9.587,2.96-14.677   C490.934,290.782,489.126,284.122,485.568,278.095z M339.78,317.826c-4.668,4.566-10.586,6.879-17.592,6.879   c-6.979,0-12.861-2.269-17.481-6.742c-4.675-4.526-6.944-10.055-6.944-16.896c0-7.061,2.263-12.699,6.922-17.227   c4.606-4.472,10.594-6.743,17.787-6.743c6.823,0,12.645,2.295,17.317,6.819c4.719,4.57,7.016,10.058,7.016,16.769   C346.804,307.591,344.503,313.201,339.78,317.826z"/>
	<path d="M247.97,324.121c-0.177,0-0.343,0.038-0.517,0.052l-0.093-0.052l-0.629-0.076c-0.223,0.03-0.223,0.032-0.464,0.032   c-7.25,0-13.355-2.359-18.156-7.009c-4.854-4.694-7.211-10.436-7.211-17.541c0-7.334,2.355-13.185,7.189-17.89   c4.787-4.645,11.002-7,18.472-7c0.17,0,0.339,0.02,0.5,0.04c0.235,0.028,0.458,0.054,0.701,0.06l0.144-0.049   c0.018,0,0.035,0.005,0.053,0.005c3.45,0,6.247-2.797,6.247-6.249c0-2.977-2.089-5.458-4.879-6.084v-0.036l-0.226-0.009   c-0.372-0.069-0.751-0.115-1.142-0.115c-0.162,0-0.313,0.035-0.472,0.047l-0.177-0.007c-0.38-0.018-0.757-0.04-1.141-0.04   c-11.05,0-20.331,3.558-27.59,10.58c-7.269,7.036-10.956,16.038-10.956,26.747c0,10.459,3.663,19.278,10.888,26.234   c7.203,6.934,16.325,10.455,27.114,10.455c0.55,0,1.09-0.027,1.625-0.058l0.1-0.004c0.208,0.02,0.409,0.062,0.622,0.062   c0.448,0,0.88-0.056,1.3-0.148l0.055-0.002v-0.014c2.685-0.618,4.692-3.012,4.692-5.884   C254.018,326.83,251.31,324.121,247.97,324.121z"/>
	<rect x="505.47" y="259.284" width="8.955" height="12.996"/>
	<rect x="505.47" y="279.151" width="8.955" height="22.924"/>
	<rect x="505.47" y="309.695" width="8.955" height="25.369"/>
	<path d="M559.686,301.92v-11.672c0-3.149-1.152-5.819-3.434-8.024c-2.177-2.074-5.078-3.1-8.739-3.072h-14.725   c-3.771,0-6.715,1.07-8.823,3.209c-2.23,2.229-3.341,4.829-3.341,7.795l0.044,11.765h-2.897v8.203h2.897l-0.044,13.771   c0,3.407,0.96,6.116,2.896,8.105c2.285,2.38,5.447,3.566,9.49,3.566h14.284c8.255,0,12.392-4.369,12.392-13.1v-12.344h2.399v-8.203   H559.686z M551.433,321.707c0,3.743-1.797,5.612-5.386,5.612h-11.835c-3.528,0-5.299-1.706-5.299-5.124l0.04-12.072h6.92v12.072   h8.244v-12.072h7.315V321.707z M551.433,301.92h-7.315v-9.489h-8.244v9.489h-6.92l-0.04-9.399c0-3.444,1.867-5.171,5.612-5.171   h11.35c1.865,0,3.259,0.444,4.179,1.337c0.923,0.861,1.379,1.96,1.379,3.295V301.92z"/>
	<path d="M569.895,292.003v-8.106h56.618v8.106h-38.749l-7.171,27.582c-0.245,0.924-0.359,1.785-0.359,2.586   c0,1.665,0.653,2.868,1.96,3.61c0.773,0.446,1.544,0.667,2.319,0.667h2.671h20.381c2.348,0,3.802-0.104,4.367-0.312   c1.547-0.59,2.317-1.809,2.317-3.652c0-0.711-0.072-1.382-0.225-2.006l-4.5-18.673h8.514l4.009,17.424   c0.534,2.317,0.805,4.386,0.805,6.194c0,3.061-1.458,5.555-4.369,7.488c-2.022,1.333-5.11,2.006-9.263,2.006h-25.11   c-3.357,0-6.191-0.817-8.51-2.456c-2.794-1.957-4.186-4.704-4.186-8.242c0-1.217,0.224-2.688,0.667-4.406l7.175-27.811H569.895z    M571.455,272.347v-7.978h53.684v7.978H571.455z M613.956,319.735l7.763-1.751l4.275,17.08l-8.584,0.235L613.956,319.735z"/>
	<path d="M713.903,335.064v-8.106c4.01-0.476,6.016-2.568,6.016-6.283v-29.054c0-1.245-0.239-2.217-0.711-2.901   c-0.685-0.942-1.648-1.436-2.894-1.466l-2.411-0.046v-8.197h5.036c3.383,0.032,5.782,0.831,7.176,2.405   c1.359,1.512,2.045,3.743,2.045,6.687v32.347c0,1.842,0.61,3.372,1.825,4.589c1.164,1.194,2.53,1.785,4.101,1.785h48.033v8.24   h-48.257c-3.474,0-6.757-1.455-9.845-4.365C721.198,333.609,717.826,335.064,713.903,335.064z"/>
	<rect x="714.037" y="258.975" width="14.123" height="8.514"/>
	<path d="M733.142,294.085v-8.241h11.626v-18.626h-11.499v-8.243h32.052c3.829,0,6.807,1.088,8.955,3.249   c2.163,2.201,3.249,4.919,3.249,8.157v37.025c0,3.15,1.536,4.815,4.595,4.992v8.381c-4.19-0.449-7.19-1.485-9.004-3.118   c-2.557-2.35-3.837-5.556-3.837-9.626v-35.606c0-1.572-0.519-2.896-1.553-3.966c-0.808-0.831-2.036-1.245-3.7-1.245h-11.007v18.626   h11.629v8.241h-11.629v26.694h-8.251v-26.694H733.142z"/>
	<polygon points="528.913,264.264 528.913,259.284 520.801,259.284 520.801,272.381 522.063,272.381 528.913,272.381    562.085,272.381 562.085,264.264  "/>
	<path d="M660.034,288.146c-2.62,0.711-5.078,1.683-7.396,2.897v-15.554h7.396v-8.554h-7.396v-7.695h-8.245v7.695h-9.805v8.554   h9.805v21.17c-2.108,1.215-3.656,2.014-4.633,2.404c-1.136,0.419-2.945,0.847-5.439,1.287v8.65c2.41-0.357,4.097-0.687,5.085-0.982   c1.01-0.263,2.67-0.905,4.987-1.915v14.97c0,3.807-1.694,5.704-5.082,5.704h-4.99v8.287h7.618c2.944,0,5.466-1.141,7.574-3.428   c2.087-2.202,3.125-4.915,3.125-8.152v-23.134c1.988-1.304,4.453-2.539,7.396-3.691V288.146z"/>
	<path d="M694.146,306.818c2.525,0,4.318-0.239,5.394-0.715c0.861-0.382,1.681-0.996,2.449-1.828   c1.308-1.457,1.958-3.387,1.958-5.792v-3.651h2.544v-7.845h-2.544v-3.116c0-3.502-1.185-6.032-3.561-7.581   c-1.247-0.801-3.327-1.201-6.24-1.201h-6.062v-3.655h18.139v-8.379h-18.139v-4.08h-8.247v4.08H664.49v8.379h15.347v3.655h-15.405   v7.486h15.405v4.412h-15.405v7.845h15.405v4.277h-15.405v7.709h15.405v19.692c-0.034-0.015-0.066-0.03-0.108-0.046   c-0.803-0.354-4.428-3.049-6.69-4.815v-11.446h-8.606v24.861h8.606v-2.861l0.143,0.277c1.601,0.894,3.624,2.377,4.185,2.584h28.857   v-7.839h-18.139v-6.996h18.407v-8.201h-18.407v-5.21H694.146z M688.084,282.575h3.747c2.496,0,3.745,1.205,3.745,3.608v0.803   h-7.492V282.575z M688.084,294.832h7.492v1.512c0,1.843-1.266,2.765-3.789,2.765h-3.703V294.832z"/>
</g>
</svg>