<?xml version="1.0" encoding="utf-8"?>
<!-- Generator: Adobe Illustrator 17.0.2, SVG Export Plug-In . SVG Version: 6.00 Build 0)  -->
<!DOCTYPE svg PUBLIC "-//W3C//DTD SVG 1.1//EN" "http://www.w3.org/Graphics/SVG/1.1/DTD/svg11.dtd">
<svg version="1.1" xmlns="http://www.w3.org/2000/svg" xmlns:xlink="http://www.w3.org/1999/xlink" x="0px" y="0px" width="288px"
	 height="186px" viewBox="0 0 288 186" enable-background="new 0 0 288 186" xml:space="preserve">
<g id="BK">
</g>
<g id="Comp">
	<path fill="#DD4814" d="M233.997,185.979h-79.233V67.283l32.441-21.603h-86.41v140.298H54.003c-29.826,0-54.003-24.177-54.003-54
		c0-28.709,22.392-52.164,50.657-53.898c-12.634-25.338-3.512-56.465,21.349-70.82C96.859-7.086,128.369,0.575,144,24.19
		c15.638-23.611,47.144-31.273,72.005-16.922c24.854,14.351,33.972,45.471,21.338,70.816C265.615,79.819,288,103.274,288,131.982
		C288,161.802,263.82,185.979,233.997,185.979z"/>
</g>
<g id="Grid" display="none">
</g>
<g id="Labels">
</g>
</svg>
