<?xml version="1.0" encoding="iso-8859-1"?>
<!-- Generator: Adobe Illustrator 17.0.2, SVG Export Plug-In . SVG Version: 6.00 Build 0)  -->
<!DOCTYPE svg PUBLIC "-//W3C//DTD SVG 1.1//EN" "http://www.w3.org/Graphics/SVG/1.1/DTD/svg11.dtd">
<svg version="1.1" id="Comp" xmlns="http://www.w3.org/2000/svg" xmlns:xlink="http://www.w3.org/1999/xlink" x="0px" y="0px"
	 width="400px" height="224px" viewBox="0 0 400 224" style="enable-background:new 0 0 400 224;" xml:space="preserve">
<g>
	<g>
		<g>
			<path d="M190.295,203.816h-20.105l8.927-50.714h20.154 M128.014,183.01h-38.41c-1.048,5.995,2.911,9.97,8.225,9.97
				c3.162,0,6.315-1.452,8.323-4.454h19.258c-5.718,12.582-19.209,16.741-31.04,16.741c-16.249,0-27.176-9.289-24.169-26.321
				c2.904-16.653,17.299-27.297,33.548-27.297C122.498,151.652,131.577,164.622,128.014,183.01z M91.41,172.75h18.305
				c0.799-4.648-2.612-8.809-7.37-8.809C96.377,163.941,92.363,167.331,91.41,172.75z M249.665,179.037
				c3.113-17.61,16.451-27.385,33.547-27.385c17.951,0,27.129,10.546,24.322,26.323c-3.258,18.583-17.403,27.295-33.645,27.295
				C257.591,205.268,246.608,196.362,249.665,179.037z M282.011,165.198c-6.87,0-10.177,7.065-11.185,12.775
				c-1.652,9.58,1.153,13.749,6.323,13.749c5.411,0,9.426-4.169,11.129-13.749C289.583,170.519,287.276,164.906,282.011,165.198z
				 M128.466,203.816l8.975-50.714h18.305l-1.805,10.261h0.153c4.21-7.942,9.823-11.713,17.647-11.713
				c0.902,0,1.756,0.195,2.612,0.293l-3.565,20.124c-1.354-0.188-2.702-0.576-4.056-0.576c-8.225,0-13.089,3.869-15.001,14.803
				l-3.104,17.52h-20.161V203.816z M307.333,203.816l8.927-50.714h18.402l-1.403,7.933c5.613-6.1,11.13-9.385,18.751-9.385
				c13.393,0,18.305,7.837,15.847,21.772l-5.365,30.394h-20.159l4.766-26.809c0.853-5.037,0.298-9.483-5.419-9.483
				c-6.162,0-8.525,3.967-9.678,10.449l-4.563,25.842h-20.106V203.816z M28.726,203.816l-8.671-50.714h20.152l3.267,32.032
				l14.436-32.032h19.361l-26.079,50.714L28.726,203.816L28.726,203.816z M180.27,146.615l2.502-14.352h20.159l-2.555,14.352H180.27
				z"/>
			<g>
				<g>
					<defs>
						<polyline id="SVGID_1_" points="54.903,125.224 60.273,123.259 63.783,132.908 48.79,138.39 0,4.408 9.678,0.928 
							54.903,125.224 						"/>
					</defs>
					<clipPath id="SVGID_2_">
						<use xlink:href="#SVGID_1_"  style="overflow:visible;"/>
					</clipPath>
					
						<linearGradient id="SVGID_3_" gradientUnits="userSpaceOnUse" x1="3793.041" y1="3163.8706" x2="3796.2424" y2="3163.8706" gradientTransform="matrix(-7.0595 -19.3951 2.6758 -0.9741 18340.1289 76710.1641)">
						<stop  offset="0" style="stop-color:#ED1B34"/>
						<stop  offset="1" style="stop-color:#FFFFFF"/>
					</linearGradient>
					<polygon style="clip-path:url(#SVGID_2_);fill:url(#SVGID_3_);" points="7.461,158.897 -44.184,17.009 56.32,-19.58 
						107.965,122.306 					"/>
				</g>
			</g>
			<g>
				<g>
					<defs>
						<polyline id="SVGID_4_" points="54.903,125.224 396.492,0.892 400,10.535 48.79,138.39 43.775,124.585 53.402,121.063 
							54.903,125.224 						"/>
					</defs>
					<clipPath id="SVGID_5_">
						<use xlink:href="#SVGID_4_"  style="overflow:visible;"/>
					</clipPath>
					
						<linearGradient id="SVGID_6_" gradientUnits="userSpaceOnUse" x1="3519.8848" y1="2184.5823" x2="3522.7305" y2="2184.5823" gradientTransform="matrix(49.9357 -18.1751 0.9107 2.5024 -177499.2344 58563.9922)">
						<stop  offset="0" style="stop-color:#ED1B34"/>
						<stop  offset="1" style="stop-color:#FFFFFF"/>
					</linearGradient>
					<polygon style="clip-path:url(#SVGID_5_);fill:url(#SVGID_6_);" points="-0.416,16.974 358.33,-113.595 444.189,122.306 
						85.443,252.884 					"/>
				</g>
			</g>
			<g>
				<g>
					<defs>
						<polyline id="SVGID_7_" points="192.804,223.108 195.109,210.138 227.253,167.81 202.077,167.81 204.738,153.103 
							252.826,153.103 250.471,166.074 218.172,208.395 245.657,208.395 361.638,208.395 359.082,223.108 243.044,223.108 
							192.804,223.108 						"/>
					</defs>
					<clipPath id="SVGID_8_">
						<use xlink:href="#SVGID_7_"  style="overflow:visible;"/>
					</clipPath>
					
						<linearGradient id="SVGID_9_" gradientUnits="userSpaceOnUse" x1="3383.5955" y1="3719.0264" x2="3387.1523" y2="3719.0264" gradientTransform="matrix(23.3227 4.1124 -2.0414 11.578 -71040.7734 -56784.6719)">
						<stop  offset="0" style="stop-color:#ED1B34"/>
						<stop  offset="1" style="stop-color:#FFFFFF"/>
					</linearGradient>
					<polygon style="clip-path:url(#SVGID_8_);fill:url(#SVGID_9_);" points="197.895,124.23 373.607,155.214 356.546,251.98 
						180.833,220.998 					"/>
				</g>
			</g>
		</g>
	</g>
</g>
</svg>
