<?xml version="1.0" encoding="iso-8859-1"?>
<!-- Generator: Adobe Illustrator 17.0.2, SVG Export Plug-In . SVG Version: 6.00 Build 0)  -->
<!DOCTYPE svg PUBLIC "-//W3C//DTD SVG 1.1//EN" "http://www.w3.org/Graphics/SVG/1.1/DTD/svg11.dtd">
<svg version="1.1" id="Comp" xmlns="http://www.w3.org/2000/svg" xmlns:xlink="http://www.w3.org/1999/xlink" x="0px" y="0px"
	 width="360px" height="142px" viewBox="0 0 360 142" style="enable-background:new 0 0 360 142;" xml:space="preserve">
<g id="g38907" transform="matrix(1.25,0,0,-1.25,-539.88561,154.39707)">
	<path id="path38967" d="M475.83,60.395c-2.63-4.353-7.785-7.144-12.996-7.144c-7.435,0-12.885,6.024-12.885,13.46
		c0,7.442,5.45,13.474,12.885,13.474c5.211,0,10.366-2.795,12.996-7.151l9.306,15.069c-5.627,5.885-13.526,9.553-22.302,9.553
		c-17.072,0-30.926-13.865-30.926-30.945c0-17.076,13.854-30.906,30.926-30.906c8.776,0,16.675,3.638,22.302,9.516L475.83,60.395
		L475.83,60.395z"/>
	<path id="path38969" d="M490.524,96.234h17.709V37.212h-17.709V96.234L490.524,96.234z"/>
	<path id="path38971" d="M513.014,96.234V80.827h13.456V37.212h17.618v43.615h13.456v15.408H513.014L513.014,96.234z"/>
	<path id="path38973" d="M595.562,60.734c6.761,2.305,11.033,8.591,11.033,16.712c0,5.498-1.657,9.932-4.934,13.195
		c-3.661,3.664-9.236,5.594-16.122,5.594h-23.201V37.212h17.713v17.638l11.239-17.638H613.6L595.562,60.734L595.562,60.734z
		 M580.051,83.485c3.012-0.018,7.041-0.317,9.118-2.394c1.06-1.075,1.583-2.548,1.583-4.54c0-4.868-3.138-6.887-10.702-6.953V83.485
		L580.051,83.485z"/>
	<path id="path38975" d="M617.525,96.234h17.728V37.212h-17.728V96.234L617.525,96.234z"/>
	<path id="path38977" d="M682.766,69.09l19.539,27.144h-21.727l-8.109-12.495l-6.989,12.495h-21.661l18.14-27.056l-23.65-31.967
		h21.432l12.462,17.402l9.862-17.402h21.227L682.766,69.09L682.766,69.09z"/>
	<path id="path38979" d="M705.583,89.3c0,3.963,3.226,7.156,7.166,7.156c3.94,0,7.159-3.193,7.159-7.156
		c0-3.955-3.219-7.151-7.159-7.151C708.809,82.149,705.583,85.345,705.583,89.3L705.583,89.3z M712.75,83.102
		c3.425,0,6.208,2.78,6.208,6.198c0,3.421-2.784,6.209-6.208,6.209c-3.425,0-6.209-2.787-6.209-6.209
		C706.541,85.883,709.325,83.102,712.75,83.102L712.75,83.102z M714.038,89.068c0.921,0.136,1.93,0.582,1.93,1.922
		c0,1.897-1.694,2.28-3.374,2.28h-2.651v-7.866h1.274v3.108h1.377c1.429,0,1.974-0.446,1.974-2.106c0-0.446,0.015-0.718,0.103-1.002
		h1.296c-0.103,0.199-0.155,0.763-0.155,1.307C715.814,88.103,715.217,88.814,714.038,89.068L714.038,89.068z M711.218,89.462v2.865
		h1.377c1.238,0,1.989-0.431,1.989-1.337c0-1.035-0.7-1.528-1.989-1.528H711.218L711.218,89.462z"/>
	<path id="path38981" style="fill:#BE002F;" d="M488.274,112.287c0,6.117,4.968,11.092,11.103,11.092
		c6.142,0,11.103-4.975,11.103-11.092c0-6.12-4.96-11.111-11.103-11.111C493.242,101.176,488.274,106.166,488.274,112.287
		L488.274,112.287z"/>
	<path id="path38983" style="fill:#BE002F;" d="M626.385,10.057c6.121,0,11.107,4.986,11.107,11.114
		c0,6.12-4.986,11.092-11.107,11.092c-6.128,0-11.106-4.971-11.106-11.092C615.279,15.042,620.258,10.057,626.385,10.057
		L626.385,10.057z"/>
</g>
</svg>
