<?xml version="1.0" encoding="iso-8859-1"?>
<!-- Generator: Adobe Illustrator 17.0.2, SVG Export Plug-In . SVG Version: 6.00 Build 0)  -->
<!DOCTYPE svg PUBLIC "-//W3C//DTD SVG 1.1//EN" "http://www.w3.org/Graphics/SVG/1.1/DTD/svg11.dtd">
<svg version="1.1" id="Comp" xmlns="http://www.w3.org/2000/svg" xmlns:xlink="http://www.w3.org/1999/xlink" x="0px" y="0px"
	 width="188px" height="240px" viewBox="0 0 188 240" style="enable-background:new 0 0 188 240;" xml:space="preserve">
<g id="Layer_x0020_1">
	<g id="_76799096">
		<path id="_48208384" style="fill:#FFFFFF;" d="M54.136,105.306v-0.086c0.008-0.02,0-0.027,0-0.051V105.306L54.136,105.306z
			 M156.533,100.793c-2.178-1.612-4.837-3.572-5.766-4.638c0.508-0.957,1.694-2.741,2.725-4.212
			c5.189-7.577,14.87-21.686,14.87-41.9C168.362,26.96,151.478,0,103.913,0C81.392,0,55.896,7.433,33.937,20.409
			C14.227,32.062,1.485,45.639,1.485,54.993c0,2.229,0.863,4.275,2.498,5.907c6.164,6.145,23.353,6,43.251,6
			c29.579,0,41.771,1.62,41.771,6.324c0,5.7-34.869,19.746-34.869,31.996c0,14.179,29.271,16.817,42.521,19.184
			c12.488,2.241,13.765,8.998,13.765,13.636c0,8.671-3.193,16.372-8.998,21.67c-5.489,5.017-12.285,8.202-22.248,7.742
			c3.162-22.791-12.988-38.164-36.481-38.164c-26.546,0-42.427,21.99-42.427,43.239C0.267,206.044,31.224,240,90.403,240
			c23.415,0,47.088-7.722,64.932-21.186c14.776-11.142,32.398-31.41,32.398-64.691C187.733,123.794,167.433,108.835,156.533,100.793
			L156.533,100.793z"/>
		<path id="_76397856" d="M54.136,105.306v-0.086c0.008-0.02,0-0.027,0-0.051V105.306L54.136,105.306z M156.533,100.793
			c-2.178-1.612-4.837-3.572-5.766-4.638c0.508-0.957,1.694-2.741,2.725-4.212c5.189-7.577,14.87-21.686,14.87-41.9
			C168.362,26.96,151.478,0,103.913,0C81.392,0,55.896,7.433,33.937,20.409C14.227,32.062,1.485,45.639,1.485,54.993
			c0,2.229,0.863,4.275,2.498,5.907c6.164,6.145,23.353,6,43.251,6c29.579,0,41.771,1.62,41.771,6.324
			c0,5.7-34.869,19.746-34.869,31.996c0,14.179,29.271,16.817,42.521,19.184c12.488,2.241,13.765,8.998,13.765,13.636
			c0,8.671-3.193,16.372-8.998,21.67c-5.489,5.017-12.285,8.202-22.248,7.742c3.162-22.791-12.988-38.164-36.481-38.164
			c-26.546,0-42.427,21.99-42.427,43.239C0.267,206.044,31.224,240,90.403,240c23.415,0,47.088-7.722,64.932-21.186
			c14.776-11.142,32.398-31.41,32.398-64.691C187.733,123.794,167.433,108.835,156.533,100.793L156.533,100.793z M60.951,105.235
			h-0.054c0.129-3.732,10.318-10.248,17.079-14.558c9.943-6.352,17.79-11.364,17.79-17.454c0-2.459-0.945-4.716-2.744-6.508
			c-6.75-6.726-25.722-6.66-45.808-6.57c-7.312,0.019-15.073,0.25-22.463-0.383c7.53-2.498,16.677-7.398,26.788-12.793
			c14.796-7.913,31.313-16.743,46.803-20.277c-4.111,4.107-6.808,9.069-6.808,13.105c0,1.648,1.011,3.408,3.83,3.408
			c2.491,0,5.431-0.964,8.831-2.085c8.986-2.932,20.971-6.839,34.455,3.061c-4.615-0.02-8.409,1.253-10.56,2.928
			c-2.069,1.608-2.51,3.342-2.51,4.497c0,1.866,1.405,3.443,3.342,5.633c3.034,3.42,7.183,8.1,7.183,15.557
			c0,6.18-2.604,12.602-6.347,17.169c0.562-4.021-0.133-9.966-2.53-12.695c-1.124-1.277-2.604-1.952-4.279-1.952
			c-2.732,0-5.383,2.213-9.42,5.559c-2.838,2.346-6.36,5.266-10.825,8.155c-13.257,8.53-28.315,17.247-39.362,17.247
			C62.685,106.282,60.951,106.102,60.951,105.235L60.951,105.235z M77.43,173.857c11.708,0.632,21.276-2.518,28.553-9.166
			c7.117-6.496,11.188-16.213,11.188-26.651c0-5.915-2.088-10.15-6.703-13.831c17.313,3.556,35.888,12.414,45.449,26.277
			c-4.969-1.73-8.061-2.194-11.309-2.194c-2.483,0-4.7,2.733-4.7,6.016c0,1.675,0.664,3.724,1.514,6.32
			c2.604,8.022,6.8,20.933-4.072,37.212c0.215-6.723-1.507-12.118-3.654-14.788c-1.495-1.854-3.014-2.248-4.025-2.248
			c-3.361,0-5.11,3.181-7.546,7.585c-4.392,7.952-11.563,20.886-34.158,27.214c3.22-4.934,4.325-10.228,3.154-13.09
			c-0.582-1.417-1.749-2.272-3.135-2.272h-0.086c-2.17,0.093-4.868,0.863-8.007,1.737c-10.185,2.854-25.207,7.046-40.729-5.438
			c3.155-0.254,5.879-1.214,7.722-2.807c1.331-1.14,2.062-2.557,2.062-3.97c0-2.128-1.761-3.771-3.998-5.848
			c-4.431-4.103-10.271-9.541-5.59-20.842c0.617,2.467,1.753,4.681,3.353,6.445c1.882,2.089,4.146,3.283,6.227,3.283
			c4.587,0,4.587-3.9,4.587-6.476c0-3.393,3.091-6.364,6.609-6.364c9.982,0,13.745,14.741,10.431,22.74
			C73.881,180.13,76.45,176.348,77.43,173.857L77.43,173.857z M151.275,213.418c-16.709,12.594-38.89,19.82-60.873,19.82
			c-54.724,0-83.374-30.551-83.374-60.712c0-17.934,13.378-36.614,35.7-36.614c13.187,0,33.721,6.481,31.152,32.144
			c-0.382-2.6-3.763-11.735-13.745-11.735c-5.559,0-10.259,4.575-10.259,10.002c0,2.209-0.515,2.826-0.937,2.826
			c-3.689,0-8.295-5.43-7.351-14.522c-14.347,15.998-4.122,27.334,0.878,31.961c1.116,1.046,2.819,2.611,2.838,3.174
			c0,1.573-4.111,4.149-14.428,3.205c17.977,21.409,38.913,15.631,50,12.508c2.772-0.769,6.078-2.194,6.941-0.898
			c1.46,1.98-2.456,11.181-7.745,15.994c30.282-3.955,40.217-21.342,45.234-30.419c1.694-3.053,3.146-5.707,4.364-5.707
			c3.154,0,5.965,12.898,3.838,22.794c20.077-18.695,14.299-38.765,11.368-47.74c-0.711-2.19-1.319-4.088-1.319-5.192
			c0-1.659,0.523-2.12,1.675-2.413c5.02,0,10.884,1.796,17.86,5.126c-18.57-43.473-82.796-37.508-98.396-47.127
			c11.801-0.632,26.78-9.299,39.975-17.79c4.661-3.014,8.276-6.008,11.188-8.424c3.045-2.526,5.676-4.715,7.089-4.715
			c3.904,0,4.447,11.466,2.436,18.492c9.764-6.297,14.362-15.768,14.362-24.657c0-8.834-4.88-14.343-8.089-17.981
			c-1.003-1.136-2.381-2.67-2.428-3.209c0-0.5,0.375-1.089,1.097-1.624c3.369-2.467,9.935-3.385,16.779-1.835
			c-15.057-19.347-33.772-13.843-44.047-10.486c-3.107,1.019-7.706,2.459-7.706,1.179c0-3.658,4.833-11.138,13.421-16.338
			C91.242,21.315,67.159,34.478,49.83,43.758c-14.179,7.577-27.522,14.694-35.201,14.694c-4.735,0-6.395-1.721-6.395-3.459
			c0-13.14,46.53-48.24,95.679-48.24c18.621,0,33.839,4.595,44.008,13.289c8.819,7.55,13.691,18.199,13.691,30.001
			c0,18.117-8.577,30.614-13.703,38.074c-2.631,3.842-4.072,5.953-4.072,8.198c0,3.506,3.268,5.918,8.682,9.911
			c10.646,7.858,28.455,20.979,28.455,47.896C180.975,184.62,164.821,203.19,151.275,213.418L151.275,213.418z"/>
	</g>
</g>
</svg>
