<?xml version="1.0" encoding="iso-8859-1"?>
<!-- Generator: Adobe Illustrator 17.0.2, SVG Export Plug-In . SVG Version: 6.00 Build 0)  -->
<!DOCTYPE svg PUBLIC "-//W3C//DTD SVG 1.1//EN" "http://www.w3.org/Graphics/SVG/1.1/DTD/svg11.dtd">
<svg version="1.1" id="Comp" xmlns="http://www.w3.org/2000/svg" xmlns:xlink="http://www.w3.org/1999/xlink" x="0px" y="0px"
	 width="137px" height="240px" viewBox="0 0 137 240" style="enable-background:new 0 0 137 240;" xml:space="preserve">
<g id="layer1_1_" transform="translate(-89.9,-691.13264)">
	<path id="path2998" style="fill:#1D9F9E;" d="M158.52,691.133c-38.528,0-68.4,31.31-68.4,67.92
		c0,32.436,21.173,49.905,21.173,49.905c2.095,1.844,1.565,2.803,0.075,4.312c0,0-21.248,19.328-21.248,49.223
		c0,40.973,32.778,68.64,68.4,68.64c39.831,0,68.16-32.392,68.16-68.16c0-30.787-20.4-48.96-20.4-48.96
		c-2.876-2.769-2.868-3.229,0-5.76c0,0,20.4-17.145,20.4-49.2C226.68,722.837,197.583,691.133,158.52,691.133L158.52,691.133z
		 M143.295,726.368c1.947,0,3.657,1.005,4.65,2.52c0.993-1.517,2.709-2.52,4.658-2.52c2.237,0,4.165,1.321,5.048,3.225
		c0.883-1.903,2.804-3.225,5.04-3.225c2.234,0,4.163,1.318,5.048,3.217c0.884-1.9,2.814-3.217,5.048-3.217
		c3.071,0,5.557,2.486,5.557,5.557s-2.486,5.565-5.557,5.565c-2.234,0-4.163-1.318-5.048-3.218c-0.884,1.9-2.814,3.218-5.048,3.218
		c-2.236,0-4.157-1.322-5.04-3.225c-0.883,1.904-2.81,3.225-5.048,3.225c-1.949,0-3.664-1.003-4.658-2.52
		c-0.396,0.604-0.899,1.128-1.493,1.537c1.452,1.003,2.408,2.676,2.408,4.575c0,1.887-0.941,3.555-2.378,4.56
		c1.437,1.005,2.378,2.673,2.378,4.56s-0.941,3.555-2.378,4.56c0.44,0.308,0.828,0.683,1.162,1.102c1.019-1.279,2.588-2.1,4.35-2.1
		c2.039,0,3.817,1.101,4.785,2.737c0.967-1.639,2.752-2.737,4.792-2.737c2.015,0,3.78,1.072,4.755,2.677
		c0.975-1.605,2.74-2.677,4.755-2.677c3.071,0,5.565,2.486,5.565,5.558c0,3.071-2.494,5.565-5.565,5.565
		c-2.015,0-3.78-1.072-4.755-2.677c-0.975,1.605-2.74,2.677-4.755,2.677c-2.041,0-3.825-1.099-4.792-2.737
		c-0.968,1.637-2.746,2.737-4.785,2.737c-1.762,0-3.331-0.821-4.35-2.1c-0.341,0.428-0.742,0.798-1.193,1.11
		c1.454,1.003,2.408,2.675,2.408,4.575s-0.954,3.579-2.408,4.582c1.452,1.003,2.408,2.676,2.408,4.575
		c0,1.9-0.954,3.572-2.408,4.575c0.588,0.406,1.091,0.918,1.485,1.515c0.992-1.525,2.71-2.535,4.665-2.535
		c2.237,0,4.165,1.321,5.048,3.225c0.883-1.903,2.804-3.225,5.04-3.225c2.234,0,4.163,1.318,5.048,3.218
		c0.884-1.9,2.814-3.218,5.048-3.218c3.071,0,5.557,2.494,5.557,5.565c0,3.071-2.486,5.557-5.557,5.557
		c-2.234,0-4.164-1.317-5.048-3.217c-0.884,1.901-2.813,3.217-5.048,3.217c-2.237,0-4.157-1.321-5.04-3.225
		c-0.882,1.905-2.81,3.225-5.048,3.225c-1.941,0-3.648-0.997-4.642-2.505c-0.992,1.525-2.71,2.535-4.665,2.535
		c-3.071,0-5.557-2.486-5.557-5.558c0-1.899,0.955-3.572,2.407-4.575c-1.454-1.003-2.407-2.675-2.407-4.575
		c0-1.899,0.955-3.572,2.407-4.575c-1.454-1.003-2.407-2.683-2.407-4.583s0.954-3.572,2.407-4.575
		c-1.452-1.003-2.407-2.676-2.407-4.575c0-1.887,0.941-3.555,2.378-4.56c-1.437-1.005-2.378-2.673-2.378-4.56
		c0-1.887,0.941-3.555,2.378-4.56c-1.437-1.005-2.378-2.673-2.378-4.56c0-1.899,0.955-3.572,2.407-4.575
		c-1.454-1.003-2.407-2.683-2.407-4.583C137.738,728.854,140.224,726.368,143.295,726.368L143.295,726.368z M143.295,829.95
		c1.947,0,3.657,1.005,4.65,2.52c0.993-1.517,2.709-2.52,4.658-2.52c2.237,0,4.165,1.321,5.048,3.225
		c0.883-1.903,2.804-3.225,5.04-3.225c2.234,0,4.163,1.318,5.048,3.218c0.884-1.9,2.814-3.218,5.048-3.218
		c3.071,0,5.557,2.494,5.557,5.565s-2.486,5.557-5.557,5.557c-2.234,0-4.163-1.318-5.048-3.218c-0.884,1.9-2.814,3.218-5.048,3.218
		c-2.236,0-4.157-1.322-5.04-3.225c-0.883,1.904-2.81,3.225-5.048,3.225c-1.949,0-3.664-1.003-4.658-2.52
		c-0.394,0.601-0.895,1.129-1.485,1.538c1.449,1.004,2.4,2.679,2.4,4.575c0,1.889-0.945,3.555-2.385,4.56
		c1.441,1.005,2.385,2.67,2.385,4.56c0,1.889-0.945,3.555-2.385,4.56c0.443,0.309,0.834,0.681,1.17,1.102
		c1.019-1.279,2.588-2.1,4.35-2.1c2.039,0,3.817,1.101,4.785,2.737c0.967-1.639,2.752-2.737,4.792-2.737
		c2.015,0,3.78,1.072,4.755,2.677c0.975-1.605,2.74-2.677,4.755-2.677c3.071,0,5.565,2.494,5.565,5.565
		c0,3.071-2.494,5.558-5.565,5.558c-2.015,0-3.78-1.072-4.755-2.677c-0.975,1.605-2.74,2.677-4.755,2.677
		c-2.041,0-3.825-1.099-4.792-2.738c-0.968,1.637-2.746,2.738-4.785,2.738c-1.762,0-3.331-0.821-4.35-2.1
		c-0.342,0.429-0.74,0.806-1.193,1.117c1.452,1.003,2.408,2.676,2.408,4.575c0,1.896-0.951,3.571-2.4,4.575
		c1.449,1.004,2.4,2.679,2.4,4.575c0,1.899-0.955,3.572-2.408,4.575c0.589,0.406,1.09,0.925,1.485,1.522
		c0.992-1.525,2.71-2.535,4.665-2.535c2.237,0,4.165,1.321,5.048,3.225c0.883-1.903,2.804-3.225,5.04-3.225
		c2.234,0,4.163,1.318,5.048,3.218c0.884-1.9,2.814-3.218,5.048-3.218c3.071,0,5.557,2.486,5.557,5.557
		c0,3.071-2.486,5.565-5.557,5.565c-2.234,0-4.163-1.318-5.048-3.218c-0.884,1.9-2.814,3.218-5.048,3.218
		c-2.236,0-4.157-1.322-5.04-3.225c-0.883,1.904-2.81,3.225-5.048,3.225c-1.941,0-3.648-0.997-4.642-2.505
		c-0.992,1.525-2.71,2.535-4.665,2.535c-3.071,0-5.557-2.494-5.557-5.565c0-1.9,0.954-3.572,2.407-4.575
		c-1.452-1.003-2.407-2.676-2.407-4.575c0-1.896,0.951-3.571,2.4-4.575c-1.449-1.004-2.4-2.679-2.4-4.575
		c0-1.899,0.955-3.572,2.407-4.575c-1.454-1.003-2.407-2.675-2.407-4.575c0-1.89,0.944-3.563,2.385-4.568
		c-1.44-1.005-2.385-2.671-2.385-4.56c0-1.89,0.944-3.555,2.385-4.56c-1.44-1.005-2.385-2.671-2.385-4.56
		c0-1.896,0.951-3.571,2.4-4.575c-1.449-1.004-2.4-2.679-2.4-4.575C137.738,832.444,140.224,829.95,143.295,829.95z"/>
</g>
</svg>
