<?xml version="1.0" encoding="iso-8859-1"?>
<!-- Generator: Adobe Illustrator 17.0.2, SVG Export Plug-In . SVG Version: 6.00 Build 0)  -->
<!DOCTYPE svg PUBLIC "-//W3C//DTD SVG 1.1//EN" "http://www.w3.org/Graphics/SVG/1.1/DTD/svg11.dtd">
<svg version="1.1" id="Comp" xmlns="http://www.w3.org/2000/svg" xmlns:xlink="http://www.w3.org/1999/xlink" x="0px" y="0px"
	 width="400px" height="130px" viewBox="0 0 400 130" style="enable-background:new 0 0 400 130;" xml:space="preserve">
<g>
	<path style="fill:#DD4814;" d="M129.996,65c0,35.897-29.102,64.998-64.998,64.998S0,100.897,0,65
		C0,29.102,29.102,0.002,64.998,0.002S129.996,29.102,129.996,65z M59.339,88.985C51.081,89,36.667,89.141,30.94,90.024
		c-3.094,0.489-2.854,2.54-2.946,4.232c0,0.005,0,0.013,0,0.02c0,0.001,0,0.007,0,0.009c0.092,1.692-0.148,3.741,2.946,4.233
		c7.629,1.174,30.649,1.038,34.039,1.038c0.005,0,0.021,0,0.026,0c3.39,0,26.41,0.136,34.037-1.038
		c3.096-0.491,2.868-2.541,2.957-4.233c-0.094-1.696,0.155-3.768-2.957-4.261c-7.626-1.176-30.647-1.039-34.037-1.039
		C64.168,88.985,62.092,88.98,59.339,88.985L59.339,88.985z M59.339,30.444c-8.259,0.013-22.672,0.154-28.399,1.037
		c-3.094,0.491-2.854,2.54-2.946,4.232c0,0.007,0,0.014,0,0.02c0,0.005,0,0.007,0,0.011c0.092,1.691-0.148,3.741,2.946,4.232
		c7.629,1.176,30.649,1.039,34.039,1.039c0.005,0,0.021,0,0.026,0c3.39,0,26.41,0.136,34.037-1.039
		c3.096-0.49,2.868-2.54,2.957-4.232c-0.094-1.697,0.155-3.77-2.957-4.262c-7.626-1.175-30.647-1.039-34.037-1.037
		C64.168,30.444,62.092,30.438,59.339,30.444L59.339,30.444z M59.339,69.471c-8.259,0.014-22.672,0.155-28.399,1.037
		c-3.094,0.491-2.854,2.542-2.946,4.234c0,0.005,0,0.013,0,0.018c0,0.006,0,0.008,0,0.012c0.092,1.691-0.148,3.741,2.946,4.233
		c7.629,1.173,30.649,1.038,34.039,1.037c0.005,0,0.021,0,0.026,0c3.39,0.001,26.41,0.136,34.037-1.037
		c3.096-0.491,2.868-2.541,2.957-4.233c-0.094-1.696,0.155-3.768-2.957-4.263c-7.626-1.174-30.647-1.037-34.037-1.037
		C64.168,69.471,62.092,69.467,59.339,69.471L59.339,69.471z M59.339,49.958c-8.259,0.014-22.672,0.155-28.399,1.037
		c-3.094,0.491-2.854,2.54-2.946,4.232c0,0.007,0,0.014,0,0.02c0,0.005,0,0.008,0,0.012c0.092,1.69-0.148,3.741,2.946,4.232
		c7.629,1.174,30.649,1.038,34.039,1.038c0.005,0,0.021,0,0.026,0c3.39,0,26.41,0.136,34.037-1.038
		c3.096-0.49,2.868-2.541,2.957-4.232c-0.094-1.698,0.155-3.771-2.957-4.263c-7.626-1.174-30.647-1.037-34.037-1.037
		C64.168,49.958,62.092,49.952,59.339,49.958L59.339,49.958z"/>
	<g>
		<path style="fill:#333333;" d="M185.075,89.459c-0.642-1.541-1.493-3.498-2.551-5.874c-1.06-2.374-2.2-4.943-3.418-7.704
			c-1.22-2.76-2.52-5.6-3.9-8.522c-1.382-2.92-2.682-5.681-3.9-8.281c-1.22-2.6-2.36-4.926-3.418-6.981
			c-1.06-2.054-1.911-3.626-2.553-4.718c-0.705,7.575-1.284,15.777-1.733,24.602c-0.449,8.828-0.835,17.735-1.154,26.722h-9.15
			c0.256-5.776,0.545-11.603,0.867-17.477c0.32-5.875,0.689-11.652,1.107-17.333c0.416-5.681,0.867-11.219,1.347-16.61
			c0.482-5.393,1.013-10.497,1.589-15.311h8.186c1.733,2.826,3.595,6.163,5.586,10.015c1.989,3.852,3.978,7.881,5.969,12.085
			c1.989,4.206,3.914,8.41,5.779,12.615c1.86,4.205,3.562,8.04,5.104,11.507c1.54-3.466,3.24-7.302,5.101-11.507
			c1.862-4.205,3.787-8.409,5.779-12.615c1.989-4.203,3.98-8.233,5.971-12.085c1.989-3.852,3.851-7.189,5.583-10.015h8.186
			c2.182,21.507,3.818,43.75,4.911,66.732h-9.147c-0.322-8.986-0.708-17.894-1.157-26.722c-0.449-8.825-1.027-17.028-1.733-24.602
			c-0.642,1.092-1.493,2.665-2.553,4.718c-1.058,2.055-2.198,4.381-3.418,6.981c-1.22,2.6-2.52,5.361-3.9,8.281
			c-1.38,2.922-2.68,5.762-3.898,8.522c-1.222,2.761-2.36,5.33-3.421,7.704c-1.058,2.376-1.909,4.333-2.551,5.874H185.075z"/>
		<path style="fill:#333333;" d="M281.368,98.703c-1.093-2.889-2.118-5.729-3.082-8.522c-0.962-2.793-1.958-5.633-2.983-8.522
			h-30.237L239,98.703h-9.726c2.567-7.061,4.975-13.593,7.222-19.596c2.245-6.002,4.443-11.699,6.594-17.092
			c2.151-5.392,4.286-10.544,6.404-15.455c2.118-4.911,4.333-9.774,6.646-14.589h8.569c2.311,4.815,4.525,9.678,6.644,14.589
			c2.118,4.911,4.253,10.063,6.404,15.455c2.151,5.393,4.349,11.09,6.597,17.092c2.245,6.003,4.652,12.535,7.222,19.596H281.368z
			 M272.607,73.956c-2.057-5.586-4.093-10.993-6.115-16.226c-2.022-5.232-4.126-10.255-6.307-15.069
			c-2.247,4.815-4.382,9.837-6.404,15.069c-2.022,5.233-4.029,10.64-6.018,16.226H272.607z"/>
		<path style="fill:#333333;" d="M342.995,98.703c-1.093-2.889-2.118-5.729-3.082-8.522c-0.962-2.793-1.958-5.633-2.983-8.522
			h-30.237l-6.065,17.044h-9.726c2.567-7.061,4.975-13.593,7.222-19.596c2.245-6.002,4.443-11.699,6.594-17.092
			c2.151-5.392,4.286-10.544,6.404-15.455s4.333-9.774,6.646-14.589h8.569c2.311,4.815,4.526,9.678,6.644,14.589
			s4.253,10.063,6.404,15.455c2.151,5.393,4.349,11.09,6.597,17.092c2.245,6.003,4.652,12.535,7.222,19.596H342.995z
			 M334.233,73.956c-2.057-5.586-4.093-10.993-6.115-16.226c-2.022-5.232-4.126-10.255-6.307-15.069
			c-2.247,4.815-4.382,9.837-6.404,15.069c-2.022,5.233-4.029,10.64-6.018,16.226H334.233z"/>
		<path style="fill:#333333;" d="M375.541,92.059c9.759,0,14.637-3.338,14.637-10.015c0-2.054-0.433-3.804-1.3-5.248
			c-0.867-1.445-2.038-2.696-3.515-3.756s-3.162-1.974-5.054-2.744c-1.895-0.771-3.9-1.541-6.018-2.311
			c-2.44-0.835-4.751-1.782-6.933-2.841c-2.184-1.059-4.079-2.311-5.682-3.756c-1.606-1.445-2.875-3.161-3.804-5.152
			c-0.931-1.989-1.396-4.396-1.396-7.222c0-5.841,1.989-10.399,5.971-13.673c3.978-3.275,9.467-4.911,16.466-4.911
			c4.044,0,7.718,0.433,11.026,1.3c3.305,0.866,5.729,1.814,7.269,2.84l-2.986,7.608c-1.347-0.833-3.355-1.652-6.018-2.456
			c-2.664-0.802-5.762-1.204-9.291-1.204c-1.798,0-3.468,0.193-5.007,0.578c-1.542,0.384-2.889,0.963-4.046,1.733
			c-1.154,0.77-2.069,1.75-2.743,2.937c-0.675,1.188-1.011,2.585-1.011,4.188c0,1.798,0.353,3.308,1.06,4.526
			c0.705,1.22,1.7,2.297,2.983,3.227c1.284,0.931,2.776,1.781,4.478,2.552c1.7,0.77,3.578,1.54,5.633,2.311
			c2.889,1.155,5.536,2.311,7.944,3.466c2.407,1.155,4.493,2.537,6.26,4.14c1.763,1.606,3.129,3.515,4.093,5.73
			c0.962,2.215,1.443,4.896,1.443,8.04c0,5.842-2.135,10.337-6.404,13.48c-4.269,3.148-10.288,4.718-18.055,4.718
			c-2.633,0-5.054-0.176-7.269-0.529c-2.215-0.353-4.189-0.771-5.922-1.251c-1.735-0.482-3.228-0.994-4.478-1.542
			c-1.253-0.543-2.231-1.011-2.936-1.396l2.793-7.703c1.474,0.836,3.721,1.767,6.74,2.793
			C367.485,91.545,371.176,92.059,375.541,92.059z"/>
	</g>
</g>
</svg>
