<?xml version="1.0" encoding="iso-8859-1"?>
<!-- Generator: Adobe Illustrator 17.0.2, SVG Export Plug-In . SVG Version: 6.00 Build 0)  -->
<!DOCTYPE svg PUBLIC "-//W3C//DTD SVG 1.1//EN" "http://www.w3.org/Graphics/SVG/1.1/DTD/svg11.dtd">
<svg version="1.1" id="Comp" xmlns="http://www.w3.org/2000/svg" xmlns:xlink="http://www.w3.org/1999/xlink" x="0px" y="0px"
	 width="460px" height="110px" viewBox="0 0 460 110" style="enable-background:new 0 0 460 110;" xml:space="preserve">
<g id="logo">
	<g>
		<path d="M108.036,102.565H82.524L74.72,83.74H32.202l-7.11,18.824H0L38.334,7.491h27.463L108.036,102.565z M52.414,30.209
			l-13.94,36.94h29.275L52.414,30.209z"/>
		<path d="M200.707,7.491h20.631v95.074h-23.701V43.179l-25.65,29.829h-3.623l-25.648-29.829v59.385h-23.701V7.491h20.631
			l30.528,35.268L200.707,7.491z"/>
		<path d="M281.391,7.491c34.709,0,52.55,21.604,52.55,47.673c0,27.322-17.283,47.401-55.2,47.401h-39.312V7.491H281.391z
			 M263.127,85.139h15.471c23.838,0,30.948-16.174,30.948-30.117c0-16.312-8.784-30.109-31.227-30.109h-15.193L263.127,85.139
			L263.127,85.139z"/>
	</g>
	<g>
		<polygon points="430.116,30.033 381.092,30.033 351.208,0.144 460,0.144 460,108.94 430.116,79.055 		"/>
		<polygon points="381.057,79.09 381.057,36.023 350.29,66.789 350.29,109.856 393.351,109.856 424.117,79.09 		"/>
	</g>
</g>
</svg>
