<?xml version="1.0" encoding="iso-8859-1"?>
<!-- Generator: Adobe Illustrator 17.0.2, SVG Export Plug-In . SVG Version: 6.00 Build 0)  -->
<!DOCTYPE svg PUBLIC "-//W3C//DTD SVG 1.1//EN" "http://www.w3.org/Graphics/SVG/1.1/DTD/svg11.dtd">
<svg version="1.1" id="Comp" xmlns="http://www.w3.org/2000/svg" xmlns:xlink="http://www.w3.org/1999/xlink" x="0px" y="0px"
	 width="400px" height="136px" viewBox="0 0 400 136" style="enable-background:new 0 0 400 136;" xml:space="preserve">
<g>
	<path style="fill:#0094D9;" d="M67.295,0.716c2.004-0.012,4-0.465,5.989-0.042c8.804,0.781,17.485,3.2,25.316,7.323
		c10.131,5.189,18.847,13.077,25.17,22.532c6.45,9.616,10.27,20.939,11.131,32.478c-0.142,3.054-0.231,6.127,0.066,9.173
		c-0.631,8.773-2.827,17.474-6.743,25.374c-4.466,9.181-11.078,17.304-19.128,23.582c-10.031,7.865-22.339,12.785-35.04,13.95
		c-1.935,0.138-3.866,0.496-5.811,0.346c-1.289-0.085-2.608,0.327-3.846-0.2c4.742-13.343,9.481-26.689,14.266-40.021
		c5.207-0.096,10.42,0.035,15.627-0.062c3.324-0.115,6.608-2.139,7.701-5.369c4.404-12.4,8.92-24.766,13.185-37.221
		c0.7-1.881,1.088-3.977,0.531-5.946c-0.754-2.496-3.038-4.262-5.493-4.923c-2.131-0.662-4.381-0.419-6.573-0.458
		c-6.685-0.019-13.37,0.035-20.051-0.031c-0.108,0.223-0.327,0.665-0.435,0.885c-10.824,30.401-21.628,60.81-32.493,91.196
		c-11.162-2.897-21.562-8.696-29.855-16.713c-9.989-9.558-16.924-22.27-19.489-35.859C0.515,76.631,0.223,72.477,0,68.334
		c0.181-8.627,1.596-17.293,4.846-25.316C12.774,22.751,31.117,6.793,52.44,2.231c-10.916,30.266-21.578,60.625-32.49,90.896
		c0.696,0.212,1.427,0.131,2.142,0.138c3.977-0.019,7.958,0.008,11.935-0.008c0.542-0.004,0.485-0.758,0.712-1.104
		c4.792-13.531,9.643-27.043,14.451-40.567c0.288-0.838,0.558-1.685,0.942-2.481c2.492,0.042,4.985-0.012,7.477,0.027
		c-5.227,14.658-10.408,29.34-15.712,43.97c0.554,0.223,1.158,0.154,1.739,0.166c4.177-0.039,8.354,0.027,12.531-0.031
		c4.719-13.32,9.496-26.616,14.228-39.928c1.011-2.723,1.1-5.943-0.508-8.454c-1.404-2.223-4.069-3.285-6.612-3.389
		c-3.477-0.104-6.958,0.008-10.439-0.054C57.621,27.836,62.548,14.309,67.295,0.716z M95.007,49.279
		c0.415-0.469,1.154-0.185,1.708-0.265c1.931,0.035,3.861-0.015,5.793,0.027C98.011,61.876,93.303,74.638,88.88,87.5
		c-2.5,0.177-5.019,0.069-7.523,0.054C85.922,74.803,90.442,62.034,95.007,49.279z"/>
	<g>
		<path d="M179.163,31.98c-3.488,1.417-6.34,3.688-8.555,6.811c-2.217,3.125-3.833,7.158-4.85,12.098
			c-1.018,4.941-1.526,10.898-1.526,17.874c0,6.904,0.508,12.806,1.526,17.71c1.017,4.905,2.633,8.937,4.85,12.098
			c2.215,3.16,5.03,5.468,8.446,6.92c3.414,1.453,7.52,2.18,12.315,2.18c3.85,0,7.247-0.311,10.19-0.927
			c2.943-0.616,5.466-1.325,7.575-2.125v-5.34c0-1.744-0.909-2.616-2.725-2.616c-1.163,0-2.871,0.182-5.122,0.545
			c-2.253,0.364-4.904,0.544-7.956,0.544c-2.98,0-5.558-0.398-7.738-1.198c-2.18-0.799-3.978-2.27-5.395-4.414
			c-1.417-2.142-2.49-5.139-3.215-8.991c-0.727-3.851-1.09-8.827-1.09-14.931c0-5.521,0.29-10.117,0.872-13.787
			c0.581-3.668,1.562-6.594,2.943-8.773c1.379-2.18,3.196-3.722,5.449-4.632c2.251-0.908,5.014-1.362,8.283-1.362
			c2.76,0,5.431,0.128,8.01,0.381c2.578,0.256,4.921,0.528,7.03,0.818V35.74c0-0.943-0.164-1.707-0.49-2.289
			c-0.327-0.581-0.926-1.053-1.798-1.417c-1.526-0.654-3.651-1.18-6.376-1.58c-2.725-0.398-5.359-0.599-7.902-0.599
			C186.901,29.855,182.65,30.563,179.163,31.98L179.163,31.98z M230.276,30.727c0-0.799-0.237-1.417-0.708-1.853
			c-0.473-0.435-1.108-0.653-1.907-0.653h-8.392v62.34c0,2.762,0.164,5.177,0.49,7.248c0.327,2.071,0.926,3.798,1.798,5.177
			c0.872,1.382,2.033,2.417,3.487,3.107c1.453,0.689,3.305,1.035,5.558,1.035c1.453,0,2.796-0.092,4.033-0.272
			c1.235-0.182,2.433-0.453,3.597-0.817v-5.013c0-1.089-0.291-1.779-0.872-2.071c-0.582-0.289-1.454-0.472-2.616-0.545
			c-1.672-0.071-2.834-0.398-3.488-0.98c-0.654-0.581-0.981-1.853-0.981-3.815V30.727L230.276,30.727z"/>
		<path d="M287.363,100.805c3.668-4.649,5.504-12.024,5.504-22.124c0-10.027-1.836-17.365-5.504-22.015
			c-3.67-4.649-9.609-6.976-17.819-6.976c-8.211,0-14.151,2.326-17.819,6.976c-3.67,4.65-5.504,11.988-5.504,22.015
			c0,10.1,1.834,17.475,5.504,22.124c3.668,4.651,9.608,6.975,17.819,6.975C277.754,107.78,283.693,105.455,287.363,100.805
			L287.363,100.805z M281.042,88.653c-0.473,2.653-1.199,4.76-2.18,6.321c-0.981,1.563-2.253,2.653-3.814,3.27
			c-1.563,0.618-3.397,0.926-5.504,0.926c-2.108,0-3.942-0.308-5.504-0.926c-1.563-0.616-2.834-1.707-3.814-3.27
			c-0.981-1.561-1.708-3.668-2.18-6.321c-0.473-2.652-0.708-5.976-0.708-9.973c0-3.924,0.235-7.193,0.708-9.809
			c0.472-2.616,1.199-4.703,2.18-6.267c0.981-1.562,2.251-2.671,3.814-3.325c1.562-0.653,3.396-0.98,5.504-0.98
			c2.106,0,3.94,0.327,5.504,0.98c1.562,0.654,2.834,1.763,3.814,3.325c0.981,1.563,1.706,3.651,2.18,6.267
			c0.472,2.616,0.708,5.885,0.708,9.809C281.75,82.677,281.514,86.001,281.042,88.653L281.042,88.653z M334.825,50.998v41.959
			c-1.236,1.237-2.907,2.452-5.013,3.652c-2.108,1.198-4.651,1.798-7.629,1.798c-3.052,0-5.378-0.817-6.975-2.452
			c-1.599-1.635-2.398-4.341-2.398-8.119V53.505c0-0.799-0.237-1.417-0.708-1.853c-0.473-0.436-1.109-0.654-1.907-0.654h-8.392
			v37.709c0,2.834,0.308,5.432,0.926,7.792c0.616,2.363,1.58,4.36,2.888,5.994c1.308,1.635,3.014,2.907,5.122,3.815
			c2.106,0.907,4.649,1.362,7.629,1.362c7.047,0,12.823-2.434,17.329-7.302l0.436,3.378c0.145,1.09,0.49,1.817,1.035,2.18
			c0.545,0.365,1.216,0.545,2.016,0.545h6.648V53.505c0-1.671-0.872-2.507-2.616-2.507H334.825L334.825,50.998z"/>
		<path d="M388.993,93.285c-1.163,1.164-2.708,2.308-4.632,3.433c-1.926,1.128-4.342,1.689-7.248,1.689
			c-4.141,0-6.975-1.561-8.501-4.686c-1.526-3.123-2.289-8.136-2.289-15.04c0-3.706,0.199-6.847,0.599-9.427
			c0.399-2.578,1.09-4.686,2.071-6.321c0.981-1.635,2.324-2.815,4.032-3.542c1.706-0.725,3.832-1.09,6.376-1.09
			c1.888,0,3.613,0.182,5.177,0.545c1.562,0.364,3.033,0.836,4.414,1.417V93.285L388.993,93.285z M383.489,105.273
			c2.578-1.452,4.703-3.087,6.376-4.904l0.436,3.378c0.145,1.09,0.49,1.817,1.035,2.18c0.545,0.365,1.216,0.545,2.016,0.545H400
			V30.727c0-0.799-0.237-1.417-0.708-1.853c-0.473-0.435-1.109-0.653-1.907-0.653h-8.392v24.304
			c-1.018-0.581-2.526-1.161-4.523-1.744c-1.999-0.581-4.523-0.872-7.575-0.872c-7.266,0-12.697,2.272-16.293,6.812
			c-3.597,4.542-5.395,12.043-5.395,22.506c0,9.155,1.471,16.149,4.414,20.98c2.943,4.833,7.684,7.248,14.223,7.248
			C377.694,107.453,380.909,106.726,383.489,105.273L383.489,105.273z"/>
	</g>
</g>
</svg>
