<?xml version="1.0" encoding="iso-8859-1"?>
<!-- Generator: Adobe Illustrator 17.0.2, SVG Export Plug-In . SVG Version: 6.00 Build 0)  -->
<!DOCTYPE svg PUBLIC "-//W3C//DTD SVG 1.1//EN" "http://www.w3.org/Graphics/SVG/1.1/DTD/svg11.dtd">
<svg version="1.1" xmlns="http://www.w3.org/2000/svg" xmlns:xlink="http://www.w3.org/1999/xlink" x="0px" y="0px" width="480px"
	 height="119px" viewBox="0 0 480 119" style="enable-background:new 0 0 480 119;" xml:space="preserve">
<g id="BK" style="display:none;">
	<rect x="-4100" y="-2240.5" style="display:inline;fill:#333333;" width="5100" height="3600"/>
</g>
<g id="Comp">
	<g>
		<path style="fill:#12110C;" d="M297.296,49.76c-2.526,1.972-5.776,2.958-9.75,2.958c-2.877,0-5.386-0.367-7.527-1.102
			c-2.141-0.734-4.086-1.973-5.834-3.717l4.626-4.621c1.095,1.096,2.388,1.884,3.878,2.363c1.492,0.48,3.144,0.72,4.959,0.72
			c4.317,0,6.476-1.513,6.476-4.54c0-1.273-0.326-2.261-0.979-2.966c-0.652-0.705-1.784-1.177-3.397-1.418l-2.06-0.309l-2.368-0.309
			c-3.123-0.444-5.492-1.454-7.105-3.029c-1.749-1.745-2.623-4.14-2.623-7.187c0-3.319,1.147-5.997,3.444-8.033
			c2.297-2.037,5.398-3.056,9.304-3.056c2.568,0,4.796,0.335,6.68,1.003c1.884,0.669,3.597,1.758,5.14,3.266l-4.524,4.472
			c-1.027-0.993-2.165-1.661-3.416-2.004c-1.249-0.344-2.612-0.515-4.085-0.515c-1.817,0-3.214,0.435-4.189,1.307
			c-0.977,0.871-1.464,1.974-1.464,3.305c0,0.957,0.376,1.819,1.131,2.588c0.753,0.768,1.867,1.254,3.338,1.459l2.211,0.308
			l2.106,0.308c1.645,0.24,3.023,0.585,4.137,1.03c1.112,0.445,2.065,1.045,2.853,1.799c1.883,1.784,2.827,4.373,2.827,7.767
			C301.084,45.072,299.819,47.789,297.296,49.76z"/>
		<path style="fill:#12110C;" d="M327.973,22.14v30.243h-7.159V22.14h-9.557v-6.357h26.274v6.357H327.973z"/>
		<path style="fill:#12110C;" d="M352.594,52.383v-36.6h24.117v6.357h-16.958v8.632h14.438v6.357h-14.438v8.899h16.958v6.356
			H352.594z"/>
		<path style="fill:#12110C;" d="M413.738,52.383l-2.157-6.491h-13.003l-2.209,6.491h-7.451l13.309-36.6h5.601l13.361,36.6H413.738z
			 M405.207,26.574l-4.626,13.297h9.096L405.207,26.574z"/>
		<path style="fill:#12110C;" d="M459.9,52.383V31.058l-6.967,13.874h-4.817l-7.019-13.874v21.325h-7.159v-36.6h7.034l9.552,19.784
			l9.5-19.784h7.034v36.6H459.9z"/>
		<path style="fill:#12110C;" d="M223.426,0.243c-19.18,0-34.785,15.605-34.785,34.787c0,0.149,0.004,0.3,0.004,0.448
			l-22.417,32.496c-3.625-0.153-7.27,0.478-10.724,1.9c-1.515,0.624-2.944,1.387-4.284,2.265L50.216,30.38
			c-1.699-7.861-7.081-14.798-15.051-18.12C22.239,6.874,7.34,13.01,1.954,25.937c-5.387,12.927,0.749,27.825,13.675,33.212
			c6.262,2.608,13.166,2.623,19.439,0.04c1.447-0.595,2.811-1.326,4.1-2.155l101.228,41.851c1.746,7.778,7.108,14.624,15.01,17.917
			c12.925,5.387,27.824-0.749,33.211-13.675c1.401-3.36,2.047-6.907,1.951-10.439l32.07-22.883c0.262,0.006,0.524,0.011,0.788,0.011
			c19.182,0,34.787-15.607,34.787-34.787C258.213,15.848,242.609,0.243,223.426,0.243z M17.861,53.792
			C10.344,50.659,5.804,43.356,5.804,35.679c0-2.507,0.484-5.054,1.507-7.51c4.155-9.973,15.649-14.705,25.621-10.551
			c4.695,1.956,8.209,5.548,10.2,9.834l-11.584-4.79c-7.354-3.063-15.8,0.414-18.865,7.768c-3.065,7.354,0.414,15.801,7.768,18.866
			l11.622,4.806C27.447,55.786,22.434,55.697,17.861,53.792z M183.261,100.895c-4.157,9.974-15.651,14.706-25.622,10.552
			c-4.611-1.922-8.083-5.422-10.094-9.604l11.331,4.683c7.354,3.066,15.801-0.414,18.865-7.768c3.064-7.354-0.414-15.8-7.767-18.865
			l-11.705-4.841c4.511-1.701,9.648-1.776,14.442,0.22c4.831,2.014,8.589,5.788,10.582,10.625
			C185.284,90.739,185.273,96.065,183.261,100.895z M223.426,58.208c-12.78,0-23.178-10.397-23.178-23.178
			c0-12.781,10.399-23.179,23.178-23.179c12.781,0,23.178,10.398,23.178,23.179C246.605,47.811,236.207,58.208,223.426,58.208z
			 M223.466,52.401c-9.615,0-17.411-7.794-17.411-17.411s7.796-17.411,17.411-17.411c9.618,0,17.412,7.795,17.412,17.411
			S233.084,52.401,223.466,52.401z"/>
		<g>
			<path style="fill:#1D1D1B;" d="M475.997,13.781c2.228,0,4.003,1.811,4.003,4.075c0,2.3-1.775,4.093-4.02,4.093
				c-2.228,0-4.039-1.793-4.039-4.093c0-2.263,1.811-4.075,4.039-4.075H475.997z M475.98,14.415c-1.792,0-3.26,1.539-3.26,3.441
				c0,1.938,1.468,3.459,3.278,3.459c1.811,0.018,3.26-1.521,3.26-3.441s-1.449-3.459-3.26-3.459H475.98z M475.22,20.229h-0.725
				v-4.546c0.38-0.054,0.743-0.108,1.286-0.108c0.689,0,1.142,0.145,1.412,0.344c0.273,0.199,0.416,0.507,0.416,0.941
				c0,0.598-0.397,0.96-0.887,1.104v0.036c0.399,0.073,0.67,0.435,0.76,1.105c0.109,0.706,0.219,0.978,0.29,1.123h-0.76
				c-0.109-0.145-0.217-0.561-0.307-1.159c-0.109-0.58-0.399-0.797-0.978-0.797h-0.507V20.229z M475.22,17.711h0.524
				c0.599,0,1.105-0.217,1.105-0.778c0-0.399-0.29-0.797-1.105-0.797c-0.234,0-0.397,0.018-0.524,0.036V17.711z"/>
		</g>
	</g>
</g>
<g id="Grid" style="display:none;">
</g>
<g id="Raster" style="display:none;">
</g>
</svg>
