<?xml version="1.0" encoding="iso-8859-1"?>
<!-- Generator: Adobe Illustrator 17.0.2, SVG Export Plug-In . SVG Version: 6.00 Build 0)  -->
<!DOCTYPE svg PUBLIC "-//W3C//DTD SVG 1.1//EN" "http://www.w3.org/Graphics/SVG/1.1/DTD/svg11.dtd">
<svg version="1.1" id="Comp" xmlns="http://www.w3.org/2000/svg" xmlns:xlink="http://www.w3.org/1999/xlink" x="0px" y="0px"
	 width="400px" height="80px" viewBox="0 0 400 80" style="enable-background:new 0 0 400 80;" xml:space="preserve">
<path style="fill:#002F87;" d="M383.075,10.746c0-4.465,3.648-8.12,8.147-8.12c2.153,0,4.17,0.868,5.703,2.378
	c1.528,1.558,2.35,3.594,2.35,5.741c0,2.151-0.822,4.216-2.35,5.717c-1.533,1.537-3.55,2.399-5.703,2.399
	C386.722,18.863,383.075,15.225,383.075,10.746z M382.388,10.746c0,4.858,3.967,8.811,8.834,8.811c2.353,0,4.527-0.91,6.208-2.577
	c1.673-1.676,2.571-3.872,2.571-6.234c0-2.365-0.898-4.563-2.571-6.239c-1.681-1.658-3.855-2.579-6.208-2.579
	C386.354,1.928,382.388,5.884,382.388,10.746z M387.919,15.936h1.23v-4.095h2.795c0.483,0,0.836,0.034,1.094,0.161
	c0.408,0.236,0.628,0.634,0.646,1.274l0.113,1.602c0,0.365,0.011,0.619,0.011,0.744c0.063,0.126,0.111,0.235,0.118,0.314h1.56
	v-0.224c-0.202-0.069-0.293-0.27-0.409-0.581c-0.062-0.169-0.062-0.441-0.072-0.804l-0.055-1.285c0-0.551-0.128-0.976-0.279-1.201
	c-0.193-0.248-0.509-0.465-0.864-0.608c0.415-0.202,0.733-0.526,0.994-0.878c0.213-0.381,0.334-0.825,0.334-1.394
	c0-1.094-0.422-1.854-1.284-2.265c-0.451-0.215-1.05-0.315-1.727-0.315h-4.207V15.936z M389.149,10.746V7.477h2.977
	c0.436,0,0.786,0.073,1.041,0.199c0.425,0.244,0.695,0.705,0.695,1.383c0,0.653-0.176,1.086-0.521,1.34
	c-0.329,0.237-0.779,0.347-1.342,0.347H389.149z M36.231,22.881L0,78.978h24.764l34.828-53.629L36.231,22.881z M185.233,21.622
	V0.832h-70.412c-9.577,0.599-13.768,5.114-16.907,8.374c-3.349,3.458-5.251,10.742-5.251,10.742V0.969c0,0-34.561,0-37.38,0
	c-2.821,0-5.509,1.185-7.537,3.963c-2.118,2.75-10.672,16.689-10.672,16.689H185.233z M376.697,21.64V0.832h-75.34
	c-9.548,0.599-13.759,5.114-16.906,8.374c-3.351,3.458-5.235,10.742-5.235,10.742v1.675L376.697,21.64z M209.963,0.933H188.91
	v20.688h21.053V0.933z M279.064,0.933h-21.032v20.688h21.032V0.933z M279.064,29.09l-20.681-1.222V51.87
	c0,0-0.063,6.914-6.816,6.914c-6.695,0-35.545,0-35.545,0s-6.018-0.49-6.018-6.85c0-6.346,0-27.326,0-27.326l-20.888-1.494v36.813
	c3.378,17.654,19.487,19.012,19.487,19.012s1.64,0.112,1.908,0.137h48.008c0,0,20.544-1.64,20.544-21.155
	C279.064,38.404,279.064,29.09,279.064,29.09z M71.293,78.989h98.467c17.148-3.405,18.94-18.811,18.94-18.811
	c0.807-4.578,0.335-8.282,0.335-8.282c-0.514-3.087-6.442-16.713-19.315-17.901c-7.675-0.705-75.98-6.074-75.98-6.074
	c1.321,6.774,4.399,10.192,6.445,12.149c4.743,4.506,12.289,5.783,12.289,5.783c1.821,0.172,52.643,4.334,52.643,4.334
	c1.618,0.082,4.688,0.488,4.651,4.461c0,0.481-0.444,3.983-4.344,3.983c-4.744,0-73.657,0-73.657,0V27.749l-20.473-1.482V78.989z
	 M279.216,79.168h75.332c18.896-1.08,21.567-18.817,21.567-18.817c0.67-4.661,0.119-8.456,0.119-8.456
	c-0.544-4.195-6.579-16.812-19.466-18.035c-7.633-0.705-76.328-4.715-76.328-4.715c2.035,6.987,4.769,9.104,6.833,11.04
	c4.754,4.525,11.876,5.611,11.876,5.611c1.792,0.143,53.182,4.389,53.182,4.389c1.657,0.082,4.959,0.257,4.959,4.219
	c0,1.195-0.615,2.432-1.377,3.112c0,0-1.818,0.987-3.502,0.987c-4.751,0-73.148,0-73.148,0L279.216,79.168z"/>
</svg>
