<?xml version="1.0" encoding="iso-8859-1"?>
<!-- Generator: Adobe Illustrator 17.0.2, SVG Export Plug-In . SVG Version: 6.00 Build 0)  -->
<!DOCTYPE svg PUBLIC "-//W3C//DTD SVG 1.1//EN" "http://www.w3.org/Graphics/SVG/1.1/DTD/svg11.dtd">
<svg version="1.1" id="Comp" xmlns="http://www.w3.org/2000/svg" xmlns:xlink="http://www.w3.org/1999/xlink" x="0px" y="0px"
	 width="193px" height="220px" viewBox="0 0 193 220" style="enable-background:new 0 0 193 220;" xml:space="preserve">
<g>
	<path style="fill:#0058A9;" d="M156.959,0.192c5.387-0.308,10.774-0.154,16.161-0.154c6.465,0,12.929,0,19.394,0
		c-1.847,10.005-3.694,20.163-5.541,30.168c-0.77,3.694-3.078,7.388-6.465,9.235c-2.463,1.385-5.541,1.693-8.312,1.539
		c-11.236,0-22.318,0-33.554,0c-3.232,18.47-6.311,37.094-9.543,55.565c-2.617,15.238-5.233,30.322-7.696,45.56
		c-0.616,2.924-0.77,6.003-2.001,8.773c-1.231,2.617-3.232,5.079-5.849,6.157c-2.463,1.077-5.233,1.385-7.85,1.231
		c-13.391,0-26.782,0-40.173,0c6.157-30.63,12.467-61.414,18.624-92.043c1.693-8.466,3.386-16.777,5.079-25.243
		c-16.469,0-33.093,0-49.562,0c2.001-10.005,3.848-20.009,5.849-30.014c0.77-3.232,2.463-6.157,5.079-8.158
		c2.463-1.693,5.387-2.617,8.466-2.463c11.852,0,23.703,0,35.401,0c11.236,0,22.472,0,33.554,0
		C137.719,0.192,147.262,0.192,156.959,0.192z"/>
	<path style="fill:#00BAF2;" d="M31.207,54.526c2.771-0.154,5.387-0.462,8.158-0.308c15.546,0.616,30.784,5.387,44.636,12.16
		c-6.311,30.63-12.467,61.414-18.624,92.043c13.391,0,26.782,0,40.173,0c2.617,0.154,5.387-0.154,7.85-1.231
		c2.617-1.231,4.771-3.54,5.849-6.157c1.231-2.771,1.539-5.849,2.001-8.773c2.617-15.238,5.233-30.322,7.696-45.56
		c17.393,15.546,33.093,33.4,43.713,54.333c3.54,6.926,6.465,14.161,8.312,21.703c1.385,5.849,2.155,12.006,1.539,18.008
		c-0.616,5.695-2.463,11.236-5.695,16.008c-1.539,2.617-4.156,4.464-6.465,6.157c-8.312,5.849-18.778,7.696-28.629,6.926
		c-10.313-0.77-20.317-3.848-30.014-7.388c-23.088-8.619-44.329-22.318-62.337-39.095c-16.008-14.622-30.168-31.707-39.711-51.255
		c-4.31-9.235-8.004-18.932-8.927-29.091c-0.462-4.771-0.308-9.543,0.77-14.161c1.385-5.541,4.002-10.928,8.158-14.776
		C15.354,58.374,23.357,55.295,31.207,54.526z"/>
</g>
</svg>
