<?xml version="1.0" encoding="iso-8859-1"?>
<!-- Generator: Adobe Illustrator 17.0.2, SVG Export Plug-In . SVG Version: 6.00 Build 0)  -->
<!DOCTYPE svg PUBLIC "-//W3C//DTD SVG 1.1//EN" "http://www.w3.org/Graphics/SVG/1.1/DTD/svg11.dtd">
<svg version="1.1" id="Comp" xmlns="http://www.w3.org/2000/svg" xmlns:xlink="http://www.w3.org/1999/xlink" x="0px" y="0px"
	 width="235px" height="240px" viewBox="0 0 235 240" style="enable-background:new 0 0 235 240;" xml:space="preserve">
<g>
	<g>
		<path style="fill:#DD4814;" d="M146.124,0c-33.74,0-61.092,27.351-61.092,61.092s27.353,61.095,61.092,61.095
			c33.741,0,61.093-27.355,61.093-61.095S179.865,0,146.124,0z"/>
		<path style="fill:#FFFFFF;" d="M116.475,98.87c-0.518,0.518-1.208,0.803-1.943,0.803l0,0c-0.737,0-1.429-0.286-1.949-0.807
			c-0.518-0.518-0.804-1.208-0.804-1.944c0-0.736,0.286-1.426,0.804-1.944c0.52-0.52,1.212-0.806,1.948-0.806
			c0.735,0,1.425,0.286,1.943,0.804c0.519,0.519,0.805,1.211,0.805,1.947C117.28,97.659,116.994,98.351,116.475,98.87z"/>
		<path style="fill:#FFFFFF;" d="M128.463,57.785c-0.277-0.882-0.675-1.606-1.184-2.153c-0.507-0.548-1.122-0.957-1.826-1.218
			c-0.708-0.264-1.511-0.397-2.385-0.397c-0.874,0-1.669,0.133-2.363,0.396c-0.693,0.261-1.301,0.671-1.809,1.219
			c-0.508,0.546-0.906,1.271-1.184,2.154c-0.278,0.887-0.42,1.974-0.42,3.229v32.017h-5.527V60.524c0-1.64,0.222-3.166,0.66-4.536
			c0.439-1.376,1.131-2.59,2.055-3.61c0.925-1.022,2.106-1.825,3.509-2.389c1.4-0.563,3.095-0.848,5.038-0.848
			c1.942,0,3.65,0.286,5.077,0.848c1.43,0.563,2.625,1.367,3.55,2.389c0.923,1.019,1.622,2.233,2.075,3.609
			c0.452,1.37,0.682,2.898,0.682,4.537v4.412h-5.527v-3.923C128.884,59.763,128.742,58.677,128.463,57.785z"/>
		<path style="fill:#FFFFFF;" d="M151.53,80.229c0,1.643-0.229,3.17-0.681,4.538c-0.452,1.373-1.151,2.587-2.076,3.609
			c-0.926,1.022-2.12,1.825-3.55,2.389c-1.429,0.563-3.137,0.848-5.078,0.848s-3.635-0.286-5.038-0.849
			c-1.403-0.563-2.583-1.366-3.509-2.388c-0.925-1.022-1.616-2.237-2.055-3.611c-0.438-1.37-0.66-2.896-0.66-4.537V66.26h5.526
			v13.48c0,1.255,0.142,2.341,0.42,3.227c0.277,0.883,0.675,1.608,1.184,2.155c0.508,0.548,1.118,0.958,1.808,1.219
			c0.694,0.263,1.488,0.396,2.363,0.396c0.874,0,1.676-0.134,2.384-0.397c0.704-0.261,1.318-0.671,1.827-1.218
			c0.509-0.548,0.909-1.273,1.184-2.155c0.279-0.891,0.421-1.977,0.421-3.228V66.26h5.527v13.969H151.53z"/>
		<path style="fill:#FFFFFF;" d="M146.016,62.227c0-1.516,1.233-2.75,2.748-2.75c1.517,0,2.752,1.234,2.752,2.75
			c0,1.517-1.235,2.752-2.752,2.752C147.249,64.979,146.016,63.744,146.016,62.227z"/>
		<path style="fill:#FFFFFF;" d="M162.701,23.231c-0.277-0.882-0.676-1.606-1.185-2.155c-0.508-0.548-1.123-0.957-1.827-1.218
			c-0.707-0.263-1.51-0.396-2.384-0.396c-0.874,0-1.669,0.133-2.363,0.396c-0.692,0.261-1.301,0.671-1.809,1.218
			c-0.507,0.548-0.906,1.273-1.182,2.155c-0.278,0.887-0.42,1.973-0.42,3.229v32.017h-5.527V25.97c0-1.64,0.221-3.166,0.66-4.537
			c0.44-1.376,1.131-2.59,2.055-3.61c0.924-1.021,2.105-1.825,3.509-2.388c1.403-0.563,3.096-0.849,5.036-0.849
			c1.941,0,3.649,0.286,5.078,0.848c1.432,0.564,2.626,1.368,3.549,2.389c0.925,1.019,1.623,2.234,2.076,3.609
			c0.451,1.372,0.681,2.899,0.681,4.538v4.412h-5.528V26.46C163.12,25.207,162.979,24.121,162.701,23.231z"/>
		<path style="fill:#FFFFFF;" d="M185.766,45.675c0,1.642-0.229,3.169-0.68,4.538c-0.453,1.374-1.151,2.589-2.074,3.609
			c-0.927,1.022-2.121,1.825-3.55,2.389c-1.43,0.563-3.139,0.848-5.078,0.848c-1.942,0-3.637-0.286-5.038-0.849
			c-1.404-0.563-2.583-1.366-3.509-2.388c-0.924-1.021-1.615-2.235-2.055-3.61c-0.438-1.372-0.66-2.898-0.66-4.537V31.706h5.527
			v13.48c0,1.253,0.141,2.339,0.42,3.228c0.277,0.882,0.674,1.606,1.185,2.154c0.508,0.548,1.117,0.958,1.808,1.219
			c0.695,0.263,1.489,0.396,2.363,0.396c0.876,0,1.678-0.134,2.385-0.397c0.704-0.26,1.319-0.67,1.828-1.218
			c0.508-0.546,0.907-1.271,1.183-2.154c0.279-0.889,0.421-1.975,0.421-3.228v-13.48h5.526L185.766,45.675L185.766,45.675z"/>
	</g>
	<g>
		<path d="M9.704,240c-1.178,0-2.699-0.147-4.565-0.442c-1.864-0.295-3.435-0.688-4.712-1.178l1.767-11.192
			c0.983,0.294,2.112,0.538,3.387,0.736c1.277,0.196,2.455,0.295,3.534,0.295c4.713,0,8.074-1.449,10.088-4.344
			c2.011-2.898,3.019-7.143,3.019-12.739v-75.253h13.696v75.105c0,9.816-2.234,17.106-6.7,21.869
			C24.748,237.619,18.245,240,9.704,240z"/>
		<path d="M117.648,210.252c-3.144,0.787-7.29,1.62-12.444,2.504c-5.155,0.883-11.119,1.326-17.893,1.326
			c-5.891,0-10.849-0.861-14.874-2.578c-4.027-1.716-7.266-4.146-9.719-7.289c-2.455-3.141-4.223-6.848-5.302-11.119
			c-1.082-4.271-1.62-9.006-1.62-14.211v-43.002h13.696v40.056c0,9.328,1.473,16.003,4.418,20.028
			c2.946,4.027,7.902,6.038,14.874,6.038c1.473,0,2.994-0.048,4.565-0.147c1.569-0.097,3.042-0.221,4.418-0.368
			c1.374-0.147,2.625-0.295,3.755-0.442c1.128-0.147,1.937-0.317,2.43-0.515v-64.65h13.696L117.648,210.252L117.648,210.252z"/>
		<path d="M126.63,240c-1.178,0-2.699-0.147-4.565-0.442c-1.864-0.295-3.436-0.688-4.713-1.178l1.768-11.192
			c0.983,0.294,2.112,0.538,3.387,0.736c1.277,0.196,2.455,0.295,3.534,0.295c4.713,0,8.075-1.449,10.088-4.344
			c2.011-2.898,3.019-7.143,3.019-12.739v-75.253h13.696v75.105c0,9.816-2.234,17.106-6.701,21.869
			C141.674,237.619,135.171,240,126.63,240z"/>
		<path d="M234.574,210.252c-3.143,0.787-7.29,1.62-12.444,2.504c-5.155,0.883-11.119,1.326-17.893,1.326
			c-5.891,0-10.849-0.861-14.874-2.578c-4.027-1.716-7.267-4.146-9.72-7.289c-2.455-3.141-4.222-6.848-5.302-11.119
			c-1.081-4.271-1.62-9.006-1.62-14.211v-43.002h13.696v40.056c0,9.328,1.472,16.003,4.418,20.028
			c2.945,4.027,7.902,6.038,14.874,6.038c1.472,0,2.994-0.048,4.565-0.147c1.57-0.097,3.043-0.221,4.419-0.368
			c1.373-0.147,2.625-0.295,3.755-0.442c1.127-0.147,1.938-0.317,2.43-0.515v-64.65h13.696L234.574,210.252L234.574,210.252z"/>
	</g>
</g>
</svg>
