<?xml version="1.0" encoding="iso-8859-1"?>
<!-- Generator: Adobe Illustrator 17.0.2, SVG Export Plug-In . SVG Version: 6.00 Build 0)  -->
<!DOCTYPE svg PUBLIC "-//W3C//DTD SVG 1.1//EN" "http://www.w3.org/Graphics/SVG/1.1/DTD/svg11.dtd">
<svg version="1.1" id="Comp" xmlns="http://www.w3.org/2000/svg" xmlns:xlink="http://www.w3.org/1999/xlink" x="0px" y="0px"
	 width="400px" height="62px" viewBox="0 0 400 62" style="enable-background:new 0 0 400 62;" xml:space="preserve">
<g id="g3">
	<g id="g5">
		<path id="path7" style="fill:#E3000F;" d="M382.723,60.416H400l-17.827-58.83h-24.551l-17.821,58.83h17.277l3.151-10.889h19.331
			L382.723,60.416 M363.97,36.445l5.882-20.325h0.097l5.88,20.325H363.97z"/>
		<path id="path9" style="fill:#E3000F;" d="M86.242,61.473c17.741,0,26.315-3.126,27.529-19.134
			c0.288-3.809,0.346-7.72,0.346-11.345c0.004-3.613-0.058-7.527-0.346-11.336c-1.214-16.013-9.788-19.132-27.529-19.132
			c-17.743,0-26.312,3.12-27.524,19.132c-0.292,3.809-0.351,7.723-0.351,11.336c0.003,3.625,0.059,7.535,0.351,11.345
			C59.93,58.346,68.499,61.473,86.242,61.473 M75.083,30.995c0-3.231,0.082-5.14,0.152-6.557c0.451-9.08,4.037-10.139,11.007-10.139
			c6.971,0,10.556,1.058,11.005,10.139c0.07,1.417,0.152,3.326,0.152,6.557c0,3.241-0.082,5.154-0.152,6.568
			c-0.449,9.082-4.034,10.142-11.005,10.142c-6.969,0-10.555-1.061-11.007-10.142C75.165,36.149,75.083,34.236,75.083,30.995z"/>
		<polyline id="polyline11" style="fill:#E3000F;" points="0,1.613 0,16.278 17.586,16.278 17.586,60.443 35.179,60.443 
			35.179,16.278 52.764,16.278 52.764,1.613 0,1.613 		"/>
		<polyline id="polyline13" style="fill:#E3000F;" points="269.926,60.416 269.926,1.586 253.23,1.586 253.23,60.416 
			269.926,60.416 		"/>
		<polyline id="polyline15" style="fill:#E3000F;" points="202.75,23.065 202.75,1.586 186.148,1.586 186.148,60.416 202.75,60.416 
			202.75,37.731 222.038,37.731 222.038,60.416 238.635,60.416 238.635,1.586 222.038,1.586 222.038,23.065 202.75,23.065 		"/>
		<g id="g17">
			<path id="path19" style="fill:#E3000F;" d="M324.836,29.668c7.394-1.891,9.565-6.308,9.565-12.693
				c0-12.929-8.135-15.39-19.703-15.39h-29.972v58.83h31.461c14.486,0,19.355-6.24,19.355-15.836
				C335.542,37.888,334.008,31.984,324.836,29.668 M301.318,36.253h11.51c4.65,0,5.621,2.037,5.621,5.35
				c0,3.316-1.819,5.358-5.621,5.358h-11.51V36.253z M301.318,15.04h11.51c3.009,0,4.866,1.425,4.866,4.854
				c0,2.939-1.838,4.748-4.866,4.748h-11.51V15.04z"/>
			<path id="path21" style="fill:#E3000F;" d="M123.79,41.11h15.823c0.017,2.854,0.382,4.762,1.766,5.815
				c1.577,1.187,2.986,1.579,7.662,1.579c4.501,0,9.426,0,9.426-5.542c0-4.371-2.753-5.368-7.839-5.64
				c-12.606-0.668-17.166-1.025-21.865-4.512c-3.2-2.379-4.859-7.009-4.859-13.271c0-10.648,3.715-14.384,9.075-16.99
				c5.529-2.691,27.235-2.691,33.074,0c7.348,3.384,7.563,10.71,7.563,17.506h-15.789c-0.029-3.465-0.808-4.443-1.444-5.088
				c-1.639-1.454-3.974-1.761-7.344-1.761c-4.08,0-8.797,0.184-8.797,5.138c0,3.78,1.632,5.36,5.925,5.638
				c5.892,0.377,17.509,0.749,21.647,3.191c5.807,3.434,7.309,8.08,7.309,15.659c0,10.952-3.919,14.171-9.372,16.578
				c-6.295,2.783-27.321,2.783-34.154-0.213C123.945,55.861,123.79,49.215,123.79,41.11"/>
		</g>
	</g>
</g>
</svg>
