<?xml version="1.0" encoding="iso-8859-1"?>
<!-- Generator: Adobe Illustrator 17.0.2, SVG Export Plug-In . SVG Version: 6.00 Build 0)  -->
<!DOCTYPE svg PUBLIC "-//W3C//DTD SVG 1.1//EN" "http://www.w3.org/Graphics/SVG/1.1/DTD/svg11.dtd">
<svg version="1.1" id="Comp" xmlns="http://www.w3.org/2000/svg" xmlns:xlink="http://www.w3.org/1999/xlink" x="0px" y="0px"
	 width="400px" height="156px" viewBox="0 0 400 156" style="enable-background:new 0 0 400 156;" xml:space="preserve">
<g>
	<path style="fill:#EE7B06;" d="M388.019,117.275c-7.825,0-11.851,5.153-12.49,5.929c-1.973-3.727-5.602-5.929-10.37-5.929
		c-6.891,0-10.811,3.995-11.454,4.645c-0.283-1.072-1.698-3.991-6.146-3.991c-1.28,0-3.172,0.402-3.321,0.441
		c0.189,0.839,1.032,4.913,1.032,10.532v24.758h9.054v-25.231c0.173-0.162,3.569-3.593,7.643-3.593c4.161,0,6.103,3.041,6.103,7.202
		v21.622h9.098v-25.239c0.181-0.177,3.507-3.585,7.643-3.585c4.144,0,6.044,3.041,6.044,7.202v21.622H400v-23.041
		C400,122.534,395.398,117.275,388.019,117.275"/>
	<path style="fill:#EE7B06;" d="M288.631,147.123c-6.163,0-10.552-4.866-10.552-11.221c0-7.088,4.996-11.304,10.552-11.304
		c2.994,0,4.255,0.915,6.24,0.915c2.12,0,3.246-1.025,4.295-3.073c0.579-1.123,0.918-1.773,0.918-1.773
		c-0.449-0.291-5.039-3.404-12.832-3.404c-11.418,0-18.25,8.179-18.25,18.64c0,11.398,7.809,18.557,18.25,18.557
		c7.573,0,12.159-3.085,12.97-3.664l-3.14-6.205C296.385,145.035,293.146,147.123,288.631,147.123"/>
	<path style="fill:#EE7B06;" d="M182.236,131.931c0-4.062,2.856-7.845,6.855-7.845c4.474,0,6.948,3.893,7.021,7.845H182.236z
		 M189.233,117.275c-8.687,0-16.017,7.064-16.017,18.632c0,11.839,7.109,18.561,17.727,18.561c8.441,0,12.814-3.696,13.339-4.035
		c0,0-0.824-1.339-1.052-1.713c-1.182-1.939-2.538-2.565-4.027-2.565c-2.986,0-3.37,1.246-7.421,1.246
		c-6.944,0-9.351-5.421-9.517-9.035h23.25v-2.691C205.515,124.579,199.132,117.275,189.233,117.275"/>
	<path style="fill:#EE7B06;" d="M221.03,143.644v-37.078c0-4.188-2.789-7.423-7.131-7.423h-1.938v48.138
		c0,4.437,2.746,7.186,7.517,7.186c5.887,0,7.652-4.188,7.652-8.128c-0.244,0.13-1.494,0.63-2.75,0.63
		C222.279,146.969,221.03,145.752,221.03,143.644"/>
	<path style="fill:#EE7B06;" d="M160.407,142.387V124.76h7.58l2.638-6.824h-10.218v-10.661c0,0-0.812-0.008-0.847,0
		c-4.035,0-8.219,1.713-8.219,10.578v0.083h-6.702v6.82h6.702v20.771c0,5.878,3.477,8.932,8.408,8.932
		c3.989,0,9.135-1.209,9.135-9.109c-0.307,0.189-2.236,1.434-4.358,1.434C161.569,146.784,160.407,144.988,160.407,142.387"/>
	<path style="fill:#EE7B06;" d="M239.122,131.931c0-4.062,2.857-7.845,6.859-7.845c4.472,0,6.942,3.893,7.017,7.845H239.122z
		 M246.119,117.275c-8.683,0-16.012,7.064-16.012,18.632c0,11.839,7.104,18.561,17.726,18.561c8.435,0,12.809-3.696,13.337-4.035
		c0,0-0.82-1.339-1.056-1.713c-1.186-1.939-2.529-2.565-4.023-2.565c-2.99,0-3.376,1.246-7.423,1.246
		c-6.946,0-9.349-5.421-9.515-9.035h23.253v-2.691C262.407,124.579,256.016,117.275,246.119,117.275"/>
	<path style="fill:#EE7B06;" d="M320.998,147.486c5.567,0,8.766-4.779,8.766-11.607c0-6.765-3.136-11.639-8.766-11.639
		c-5.473,0-8.755,4.736-8.755,11.639C312.243,142.537,315.367,147.486,320.998,147.486 M320.998,154.463
		c-11.095,0-17.773-7.324-17.773-18.584c0-11.214,6.588-18.616,17.773-18.616c11.213,0,17.789,7.403,17.789,18.616
		C338.786,146.473,332.706,154.463,320.998,154.463"/>
	<path style="fill:#DC0B2B;" d="M28.968,114.024c-5.474-2.557-9.97-4.626-9.97-8.809c0-3.196,2.555-5.524,7.61-5.524
		c1.864,0,3.385,0.221,4.951,0.509c0.823,0.142,1.698,0.263,2.425,0.263c4.413,0,6.907-2.631,8.565-7.627l0.686-2.045
		c-0.707-0.287-7.921-3.451-17.328-3.451c-14.96,0-22.855,9.598-22.852,19.55c0,5.027,1.572,8.66,4.035,11.532
		c3.17,3.68,7.689,6.099,11.922,8.16c6.164,3.022,11.723,5.259,11.723,9.743c0.008,3.975-4.108,6.241-9.598,6.241
		c-7.533,0-14.113-4.303-14.952-4.827L0,149.329c1.101,0.618,9.062,5.678,22.17,5.678c13.959-0.012,24.538-8.01,24.538-20.335
		C46.708,122.416,36.903,117.874,28.968,114.024"/>
	<path style="fill:#DC0B2B;" d="M83.583,119.749l25.327-31.055H90.86l-20.2,26.799h-0.303V88.694H55.481l0.004,65.789h0.889
		c6.432,0,14.085-2.979,14.085-13.723v-15.102h0.301l20.596,28.001h18.929L83.583,119.749z"/>
	<path style="fill:#DC0B2B;" d="M109.754,18.226c-5.236,0.985-13.008,5.74-12.978,14.148c0.02,7.636,6.261,12.265,6.28,22.261
		c0.03,7.529-4.119,12.596-8.597,15.405c1.808-0.157,3.792-0.268,5.975-0.268c4.588-0.012,7.348,0.426,7.521,0.453l23.496-28.832
		C124.924,31.621,117.302,24.041,109.754,18.226"/>
	<path style="fill:#DC0B2B;" d="M129.487,96.082c2.965-4.602,3.337-11.938,3.583-19.416c0.278-6.97,1.734-12.218,11.062-12.249
		c2.066-0.008,4.034,0.276,7.602,0.268c13.66-0.059,22.584-4.763,28.127-7.856c-11.337-7.226-27.883-14.609-48.409-15.436
		c-1.34,3.774-11.743,32.701-12.531,35.037c0.118,0.142,1.94,2.182,4.215,6.162C126.493,88.064,128.297,92.702,129.487,96.082"/>
	<path style="fill:#EE7B06;" d="M79.868,72.451c-1.192,0.008-1.785-0.784-1.943-2.151c-0.152-1.359-6.026-55.119-6.903-63.251
		c-0.128-1.186-0.424-3.369-0.427-4.149c0-1.249,0.815-1.903,1.775-1.907c2.783-0.008,17.958,3.542,34.06,14.83
		c-4.641,1.308-13.037,6.135-12.991,16.126c0.027,8.841,6.359,13.707,6.39,22.579C99.883,68.956,83.299,72.447,79.868,72.451"/>
	<path style="fill:#EE7B06;" d="M130.842,99.915c0.254,0.67,0.488,1.238,0.727,1.631c0.37,0.626,0.851,0.91,1.444,0.91
		c0.374-0.004,0.835-0.13,1.343-0.358c1.239-0.572,50.301-23.411,57.696-26.823c1.077-0.516,3.106-1.426,3.78-1.816
		c0.695-0.394,1.012-0.973,1.012-1.56c-0.004-0.331-0.101-0.662-0.286-0.965c-0.924-1.497-5.673-6.536-13.608-12.041
		c-6.298,3.471-16.142,8.837-30.778,8.893c-3.583,0.008-4.393-0.233-6.844-0.225c-7.149,0.023-8.928,3.081-9.19,9.349
		c-0.05,1.178-0.069,2.77-0.134,4.519C135.777,87.028,135.115,94.75,130.842,99.915"/>
</g>
</svg>
