<?xml version="1.0" encoding="iso-8859-1"?>
<!-- Generator: Adobe Illustrator 17.0.2, SVG Export Plug-In . SVG Version: 6.00 Build 0)  -->
<!DOCTYPE svg PUBLIC "-//W3C//DTD SVG 1.1//EN" "http://www.w3.org/Graphics/SVG/1.1/DTD/svg11.dtd">
<svg version="1.1" id="Comp" xmlns="http://www.w3.org/2000/svg" xmlns:xlink="http://www.w3.org/1999/xlink" x="0px" y="0px"
	 width="400px" height="90px" viewBox="0 0 400 90" style="enable-background:new 0 0 400 90;" xml:space="preserve">
<g>
	<polygon style="fill-rule:evenodd;clip-rule:evenodd;fill:#A2A2A2;" points="0,41.248 17.752,41.248 17.752,59.002 0,59.002 
		0,41.248 0,41.248 	"/>
	<polygon style="fill-rule:evenodd;clip-rule:evenodd;fill:#A2A2A2;" points="53.245,41.248 70.997,41.248 70.997,59.002 
		53.245,59.002 53.245,41.248 53.245,41.248 	"/>
	<polygon style="fill-rule:evenodd;clip-rule:evenodd;fill:#A2A2A2;" points="106.49,41.248 124.241,41.248 124.241,59.002 
		106.49,59.002 106.49,41.248 106.49,41.248 	"/>
	<path style="fill-rule:evenodd;clip-rule:evenodd;fill:#DD007E;" d="M149.224,69.778c0,11.794,2.03,13.695,14.708,13.824l0,0v4.945
		h-43.111v-4.945l0,0c12.681-0.128,14.708-2.03,14.708-13.824l0,0V4.983l0,0c-14.581,0.255-23.078,9.892-24.345,27.515l0,0
		l-4.692-0.758L107.38,0.8h69.994l0.887,30.94l-4.692,0.758l0,0c-1.267-17.623-9.889-27.26-24.345-27.515l0,0V69.778L149.224,69.778
		L149.224,69.778z"/>
	<polygon style="fill-rule:evenodd;clip-rule:evenodd;fill:#A2A2A2;" points="160.37,41.248 178.122,41.248 178.122,59.002 
		160.37,59.002 160.37,41.248 160.37,41.248 	"/>
	<path style="fill-rule:evenodd;clip-rule:evenodd;fill:#A2A2A2;" d="M213.138,8.006c0-2.818-0.164-3.847-0.814-4.498
		c-0.486-0.488-1.623-0.812-2.87-0.812l0,0h-0.704V0.962h12.838l0,0c5.959,0,10.129,1.735,13.327,5.581
		c2.762,3.304,4.228,7.53,4.228,12.405c0,5.582-1.847,10.402-5.259,13.708c-3.032,3.032-7.041,4.44-12.296,4.44l0,0H208.75v-1.731
		h0.704l0,0c1.247,0,2.384-0.327,2.87-0.812c0.65-0.655,0.814-1.682,0.814-4.498l0,0V8.006L213.138,8.006L213.138,8.006z
		 M218.122,30.27c0,4.116,0.651,4.879,4.44,4.879c7.802,0,10.784-4.444,10.784-16.201c0-11.43-3.09-16.089-10.673-16.089
		c-2.008,0-3.25,0.379-3.901,1.083c-0.543,0.65-0.651,1.301-0.651,3.576l0,0V30.27L218.122,30.27L218.122,30.27z"/>
	<path style="fill-rule:evenodd;clip-rule:evenodd;fill:#A2A2A2;" d="M247.75,24.472c0.05,7.91,1.896,11.273,6.17,11.273
		c2.928,0,4.824-1.574,6.718-5.583l0,0l1.628,0.866l0,0c-2.328,4.717-5.148,6.829-9.207,6.829c-6.287,0-10.349-5.201-10.349-13.385
		c0-7.582,4.116-13.053,9.802-13.053c5.906,0,9.807,5.036,10.08,13.053l0,0H247.75L247.75,24.472L247.75,24.472z M257.552,22.575
		c0.055-5.794-1.735-9.262-4.766-9.262c-3.032,0-4.928,3.576-4.986,9.262l0,0H257.552L257.552,22.575L257.552,22.575z"/>
	<path style="fill-rule:evenodd;clip-rule:evenodd;fill:#A2A2A2;" d="M283.224,31.517c-1.838,4.228-4.332,6.121-7.852,6.121
		c-2.385,0-4.224-0.919-5.255-2.655c-1.031-1.731-1.355-3.412-1.355-7.475l0,0V18.19l0,0c0-3.576-0.488-4.334-2.762-4.334l0,0
		h-0.596v-1.679l7.91-0.379v17.118l0,0c0,2.332,0.162,3.413,0.651,4.444c0.43,1.085,1.515,1.79,2.708,1.79
		c1.838,0,3.574-1.193,4.713-3.364c1.027-1.838,1.408-3.788,1.408-6.878l0,0V18.19l0,0c0-3.576-0.489-4.334-2.762-4.334l0,0h-0.816
		v-1.679l8.129-0.379v19.23l0,0c0,3.574,0.485,4.389,2.764,4.389l0,0h0.595v1.678l-7.479,0.381V31.517L283.224,31.517
		L283.224,31.517z"/>
	<path style="fill-rule:evenodd;clip-rule:evenodd;fill:#A2A2A2;" d="M300.559,29.024c0,2.224,0.108,3.196,0.381,4.228
		c0.378,1.301,1.408,2.112,2.651,2.112c2.058,0,3.304-2.22,3.304-6.072l0,0v-0.754h1.789v1.027l0,0c0,5.31-2.17,8.072-6.448,8.072
		c-2.058,0-3.739-0.65-4.713-1.843c-1.189-1.408-1.516-2.978-1.516-6.77l0,0V14.02h-3.901v-1.518l0,0
		c4.713-1.137,6.283-3.305,6.936-9.697l0,0h1.516v9.372h7.314v1.843h-7.314V29.024L300.559,29.024L300.559,29.024z"/>
	<path style="fill-rule:evenodd;clip-rule:evenodd;fill:#A2A2A2;" d="M326.401,20.033h-1.628l0,0
		c-0.919-4.605-2.978-6.827-6.34-6.827c-2.327,0-4.058,1.626-4.058,3.791c0,2.058,1.081,3.036,4.498,4.12
		c3.462,1.135,4.928,1.785,6.121,2.709c1.947,1.516,2.87,3.412,2.87,5.847c0,4.659-3.358,7.964-8.128,7.964
		c-2.163,0-3.413-0.435-6.064-2.004c-0.273-0.161-0.488-0.216-0.596-0.216c-0.381,0-0.704,0.377-0.92,1.081l0,0l-0.166,0.597h-1.516
		v-9.153h1.516l0,0c0.704,2.542,1.247,3.901,2.112,5.036c1.354,1.843,3.412,2.924,5.633,2.924c2.493,0,4.336-1.893,4.336-4.385
		c0-1.57-0.813-2.978-2.22-3.848c-1.193-0.757-1.247-0.757-4.766-1.95c-4.336-1.408-6.341-3.735-6.341-7.259
		c0-4.007,2.978-6.825,7.314-6.825c1.735,0,3.573,0.543,5.093,1.462c0.324,0.164,0.593,0.273,0.812,0.273
		c0.327,0,0.651-0.435,0.812-1.193l0,0h1.628V20.033L326.401,20.033L326.401,20.033z"/>
	<path style="fill-rule:evenodd;clip-rule:evenodd;fill:#A2A2A2;" d="M350.176,30.759c-1.95,4.875-4.713,7.098-8.884,7.098
		c-6.228,0-10.511-5.416-10.511-13.327c0-7.695,4.552-13.111,11.05-13.111c4.497,0,8.018,3.088,8.018,6.991
		c0,2.001-1.301,3.412-3.085,3.412c-1.569,0-2.762-1.25-2.762-2.928c0-1.516,1.085-2.762,2.543-2.762c0.219,0,0.327,0,0.547,0.161
		c-0.812-1.897-2.601-2.979-4.771-2.979c-4.17,0-6.282,3.737-6.282,11.216c0,7.637,2.005,11.264,6.121,11.264
		c2.708,0,4.767-1.838,6.282-5.739l0,0L350.176,30.759L350.176,30.759L350.176,30.759z"/>
	<path style="fill-rule:evenodd;clip-rule:evenodd;fill:#A2A2A2;" d="M369.623,20.952c0-3.139-0.161-4.39-0.812-5.363
		c-0.596-1.082-1.569-1.625-2.708-1.625c-1.789,0-3.467,1.193-4.497,3.253c-0.974,2.004-1.355,4.116-1.355,7.852l0,0v5.96l0,0
		c0,3.632,0.489,4.389,2.762,4.389l0,0h0.866v1.678h-11.807v-1.678h0.866l0,0c2.277,0,2.762-0.815,2.762-4.389l0,0V6.975l0,0
		c0-3.574-0.485-4.332-2.762-4.332l0,0h-0.596V0.962l7.909-0.379V16.67l0,0c1.732-3.518,3.848-5.036,6.991-5.036
		c2.273,0,4.116,0.814,5.201,2.329c1.35,1.895,1.731,3.63,1.731,8.343l0,0v8.722l0,0c0,3.632,0.489,4.389,2.762,4.389l0,0h0.596
		v1.678h-7.91V20.952L369.623,20.952L369.623,20.952z"/>
	<path style="fill-rule:evenodd;clip-rule:evenodd;fill:#A2A2A2;" d="M385.158,24.472c0.058,7.91,1.896,11.273,6.179,11.273
		c2.923,0,4.819-1.574,6.717-5.583l0,0l1.624,0.866l0,0c-2.328,4.717-5.144,6.829-9.211,6.829c-6.282,0-10.345-5.201-10.345-13.385
		c0-7.582,4.117-13.053,9.807-13.053c5.905,0,9.807,5.036,10.072,13.053l0,0H385.158L385.158,24.472L385.158,24.472z
		 M394.964,22.575c0.053-5.794-1.731-9.262-4.767-9.262c-3.035,0-4.932,3.576-4.981,9.262l0,0H394.964L394.964,22.575
		L394.964,22.575z"/>
	<path style="fill-rule:evenodd;clip-rule:evenodd;fill:#A2A2A2;" d="M224.297,81.617c0,2.87,0.162,3.848,0.816,4.494
		c0.538,0.489,1.624,0.812,2.866,0.812l0,0h1.251v1.734h-14.842v-1.734h1.242l0,0c1.247,0,2.327-0.323,2.874-0.812
		c0.646-0.645,0.812-1.624,0.812-4.494l0,0V54.26h-1.139l0,0c-3.197,0-5.796,1.73-7.043,4.712c-0.704,1.624-1.03,3.251-1.301,6.176
		l0,0l-1.572-0.109l0.272-12.514h26.709l0.215,12.514l-1.624,0.109l0,0c-1.03-7.911-3.47-10.888-8.721-10.888l0,0h-0.816V81.617
		L224.297,81.617L224.297,81.617z"/>
	<path style="fill-rule:evenodd;clip-rule:evenodd;fill:#A2A2A2;" d="M243.029,76.04c0.053,7.905,1.896,11.264,6.175,11.264
		c2.928,0,4.821-1.57,6.717-5.578l0,0l1.627,0.864l0,0c-2.331,4.714-5.151,6.827-9.21,6.827c-6.285,0-10.349-5.203-10.349-13.377
		c0-7.588,4.117-13.058,9.803-13.058c5.905,0,9.807,5.036,10.079,13.058l0,0H243.029L243.029,76.04L243.029,76.04z M252.835,74.142
		c0.05-5.797-1.739-9.268-4.771-9.268c-3.032,0-4.929,3.577-4.982,9.268l0,0H252.835L252.835,74.142L252.835,74.142z"/>
	<path style="fill-rule:evenodd;clip-rule:evenodd;fill:#A2A2A2;" d="M268.701,82.59c0,3.63,0.488,4.39,2.762,4.39l0,0h0.87v1.677
		h-11.812V86.98h0.866l0,0c2.273,0,2.762-0.761,2.762-4.39l0,0V58.539l0,0c0-3.574-0.489-4.331-2.762-4.331l0,0h-0.593v-1.682
		l7.907-0.381V82.59L268.701,82.59L268.701,82.59z"/>
	<path style="fill-rule:evenodd;clip-rule:evenodd;fill:#A2A2A2;" d="M279.911,76.04c0.053,7.905,1.896,11.264,6.175,11.264
		c2.927,0,4.824-1.57,6.721-5.578l0,0l1.624,0.864l0,0c-2.328,4.714-5.148,6.827-9.21,6.827c-6.287,0-10.345-5.203-10.345-13.377
		c0-7.588,4.116-13.058,9.802-13.058c5.906,0,9.807,5.036,10.076,13.058l0,0H279.911L279.911,76.04L279.911,76.04z M289.717,74.142
		c0.053-5.797-1.735-9.268-4.771-9.268c-3.032,0-4.928,3.577-4.982,9.268l0,0H289.717L289.717,74.142L289.717,74.142z"/>
	<path style="fill-rule:evenodd;clip-rule:evenodd;fill:#A2A2A2;" d="M315.551,88.657l-7.798-12.568l-2.167,1.897v4.604l0,0
		c0,3.63,0.485,4.39,2.759,4.39l0,0h1.032v1.677h-11.973V86.98h0.87l0,0c2.274,0,2.758-0.811,2.758-4.39l0,0V58.539l0,0
		c0-3.574-0.484-4.331-2.758-4.331l0,0h-0.596v-1.682l7.909-0.381v23.241l7.314-6.282l0,0c0.973-0.865,1.57-1.788,1.57-2.493
		c0-0.813-0.704-1.193-2.332-1.193l0,0h-0.811V63.74h10.673v1.677h-0.542l0,0c-1.57,0-2.273,0.381-4.498,2.386l0,0l-5.955,5.309
		l6.551,10.457l0,0c1.628,2.601,2.658,3.412,4.39,3.412l0,0h0.431v1.677H315.551L315.551,88.657L315.551,88.657z"/>
	<path style="fill-rule:evenodd;clip-rule:evenodd;fill:#A2A2A2;" d="M346.644,76.198c0,7.909-4.391,13.219-11,13.219
		c-6.555,0-10.941-5.31-10.941-13.162c0-8.075,4.386-13.273,11.103-13.273C342.253,62.982,346.644,68.345,346.644,76.198
		L346.644,76.198L346.644,76.198L346.644,76.198z M331.201,67.963c-0.866,1.951-1.247,4.499-1.247,8.127
		c0,7.802,1.843,11.595,5.69,11.595c3.843,0,5.739-3.793,5.739-11.487c0-3.736-0.377-6.338-1.242-8.235
		c-0.924-2.057-2.601-3.25-4.551-3.25C333.801,64.712,332.066,66.014,331.201,67.963L331.201,67.963L331.201,67.963L331.201,67.963z
		"/>
	<path style="fill-rule:evenodd;clip-rule:evenodd;fill:#A2A2A2;" d="M378.76,73.438c0-3.469-0.22-5.258-0.704-6.232
		c-0.597-1.081-1.57-1.677-2.762-1.677c-1.516,0-2.875,0.973-3.794,2.708c-0.919,1.731-1.139,3.085-1.139,7.584l0,0v6.769l0,0
		c0,3.63,0.489,4.39,2.762,4.39l0,0h0.762v1.677h-8.075V74.251l0,0c0-4.605-0.108-5.69-0.758-6.936
		c-0.592-1.14-1.57-1.786-2.817-1.786c-1.519,0-2.87,0.973-3.739,2.708c-0.865,1.785-1.081,3.355-1.081,7.584l0,0v6.769l0,0
		c0,3.686,0.435,4.39,2.762,4.39l0,0h0.758v1.677h-11.699V86.98h0.865l0,0c2.22,0,2.762-0.869,2.762-4.39l0,0V69.754l0,0
		c0-3.467-0.542-4.337-2.762-4.337l0,0h-0.596V63.74l7.582-0.381v4.444l0,0c1.031-2.763,3.579-4.605,6.341-4.605
		c3.035,0,4.982,1.515,6.34,4.932c1.565-3.362,3.736-4.932,6.717-4.932c2.328,0,4.386,1.081,5.467,2.87
		c1.031,1.573,1.358,3.362,1.358,6.775l0,0v9.748l0,0c0,3.579,0.489,4.39,2.762,4.39l0,0h0.592v1.677h-7.906V73.438L378.76,73.438
		L378.76,73.438z"/>
</g>
</svg>
