<?xml version="1.0" encoding="iso-8859-1"?>
<!-- Generator: Adobe Illustrator 17.0.2, SVG Export Plug-In . SVG Version: 6.00 Build 0)  -->
<!DOCTYPE svg PUBLIC "-//W3C//DTD SVG 1.1//EN" "http://www.w3.org/Graphics/SVG/1.1/DTD/svg11.dtd">
<svg version="1.1" id="Comp" xmlns="http://www.w3.org/2000/svg" xmlns:xlink="http://www.w3.org/1999/xlink" x="0px" y="0px"
	 width="400px" height="90px" viewBox="0 0 400 90" style="enable-background:new 0 0 400 90;" xml:space="preserve">
<g>
	<circle style="fill:#DD4814;" cx="376.059" cy="24.026" r="23.941"/>
	<path style="fill:#FFFFFF;" d="M361.127,21.149c-1.59,0-2.873,1.287-2.873,2.877c0,1.585,1.283,2.874,2.873,2.874
		c1.592,0,2.877-1.29,2.877-2.874C364.004,22.436,362.718,21.149,361.127,21.149z M381.665,34.224
		c-1.377,0.789-1.846,2.55-1.054,3.921c0.794,1.379,2.553,1.847,3.929,1.056c1.376-0.793,1.849-2.553,1.054-3.927
		C384.799,33.898,383.04,33.427,381.665,34.224z M367.378,24.026c0-2.845,1.408-5.358,3.569-6.876l-2.1-3.525
		c-2.517,1.681-4.391,4.253-5.17,7.264c0.912,0.741,1.489,1.868,1.489,3.137c0,1.26-0.576,2.386-1.489,3.131
		c0.779,3.01,2.653,5.581,5.17,7.262l2.1-3.522C368.786,29.378,367.378,26.868,367.378,24.026z M375.777,15.62
		c4.391,0,7.991,3.366,8.369,7.662l4.099-0.066c-0.203-3.167-1.586-6.011-3.713-8.103c-1.095,0.411-2.359,0.353-3.45-0.281
		c-1.091-0.631-1.778-1.692-1.967-2.85c-1.064-0.292-2.183-0.454-3.339-0.454c-1.987,0-3.868,0.468-5.534,1.295l1.997,3.58
		C373.314,15.901,374.515,15.62,375.777,15.62z M375.777,32.423c-1.263,0-2.462-0.278-3.538-0.78l-1.997,3.58
		c1.667,0.83,3.548,1.293,5.534,1.293c1.156,0,2.275-0.157,3.339-0.452c0.189-1.157,0.875-2.218,1.967-2.852
		c1.094-0.631,2.355-0.691,3.45-0.275c2.127-2.094,3.509-4.939,3.713-8.108l-4.099-0.058
		C383.768,29.061,380.168,32.423,375.777,32.423z M381.665,13.826c1.374,0.792,3.134,0.323,3.926-1.056
		c0.794-1.37,0.323-3.131-1.051-3.924c-1.377-0.793-3.134-0.323-3.929,1.053C379.82,11.274,380.288,13.032,381.665,13.826z"/>
	<g>
		<path style="fill:#DD4814;" d="M47.88,86.839c-2.434,0.61-5.643,1.254-9.632,1.939c-3.993,0.682-8.611,1.024-13.853,1.024
			c-4.558,0-8.399-0.666-11.513-1.994c-3.117-1.328-5.625-3.209-7.524-5.642c-1.902-2.433-3.268-5.302-4.104-8.609
			C0.416,70.254,0,66.588,0,62.558V29.271h10.602v31.006c0,7.221,1.14,12.388,3.421,15.502c2.28,3.12,6.116,4.676,11.513,4.676
			c1.142,0,2.317-0.041,3.535-0.117c1.214-0.075,2.357-0.172,3.422-0.285c1.061-0.114,2.031-0.227,2.905-0.341
			c0.873-0.113,1.501-0.244,1.882-0.399V29.271h10.603v57.568H47.88z"/>
		<path style="fill:#DD4814;" d="M73.755,31.891c1.291-0.835,3.251-1.709,5.872-2.62c2.62-0.912,5.643-1.367,9.062-1.367
			c4.256,0,8.038,0.761,11.344,2.279c3.305,1.521,6.099,3.646,8.379,6.382c2.278,2.736,4.006,6.006,5.186,9.803
			c1.177,3.803,1.768,7.981,1.768,12.542c0,4.786-0.706,9.102-2.108,12.937c-1.41,3.838-3.404,7.085-5.986,9.747
			c-2.585,2.66-5.699,4.713-9.349,6.155c-3.646,1.444-7.751,2.166-12.312,2.166c-4.942,0-9.311-0.344-13.108-1.027
			c-3.8-0.684-6.917-1.369-9.349-2.052V1.914l10.602-1.825v31.802H73.755z M73.755,79.313c1.065,0.305,2.565,0.593,4.504,0.854
			c1.937,0.27,4.349,0.401,7.238,0.401c5.699,0,10.26-1.882,13.678-5.643c3.422-3.762,5.132-9.102,5.132-16.015
			c0-3.038-0.305-5.889-0.912-8.554c-0.61-2.657-1.597-4.959-2.966-6.893c-1.367-1.94-3.135-3.459-5.3-4.561
			c-2.165-1.102-4.77-1.654-7.808-1.654c-2.891,0-5.549,0.497-7.978,1.483c-2.437,0.989-4.297,2.015-5.588,3.079L73.755,79.313
			L73.755,79.313z"/>
		<path style="fill:#DD4814;" d="M174.525,86.839c-2.434,0.61-5.644,1.254-9.632,1.939c-3.989,0.682-8.608,1.024-13.851,1.024
			c-4.558,0-8.396-0.666-11.512-1.994c-3.117-1.328-5.625-3.209-7.523-5.642c-1.902-2.433-3.267-5.302-4.105-8.609
			c-0.837-3.303-1.254-6.969-1.254-11V29.271h10.6v31.006c0,7.221,1.142,12.388,3.421,15.502c2.282,3.12,6.119,4.676,11.513,4.676
			c1.143,0,2.32-0.041,3.535-0.117c1.212-0.075,2.354-0.172,3.421-0.285c1.064-0.114,2.032-0.227,2.908-0.341
			c0.872-0.113,1.499-0.244,1.878-0.399V29.271h10.603v57.568H174.525z"/>
		<path style="fill:#DD4814;" d="M189.799,30.983c2.431-0.61,5.659-1.254,9.69-1.94c4.025-0.683,8.661-1.026,13.905-1.026
			c4.713,0,8.626,0.667,11.74,1.995c3.116,1.331,5.605,3.192,7.469,5.587c1.858,2.392,3.169,5.262,3.931,8.605
			c0.759,3.349,1.14,7.033,1.14,11.059v33.285h-10.602V57.541c0-3.646-0.248-6.761-0.741-9.347
			c-0.495-2.587-1.311-4.675-2.451-6.268c-1.14-1.599-2.66-2.756-4.559-3.478c-1.899-0.725-4.259-1.084-7.065-1.084
			c-1.144,0-2.321,0.038-3.533,0.113c-1.216,0.078-2.379,0.171-3.477,0.286c-1.106,0.113-2.09,0.248-2.966,0.397
			c-0.875,0.154-1.5,0.267-1.881,0.341v50.044h-10.6L189.799,30.983L189.799,30.983z"/>
		<path style="fill:#DD4814;" d="M262.182,29.271h22.456v8.891h-22.456v27.359c0,2.963,0.227,5.419,0.684,7.355
			c0.457,1.936,1.142,3.459,2.052,4.556c0.912,1.102,2.049,1.881,3.419,2.337c1.369,0.457,2.963,0.687,4.786,0.687
			c3.265,0,5.852-0.364,7.753-1.088c1.898-0.721,3.192-1.233,3.878-1.538l2.278,8.666c-1.065,0.533-2.946,1.218-5.643,2.05
			c-2.698,0.837-5.755,1.254-9.175,1.254c-4.03,0-7.355-0.511-9.977-1.537c-2.619-1.029-4.729-2.564-6.325-4.619
			c-1.596-2.05-2.716-4.576-3.361-7.581c-0.649-3-0.971-6.477-0.971-10.43V12.743l10.602-1.825L262.182,29.271L262.182,29.271z"/>
		<path style="fill:#DD4814;" d="M342.319,86.839c-2.436,0.61-5.643,1.254-9.632,1.939c-3.989,0.682-8.609,1.024-13.849,1.024
			c-4.561,0-8.399-0.666-11.516-1.994c-3.117-1.328-5.625-3.209-7.521-5.642c-1.902-2.433-3.268-5.302-4.106-8.609
			c-0.835-3.303-1.254-6.969-1.254-11V29.271h10.605v31.006c0,7.221,1.14,12.388,3.421,15.502c2.278,3.12,6.116,4.676,11.513,4.676
			c1.139,0,2.316-0.041,3.533-0.117c1.212-0.075,2.352-0.172,3.418-0.285c1.064-0.114,2.033-0.227,2.908-0.341
			c0.871-0.113,1.5-0.244,1.882-0.399V29.271h10.602v57.568H342.319z"/>
	</g>
</g>
</svg>
