<?xml version="1.0" encoding="iso-8859-1"?>
<!-- Generator: Adobe Illustrator 17.0.2, SVG Export Plug-In . SVG Version: 6.00 Build 0)  -->
<!DOCTYPE svg PUBLIC "-//W3C//DTD SVG 1.1//EN" "http://www.w3.org/Graphics/SVG/1.1/DTD/svg11.dtd">
<svg version="1.1" id="Comp" xmlns="http://www.w3.org/2000/svg" xmlns:xlink="http://www.w3.org/1999/xlink" x="0px" y="0px"
	 width="240px" height="240px" viewBox="0 0 240 240" style="enable-background:new 0 0 240 240;" xml:space="preserve">
<g>
	<rect style="fill-rule:evenodd;clip-rule:evenodd;fill:#FCC500;" width="240" height="240"/>
	<path style="fill:#00638D;" d="M3.649,120.001c0-25.067,52.092-45.388,116.352-45.388c64.259,0,116.352,20.32,116.352,45.388
		c0,25.06-52.092,45.381-116.352,45.381C55.742,165.383,3.649,145.062,3.649,120.001z"/>
	<path style="fill:none;stroke:#00638D;stroke-width:0.0486;stroke-miterlimit:3.8636;" d="M3.649,120.001
		c0-25.067,52.092-45.388,116.352-45.388c64.259,0,116.352,20.32,116.352,45.388c0,25.06-52.092,45.381-116.352,45.381
		C55.742,165.383,3.649,145.062,3.649,120.001z"/>
	<polygon style="fill-rule:evenodd;clip-rule:evenodd;fill:#FFFFFF;" points="46.29,142.059 58.367,96.982 77.426,96.982 
		77.426,123.496 77.551,123.496 90.482,96.982 109.845,96.982 97.768,142.059 85.182,142.059 92.924,113.145 92.8,113.145 
		77.426,142.059 67.348,142.059 67.348,113.145 67.144,113.145 59.402,142.059 	"/>
	<polygon style="fill-rule:evenodd;clip-rule:evenodd;fill:#E53328;" points="113.252,142.952 114.964,136.545 128.854,136.545 
		127.138,142.952 	"/>
	<polygon style="fill-rule:evenodd;clip-rule:evenodd;fill:#FCC500;" points="115.445,134.746 122.472,108.537 109.845,108.537 
		112.941,96.982 152.085,96.982 148.989,108.537 136.361,108.537 129.338,134.739 	"/>
	<polygon style="fill-rule:evenodd;clip-rule:evenodd;fill:#FFFFFF;" points="143.107,142.059 155.177,96.982 168.818,96.982 
		174.972,121.102 175.093,121.102 181.552,96.982 194.162,96.982 182.092,142.059 169.116,142.059 162.432,117.442 162.31,117.442 
		155.717,142.059 	"/>
</g>
</svg>
