<?xml version="1.0" encoding="iso-8859-1"?>
<!-- Generator: Adobe Illustrator 17.0.2, SVG Export Plug-In . SVG Version: 6.00 Build 0)  -->
<!DOCTYPE svg PUBLIC "-//W3C//DTD SVG 1.1//EN" "http://www.w3.org/Graphics/SVG/1.1/DTD/svg11.dtd">
<svg version="1.1" id="Comp" xmlns="http://www.w3.org/2000/svg" xmlns:xlink="http://www.w3.org/1999/xlink" x="0px" y="0px"
	 width="680px" height="100px" viewBox="0 0 680 100" style="enable-background:new 0 0 680 100;" xml:space="preserve">
<g>
	<path style="fill:#00B9EF;" d="M207.912,19.971l-16.957,60.042h-8.249l-13.403-47.569h-0.163l-13.447,47.569h-8.162l-17.546-60.042
		h7.704l13.902,50.125h0.165l14.491-50.125h6.79l13.726,50.29h0.168l13.357-50.29H207.912z"/>
	<path style="fill:#00B9EF;" d="M220.472,80.013h-6.871V37.136h6.871V80.013z"/>
	<path style="fill:#00B9EF;" d="M266.376,80.013h-6.863V55.566c0-9.082-3.326-13.609-9.969-13.609c-3.38,0-6.204,1.275-8.482,3.83
		c-2.273,2.553-3.412,5.813-3.412,9.779v24.447h-6.855V37.136h6.855v7.124h0.168c3.212-5.439,7.905-8.168,14.073-8.168
		c4.714,0,8.309,1.533,10.777,4.612c2.474,3.068,3.708,7.425,3.708,13.051V80.013z"/>
	<path style="fill:#00B9EF;" d="M313.702,80.013h-6.863v-7.289h-0.171c-3.182,5.567-8.097,8.342-14.735,8.342
		c-5.414,0-9.728-1.948-12.942-5.846c-3.214-3.89-4.815-9.09-4.815-15.593c0-7.091,1.777-12.785,5.347-17.084
		c3.551-4.294,8.314-6.451,14.293-6.451c5.86,0,10.143,2.311,12.853,6.947h0.171V16.536h6.863V80.013z M306.838,60.631v-6.326
		c0-3.543-1.185-6.494-3.537-8.833c-2.366-2.346-5.233-3.516-8.61-3.516c-4.134,0-7.408,1.527-9.842,4.587
		c-2.428,3.049-3.64,7.289-3.64,12.703c0,4.91,1.142,8.797,3.434,11.667c2.287,2.854,5.374,4.289,9.253,4.289
		c3.768,0,6.866-1.37,9.296-4.104C305.618,68.37,306.838,64.876,306.838,60.631z"/>
	<path style="fill:#00B9EF;" d="M364.672,58.412c0,6.814-1.934,12.288-5.797,16.436c-3.871,4.145-9.057,6.218-15.557,6.218
		c-6.342,0-11.401-2.013-15.18-6.052c-3.79-4.034-5.678-9.348-5.678-15.932c0-7.091,1.94-12.698,5.819-16.813
		c3.884-4.118,9.228-6.177,16.04-6.177c6.375,0,11.358,1.991,14.949,5.971C362.872,46.034,364.672,51.487,364.672,58.412z
		 M357.639,58.659c0-5.382-1.191-9.513-3.581-12.389c-2.387-2.878-5.788-4.313-10.235-4.313c-4.414,0-7.908,1.467-10.474,4.408
		c-2.572,2.957-3.847,7.099-3.847,12.467c0,5.132,1.291,9.147,3.868,12.041c2.582,2.887,6.066,4.33,10.452,4.33
		c4.462,0,7.883-1.424,10.254-4.278C356.448,68.088,357.639,63.998,357.639,58.659z"/>
	<path style="fill:#00B9EF;" d="M427.018,37.136l-12.85,42.877h-7.121l-9.586-33.29h-0.174l-10.379,33.29h-6.868l-12.942-42.877
		h7.207l9.462,34.593h0.331l10.593-34.593h6.283l9.546,34.593h0.339l9.378-34.593H427.018z"/>
	<path style="fill:#00B9EF;" d="M456.12,68.544c0,3.722-1.427,6.728-4.289,9.055c-2.865,2.308-6.663,3.467-11.409,3.467
		c-4.047,0-7.598-0.863-10.639-2.604v-7.362c3.378,2.735,7.091,4.104,11.138,4.104c5.442,0,8.168-1.997,8.168-5.99
		c0-1.625-0.534-2.933-1.595-3.955c-1.058-1.02-3.475-2.395-7.243-4.12c-3.789-1.625-6.475-3.361-8.04-5.225
		c-1.562-1.853-2.341-4.313-2.341-7.389c0-3.535,1.416-6.5,4.27-8.876c2.843-2.379,6.462-3.556,10.845-3.556
		c3.38,0,6.434,0.67,9.169,2.004v6.92c-2.788-2.043-6.03-3.06-9.708-3.06c-2.271,0-4.091,0.553-5.477,1.674
		c-1.378,1.112-2.064,2.556-2.064,4.313c0,1.899,0.529,3.358,1.592,4.378c1.058,1.009,3.253,2.222,6.573,3.624
		c4.077,1.725,6.942,3.542,8.586,5.439C455.297,63.284,456.12,65.666,456.12,68.544z"/>
	<path style="fill:#00B9EF;" d="M528.556,80.013h-7.794l-6.326-16.783h-25.502l-5.987,16.783h-7.788l22.949-60.042h7.286
		L528.556,80.013z M512.085,56.86l-10.378-28.093h-0.166L491.287,56.86H512.085z"/>
	<path style="fill:#00B9EF;" d="M566.243,39.103l-25.418,35.099h25.122v5.811h-35.213v-2.132l25.374-34.92h-22.987v-5.824h33.122
		V39.103z"/>
	<path style="fill:#00B9EF;" d="M607.4,80.013h-6.863v-6.784h-0.168c-2.846,5.227-7.246,7.837-13.189,7.837
		c-10.246,0-15.37-6.093-15.37-18.3v-25.63h6.871v24.539c0,9.017,3.461,13.528,10.379,13.528c3.412,0,6.171-1.237,8.292-3.708
		c2.124-2.461,3.185-5.691,3.185-9.652V37.136h6.863V80.013z"/>
	<path style="fill:#00B9EF;" d="M640.932,44.094c-1.227-0.928-2.965-1.386-5.23-1.386c-3.044,0-5.518,1.427-7.417,4.291
		c-1.896,2.859-2.845,6.584-2.845,11.16v21.853h-6.869V37.136h6.869v8.843h0.171c0.947-2.962,2.412-5.301,4.395-7.02
		c1.983-1.714,4.262-2.577,6.828-2.577c1.782,0,3.152,0.201,4.099,0.599V44.094z"/>
	<path style="fill:#00B9EF;" d="M679.402,60.297h-30.284c0.112,4.829,1.392,8.518,3.833,11.068
		c2.441,2.561,5.824,3.838,10.153,3.838c4.856,0,9.283-1.56,13.276-4.688v6.405c-3.741,2.77-8.713,4.145-14.914,4.145
		c-6.112,0-10.883-1.972-14.315-5.919c-3.432-3.955-5.154-9.423-5.154-16.403c0-4.232,0.855-8.114,2.58-11.621
		c1.723-3.491,4.077-6.212,7.094-8.143c3.014-1.923,6.369-2.886,10.048-2.886c5.558,0,9.893,1.807,13.002,5.423
		c3.12,3.616,4.682,8.675,4.682,15.18V60.297z M672.363,54.479c-0.06-3.963-1.017-7.04-2.876-9.242
		c-1.855-2.189-4.468-3.28-7.845-3.28c-3.185,0-5.911,1.142-8.17,3.44c-2.26,2.282-3.686,5.32-4.273,9.082H672.363z"/>
	<g>
		<path style="fill:#00B9EF;" d="M221.433,23.077c0,1.289-0.445,2.349-1.337,3.212c-0.893,0.846-1.953,1.261-3.177,1.261
			c-1.256,0-2.314-0.407-3.182-1.229c-0.865-0.817-1.3-1.907-1.3-3.245c0-1.193,0.432-2.238,1.278-3.117
			c0.852-0.879,1.921-1.316,3.204-1.316c1.278,0,2.352,0.437,3.22,1.294C220.996,20.806,221.433,21.853,221.433,23.077z"/>
	</g>
	<g>
		<polygon style="fill:#00B9EF;" points="44.306,49.189 99.992,49.189 99.992,0 44.306,7.777 		"/>
		<polygon style="fill:#00B9EF;" points="42.638,49.189 42.638,8.016 0,13.973 0,49.189 		"/>
		<polygon style="fill:#00B9EF;" points="44.306,50.854 44.306,92.223 99.992,100 99.992,50.854 		"/>
		<polygon style="fill:#00B9EF;" points="42.638,50.854 0,50.854 0,86.041 42.638,91.981 		"/>
	</g>
</g>
</svg>
