<?xml version="1.0" encoding="iso-8859-1"?>
<!-- Generator: Adobe Illustrator 17.0.2, SVG Export Plug-In . SVG Version: 6.00 Build 0)  -->
<!DOCTYPE svg PUBLIC "-//W3C//DTD SVG 1.1//EN" "http://www.w3.org/Graphics/SVG/1.1/DTD/svg11.dtd">
<svg version="1.1" id="Comp" xmlns="http://www.w3.org/2000/svg" xmlns:xlink="http://www.w3.org/1999/xlink" x="0px" y="0px"
	 width="500px" height="83px" viewBox="0 0 500 83" style="enable-background:new 0 0 500 83;" xml:space="preserve">
<g>
	<path style="fill:#2D2C2E;" d="M190.72,8.767c-0.295-0.077-0.573-0.116-0.88-0.124l-0.372-0.081
		c-0.492-0.077-1.003-0.12-1.511-0.174c-0.368-0.07-0.689-0.077-1.035-0.077c-0.616-0.074-1.22-0.081-1.806-0.081
		c-0.287,0-0.431,0.015-0.69,0.015c-0.488,0.016-0.964,0.073-1.437,0.081c-0.287,0.039-0.539,0.077-0.795,0.077
		c-0.376,0.066-0.771,0.081-1.151,0.124l-0.306,0.081l-0.372,0.077l-0.45,0.081c-0.201,0.063-0.372,0.078-0.546,0.113
		c-0.283,0.077-0.524,0.104-0.764,0.128c-1.543,0.321-2.964,0.763-4.286,1.275c-0.679,0.283-1.325,0.543-1.945,0.852
		c-0.531,0.256-1.016,0.524-1.492,0.791c-0.457,0.287-0.911,0.539-1.333,0.825c-0.263,0.163-0.496,0.329-0.724,0.508
		c-0.201,0.128-0.4,0.291-0.605,0.453c-0.418,0.31-0.81,0.639-1.186,0.972c-0.356,0.295-0.686,0.62-0.996,0.935
		c-0.291,0.287-0.539,0.539-0.802,0.833c-0.284,0.294-0.535,0.592-0.772,0.899c-0.287,0.329-0.539,0.678-0.791,1.023
		c-0.201,0.275-0.368,0.535-0.539,0.799c-0.12,0.201-0.228,0.372-0.368,0.554c-0.686,1.109-1.275,2.291-1.759,3.558
		c-0.616,1.581-1.055,3.283-1.295,5.08c-0.081,0.566-0.124,1.148-0.167,1.736c-0.065,0.453-0.081,0.907-0.081,1.38
		c0,0.368,0,0.693,0.062,1.035c0.065,0.364,0.081,0.701,0.096,1.058l0.07,0.229c0.077,0.415,0.12,0.817,0.201,1.216
		c0.073,0.167,0.081,0.303,0.116,0.465c0.077,0.337,0.124,0.659,0.228,0.977c0.124,0.453,0.213,0.84,0.372,1.247
		c0.175,0.496,0.361,0.985,0.539,1.453c0.295,0.748,0.656,1.465,1.024,2.139c0.209,0.388,0.453,0.795,0.674,1.163
		c0.205,0.291,0.372,0.566,0.566,0.857c0.263,0.372,0.527,0.72,0.779,1.062c0.287,0.368,0.554,0.686,0.837,1
		c0.348,0.399,0.697,0.763,1.031,1.108l0.201,0.175c0.287,0.283,0.581,0.565,0.93,0.856c0.217,0.205,0.469,0.411,0.748,0.62
		c0.256,0.205,0.508,0.392,0.779,0.6c0.329,0.233,0.679,0.473,1.043,0.705c0.372,0.256,0.795,0.5,1.228,0.748
		c0.857,0.477,1.807,0.942,2.848,1.356c0.372,0.144,0.795,0.291,1.213,0.457c0.396,0.124,0.837,0.284,1.275,0.411
		c0.752,0.209,1.535,0.388,2.36,0.559c0.663,0.124,1.36,0.225,2.065,0.291c0.705,0.101,1.449,0.151,2.213,0.205
		c0.379,0.047,0.755,0.065,1.127,0.081c0.202,0,0.369,0.023,0.535,0.023c1.364,0,2.628-0.081,3.795-0.143l0.259-0.047
		c0.453-0.073,0.911-0.097,1.353-0.128c0.667-0.093,1.313-0.186,1.91-0.287c0.376-0.081,0.756-0.124,1.12-0.209
		c0.547-0.12,1.093-0.256,1.597-0.376c0.387-0.12,0.74-0.209,1.088-0.291c0.415-0.124,0.822-0.267,1.201-0.376l0.396-0.124
		c0.205-0.077,0.411-0.135,0.724-0.283c0.4-0.139,0.864-0.344,1.399-0.558c0.369-0.136,0.675-0.291,1.02-0.453
		c0.368-0.128,0.655-0.291,0.992-0.457c0.159-0.081,0.325-0.124,0.453-0.209v-8.339c-0.12,0.081-0.213,0.127-0.349,0.174
		l-0.577,0.368c-0.565,0.369-1.116,0.683-1.67,0.973c-0.617,0.317-1.194,0.628-1.783,0.907c-1.031,0.492-2.019,0.895-2.98,1.236
		c-1.81,0.663-3.484,1.077-4.952,1.325c-0.209,0.073-0.376,0.081-0.535,0.108c-0.427,0.077-0.799,0.12-1.171,0.128
		c-0.581,0.081-1.116,0.113-1.6,0.124c-0.345,0.024-0.62,0.047-0.888,0.047c-0.597,0-1.205-0.031-1.817-0.077
		c-0.724-0.081-1.468-0.128-2.22-0.264c-1.209-0.209-2.411-0.519-3.6-0.945c-0.187-0.077-0.372-0.124-0.531-0.205
		c-0.128-0.081-0.221-0.108-0.353-0.124c-0.205-0.093-0.376-0.175-0.581-0.271c-0.415-0.201-0.813-0.384-1.212-0.62
		c-0.205-0.12-0.372-0.209-0.593-0.357c-0.205-0.124-0.376-0.275-0.593-0.379c-0.236-0.179-0.476-0.361-0.709-0.535
		c-0.212-0.187-0.453-0.369-0.655-0.536l-0.287-0.248l-0.128-0.124l-0.085-0.081l-0.124-0.104c-0.368-0.372-0.708-0.748-1.023-1.12
		c-0.182-0.209-0.356-0.438-0.5-0.643c-0.143-0.205-0.287-0.4-0.445-0.616c-0.128-0.202-0.244-0.38-0.372-0.597
		c-0.175-0.287-0.325-0.597-0.457-0.88c-0.124-0.248-0.228-0.5-0.36-0.74c-0.19-0.43-0.333-0.84-0.453-1.244
		c-0.124-0.295-0.205-0.624-0.283-0.93c-0.205-0.868-0.329-1.667-0.376-2.341c-0.062-0.275-0.077-0.507-0.077-0.72
		c0-0.345-0.066-0.624-0.066-0.856v-0.536c0.066-0.46,0.081-1.088,0.144-1.775c0.081-0.399,0.139-0.864,0.267-1.332
		c0.081-0.295,0.171-0.624,0.283-0.957c0.093-0.291,0.205-0.597,0.299-0.899c0.081-0.205,0.171-0.408,0.264-0.617
		c0.124-0.29,0.275-0.562,0.399-0.852c0.12-0.209,0.225-0.434,0.364-0.639c0.291-0.469,0.593-0.946,0.942-1.415
		c0.127-0.167,0.267-0.337,0.375-0.504c0.194-0.209,0.369-0.453,0.555-0.643c0.116-0.121,0.209-0.209,0.291-0.307
		c1.527-1.523,3.247-2.674,5.026-3.48c0.288-0.124,0.547-0.232,0.841-0.368c0.287-0.12,0.551-0.205,0.849-0.299
		c0.298-0.116,0.62-0.201,0.926-0.287c0.291-0.081,0.597-0.136,0.88-0.209c0.295-0.077,0.6-0.12,0.883-0.186
		c0.33-0.081,0.644-0.124,0.965-0.144c0.341-0.081,0.636-0.081,0.953-0.124c0.616-0.081,1.213-0.081,1.791-0.081
		c0.209,0,0.387,0,0.585,0.016c0.438,0.015,0.848,0.051,1.263,0.081c0.291,0.031,0.561,0.055,0.841,0.077
		c0.535,0.081,1.039,0.124,1.511,0.209c0.435,0.077,0.849,0.124,1.232,0.205c0.601,0.12,1.152,0.256,1.632,0.372
		c0.364,0.081,0.62,0.171,0.887,0.244c0.442,0.12,0.744,0.225,1.02,0.317c0.453,0.152,0.712,0.264,0.712,0.264
		c0.431,0.132,0.818,0.291,1.205,0.453c0.539,0.205,1.039,0.453,1.527,0.667c0.427,0.193,0.78,0.368,1.14,0.539
		c0.348,0.132,0.577,0.287,0.844,0.43c0.453,0.217,0.845,0.457,1.155,0.624l0.849,0.453v-8.195c0,0-0.52-0.205-1.387-0.535
		c-0.427-0.132-0.853-0.307-1.384-0.508c-0.321-0.12-0.593-0.205-0.919-0.317c-0.287-0.093-0.531-0.202-0.806-0.287
		c-0.361-0.117-0.628-0.206-0.965-0.295c-0.287-0.077-0.488-0.132-0.74-0.205l-0.256-0.081c-0.283-0.078-0.492-0.124-0.74-0.209
		c-0.321-0.085-0.608-0.156-0.899-0.229c-0.209-0.081-0.384-0.1-0.612-0.128c-0.349-0.077-0.64-0.128-0.973-0.205
		c-0.372-0.081-0.689-0.124-1.031-0.209 M149.77,0.258h64.995v61.171H149.77V0.258z"/>
	<path style="fill:#2D2C2E;" d="M99.822,33.988v12.014h7.809c0,0,0.144,0,0.407-0.024c0.276-0.015,0.632-0.031,1.085-0.077
		c0.849-0.081,1.965-0.217,3.046-0.604c0.973-0.345,1.938-0.833,2.663-1.551c0.287-0.291,0.519-0.577,0.701-0.876
		c0.612-0.952,0.76-1.944,0.795-2.495c0.047-0.233,0.047-0.376,0.047-0.376s0-0.112-0.024-0.287c0-0.213-0.047-0.683-0.139-1.159
		c-0.136-0.577-0.435-1.24-0.915-1.837c-0.116-0.12-0.201-0.236-0.287-0.36c-0.209-0.209-0.453-0.427-0.697-0.612
		c-0.45-0.299-0.919-0.581-1.445-0.811c-0.702-0.294-1.488-0.535-2.356-0.697c-0.45-0.081-0.904-0.135-1.388-0.205
		c-0.291-0.054-0.581-0.077-0.891-0.077c-0.287-0.035-0.543-0.051-0.825-0.051c-2.775,0-7.55-0.003-7.55-0.003"/>
	<path style="fill:#2D2C2E;" d="M99.822,15.709v11.393h3.783c0,0,0.255,0,0.588-0.016c0.276-0.015,0.577-0.054,0.853-0.077
		c0.771-0.081,1.848-0.163,2.926-0.457c0.205-0.077,0.431-0.12,0.62-0.205c0.844-0.291,1.651-0.744,2.283-1.364
		c0.507-0.496,0.825-1.039,1.046-1.577c0.284-0.643,0.369-1.271,0.388-1.716c0.077-0.372,0.077-0.644,0.077-0.644
		s0-0.197-0.015-0.464c-0.055-0.496-0.128-1.311-0.536-2.077c-0.205-0.372-0.453-0.728-0.806-1.077
		c-0.431-0.431-0.941-0.744-1.484-0.988c-1.065-0.457-2.287-0.647-3.313-0.721c-0.449-0.062-0.848-0.077-1.193-0.077L99.822,15.709z
		"/>
	<path style="fill:#2D2C2E;" d="M91.936,8.83v44.057h16.582c0,0,8.083,0.209,12.548-4.251c3.635-3.631,3.372-7.835,3.372-7.835
		s0.275-4.395-3.1-7.759c-2.868-2.86-6.523-3.627-6.523-3.627s1.648-0.779,2.919-2.047c0.6-0.596,2.708-2.503,2.708-7.146
		c0-4.67-3.111-7.363-3.111-7.363s-3.403-4.03-11.095-4.03H91.936z M74.889,0.258h64.992v61.171H74.889V0.258z"/>
	<path style="fill:#2D2C2E;" d="M24.937,33.988v12.014h7.805c0,0,0.147,0,0.411-0.024c0.268-0.015,0.636-0.031,1.085-0.077
		c0.844-0.081,1.968-0.217,3.046-0.604c0.984-0.345,1.93-0.833,2.663-1.551c0.287-0.291,0.523-0.577,0.701-0.876
		c0.62-0.952,0.763-1.944,0.798-2.495c0.035-0.233,0.035-0.376,0.035-0.376s0.016-0.112,0-0.287
		c-0.019-0.213-0.073-0.683-0.159-1.159c-0.131-0.577-0.434-1.24-0.915-1.837c-0.1-0.12-0.197-0.236-0.287-0.36
		c-0.209-0.209-0.453-0.427-0.701-0.612c-0.445-0.299-0.918-0.581-1.449-0.811c-0.701-0.294-1.48-0.535-2.34-0.697
		c-0.457-0.081-0.915-0.135-1.391-0.205c-0.287-0.054-0.597-0.077-0.903-0.077c-0.28-0.035-0.539-0.051-0.818-0.051
		c-2.775,0-7.549-0.003-7.549-0.003"/>
	<path style="fill:#2D2C2E;" d="M24.937,15.709v11.393h3.774c0,0,0.268,0,0.593-0.016c0.279-0.015,0.569-0.054,0.845-0.077
		c0.783-0.081,1.86-0.163,2.934-0.457c0.201-0.077,0.43-0.12,0.624-0.205c0.84-0.291,1.647-0.744,2.278-1.364
		c0.512-0.496,0.829-1.039,1.055-1.577c0.279-0.643,0.372-1.271,0.38-1.716c0.069-0.372,0.069-0.644,0.069-0.644
		s0.008-0.197-0.016-0.464c-0.046-0.496-0.127-1.311-0.535-2.077c-0.205-0.372-0.453-0.728-0.798-1.077
		c-0.442-0.431-0.945-0.744-1.492-0.988c-1.065-0.457-2.287-0.647-3.306-0.721c-0.453-0.062-0.86-0.077-1.201-0.077L24.937,15.709z"
		/>
	<path style="fill:#2D2C2E;" d="M17.055,8.83v44.057h16.574c0,0,8.092,0.209,12.557-4.251c3.635-3.631,3.371-7.835,3.371-7.835
		s0.279-4.395-3.108-7.759c-2.863-2.86-6.522-3.627-6.522-3.627s1.647-0.779,2.926-2.047c0.589-0.596,2.709-2.503,2.709-7.146
		c0-4.67-3.116-7.363-3.116-7.363s-3.403-4.03-11.098-4.03H17.055z M0,0.258h64.992v61.171H0V0.258z"/>
	<path style="fill:#E4017D;" d="M424.18,24.144l3.167-8.063H411.69l-9.305,29.591h-0.332l-9.743-29.591h-16.884l2.208,5.58
		l-0.317,0.077c-3.952-4.763-10.522-6.692-17.706-6.692c-6.704,0-10.23,0.829-16.109,2.468c0,0-3.499,10.549-3.659,11.002
		c-0.332,0.507,0.412,1.035,0.845,0.787c4.031-1.927,9.087-3.81,15.524-3.81c5.655,0,10.27,1.647,10.359,7.827
		c-2-0.36-4.79-0.616-7.305-0.616c-6.647,0-17.524,1.059-21.697,8.452l-0.341-0.016V0.231h-15.66v14.428l-0.333,0.004
		c-2.565-9.417-11.146-14.432-26.499-14.432h-19.431l-0.081,16.245L259.699,2.521c-1.867-1.566-3.631-2.283-6.662-2.283h-6.154
		c-2.747,0-4.952,2.325-4.952,5.188v9.568h15.257v-4.31c0-1.434,1.705-2.182,2.775-1.108l21.895,19.581
		c0.988,0.992,1.155,2.093,0.128,3.193l-21.976,19.783c-1.209,0.923-2.779,0.205-2.779-1.143V22.192h-15.253V56.39
		c0,2.449,2.12,5.019,5.038,5.019h6.068c3.027,0,4.763-0.709,6.716-2.197l15.474-13.982v16.183h16.276V41.92h6.301
		c12.571,0,20.88-5.654,23.411-14.555h0.303v34.048h15.652v-6.309l0.345-0.004c2.817,4.94,8.781,7.188,15.253,7.359
		c7.921,0.209,12.188-3.682,13.838-4.728c0.453-0.325,0.736-0.372,0.779,0.077c0.189,1.271,0.411,2.635,0.411,3.616h14.358
		c-0.683-3.562-0.876-7.131-0.876-10.7v-16.88c0-0.957-0.116-1.856-0.317-2.72l0.325-0.077l12.443,31.416
		c0,0-2.077,7.003-8.568,7.003c-2.67,0-4.395-0.38-6.839-1.558c-0.423-0.167-0.764,0.047-0.9,0.445l-3.782,11.482
		c2.255,1.132,7.87,2.934,13.908,2.934c13.207,0,19.04-14.481,22.969-24.468l9.474-24.054l0.326,0.081
		c-0.38,1.403-0.423,2.868-0.423,4.399c0,14.973,11.397,23.759,26.371,23.759c4.522,0,9.579-0.81,13.377-2.271
		c0,0,3.174-9.421,3.836-11.413c0.388-0.686-0.438-1.031-0.872-0.795c-3.886,2.163-8.39,4.038-13.562,4.038
		c-7.662,0-12.443-2.444-13.315-8.703h30.311V61.44h15.668V42.3c0-9.917,5.306-14.184,11.447-14.184
		c1.508,0,2.655,0.453,2.655,0.453l4.084-12.3c0.198-0.368-0.135-0.74-0.453-0.81c-1.407-0.209-3.03-0.408-4.592-0.408
		c-6.774,0-11.633,3.655-14.318,9.406h-0.341v-8.363H465.97v14.885l-0.333-0.016c-2.464-9.122-9.021-15.919-21.689-15.919
		c-8.607,0-15.737,3.247-20.004,9.173L424.18,24.144z M296.378,30.377h-4.204V11.883h4.204c5.584,0,10.06,2.945,10.06,9.161
		C306.439,27.427,301.963,30.377,296.378,30.377 M357.211,52.015c-3.646,0-6.436-1.825-6.436-4.96c0-4.355,4.182-6.01,9.487-6.01
		c2.356,0,4.619,0.189,6.614,0.271c0,5.302-3.731,10.707-9.665,10.707 M435.716,34.43c0.461-5.22,3.046-9.479,8.707-9.479
		c6.271,0,8.688,4.259,8.688,9.479H435.716z"/>
</g>
</svg>
