<?xml version="1.0" encoding="iso-8859-1"?>
<!-- Generator: Adobe Illustrator 17.0.2, SVG Export Plug-In . SVG Version: 6.00 Build 0)  -->
<!DOCTYPE svg PUBLIC "-//W3C//DTD SVG 1.1//EN" "http://www.w3.org/Graphics/SVG/1.1/DTD/svg11.dtd">
<svg version="1.1" id="Comp" xmlns="http://www.w3.org/2000/svg" xmlns:xlink="http://www.w3.org/1999/xlink" x="0px" y="0px"
	 width="240px" height="240px" viewBox="0 0 240 240" style="enable-background:new 0 0 240 240;" xml:space="preserve">
<path style="fill:#0094D9;" d="M119.665,0.395c3.562-0.021,7.111-0.827,10.646-0.075c15.65,1.388,31.081,5.689,45.003,13.018
	c18.009,9.223,33.502,23.247,44.742,40.052c11.466,17.093,18.255,37.222,19.786,57.733c-0.252,5.429-0.41,10.892,0.117,16.307
	c-1.122,15.596-5.026,31.061-11.986,45.105c-7.938,16.32-19.692,30.761-34.001,41.92c-17.831,13.981-39.711,22.727-62.287,24.799
	c-3.439,0.245-6.872,0.882-10.33,0.615c-2.291-0.151-4.636,0.581-6.837-0.356c8.43-23.718,16.854-47.443,25.359-71.141
	c9.257-0.171,18.522,0.062,27.779-0.109c5.908-0.205,11.747-3.802,13.689-9.545c7.829-22.043,15.855-44.025,23.438-66.164
	c1.244-3.343,1.935-7.07,0.944-10.57c-1.34-4.437-5.401-7.576-9.764-8.752c-3.788-1.176-7.788-0.745-11.685-0.814
	c-11.883-0.034-23.766,0.062-35.642-0.055c-0.191,0.397-0.582,1.183-0.773,1.573c-19.241,54.041-38.446,108.097-57.761,162.111
	c-19.842-5.149-38.329-15.459-53.07-29.708c-17.756-16.99-30.084-39.587-34.644-63.743c-1.429-7.254-1.949-14.638-2.345-22.002
	c0.321-15.336,2.837-30.74,8.615-45.003C22.748,39.566,55.355,11.198,93.26,3.089C73.856,56.891,54.903,110.857,35.506,164.666
	c1.238,0.376,2.537,0.232,3.808,0.245c7.07-0.034,14.146,0.014,21.216-0.014c0.964-0.007,0.861-1.347,1.265-1.962
	c8.519-24.053,17.141-48.072,25.687-72.112c0.513-1.491,0.991-2.995,1.675-4.41c4.431,0.075,8.861-0.021,13.292,0.048
	c-9.292,26.057-18.501,52.154-27.93,78.162c0.985,0.397,2.058,0.273,3.09,0.295c7.425-0.069,14.85,0.047,22.276-0.055
	c8.389-23.677,16.881-47.314,25.292-70.977c1.798-4.841,1.955-10.563-0.903-15.028c-2.496-3.952-7.234-5.839-11.753-6.024
	c-6.181-0.185-12.369,0.014-18.556-0.096C102.47,48.604,111.228,24.558,119.665,0.395z M168.927,86.722
	c0.738-0.834,2.051-0.328,3.036-0.472c3.432,0.062,6.864-0.027,10.297,0.048c-7.993,22.816-16.361,45.502-24.224,68.365
	c-4.444,0.315-8.923,0.123-13.374,0.096C152.778,132.094,160.812,109.394,168.927,86.722z"/>
</svg>
