<?xml version="1.0" encoding="iso-8859-1"?>
<!-- Generator: Adobe Illustrator 17.0.2, SVG Export Plug-In . SVG Version: 6.00 Build 0)  -->
<!DOCTYPE svg PUBLIC "-//W3C//DTD SVG 1.1//EN" "http://www.w3.org/Graphics/SVG/1.1/DTD/svg11.dtd">
<svg version="1.1" id="Comp" xmlns="http://www.w3.org/2000/svg" xmlns:xlink="http://www.w3.org/1999/xlink" x="0px" y="0px"
	 width="531px" height="90px" viewBox="0 0 531 90" style="enable-background:new 0 0 531 90;" xml:space="preserve">
<g>
	<g>
		<path style="fill:#888888;" d="M364.735,1.495L373.418,0v71.048c-1.993,0.559-4.544,1.12-7.656,1.679
			c-3.115,0.56-6.691,0.84-10.736,0.84c-3.735,0-7.097-0.592-10.086-1.772c-2.986-1.182-5.538-2.863-7.654-5.042
			c-2.114-2.177-3.75-4.838-4.9-7.981c-1.153-3.143-1.729-6.677-1.729-10.597c0-3.735,0.48-7.157,1.45-10.27
			c0.963-3.113,2.378-5.788,4.247-8.03c1.866-2.24,4.152-3.981,6.862-5.228c2.708-1.244,5.8-1.867,9.286-1.867
			c2.803,0,5.276,0.372,7.425,1.121c2.147,0.746,3.749,1.463,4.808,2.147V1.495z M364.735,34.171
			c-1.06-0.872-2.585-1.711-4.577-2.522c-1.992-0.809-4.17-1.214-6.534-1.214c-2.492,0-4.622,0.454-6.396,1.354
			c-1.773,0.903-3.22,2.148-4.341,3.736c-1.12,1.586-1.931,3.469-2.428,5.647c-0.497,2.179-0.747,4.514-0.747,7.003
			c0,5.662,1.403,10.035,4.203,13.116c2.801,3.08,6.534,4.622,11.204,4.622c2.364,0,4.339-0.108,5.93-0.328
			c1.584-0.217,2.813-0.45,3.686-0.702V34.171z"/>
		<path style="fill:#888888;" d="M416.967,67.592c-0.747,0.5-2.197,1.137-4.341,1.916c-2.149,0.777-4.656,1.167-7.516,1.167
			c-2.925,0-5.68-0.468-8.262-1.401c-2.585-0.935-4.843-2.382-6.77-4.343c-1.928-1.959-3.453-4.401-4.572-7.326
			c-1.122-2.925-1.681-6.411-1.681-10.457c0-3.548,0.525-6.801,1.586-9.758c1.055-2.954,2.597-5.508,4.62-7.654
			c2.021-2.149,4.494-3.829,7.424-5.043c2.924-1.213,6.223-1.82,9.892-1.82c4.049,0,7.58,0.295,10.597,0.888
			c3.02,0.59,5.557,1.137,7.611,1.633v43.317c0,7.468-1.929,12.884-5.788,16.244C415.91,88.318,410.059,90,402.217,90
			c-3.051,0-5.93-0.249-8.636-0.746c-2.708-0.499-5.06-1.092-7.048-1.774l1.588-7.563c1.74,0.683,3.873,1.291,6.396,1.819
			c2.52,0.529,5.148,0.796,7.887,0.796c5.167,0,8.881-1.029,11.157-3.082c2.27-2.054,3.407-5.321,3.407-9.803V67.592z
			 M416.874,31.557c-0.871-0.249-2.038-0.482-3.502-0.699c-1.46-0.218-3.438-0.329-5.926-0.329c-4.67,0-8.263,1.527-10.785,4.575
			c-2.518,3.049-3.781,7.095-3.781,12.138c0,2.799,0.359,5.196,1.073,7.188c0.718,1.993,1.683,3.642,2.896,4.948
			c1.211,1.308,2.613,2.273,4.201,2.894c1.588,0.623,3.219,0.934,4.901,0.934c2.302,0,4.418-0.328,6.348-0.98
			c1.929-0.656,3.455-1.416,4.575-2.287V31.557z"/>
		<path style="fill:#888888;" d="M436.171,48.269c0-4.296,0.621-8.044,1.867-11.25c1.243-3.204,2.893-5.867,4.948-7.984
			c2.054-2.115,4.417-3.702,7.095-4.761c2.675-1.059,5.416-1.588,8.215-1.588c6.536,0,11.544,2.04,15.032,6.116
			c3.483,4.077,5.229,10.287,5.229,18.626c0,0.373,0,0.858,0,1.446c0,0.592-0.035,1.136-0.093,1.634h-33.239
			c0.375,5.04,1.836,8.869,4.391,11.484c2.551,2.615,6.534,3.921,11.95,3.921c3.046,0,5.616-0.264,7.702-0.794
			c2.087-0.528,3.657-1.042,4.715-1.54l1.213,7.28c-1.058,0.561-2.91,1.154-5.554,1.775c-2.649,0.621-5.652,0.933-9.009,0.933
			c-4.235,0-7.894-0.639-10.973-1.914c-3.079-1.274-5.616-3.034-7.607-5.274c-1.992-2.241-3.471-4.901-4.439-7.983
			C436.652,55.317,436.171,51.94,436.171,48.269z M469.5,43.506c0.059-3.922-0.918-7.142-2.941-9.662
			c-2.023-2.521-4.808-3.781-8.356-3.781c-1.992,0-3.75,0.388-5.274,1.167c-1.526,0.778-2.816,1.79-3.876,3.035
			c-1.06,1.245-1.881,2.677-2.471,4.295c-0.592,1.618-0.982,3.267-1.167,4.947H469.5z"/>
		<path style="fill:#888888;" d="M302.483,22.687c-2.801,0-5.54,0.529-8.213,1.588c-0.142,0.054-0.274,0.117-0.411,0.172
			l-12.188,33.491c0.045,0.153,0.086,0.308,0.134,0.458c0.963,3.081,2.44,5.742,4.432,7.983c1.992,2.24,4.529,4,7.609,5.274
			c3.081,1.275,6.738,1.914,10.971,1.914c3.362,0,6.363-0.311,9.009-0.933c2.646-0.621,4.497-1.214,5.555-1.775l-1.213-7.28
			c-1.06,0.498-2.63,1.012-4.715,1.54c-2.085,0.53-4.653,0.794-7.704,0.794c-5.412,0-9.395-1.307-11.95-3.921
			c-2.552-2.615-4.014-6.443-4.387-11.484h33.232c0.066-0.499,0.1-1.042,0.1-1.634c0-0.588,0-1.073,0-1.446
			c0-8.339-1.747-14.549-5.231-18.626C314.029,24.727,309.019,22.687,302.483,22.687z M289.602,43.506
			c0.185-1.68,0.575-3.329,1.165-4.947c0.59-1.618,1.415-3.05,2.471-4.295c1.063-1.245,2.351-2.257,3.88-3.035
			c1.522-0.778,3.281-1.167,5.274-1.167c3.547,0,6.332,1.261,8.356,3.781c2.019,2.52,3.003,5.74,2.939,9.662H289.602z"/>
	</g>
	<g>
		<path style="fill:#333333;" d="M39.211,71.05c-1.992,0.498-4.622,1.027-7.889,1.586c-3.267,0.561-7.047,0.84-11.34,0.84
			c-3.738,0-6.879-0.545-9.433-1.633c-2.551-1.089-4.605-2.63-6.161-4.622c-1.557-1.993-2.675-4.344-3.36-7.05
			C0.342,57.465,0,54.462,0,51.161V23.902h8.683v25.394c0,5.914,0.934,10.146,2.801,12.697c1.867,2.553,5.008,3.829,9.43,3.829
			c0.932,0,1.898-0.032,2.892-0.096c0.996-0.06,1.929-0.14,2.803-0.233c0.87-0.093,1.664-0.186,2.382-0.28
			c0.713-0.093,1.225-0.2,1.539-0.324V23.902h8.681V71.05z"/>
		<path style="fill:#333333;" d="M60.404,26.049c1.056-0.684,2.66-1.401,4.806-2.147c2.149-0.749,4.623-1.121,7.423-1.121
			c3.484,0,6.582,0.622,9.29,1.867c2.708,1.248,4.993,2.987,6.862,5.229c1.869,2.242,3.284,4.917,4.251,8.03
			c0.963,3.112,1.446,6.532,1.446,10.267c0,3.921-0.578,7.455-1.729,10.598c-1.149,3.143-2.786,5.804-4.9,7.981
			c-2.118,2.181-4.668,3.86-7.657,5.042c-2.986,1.181-6.348,1.774-10.082,1.774c-4.047,0-7.625-0.282-10.738-0.842
			c-3.112-0.559-5.664-1.117-7.656-1.678V1.494L60.404,0V26.049z M60.404,64.888c0.87,0.247,2.099,0.482,3.686,0.697
			c1.588,0.22,3.564,0.328,5.928,0.328c4.668,0,8.405-1.542,11.206-4.622c2.799-3.082,4.201-7.452,4.201-13.118
			c0-2.488-0.252-4.823-0.747-7.003c-0.499-2.176-1.306-4.058-2.426-5.645c-1.122-1.589-2.568-2.832-4.344-3.736
			c-1.772-0.9-3.906-1.352-6.392-1.352c-2.368,0-4.544,0.404-6.537,1.212c-1.992,0.81-3.517,1.651-4.573,2.522V64.888z"/>
		<path style="fill:#333333;" d="M142.934,71.05c-1.993,0.498-4.623,1.027-7.891,1.586c-3.267,0.561-7.048,0.84-11.344,0.84
			c-3.735,0-6.879-0.545-9.43-1.633c-2.551-1.089-4.605-2.63-6.161-4.622c-1.557-1.993-2.678-4.344-3.36-7.05
			c-0.685-2.707-1.027-5.71-1.027-9.011V23.902h8.684v25.394c0,5.914,0.932,10.146,2.799,12.697c1.866,2.553,5.008,3.829,9.43,3.829
			c0.932,0,1.898-0.032,2.892-0.096c0.996-0.06,1.929-0.14,2.803-0.233c0.87-0.093,1.664-0.186,2.382-0.28
			c0.714-0.093,1.225-0.2,1.539-0.324V23.902h8.683V71.05z"/>
		<path style="fill:#333333;" d="M155.443,25.301c1.99-0.495,4.634-1.027,7.937-1.586c3.296-0.563,7.093-0.841,11.387-0.841
			c3.859,0,7.064,0.546,9.616,1.633c2.554,1.09,4.591,2.615,6.116,4.573c1.526,1.964,2.599,4.314,3.22,7.05
			c0.621,2.739,0.935,5.757,0.935,9.058v27.259h-8.684V47.054c0-2.987-0.204-5.536-0.604-7.656
			c-0.407-2.112-1.075-3.826-2.009-5.133c-0.935-1.307-2.181-2.255-3.735-2.848c-1.557-0.59-3.488-0.886-5.788-0.886
			c-0.934,0-1.898,0.032-2.896,0.093c-0.994,0.062-1.943,0.14-2.846,0.234c-0.906,0.093-1.714,0.202-2.428,0.326
			c-0.714,0.124-1.229,0.218-1.541,0.279v40.986h-8.681V25.301z"/>
		<path style="fill:#333333;" d="M214.727,23.902h18.39v7.282h-18.39V53.59c0,2.428,0.186,4.433,0.559,6.02
			c0.373,1.589,0.934,2.834,1.681,3.737c0.746,0.904,1.681,1.542,2.801,1.913c1.12,0.373,2.428,0.562,3.919,0.562
			c2.675,0,4.794-0.294,6.351-0.888c1.553-0.594,2.611-1.01,3.172-1.261l1.867,7.096c-0.87,0.435-2.416,0.997-4.622,1.68
			c-2.209,0.684-4.715,1.028-7.514,1.028c-3.298,0-6.021-0.421-8.17-1.261c-2.147-0.838-3.873-2.099-5.184-3.78
			c-1.301-1.682-2.223-3.75-2.751-6.209c-0.53-2.458-0.792-5.304-0.792-8.541v-43.32l8.683-1.495V23.902z"/>
		<path style="fill:#333333;" d="M280.358,23.902h-8.683v40.987c-0.314,0.124-0.827,0.231-1.543,0.324
			c-0.715,0.093-1.51,0.186-2.38,0.28c-0.87,0.093-1.803,0.173-2.801,0.233c-0.997,0.064-1.96,0.096-2.894,0.096
			c-4.42,0-7.561-1.276-9.428-3.829c-1.867-2.551-2.801-6.783-2.801-12.697V23.902h-8.683v27.259c0,3.301,0.342,6.304,1.025,9.011
			c0.687,2.706,1.807,5.057,3.362,7.05c1.557,1.992,3.61,3.533,6.163,4.622c2.551,1.087,5.693,1.633,9.428,1.633
			c4.069,0,7.67-0.255,10.817-0.758l8.417-23.126V23.902z"/>
	</g>
	<g>
		<polygon style="fill:#DD4814;" points="499.519,0 495.428,0 486.73,23.904 490.82,23.904 		"/>
		<polygon style="fill:#DD4814;" points="509.735,0 505.649,0 496.947,23.904 501.037,23.904 		"/>
		<polygon style="fill:#DD4814;" points="519.956,0 515.867,0 507.167,23.904 511.254,23.904 		"/>
		<polygon style="fill:#DD4814;" points="530.173,0 526.086,0 517.386,23.904 521.473,23.904 		"/>
	</g>
</g>
</svg>
