<?xml version="1.0" encoding="iso-8859-1"?>
<!-- Generator: Adobe Illustrator 17.0.2, SVG Export Plug-In . SVG Version: 6.00 Build 0)  -->
<!DOCTYPE svg PUBLIC "-//W3C//DTD SVG 1.1//EN" "http://www.w3.org/Graphics/SVG/1.1/DTD/svg11.dtd">
<svg version="1.1" id="Comp" xmlns="http://www.w3.org/2000/svg" xmlns:xlink="http://www.w3.org/1999/xlink" x="0px" y="0px"
	 width="240px" height="240px" viewBox="0 0 240 240" style="enable-background:new 0 0 240 240;" xml:space="preserve">
<g>
	<path style="fill:#0083CA;" d="M116.28,0.36c2.48,0,4.96,0,7.44,0c36.188,2.041,61.99,15.782,81.12,35.04s33.27,44.658,35.16,81
		c0,2.4,0,4.8,0,7.2c-1.837,36.923-16.228,61.292-35.16,81.12c-19.887,18.834-44.336,33.104-81.24,34.92c-2.44,0-4.88,0-7.32,0
		c-36.184-2.045-61.991-15.781-81.12-35.04C16.031,185.342,1.89,159.942,0,123.6c0-2.4,0-4.8,0-7.2c0.094-0.026,0.14-0.1,0.12-0.24
		c1.809-36.203,16.027-61.867,35.04-80.88C54.261,16.179,80.33,2.339,116.28,0.36z M92.76,17.52c-7.13,1.909-13.524,4.334-19.32,7.2
		c-17.641,8.723-32.188,21.203-42.36,37.2c-9.929,15.615-18.524,35.701-17.28,62.04c0.785,16.605,4.574,30.573,10.56,42.48
		c11.82,23.51,29.816,40.832,54.72,51.361c12.315,5.206,27.576,8.858,44.76,8.04c16.484-0.785,30.766-4.49,42.6-10.44
		c23.193-11.661,41.471-29.654,51.601-54.48c5.123-12.558,8.997-27.065,8.16-44.64c-1.585-33.292-15.128-55.866-33-73.08
		c-8.843-8.518-19.492-15.763-32.04-21c-12.175-5.081-28.025-8.848-45.001-8.04C107.816,14.557,99.944,15.596,92.76,17.52z"/>
	<path style="fill:#0083CA;" d="M108.96,88.92c3.802,2.518,7.691,4.949,11.28,7.68c-8.108,5.091-16.057,10.343-24.12,15.48
		c1.224,0.936,2.616,1.704,3.84,2.64c8.13-5.15,16.262-10.298,24.36-15.48c3.632,2.248,7.208,4.552,10.56,7.08
		c-8.115,5.126-15.958,10.522-24,15.72c1.192,0.969,2.652,1.668,3.96,2.52c8.312-5.087,16.418-10.382,24.6-15.6
		c0-5.68,0-11.36,0-17.041c6,0,12,0,18,0c0,11.32,0,22.64,0,33.96c5.079,0.28,10.68,0.04,15.96,0.12c0,5.32,0,10.64,0,15.96
		c-11.321,0-22.64,0-33.96,0c0-5.4,0-10.8,0-16.2c-9.978,6.062-20.203,12.917-30.24,19.32c-10.452-6.787-20.526-13.955-30.96-20.76
		c-3.022,9.58-10.201,16.789-22.08,17.64c-7.409,0.53-15.827-0.395-24.36,0c0-16.679,0-33.36,0-50.04
		c10.669,0.707,22.382-1.427,30.84,1.2c7.478,2.323,12.78,8.289,15.24,15.72C88.322,102.282,98.596,95.557,108.96,88.92z M48.96,108
		c0,6,0,12,0,18c4.288,0.021,7.549,0.27,10.08-1.68c3.765-2.901,4.524-10.09,1.2-13.921c-2.218-2.556-5.963-3.093-11.16-2.76
		C48.94,107.66,48.949,107.83,48.96,108z"/>
	<path style="fill:#0083CA;" d="M178.081,91.92c6,0,11.999,0,18,0c0,11.36,0,22.72,0,34.08c5.28,0,10.56,0,15.84,0
		c0,5.32,0,10.64,0,15.96c-11.321,0-22.64,0-33.96,0c0-16.56,0-33.12,0-49.68C177.95,92.11,177.94,91.94,178.081,91.92z"/>
</g>
</svg>
