<?xml version="1.0" encoding="iso-8859-1"?>
<!-- Generator: Adobe Illustrator 17.0.2, SVG Export Plug-In . SVG Version: 6.00 Build 0)  -->
<!DOCTYPE svg PUBLIC "-//W3C//DTD SVG 1.1//EN" "http://www.w3.org/Graphics/SVG/1.1/DTD/svg11.dtd">
<svg version="1.1" id="Comp" xmlns="http://www.w3.org/2000/svg" xmlns:xlink="http://www.w3.org/1999/xlink" x="0px" y="0px"
	 width="400px" height="164px" viewBox="0 0 400 164" style="enable-background:new 0 0 400 164;" xml:space="preserve">
<g>
	<g>
		<g>
			<g>
				<g>
					<circle style="fill:#D2D700;" cx="65.385" cy="38.876" r="11.538"/>
				</g>
			</g>
		</g>
	</g>
	<g>
		<g>
			<g>
				<g>
					<circle style="fill:#0091D3;" cx="119.231" cy="65.8" r="11.538"/>
				</g>
			</g>
		</g>
	</g>
	<g>
		<g>
			<g>
				<g>
					<circle style="fill:#81CFF4;" cx="146.154" cy="11.953" r="11.538"/>
				</g>
			</g>
		</g>
	</g>
	<g>
		<g>
			<g>
				<g>
					<circle style="fill:#E5164D;" cx="173.077" cy="38.876" r="11.538"/>
				</g>
			</g>
		</g>
	</g>
	<g>
		<g>
			<g>
				<g>
					<circle style="fill:#C8E7FA;" cx="226.923" cy="65.8" r="11.538"/>
				</g>
			</g>
		</g>
	</g>
	<g>
		<g>
			<g>
				<g>
					<circle style="fill:#E5164D;" cx="226.923" cy="11.953" r="11.538"/>
				</g>
			</g>
		</g>
	</g>
	<g>
		<g>
			<g>
				<g>
					<circle style="fill:#D2D700;" cx="253.847" cy="38.876" r="11.538"/>
				</g>
			</g>
		</g>
	</g>
	<g>
		<g>
			<g>
				<g>
					<circle style="fill:#009EE2;" cx="280.769" cy="38.876" r="11.538"/>
				</g>
			</g>
		</g>
	</g>
	<path style="fill:#0091D3;" d="M400,85.031h-71.92c-3.377,0-6.149,2.763-6.157,6.142v3.088c-6.226-5.294-16.259-9.263-31.731-9.263
		h-24.855c-3.378,0-6.148,2.763-6.155,6.141v48.773l-34.527-50.698c-1.817-2.846-5.551-5.176-10.076-5.176
		c-4.524,0-8.24,2.341-10.036,5.201l-31.863,50.282V91.174c0.003-3.379-2.76-6.142-6.138-6.142h-19.912
		c-4.743,0-6.265,1.682-7.544,3.815l-15.514,24.648l-15.937-24.648c-1.279-2.133-2.802-3.815-7.545-3.815H79.126
		c-3.378,0-6.094,2.763-6.038,6.141v40.57c-4.535-16.104-28.285-18.937-38.408-20.654c-11.014-1.868-9.773-7.662,1.625-7.717
		c13.061-0.063,26.556,4.141,29.107,4.779V92.039c0-2.67-1.5-4.638-4.513-5.344C11.595,75.131,0,95.61,0,107.002
		c0,21.185,28.514,24.461,39.841,26.383c11.123,1.886,10.258,8.403-3.285,8.469c-15.515,0.074-32.915-4.976-35.722-5.678v17.722
		c0,2.937,1.65,5.102,4.964,5.879c47.197,11.07,63.78-4.275,67.29-16.945v13.071c0,3.378,2.762,6.142,6.142,6.142H90.94
		c3.378,0,6.142-2.764,6.142-6.142v-41.014l16.336,23.874c1.817,2.848,5.551,5.178,10.074,5.178c4.526,0,8.241-2.341,10.037-5.202
		l15.178-23.512v40.677c-0.003,3.378,2.759,6.142,6.138,6.143l23.297,0.006c3.378,0,7.289-1.683,8.567-3.816l27.877-44.152
		l11.811,18.56h-7.952c-4.29,0-7.603,2.347-9.388,5.215l-7.905,12.73h36.751l4.876,7.647c1.277,2.133,5.189,3.816,8.568,3.816
		l25.703-0.011c3.378,0,6.094-2.764,6.037-6.142l0.099-52.534h5.543c14.507,0,18.597,7.61,18.597,12.471
		c0,6.916-6.249,9.831-11.908,11.271c-2.298,0.598-3.992,2.69-3.992,5.176c0,1.117,0.343,2.155,0.928,3.012l14.764,21.376
		c0.794,1.158,4.451,5.376,10.906,5.376c3.439,0,15.654-0.001,20.86,0l-21.96-29.601c7.747-3.931,13.862-10.117,13.862-20.223
		c0-2.12-0.364-4.481-1.187-6.9h18.888v56.723h18.906c3.377,0,6.121-2.765,6.118-6.143v-50.581h19.581
		c5.205,0,6.901-3.951,6.899-5.122C399.988,99.887,399.995,91.523,400,85.031z"/>
</g>
</svg>
