<?xml version="1.0" encoding="iso-8859-1"?>
<!-- Generator: Adobe Illustrator 17.0.2, SVG Export Plug-In . SVG Version: 6.00 Build 0)  -->
<!DOCTYPE svg PUBLIC "-//W3C//DTD SVG 1.1//EN" "http://www.w3.org/Graphics/SVG/1.1/DTD/svg11.dtd">
<svg version="1.1" id="Comp" xmlns="http://www.w3.org/2000/svg" xmlns:xlink="http://www.w3.org/1999/xlink" x="0px" y="0px"
	 width="480px" height="65px" viewBox="0 0 480 65" style="enable-background:new 0 0 480 65;" xml:space="preserve">
<g>
	<path style="fill:#772953;" d="M28.216,63.831c-4.213,0-8.049-0.692-11.511-2.077c-3.462-1.385-6.435-3.419-8.914-6.102
		c-2.482-2.683-4.401-5.957-5.756-9.824C0.678,41.964,0,37.52,0,32.5c0-5.02,0.75-9.477,2.25-13.372
		c1.499-3.894,3.548-7.169,6.145-9.823c2.596-2.653,5.596-4.674,9.001-6.059c3.404-1.383,7.011-2.076,10.819-2.076
		c2.596,0,4.919,0.172,6.967,0.519c2.048,0.346,3.822,0.75,5.323,1.211c1.499,0.462,2.711,0.924,3.635,1.385
		c0.923,0.462,1.558,0.808,1.905,1.038l-2.511,6.925c-0.519-0.347-1.269-0.721-2.25-1.125c-0.982-0.403-2.12-0.807-3.419-1.212
		c-1.299-0.402-2.726-0.735-4.284-0.995c-1.557-0.259-3.202-0.389-4.933-0.389c-2.943,0-5.626,0.549-8.049,1.645
		c-2.424,1.097-4.501,2.683-6.232,4.76c-1.731,2.078-3.072,4.602-4.024,7.573c-0.952,2.972-1.428,6.305-1.428,9.996
		c0,3.579,0.418,6.838,1.255,9.781c0.835,2.943,2.105,5.467,3.808,7.573c1.701,2.107,3.808,3.736,6.318,4.89
		c2.511,1.155,5.466,1.731,8.872,1.731c3.808,0,6.967-0.404,9.477-1.212c2.511-0.807,4.399-1.528,5.669-2.164l2.164,6.924
		c-0.404,0.289-1.125,0.649-2.164,1.082c-1.039,0.433-2.337,0.853-3.895,1.254c-1.557,0.404-3.375,0.75-5.453,1.04
		C32.889,63.687,30.639,63.831,28.216,63.831z"/>
	<path style="fill:#772953;" d="M81.529,2.554c2.077,4.328,4.068,8.698,5.972,13.112c1.904,4.414,3.822,9.044,5.755,13.891
		c1.933,4.847,3.908,9.969,5.929,15.363c2.019,5.396,4.182,11.267,6.491,17.613h-9.174c-0.982-2.596-1.904-5.163-2.77-7.702
		c-0.866-2.539-1.761-5.106-2.683-7.703H63.873l-5.453,15.406h-8.742c2.307-6.346,4.471-12.217,6.491-17.613
		c2.019-5.394,3.995-10.515,5.929-15.363c1.933-4.847,3.851-9.477,5.755-13.891c1.904-4.415,3.895-8.785,5.972-13.112L81.529,2.554
		L81.529,2.554z M77.462,12.161c-2.02,4.328-3.937,8.828-5.756,13.502c-1.817,4.673-3.621,9.551-5.409,14.627h22.33
		c-1.847-5.019-3.678-9.881-5.496-14.584C81.313,21.004,79.422,16.488,77.462,12.161z"/>
	<path style="fill:#772953;" d="M155.269,62.533c-1.27-2.134-2.726-4.529-4.371-7.184c-1.645-2.653-3.419-5.409-5.324-8.266
		c-1.904-2.855-3.88-5.755-5.929-8.698c-2.048-2.943-4.082-5.785-6.102-8.526s-3.981-5.324-5.885-7.747
		c-1.904-2.423-3.666-4.558-5.279-6.405v46.823h-8.222V2.554h6.664c2.712,2.885,5.611,6.246,8.698,10.083
		c3.086,3.838,6.145,7.789,9.174,11.857s5.885,8.064,8.568,11.988c2.683,3.925,4.947,7.415,6.795,10.472V2.554h8.222v59.978
		L155.269,62.533L155.269,62.533z"/>
	<path style="fill:#772953;" d="M286.305,62.533c-1.271-2.134-2.726-4.529-4.371-7.184c-1.645-2.653-3.419-5.409-5.323-8.266
		c-1.905-2.855-3.881-5.755-5.929-8.698c-2.049-2.943-4.083-5.785-6.102-8.526c-2.019-2.74-3.981-5.324-5.885-7.747
		c-1.904-2.423-3.665-4.558-5.279-6.405v46.823h-8.222V2.554h6.664c2.713,2.885,5.612,6.246,8.699,10.083
		c3.087,3.838,6.145,7.789,9.174,11.857c3.029,4.067,5.885,8.064,8.568,11.988c2.683,3.925,4.947,7.415,6.795,10.472V2.554h8.222
		v59.978L286.305,62.533L286.305,62.533z"/>
	<path style="fill:#772953;" d="M308.547,2.554h8.396v59.978h-8.396V2.554z"/>
	<path style="fill:#772953;" d="M357.966,63.831c-4.213,0-8.049-0.692-11.512-2.077c-3.461-1.385-6.435-3.419-8.914-6.102
		c-2.482-2.683-4.402-5.957-5.756-9.824c-1.355-3.865-2.034-8.309-2.034-13.329c0-5.02,0.75-9.477,2.25-13.372
		c1.5-3.894,3.549-7.169,6.145-9.823c2.596-2.653,5.597-4.674,9.001-6.059c3.404-1.383,7.011-2.076,10.819-2.076
		c2.596,0,4.918,0.172,6.967,0.519c2.048,0.346,3.822,0.75,5.323,1.211c1.5,0.462,2.711,0.924,3.635,1.385
		c0.921,0.462,1.558,0.808,1.904,1.038l-2.509,6.925c-0.519-0.347-1.271-0.721-2.251-1.125c-0.982-0.403-2.12-0.807-3.418-1.212
		c-1.298-0.402-2.726-0.735-4.284-0.995c-1.558-0.259-3.202-0.389-4.933-0.389c-2.942,0-5.626,0.549-8.049,1.645
		c-2.424,1.097-4.5,2.683-6.232,4.76c-1.731,2.078-3.073,4.602-4.024,7.573c-0.952,2.972-1.429,6.305-1.429,9.996
		c0,3.579,0.418,6.838,1.254,9.781c0.836,2.943,2.106,5.467,3.808,7.573c1.701,2.107,3.808,3.736,6.318,4.89
		c2.511,1.155,5.467,1.731,8.872,1.731c3.808,0,6.967-0.404,9.478-1.212c2.509-0.807,4.399-1.528,5.668-2.164l2.164,6.924
		c-0.405,0.289-1.125,0.649-2.164,1.082s-2.336,0.853-3.894,1.254c-1.558,0.404-3.375,0.75-5.453,1.04
		C362.641,63.687,360.39,63.831,357.966,63.831z"/>
	<path style="fill:#772953;" d="M411.281,2.554c2.077,4.328,4.068,8.698,5.973,13.112c1.904,4.414,3.822,9.044,5.754,13.891
		c1.933,4.847,3.909,9.969,5.93,15.363c2.018,5.396,4.182,11.267,6.491,17.613h-9.175c-0.982-2.596-1.904-5.163-2.77-7.702
		c-0.866-2.539-1.76-5.106-2.683-7.703h-27.176l-5.454,15.406h-8.741c2.307-6.346,4.47-12.217,6.491-17.613
		c2.019-5.394,3.995-10.515,5.929-15.363c1.933-4.847,3.851-9.477,5.756-13.891c1.904-4.415,3.894-8.785,5.972-13.112L411.281,2.554
		L411.281,2.554z M407.213,12.161c-2.02,4.328-3.939,8.828-5.756,13.502c-1.817,4.673-3.622,9.551-5.409,14.627h22.33
		c-1.848-5.019-3.678-9.881-5.497-14.584C411.065,21.004,409.174,16.488,407.213,12.161z"/>
	<path style="fill:#772953;" d="M480,55.522v7.011h-36.091V2.554h8.396v52.968H480z"/>
	<path style="fill:#772953;" d="M203.738,52.45c-11.018,0-19.95-8.929-19.95-19.95c0-11.019,8.932-19.949,19.95-19.949
		c11.019,0,19.95,8.931,19.95,19.949C223.688,43.521,214.757,52.45,203.738,52.45z"/>
	<path style="fill:#772953;" d="M235.069,32.501c0,17.303-14.028,31.33-31.331,31.33c-17.304,0-31.331-14.028-31.331-31.33
		c0-17.304,14.026-31.331,31.331-31.331C221.041,1.17,235.069,15.197,235.069,32.501z M203.737,8.791
		c-13.095,0-23.709,10.616-23.709,23.71c0,13.096,10.614,23.709,23.709,23.709s23.709-10.613,23.709-23.709
		C227.447,19.406,216.833,8.791,203.737,8.791z"/>
</g>
</svg>
