<?xml version="1.0" encoding="iso-8859-1"?>
<!-- Generator: Adobe Illustrator 17.0.2, SVG Export Plug-In . SVG Version: 6.00 Build 0)  -->
<!DOCTYPE svg PUBLIC "-//W3C//DTD SVG 1.1//EN" "http://www.w3.org/Graphics/SVG/1.1/DTD/svg11.dtd">
<svg version="1.1" id="Comp" xmlns="http://www.w3.org/2000/svg" xmlns:xlink="http://www.w3.org/1999/xlink" x="0px" y="0px"
	 width="380px" height="114px" viewBox="0 0 380 114" style="enable-background:new 0 0 380 114;" xml:space="preserve">
<g>
	<path style="fill-rule:evenodd;clip-rule:evenodd;fill:#0094C3;" d="M128.144,113.676H97.884l-9.258-22.322H38.195l-8.434,22.322H0
		L45.47,0.909h32.572L128.144,113.676L128.144,113.676z M62.17,27.861L45.636,71.677h34.722L62.17,27.861L62.17,27.861z"/>
	<path style="fill-rule:evenodd;clip-rule:evenodd;fill:#0094C3;" d="M185.067,0.909c23.148,0,36.871,15.544,36.871,32.406
		c0,12.403-6.446,21.664-19.345,27.617c11.575,5.785,15.048,19.673,30.921,52.744h-30.921
		c-12.069-24.141-16.534-45.802-31.745-45.802h-8.103v45.802h-28.11V0.909H185.067L185.067,0.909z M162.744,47.206h14.883
		c7.77,0,15.377-3.307,15.377-12.896c0-8.434-5.457-12.733-16.038-12.733h-14.222V47.206L162.744,47.206z"/>
	<polygon style="fill-rule:evenodd;clip-rule:evenodd;fill:#0094C3;" points="338.167,0.909 362.639,0.909 362.639,113.676 
		334.528,113.676 334.528,43.24 304.104,78.623 299.807,78.623 269.382,43.24 269.382,113.676 241.272,113.676 241.272,0.909 
		265.744,0.909 301.957,42.741 338.167,0.909 	"/>
	<path style="fill-rule:evenodd;clip-rule:evenodd;fill:#0094C3;" d="M374.738,9.99c-2.419,0-4.379-1.963-4.379-4.388
		c0-2.387,1.96-4.352,4.379-4.352c2.412,0,4.333,1.965,4.333,4.352C379.071,8.027,377.15,9.99,374.738,9.99L374.738,9.99z
		 M374.738,10.919c2.927,0,5.262-2.37,5.262-5.317c0-2.902-2.335-5.278-5.262-5.278c-2.94,0-5.306,2.376-5.306,5.278
		C369.433,8.548,371.798,10.919,374.738,10.919L374.738,10.919z M374.441,5.952c0.337,0.028,0.659,0,0.899,0.251
		c0.281,0.295,0.281,0.788,0.353,1.323c0.042,0.367,0.138,0.761,0.206,1.111h1.23c-0.212-0.563-0.282-1.21-0.367-1.8
		c-0.097-0.675-0.196-1.053-1.042-1.221V5.588c0.827-0.168,1.263-0.725,1.263-1.445c0-1.403-1.18-1.709-2.329-1.709h-2.009v6.202
		h0.961V5.952H374.441L374.441,5.952z M373.605,4.99V3.397h1.177c0.78,0,0.989,0.24,0.989,0.703c0,0.48-0.209,0.863-1.133,0.89
		H373.605L373.605,4.99z"/>
</g>
</svg>
