<?xml version="1.0" encoding="iso-8859-1"?>
<!-- Generator: Adobe Illustrator 17.0.2, SVG Export Plug-In . SVG Version: 6.00 Build 0)  -->
<!DOCTYPE svg PUBLIC "-//W3C//DTD SVG 1.1//EN" "http://www.w3.org/Graphics/SVG/1.1/DTD/svg11.dtd">
<svg version="1.1" id="Comp" xmlns="http://www.w3.org/2000/svg" xmlns:xlink="http://www.w3.org/1999/xlink" x="0px" y="0px"
	 width="400px" height="156px" viewBox="0 0 400 156" style="enable-background:new 0 0 400 156;" xml:space="preserve">
<g>
	<g>
		<polygon style="fill-rule:evenodd;clip-rule:evenodd;fill:#FF9900;" points="51.51,149.364 27.995,140.928 27.995,106.462 
			51.51,114.474 		"/>
		<polygon style="fill-rule:evenodd;clip-rule:evenodd;fill:#FF9900;" points="55.823,149.364 79.338,140.928 79.338,106.462 
			55.823,114.474 		"/>
		<polygon style="fill-rule:evenodd;clip-rule:evenodd;fill:#FF9900;" points="30.412,103.884 54.211,97.185 76.278,104.3 
			54.211,111.792 		"/>
	</g>
	<g>
		<polygon style="fill-rule:evenodd;clip-rule:evenodd;fill:#FF9900;" points="23.515,101.214 0,92.779 0,58.312 23.515,66.323 		
			"/>
		<polygon style="fill-rule:evenodd;clip-rule:evenodd;fill:#FF9900;" points="27.827,101.214 51.344,92.779 51.344,58.312 
			27.827,66.323 		"/>
		<polygon style="fill-rule:evenodd;clip-rule:evenodd;fill:#FF9900;" points="2.417,55.733 26.216,49.034 48.284,56.15 
			26.216,63.641 		"/>
	</g>
	<g>
		<polygon style="fill-rule:evenodd;clip-rule:evenodd;fill:#FF9900;" points="78.385,101.214 54.869,92.779 54.869,58.312 
			78.385,66.323 		"/>
		<polygon style="fill-rule:evenodd;clip-rule:evenodd;fill:#FF9900;" points="82.696,101.214 106.212,92.779 106.212,58.312 
			82.696,66.323 		"/>
		<polygon style="fill-rule:evenodd;clip-rule:evenodd;fill:#FF9900;" points="57.286,55.733 81.085,49.034 103.152,56.15 
			81.085,63.641 		"/>
	</g>
	<g>
		<polygon style="fill-rule:evenodd;clip-rule:evenodd;fill:#FF9900;" points="106.379,53.063 82.864,44.629 82.864,10.162 
			106.379,18.173 		"/>
		<polygon style="fill-rule:evenodd;clip-rule:evenodd;fill:#FF9900;" points="110.692,53.063 134.207,44.629 134.207,10.162 
			110.692,18.173 		"/>
		<polygon style="fill-rule:evenodd;clip-rule:evenodd;fill:#FF9900;" points="85.281,7.583 109.08,0.884 131.147,7.999 
			109.08,15.491 		"/>
	</g>
	<g>
		<polygon style="fill-rule:evenodd;clip-rule:evenodd;fill:#FF9900;" points="161.248,53.063 137.733,44.629 137.733,10.162 
			161.248,18.173 		"/>
		<polygon style="fill-rule:evenodd;clip-rule:evenodd;fill:#FF9900;" points="165.561,53.063 189.076,44.629 189.076,10.162 
			165.561,18.173 		"/>
		<polygon style="fill-rule:evenodd;clip-rule:evenodd;fill:#FF9900;" points="140.15,7.583 163.949,0.884 186.015,7.999 
			163.949,15.491 		"/>
	</g>
	<g>
		<path style="stroke:#000000;" d="M149.287,126.912l-7.899,27.441h-3.434l-6.149-20.382l-5.64,20.382h-3.5l-8.21-27.441h4.245
			l5.979,20.448l5.692-20.448h3.132l6.188,20.514l6.147-20.514H149.287z"/>
		<path style="stroke:#000000;" d="M171.137,146.167l3.977,0.815c-0.724,2.347-2.135,4.29-4.23,5.826
			c-2.099,1.538-4.566,2.307-7.405,2.307c-3.743,0-6.771-1.318-9.086-3.958c-2.315-2.637-3.471-6.096-3.471-10.375
			c0-4.371,1.202-7.901,3.607-10.593c2.405-2.693,5.424-4.039,9.06-4.039c3.581,0,6.46,1.239,8.639,3.718
			c2.179,2.48,3.296,6.189,3.35,11.128h-19.917c0,4.151,0.867,6.948,2.602,8.399c1.734,1.45,3.569,2.173,5.501,2.173
			C167.252,151.569,169.709,149.768,171.137,146.167z M170.905,137.816c-0.037-1.538-0.289-2.905-0.759-4.1
			c-0.47-1.196-1.265-2.213-2.386-3.055c-1.121-0.841-2.467-1.263-4.039-1.263c-2.115,0-3.909,0.761-5.381,2.282
			c-1.473,1.52-2.299,3.565-2.481,6.136H170.905z"/>
		<path style="stroke:#000000;" d="M183.249,154.353h-2.055v-37.051h4.275v14.184c1.951-3.557,4.642-5.335,8.074-5.335
			c3.142,0,5.774,1.242,7.898,3.726c2.122,2.484,3.184,6.092,3.184,10.823c0,4.08-1.045,7.502-3.132,10.266
			c-2.089,2.766-4.806,4.149-8.151,4.149c-3.724,0-6.58-1.768-8.569-5.303L183.249,154.353z M185.469,143.595
			c0.199,2.818,1.063,4.862,2.591,6.134c1.529,1.271,3.144,1.907,4.845,1.907c2.171,0,3.921-0.943,5.251-2.827
			c1.33-1.885,1.995-4.467,1.995-7.748c0-3.533-0.642-6.311-1.927-8.333c-1.285-2.02-3.067-3.032-5.346-3.032
			c-1.791,0-3.406,0.72-4.844,2.157c-1.439,1.44-2.294,3.298-2.565,5.578V143.595z"/>
		<path style="stroke:#000000;" d="M215.52,147.241l4.076-0.842c0.906,3.447,3.769,5.17,8.588,5.17c1.774,0,3.279-0.396,4.51-1.192
			c1.233-0.794,1.849-1.915,1.849-3.36c0-2.148-1.568-3.512-4.704-4.091l-5.78-1.099c-2.264-0.435-4.064-1.286-5.404-2.555
			c-1.338-1.267-2.008-2.943-2.008-5.027c0-2.299,0.913-4.223,2.741-5.772c1.827-1.548,4.288-2.323,7.382-2.323
			c5.953,0,9.628,2.327,11.02,6.979l-3.911,0.841c-1.122-2.849-3.427-4.275-6.916-4.275c-1.737,0-3.162,0.357-4.274,1.068
			c-1.112,0.712-1.668,1.706-1.668,2.987c0,2.017,1.422,3.286,4.264,3.81l5.342,0.983c5.594,1.015,8.389,3.729,8.389,8.136
			c0,2.521-1.04,4.558-3.124,6.108c-2.082,1.552-4.853,2.328-8.312,2.328C221.078,155.116,217.058,152.49,215.52,147.241z"/>
		<path style="stroke:#000000;" d="M261.751,146.167l3.977,0.815c-0.722,2.347-2.133,4.29-4.231,5.826
			c-2.096,1.538-4.565,2.307-7.403,2.307c-3.743,0-6.772-1.318-9.086-3.958c-2.315-2.637-3.472-6.096-3.472-10.375
			c0-4.371,1.202-7.901,3.609-10.593c2.405-2.693,5.424-4.039,9.06-4.039c3.578,0,6.46,1.239,8.638,3.718
			c2.179,2.48,3.296,6.189,3.349,11.128h-19.917c0,4.151,0.868,6.948,2.601,8.399c1.736,1.45,3.569,2.173,5.504,2.173
			C257.866,151.569,260.324,149.768,261.751,146.167z M261.519,137.816c-0.036-1.538-0.29-2.905-0.759-4.1
			c-0.471-1.196-1.265-2.213-2.385-3.055c-1.12-0.841-2.468-1.263-4.039-1.263c-2.114,0-3.909,0.761-5.382,2.282
			c-1.473,1.52-2.3,3.565-2.48,6.136H261.519z"/>
		<path style="stroke:#000000;" d="M275.064,154.353h-4.275v-27.441h3.745v6.397c1.32-2.997,2.646-4.938,3.975-5.825
			c1.329-0.889,2.691-1.333,4.085-1.333c0.434,0,0.996,0.033,1.683,0.1v4.076h-0.866c-2.35,0-4.301,0.873-5.854,2.618
			c-1.553,1.745-2.384,4.038-2.493,6.882V154.353z"/>
		<path style="stroke:#000000;" d="M310.83,126.912l-9.474,27.441h-4.431l-9.791-27.441h4.729l7.616,22.304l7.558-22.304H310.83z"/>
		<path style="stroke:#000000;" d="M318.821,117.302v4.739h-4.574v-4.739H318.821z M318.721,126.912v27.441h-4.275v-27.441H318.721z
			"/>
		<path style="stroke:#000000;" d="M341.054,144.742l3.844,0.678c-0.543,3.033-1.746,5.406-3.61,7.122
			c-1.864,1.715-4.189,2.574-6.976,2.574c-3.782,0-6.665-1.397-8.646-4.189c-1.981-2.792-2.973-6.201-2.973-10.227
			c0-4.17,1.046-7.637,3.136-10.402c2.089-2.766,4.935-4.148,8.536-4.148c2.987,0,5.379,0.893,7.18,2.681
			c1.801,1.786,2.917,4.095,3.352,6.926l-3.844,0.733c-0.724-4.528-2.911-6.794-6.564-6.794c-2.351,0-4.159,1-5.423,2.999
			c-1.266,2-1.9,4.592-1.9,7.775c0,3.511,0.628,6.237,1.885,8.182c1.257,1.945,3.024,2.917,5.303,2.917
			C337.88,151.569,340.114,149.293,341.054,144.742z"/>
		<path style="stroke:#000000;" d="M369.007,146.167l3.977,0.815c-0.723,2.347-2.133,4.29-4.232,5.826
			c-2.096,1.538-4.565,2.307-7.403,2.307c-3.743,0-6.773-1.318-9.087-3.958c-2.315-2.637-3.472-6.096-3.472-10.375
			c0-4.371,1.203-7.901,3.609-10.593c2.405-2.693,5.425-4.039,9.06-4.039c3.579,0,6.46,1.239,8.639,3.718
			c2.179,2.48,3.295,6.189,3.349,11.128H353.53c0,4.151,0.867,6.948,2.602,8.399c1.736,1.45,3.568,2.173,5.504,2.173
			C365.121,151.569,367.579,149.768,369.007,146.167z M368.775,137.816c-0.036-1.538-0.29-2.905-0.76-4.1
			c-0.47-1.196-1.264-2.213-2.384-3.055c-1.121-0.841-2.468-1.263-4.04-1.263c-2.116,0-3.909,0.761-5.381,2.282
			c-1.474,1.52-2.301,3.565-2.48,6.136H368.775z"/>
		<path style="stroke:#000000;" d="M375.862,147.241l4.077-0.842c0.906,3.447,3.768,5.17,8.587,5.17c1.775,0,3.279-0.396,4.51-1.192
			c1.233-0.794,1.849-1.915,1.849-3.36c0-2.148-1.568-3.512-4.704-4.091l-5.78-1.099c-2.264-0.435-4.064-1.286-5.404-2.555
			c-1.338-1.267-2.008-2.943-2.008-5.027c0-2.299,0.913-4.223,2.742-5.772c1.826-1.548,4.287-2.323,7.382-2.323
			c5.953,0,9.626,2.327,11.019,6.979l-3.911,0.841c-1.121-2.849-3.427-4.275-6.916-4.275c-1.736,0-3.161,0.357-4.273,1.068
			s-1.669,1.706-1.669,2.987c0,2.017,1.422,3.286,4.264,3.81l5.342,0.983c5.592,1.015,8.389,3.729,8.389,8.136
			c0,2.521-1.04,4.558-3.124,6.108c-2.082,1.552-4.854,2.328-8.312,2.328C381.421,155.116,377.401,152.49,375.862,147.241z"/>
	</g>
	<g>
		<g>
			<path style="fill-rule:evenodd;clip-rule:evenodd;" d="M279.502,68.264v-6.591c0.004-1.003,0.76-1.672,1.671-1.67L310.716,60
				c0.945,0.001,1.702,0.688,1.705,1.665l-0.002,5.653c-0.007,0.948-0.806,2.186-2.224,4.149l-15.302,21.849
				c5.681-0.133,11.689,0.716,16.85,3.618c1.164,0.653,1.475,1.623,1.567,2.573v7.033c0,0.97-1.06,2.091-2.174,1.507
				c-9.094-4.763-21.16-5.284-31.215,0.058c-1.027,0.548-2.103-0.557-2.103-1.527v-6.686c0-1.069,0.02-2.9,1.099-4.531l17.73-25.435
				l-15.437-0.003C280.265,69.924,279.509,69.252,279.502,68.264z"/>
			<path style="fill-rule:evenodd;clip-rule:evenodd;" d="M173.777,109.434h-8.987c-0.855-0.056-1.539-0.699-1.608-1.519
				l0.006-46.129c0-0.923,0.776-1.661,1.734-1.661l8.37-0.002c0.876,0.045,1.579,0.708,1.635,1.549v6.022h0.168
				c2.181-5.824,6.292-8.542,11.829-8.542c5.621,0,9.144,2.718,11.662,8.542c2.181-5.824,7.131-8.542,12.416-8.542
				c3.775,0,7.886,1.553,10.403,5.048c2.853,3.883,2.266,9.513,2.266,14.463l-0.007,29.11c0,0.922-0.776,1.661-1.733,1.661h-8.977
				c-0.902-0.058-1.614-0.773-1.614-1.657l-0.002-24.455c0-1.941,0.168-6.795-0.252-8.64c-0.671-3.106-2.684-3.979-5.285-3.979
				c-2.181,0-4.447,1.456-5.37,3.786c-0.923,2.329-0.838,6.212-0.838,8.833v24.45c0,0.922-0.777,1.661-1.733,1.661h-8.977
				c-0.902-0.058-1.614-0.773-1.614-1.657l-0.009-24.455c0-5.145,0.839-12.716-5.537-12.716c-6.46,0-6.208,7.377-6.208,12.716
				l-0.004,24.45C175.511,108.695,174.735,109.434,173.777,109.434z"/>
			<path style="fill-rule:evenodd;clip-rule:evenodd;" d="M334.122,59.152c13.233,0,20.391,11.454,20.391,26.015
				c0,14.075-7.905,25.239-20.391,25.239c-12.984,0-20.058-11.455-20.058-25.724C314.064,70.315,321.222,59.152,334.122,59.152z
				 M334.206,69.755c-6.577,0-6.992,9.027-6.992,14.657s-0.084,16.48,6.908,16.48c6.909,0,7.241-8.52,7.241-14.441
				c0-3.883-0.165-8.542-1.331-12.231C339.031,71.017,337.034,69.755,334.206,69.755z"/>
			<path style="fill-rule:evenodd;clip-rule:evenodd;" d="M373.666,109.434h-8.954c-0.9-0.058-1.613-0.773-1.613-1.657
				l-0.014-46.147c0.076-0.843,0.82-1.506,1.727-1.506l8.337-0.002c0.785,0.04,1.432,0.576,1.597,1.292v7.056h0.169
				c2.517-6.31,6.039-9.319,12.248-9.319c4.026,0,7.971,1.456,10.488,5.436C400,68.277,400,74.489,400,78.954v29.026
				c-0.102,0.818-0.834,1.454-1.723,1.454h-9.01c-0.832-0.054-1.503-0.665-1.601-1.454V82.934c0-5.048,0.588-12.425-5.621-12.425
				c-2.183,0-4.196,1.456-5.201,3.689c-1.258,2.814-1.428,5.63-1.428,8.736v24.839C375.401,108.695,374.624,109.434,373.666,109.434
				z"/>
			<path style="fill-rule:evenodd;clip-rule:evenodd;" d="M256.971,87.405c0,3.503,0.084,6.42-1.681,9.534
				c-1.43,2.53-3.7,4.086-6.222,4.086c-3.447,0-5.465-2.627-5.465-6.518c0-7.655,6.867-9.047,13.369-9.047V87.405z M266.032,109.318
				c-0.595,0.534-1.452,0.569-2.124,0.209c-2.985-2.481-3.519-3.628-5.151-5.99c-4.934,5.026-8.429,6.533-14.819,6.533
				c-7.567,0-13.453-4.669-13.453-14.008c0-7.296,3.952-12.257,9.585-14.69c4.876-2.14,11.687-2.529,16.9-3.113v-1.167
				c0-2.14,0.168-4.67-1.093-6.518c-1.093-1.654-3.195-2.335-5.045-2.335c-3.428,0-6.475,1.757-7.224,5.397
				c-0.155,0.81-0.747,1.611-1.561,1.652l-8.712-0.943c-0.736-0.166-1.553-0.756-1.341-1.879
				c2.002-10.569,11.546-13.762,20.099-13.762c4.372,0,10.089,1.167,13.536,4.475c4.373,4.086,3.952,9.534,3.952,15.468v14.002
				c0,4.212,1.75,6.06,3.393,8.33c0.573,0.817,0.703,1.79-0.03,2.387c-1.836,1.539-5.097,4.373-6.893,5.97L266.032,109.318z"/>
			<path style="fill-rule:evenodd;clip-rule:evenodd;" d="M140.168,87.405c0,3.503,0.085,6.42-1.681,9.534
				c-1.429,2.53-3.699,4.086-6.221,4.086c-3.447,0-5.465-2.627-5.465-6.518c0-7.655,6.867-9.047,13.368-9.047V87.405z
				 M149.23,109.318c-0.595,0.534-1.453,0.569-2.123,0.209c-2.986-2.481-3.521-3.628-5.152-5.99
				c-4.933,5.026-8.428,6.533-14.818,6.533c-7.567,0-13.453-4.669-13.453-14.008c0-7.296,3.952-12.257,9.585-14.69
				c4.877-2.14,11.687-2.529,16.899-3.113v-1.167c0-2.14,0.168-4.67-1.092-6.518c-1.093-1.654-3.196-2.335-5.045-2.335
				c-3.428,0-6.477,1.757-7.224,5.397c-0.156,0.81-0.747,1.611-1.562,1.652l-8.711-0.943c-0.736-0.166-1.554-0.756-1.341-1.879
				c2.001-10.569,11.545-13.762,20.098-13.762c4.373,0,10.089,1.167,13.537,4.475c4.372,4.086,3.952,9.534,3.952,15.468v14.002
				c0,4.212,1.749,6.06,3.392,8.33c0.573,0.817,0.703,1.79-0.029,2.387c-1.836,1.539-5.098,4.373-6.892,5.97L149.23,109.318z"/>
		</g>
	</g>
</g>
</svg>
