<?xml version="1.0" encoding="iso-8859-1"?>
<!-- Generator: Adobe Illustrator 17.0.2, SVG Export Plug-In . SVG Version: 6.00 Build 0)  -->
<!DOCTYPE svg PUBLIC "-//W3C//DTD SVG 1.1//EN" "http://www.w3.org/Graphics/SVG/1.1/DTD/svg11.dtd">
<svg version="1.1" id="Comp" xmlns="http://www.w3.org/2000/svg" xmlns:xlink="http://www.w3.org/1999/xlink" x="0px" y="0px"
	 width="380px" height="153px" viewBox="0 0 380 153" style="enable-background:new 0 0 380 153;" xml:space="preserve">
<g>
	
		<linearGradient id="SVGID_2_" gradientUnits="userSpaceOnUse" x1="514.4833" y1="6757.5923" x2="514.4833" y2="6605.4077" gradientTransform="matrix(1 0 0 -1 -247.5 6758)">
		<stop  offset="0.0056" style="stop-color:#ED2828"/>
		<stop  offset="0.5" style="stop-color:#EF3B39"/>
		<stop  offset="0.9944" style="stop-color:#C02126"/>
	</linearGradient>
	<path style="fill:url(#SVGID_2_);" d="M378.489,34.178c0-17.813-14.621-32.266-32.639-32.266
		c-25.716-1.073-52.028-1.55-78.866-1.501c-26.838-0.049-53.149,0.428-78.867,1.501c-18.016,0-32.639,14.453-32.639,32.266
		c-1.082,14.107-1.551,28.215-1.509,42.323c-0.042,14.107,0.427,28.215,1.509,42.323c0,17.813,14.622,32.266,32.639,32.266
		c25.717,1.073,52.028,1.55,78.866,1.499c26.838,0.05,53.151-0.426,78.866-1.499c18.018,0,32.639-14.454,32.639-32.266
		c1.082-14.108,1.551-28.215,1.509-42.323C380.04,62.393,379.57,48.285,378.489,34.178z"/>
	<defs>
		<filter id="Adobe_OpacityMaskFilter" filterUnits="userSpaceOnUse" x="158.227" y="4.668" width="217.513" height="143.663">
			<feColorMatrix  type="matrix" values="1 0 0 0 0  0 1 0 0 0  0 0 1 0 0  0 0 0 1 0"/>
		</filter>
	</defs>
	<mask maskUnits="userSpaceOnUse" x="158.227" y="4.668" width="217.513" height="143.663" id="SVGID_1_">
		<g style="filter:url(#Adobe_OpacityMaskFilter);">
			
				<linearGradient id="SVGID_3_" gradientUnits="userSpaceOnUse" x1="568.7067" y1="6770.4893" x2="493.2922" y2="6639.8672" gradientTransform="matrix(1 0 0 -1 -247.5 6758)">
				<stop  offset="0.0056" style="stop-color:#FFFFFF"/>
				<stop  offset="0.0129" style="stop-color:#F6F6F6"/>
				<stop  offset="0.0528" style="stop-color:#C8C8C8"/>
				<stop  offset="0.0977" style="stop-color:#9D9D9D"/>
				<stop  offset="0.1459" style="stop-color:#777777"/>
				<stop  offset="0.1985" style="stop-color:#575757"/>
				<stop  offset="0.2565" style="stop-color:#3B3B3B"/>
				<stop  offset="0.322" style="stop-color:#252525"/>
				<stop  offset="0.3986" style="stop-color:#141414"/>
				<stop  offset="0.4932" style="stop-color:#090909"/>
				<stop  offset="0.6259" style="stop-color:#020202"/>
				<stop  offset="0.9944" style="stop-color:#000000"/>
			</linearGradient>
			<path style="fill:url(#SVGID_3_);" d="M374.241,34.502l-0.014-0.162v-0.163c0-15.441-12.73-28.004-28.378-28.004h-0.088
				l-0.088-0.004c-24.989-1.043-51.462-1.547-78.698-1.497c-27.218-0.05-53.691,0.454-78.681,1.497l-0.089,0.004h-0.089
				c-4.305,0-8.386,0.955-12.045,2.656l196.057,120.548c1.35-3.258,2.099-6.82,2.099-10.553v-0.163l0.014-0.162
				c1.035-13.512,1.539-27.639,1.496-42.011C375.78,62.14,375.277,48.014,374.241,34.502z M345.673,146.831l0.088-0.003h0.088
				c4.537,0,8.825-1.063,12.633-2.939l-60.71,4.254C314.189,147.914,330.215,147.477,345.673,146.831z"/>
		</g>
	</mask>
	<path style="mask:url(#SVGID_1_);fill:#FFFFFF;" d="M345.673,6.168l0.088,0.004h0.088c15.648,0,28.378,12.563,28.378,28.004v0.163
		l0.014,0.162c1.035,13.511,1.539,27.638,1.496,41.985c0.042,14.373-0.461,28.499-1.496,42.011l-0.014,0.162v0.163
		c0,15.443-12.73,28.005-28.378,28.005h-0.088l-0.088,0.003c-24.993,1.043-51.466,1.547-78.681,1.497
		c-27.231,0.05-53.703-0.453-78.697-1.497l-0.089-0.003h-0.089c-15.648,0-28.378-12.563-28.378-28.005v-0.163l-0.013-0.162
		c-1.036-13.505-1.539-27.631-1.497-41.987c-0.043-14.373,0.461-28.5,1.497-42.009l0.013-0.162v-0.163
		c0-15.441,12.73-28.004,28.378-28.004h0.089l0.089-0.004c24.99-1.043,51.463-1.547,78.681-1.497
		C294.21,4.622,320.684,5.125,345.673,6.168z"/>
	<g>
		
			<linearGradient id="SVGID_4_" gradientUnits="userSpaceOnUse" x1="273.3957" y1="6732.7944" x2="273.3957" y2="6632.8071" gradientTransform="matrix(1 0 0 -1 -247.5 6758)">
			<stop  offset="0" style="stop-color:#4B4B4B"/>
			<stop  offset="0.9944" style="stop-color:#000000"/>
		</linearGradient>
		<path style="fill:url(#SVGID_4_);" d="M0,25.205h15.555l10.021,39.966h0.97l9.555-39.966h15.692L33.817,83.703v41.49H18.373
			V85.571L0,25.205z"/>
		
			<linearGradient id="SVGID_5_" gradientUnits="userSpaceOnUse" x1="318.496" y1="6708.4302" x2="318.496" y2="6630.9434" gradientTransform="matrix(1 0 0 -1 -247.5 6758)">
			<stop  offset="0" style="stop-color:#4B4B4B"/>
			<stop  offset="0.9944" style="stop-color:#000000"/>
		</linearGradient>
		<path style="fill:url(#SVGID_5_);" d="M51.092,68.296c0-5.712,1.845-10.26,5.538-13.647c3.693-3.387,8.654-5.08,14.887-5.08
			c5.675,0,10.325,1.787,13.949,5.357c3.624,3.57,5.436,8.165,5.436,13.786v38.096c0,6.313-1.779,11.265-5.332,14.858
			c-3.553,3.593-8.446,5.39-14.677,5.39c-6,0-10.801-1.856-14.4-5.563c-3.601-3.707-5.4-8.695-5.4-14.961V68.296z M65.205,107.914
			c0,2.031,0.487,3.597,1.465,4.704c0.975,1.106,2.369,1.657,4.183,1.657c1.86,0,3.335-0.563,4.429-1.692
			c1.092-1.131,1.639-2.686,1.639-4.669V67.743c0-1.612-0.56-2.914-1.675-3.905c-1.115-0.99-2.579-1.487-4.394-1.487
			c-1.673,0-3.033,0.497-4.079,1.487c-1.047,0.99-1.569,2.292-1.569,3.905V107.914z"/>
		
			<linearGradient id="SVGID_6_" gradientUnits="userSpaceOnUse" x1="369.6124" y1="6706.5664" x2="369.6124" y2="6631.7417" gradientTransform="matrix(1 0 0 -1 -247.5 6758)">
			<stop  offset="0" style="stop-color:#4B4B4B"/>
			<stop  offset="0.9944" style="stop-color:#000000"/>
		</linearGradient>
		<path style="fill:url(#SVGID_6_);" d="M141.684,51.434v73.759h-13.713v-8.142c-2.528,3-5.157,5.287-7.891,6.855
			c-2.734,1.566-5.388,2.352-7.959,2.352c-3.17,0-5.561-1.097-7.169-3.294c-1.608-2.196-2.411-5.489-2.411-9.881v-61.65h13.714
			v56.541c0,1.75,0.287,3.013,0.861,3.796c0.574,0.782,1.504,1.174,2.792,1.174c1.011,0,2.284-0.517,3.824-1.552
			c1.539-1.037,2.952-2.359,4.24-3.971V51.434H141.684z"/>
	</g>
	<g>
		<path d="M218.881,24.007h-47.398v14.512h15.977v85.475h15.444V38.519h15.977V24.007z M244.123,106.223
			c-1.287,1.612-2.701,2.936-4.239,3.971c-1.54,1.037-2.813,1.552-3.824,1.552c-1.287,0-2.218-0.392-2.792-1.174
			c-0.574-0.781-0.861-2.046-0.861-3.796V50.235h-13.714v61.65c0,4.392,0.804,7.685,2.412,9.882
			c1.608,2.196,3.998,3.292,7.168,3.292c2.571,0,5.226-0.786,7.959-2.352c2.735-1.569,5.363-3.856,7.891-6.855v8.142h13.714V50.235
			h-13.714V106.223z M297.255,49.303c-2.126,0-4.227,0.587-6.306,1.758c-2.077,1.173-4.039,2.883-5.887,5.134V24.007h-13.847v99.988
			h13.847v-5.67c1.801,2.246,3.754,3.909,5.854,4.986s4.491,1.616,7.171,1.616c4.062,0,7.168-1.389,9.315-4.173
			c2.147-2.784,3.223-6.797,3.223-12.041V67.793c0-6.024-1.144-10.614-3.431-13.763C304.909,50.88,301.595,49.303,297.255,49.303z
			 M296.512,106.707c0,2.351-0.397,4.047-1.188,5.083c-0.79,1.037-2.024,1.554-3.699,1.554c-1.165,0-2.269-0.264-3.317-0.795
			c-1.049-0.528-2.13-1.393-3.246-2.592V63.992c0.931-1.013,1.872-1.762,2.827-2.246c0.954-0.483,1.921-0.726,2.898-0.726
			c1.86,0,3.281,0.647,4.258,1.937c0.978,1.29,1.467,3.179,1.467,5.667V106.707z M361.311,88.845V70.067
			c0-7-1.686-12.365-5.051-16.097c-3.368-3.732-8.189-5.598-14.462-5.598c-6.137,0-11.142,2.016-15.016,6.045
			c-3.876,4.032-5.813,9.247-5.813,15.65v33.106c0,7.1,1.765,12.678,5.292,16.735c3.529,4.056,8.361,6.084,14.499,6.084
			c6.827,0,11.96-1.914,15.396-5.74c3.437-3.826,5.155-9.519,5.155-17.079v-5.54h-14.113v5.126c0,4.34-0.453,7.147-1.358,8.414
			c-0.905,1.269-2.495,1.905-4.768,1.905c-2.185,0-3.728-0.75-4.632-2.252c-0.905-1.499-1.356-4.19-1.356-8.068V88.845H361.311z
			 M335.083,69.93c0-3.087,0.473-5.301,1.427-6.638c0.951-1.336,2.517-2.005,4.699-2.005c2.088,0,3.609,0.67,4.562,2.005
			c0.951,1.338,1.427,3.551,1.427,6.638v7.466h-12.115V69.93z"/>
		<path style="fill:#FFFFFF;" d="M218.881,25.072h-47.398v14.512h15.977v85.475h15.444V39.584h15.977V25.072z M244.123,107.288
			c-1.287,1.612-2.701,2.936-4.239,3.971c-1.54,1.037-2.813,1.552-3.824,1.552c-1.287,0-2.218-0.392-2.792-1.174
			c-0.574-0.782-0.861-2.046-0.861-3.796V51.3h-13.714v61.65c0,4.392,0.804,7.685,2.412,9.882c1.608,2.196,3.998,3.292,7.168,3.292
			c2.571,0,5.226-0.786,7.959-2.352c2.735-1.569,5.363-3.856,7.891-6.855v8.142h13.714V51.3h-13.714V107.288z M297.255,50.369
			c-2.126,0-4.227,0.587-6.306,1.758c-2.077,1.173-4.039,2.884-5.887,5.134V25.072h-13.847v99.988h13.847v-5.67
			c1.801,2.246,3.754,3.909,5.854,4.986s4.491,1.616,7.171,1.616c4.062,0,7.168-1.389,9.315-4.173
			c2.147-2.784,3.223-6.797,3.223-12.041V68.858c0-6.024-1.144-10.614-3.431-13.764C304.909,51.945,301.595,50.369,297.255,50.369z
			 M296.512,107.772c0,2.351-0.397,4.046-1.188,5.083c-0.79,1.035-2.024,1.554-3.699,1.554c-1.165,0-2.269-0.264-3.317-0.795
			c-1.049-0.528-2.13-1.393-3.246-2.592V65.058c0.931-1.013,1.872-1.762,2.827-2.247c0.954-0.483,1.921-0.726,2.898-0.726
			c1.86,0,3.281,0.647,4.258,1.937c0.978,1.29,1.467,3.179,1.467,5.667V107.772z M361.311,89.911V71.132
			c0-7-1.686-12.365-5.051-16.097c-3.368-3.732-8.189-5.598-14.462-5.598c-6.137,0-11.142,2.016-15.016,6.045
			c-3.876,4.032-5.813,9.247-5.813,15.65v33.106c0,7.1,1.765,12.678,5.292,16.735c3.529,4.056,8.361,6.084,14.499,6.084
			c6.827,0,11.96-1.914,15.396-5.74c3.437-3.826,5.155-9.519,5.155-17.079v-5.54h-14.113v5.126c0,4.34-0.453,7.147-1.358,8.414
			c-0.905,1.269-2.495,1.903-4.768,1.903c-2.185,0-3.728-0.748-4.632-2.25c-0.905-1.501-1.356-4.19-1.356-8.068V89.911H361.311z
			 M335.083,70.995c0-3.087,0.473-5.3,1.427-6.638c0.951-1.336,2.517-2.005,4.699-2.005c2.088,0,3.609,0.67,4.562,2.005
			c0.951,1.338,1.427,3.551,1.427,6.638v7.466h-12.115V70.995z"/>
	</g>
</g>
</svg>
