<?xml version="1.0" encoding="iso-8859-1"?>
<!-- Generator: Adobe Illustrator 17.0.2, SVG Export Plug-In . SVG Version: 6.00 Build 0)  -->
<!DOCTYPE svg PUBLIC "-//W3C//DTD SVG 1.1//EN" "http://www.w3.org/Graphics/SVG/1.1/DTD/svg11.dtd">
<svg version="1.1" id="Comp" xmlns="http://www.w3.org/2000/svg" xmlns:xlink="http://www.w3.org/1999/xlink" x="0px" y="0px"
	 width="400px" height="68px" viewBox="0 0 400 68" style="enable-background:new 0 0 400 68;" xml:space="preserve">
<g>
	<path id="path18" style="fill:#999B9E;" d="M0,30.482h13.081v13.349H0V30.482z"/>
	<path id="path20" style="fill:#ED008C;" d="M31.415,3.838h1.552c10.024,0,14.696,5.362,16.648,19.663l3.104-0.137L52.304,0.675
		H1.298L0.795,23.363l2.987,0.137c0.517-5.362,1.138-8.25,2.484-11.138C8.646,7,13.614,3.838,19.72,3.838h2.173v49.363
		c0,5.225-0.31,6.875-1.551,8.113c-1.035,0.962-3.105,1.375-5.487,1.375h-2.38v3.3h28.358v-3.3h-2.395
		c-2.366,0-4.45-0.413-5.47-1.375c-1.242-1.238-1.552-2.889-1.552-8.113L31.415,3.838"/>
	<path id="path22" style="fill:#999B9E;" d="M40.016,30.482h13.081v13.349H40.016V30.482z"/>
	<path id="path24" style="fill:#999B9E;" d="M78.64,30.482h13.095v13.349H78.64V30.482z"/>
	<path id="path26" style="fill:#999B9E;" d="M117.888,30.482h13.081v13.349h-13.081V30.482z"/>
	<path id="path28" style="fill:#999B9E;" d="M166.341,65.989l16.526-57.664v45.251c0,4.938-0.281,6.674-1.402,7.875
		c-0.841,0.934-2.791,1.335-4.953,1.335h-0.841v3.203h23.36v-3.203h-1.216c-2.149,0-4.111-0.4-4.951-1.335
		c-1.122-1.201-1.402-2.937-1.402-7.875V15c0-4.939,0.28-6.808,1.402-8.009c0.934-0.801,2.803-1.335,4.951-1.335h1.216V2.585
		h-18.127L167.262,49.17L153.914,2.585H135.88v3.071h1.681c4.953,0,5.887,1.068,5.887,7.475v36.707c0,5.873-0.28,8.276-1.122,10.012
		c-0.934,1.735-2.91,2.937-4.952,2.937h-1.495v3.203h19.248v-3.203h-1.214c-2.429,0-4.392-0.935-5.526-2.803
		c-1.108-1.869-1.388-3.604-1.388-10.145V8.326L163.43,65.99L166.341,65.989"/>
	<path id="path30" style="fill:#999B9E;" d="M219.12,20.872c-11.586,0-19.154,9.077-19.154,23.36
		c0,13.749,7.568,23.093,18.862,23.093c11.398,0,18.967-9.344,18.967-23.226C237.794,30.349,230.226,20.872,219.12,20.872
		 M218.747,23.942c3.351,0,6.247,2.136,7.835,5.74c1.495,3.337,2.149,7.876,2.149,14.416c0,13.481-3.27,20.155-9.904,20.155
		c-6.621,0-9.812-6.675-9.812-20.289c0-6.408,0.667-10.946,2.162-14.282C212.66,26.212,215.663,23.942,218.747,23.942"/>
	<path id="path32" style="fill:#999B9E;" d="M253.319,1.917L240.05,2.585v2.937h0.641c3.925,0,4.779,1.335,4.779,7.609v43.382
		c0,5.606-0.187,7.075-0.934,9.477h3.084c2.322-3.871,2.896-4.538,3.831-4.538c0.454,0,0.907,0.133,1.575,0.801
		c4.591,3.737,6.553,4.538,10.758,4.538c10.077,0,17.366-9.744,17.366-23.627c0-13.081-6.741-21.891-16.819-21.891
		c-5.232,0-9.05,2.536-11.012,7.074L253.319,1.917 M263.01,24.609c5.994,0,9.077,6.408,9.077,18.954
		c0,13.215-3.177,20.022-9.251,20.022c-6.727,0-10.266-6.942-10.266-19.622c0-6.408,0.842-10.812,2.804-14.149
		C257.136,26.612,260.14,24.609,263.01,24.609"/>
	<path id="path34" style="fill:#999B9E;" d="M298.436,21.54l-13.629,0.801v2.937h1.028c3.91,0,4.752,1.335,4.752,7.475v22.559
		c0,6.141-0.841,7.609-4.752,7.609h-1.482v3.069h20.344V62.92h-1.469c-3.938,0-4.791-1.336-4.791-7.609L298.436,21.54
		 M293.964,2.051c-2.896,0-5.232,2.269-5.232,5.34c0,2.803,2.336,5.206,5.139,5.206c2.896,0,5.139-2.269,5.139-5.206
		S296.767,2.051,293.964,2.051"/>
	<path id="path36" style="fill:#999B9E;" d="M322.075,1.917l-13.629,0.668v2.937h1.016c3.924,0,4.765,1.335,4.765,7.609v42.18
		c0,6.274-0.841,7.609-4.765,7.609h-1.482v3.069h20.355v-3.069h-1.495c-3.938,0-4.765-1.336-4.765-7.609L322.075,1.917"/>
	<path id="path38" style="fill:#999B9E;" d="M365.512,43.831c-0.455-14.149-7.182-22.959-17.353-22.959
		c-9.825,0-16.913,9.61-16.913,22.959c0,14.282,6.995,23.493,17.834,23.493c7.008,0,11.866-3.738,15.885-12.014l-2.803-1.468
		c-3.27,6.941-6.541,9.744-11.587,9.744c-7.381,0-10.544-5.872-10.639-19.755L365.512,43.831 M340.029,40.493
		c0.08-10.011,3.336-16.284,8.582-16.284c5.232,0,8.315,6.14,8.223,16.284H340.029"/>
	<path id="path40" style="fill:#999B9E;" d="M377.315,30.482h13.081v13.349h-13.081V30.482z"/>
	<g>
		<g>
			<path style="fill:#999B9E;" d="M395.301,19.784c0.789,0,1.56,0.202,2.312,0.607c0.752,0.405,1.337,0.985,1.757,1.739
				c0.421,0.754,0.63,1.54,0.63,2.358c0,0.81-0.207,1.589-0.621,2.336c-0.413,0.748-0.993,1.329-1.738,1.742
				c-0.746,0.413-1.526,0.62-2.34,0.62c-0.815,0-1.594-0.206-2.341-0.62c-0.746-0.413-1.327-0.993-1.741-1.742
				c-0.416-0.747-0.624-1.526-0.624-2.336c0-0.819,0.21-1.605,0.633-2.358c0.421-0.754,1.009-1.334,1.759-1.739
				C393.742,19.986,394.513,19.784,395.301,19.784z M395.301,20.567c-0.659,0-1.303,0.169-1.926,0.508
				c-0.625,0.339-1.113,0.821-1.467,1.45c-0.352,0.629-0.528,1.284-0.528,1.964c0,0.676,0.173,1.325,0.52,1.945
				c0.346,0.62,0.831,1.104,1.453,1.45c0.623,0.347,1.273,0.52,1.948,0.52c0.677,0,1.325-0.173,1.948-0.52
				c0.622-0.346,1.105-0.829,1.45-1.45c0.344-0.62,0.517-1.269,0.517-1.945c0-0.68-0.175-1.335-0.526-1.964
				c-0.351-0.628-0.839-1.111-1.466-1.45C396.598,20.736,395.957,20.567,395.301,20.567z M393.238,27.082v-5.059h1.742
				c0.594,0,1.026,0.047,1.291,0.14c0.267,0.093,0.479,0.257,0.637,0.49c0.158,0.232,0.238,0.48,0.238,0.741
				c0,0.369-0.133,0.692-0.398,0.966c-0.263,0.274-0.615,0.428-1.052,0.461c0.179,0.075,0.322,0.164,0.43,0.268
				c0.205,0.199,0.454,0.534,0.749,1.003l0.618,0.991h-1.001l-0.451-0.798c-0.353-0.625-0.637-1.016-0.85-1.175
				c-0.149-0.118-0.368-0.176-0.655-0.176h-0.481v2.15L393.238,27.082L393.238,27.082z M394.056,24.238h0.996
				c0.474,0,0.798-0.071,0.972-0.213c0.174-0.142,0.259-0.33,0.259-0.564c0-0.15-0.041-0.285-0.125-0.404
				c-0.084-0.119-0.198-0.208-0.348-0.266c-0.148-0.058-0.422-0.087-0.823-0.087h-0.931L394.056,24.238L394.056,24.238z"/>
		</g>
	</g>
</g>
</svg>
