<?xml version="1.0" encoding="iso-8859-1"?>
<!-- Generator: Adobe Illustrator 17.0.2, SVG Export Plug-In . SVG Version: 6.00 Build 0)  -->
<!DOCTYPE svg PUBLIC "-//W3C//DTD SVG 1.1//EN" "http://www.w3.org/Graphics/SVG/1.1/DTD/svg11.dtd">
<svg version="1.1" id="Comp" xmlns="http://www.w3.org/2000/svg" xmlns:xlink="http://www.w3.org/1999/xlink" x="0px" y="0px"
	 width="400px" height="104px" viewBox="0 0 400 104" style="enable-background:new 0 0 400 104;" xml:space="preserve">
<g id="g4253" transform="matrix(0.99506399,0,0,0.99506399,-13.089212,-19.284547)">
	<g id="g4286" transform="translate(-12.427484,0)">
		<g id="g4109" transform="matrix(0.2741794,0,0,0.2741794,324.14312,-33.201179)">
			<path id="path3051" style="fill:#ED2423;stroke:#ED2423;stroke-width:0.5803;" d="M-819.391,194.519
				c-6.256,0.013-12.506,0.201-18.749,0.526c-11.306,0.588-22.6,1.751-33.782,3.518c-12.138,1.918-24.199,4.483-36.066,7.67
				c-12.912,3.467-25.717,7.482-38.134,12.439c-13.43,5.361-26.501,11.665-39.167,18.641c-8.511,4.687-16.817,9.805-24.661,15.54
				c-7.875,5.757-15.237,12.21-22.376,18.858c-5.076,4.727-9.959,9.685-14.506,14.924c-6.068,6.991-11.778,14.326-16.99,21.977
				c-4.936,7.245-9.696,14.664-13.473,22.575c-3.013,6.311-5.359,12.96-7.253,19.693c-1.926,6.846-3.582,13.834-4.134,20.925
				c-0.403,5.169-0.356,10.447,0.617,15.54c0.783,4.099,2.413,8.021,4.134,11.823c2.322,5.128,5.218,9.998,8.305,14.706
				c3.515,5.361,7.432,10.474,11.605,15.341c6.137,7.157,12.615,14.059,19.674,20.309c6.424,5.687,13.478,10.648,20.526,15.54
				c8.265,5.737,16.689,11.275,25.477,16.175c7.043,3.927,14.405,7.246,21.759,10.554c8.389,3.772,17.226,6.543,25.495,10.572
				c2.781,1.355,5.502,2.871,8.088,4.57c4.203,2.761,8.612,5.425,12.022,9.121c4.087,4.429,9.937,15.322,9.937,15.322l0.018-0.018
				c7.839,22.552,30.749,38.877,57.808,38.877c33.528,0,60.706-25.077,60.706-55.994c0-28.933-19.819-50.09-54.326-55.668
				l0.036-0.036c0,0-36.272-7.067-52.422-11.496c-13.209-3.622-26.283-7.889-38.968-13.056c-10.729-4.371-21.27-9.32-31.298-15.123
				c-9.121-5.278-18.931-10.111-26.111-17.825c-8.605-9.245-18.019-20.161-19.058-32.748c-1.234-14.947,7.653-29.58,15.957-42.068
				c11.606-17.455,28.742-30.844,45.586-43.319c13.97-10.347,29.324-19.044,45.387-25.694
				c24.899-10.308,51.223-17.848,77.916-21.542c13.275-1.837,26.872-1.607,40.201-0.218c16.589,1.729,33.823,3.488,48.922,10.572
				c4.766,2.236,11.103,4.64,12.421,9.737c1.465,5.664-3.483,11.38-6.836,16.175c-5.63,8.051-13.624,14.276-21.542,20.091
				c-9.923,7.288-20.933,13.124-32.131,18.242c-4.133,1.889-8.294,4.531-12.838,4.551c-2.119,0.009-4.186-1.562-6.02-2.741
				c-2.629-1.69-5.426-4.715-7.976-6.577c-4.649-3.395-8.559-6.187-13.983-8.29c-5.673-2.199-11.766-3.385-17.825-3.935
				c-5.645-0.512-11.417-0.415-16.99,0.617c-5.671,1.049-11.141,3.179-16.374,5.603c-4.891,2.266-9.782,4.796-13.89,8.287
				c-4.819,4.095-9.343,8.876-12.221,14.506c-2.593,5.072-3.789,10.889-4.153,16.573c-0.227,3.54-0.162,7.318,1.251,10.572
				c1.874,4.316,5.536,7.724,9.121,10.771c3.376,2.869,7.376,4.956,11.387,6.836c4.174,1.956,8.578,3.474,13.056,4.569
				c5.153,1.26,10.459,2.032,15.757,2.285c8.566,0.409,17.174-0.275,25.694-1.251c11.509-1.319,23.035-3.124,34.199-6.22
				c9.606-2.664,18.889-6.479,27.979-10.572c6.621-2.981,13.025-6.427,19.257-10.154c6.577-3.933,13.035-8.122,19.076-12.838
				c5.128-4.004,9.864-8.498,14.506-13.056c5.127-5.033,10.14-10.21,14.706-15.757c4.496-5.462,8.659-11.21,12.439-17.19
				c3.915-6.193,7.686-12.54,10.572-19.275c2.512-5.863,4.667-11.964,5.802-18.242c0.739-4.084,1.74-8.444,0.617-12.439
				c-0.996-3.541-3.587-6.551-6.22-9.121c-4.004-3.908-9.123-6.526-14.089-9.103c-9.849-5.11-20.289-9.131-30.88-12.439
				c-10.749-3.357-21.851-5.55-32.947-7.471c-10.215-1.769-20.532-3.094-30.88-3.717c-6.24-0.376-12.493-0.539-18.749-0.526
				L-819.391,194.519z"/>
			
				<radialGradient id="path3858_1_" cx="-40185.6406" cy="109882.6797" r="51.4974" gradientTransform="matrix(0.2728 0 0 -0.1606 10057.9277 18104.8594)" gradientUnits="userSpaceOnUse">
				<stop  offset="0" style="stop-color:#9F1621"/>
				<stop  offset="1" style="stop-color:#9F1621;stop-opacity:0"/>
			</radialGradient>
			<path id="path3858" style="fill:url(#path3858_1_);" d="M-956.824,430.305c-0.279,2.222-0.435,4.484-0.435,6.782
				c0,29.727,24.11,53.836,53.836,53.836c21.914,0,40.761-13.103,49.158-31.896c-0.851-0.16-1.705-0.313-2.575-0.453l0.036-0.036
				c0,0-36.272-7.067-52.422-11.496c-13.209-3.622-26.283-7.889-38.967-13.056C-951.086,432.808-953.965,431.573-956.824,430.305
				L-956.824,430.305z"/>
			
				<radialGradient id="path3852_1_" cx="-40485.9219" cy="88136.1797" r="45.2416" gradientTransform="matrix(0.2728 0 0 -0.2097 10057.9277 18737.9961)" gradientUnits="userSpaceOnUse">
				<stop  offset="0" style="stop-color:#C52113"/>
				<stop  offset="1" style="stop-color:#C52113;stop-opacity:0"/>
			</radialGradient>
			<path id="path3852" style="fill:url(#path3852_1_);" d="M-945.074,218.275c-0.348,0.137-0.704,0.26-1.052,0.399
				c-13.43,5.361-26.501,11.665-39.167,18.641c-8.511,4.687-16.817,9.805-24.661,15.54c-7.875,5.758-15.237,12.21-22.376,18.858
				c-0.204,0.19-0.395,0.389-0.598,0.58c9.593,9.602,22.835,15.54,37.481,15.54c29.272,0,53.003-23.731,53.003-53.003
				C-942.444,229.046-943.36,223.485-945.074,218.275L-945.074,218.275z"/>
			
				<linearGradient id="path3824_1_" gradientUnits="userSpaceOnUse" x1="-40587.2344" y1="71237.8828" x2="-40658.8398" y2="71282.6406" gradientTransform="matrix(0.2728 0 0 -0.2728 10057.9277 19739.5254)">
				<stop  offset="0" style="stop-color:#FEDA0C"/>
				<stop  offset="1" style="stop-color:#FEDA0C;stop-opacity:0"/>
			</linearGradient>
			
				<linearGradient id="path3824_2_" gradientUnits="userSpaceOnUse" x1="-40639.9844" y1="71251.9297" x2="-40683.8477" y2="71297.9375" gradientTransform="matrix(0.2728 0 0 -0.2728 10057.9277 19739.5254)">
				<stop  offset="0" style="stop-color:#FEC20F"/>
				<stop  offset="1" style="stop-color:#FEC20F;stop-opacity:0"/>
			</linearGradient>
			<path id="path3824" style="fill:url(#path3824_1_);stroke:url(#path3824_2_);stroke-width:0.5062;" d="M-1016.079,257.552
				c-5.614,4.484-10.991,9.266-16.247,14.162c-5.076,4.728-9.959,9.685-14.506,14.924c-6.068,6.991-11.778,14.326-16.99,21.977
				c-1.681,2.467-3.342,4.951-4.95,7.471c6.838,5.711,15.653,9.139,25.259,9.139c21.766,0,39.403-17.655,39.403-39.421
				C-1004.112,274.708-1008.701,264.714-1016.079,257.552L-1016.079,257.552z"/>
			
				<linearGradient id="path3826_1_" gradientUnits="userSpaceOnUse" x1="-40609.6211" y1="71354.3203" x2="-40556.4688" y2="71307.4297" gradientTransform="matrix(0.2728 0 0 -0.2728 10057.9277 19739.5254)">
				<stop  offset="0" style="stop-color:#FEDA0C"/>
				<stop  offset="1" style="stop-color:#FEDA0C;stop-opacity:0"/>
			</linearGradient>
			
				<linearGradient id="path3826_2_" gradientUnits="userSpaceOnUse" x1="-40609.6211" y1="71354.3203" x2="-40556.4688" y2="71307.4297" gradientTransform="matrix(0.2728 0 0 -0.2728 10057.9277 19739.5254)">
				<stop  offset="0" style="stop-color:#FEC20F"/>
				<stop  offset="1" style="stop-color:#FEC20F;stop-opacity:0"/>
			</linearGradient>
			<path id="path3826" style="fill:url(#path3826_1_);stroke:url(#path3826_2_);stroke-width:0.4242;" d="M-993.577,263.772
				c-18.241,0-33.02,14.779-33.02,33.02c0,12.8,7.287,23.892,17.933,29.375c11.522-17.303,28.477-30.607,45.187-42.993
				C-968.664,271.727-980.191,263.772-993.577,263.772L-993.577,263.772z"/>
			
				<radialGradient id="path3856_1_" cx="-40609.8008" cy="62911.4805" r="46.3488" gradientTransform="matrix(0.2728 0 0 -0.3189 10057.9277 20434.6699)" gradientUnits="userSpaceOnUse">
				<stop  offset="0" style="stop-color:#9F1621"/>
				<stop  offset="1" style="stop-color:#9F1621;stop-opacity:0"/>
			</radialGradient>
			<path id="path3856" style="fill:url(#path3856_1_);" d="M-1025.276,322.755c-29.727,0-53.836,24.092-53.836,53.818
				s24.11,53.836,53.836,53.836c14.919,0,28.421-6.079,38.17-15.884c-6.705-3.832-13.29-7.898-18.496-13.491
				c-8.605-9.245-18.019-20.161-19.058-32.748c-1.234-14.947,7.653-29.58,15.957-42.068c0.156-0.235,0.313-0.474,0.471-0.707
				C-1013.589,323.723-1019.318,322.755-1025.276,322.755L-1025.276,322.755z"/>
			
				<linearGradient id="path3828_1_" gradientUnits="userSpaceOnUse" x1="-40673.6484" y1="71257.8203" x2="-40709.625" y2="71164.9141" gradientTransform="matrix(0.2728 0 0 -0.2728 10057.9277 19739.5254)">
				<stop  offset="0" style="stop-color:#FEDA0C"/>
				<stop  offset="1" style="stop-color:#FEDA0C;stop-opacity:0"/>
			</linearGradient>
			<path id="path3828" style="fill:url(#path3828_1_);" d="M-1054.492,295.901c-3.254,4.134-6.38,8.368-9.339,12.711
				c-4.936,7.245-9.696,14.664-13.473,22.575c-3.013,6.311-5.359,12.96-7.253,19.693c-1.926,6.846-3.582,13.834-4.134,20.925
				c-0.403,5.169-0.356,10.447,0.617,15.54c0.318,1.667,0.776,3.301,1.324,4.914c0.385,0.008,0.774,0.018,1.161,0.018
				c29.386,0,53.202-23.816,53.202-53.202C-1032.388,321.299-1041.099,305.563-1054.492,295.901L-1054.492,295.901z"/>
			
				<linearGradient id="path3830_1_" gradientUnits="userSpaceOnUse" x1="-40847.0391" y1="70554.0781" x2="-40745.1484" y2="70647.75" gradientTransform="matrix(0.2728 0 0 -0.2728 10057.9277 19739.5254)">
				<stop  offset="0" style="stop-color:#FEDA0C"/>
				<stop  offset="1" style="stop-color:#FEDA0C;stop-opacity:0"/>
			</linearGradient>
			<path id="path3830" style="fill:url(#path3830_1_);stroke:#FEC20F;stroke-width:0.9949;" d="M-1071.145,404.861
				c-3.264,0-6.469,0.208-9.629,0.58c1.595,2.876,3.331,5.686,5.132,8.432c3.515,5.361,7.432,10.474,11.605,15.341
				c6.137,7.157,12.615,14.059,19.674,20.309c6.424,5.687,13.478,10.648,20.526,15.54c8.265,5.737,16.689,11.275,25.477,16.175
				c1.967,1.097,3.956,2.14,5.966,3.155c0.052-1.131,0.073-2.266,0.073-3.409c0-42.039-35.292-76.123-78.822-76.123
				L-1071.145,404.861z"/>
			
				<linearGradient id="path3842_1_" gradientUnits="userSpaceOnUse" x1="-40503.8555" y1="70826.5156" x2="-40457.0859" y2="70699.6875" gradientTransform="matrix(0.2728 0 0 -0.2728 10057.9277 19739.5254)">
				<stop  offset="0" style="stop-color:#FEDA0C"/>
				<stop  offset="1" style="stop-color:#FEDA0C;stop-opacity:0"/>
			</linearGradient>
			<path id="path3842" style="fill:url(#path3842_1_);stroke:#FEC20F;stroke-width:1.1074;" d="M-985.947,442.2
				c-18.117,0-34.928,5.563-48.814,15.069c3.586,2.68,7.261,5.248,10.934,7.797c8.265,5.737,16.689,11.275,25.477,16.175
				c7.043,3.927,14.405,7.246,21.76,10.554c8.389,3.772,17.226,6.543,25.495,10.572c2.781,1.355,5.502,2.871,8.088,4.569
				c4.203,2.761,8.612,5.425,12.022,9.121c4.087,4.429,9.937,15.322,9.937,15.322l0.018-0.018c3.281,9.44,9.21,17.781,16.972,24.298
				c2.888-8.596,4.461-17.798,4.461-27.362c0-47.545-38.66-86.098-86.347-86.098L-985.947,442.2z"/>
			
				<linearGradient id="path3844_1_" gradientUnits="userSpaceOnUse" x1="-40380.9883" y1="70424.2578" x2="-40300.2188" y2="70431.7188" gradientTransform="matrix(0.2728 0 0 -0.2728 10057.9277 19739.5254)">
				<stop  offset="0" style="stop-color:#FEDA0C"/>
				<stop  offset="1" style="stop-color:#FEDA0C;stop-opacity:0"/>
			</linearGradient>
			<path id="path3844" style="fill:url(#path3844_1_);stroke:#FEC20F;stroke-width:0.748;" d="M-936.985,477.7
				c-14.865,0-28.451,5.442-38.786,14.434c8.147,3.592,16.675,6.328,24.679,10.227c2.781,1.355,5.502,2.871,8.088,4.569
				c4.203,2.761,8.612,5.425,12.022,9.121c4.087,4.429,9.937,15.322,9.937,15.322l0.018-0.018
				c5.393,15.516,17.912,28.084,34.017,34.416c5.486-8.8,8.668-19.158,8.668-30.246c0-31.942-26.256-57.826-58.64-57.826
				L-936.985,477.7z"/>
			
				<linearGradient id="path3832_1_" gradientUnits="userSpaceOnUse" x1="-40656.0352" y1="70601.2969" x2="-40599.5742" y2="70618.7031" gradientTransform="matrix(0.2728 0 0 -0.2728 10057.9277 19739.5254)">
				<stop  offset="0" style="stop-color:#FEDA0C"/>
				<stop  offset="1" style="stop-color:#FEDA0C;stop-opacity:0"/>
			</linearGradient>
			<path id="path3832" style="fill:url(#path3832_1_);stroke:#FEC20F;stroke-width:1.7408;" d="M-1053.273,440.982
				c2.883,2.947,5.854,5.809,8.939,8.541c6.424,5.687,13.478,10.648,20.526,15.54c8.265,5.737,16.689,11.275,25.477,16.175
				c7.043,3.927,14.405,7.246,21.76,10.554c4.925,2.215,10.004,4.093,15.032,6.075c-12.399-30.881-48.291-53.902-91.732-56.883
				L-1053.273,440.982z"/>
			
				<radialGradient id="path3854_1_" cx="-40156.3633" cy="94695.9688" r="32.862" gradientTransform="matrix(0.2728 0 0 -0.1915 10057.9277 18499.4219)" gradientUnits="userSpaceOnUse">
				<stop  offset="0" style="stop-color:#9F1621"/>
				<stop  offset="1" style="stop-color:#9F1621;stop-opacity:0"/>
			</radialGradient>
			<path id="path3854" style="fill:url(#path3854_1_);" d="M-909.226,328.558c-3.544,0-7.019,0.343-10.372,0.997
				c-0.789,3.044-1.252,6.194-1.451,9.302c-0.227,3.54-0.162,7.318,1.251,10.572c1.874,4.316,5.536,7.724,9.121,10.771
				c3.376,2.869,7.376,4.956,11.387,6.836c4.174,1.956,8.578,3.474,13.056,4.569c5.153,1.26,10.459,2.032,15.757,2.285
				c4.782,0.228,9.575,0.096,14.361-0.218C-860.277,348.087-882.464,328.557-909.226,328.558L-909.226,328.558z"/>
			
				<linearGradient id="path3834_1_" gradientUnits="userSpaceOnUse" x1="-40048.625" y1="71244.2422" x2="-40075.8945" y2="71214.4062" gradientTransform="matrix(0.2728 0 0 -0.2728 10057.9277 19739.5254)">
				<stop  offset="0" style="stop-color:#FEDA0C"/>
				<stop  offset="1" style="stop-color:#FEDA0C;stop-opacity:0"/>
			</linearGradient>
			<path id="path3834" style="fill:url(#path3834_1_);stroke:#FEC20F;stroke-width:0.6834;" d="M-863.803,292.965
				c-3.559-0.006-7.124,0.28-10.608,0.925c-5.671,1.049-11.141,3.179-16.374,5.603c-4.891,2.266-9.782,4.796-13.89,8.287
				c-4.819,4.095-9.343,8.876-12.221,14.506c-2.593,5.072-3.789,10.889-4.152,16.573c-0.126,1.967-0.145,4,0.091,5.984
				c5.897,2.253,12.296,3.5,18.985,3.5c29.386,0,53.202-23.816,53.202-53.202v-0.598c-2.861-0.595-5.754-1.007-8.649-1.269
				c-2.117-0.192-4.247-0.305-6.383-0.308L-863.803,292.965z"/>
			
				<linearGradient id="path3836_1_" gradientUnits="userSpaceOnUse" x1="-40005.2227" y1="71118.3047" x2="-39936.6953" y2="71164.7266" gradientTransform="matrix(0.2728 0 0 -0.2728 10057.9277 19739.5254)">
				<stop  offset="0" style="stop-color:#FEDA0C"/>
				<stop  offset="1" style="stop-color:#FEDA0C;stop-opacity:0"/>
			</linearGradient>
			<path id="path3836" style="fill:url(#path3836_1_);stroke:#FEC20F;stroke-width:0.6808;" d="M-766.535,291.932
				c-0.038,0.028-0.071,0.063-0.109,0.091c-9.923,7.288-20.933,13.124-32.131,18.242c-4.133,1.889-8.294,4.531-12.838,4.551
				c-2.119,0.009-4.186-1.559-6.02-2.738c-2.629-1.69-5.429-4.72-7.978-6.582c-4.649-3.395-8.556-6.184-13.981-8.287
				c-5.673-2.199-11.766-3.385-17.825-3.935c-4.647-0.421-9.379-0.422-14.017,0.163c-0.292,2.251-0.435,4.542-0.435,6.872
				c0,29.272,23.731,53.003,53.003,53.003s53.003-23.731,53.003-53.003C-765.864,297.457-766.102,294.663-766.535,291.932
				L-766.535,291.932z"/>
			
				<linearGradient id="path3838_1_" gradientUnits="userSpaceOnUse" x1="-39873.8047" y1="71143.1797" x2="-39843.8633" y2="71057.8047" gradientTransform="matrix(0.2728 0 0 -0.2728 10057.9277 19739.5254)">
				<stop  offset="0" style="stop-color:#FEDA0C"/>
				<stop  offset="1" style="stop-color:#FEDA0C;stop-opacity:0"/>
			</linearGradient>
			<path id="path3838" style="fill:url(#path3838_1_);stroke:#FEC20F;stroke-width:0.5326;" d="M-811.267,314.794
				c-0.114,0.004-0.23,0.018-0.345,0.018c-0.06,0-0.121,0.002-0.181,0c-22.727,0.205-41.089,18.676-41.089,41.452
				c0,5.999,1.28,11.697,3.572,16.845c1.515-0.15,3.023-0.298,4.533-0.471c11.509-1.319,23.035-3.124,34.199-6.22
				c9.606-2.664,18.889-6.479,27.979-10.572c4.133-1.861,8.174-3.914,12.149-6.093
				C-773.568,329.992-790.645,314.865-811.267,314.794L-811.267,314.794z"/>
			
				<linearGradient id="path3840_1_" gradientUnits="userSpaceOnUse" x1="-40016.7305" y1="71259.375" x2="-40033.6172" y2="71246.1094" gradientTransform="matrix(0.2728 0 0 -0.2728 10057.9277 19739.5254)">
				<stop  offset="0" style="stop-color:#FEDA0C"/>
				<stop  offset="1" style="stop-color:#FEDA0C;stop-opacity:0"/>
			</linearGradient>
			<path id="path3840" style="fill:url(#path3840_1_);stroke:#FEC20F;stroke-width:0.3383;" d="M-863.803,292.965
				c-3.559-0.006-7.124,0.28-10.608,0.925c-5.671,1.049-11.141,3.179-16.374,5.603c-2.7,1.251-5.392,2.587-7.961,4.116
				c1.759,12.837,12.773,22.739,26.093,22.739c14.545,0,26.329-11.802,26.329-26.347c0-1.722-0.156-3.393-0.471-5.023
				c-3.492-0.839-7.065-1.382-10.626-1.704C-859.537,293.082-861.668,292.969-863.803,292.965L-863.803,292.965z"/>
			
				<linearGradient id="path3846_1_" gradientUnits="userSpaceOnUse" x1="-39932.9766" y1="70454.1406" x2="-39967.0938" y2="70496.4141" gradientTransform="matrix(0.2728 0 0 -0.2728 10057.9277 19739.5254)">
				<stop  offset="0" style="stop-color:#FEDA0C"/>
				<stop  offset="1" style="stop-color:#FEDA0C;stop-opacity:0"/>
			</linearGradient>
			<path id="path3846" style="fill:url(#path3846_1_);stroke:#FEC20F;stroke-width:0.5405;" d="M-883.387,453.08
				c-11.034,7.544-18.26,20.117-18.26,34.362c0,23.08,18.975,41.796,42.376,41.796c23.401,0,42.358-18.716,42.358-41.796
				c0-4.024-0.592-7.905-1.668-11.587c-9.189-8.634-22.112-14.671-38.261-17.281l0.036-0.036
				C-856.805,458.538-869.622,456.03-883.387,453.08L-883.387,453.08z"/>
			<path id="path3848" style="fill:#FB000C;stroke:#FEC20F;stroke-width:0.4693;" d="M-834.75,465.12
				c-1.198,3.464-1.85,7.166-1.85,11.007c0,18.448,14.936,33.599,34.035,35.305C-803.506,490.716-814.909,474.276-834.75,465.12
				L-834.75,465.12z"/>
			
				<radialGradient id="path3850_1_" cx="-39385.2031" cy="34989.3711" r="25.8195" gradientTransform="matrix(0.3332 0.0893 0.1519 -0.567 7114.2202 23611.0645)" gradientUnits="userSpaceOnUse">
				<stop  offset="0" style="stop-color:#9F1621"/>
				<stop  offset="1" style="stop-color:#9F1621;stop-opacity:0"/>
			</radialGradient>
			<path id="path3850" style="fill:url(#path3850_1_);" d="M-712.026,215.698c-14.857,9.39-24.733,25.949-24.733,44.825
				c0,17.731,8.714,33.426,22.086,43.048c4.349-5.322,8.386-10.909,12.058-16.718c3.915-6.193,7.686-12.54,10.572-19.275
				c2.512-5.863,4.667-11.964,5.802-18.242c0.739-4.084,1.74-8.444,0.617-12.439c-0.996-3.541-3.587-6.551-6.22-9.121
				c-4.004-3.908-9.123-6.526-14.089-9.103C-707.94,217.631-709.975,216.651-712.026,215.698L-712.026,215.698z"/>
			
				<radialGradient id="path3860_1_" cx="-39896.0391" cy="110745.4766" r="21.0446" gradientTransform="matrix(0.2728 0 0 -0.1588 10057.9277 18149.1641)" gradientUnits="userSpaceOnUse">
				<stop  offset="0" style="stop-color:#9F1621"/>
				<stop  offset="1" style="stop-color:#9F1621;stop-opacity:0"/>
			</radialGradient>
			<path id="path3860" style="fill:url(#path3860_1_);" d="M-813.118,545.845c-17.261,1.065-32.326,10.261-41.398,23.808
				C-837.346,567.378-822.503,558.473-813.118,545.845z"/>
			<path id="path6117" style="fill:none;stroke:#FFFFFB;stroke-width:1.0634;" d="M-819.391,194.519
				c-6.256,0.013-12.506,0.201-18.749,0.526c-11.306,0.588-22.6,1.751-33.782,3.518c-12.138,1.918-24.199,4.483-36.066,7.67
				c-12.912,3.467-25.717,7.482-38.134,12.439c-13.43,5.361-26.501,11.665-39.167,18.641c-8.511,4.687-16.817,9.805-24.661,15.54
				c-7.875,5.757-15.237,12.21-22.376,18.858c-5.076,4.727-9.959,9.685-14.506,14.924c-6.068,6.991-11.778,14.326-16.99,21.977
				c-4.936,7.245-9.696,14.664-13.473,22.575c-3.013,6.311-5.359,12.96-7.253,19.693c-1.926,6.846-3.582,13.834-4.134,20.925
				c-0.403,5.169-0.356,10.447,0.617,15.54c0.783,4.099,2.413,8.021,4.134,11.823c2.322,5.128,5.218,9.998,8.305,14.706
				c3.515,5.361,7.432,10.474,11.605,15.341c6.137,7.157,12.615,14.059,19.674,20.309c6.424,5.687,13.478,10.648,20.526,15.54
				c8.265,5.737,16.689,11.275,25.477,16.175c7.043,3.927,14.405,7.246,21.759,10.554c8.389,3.772,17.226,6.543,25.495,10.572
				c2.781,1.355,5.502,2.871,8.088,4.57c4.203,2.761,8.612,5.425,12.022,9.121c4.087,4.429,9.937,15.322,9.937,15.322l0.018-0.018
				c7.839,22.552,30.749,38.877,57.808,38.877c33.528,0,60.706-25.077,60.706-55.994c0-28.933-19.819-50.09-54.326-55.668
				l0.036-0.036c0,0-36.272-7.067-52.422-11.496c-13.209-3.622-26.283-7.889-38.968-13.056c-10.729-4.371-21.27-9.32-31.298-15.123
				c-9.121-5.278-18.931-10.111-26.111-17.825c-8.605-9.245-18.019-20.161-19.058-32.748c-1.234-14.947,7.653-29.58,15.957-42.068
				c11.606-17.455,28.742-30.844,45.586-43.319c13.97-10.347,29.324-19.044,45.387-25.694
				c24.899-10.308,51.223-17.848,77.916-21.542c13.275-1.837,26.872-1.607,40.201-0.218c16.589,1.729,33.823,3.488,48.922,10.572
				c4.766,2.236,11.103,4.64,12.421,9.737c1.465,5.664-3.483,11.38-6.836,16.175c-5.63,8.051-13.624,14.276-21.542,20.091
				c-9.923,7.288-20.933,13.124-32.131,18.242c-4.133,1.889-8.294,4.531-12.838,4.551c-2.119,0.009-4.186-1.562-6.02-2.741
				c-2.629-1.69-5.426-4.715-7.976-6.577c-4.649-3.395-8.559-6.187-13.983-8.29c-5.673-2.199-11.766-3.385-17.825-3.935
				c-5.645-0.512-11.417-0.415-16.99,0.617c-5.671,1.049-11.141,3.179-16.374,5.603c-4.891,2.266-9.782,4.796-13.89,8.287
				c-4.819,4.095-9.343,8.876-12.221,14.506c-2.593,5.072-3.789,10.889-4.153,16.573c-0.227,3.54-0.162,7.318,1.251,10.572
				c1.874,4.316,5.536,7.724,9.121,10.771c3.376,2.869,7.376,4.956,11.387,6.836c4.174,1.956,8.578,3.474,13.056,4.569
				c5.153,1.26,10.459,2.032,15.757,2.285c8.566,0.409,17.174-0.275,25.694-1.251c11.509-1.319,23.035-3.124,34.199-6.22
				c9.606-2.664,18.889-6.479,27.979-10.572c6.621-2.981,13.025-6.427,19.257-10.154c6.577-3.933,13.035-8.122,19.076-12.838
				c5.128-4.004,9.864-8.498,14.506-13.056c5.127-5.033,10.14-10.21,14.706-15.757c4.496-5.462,8.659-11.21,12.439-17.19
				c3.915-6.193,7.686-12.54,10.572-19.275c2.512-5.863,4.667-11.964,5.802-18.242c0.739-4.084,1.74-8.444,0.617-12.439
				c-0.996-3.541-3.587-6.551-6.22-9.121c-4.004-3.908-9.123-6.526-14.089-9.103c-9.849-5.11-20.289-9.131-30.88-12.439
				c-10.749-3.357-21.851-5.55-32.947-7.471c-10.215-1.769-20.532-3.094-30.88-3.717c-6.24-0.376-12.493-0.539-18.749-0.526
				L-819.391,194.519z"/>
		</g>
		<path id="path4171" style="fill:#191919;" d="M327.823,40.484c-0.626,0.007-1.25,0.037-1.871,0.111
			c-1.071,0.128-2.151,0.342-3.149,0.752c-0.732,0.301-1.4,0.751-2.029,1.23c-0.723,0.55-1.415,1.165-1.986,1.871
			c-0.478,0.591-0.851,1.266-1.183,1.95c-0.312,0.645-0.527,1.332-0.748,2.013c-0.228,0.705-0.458,1.416-0.593,2.144
			c-0.19,1.021-0.305,2.059-0.305,3.097c0,11.91-0.016,35.676-0.016,35.676h8.168V61.326h6.393c0.801,0,1.514-0.636,2.081-1.203
			c0.397-0.397,0.843-0.895,0.843-1.456v-3.896h-9.221c0,0-0.286-2.895,0-4.3c0.122-0.601,0.309-1.237,0.72-1.693
			c0.558-0.62,1.383-1.005,2.191-1.214c1.738-0.45,3.57,0,5.384,0c0.639,0,1.348-0.105,1.855-0.494
			c0.521-0.4,0.815-1.074,0.985-1.709c0.376-1.405,0.613-4.304,0.613-4.304s-3.33-0.401-5.004-0.479
			C329.911,40.531,328.866,40.473,327.823,40.484L327.823,40.484z M299.552,45.175c0,0-4.338,1.201-6.515,1.784
			c-0.641,0.172-1.323,0.427-1.756,0.93c-0.355,0.411-0.542,0.995-0.542,1.539v29.581c0,1.255,0.857,4.174,1.535,5.229
			c0.715,1.114,1.554,2.2,2.623,2.983c1.328,0.973,2.925,1.585,4.521,1.99c1.788,0.453,3.639,0.374,5.483,0.324
			c1.003-0.027,2.035-0.062,3.014-0.281c0.416-0.093,1.222-0.384,1.222-0.384s-0.078-2.667-0.487-3.987
			c-0.098-0.316-0.244-0.628-0.455-0.882c-0.219-0.265-0.502-0.483-0.811-0.633c-0.817-0.397-1.776-0.479-2.678-0.589
			c-0.658-0.08-1.339-0.066-1.99-0.194c-0.567-0.111-1.145-0.304-1.606-0.653c-0.39-0.294-0.649-0.737-0.902-1.155
			c-0.333-0.551-0.598-1.146-0.791-1.76c-0.133-0.424-0.208-0.87-0.249-1.313c-0.509-5.416,0-16.321,0-16.321h5.514
			c0.632,0,1.252-0.3,1.788-0.633c0.33-0.205,0.621-0.486,0.835-0.811c0.324-0.492,0.633-1.06,0.633-1.65v-3.552h-8.386
			L299.552,45.175z M374.956,53.621c-0.679,0.001-1.355,0.025-2.029,0.099c-0.949,0.104-1.89,0.315-2.805,0.589
			c-0.745,0.224-1.467,0.52-2.168,0.858c-0.924,0.446-1.856,0.914-2.67,1.539c-0.964,0.739-1.841,1.607-2.575,2.575
			c-0.762,1.006-1.367,2.136-1.855,3.299c-0.668,1.592-1.137,3.273-1.444,4.972c-0.29,1.606-0.412,3.254-0.364,4.885
			c0.05,1.702,0.243,3.417,0.68,5.063c0.401,1.509,0.981,2.986,1.76,4.339c0.675,1.173,1.492,2.292,2.488,3.208
			c1.163,1.069,2.557,1.892,3.979,2.579c1.103,0.533,2.291,0.887,3.481,1.175c0.992,0.24,2.006,0.404,3.026,0.451
			c1.07,0.049,2.293,0.122,3.361,0.042c2.551-0.193,4.677-0.472,7.173-1.035c0.86-0.194,2.805-0.815,2.805-0.815
			s-0.319-2.387-0.858-3.438c-0.362-0.704-0.828-1.279-1.539-1.626c-0.962-0.47-2.187-0.163-3.256-0.091
			c-1.115,0.075-2.143,0.255-3.255,0.364c-0.795,0.078-1.599,0.125-2.393,0.044c-1.215-0.125-2.448-0.337-3.572-0.815
			c-0.962-0.409-1.841-1.023-2.623-1.717c-0.648-0.575-1.508-1.307-1.899-2.081c-0.524-1.038-0.589-3.299-0.589-3.299
			s12.359,0.117,18.536,0c0.799-0.015,1.638,0.069,2.397-0.182c0.555-0.184,0.999-0.487,1.357-0.949
			c0.54-0.697,0.823-1.575,0.993-2.441c0.151-0.77,0.125-1.566,0.091-2.35c-0.047-1.092-0.156-2.191-0.407-3.256
			c-0.385-1.633-0.901-3.257-1.673-4.747c-0.647-1.247-1.44-2.451-2.441-3.437c-0.964-0.951-2.138-1.69-3.346-2.302
			c-1.025-0.519-2.134-0.883-3.255-1.131c-1.006-0.223-2.045-0.269-3.074-0.316C376.316,53.645,375.635,53.62,374.956,53.621
			L374.956,53.621z M210.536,53.827c-0.606,0.003-1.225,0.048-1.804,0.075c-1.586,0.074-2.992,0.19-4.565,0.407
			c-0.995,0.137-2.191,0.599-3.141,0.926c-0.937,0.322-2.555,0.997-2.555,0.997s-1.611-1.021-2.508-1.313
			c-2.231-0.727-4.618-0.937-6.962-1.04c-1.629-0.072-3.273,0.053-4.885,0.297c-1.158,0.175-2.302,0.466-3.414,0.835
			c-1.103,0.365-2.198,0.784-3.208,1.357c-0.788,0.447-1.529,0.988-2.191,1.606c-0.461,0.43-1.222,1.444-1.222,1.444l0.115,29.612
			h8.228V64.752c0-1.963,2.158-3.307,5.423-3.165c6.082,0.266,6.013,3.437,6.013,5.878v21.562h8.41v-24.64
			c0-2.381,4.179-3.412,6.511-2.935c3.83,0.784,5.107,3.041,5.107,5.558c0,6.151-0.044,12.852-0.044,19.26
			c0,0.493,0.071,1.327,0.454,1.796c0.431,0.529,1.214,0.961,1.896,0.961h5.965V64.776c0,0-0.692-3.177-1.377-4.636
			c-0.496-1.058-1.13-2.08-1.946-2.915c-0.945-0.967-2.095-1.763-3.323-2.33c-1.223-0.565-2.572-0.851-3.908-1.017
			C211.259,53.835,210.899,53.824,210.536,53.827L210.536,53.827z M411.344,53.862c-1.117,0.015-2.126,0.13-3.335,0.312
			c-1.158,0.175-2.302,0.466-3.414,0.835c-1.103,0.365-2.198,0.784-3.208,1.357c-0.788,0.447-1.529,0.988-2.191,1.606
			c-0.461,0.43-1.479,1.444-1.479,1.444l0.115,29.612h8.228V64.752c0-1.963,3.823-3.628,7.088-3.485
			c6.082,0.266,6.013,3.758,6.013,6.199v18.75c0,0.642,0.109,1.41,0.487,1.93c0.328,0.453,0.893,0.882,1.452,0.882h6.467v-24.64
			c0-3-1.102-5.59-4.118-8.093c-0.726-0.603-3.015-1.405-3.912-1.697c-2.231-0.727-4.685-0.617-7.029-0.72
			C412.099,53.86,411.716,53.857,411.344,53.862L411.344,53.862z M245.148,54.341c-0.204,0.002-0.409,0.008-0.613,0.012
			c-2.136,0.044-4.121,0.332-6.242,0.589c-1.329,0.161-2.78,0.399-4.066,0.767c-0.953,0.273-2.757,1.084-2.757,1.084
			s0.751,3.117,1.127,4.521c0.163,0.609,0.855,1.006,1.448,1.222c0.538,0.197,1.164,0.148,1.717,0
			c2.752-0.738,5.078-0.88,8.228-1.309c1.037-0.141,2.321-0.094,3.303,0.269c0.835,0.309,1.704,0.762,2.215,1.491
			c0.392,0.56,0.439,1.308,0.494,1.99c0.059,0.723-0.087,2.128-0.087,2.128s-4.694,0.077-7.009,0.269
			c-1.587,0.132-3.253,0.396-4.79,0.811c-1.414,0.381-2.941,0.997-4.157,1.812c-1.496,1.003-2.786,2.049-3.754,3.568
			c-0.796,1.25-1.226,2.739-1.448,4.205c-0.216,1.431-0.195,2.93,0.134,4.339c0.298,1.274,0.828,2.538,1.63,3.572
			c0.866,1.118,1.797,1.784,3.026,2.306c2.646,1.123,5.796,1.161,8.592,1.27c3.182,0.125,6.404-0.064,9.537-0.637
			c2.269-0.415,6.602-1.764,6.602-1.764V62.944c0-0.888-0.322-1.359-0.68-2.172c-0.37-0.837-0.886-1.619-1.491-2.306
			c-0.834-0.947-1.798-1.812-2.892-2.441c-1.165-0.67-2.481-1.085-3.797-1.357c-1.198-0.248-2.427-0.321-3.655-0.328
			C245.556,54.34,245.352,54.339,245.148,54.341L245.148,54.341z M154.286,54.475c-0.152,0.002-0.299,0.009-0.439,0.016
			c-2.421,0.113-3.828,0.323-6.06,1.266c-1.933,0.817-3.718,1.842-4.972,3.525c-1.082,1.452-1.534,3.353-1.717,5.154
			c-0.153,1.51-0.014,3.109,0.542,4.521c0.505,1.285,1.41,2.424,2.441,3.343c0.776,0.691,1.575,1.225,2.532,1.63
			c1.186,0.502,2.468,0.732,3.706,1.084c0.872,0.248,1.648,0.249,2.532,0.451c0.657,0.15,1.322,0.276,1.99,0.364
			c0.72,0.095,1.582,0.198,2.263,0.451c0.768,0.286,1.606,0.723,1.99,1.448c0.451,0.853,0.491,2.016,0.087,2.892
			c-0.485,1.051-1.636,1.737-2.71,2.172c-1.179,0.477-2.526,0.354-3.797,0.36c-1.059,0.005-2.211,0.083-3.256-0.091
			c-0.981-0.164-1.887-0.33-2.848-0.585c-0.968-0.257-2.306-0.724-2.306-0.724s-0.83-0.329-1.096-0.233
			c-0.312,0.112-0.653,0.969-0.653,0.969l-2.5,4.826c0,0,2.727,1.164,4.157,1.535c1.535,0.397,3.131,0.612,4.703,0.815
			c1.443,0.186,2.885,0.339,4.339,0.36c1.209,0.017,2.419-0.098,3.615-0.269c1.434-0.205,2.9-0.377,4.248-0.906
			c1.535-0.602,2.863-1.409,3.979-2.623c0.977-1.061,1.732-2.424,2.172-3.797c0.335-1.048,0.573-2.152,0.542-3.252
			c-0.035-1.235-0.3-2.496-0.815-3.619c-0.548-1.194-1.365-2.294-2.35-3.165c-0.961-0.849-2.153-1.43-3.346-1.899
			c-1.585-0.623-3.303-0.839-4.972-1.175c-1.258-0.253-2.58-0.229-3.797-0.633c-1.062-0.352-2.342-0.618-2.983-1.535
			c-0.557-0.797-0.662-1.971-0.364-2.896c0.354-1.096,1.336-1.992,2.354-2.532c1.051-0.557,2.336-0.501,3.525-0.542
			c1.451-0.05,2.902,0.157,4.339,0.36c0.913,0.129,2.714,0.546,2.714,0.546s1.197,0.241,1.717,0
			c0.466-0.216,0.997-1.179,0.997-1.179l1.353-4.608c0,0-2.437-0.711-3.975-0.997C160.101,54.919,156.564,54.447,154.286,54.475
			L154.286,54.475z M279.371,54.563c-1.38,0.014-2.662-0.038-3.963,0.197c-1.322,0.239-2.703,0.632-3.841,1.222
			c-1.076,0.558-2.143,1.202-2.983,2.077c-0.718,0.748-1.268,1.669-1.673,2.623c-0.479,1.127-0.858,2.348-0.858,3.572v25.047h8.406
			V64.435c0-0.72,0.229-1.51,0.724-2.033c0.561-0.594,1.456-0.816,2.263-0.949c0.641-0.106,1.296,0.07,1.942,0.134
			c0.696,0.07,1.2,0.116,1.899,0.091c0.83-0.03,1.728-0.071,2.441-0.498c0.486-0.292,0.842-0.796,1.084-1.309
			c0.411-0.875,0.497-1.731,0.724-2.67c0.125-0.519,0.455-1.535,0.455-1.535s-2.415-0.754-3.663-0.906
			C281.468,54.655,280.199,54.555,279.371,54.563L279.371,54.563z M350.707,54.489c-1.38,0.014-2.562,0.032-3.814,0.272
			c-1.321,0.253-2.706,0.632-3.845,1.222c-1.076,0.558-2.143,1.202-2.983,2.077c-0.718,0.748-1.268,1.669-1.673,2.623
			c-0.479,1.127-0.858,2.348-0.858,3.572v25.047h8.41V64.436c0-0.72,0.229-1.51,0.724-2.033c0.561-0.594,1.452-0.816,2.259-0.949
			c0.641-0.106,1.3,0.07,1.946,0.134c0.696,0.07,1.2,0.116,1.899,0.091c0.83-0.03,1.728-0.071,2.441-0.498
			c0.486-0.292,0.842-0.796,1.084-1.309c0.411-0.875,0.497-1.731,0.724-2.67c0.125-0.519,0.451-1.535,0.451-1.535
			s-2.415-0.754-3.663-0.906C352.949,54.656,351.535,54.48,350.707,54.489L350.707,54.489z M375.889,60.022
			c0.794-0.013,1.593,0.037,2.33,0.301c0.929,0.332,1.744,0.975,2.441,1.673c0.567,0.568,1.042,1.252,1.357,1.99
			c0.599,1.402,0.949,4.474,0.949,4.474h-15.463c0,0,0.272-1.702,0.498-2.532c0.274-1.002,0.436-2.094,1.04-2.939
			c0.749-1.047,1.856-1.868,3.03-2.397c0.935-0.421,2.001-0.496,3.026-0.542C375.358,60.037,375.624,60.026,375.889,60.022
			L375.889,60.022z M248.639,73.206c0.757-0.003,1.365,0,1.365,0v8.726c0,0-2.687,0.719-4.201,0.858
			c-1.593,0.147-3.632,0.217-5.202-0.091c-1.001-0.196-2.121-0.46-2.848-1.175c-0.755-0.742-1.075-1.924-1.084-2.983
			c-0.008-0.925,0.386-1.858,0.906-2.623c0.312-0.46,0.791-0.799,1.266-1.088c0.889-0.542,1.879-0.888,2.892-1.127
			c1.5-0.355,3.116-0.375,4.656-0.455C246.976,73.219,247.882,73.21,248.639,73.206L248.639,73.206z"/>
	</g>
	<path id="path4201" style="fill:#191919;" d="M226.382,99.156c0,0-0.01,9.187-0.01,13.684
		c0,0.807,0.289,1.663,0.805,2.284c0.342,0.412,0.855,0.805,1.39,0.805h1.993v-1.496h-1.438c-0.317,0-0.603-0.284-0.774-0.551
		c-0.213-0.332-0.223-0.77-0.223-1.164v-13.56L226.382,99.156L226.382,99.156z M233.3,99.266l-0.003,1.904v0.007h1.746v-1.911
		L233.3,99.266L233.3,99.266z M322.132,100.913c0,0-0.002,1.742-0.003,3.609h-1.459v1.301h1.459
		c-0.002,2.297-0.007,4.955-0.007,7.016c0,0.807,0.293,1.663,0.808,2.284c0.342,0.412,0.855,0.805,1.39,0.805h1.993v-1.496h-1.442
		c-0.317,0-0.603-0.284-0.774-0.551c-0.213-0.332-0.223-0.77-0.223-1.164v-6.893h2.339v-1.301h-2.339v-3.609L322.132,100.913
		L322.132,100.913z M271.437,104.228c-0.283,0.003-0.563,0.024-0.842,0.062c-0.621,0.083-1.269,0.175-1.822,0.469
		c-0.437,0.233-0.821,0.586-1.113,0.986c-0.23,0.315-0.379,0.689-0.469,1.068c-0.093,0.389-0.118,0.802-0.065,1.199
		c0.066,0.499,0.173,1.03,0.473,1.435c0.369,0.498,0.942,0.838,1.517,1.068c0.536,0.215,1.138,0.196,1.712,0.257
		c0.689,0.073,1.403-0.026,2.079,0.13c0.309,0.071,0.646,0.146,0.877,0.363c0.334,0.316,0.533,0.788,0.599,1.243
		c0.052,0.357-0.005,0.748-0.171,1.068c-0.138,0.264-0.382,0.479-0.644,0.62c-0.431,0.232-0.949,0.237-1.431,0.322
		c-0.383,0.067-0.769,0.153-1.157,0.151c-0.411-0.002-0.821-0.071-1.219-0.171c-0.361-0.091-0.726-0.2-1.048-0.387
		c-0.403-0.234-1.072-0.897-1.072-0.897l-1.092,1.219c0,0,0.564,0.503,0.88,0.705c0.389,0.25,0.801,0.478,1.24,0.623
		c0.77,0.255,1.586,0.392,2.397,0.428c0.572,0.026,1.155-0.017,1.712-0.151c0.613-0.147,1.241-0.343,1.757-0.705
		c0.517-0.363,0.995-0.841,1.26-1.414c0.197-0.425,0.173-0.923,0.195-1.39c0.016-0.328-0.031-0.694-0.13-1.007
		c-0.116-0.364-0.276-0.66-0.534-0.942c-0.213-0.232-0.478-0.419-0.75-0.579c-0.408-0.239-0.863-0.411-1.325-0.514
		c-0.418-0.093-0.835-0.075-1.264-0.086c-0.392-0.01-0.792,0.052-1.178-0.02c-0.546-0.103-1.163-0.192-1.561-0.579
		c-0.315-0.305-0.459-0.782-0.493-1.219c-0.024-0.314,0.045-0.657,0.216-0.921c0.248-0.385,0.661-0.669,1.089-0.832
		c0.361-0.137,0.771-0.094,1.157-0.086c0.244,0.005,0.488,0.031,0.726,0.086c0.787,0.18,2.291,0.791,2.291,0.791l1.264-1.199
		c0,0-0.727-0.501-1.133-0.664c-0.66-0.264-1.372-0.415-2.079-0.493C272.002,104.235,271.719,104.224,271.437,104.228
		L271.437,104.228z M303.728,104.235c-0.519,0.008-1.069,0.071-1.558,0.127c-0.453,0.052-0.905,0.217-1.315,0.418
		c-0.649,0.317-1.541,1.264-1.541,1.264l1.113,1.113c0,0,0.732-0.856,1.219-1.113c0.415-0.219,0.904-0.299,1.37-0.353
		c0.418-0.048,0.848-0.038,1.264,0.031c0.394,0.065,0.811,0.151,1.133,0.387c0.321,0.235,0.521,0.61,0.705,0.962
		c0.091,0.174,0.163,0.365,0.195,0.558c0.096,0.57,0,1.733,0,1.733s-2.341-0.05-3.51,0c-0.587,0.025-1.155,0.052-1.712,0.236
		c-0.438,0.145-0.837,0.415-1.178,0.726c-0.211,0.193-0.418,0.349-0.555,0.599c-0.167,0.307-0.305,0.642-0.366,0.986
		c-0.069,0.386-0.042,0.784,0,1.175c0.032,0.298,0.089,0.6,0.195,0.88c0.14,0.367,0.313,0.735,0.575,1.027
		c0.345,0.384,0.718,0.601,1.198,0.791c0.502,0.198,1.069,0.185,1.606,0.236c0.249,0.024,0.501,0.06,0.75,0.041
		c0.546-0.042,1.582-0.342,1.582-0.342c0.197-0.042,1.349-0.962,1.349-0.962v1.113h1.777v-8.283c0-0.441-0.129-0.888-0.322-1.284
		c-0.198-0.407-0.487-0.78-0.836-1.068c-0.432-0.358-0.965-0.59-1.496-0.77c-0.378-0.128-0.78-0.191-1.178-0.216
		c-0.08-0.005-0.164-0.009-0.247-0.01C303.874,104.233,303.802,104.233,303.728,104.235L303.728,104.235z M291.352,104.249
		c-0.115,0.001-0.229,0.006-0.342,0.017c-0.353,0.036-0.695,0.156-1.027,0.281c-0.394,0.148-0.785,0.318-1.133,0.555
		c-0.463,0.316-1.243,1.133-1.243,1.133s-0.824-1.172-1.431-1.517c-0.654-0.372-1.388-0.449-2.14-0.452
		c-0.325-0.002-0.651,0.069-0.966,0.151c-0.419,0.109-0.847,0.226-1.219,0.449c-0.352,0.21-0.921,0.815-0.921,0.815v-1.329h-1.668
		v11.557h1.668v-7.595c0-0.165,0.017-0.335,0.065-0.493c0.126-0.418,0.306-0.837,0.579-1.178c0.235-0.293,0.535-0.55,0.877-0.705
		c0.409-0.186,0.77-0.22,1.219-0.236c0.351-0.013,0.82,0.01,1.157,0.106c0.313,0.089,0.569,0.277,0.812,0.493
		c0.316,0.282,0.588,0.616,0.75,1.007c0.14,0.337,0.236,0.703,0.236,1.068v7.534h1.627v-7.917c0-0.115,0.074-0.22,0.127-0.322
		c0.211-0.408,0.398-0.859,0.75-1.154c0.493-0.413,1.142-0.655,1.777-0.75c0.482-0.072,1.006-0.039,1.455,0.151
		c0.471,0.199,0.903,0.552,1.178,0.983c0.266,0.417,0.384,0.94,0.384,1.435v7.554h1.777v-7.77c0,0-0.035-0.64-0.13-0.942
		c-0.141-0.444-0.373-0.858-0.64-1.24c-0.284-0.405-0.59-0.741-1.007-1.007c-0.455-0.29-1.011-0.479-1.541-0.579
		C292.043,104.287,291.696,104.246,291.352,104.249L291.352,104.249z M253.483,104.262c-0.479,0.006-0.962,0.076-1.407,0.236
		c-0.666,0.239-1.288,0.643-1.784,1.147c-0.423,0.43-0.719,0.983-0.955,1.538c-0.205,0.482-0.307,1.003-0.387,1.52
		c-0.098,0.635-0.109,1.337-0.11,1.979c0,0.333,0.01,0.667,0.055,0.996c0.044,0.327,0.112,0.653,0.205,0.969
		c0.132,0.445,0.269,0.789,0.5,1.192c0.176,0.307,0.417,0.63,0.664,0.884c0.206,0.211,0.441,0.393,0.678,0.568
		c0.243,0.181,0.484,0.303,0.76,0.428c0.358,0.162,0.744,0.267,1.133,0.318c0.416,0.055,0.843,0.037,1.26-0.014
		c0.785-0.095,1.576-0.203,2.284-0.555c0.601-0.299,1.575-1.202,1.575-1.202l-0.993-0.996c0,0-0.753,0.752-1.26,0.983
		c-0.29,0.132-0.667,0.192-0.983,0.233c-0.326,0.042-0.654,0.09-0.983,0.086c-0.297-0.003-0.603-0.012-0.887-0.099
		c-0.44-0.136-0.863-0.355-1.216-0.651c-0.269-0.226-0.483-0.52-0.651-0.829c-0.196-0.36-0.292-0.688-0.36-1.092
		c-0.066-0.396-0.041-1.274-0.041-1.274h7.678c0,0,0.009-0.987-0.027-1.479c-0.034-0.464-0.057-0.934-0.178-1.383
		c-0.14-0.517-0.33-1.035-0.623-1.483c-0.37-0.565-0.815-1.123-1.397-1.466c-0.616-0.363-1.362-0.492-2.075-0.541
		C253.802,104.265,253.643,104.26,253.483,104.262L253.483,104.262z M316.605,104.266c-0.325-0.002-0.648,0.069-0.962,0.151
		c-0.419,0.109-0.847,0.226-1.219,0.449c-0.351,0.21-0.921,0.815-0.921,0.815v-1.329h-1.671v11.557h1.671v-7.595
		c0-0.165,0.017-0.335,0.065-0.493c0.126-0.418,0.302-0.837,0.575-1.178c0.235-0.293,0.535-0.55,0.877-0.705
		c0.409-0.186,0.774-0.22,1.222-0.236c0.351-0.013,0.816,0.01,1.154,0.106c0.313,0.089,0.572,0.277,0.815,0.493
		c0.092,0.082,0.291,0.329,0.291,0.329l1.116-1.106c0,0-0.594-0.646-0.873-0.805C318.092,104.346,317.357,104.268,316.605,104.266
		L316.605,104.266z M237.392,104.334l4.178,11.567h1.524l4.345-11.567h-1.774l-3.291,9.352l-3.072-9.352H237.392L237.392,104.334z
		 M233.293,104.396v0.02l-0.007,11.496h1.753v-11.509v-0.007L233.293,104.396L233.293,104.396z M253.394,105.663
		c0.071-0.003,0.145-0.002,0.216,0c0.573,0.013,1.195,0.169,1.674,0.483c0.452,0.295,0.75,0.781,1.024,1.246
		c0.087,0.148,0.134,0.316,0.178,0.483c0.051,0.194,0.075,0.396,0.096,0.596c0.03,0.28,0.045,0.842,0.045,0.842h-6.061
		c0,0-0.022-0.763,0.055-1.133c0.082-0.4,0.211-0.801,0.428-1.147c0.234-0.373,0.534-0.734,0.914-0.955
		C252.39,105.828,252.895,105.685,253.394,105.663L253.394,105.663z M304.527,110.615c0.894,0.003,1.736,0.031,1.736,0.031v1.264
		c0,0.67-0.274,1.325-0.64,1.904c-0.089,0.141-0.248,0.228-0.387,0.322c-0.188,0.127-0.381,0.257-0.599,0.318
		c-0.241,0.068-0.52,0.176-0.77,0.171c-0.373-0.007-0.7,0.056-1.068,0c-0.627-0.095-1.052-0.216-1.541-0.62
		c-0.387-0.32-0.64-0.786-0.705-1.284c-0.034-0.264,0.024-0.538,0.106-0.791c0.06-0.185,0.149-0.367,0.277-0.514
		c0.215-0.246,0.487-0.459,0.791-0.579c0.434-0.171,0.838-0.163,1.305-0.192C303.434,110.621,303.991,110.613,304.527,110.615
		L304.527,110.615z"/>
</g>
</svg>
