<?xml version="1.0" encoding="iso-8859-1"?>
<!-- Generator: Adobe Illustrator 17.0.2, SVG Export Plug-In . SVG Version: 6.00 Build 0)  -->
<!DOCTYPE svg PUBLIC "-//W3C//DTD SVG 1.1//EN" "http://www.w3.org/Graphics/SVG/1.1/DTD/svg11.dtd">
<svg version="1.1" id="Comp" xmlns="http://www.w3.org/2000/svg" xmlns:xlink="http://www.w3.org/1999/xlink" x="0px" y="0px"
	 width="460px" height="71px" viewBox="0 0 460 71" style="enable-background:new 0 0 460 71;" xml:space="preserve">
<g id="g12" transform="matrix(1.25, 0, 0, -1.25, -375.855, 370.03)">
	<g id="g164">
		<g>
			<g>
				<g>
					<g id="g166">
						<g id="g172" transform="translate(388.349, 250.856)">
							<path id="path174" style="fill:#696566;" d="M70.423-7.154L54.311,37.713c-0.206,0.62-0.512,1.439-0.512,2.158
								c0,1.944,1.643,3.791,3.997,3.791c2.055,0,3.394-1.334,4.007-3.278L75.152,1.723l13.447,38.768
								c0.613,1.839,1.846,3.173,3.889,3.173h0.417c2.16,0,3.494-1.334,4.107-3.173l13.336-38.768l13.562,38.864
								c0.512,1.65,1.633,3.077,3.796,3.077c2.256,0,3.901-1.736,3.901-3.69c0-0.716-0.311-1.532-0.512-2.158L114.88-7.154
								c-0.829-2.349-2.464-3.582-4.315-3.582h-0.306c-2.055,0-3.597,1.233-4.32,3.582L92.704,30.972L79.355-7.154
								c-0.718-2.349-2.263-3.582-4.311-3.582h-0.216C72.884-10.736,71.249-9.503,70.423-7.154"/>
						</g>
						<g id="g176" transform="translate(436.249, 269.985)">
							<path id="path178" style="fill:#696566;" d="M139.97,20.622c0,2.165,1.746,4.014,3.901,4.014
								c2.273,0,4.014-1.748,4.014-4.014v-9.104c3.904,8.842,12.562,13.015,18.299,13.015c2.376,0,3.918-1.746,3.918-4.007
								c0-2.163-1.432-3.698-3.506-4.007c-10.286-1.233-18.709-8.95-18.709-24.275v-18.029c0-2.16-1.643-4.007-3.904-4.007
								c-2.263,0-4.011,1.756-4.011,4.007L139.97,20.622L139.97,20.622z"/>
						</g>
						<g id="g180" transform="translate(458.898, 249.221)">
							<path id="path182" style="fill:#696566;" d="M172.859-9.528c-14.312,0-25.998,11.1-25.998,27.379v0.211
								c0,15.161,10.583,27.374,24.991,27.374c15.406,0,24.179-12.711,24.179-26.66c0-2.143-1.729-3.676-3.631-3.676h-37.667
								c1.098-11.389,9.053-17.799,18.334-17.799c6.451,0,11.171,2.545,15.006,6.108c0.606,0.503,1.309,0.91,2.221,0.91
								c1.908,0,3.425-1.528,3.425-3.367c0-0.912-0.402-1.832-1.219-2.535C187.569-6.362,181.718-9.528,172.859-9.528
								 M188.272,20.904c-0.809,9.575-6.253,17.912-16.632,17.912c-9.067,0-15.918-7.628-16.914-17.912H188.272z"/>
						</g>
						<g id="g184" transform="translate(413.36, 255.941)">
							<path id="path186" style="fill:#696566;" d="M106.736,0.23v0.206c0,11.171,9.229,17.125,22.654,17.125
								c6.77,0,11.586-0.922,16.311-2.263v1.854c0,9.526-5.86,14.454-15.793,14.454c-5.333,0-8.437-0.679-12.341-2.418
								c-0.505-0.206-1.022-0.311-1.422-0.311c-1.846,0-3.494,1.542-3.494,3.384c0,1.635,0.714,2.648,2.158,3.288
								c5.22,2.266,9.156,3.018,15.918,3.018c7.479,0,13.221-1.942,17.11-5.841c3.595-3.587,5.441-8.712,5.441-15.482v-29.247
								c0-2.248-1.64-3.894-3.805-3.894c-2.246,0-3.769,1.643-3.769,3.69v5.056c-3.698-4.828-9.855-9.126-19.165-9.126
								C116.691-16.27,106.736-10.637,106.736,0.23 M145.801,4.332v5.127c-3.904,1.125-9.139,2.256-15.592,2.256
								c-9.931,0-15.475-4.311-15.475-10.968V0.544c0-6.662,6.145-10.558,13.329-10.558C137.798-10.015,145.801-4.066,145.801,4.332
								"/>
						</g>
						<g id="g188" transform="translate(329.779, 270.223)">
							<path id="path190" style="fill:#696566;" d="M-14.62,20.967c-1.736,3.805-6.027,5.529-10.034,3.749
								c-4.011-1.783-5.488-6.231-3.676-10.038l16.823-36.567c2.646-5.73,5.434-8.734,10.666-8.734
								c5.591,0,8.028,3.271,10.671,8.734c0,0,14.673,31.949,14.82,32.283c0.15,0.338,0.62,1.371,2.114,1.361
								c1.263-0.007,2.324-1.015,2.324-2.369v-31.243c0-4.816,2.67-8.766,7.81-8.766c5.134,0,7.91,3.95,7.91,8.766V3.71
								c0,4.931,3.533,8.131,8.349,8.131s8.02-3.315,8.02-8.131v-25.567c0-4.816,2.68-8.766,7.81-8.766
								c5.134,0,7.925,3.95,7.925,8.766V3.71c0,4.931,3.519,8.131,8.337,8.131c4.808,0,8.025-3.315,8.025-8.131v-25.567
								c0-4.816,2.678-8.766,7.812-8.766c5.132,0,7.917,3.95,7.917,8.766V7.241c0,10.693-8.599,18.184-18.947,18.184
								c-10.335,0-16.808-7.15-16.808-7.15c-3.44,4.46-8.182,7.14-16.208,7.14c-8.469,0-15.882-7.14-15.882-7.14
								c-3.443,4.46-9.303,7.14-14.155,7.14c-7.506,0-13.466-3.3-17.103-11.615L-0.84-11.522L-14.62,20.967z"/>
						</g>
						<g id="g192" transform="translate(468.609, 268.931)">
							<path id="path194" style="fill:#696566;" d="M186.959,19.091v0.044c0,3.577,2.903,6.591,6.552,6.591
								c3.7,0,6.564-2.982,6.564-6.564v-0.027c0-3.59-2.896-6.603-6.564-6.603C189.811,12.532,186.959,15.504,186.959,19.091
								 M198.815,19.135v0.017c0,2.942-2.273,5.355-5.304,5.355c-3.004,0-5.311-2.454-5.311-5.372v-0.034
								c0-2.935,2.28-5.348,5.311-5.348C196.505,13.753,198.815,16.203,198.815,19.135"/>
						</g>
						<g id="g196" transform="translate(470.257, 270.007)">
							<path id="path198" style="fill:#696566;" d="M189.355,20.653c0,0.39,0.311,0.701,0.706,0.701h2.187
								c0.824,0,1.459-0.233,1.854-0.65c0.36-0.351,0.557-0.858,0.557-1.447v-0.02c0-1-0.505-1.611-1.268-1.932l0.966-1.177
								c0.135-0.177,0.226-0.321,0.226-0.537c0-0.387-0.329-0.642-0.662-0.642c-0.311,0-0.522,0.159-0.687,0.36l-1.361,1.721h-1.116
								v-1.383c0-0.39-0.302-0.696-0.694-0.696c-0.395,0-0.706,0.309-0.706,0.696v5.005H189.355z M192.169,18.27
								c0.682,0,1.057,0.356,1.057,0.897v0.022c0,0.591-0.402,0.91-1.081,0.91h-1.395v-1.827h1.42V18.27z"/>
						</g>
					</g>
				</g>
			</g>
		</g>
	</g>
</g>
</svg>
