<?xml version="1.0" encoding="iso-8859-1"?>
<!-- Generator: Adobe Illustrator 17.0.2, SVG Export Plug-In . SVG Version: 6.00 Build 0)  -->
<!DOCTYPE svg PUBLIC "-//W3C//DTD SVG 1.1//EN" "http://www.w3.org/Graphics/SVG/1.1/DTD/svg11.dtd">
<svg version="1.1" id="Comp" xmlns="http://www.w3.org/2000/svg" xmlns:xlink="http://www.w3.org/1999/xlink" x="0px" y="0px"
	 width="320px" height="169px" viewBox="0 0 320 169" style="enable-background:new 0 0 320 169;" xml:space="preserve">
<g>
	<polygon style="fill:#C31A2D;" points="311.966,160.522 311.966,161.388 309.485,161.388 309.485,167.841 308.466,167.841 
		308.466,161.388 305.984,161.388 305.984,160.522 	"/>
	<polygon style="fill:#C31A2D;" points="312.497,160.522 314.084,160.522 316.268,166.525 316.321,166.525 318.445,160.522 
		320,160.522 320,167.841 318.954,167.841 318.954,161.843 318.922,161.843 316.679,167.841 315.725,167.841 313.574,161.843 
		313.515,161.843 313.515,167.841 312.497,167.841 	"/>
	<rect x="90.497" y="112.239" style="fill:#C31A2D;" width="14.034" height="55.602"/>
	<path style="fill:#C31A2D;" d="M217.664,128.172c-0.569-0.298-5.082-2.98-11.805-2.98c-9.053,0-15.36,6.322-15.36,14.839
		c0,8.262,6.035,14.844,15.36,14.844c6.603,0,11.209-2.616,11.805-2.953v14.931c-1.766,0.487-6.545,1.977-12.791,1.977
		c-15.777,0-29.608-10.884-29.608-28.8c0-16.611,12.515-28.779,29.608-28.779c6.604,0,11.474,1.593,12.791,1.989V128.172z"/>
	<path style="fill:#C31A2D;" d="M71.222,128.172c-0.566-0.298-5.079-2.98-11.802-2.98c-9.083,0-15.375,6.322-15.375,14.839
		c0,8.262,6.024,14.844,15.375,14.844c6.604,0,11.176-2.616,11.802-2.953v14.931c-1.76,0.487-6.541,1.977-12.818,1.977
		c-15.76,0-29.597-10.884-29.597-28.8c0-16.611,12.534-28.779,29.597-28.779c6.604,0,11.475,1.593,12.818,1.989V128.172z"/>
	<path style="fill:#C31A2D;" d="M291.193,140.032c0,15.906-12.276,28.8-29.37,28.8c-17.12,0-29.369-12.894-29.369-28.8
		c0-15.885,12.249-28.779,29.369-28.779C278.917,111.253,291.193,124.147,291.193,140.032z M261.823,125.409
		c-8.338,0-14.525,6.55-14.525,14.622c0,8.083,6.187,14.633,14.525,14.633c8.305,0,14.492-6.55,14.492-14.633
		C276.316,131.959,270.129,125.409,261.823,125.409z"/>
	<path style="fill:#C31A2D;" d="M157.754,124.872c-0.209-0.059-6.124-1.689-10.965-1.689c-5.648,0-8.696,1.879-8.696,4.55
		c0,3.392,4.123,4.567,6.423,5.309l3.885,1.225c9.115,2.893,13.268,9.134,13.268,15.895c0,13.978-12.282,18.67-23.039,18.67
		c-7.468,0-14.46-1.371-15.148-1.522v-12.791c1.254,0.308,7.14,2.059,13.268,2.059c6.961,0,10.188-2.032,10.188-5.19
		c0-2.823-2.78-4.438-6.274-5.537c-0.837-0.282-2.124-0.677-2.987-0.975c-7.829-2.465-14.344-7.048-14.344-16.253
		c0-10.402,7.799-17.391,20.736-17.391c6.843,0,13.265,1.663,13.685,1.772V124.872z"/>
	<path style="fill:#1D546A;" d="M13.929,52.471c0-3.819-3.129-6.929-6.964-6.929c-3.83,0-6.964,3.11-6.964,6.929v14.601
		c0,3.857,3.134,6.972,6.964,6.972c3.836,0,6.964-3.115,6.964-6.972V52.471z"/>
	<path style="fill:#1D546A;" d="M52.192,33.314c0-3.819-3.137-6.94-6.964-6.94c-3.836,0-6.965,3.121-6.965,6.94v33.758
		c0,3.857,3.129,6.972,6.965,6.972c3.827,0,6.964-3.115,6.964-6.972V33.314z"/>
	<path style="fill:#1D546A;" d="M90.468,7.108c0-3.83-3.137-6.94-6.962-6.94c-3.855,0-6.992,3.11-6.992,6.94v73.843
		c0,3.847,3.137,6.952,6.992,6.952c3.825,0,6.962-3.104,6.962-6.952V7.108z"/>
	<path style="fill:#1D546A;" d="M128.711,33.314c0-3.819-3.107-6.94-6.961-6.94c-3.822,0-6.962,3.121-6.962,6.94v33.758
		c0,3.857,3.139,6.972,6.962,6.972c3.855,0,6.961-3.115,6.961-6.972V33.314z"/>
	<path style="fill:#1D546A;" d="M166.955,52.471c0-3.819-3.134-6.929-6.929-6.929c-3.855,0-6.962,3.11-6.962,6.929v14.601
		c0,3.857,3.107,6.972,6.962,6.972c3.795,0,6.929-3.115,6.929-6.972V52.471z"/>
	<path style="fill:#1D546A;" d="M205.237,33.314c0-3.819-3.11-6.94-6.967-6.94c-3.824,0-6.929,3.121-6.929,6.94v33.758
		c0,3.857,3.105,6.972,6.929,6.972c3.858,0,6.967-3.115,6.967-6.972V33.314z"/>
	<path style="fill:#1D546A;" d="M243.507,7.108c0-3.83-3.11-6.94-6.935-6.94c-3.851,0-6.956,3.11-6.956,6.94v73.843
		c0,3.847,3.105,6.952,6.956,6.952c3.825,0,6.935-3.104,6.935-6.952V7.108z"/>
	<path style="fill:#1D546A;" d="M281.784,33.314c0-3.819-3.104-6.94-7.022-6.94c-3.824,0-6.929,3.121-6.929,6.94v33.758
		c0,3.857,3.104,6.972,6.929,6.972c3.917,0,7.022-3.115,7.022-6.972V33.314z"/>
	<path style="fill:#1D546A;" d="M320,52.471c0-3.819-3.109-6.929-6.929-6.929c-3.857,0-6.967,3.11-6.967,6.929v14.601
		c0,3.857,3.11,6.972,6.967,6.972c3.82,0,6.929-3.115,6.929-6.972V52.471z"/>
</g>
</svg>
