<?xml version="1.0" encoding="iso-8859-1"?>
<!-- Generator: Adobe Illustrator 17.0.2, SVG Export Plug-In . SVG Version: 6.00 Build 0)  -->
<!DOCTYPE svg PUBLIC "-//W3C//DTD SVG 1.1//EN" "http://www.w3.org/Graphics/SVG/1.1/DTD/svg11.dtd">
<svg version="1.1" id="Comp" xmlns="http://www.w3.org/2000/svg" xmlns:xlink="http://www.w3.org/1999/xlink" x="0px" y="0px"
	 width="400px" height="116px" viewBox="0 0 400 116" style="enable-background:new 0 0 400 116;" xml:space="preserve">
<g>
	<path style="fill:#302A6E;" d="M39.133,39.573L0.855,105.795c-0.3,0.517-0.543,1.066-0.719,1.629L0,107.859l0.191,0.417
		l3.019,6.557l0.196,0.427l0.439,0.176c0.437,0.175,0.864,0.281,1.223,0.36l0.845,0.188l0.436-0.744l2.445-4.164l1.578-2.789
		l38.602-66.861L50,39.573L39.133,39.573L39.133,39.573z"/>
	<polygon style="fill:#7D65AC;" points="62.841,27.223 61.093,39.178 61.093,43.168 95.774,103.235 106.728,103.235 	"/>
	<path style="fill:#F1A92F;" d="M109.043,107.882c-0.042-0.167-0.095-0.324-0.15-0.484l-0.039-0.114l-0.273-0.806h-0.85l-8.011,0.03
		H15.094c-1.462,2.453-3.974,6.687-5.632,9.487h92.862h0.002c1.087-0.002,2.123-0.215,3.084-0.639l0.401-0.174l0.192-0.394
		l2.955-6.113l0.182-0.382L109.043,107.882z"/>
	<path style="fill:#2E3192;" d="M39.213,40.04"/>
	<polygon style="fill:#7D65AC;" points="71.158,52.594 69.166,50.748 61.461,43.606 61.08,43.253 61.08,42.734 61.08,6.997 
		61.08,5.811 62.266,5.811 69.972,5.811 71.158,5.811 71.158,6.997 71.158,49.877 	"/>
	<path style="fill:#2E3192;" d="M39.536,41.636"/>
	<polygon style="fill:#7D65AC;" points="49.815,20.105 49.815,8.37 43.829,8.37 43.829,13.302 	"/>
	<polygon style="fill:#7D65AC;" points="35.568,3.956 43.814,13.327 70.545,13.327 70.876,12.682 75.94,3.956 	"/>
	<path style="fill:#F1A92F;" d="M50.32,93.151c0,0-4.27,3.166-7.252,2.293c0,0,14.736,14.784,30.118,0.584
		c0,0,5.152-5.964,4.909-10.302l-2.018-0.549c0,0-2.813,13.97-17.574,12.24C58.504,97.417,54.768,96.586,50.32,93.151z"/>
	<path style="fill:#302A6E;" d="M45.889,73.458c0,0-0.483-5.295,1.819-7.385c0,0-20.298,4.873-16.19,25.403
		c0,0,2.407,7.506,6.235,9.559l1.522-1.434c0,0-10.46-9.679-1.295-21.38C37.979,78.222,40.635,75.465,45.889,73.458z"/>
	<path style="fill:#7D65AC;" d="M65.388,79.204c0,0,4.899,2.071,5.663,5.084c0,0,5.257-20.204-14.784-26.247
		c0,0-7.758-1.41-11.37,1.003l0.552,2.018c0,0,13.462-4.669,19.467,8.924C64.917,69.985,66.095,73.624,65.388,79.204z"/>
	<path style="fill:#7D65AC;" d="M58.069,71.855c-1.747,1.952-4.744,2.119-6.696,0.375c-1.952-1.746-2.123-4.748-0.376-6.698
		c1.747-1.95,4.745-2.117,6.697-0.375C59.648,66.903,59.812,69.9,58.069,71.855z"/>
	<path style="fill:#302A6E;" d="M45.62,91.185c-1.745,1.955-4.742,2.124-6.693,0.377c-1.954-1.748-2.121-4.743-0.374-6.696
		c1.743-1.952,4.742-2.124,6.696-0.375C47.199,86.235,47.365,89.235,45.62,91.185z"/>
	<path style="fill:#F1A92F;" d="M68.092,92.104c-1.744,1.95-4.74,2.122-6.691,0.378c-1.955-1.748-2.123-4.745-0.378-6.698
		c1.747-1.953,4.744-2.122,6.698-0.375C69.674,87.155,69.836,90.155,68.092,92.104z"/>
	<g>
		<path style="fill:#302A6E;" d="M161.321,51.575c0,11.581-5.147,18.443-17.263,18.443c-4.611,0-9.865-0.643-13.94-1.501v21.552
			l-13.081,1.823V16.727h10.401l1.287,4.396c4.611-3.324,9.972-5.468,16.513-5.468c10.508,0,16.083,6.219,16.083,18.121V51.575z
			 M130.119,57.473c3.431,0.751,7.827,1.394,11.581,1.394c4.718,0,6.541-2.252,6.541-6.97V33.454c0-4.289-1.608-6.648-6.433-6.648
			c-4.289,0-8.899,2.144-11.687,4.718L130.119,57.473L130.119,57.473z"/>
		<path style="fill:#302A6E;" d="M180.298,16.727v36.457c0,2.788,1.179,4.182,4.182,4.182c3.217,0,8.899-1.93,13.617-4.396V16.727
			h13.082v52.219h-9.972l-1.287-4.396c-6.541,3.217-14.797,5.468-20.909,5.468c-8.685,0-11.795-6.112-11.795-15.441V16.726
			L180.298,16.727L180.298,16.727z"/>
	</g>
	<g>
		<path style="fill:#7D65AC;" d="M307.566,113.833V75.871l6.751-0.941v38.902L307.566,113.833L307.566,113.833z"/>
		<path style="fill:#7D65AC;" d="M338.721,113.833h-5.534l-0.497-1.826c-2.435,1.605-5.313,2.38-8.024,2.38
			c-4.925,0-7.028-3.375-7.028-8.024c0-5.478,2.38-7.581,7.858-7.581h6.474v-2.822c0-2.988-0.83-4.04-5.147-4.04
			c-2.435,0-5.091,0.332-7.47,0.83l-0.83-5.147c2.545-0.775,6.253-1.273,9.241-1.273c8.467,0,10.957,2.988,10.957,9.74
			L338.721,113.833L338.721,113.833z M331.97,103.65h-4.981c-2.214,0-2.822,0.609-2.822,2.656c0,1.882,0.609,2.711,2.711,2.711
			c1.992,0,3.819-0.664,5.091-1.383L331.97,103.65L331.97,103.65z"/>
		<path style="fill:#7D65AC;" d="M365.45,103.484c0,6.53-1.992,10.902-12.395,10.902c-2.712,0-7.083-0.277-10.459-0.941V75.871
			l6.751-0.941v13.005c1.992-0.83,5.035-1.605,7.969-1.605c5.81,0,8.134,3.542,8.134,9.241L365.45,103.484L365.45,103.484z
			 M349.347,108.41c1.217,0.166,2.601,0.221,4.04,0.221c4.427,0,5.312-1.77,5.312-4.925v-8.301c0-2.158-0.941-3.32-3.431-3.32
			c-1.882,0-4.261,0.775-5.921,1.55L349.347,108.41L349.347,108.41z"/>
		<path style="fill:#7D65AC;" d="M376.851,114.386c-2.878,0-6.807-0.664-9.297-1.55l0.941-5.147
			c2.269,0.664,5.257,1.162,8.024,1.162c2.988,0,3.431-0.664,3.431-2.711c0-1.66-0.332-2.49-4.703-3.542
			c-6.585-1.605-7.36-3.265-7.36-8.467c0-5.423,2.379-7.802,10.071-7.802c2.49,0,5.754,0.332,8.079,0.941l-0.664,5.367
			c-2.048-0.387-5.312-0.775-7.415-0.775c-2.933,0-3.431,0.664-3.431,2.324c0,2.158,0.166,2.324,3.819,3.265
			c7.526,1.992,8.245,2.988,8.245,8.522C386.59,111.177,384.985,114.386,376.851,114.386z"/>
	</g>
	<path style="fill:#302A6E;" d="M262.865,49.65c0,11.58-5.147,18.443-17.263,18.443c-4.611,0-9.865-0.643-13.94-1.501v21.552
		l-13.081,1.823V14.801h10.401l1.286,4.396c4.611-3.324,9.972-5.468,16.513-5.468c10.508,0,16.084,6.219,16.084,18.121V49.65z
		 M231.662,55.548c3.431,0.751,7.827,1.394,11.581,1.394c4.718,0,6.541-2.252,6.541-6.969V31.529c0-4.289-1.608-6.648-6.433-6.648
		c-4.288,0-8.899,2.144-11.687,4.718L231.662,55.548L231.662,55.548z"/>
	<path style="fill:#302A6E;" d="M313.581,49.65c0,11.58-5.147,18.443-17.263,18.443c-4.611,0-9.865-0.643-13.94-1.501v21.552
		l-13.081,1.823V14.801h10.401l1.286,4.396c4.611-3.324,9.972-5.468,16.513-5.468c10.508,0,16.084,6.219,16.084,18.121
		L313.581,49.65L313.581,49.65z M282.378,55.548c3.432,0.751,7.827,1.394,11.581,1.394c4.718,0,6.541-2.252,6.541-6.969V31.529
		c0-4.289-1.609-6.648-6.433-6.648c-4.289,0-8.9,2.144-11.688,4.718L282.378,55.548L282.378,55.548z"/>
	<path style="fill:#302A6E;" d="M343.065,57.371c5.039,0,10.293-0.751,15.977-2.466l2.037,9.864
		c-5.897,2.252-12.974,3.324-19.193,3.324c-16.405,0-22.088-7.613-22.088-20.158V34.102c0-11.044,4.933-20.373,21.659-20.373
		c16.728,0,20.48,9.757,20.48,21.016v11.152h-29.058v2.681C332.879,54.904,335.13,57.371,343.065,57.371z M332.879,35.389h16.62
		v-2.573c0-4.932-1.501-8.363-7.935-8.363c-6.433,0-8.685,3.431-8.685,8.363V35.389z"/>
	<path style="fill:#302A6E;" d="M399.356,66.056c-2.788,1.179-8.15,2.037-11.473,2.037c-9.543,0-14.368-4.503-14.368-13.832V25.202
		h-7.828V14.801h7.828V1.827l13.082-1.823v14.797H400l-0.858,10.401h-12.546v27.342c0,2.788,1.287,4.611,4.718,4.611
		c1.93,0,4.288-0.429,6.541-1.072L399.356,66.056z"/>
	<g>
		<path style="fill:#302A6E;" d="M394.266,74.931c3.535,0,5.733,2.58,5.733,5.764c0,3.185-2.198,5.765-5.733,5.765
			c-3.535,0-5.765-2.58-5.765-5.765C388.502,77.511,390.732,74.931,394.266,74.931z M394.266,85.186
			c2.898,0,4.395-2.038,4.395-4.491c0-2.452-1.497-4.49-4.395-4.49c-2.93,0-4.427,2.038-4.427,4.49
			C389.84,83.148,391.336,85.186,394.266,85.186z M394.458,81.459h-1.084v1.752h-0.891v-5.287h2.07c1.179,0,1.656,0.51,1.656,1.403
			v0.733c0,0.509-0.159,0.924-0.764,1.241l1.401,1.911h-1.083L394.458,81.459z M394.522,78.752h-1.147v1.879h1.147
			c0.573,0,0.764-0.223,0.764-0.605V79.39C395.286,78.879,395.063,78.752,394.522,78.752z"/>
	</g>
</g>
</svg>
