<?xml version="1.0" encoding="iso-8859-1"?>
<!-- Generator: Adobe Illustrator 17.0.2, SVG Export Plug-In . SVG Version: 6.00 Build 0)  -->
<!DOCTYPE svg PUBLIC "-//W3C//DTD SVG 1.1//EN" "http://www.w3.org/Graphics/SVG/1.1/DTD/svg11.dtd">
<svg version="1.1" id="Comp" xmlns="http://www.w3.org/2000/svg" xmlns:xlink="http://www.w3.org/1999/xlink" x="0px" y="0px"
	 width="200px" height="178px" viewBox="0 0 200 178" style="enable-background:new 0 0 200 178;" xml:space="preserve">
<g>
	<path style="fill:#242424;" d="M35.926,0.11H10c0,0-4.446,1.512-6.667,7.179c0,0-3.333,6.802-3.333,13.604
		C0,27.696,0,177.72,0,177.72h22.593c0,0,6.666-1.512,7.036-7.558c0.372-6.047-0.37-51.016-0.37-51.016l45.925,53.284
		c0,0,3.704,4.91,8.52,5.291c4.815,0.379,32.589,0,32.589,0L60.37,110.076l23.704-29.851h49.999v66.887
		c0,0,1.326,30.777,28.521,30.777c27.502,0,30.37,0,30.37,0s6.296-2.436,6.666-13.017C200,154.29,200,153.539,200,153.539
		l-22.963-0.004c0,0-12.966,0.38-12.966-12.469c0-12.85,0.37-60.841,0.37-60.841s34.076,4.157,35.559-14.36V43.991
		c0,0-7.249,7.607-27.752,7.607l-7.69-0.119l0.116-38.627h-23.993c0,0-5.59,0.595-7.336,7.015v31.851H83.49
		c0,0-13.045-0.716-23.062,12.004c-10.019,12.716-30.403,38.03-30.403,38.03l0.117-81.53C30.141,20.221,29.479,8.167,35.926,0.11z"
		/>
	<path style="fill:#EC1C24;" d="M200,43.279v23.43c0,0-1.234,12.848-23.456,14.61H61.234c0,0-12.099,0.506-21.728,8.819
		l21.728-27.711c0,0,9.382-11.589,23.704-11.589s94.816,0,94.816,0S193.334,51.087,200,43.279z"/>
</g>
</svg>
