<?xml version="1.0" encoding="iso-8859-1"?>
<!-- Generator: Adobe Illustrator 17.0.2, SVG Export Plug-In . SVG Version: 6.00 Build 0)  -->
<!DOCTYPE svg PUBLIC "-//W3C//DTD SVG 1.1//EN" "http://www.w3.org/Graphics/SVG/1.1/DTD/svg11.dtd">
<svg version="1.1" id="Comp" xmlns="http://www.w3.org/2000/svg" xmlns:xlink="http://www.w3.org/1999/xlink" x="0px" y="0px"
	 width="400px" height="74px" viewBox="0 0 400 74" style="enable-background:new 0 0 400 74;" xml:space="preserve">
<g>
	<path style="fill:#00A7F5;" d="M0,1.008h128.415v71.998h-25.507V12.945H95.35v60.061H59.913V12.945h-7.625v60.061H0L0,1.008z"/>
	<path style="fill:#00A7F5;" d="M223.17,0.994h15.332v71.613H223.17V0.994z"/>
	<path style="fill:#00A7F5;" d="M140.719,1.008h72.99v9.73h-55.304v22.789h55.304v7.356h-55.304V62.89h55.304v9.732h-72.99V1.008z"
		/>
	<path style="fill:#00A7F5;" d="M246.676,1.008h70.828l0.008,7.541l-56.745,56.717h56.523v7.646h-70.826v-7.646l57.459-56.611
		h-57.245V1.008L246.676,1.008z"/>
	<path style="fill:#00A7F5;" d="M325.194,1.008h7.29v64.313h60.225V1.008H400V72.62h-74.806V1.008z"/>
</g>
</svg>
