<?xml version="1.0" encoding="iso-8859-1"?>
<!-- Generator: Adobe Illustrator 17.0.2, SVG Export Plug-In . SVG Version: 6.00 Build 0)  -->
<!DOCTYPE svg PUBLIC "-//W3C//DTD SVG 1.1//EN" "http://www.w3.org/Graphics/SVG/1.1/DTD/svg11.dtd">
<svg version="1.1" id="Comp" xmlns="http://www.w3.org/2000/svg" xmlns:xlink="http://www.w3.org/1999/xlink" x="0px" y="0px"
	 width="525px" height="100px" viewBox="0 0 525 100" style="enable-background:new 0 0 525 100;" xml:space="preserve">
<g id="layer1_4_" transform="translate(148.9622,-225.33682)">
	<g id="g3012" transform="translate(109.60155,-54.548234)">
		<g id="g3763">
			<path id="path13" style="fill:#00ADEF;" d="
				M-258.564,294.043l40.742-5.549l0.018,39.298l-40.721,0.232L-258.564,294.043z M-217.842,332.321l0.032,39.333l-40.722-5.599
				l-0.002-33.997L-217.842,332.321z M-212.903,287.769l54.019-7.884v47.408l-54.019,0.429L-212.903,287.769z M-158.871,332.69
				l-0.013,47.195l-54.02-7.624l-0.076-39.658L-158.871,332.69z"/>
			<path id="path3037" style="fill:#00ADEF;" d="
				M-49.307,300.158l-16.686,59.772l-9.91-0.101l-13.019-47.143c0.105-2.463,0.304-0.686,0.304-0.686l-13.151,47.779l-9.922,0.101
				l-17.219-59.697l9.286-0.025l13.228,49.798l-0.269-0.159l13.897-49.645l8.908,0.031l13.214,50.632l-0.235-0.717l12.494-49.89
				L-49.307,300.158z"/>
			<path id="path3039" style="fill:#00ADEF;" d="
				M-41.011,307.247c-1.479,0-2.726-0.491-3.742-1.474c-1.016-0.982-1.523-2.218-1.523-3.708c0-1.468,0.512-2.706,1.535-3.712
				c1.023-1.006,2.267-1.509,3.73-1.509c1.481,0,2.742,0.505,3.784,1.514c1.042,1.01,1.563,2.245,1.563,3.707
				c0,1.416-0.518,2.634-1.555,3.653C-38.256,306.738-39.52,307.248-41.011,307.247z M-37.317,359.944l-8.058-0.063l-0.177-42.613
				l8.285-0.05L-37.317,359.944z"/>
			<path id="path3041" style="fill:#00ADEF;" d="
				M9.018,359.992H0.812v-23.777c0-8.385-2.682-13.157-9.051-13.097c-3.059,0-5.897,1.245-7.94,3.595
				c-2.508,2.884-2.972,4.462-2.995,9.502l-0.107,23.777l-8.313-0.071l0.036-42.612l8.17-0.036l0.071,9.68l-1.186-1.106
				c3.136-5.492,7.361-9.666,14.846-9.666c4.89,0,8.487,1.329,11.076,4.486c2.589,3.157,3.527,8.052,3.527,13.829L9.018,359.992z"/>
			<path id="path3043" style="fill:#00ADEF;" d="
				M56.942,360.688H48.38v-7.133h1.309c-3.116,5.411-8.11,8.116-14.98,8.116c-5.594,0-10.042-1.967-13.346-5.9
				c-3.304-3.933-4.955-9.241-4.955-15.923c0-7.137,1.824-12.886,5.473-17.248c3.649-4.362,8.539-6.543,14.67-6.543
				c6.135,0,10.515,2.269,13.138,6.807H48.38v-25.989h8.563V360.688z M48.38,340.874v-6.19c0-3.169-1.04-5.844-3.119-8.026
				c-2.079-2.182-4.695-3.273-7.848-3.273c-3.784,0-6.776,1.408-8.977,4.224c-2.201,2.816-3.301,6.786-3.301,11.911
				c0,4.667,1.049,8.304,3.147,10.912c2.098,2.608,4.896,3.912,8.394,3.912c3.447,0,6.26-1.261,8.437-3.784
				C47.291,348.037,48.38,344.809,48.38,340.874z"/>
			<path id="path3045" style="fill:#00ADEF;" d="
				M84.842,361.267c-6.489,0-11.666-2.034-15.533-6.101c-3.866-4.067-5.799-9.423-5.799-16.066c0-7.207,2.012-12.866,6.036-16.978
				c4.024-4.111,9.451-6.167,16.281-6.167c6.541,0,11.65,2.003,15.326,6.01c3.676,4.007,5.515,9.501,5.515,16.484
				c0,6.851-1.976,12.366-5.929,16.547C96.787,359.176,91.488,361.267,84.842,361.267L84.842,361.267z M85.336,323.235
				c-4.022,0-7.211,1.367-9.566,4.102c-2.355,2.735-3.533,6.574-3.533,11.518c0,4.759,1.188,8.47,3.563,11.135
				c2.375,2.665,5.554,3.997,9.536,3.997c4.04,0,7.151-1.306,9.334-3.918c2.183-2.612,3.274-6.405,3.274-11.378
				c0-5.02-1.094-8.851-3.281-11.493C92.476,324.557,89.367,323.236,85.336,323.235L85.336,323.235z"/>
			<path id="path3047" style="fill:#00ADEF;" d="
				M170.186,317.142l-12.545,42.815l-8.864,0.05l-9.002-33.133l0.04,0.047l-10.044,33.061h-8.321l-13.215-42.84h8.877l9.095,34.792
				l-0.235,0.354l10.164-35.146h7.736l9.795,36.084l-0.288-1.066l8.331-35.018H170.186z"/>
			
				<path id="path3049" style="fill:#00ADEF;" d="
				M173.233,358.825v-8.539c3.988,2.705,7.845,4.058,11.571,4.058c4.705,0,7.058-1.689,7.058-5.067c0-0.965-0.193-1.781-0.579-2.447
				c-0.386-0.666-0.925-1.272-1.617-1.816c-0.693-0.544-1.57-1.062-2.632-1.553c-1.062-0.491-2.126-0.969-3.192-1.435
				c-1.712-0.765-3.217-1.536-4.514-2.315c-1.298-0.779-2.396-1.674-3.295-2.685c-0.899-1.011-1.579-2.166-2.038-3.464
				c-0.459-1.298-0.689-2.81-0.689-4.536c0-2.118,0.429-3.988,1.286-5.61c0.858-1.622,1.999-2.979,3.424-4.071
				c1.425-1.092,3.045-1.914,4.858-2.464c1.813-0.55,3.66-0.826,5.539-0.826c3.342,0,6.507,0.737,9.496,2.211v8.152
				c-3.481-2.022-6.914-3.034-10.297-3.034c-1.026,0-1.944,0.13-2.756,0.389c-0.812,0.26-1.5,0.617-2.064,1.071
				c-0.564,0.455-0.993,0.983-1.286,1.586c-0.294,0.603-0.44,1.276-0.44,2.02c0,0.976,0.149,1.774,0.446,2.396
				c0.297,0.622,0.753,1.192,1.365,1.709c0.613,0.517,1.38,0.996,2.301,1.435c0.921,0.439,1.999,0.932,3.234,1.479
				c1.769,0.763,3.314,1.523,4.634,2.279c1.32,0.756,2.475,1.639,3.465,2.648c0.99,1.009,1.756,2.184,2.298,3.524
				c0.542,1.34,0.813,2.906,0.813,4.701c0,2.204-0.442,4.137-1.327,5.799c-0.885,1.663-2.05,3.031-3.496,4.106
				c-1.446,1.075-3.091,1.867-4.935,2.378c-1.844,0.51-3.785,0.766-5.824,0.766C180.047,361.67,176.445,360.722,173.233,358.825z"/>
			
				<path id="path3051_1_" style="fill:#00ADEF;" d="
				M225.947,343.455c0-1.662,0.254-3.305,0.763-4.931c0.509-1.625,1.243-3.155,2.204-4.588c0.961-1.434,2.154-2.741,3.578-3.921
				c1.425-1.18,2.864-1.909,4.317-2.186c-2.385-0.932-4.368-2.569-5.948-4.912c-1.581-2.343-2.371-4.952-2.371-7.828
				c0-2.277,0.439-4.38,1.317-6.31c0.878-1.93,2.094-3.601,3.649-5.012c1.555-1.411,3.409-2.516,5.562-3.316
				c2.153-0.799,4.457-1.199,6.911-1.199c2.472,0,4.785,0.408,6.94,1.223c2.155,0.815,4.009,1.927,5.562,3.335
				c1.553,1.408,2.764,3.083,3.633,5.025c0.869,1.941,1.304,4.026,1.304,6.254c0,2.864-0.793,5.47-2.379,7.819
				c-1.586,2.349-3.54,3.987-5.862,4.914c1.428,0.284,2.842,1.011,4.242,2.182c1.4,1.171,2.583,2.477,3.55,3.918
				c0.967,1.441,1.707,2.982,2.22,4.621c0.513,1.639,0.769,3.277,0.77,4.912c0,2.663-0.488,5.116-1.465,7.358
				c-0.976,2.242-2.353,4.164-4.129,5.766c-1.776,1.602-3.882,2.844-6.318,3.727c-2.436,0.883-5.125,1.325-8.068,1.325
				c-2.928,0-5.603-0.442-8.023-1.325c-2.42-0.883-4.525-2.126-6.314-3.727c-1.789-1.602-3.177-3.518-4.164-5.75
				C226.44,348.598,225.947,346.14,225.947,343.455L225.947,343.455z M235.081,342.88c0,1.763,0.26,3.329,0.779,4.698
				c0.519,1.369,1.248,2.529,2.187,3.48c0.939,0.951,2.074,1.681,3.405,2.191c1.331,0.51,2.836,0.764,4.515,0.764
				c1.603,0,3.068-0.263,4.396-0.789c1.328-0.526,2.472-1.263,3.432-2.211c0.96-0.948,1.716-2.115,2.269-3.503
				c0.553-1.387,0.83-2.931,0.83-4.631c0-1.528-0.262-2.963-0.786-4.305c-0.524-1.342-1.269-2.521-2.233-3.537
				c-0.964-1.016-2.109-1.811-3.435-2.387c-1.326-0.576-2.817-0.864-4.473-0.864c-1.549,0-2.985,0.271-4.309,0.813
				c-1.324,0.542-2.471,1.298-3.44,2.268c-0.969,0.97-1.735,2.136-2.295,3.497C235.362,339.728,235.081,341.233,235.081,342.88
				L235.081,342.88z M237.172,315.622c0,1.312,0.229,2.506,0.687,3.582c0.458,1.077,1.096,2.024,1.914,2.843
				c0.818,0.819,1.749,1.453,2.795,1.902c1.045,0.449,2.178,0.674,3.399,0.674c1.211,0,2.349-0.233,3.415-0.699
				c1.066-0.466,1.997-1.103,2.792-1.911c0.795-0.808,1.432-1.761,1.911-2.857c0.479-1.097,0.719-2.275,0.719-3.534
				c0-1.32-0.23-2.527-0.691-3.62c-0.461-1.093-1.094-2.042-1.9-2.848c-0.806-0.806-1.743-1.436-2.813-1.892
				c-1.07-0.455-2.214-0.683-3.433-0.683c-1.307,0-2.498,0.235-3.573,0.706c-1.076,0.47-2.002,1.106-2.778,1.906
				c-0.776,0.801-1.377,1.752-1.804,2.856C237.385,313.15,237.172,314.342,237.172,315.622z"/>
		</g>
	</g>
</g>
</svg>
