<?xml version="1.0" encoding="iso-8859-1"?>
<!-- Generator: Adobe Illustrator 17.0.2, SVG Export Plug-In . SVG Version: 6.00 Build 0)  -->
<!DOCTYPE svg PUBLIC "-//W3C//DTD SVG 1.1//EN" "http://www.w3.org/Graphics/SVG/1.1/DTD/svg11.dtd">
<svg version="1.1" id="Comp" xmlns="http://www.w3.org/2000/svg" xmlns:xlink="http://www.w3.org/1999/xlink" x="0px" y="0px"
	 width="340px" height="225px" viewBox="0 0 340 225" style="enable-background:new 0 0 340 225;" xml:space="preserve">
<g>
	<path style="fill:#0E7DC2;" d="M161.505,200.265c-67.185,6.198-137.211-3.564-147.02-56.07c-4.798-25.883,7.009-53.33,22.651-70.39
		v-9.11C8.959,89.408-6.312,120.678,2.484,157.615c11.236,47.377,71.319,74.206,163.056,65.297
		c36.311-3.519,83.798-15.194,116.833-33.34v-25.759C252.39,181.677,202.809,196.433,161.505,200.265z M338.493,64.08
		C322.557-13.725,171.489-18.657,74.108,40.62v6.547C171.377-2.84,309.35-2.536,321.911,69.136c4.215,23.709-9.141,48.41-33,62.632
		v18.597C317.613,139.838,347.053,105.788,338.493,64.08z"/>
	<path style="fill:#0E7DC2;" d="M276.941,52.75h-17.615v78.456c0,9.195,4.445,17.19,17.615,18.468V52.75z"/>
	<path style="fill:#0E7DC2;" d="M67.191,81.396H49.543l-0.009,51.258c0,9.227,4.459,17.214,17.657,18.468V81.396z"/>
	<rect x="49.543" y="55.136" style="fill:#0E7DC2;" width="17.593" height="16.698"/>
	<path style="fill:#0E7DC2;" d="M172.687,150.31c-14.258,0-20.292-9.909-20.292-19.672V62.579h17.462v18.816h13.151V95.5h-13.151
		v34.059c0,3.98,1.89,6.198,6.04,6.198h7.111v14.553H172.687"/>
	<path style="fill:#0E7DC2;" d="M204.819,121.314c0,8.937,5.589,15.503,15.475,15.503c7.747,0,11.566-2.149,16.038-6.567
		l10.791,10.278c-6.918,6.834-14.167,10.989-26.958,10.989c-16.711,0-32.723-9.121-32.723-35.71
		c0-22.732,13.992-35.581,32.335-35.581c18.648,0,29.365,15.043,29.365,34.789v6.299H204.819 M219.013,94.67
		c-5.977,0-10.569,3.078-12.516,7.231c-1.134,2.496-1.549,4.441-1.678,7.507h26.912C231.391,101.9,227.987,94.67,219.013,94.67z"/>
	<path style="fill:#0E7DC2;" d="M114.619,95.5c5.121,0,7.249,2.531,7.249,6.64v48.272h17.466v-48.373
		c0-9.802-5.222-20.625-20.56-20.625l-36.079-0.018v69.016h17.473V95.5H114.619z"/>
	<g>
		<path style="fill:#0E7DC2;" d="M295.894,66.769c-3.883,0-6.983-3.132-6.983-7.01c0-3.86,3.1-7.009,6.983-7.009
			c3.864,0,7.037,3.15,7.037,7.009C302.931,63.637,299.758,66.769,295.894,66.769z M295.894,53.919c-3.2,0-5.774,2.645-5.774,5.84
			c0,3.214,2.574,5.813,5.774,5.813c3.2,0,5.856-2.598,5.856-5.813C301.75,56.564,299.094,53.919,295.894,53.919z M299.002,63.96
			h-1.31c-0.119,0-0.221-0.074-0.267-0.175l-1.771-3.011c-0.055-0.064-0.203-0.138-0.249-0.138c0,0-0.295,0-0.516,0
			c-0.129,0-0.25,0-0.295,0v3.002c0,0.148-0.102,0.323-0.295,0.323h-1.181c-0.175,0-0.295-0.175-0.295-0.323v-7.572
			c0-0.443,0.147-0.625,0.535-0.68c0.424-0.046,1.531-0.101,2.149-0.101c2.185,0,3.468,0.644,3.468,2.67v0.148
			c0,1.252-0.618,1.934-1.577,2.238l1.844,3.14c0.027,0.046,0.046,0.157,0.046,0.222C299.288,63.822,299.223,63.96,299.002,63.96z
			 M297.305,57.954c0-0.846-0.526-1.113-1.651-1.113c-0.147,0-0.516,0-0.812,0c-0.129,0-0.248,0-0.304,0v2.402
			c0.176,0,0.969,0.037,1.116,0.037c1.125,0,1.651-0.375,1.651-1.178V57.954z"/>
	</g>
</g>
</svg>
