<?xml version="1.0" encoding="iso-8859-1"?>
<!-- Generator: Adobe Illustrator 17.0.2, SVG Export Plug-In . SVG Version: 6.00 Build 0)  -->
<!DOCTYPE svg PUBLIC "-//W3C//DTD SVG 1.1//EN" "http://www.w3.org/Graphics/SVG/1.1/DTD/svg11.dtd">
<svg version="1.1" id="Comp" xmlns="http://www.w3.org/2000/svg" xmlns:xlink="http://www.w3.org/1999/xlink" x="0px" y="0px"
	 width="360px" height="197px" viewBox="0 0 360 197" style="enable-background:new 0 0 360 197;" xml:space="preserve">
<g id="layer1" transform="translate(-281.04044,-630.11384)">
	<path id="path4265" style="fill:#D91920;" d="M574.083,757.831
		c-3.399,3.402-8.908,3.402-12.319,0c-3.279-3.277-6.158-6.166-6.158-6.166l9.315-9.318l-11.716-11.713l-9.318,9.324l-9.324-9.324
		l-11.719,11.713l9.324,9.318c0,0-2.89,2.89-6.161,6.166c-3.405,3.402-8.928,3.402-12.327,0c-3.402-3.399-3.402-8.923,0-12.321
		c3.578-3.572,30.078-30.329,30.078-30.329s26.751,26.756,30.323,30.329C577.49,748.908,577.49,754.432,574.083,757.831
		L574.083,757.831z M513.681,661.671c-3.402-3.402-3.402-8.923,0-12.321c3.399-3.405,8.923-3.405,12.327,0
		c3.271,3.277,6.161,6.161,6.161,6.161l-9.324,9.324l11.719,11.707l9.324-9.318l9.318,9.318l11.716-11.707l-9.315-9.324
		c0,0,2.878-2.884,6.158-6.161c3.41-3.405,8.92-3.405,12.319,0c3.407,3.399,3.407,8.92,0,12.321
		c-3.572,3.57-30.323,30.326-30.323,30.326S517.259,665.24,513.681,661.671L513.681,661.671z M555.595,703.59
		c0,0,27.465-27.456,30.206-30.201c9.875-9.881,9.875-25.883,0-35.761c-9.867-9.873-25.88-9.873-35.753,0
		c-3.88,3.874-6.161,6.161-6.161,6.161s-2.292-2.287-6.161-6.161c-9.884-9.873-25.886-9.873-35.764,0
		c-9.875,9.878-9.875,25.88,0,35.761c2.745,2.745,30.206,30.201,30.206,30.201s-27.462,27.462-30.206,30.201
		c-9.875,9.875-9.875,25.883,0,35.759c9.878,9.875,25.88,9.875,35.764,0c3.868-3.871,6.161-6.166,6.161-6.166
		s2.281,2.295,6.161,6.166c9.873,9.875,25.886,9.875,35.753,0c9.875-9.875,9.875-25.883,0-35.759
		C583.059,731.052,555.595,703.59,555.595,703.59z M621.918,709.751c-3.402,3.399-8.923,3.399-12.327,0
		c-2.765-2.767-6.161-6.161-6.161-6.161s3.396-3.396,6.161-6.161c3.405-3.405,8.925-3.405,12.327,0
		c1.701,1.701,2.551,3.928,2.551,6.161S623.619,708.05,621.918,709.751z M633.637,685.711c-9.878-9.881-25.892-9.881-35.764,0
		c-2.827,2.83-6.161,6.161-6.161,6.161l-9.321-9.315l-11.713,11.71l9.324,9.324l-9.324,9.318l11.713,11.713l9.321-9.318
		c0,0,3.333,3.336,6.161,6.167c9.873,9.873,25.886,9.873,35.764,0c4.935-4.938,7.404-11.406,7.404-17.879
		C641.04,697.114,638.572,690.649,633.637,685.711L633.637,685.711z M477.928,709.751c-3.407,3.399-8.928,3.399-12.327,0
		c-1.701-1.701-2.546-3.928-2.546-6.161s0.845-4.46,2.546-6.161c3.399-3.405,8.92-3.405,12.327,0
		c2.765,2.765,6.161,6.161,6.161,6.161S480.693,706.983,477.928,709.751z M505.126,724.621l11.719-11.713l-9.329-9.318l9.329-9.324
		l-11.719-11.71l-9.318,9.315c0,0-3.331-3.331-6.161-6.161c-9.875-9.881-25.892-9.881-35.764,0
		c-4.935,4.938-7.404,11.403-7.404,17.879c0,6.474,2.469,12.942,7.404,17.879c9.873,9.873,25.889,9.873,35.764,0
		c2.83-2.83,6.161-6.167,6.161-6.167L505.126,724.621"/>
	<path id="path4267" style="fill:#231F20;" d="M409.367,777.385
		c-1.55,1.635-3.584,2.42-6.064,2.42c-2.341,0-4.284-0.839-5.825-2.506c-1.508-1.664-2.256-3.823-2.256-6.488
		c0-2.458,0.765-4.542,2.304-6.243c1.564-1.681,3.49-2.48,5.819-2.48c2.483,0,4.471,0.799,6.021,2.469
		c1.539,1.672,2.298,3.831,2.298,6.402C411.665,773.554,410.905,775.696,409.367,777.385L409.367,777.385z M411.272,756.992v3.245
		c-2.696-2.654-5.751-3.976-9.173-3.976c-3.939,0-7.224,1.399-9.847,4.147c-2.622,2.782-3.939,6.289-3.939,10.467
		c0,4.201,1.317,7.771,3.939,10.578c2.651,2.799,5.982,4.175,10.043,4.175c3.225,0,6.201-1.226,8.977-3.746v2.93h6.823v-27.82
		H411.272"/>
	<path id="path4269" style="fill:#231F20;" d="M317.479,744.406h7.062v15.803
		c0,0,2.637-3.646,8.123-3.646c5.083,0,9.705,3.379,9.705,11.886v16.534h-6.437v-17c0-2.918-1.177-6.61-5.35-6.61
		c-3.973,0-6.019,2.981-6.041,6.61v17h-7.062L317.479,744.406"/>
	<path id="path4271" style="fill:#231F20;" d="M314.933,778.054
		c-1.567,2.221-3.527,4.002-5.942,5.367c-2.847,1.616-6.041,2.446-9.491,2.446c-5.1,0-9.443-1.82-13.05-5.393
		c-3.609-3.584-5.41-7.91-5.41-13.05c0-5.489,2.034-10.075,6.11-13.704c3.575-3.217,7.68-4.801,12.319-4.801
		c3.356,0,6.499,0.822,9.463,2.486c2.429,1.38,4.434,3.134,5.99,5.327l-6.058,4.346c-0.427-1.041-1.044-1.934-1.755-2.785
		c-2.017-2.324-4.574-3.487-7.717-3.487c-3.052,0-5.589,1.163-7.634,3.541c-2.022,2.358-3.035,5.367-3.035,9.045
		c0,3.803,1.001,6.84,3.018,9.207c1.991,2.338,4.531,3.501,7.626,3.501c3.078,0,5.632-1.178,7.682-3.57
		c0.754-0.853,1.362-1.806,1.815-2.85C308.863,773.682,313.366,776.922,314.933,778.054"/>
	<path id="path4273" style="fill:#231F20;" d="M375.286,756.562
		c-6.724-0.097-8.906,3.646-8.906,3.646l-0.333-3.279h-6.064v28.016h7.028v-16.997c0.037-3.595,2.113-6.607,6.061-6.607
		c4.187,0,5.393,3.712,5.393,6.607v16.997h6.522v-16.497C384.988,759.916,380.343,756.594,375.286,756.562"/>
	<path id="path4275" style="fill:#D91920;" d="M347.668,784.946h6.59v-28.107h-6.59V784.946z"/>
	<path id="path4277" style="fill:#D91920;" d="M350.916,753.985c-2.29,0-3.814-1.695-3.814-3.709
		c0-2.162,1.593-3.774,3.874-3.774c2.358,0,3.82,1.613,3.88,3.774c0,2.014-1.522,3.709-3.88,3.709H350.916"/>
	<path id="path4279" style="fill:#D91920;" d="M350.916,795.37c-2.29,0-3.814-1.661-3.814-3.672
		c0-2.156,1.593-3.789,3.874-3.789c2.358,0,3.82,1.633,3.88,3.789c0,2.011-1.522,3.672-3.88,3.672H350.916"/>
	<path id="path4281" style="fill:#231F20;" d="M450.771,798.075
		c-4.181-0.094-7.079,1.63-9.534,4.346c-1.658-3.009-4.403-4.266-7.29-4.346c-5.919-0.148-8.513,3.615-8.513,3.615l-0.23-3.393
		h-6.368v28.019h7.094v-16.915c0.026-3.595,1.909-6.545,5.569-6.545c3.82,0,4.923,3.675,4.923,6.582v16.878h6.434v-16.54v0.034
		c0.016-4.704,2.213-6.954,5.464-6.954c3.834,0,4.921,3.675,4.921,6.582v16.878h6.437v-16.414
		C459.677,801.425,455.41,798.186,450.771,798.075"/>
	<path id="path4283" style="fill:#D91920;" d="M347.668,826.316h6.59v-28.019h-6.59V826.316z"/>
	<path id="path4285" style="fill:#231F20;" d="M401.371,802.555c-2.255,0-4.127,0.922-5.612,2.733
		c-1.49,1.829-2.25,4.175-2.25,7.028c0,2.907,0.742,5.296,2.221,7.099c1.488,1.809,3.334,2.716,5.609,2.716
		c2.275,0,4.138-0.907,5.637-2.745c1.519-1.832,2.25-4.198,2.25-7.071c0-2.878-0.731-5.225-2.207-7.06
		C405.547,803.476,403.675,802.555,401.371,802.555z M400.859,797.659c2.628,0,5.097,0.677,7.395,1.98
		c2.318,1.323,4.127,3.109,5.41,5.325c1.308,2.273,1.96,4.704,1.96,7.284c0,2.617-0.651,5.106-1.974,7.387
		c-1.291,2.281-3.072,4.076-5.322,5.336c-2.256,1.32-4.741,1.937-7.435,1.937c-4.013,0-7.415-1.408-10.239-4.252
		c-2.833-2.822-4.224-6.272-4.224-10.339c0-4.338,1.604-7.973,4.77-10.86C394.022,798.939,397.219,797.659,400.859,797.659"/>
	<path id="path4287" style="fill:#231F20;" d="M332.664,797.927
		c-6.681-0.085-8.888,3.626-8.888,3.626l-0.338-3.257h-6.064v28.019h7.054v-16.975c0.016-3.612,2.082-6.593,6.056-6.593
		c4.158,0,5.359,3.675,5.359,6.593v16.975h6.528v-16.474C342.369,801.3,337.747,798.015,332.664,797.927"/>
	<path id="path4289" style="fill:#231F20;" d="M296.459,826.691c6.71,0.091,8.9-3.646,8.9-3.646
		l0.338,3.271h6.07v-28.019h-7.042v16.978c-0.028,3.615-2.076,6.61-6.058,6.61c-4.173,0-5.822-3.698-5.822-6.61v-16.978h-7.042
		v16.48C285.802,823.315,291.391,826.629,296.459,826.691"/>
	<path id="path4291" style="fill:#231F20;" d="M385.913,820.824
		c-1.249,1.761-2.813,3.186-4.713,4.241c-2.27,1.305-4.796,1.92-7.543,1.92c-4.019,0-7.463-1.391-10.348-4.232
		c-2.864-2.858-4.272-6.303-4.272-10.37c0-4.329,1.613-7.944,4.852-10.857c2.816-2.52,6.064-3.783,9.756-3.783
		c2.648,0,5.142,0.643,7.495,1.963c1.926,1.086,3.516,2.486,4.747,4.207l-5.242,3.769c-0.333-0.754-0.759-1.445-1.291-2.048
		c-1.451-1.752-3.308-2.625-5.563-2.625c-2.221,0-4.042,0.905-5.529,2.625c-1.459,1.755-2.207,4.005-2.207,6.75
		c0,2.807,0.748,5.111,2.19,6.832c1.451,1.755,3.291,2.605,5.521,2.605c2.216,0,4.067-0.851,5.546-2.637
		c0.555-0.634,1.001-1.334,1.334-2.122L385.913,820.824"/>
	<path id="path4293" style="fill:#231F20;" d="M593.617,798.928
		c-2.634-3.476-5.339-5.37-5.339-5.37l-2.637,1.9l4.429,6.067L593.617,798.928L593.617,798.928z M610.08,804.247h5.307v2.261h-5.307
		V804.247z M615.388,811.998h-5.307v-2.264h5.307V811.998z M605.507,806.508h-5.305v-2.261h5.305V806.508z M605.507,811.998h-5.305
		v-2.264h5.305V811.998z M607.071,799.596c-2.173-1.476-4.605-2.603-4.605-2.603l-1.812,2.312l1.818,1.581h-6.843v20.135h1.411
		c1.436,0,3.163-0.964,3.163-3.026v-2.773h5.305v5.8h1.411c1.786,0,3.035-0.893,3.163-3.035v-2.765h5.307v1.351
		c0,0.671-0.734,1.095-1.34,1.095h-2.125l0.961,3.353h3.308c2.224,0,4.025-1.798,4.025-4.025v-13.354
		c0-1.519-1.232-2.756-2.745-2.756h-5.325l7-4.224v-3.857h-23.778v3.356h17.384L607.071,799.596L607.071,799.596z M595.045,822.593
		c-1.203,0-2.179-0.973-2.179-2.179v-17.384h-7.563v3.356h2.517v15.356c0,2.617,2.304,4.207,4.067,4.207h28.853v-3.356H595.045"/>
	<path id="path4295" style="fill:#231F20;" d="M575.215,811.52h5.794v-3.359h-6.494v-5.16h6.494
		v-3.353h-4.212l3.851-4.807l-3.646-2.617l-4.81,7.424h-3.439l2.805-2.022c-2.429-3.345-4.457-5.39-4.457-5.39l-2.691,1.584
		l3.445,5.828h-4.218v3.353h5.583v5.16h-5.583v3.359h4.966l-5.876,15.066h2.529c1.334,0,2.696-0.922,3.248-2.13l3.587-8.988
		l4.966,11.118h4.912L575.215,811.52L575.215,811.52z M556.727,808.983h-4.079v-4.138h4.079V808.983z M556.716,816.429l-4.067,1.138
		v-5.236h4.079L556.716,816.429z M563.786,814.444l-2.273,0.637v-18.798c0-2.068-1.257-3.359-2.83-3.359h-11.96v3.359h10.003v5.208
		h-4.079v-3.456h-4.537v20.803l-2.002,0.572v3.777l10.606-2.981v6.798h1.883c1.567,0,2.563-0.936,2.915-2.725v-5.41l2.273-0.64
		V814.444"/>
	<path id="path4297" style="fill:#231F20;" d="M495.344,811.801c0,1.206-0.976,2.17-2.167,2.17
		h-6.769v-13.698h8.937L495.344,811.801L495.344,811.801z M497.443,796.914h-11.036v-4.679h-5.72v4.679h-7.185v3.359h7.185v13.698
		h-8.942v-17.057h-5.726v20.416h14.668v9.673h0.93c3.211-0.097,4.662-1.519,4.79-3.959v-5.714h9.705c2.671,0,4.85-2.108,4.96-4.753
		v-12.23C500.962,798.436,499.38,796.914,497.443,796.914"/>
	<path id="path4299" style="fill:#231F20;" d="M533.708,815.994h-2.54l1.672-2.073
		c-2.278-2.051-3.982-3.152-3.982-3.152l-2.059,2.054l2.884,3.171h-3.891v-5.62h7.776v-3.353h-7.776v-4.17h7.776v-3.348H513.44
		v3.348h7.062v4.17h-7.062v3.353h7.062v5.62h-7.196v3.359h20.402V815.994z M537.118,792.807h-23.812v3.356h22.163v24.353
		c0,1.2-0.976,2.173-2.179,2.173h-21.745v-29.882h-5.293v33.241h29.72c2.648,0,4.793-2.142,4.793-4.79v-24.822
		C540.76,794.431,539.126,792.807,537.118,792.807"/>
</g>
</svg>
