<?xml version="1.0" encoding="iso-8859-1"?>
<!-- Generator: Adobe Illustrator 17.0.2, SVG Export Plug-In . SVG Version: 6.00 Build 0)  -->
<!DOCTYPE svg PUBLIC "-//W3C//DTD SVG 1.1//EN" "http://www.w3.org/Graphics/SVG/1.1/DTD/svg11.dtd">
<svg version="1.1" id="Comp" xmlns="http://www.w3.org/2000/svg" xmlns:xlink="http://www.w3.org/1999/xlink" x="0px" y="0px"
	 width="360px" height="144px" viewBox="0 0 360 144" style="enable-background:new 0 0 360 144;" xml:space="preserve">
<path style="fill:#1F70C1;" d="M0,0v9.852h70.073V0H0z M80.002,0v9.852h99.858c0,0-10.2-9.852-23.709-9.852H80.002z M199.448,0
	v9.852h60.412L256.275,0H199.448z M303.173,0l-3.586,9.852h59.864V0H303.173z M0,19.16v9.852h70.073V19.16H0z M80.002,19.174v9.838
	h111.445c0,0-1.302-7.583-3.572-9.838H80.002z M199.448,19.174v9.838h67.036l-3.319-9.838H199.448z M296.002,19.174l-3.319,9.838
	h66.769v-9.838H296.002z M20.137,38.32v9.866h30.347V38.32H20.137z M100.139,38.32v9.866h30.347V38.32H100.139z M160.003,38.32
	v9.866h30.347c0,0,1.927-5.21,1.927-9.866H160.003z M219.586,38.32v9.866h53.803l-3.586-9.866H219.586z M289.392,38.32l-3.6,9.866
	h54.07V38.32H289.392z M20.137,57.494v9.852h30.347v-9.852H20.137z M100.139,57.494v9.852h77.513c0,0,6.484-5.055,8.55-9.852
	H100.139z M219.586,57.494v9.852h30.347v-5.484l1.927,5.484h55.589l2.067-5.484v5.484h30.347v-9.852h-56.967l-3.023,8.345
	l-3.038-8.345H219.586z M20.137,76.654v9.852h30.347v-9.852H20.137z M100.139,76.654v9.852h86.063
	c-2.066-4.781-8.55-9.852-8.55-9.852H100.139z M219.586,76.654v9.852h30.347v-9.852H219.586z M255.445,76.654l3.67,9.852h41.681
	l3.487-9.852H255.445z M309.516,76.654v9.852h30.347v-9.852H309.516z M20.137,95.814v9.852h30.347v-9.852H20.137z M100.139,95.814
	v9.852h30.347v-9.852H100.139z M160.003,95.814v9.852h32.273c0-4.65-1.927-9.852-1.927-9.852H160.003z M219.586,95.814v9.852h30.347
	v-9.852H219.586z M262.336,95.814l3.558,9.852h27.942l3.586-9.852H262.336z M309.516,95.814v9.852h30.347v-9.852H309.516z
	 M0.548,114.974v9.866h70.073v-9.866H0.548z M80.002,114.974v9.866h107.873c2.27-2.259,3.572-9.866,3.572-9.866H80.002z
	 M199.997,114.974v9.866h49.936v-9.866H199.997z M269.241,114.974l3.656,9.866h14.217l3.431-9.866H269.241z M309.516,114.974v9.866
	H360v-9.866H309.516z M0.548,134.148V144h70.073v-9.852H0.548z M80.002,134.148v9.838h76.148c13.509,0,23.709-9.838,23.709-9.838
	H80.002z M199.997,134.148V144h49.936v-9.852H199.997z M276.173,134.148l3.516,9.824l0.605,0.014l3.572-9.838H276.173z
	 M309.516,134.148V144H360v-9.852H309.516z"/>
</svg>
