<?xml version="1.0" encoding="iso-8859-1"?>
<!-- Generator: Adobe Illustrator 17.0.2, SVG Export Plug-In . SVG Version: 6.00 Build 0)  -->
<!DOCTYPE svg PUBLIC "-//W3C//DTD SVG 1.1//EN" "http://www.w3.org/Graphics/SVG/1.1/DTD/svg11.dtd">
<svg version="1.1" id="Comp" xmlns="http://www.w3.org/2000/svg" xmlns:xlink="http://www.w3.org/1999/xlink" x="0px" y="0px"
	 width="400px" height="66px" viewBox="0 0 400 66" style="enable-background:new 0 0 400 66;" xml:space="preserve">
<g id="layer1_2_" transform="translate(47.559,-431.0459)">
	
		<path id="path5" style="fill-rule:evenodd;clip-rule:evenodd;fill:#003D7B;" d="
		M-29.143,431.225h25.837c-6.138,21.37-12.277,42.74-18.414,64.111h-25.839L-29.143,431.225z M-11.3,480.734l0.58,1.26
		c-0.029,5.42,2.797,14.637,27.615,14.873c0,0,21.99-0.759,28.392-4.338l4.775-11.791l0.087-0.214c0,0-0.124,0.069-0.362,0.202
		l0.276,0.013h-0.276c-2.655,1.434-19.4,10.13-32.967,6.907c0,0-3.991-0.672-3.991-4.304l0.231-1.283l5.599-1.32l39.93-9.409
		c0,0,9.719-21.201-27.368-20.69c-37.085,0.511-41.94,24.008-42.454,28.865C-11.271,479.872-11.296,480.284-11.3,480.734z
		 M87.72,480.737l6.554-21.782c0,0,15.691-2.249,13.637,5.84l-4.642,15.942l-4.252,14.599h26.041l4.358-14.599l4.853-16.257
		c0,0,3.162-8.881-7.944-11.09c0,0-12.054-3.315-28.73-2.369c-16.675,0.947-28.572,3.158-28.572,3.158l-7.88,26.558l0,0
		l-4.331,14.599h26.517L87.72,480.737L87.72,480.737z M134.493,480.737c-0.016-2.968,0.881-5.167,0.881-5.167
		s2.568-23.286,40.665-24.706c38.094-1.42,34.143,18.864,34.143,18.864s-0.355,5.18-4.501,11.003
		c-5.058,7.106-15.769,15.168-38.377,15.947C139.023,497.655,134.537,487.313,134.493,480.737L134.493,480.737z M180.199,480.737
		c2.7-5.159,3.15-11.009,3.15-11.009c0.631-3.791,1.738-10.773-7.31-10.933c-9.051-0.156-11.106,8.879-11.106,8.879l-2.566,7.581
		c-0.547,2.168-0.778,3.979-0.778,5.495c0.006,8.218,6.823,7.682,6.823,7.682C174.413,488.57,178.031,484.88,180.199,480.737
		L180.199,480.737z M216,480.737l-3.449-28.453h23.949l3.489,28.453l0.186,1.5l1.04-1.5l19.746-28.453h24.934l-19.404,28.453
		l-9.957,14.599H217.77L216,480.737L216,480.737z M276.64,480.737c-0.019-2.968,0.879-5.167,0.879-5.167s2.567-23.286,40.662-24.706
		c38.094-1.42,34.143,18.864,34.143,18.864s-0.35,5.18-4.5,11.003c-5.06,7.106-15.768,15.168-38.378,15.947
		C281.164,497.655,276.68,487.313,276.64,480.737L276.64,480.737z M322.341,480.737c2.704-5.159,3.151-11.009,3.151-11.009
		c0.633-3.791,1.742-10.773-7.31-10.933c-9.049-0.156-11.104,8.879-11.104,8.879l-2.568,7.581c-0.548,2.168-0.778,3.979-0.774,5.495
		c0.003,8.218,6.818,7.682,6.818,7.682C316.556,488.57,320.172,484.88,322.341,480.737L322.341,480.737z M13.619,478.922
		l23.988-12.075c0,0,2.369-9.353-8.577-9.195c-10.945,0.157-12.565,9.863-12.565,9.863L13.619,478.922z"/>
</g>
</svg>
