<?xml version="1.0" encoding="iso-8859-1"?>
<!-- Generator: Adobe Illustrator 17.0.2, SVG Export Plug-In . SVG Version: 6.00 Build 0)  -->
<!DOCTYPE svg PUBLIC "-//W3C//DTD SVG 1.1//EN" "http://www.w3.org/Graphics/SVG/1.1/DTD/svg11.dtd">
<svg version="1.1" id="Comp" xmlns="http://www.w3.org/2000/svg" xmlns:xlink="http://www.w3.org/1999/xlink" x="0px" y="0px"
	 width="400px" height="110px" viewBox="0 0 400 110" style="enable-background:new 0 0 400 110;" xml:space="preserve">
<g>
	<path style="fill:#FD6512;" d="M42.822,86.302c23.654,0,42.822-19.171,42.822-42.822S66.475,0.659,42.822,0.659
		C19.173,0.659,0,19.833,0,43.481S19.173,86.302,42.822,86.302z M35.2,20.556c0-0.895,0.723-1.621,1.618-1.621h12.014
		c0.892,0,1.618,0.728,1.618,1.621v15.303h15.303c0.892,0,1.615,0.723,1.615,1.618V49.49c0,0.892-0.723,1.621-1.615,1.621H50.446
		v15.3c0,0.892-0.726,1.621-1.618,1.621H36.815c-0.895,0-1.618-0.728-1.618-1.621V51.106H19.896c-0.892,0-1.615-0.728-1.615-1.621
		V37.471c0-0.895,0.723-1.618,1.615-1.618H35.2V20.556z"/>
	<g>
		<path style="fill:#4A3F2D;" d="M98.025,69.733c3.346,2.591,7.229,4.964,12.409,4.964c7.88,0,9.931-4.752,9.931-11.008V8.873h8.525
			v44.671c0,3.889,0,8.098-0.218,11.981c-0.433,10.358-5.717,16.405-17.913,16.405c-8.415,0-14.567-3.454-17.05-6.149L98.025,69.733
			z"/>
		<path style="fill:#4A3F2D;" d="M165.471,25.487c7.447,0,22.122,2.376,22.122,26.763c0,21.044-10.465,29.894-23.955,29.894
			c-13.707,0-22.122-9.283-22.122-28.706C141.514,31.099,154.788,25.487,165.471,25.487z M179.068,54.086
			c0-12.946-3.776-22.012-14.244-22.012c-10.251,0-14.895,8.633-14.895,20.289c0,10.683,2.158,23.304,14.459,23.304
			C174.641,75.665,179.068,65.85,179.068,54.086z"/>
		<path style="fill-rule:evenodd;clip-rule:evenodd;fill:#4A3F2D;" d="M239.281,78.471V27h-8.203v32.16
			c0,7.447-4.969,12.624-13.161,12.624c-11.438,0-12.194-6.26-12.194-14.462V27h-8.418v32.59c0,12.301,5.934,16.728,15.112,17.695
			c-5.292,3.454-11.871,9.716-11.871,18.456c0,8.307,5.289,13.599,16.292,13.599c11.438,0,18.346-5.507,21.044-15.972
			C238.851,89.59,239.281,83.22,239.281,78.471z M217.699,102.858c9.815,0,13.271-8.525,13.271-20.283v-9.391
			c-12.949,5.397-22.337,11.224-22.337,21.474C208.634,99.945,211.762,102.858,217.699,102.858z"/>
		<path style="fill-rule:evenodd;clip-rule:evenodd;fill:#4A3F2D;" d="M274.024,25.487c-16.402,0-25.027,13.161-25.027,29.136
			c0,16.077,7.117,27.518,23.955,27.518c8.63,0,14.889-3.886,17.588-6.152l-3.236-5.504c-2.051,1.51-6.585,4.967-13.814,4.967
			c-11.438,0-15.755-9.28-16.187-18.131c0.865,0,1.728,0.11,2.808,0.11c10.468,0,29.674-2.591,29.674-18.561
			C289.781,30.884,284.062,25.487,274.024,25.487z M273.599,31.749c-11.549,0-15.972,10.896-16.298,19.423
			c0.65,0,1.295,0.105,2.163,0.105c7.335,0,22.447-1.723,22.447-11.438C281.906,34.768,278.453,31.749,273.599,31.749z"/>
		<path style="fill:#4A3F2D;" d="M309.309,80.634V45.454c0-6.474,6.262-13.271,14.572-13.271c9.065,0,10.791,6.474,10.791,14.462
			v33.99h8.418V44.051c0-12.301-6.042-18.561-17.158-18.561c-7.015,0-13.272,3.239-17.373,9.28l-0.97-7.772h-7.227l0.535,8.095
			v45.539h8.412V80.634z"/>
		<path style="fill:#4A3F2D;" d="M355.498,5.631v60.321c0,7.88,0.433,16.187,14.785,16.187c4.311,0,9.06-1.403,12.194-3.561
			l-2.483-5.612c-1.841,1.075-4.534,2.588-8.202,2.588c-5.077,0-7.88-2.266-7.88-9.385V34.233h15.322V27h-15.322V5.631H355.498z"/>
		<path style="fill:#4A3F2D;" d="M389.056,10.56c0,3.131,2.505,5.469,5.485,5.469c2.967,0,5.459-2.341,5.459-5.469
			c0-3.072-2.489-5.418-5.459-5.418C391.558,5.145,389.056,7.491,389.056,10.56z M390.042,10.56c0-2.607,1.954-4.615,4.499-4.615
			c2.521,0,4.467,2.008,4.467,4.615c0,2.664-1.951,4.671-4.467,4.671C391.996,15.234,390.042,13.227,390.042,10.56z"/>
		<path style="fill:#4A3F2D;" d="M392.415,13.761h0.992v-2.733h1.051l1.733,2.736h1.064l-1.825-2.806
			c0.952-0.102,1.674-0.583,1.674-1.733c0-1.223-0.715-1.822-2.226-1.822h-2.462v6.359H392.415z M393.407,8.203h1.306
			c0.672,0,1.4,0.132,1.4,0.97c0,1.005-0.803,1.051-1.677,1.051h-1.032V8.203H393.407z"/>
	</g>
</g>
</svg>
