<?xml version="1.0" encoding="iso-8859-1"?>
<!-- Generator: Adobe Illustrator 17.0.2, SVG Export Plug-In . SVG Version: 6.00 Build 0)  -->
<!DOCTYPE svg PUBLIC "-//W3C//DTD SVG 1.1//EN" "http://www.w3.org/Graphics/SVG/1.1/DTD/svg11.dtd">
<svg version="1.1" id="Comp" xmlns="http://www.w3.org/2000/svg" xmlns:xlink="http://www.w3.org/1999/xlink" x="0px" y="0px"
	 width="400px" height="84px" viewBox="0 0 400 84" style="enable-background:new 0 0 400 84;" xml:space="preserve">
<g>
	<path style="fill-rule:evenodd;clip-rule:evenodd;fill:#E2231A;" d="M111.747,40.588c0,0-5.048,0.488-8.652-4.45
		c-2.372-3.276-6.354-9.045-6.354-9.045S75.065,34.923,67.525,37.14c-12.922,3.803-21.625,3.44-25.059,3.44
		c-2.906,0-19.787,0-33.183,0L5.791,56.882c14.597,0,30.188,0,33.035,0c3.44,0,15.703-0.223,25.058-3.44
		c7.436-2.55,34.126-12.217,34.126-12.217l7.621,10.379c0,0,3.047,5.294,11.743,5.294c8.681,0,16.206,0,16.206,0l3.477-16.31
		H111.747L111.747,40.588z"/>
	<path style="fill-rule:evenodd;clip-rule:evenodd;fill:#E2231A;" d="M105.95,67.41c0,0-5.035,0.489-8.652-4.448
		c-2.379-3.269-6.354-9.03-6.354-9.03S69.266,61.746,61.727,63.97c-12.923,3.811-21.626,3.432-25.059,3.432
		c-2.906,0-19.78,0-33.176,0L0,83.713c14.59,0,30.181,0,33.028,0c3.44,0,15.709-0.23,25.059-3.44
		c7.443-2.55,34.126-12.225,34.126-12.225l7.621,10.379c0,0,3.046,5.293,11.743,5.293c8.689,0,185.461,0,185.461,0l3.477-16.31
		H105.95L105.95,67.41z"/>
	<path style="fill-rule:evenodd;clip-rule:evenodd;fill:#E2231A;" d="M117.411,13.765c0,0-5.048,0.49-8.644-4.455
		c-2.386-3.27-6.361-9.037-6.361-9.037S80.728,8.093,73.188,10.31c-12.922,3.81-21.625,3.439-25.059,3.439
		c-2.905,0-19.795,0-33.176,0l-3.499,16.303c14.589,0,30.189,0,33.027,0c3.441,0,15.71-0.215,25.052-3.433
		c7.443-2.55,34.14-12.218,34.14-12.218l7.621,10.365c0,0,3.048,5.292,11.736,5.292c8.688,0,16.214,0,16.214,0l3.463-16.294H117.411
		L117.411,13.765z"/>
	<polygon style="fill-rule:evenodd;clip-rule:evenodd;fill:#717271;" points="239.493,56.6 213.826,56.6 222.93,13.749 
		234.059,13.749 226.86,47.504 241.435,47.504 239.493,56.6 	"/>
	<polygon style="fill-rule:evenodd;clip-rule:evenodd;fill:#717271;" points="243.948,56.6 253.052,13.749 277.956,13.749 
		276.058,22.794 262.148,22.794 260.614,29.986 271.305,29.986 269.474,38.711 258.769,38.711 256.923,47.438 271.616,47.438 
		269.652,56.6 243.948,56.6 	"/>
	<path style="fill-rule:evenodd;clip-rule:evenodd;fill:#717271;" d="M291.226,57.342c-9.526,0-15.116-5.715-15.116-14.322
		c0-8.49,3.068-18.327,9.771-24.348c3.863-3.439,8.666-5.656,15.436-5.656c5.092,0,8.851,1.349,11.001,3.137l-6.026,7.443
		c-1.661-1.424-3.752-2.032-6.087-2.032c-2.343,0-4.189,0.741-6.213,2.817c-2.825,2.906-5.279,11.262-5.279,17.601
		c0,4.3,2.514,6.324,5.716,6.324c2.759,0,5.043-0.801,7.867-2.95l3.261,7.621C302.295,55.496,297.498,57.342,291.226,57.342
		L291.226,57.342z"/>
	<path style="fill-rule:evenodd;clip-rule:evenodd;fill:#717271;" d="M327.256,48.676c-3.692,0-5.226-1.238-5.226-6.279
		c0-5.524,2.95-20.774,10.883-20.774c3.373,0,5.042,1.054,5.042,5.717C337.955,32.936,335.241,48.676,327.256,48.676L327.256,48.676
		z M325.217,57.342c21.841,0,24.925-22.441,24.925-28.586c0-8.726-3.507-15.739-15.079-15.739
		c-19.676,0-25.325,19.305-25.325,29.566C309.738,51.685,315.016,57.342,325.217,57.342L325.217,57.342z"/>
	<path style="fill-rule:evenodd;clip-rule:evenodd;fill:#717271;" d="M385.21,56.6l2.15-16.525c0.422-2.691,0.541-5.346,1.083-9.357
		h-0.059c-1.446,3.633-2.232,5.775-3.403,8.052l-8.785,17.83h-9.43l-0.497-17.333c-0.119-2.395-0.103-4.833,0.074-8.6h-0.067
		c-1.245,4.175-1.801,6.139-2.535,8.845L358.802,56.6H348.49l13.292-42.851h13.301l0.208,16.97c0.066,2.403-0.052,4.078,0.044,8.118
		h0.059c1.579-3.269,2.283-5.352,3.893-8.732l7.495-16.356H400L394.832,56.6H385.21L385.21,56.6z"/>
	<polygon style="fill-rule:evenodd;clip-rule:evenodd;fill:#717271;" points="317.144,67.425 312.837,83.728 308.603,83.728 
		312.919,67.425 317.144,67.425 	"/>
	<polygon style="fill-rule:evenodd;clip-rule:evenodd;fill:#717271;" points="335.316,67.425 334.47,70.153 329.139,70.153 
		325.558,83.728 321.362,83.728 324.95,70.153 320.006,70.153 320.732,67.425 335.316,67.425 	"/>
	<polygon style="fill-rule:evenodd;clip-rule:evenodd;fill:#717271;" points="359.81,67.425 356.229,81.007 363.48,81.007 
		362.627,83.728 351.328,83.728 355.636,67.425 359.81,67.425 	"/>
	<polygon style="fill-rule:evenodd;clip-rule:evenodd;fill:#717271;" points="374.86,67.425 370.545,83.728 366.305,83.728 
		370.634,67.425 374.86,67.425 	"/>
	<polygon style="fill-rule:evenodd;clip-rule:evenodd;fill:#717271;" points="183.437,22.861 172.199,22.861 165.007,56.6 
		153.872,56.6 161.071,22.861 151.106,22.861 153.012,13.749 185.35,13.749 183.437,22.861 	"/>
	<polygon style="fill-rule:evenodd;clip-rule:evenodd;fill:#717271;" points="180.925,56.6 190.029,13.749 214.939,13.749 
		212.997,22.794 199.125,22.794 197.583,29.986 208.288,29.986 206.443,38.711 195.737,38.711 193.898,47.438 208.6,47.438 
		206.635,56.6 180.925,56.6 	"/>
	<path style="fill-rule:evenodd;clip-rule:evenodd;fill:#717271;" d="M343.811,83.728h4.226l-2.075-16.341h-4.411l-10.943,16.341
		h4.381l1.943-3.07h6.546L343.811,83.728L343.811,83.728z M340.964,74.12c0.734-1.172,1.78-3.15,1.78-3.15s0,1.386,0.082,2.772
		l0.311,3.403l0.074,0.838h-4.582l0.519-0.838L340.964,74.12L340.964,74.12z"/>
	<path style="fill-rule:evenodd;clip-rule:evenodd;fill:#717271;" d="M387.367,83.728h4.225l-2.054-16.341h-4.41l-10.965,16.341
		h4.404l1.942-3.07h6.532L387.367,83.728L387.367,83.728z M384.55,74.12c0.726-1.172,1.779-3.15,1.779-3.15s0,1.386,0.074,2.772
		l0.297,3.403l0.081,0.838h-4.575l0.534-0.838L384.55,74.12L384.55,74.12z"/>
</g>
</svg>
