<?xml version="1.0" encoding="utf-8"?>
<!-- Generator: Adobe Illustrator 17.0.2, SVG Export Plug-In . SVG Version: 6.00 Build 0)  -->
<!DOCTYPE svg PUBLIC "-//W3C//DTD SVG 1.1//EN" "http://www.w3.org/Graphics/SVG/1.1/DTD/svg11.dtd">
<svg version="1.1" xmlns="http://www.w3.org/2000/svg" xmlns:xlink="http://www.w3.org/1999/xlink" x="0px" y="0px" width="326px"
	 height="480px" viewBox="0 0 326 480" enable-background="new 0 0 326 480" xml:space="preserve">
<g id="BK">
</g>
<g id="Comp">
	<g>
		<defs>
			<rect id="SVGID_24_" x="106" y="765" width="984" height="347"/>
		</defs>
		<clipPath id="SVGID_1_">
			<use xlink:href="#SVGID_24_"  overflow="visible"/>
		</clipPath>
		<g clip-path="url(#SVGID_1_)">
			<defs>
				<rect id="SVGID_26_" x="-122" y="765" width="1440" height="900"/>
			</defs>
			<clipPath id="SVGID_2_">
				<use xlink:href="#SVGID_26_"  overflow="visible"/>
			</clipPath>
			<g clip-path="url(#SVGID_2_)">
			</g>
		</g>
	</g>
	<polygon fill="none" stroke="#888888" stroke-miterlimit="10" points="82,72 82,398 264,240 	"/>
	<circle fill="#FFFFFF" cx="82" cy="72" r="72"/>
	<circle fill="#FFFFFF" cx="264" cy="240" r="62"/>
	<path fill="#D63023" d="M324,240c0,33.134-26.863,60-60,60c-33.138,0-60-26.866-60-60c0-33.139,26.864-60,60-60
		C297.137,180,324,206.861,324,240z"/>
	
		<path id="rect1227_2_" fill="#FFFFFF" d="
		M236.987,208.831c-2.302,0-4.156,1.852-4.156,4.155v14.546h12.468v-4.155c0-1.15,0.925-2.078,2.078-2.078h33.247
		c1.149,0,2.078,0.928,2.078,2.078v4.155h12.467v-14.546c0-2.303-1.854-4.155-4.155-4.155H236.987z M232.831,231.688v16.624h12.468
		v-16.624H232.831z M282.701,231.688v16.624h12.467v-16.624H282.701z M232.831,252.468v14.547c0,2.3,1.854,4.154,4.156,4.154h54.026
		c2.301,0,4.155-1.854,4.155-4.154v-14.547h-12.467v4.154c0,1.152-0.928,2.078-2.078,2.078h-33.247
		c-1.153,0-2.078-0.926-2.078-2.078v-4.154H232.831z"/>
	<circle fill="#FFFFFF" cx="82" cy="398" r="82"/>
	<circle fill="#888888" cx="82" cy="398" r="80"/>
	<path fill="#FFFFFF" d="M124.793,434.634L94.999,394.22v-33.902l8-8.318h-42l8,8.318v33.902l-30.79,40.414
		c-2.762,4.602-0.629,8.366,4.736,8.366h77.108C125.419,443,127.549,439.236,124.793,434.634z"/>
	<g>
		<path fill="#888888" d="M51.986,435c-2.2,0-2.909-1.432-1.576-3.182l24.164-31.717c1.333-1.75,2.424-4.982,2.424-7.182V379
			c0-2.2,1.8-4,4-4h2c2.2,0,4,1.8,4,4v13.849c0,2.2,1.068,5.449,2.373,7.22l23.374,31.711c1.305,1.771,0.573,3.22-1.627,3.22H51.986
			z"/>
	</g>
	<g>
		<circle fill="#FFFFFF" cx="96" cy="335" r="7"/>
	</g>
	<path fill="#888888" d="M122,297.333c4.779,0,8.667,3.888,8.667,8.667s-3.888,8.667-8.667,8.667s-8.667-3.888-8.667-8.667
		S117.221,297.333,122,297.333 M122,292c-7.732,0-14,6.268-14,14s6.268,14,14,14s14-6.268,14-14S129.732,292,122,292L122,292z"/>
	<path fill="#DD4814" d="M152,72c0,38.656-31.339,70-70,70s-70-31.344-70-70C12,33.341,43.342,2,82,2C120.661,2,152,33.341,152,72z"
		/>
	<path fill="#FFFFFF" d="M34.402,62.65c-5.164,0-9.346,4.186-9.346,9.35c0,5.16,4.183,9.344,9.346,9.344
		c5.16,0,9.345-4.184,9.345-9.344C43.747,66.835,39.562,62.65,34.402,62.65z"/>
	<path fill="#FFFFFF" d="M101.129,105.128c-4.467,2.582-6.001,8.294-3.418,12.763c2.579,4.468,8.29,6.004,12.76,3.423
		c4.47-2.582,6.003-8.297,3.422-12.767C111.312,104.082,105.598,102.551,101.129,105.128z"/>
	<path fill="#FFFFFF" d="M54.702,72c0-9.234,4.587-17.394,11.608-22.336l-6.833-11.446c-8.178,5.467-14.261,13.821-16.79,23.598
		c2.951,2.411,4.839,6.076,4.839,10.184c0,4.102-1.888,7.768-4.839,10.18c2.527,9.781,8.611,18.134,16.79,23.602l6.833-11.45
		C59.29,89.394,54.702,81.239,54.702,72z"/>
	<path fill="#FFFFFF" d="M82,44.698c14.262,0,25.962,10.934,27.191,24.879l13.318-0.195c-0.656-10.297-5.153-19.538-12.064-26.332
		c-3.554,1.339-7.658,1.138-11.206-0.911c-3.555-2.051-5.783-5.509-6.392-9.266c-3.454-0.951-7.088-1.47-10.847-1.47
		c-6.459,0-12.57,1.514-17.993,4.2l6.494,11.636C73.996,45.613,77.892,44.698,82,44.698z"/>
	<path fill="#FFFFFF" d="M82,99.297c-4.108,0-8.004-0.914-11.497-2.538l-6.495,11.635c5.424,2.689,11.533,4.209,17.993,4.209
		c3.759,0,7.395-0.524,10.847-1.481c0.609-3.753,2.839-7.211,6.392-9.265c3.55-2.047,7.652-2.251,11.206-0.911
		c6.911-6.795,11.408-16.036,12.064-26.332l-13.324-0.194C107.962,88.366,96.262,99.297,82,99.297z"/>
	<path fill="#FFFFFF" d="M101.127,38.867c4.471,2.577,10.184,1.05,12.762-3.418c2.583-4.472,1.053-10.182-3.418-12.764
		c-4.471-2.583-10.182-1.052-12.765,3.419C95.127,30.574,96.661,36.287,101.127,38.867z"/>
</g>
<g id="Grid" display="none">
	<g id="Grid_1_" display="inline">
	</g>
</g>
<g id="Labels">
</g>
</svg>
