<?xml version="1.0" encoding="utf-8"?>
<!-- Generator: Adobe Illustrator 17.0.2, SVG Export Plug-In . SVG Version: 6.00 Build 0)  -->
<!DOCTYPE svg PUBLIC "-//W3C//DTD SVG 1.1//EN" "http://www.w3.org/Graphics/SVG/1.1/DTD/svg11.dtd">
<svg version="1.1" id="Layer_1" xmlns="http://www.w3.org/2000/svg" xmlns:xlink="http://www.w3.org/1999/xlink" x="0px" y="0px"
	 width="365px" height="799px" viewBox="0 0 365 799" enable-background="new 0 0 365 799" xml:space="preserve">
<g id="BK">
</g>
<g id="Comp">
	<polyline fill="none" stroke="#B4B4B4" stroke-miterlimit="10" points="335.18,584.798 45,534 290,744 156,300 125,694 
		335.18,584.798 	"/>
	<polygon fill="none" stroke="#B4B4B4" stroke-miterlimit="10" points="45,534 125,694 290.073,743.622 335.18,584.798 
		156.09,300.001 	"/>
	<circle fill="#FFFFFF" cx="325" cy="585" r="40"/>
	<path fill="#888888" d="M344.997,550.366c-19.128-11.046-43.587-4.492-54.632,14.634c-11.044,19.13-4.492,43.594,14.64,54.635
		c19.128,11.045,43.587,4.489,54.632-14.639C370.679,585.866,364.124,561.406,344.997,550.366z M339.999,603.002
		c0,3.312-2.682,6-5.998,6h-17.998c-3.318,0-6.002-2.688-6.002-6v-36.006c0-3.31,2.684-5.997,6.002-5.997H334
		c3.316,0,5.998,2.688,5.998,5.997v36.006H339.999z M331.648,575.247h-13.293c-1.3,0-2.352-1.006-2.352-2.248
		c0-1.238,1.052-2.252,2.352-2.252h13.293c1.296,0,2.353,1.014,2.353,2.252C334,574.241,332.943,575.247,331.648,575.247
		L331.648,575.247z M331.648,569.247h-13.293c-1.3,0-2.352-1.004-2.352-2.251c0-1.242,1.052-2.247,2.352-2.247h13.293
		c1.296,0,2.353,1.005,2.353,2.247C334,568.243,332.943,569.247,331.648,569.247L331.648,569.247z M331.648,581.247h-13.293
		c-1.3,0-2.352-1.004-2.352-2.25c0-1.242,1.052-2.246,2.352-2.246h13.293c1.296,0,2.353,1.004,2.353,2.246
		C334,580.243,332.943,581.247,331.648,581.247L331.648,581.247z M321.998,597.002c0,1.656-1.342,2.997-3,2.997
		c-1.654,0-2.995-1.341-2.995-2.997s1.341-3.002,2.995-3.002C320.656,594,321.998,595.346,321.998,597.002z"/>
	<circle fill="#FFFFFF" cx="45" cy="534" r="45"/>
	<path fill="#5E2750" d="M44.999,489C20.187,489,0,509.188,0,534s20.187,45,44.999,45c24.814,0,45-20.188,45-45
		C90.001,509.188,69.813,489,44.999,489z M44.983,494.566c1.554,0,2.812,1.26,2.812,2.812l0.001,11.353
		c0.001,1.553-1.259,2.812-2.812,2.814c-1.553,0-2.812-1.259-2.813-2.812l-0.001-11.354
		C42.171,495.826,43.429,494.566,44.983,494.566z M8.342,536.833c-1.553,0-2.812-1.26-2.812-2.812s1.26-2.812,2.812-2.812h11.315
		c1.553,0,2.812,1.26,2.812,2.812c0,1.553-1.26,2.812-2.812,2.812H8.342z M29.063,553.92l-8,8c-0.55,0.548-1.269,0.822-1.989,0.822
		s-1.439-0.272-1.988-0.822c-1.098-1.099-1.098-2.879,0-3.979l8-8c1.098-1.098,2.879-1.099,3.977,0
		C30.162,551.04,30.162,552.82,29.063,553.92z M29.092,518.128c-0.549,0.551-1.269,0.825-1.989,0.825s-1.439-0.274-1.988-0.825
		l-8.028-8.027c-1.098-1.099-1.098-2.879,0-3.978c1.099-1.098,2.879-1.098,3.978,0l8.028,8.028
		C30.191,515.249,30.191,517.03,29.092,518.128z M47.796,570.664c0,1.554-1.259,2.812-2.812,2.812l0,0
		c-1.553,0-2.812-1.26-2.812-2.812l0.002-11.316c0-1.553,1.259-2.812,2.812-2.812l0,0c1.553,0,2.812,1.26,2.812,2.812
		L47.796,570.664z M56.297,548.035c0,1.554-1.259,2.812-2.812,2.812H39.423c-1.553,0-2.812-1.259-2.812-2.812v-25.312
		c0-1.554,1.259-2.812,2.812-2.812h14.062c1.553,0,2.812,1.259,2.812,2.812V548.035z M60.877,514.15l8.027-8.029
		c1.099-1.098,2.88-1.098,3.978,0c1.099,1.1,1.099,2.879,0,3.979l-8.027,8.028c-0.549,0.549-1.27,0.823-1.989,0.823
		c-0.72,0-1.439-0.274-1.989-0.823C59.779,517.029,59.779,515.248,60.877,514.15z M72.884,561.921
		c-0.549,0.549-1.27,0.823-1.989,0.823c-0.72,0-1.439-0.274-1.989-0.823l-8.001-8.001c-1.098-1.1-1.098-2.88,0-3.979
		c1.099-1.098,2.88-1.098,3.979,0l8,8.001C73.982,559.042,73.982,560.823,72.884,561.921z M81.628,536.833H70.273
		c-1.553,0-2.812-1.26-2.812-2.812s1.259-2.812,2.812-2.812h11.354c1.553,0,2.812,1.26,2.812,2.812
		C84.439,535.573,83.181,536.833,81.628,536.833z M53.381,525.722c0,1.554-1.258,2.814-2.812,2.814s-2.812-1.26-2.812-2.814
		c0-1.552,1.259-2.813,2.812-2.813C52.123,522.908,53.381,524.17,53.381,525.722z"/>
	<circle fill="#FFFFFF" cx="290" cy="744.001" r="55"/>
	<path fill="#DD4814" d="M290,689c-30.376,0-55,24.622-55,54.999C235,774.372,259.623,799,290,799c30.375,0,55-24.628,55-55.001
		C345,713.622,320.375,689,290,689z"/>
	<path fill="#FFFFFF" d="M263.306,778.008c-0.468,0.468-1.087,0.723-1.749,0.723l0,0c-0.663,0-1.285-0.256-1.753-0.726
		c-0.466-0.467-0.725-1.086-0.725-1.751c0-0.659,0.259-1.283,0.725-1.75c0.468-0.466,1.09-0.726,1.753-0.726
		c0.662,0,1.281,0.26,1.749,0.723c0.467,0.469,0.724,1.092,0.724,1.753C264.031,776.919,263.773,777.538,263.306,778.008z"/>
	<path fill="#FFFFFF" d="M274.1,741.019c-0.25-0.792-0.608-1.443-1.065-1.938c-0.459-0.491-1.01-0.861-1.647-1.096
		c-0.638-0.235-1.357-0.357-2.145-0.357s-1.503,0.121-2.128,0.357c-0.624,0.234-1.17,0.604-1.629,1.096
		c-0.455,0.495-0.816,1.146-1.064,1.938c-0.253,0.802-0.38,1.779-0.38,2.909v28.824h-4.974v-29.268c0-1.474,0.198-2.849,0.594-4.082
		c0.395-1.237,1.016-2.331,1.849-3.249c0.834-0.921,1.895-1.644,3.158-2.151c1.26-0.508,2.787-0.765,4.536-0.765
		c1.75,0,3.288,0.257,4.572,0.765c1.287,0.508,2.365,1.23,3.198,2.151c0.829,0.918,1.459,2.009,1.869,3.249
		c0.403,1.233,0.613,2.608,0.613,4.082v3.975h-4.975v-3.531C274.478,742.802,274.351,741.823,274.1,741.019z"/>
	<path fill="#FFFFFF" d="M294.867,761.227c0,1.481-0.206,2.854-0.615,4.088c-0.407,1.236-1.035,2.327-1.869,3.249
		c-0.833,0.918-1.909,1.641-3.194,2.148c-1.285,0.508-2.827,0.766-4.572,0.766c-1.748,0-3.271-0.258-4.534-0.766
		c-1.265-0.508-2.326-1.231-3.163-2.148c-0.829-0.922-1.451-2.013-1.847-3.251c-0.393-1.232-0.596-2.608-0.596-4.086v-12.575h4.976
		v12.137c0,1.129,0.127,2.107,0.38,2.903c0.249,0.798,0.606,1.451,1.062,1.942c0.459,0.494,1.006,0.862,1.628,1.097
		c0.626,0.238,1.34,0.357,2.13,0.357c0.784,0,1.508-0.122,2.145-0.359c0.633-0.232,1.187-0.604,1.643-1.095
		c0.46-0.494,0.819-1.146,1.067-1.94c0.252-0.804,0.381-1.781,0.381-2.906v-12.137h4.975v12.575L294.867,761.227L294.867,761.227z"
		/>
	<path fill="#FFFFFF" d="M289.904,745.021c0-1.366,1.107-2.477,2.473-2.477s2.478,1.11,2.478,2.477c0,1.364-1.112,2.476-2.478,2.476
		C291.01,747.497,289.904,746.386,289.904,745.021z"/>
	<path fill="#FFFFFF" d="M304.92,709.914c-0.247-0.793-0.606-1.448-1.063-1.94c-0.458-0.492-1.011-0.86-1.645-1.095
		c-0.638-0.24-1.359-0.357-2.147-0.357c-0.786,0-1.503,0.117-2.129,0.354c-0.622,0.237-1.17,0.606-1.626,1.098
		c-0.457,0.491-0.815,1.146-1.063,1.94c-0.253,0.801-0.379,1.774-0.379,2.905v28.824h-4.976v-29.262
		c0-1.477,0.199-2.852,0.594-4.085c0.396-1.239,1.018-2.333,1.851-3.252c0.832-0.918,1.895-1.642,3.159-2.148
		c1.262-0.508,2.789-0.769,4.535-0.769c1.744,0,3.282,0.261,4.568,0.766c1.29,0.51,2.365,1.233,3.195,2.151
		c0.836,0.919,1.463,2.011,1.872,3.251c0.406,1.234,0.612,2.609,0.612,4.086v3.971h-4.976v-3.533
		C305.301,711.694,305.172,710.716,304.92,709.914z"/>
	<path fill="#FFFFFF" d="M325.689,730.12c0,1.478-0.207,2.852-0.616,4.085c-0.408,1.237-1.035,2.33-1.864,3.249
		c-0.837,0.92-1.911,1.644-3.197,2.15c-1.288,0.506-2.826,0.764-4.57,0.764c-1.749,0-3.274-0.258-4.538-0.764
		c-1.262-0.507-2.326-1.23-3.16-2.15c-0.828-0.919-1.454-2.012-1.849-3.249c-0.392-1.236-0.593-2.611-0.593-4.085v-12.576h4.975
		v12.136c0,1.128,0.127,2.104,0.378,2.905c0.25,0.796,0.607,1.447,1.067,1.942c0.456,0.491,1.007,0.859,1.629,1.095
		c0.622,0.236,1.338,0.357,2.125,0.357c0.789,0,1.512-0.121,2.148-0.357c0.634-0.235,1.186-0.603,1.643-1.095
		c0.457-0.495,0.818-1.146,1.068-1.942c0.249-0.801,0.38-1.777,0.38-2.905v-12.136h4.971v12.576H325.689z"/>
	<circle fill="#FFFFFF" cx="125" cy="694" r="40"/>
	<path fill="#333333" d="M165,694c0,22.091-17.909,40-40,40s-40-17.909-40-40c0-22.093,17.909-40,40-40S165,671.907,165,694z
		 M121.518,708.761c-5.084,0.009-13.952,0.096-17.477,0.639c-1.905,0.301-1.757,1.565-1.812,2.604c0.001,0.004,0,0.009,0,0.013
		v0.006c0.056,1.041-0.093,2.302,1.812,2.605c4.694,0.721,18.861,0.638,20.947,0.638c0.002,0,0.013,0,0.016,0
		c2.086,0,16.253,0.083,20.947-0.638c1.905-0.304,1.765-1.564,1.82-2.605c-0.058-1.045,0.096-2.319-1.82-2.623
		c-4.694-0.724-18.861-0.639-20.947-0.639C124.489,708.761,123.212,708.758,121.518,708.761L121.518,708.761z M121.518,672.734
		c-5.084,0.008-13.952,0.095-17.477,0.638c-1.905,0.303-1.757,1.562-1.812,2.605c0.001,0.004,0,0.008,0,0.012s0,0.004,0,0.007
		c0.056,1.04-0.093,2.303,1.812,2.603c4.694,0.725,18.861,0.64,20.947,0.64c0.002,0,0.013,0,0.016,0
		c2.086,0,16.253,0.085,20.947-0.64c1.905-0.301,1.765-1.563,1.82-2.603c-0.058-1.045,0.096-2.319-1.82-2.623
		c-4.694-0.724-18.861-0.639-20.947-0.638C124.489,672.734,123.212,672.731,121.518,672.734L121.518,672.734z M121.518,696.751
		c-5.084,0.01-13.952,0.096-17.477,0.639c-1.905,0.303-1.757,1.565-1.812,2.606c0.001,0.004,0,0.009,0,0.012
		c0,0.002,0,0.005,0,0.006c0.056,1.042-0.093,2.303,1.812,2.606c4.694,0.723,18.861,0.64,20.947,0.639c0.002,0,0.013,0,0.016,0
		c2.086,0.001,16.253,0.084,20.947-0.639c1.905-0.303,1.765-1.564,1.82-2.606c-0.058-1.043,0.096-2.318-1.82-2.623
		c-4.694-0.722-18.861-0.639-20.947-0.639C124.489,696.751,123.212,696.749,121.518,696.751L121.518,696.751z M121.518,684.742
		c-5.084,0.009-13.952,0.097-17.477,0.638c-1.905,0.304-1.757,1.564-1.812,2.606c0.001,0.004,0,0.008,0,0.012
		c0,0.003,0,0.006,0,0.008c0.056,1.039-0.093,2.303,1.812,2.604c4.694,0.723,18.861,0.638,20.947,0.638c0.002,0,0.013,0,0.016,0
		c2.086,0,16.253,0.085,20.947-0.638c1.905-0.302,1.765-1.565,1.82-2.604c-0.058-1.045,0.096-2.32-1.82-2.625
		c-4.694-0.721-18.861-0.638-20.947-0.638C124.489,684.742,123.212,684.739,121.518,684.742L121.518,684.742z"/>
	<polygon fill="none" stroke="#B4B4B4" stroke-miterlimit="10" points="157,301 305,190.001 145,69.001 	"/>
	<path fill="#D63023" d="M365,189c0,33.134-26.863,60-60,60c-33.138,0-60-26.866-60-60c0-33.138,26.864-60,60-60
		C338.137,129,365,155.862,365,189z"/>
	<path id="rect1227_2_" fill="#FFFFFF" d="M277.987,157.831c-2.302,0-4.156,1.853-4.156,4.156v14.545h12.468v-4.155
		c0-1.15,0.925-2.078,2.078-2.078h33.246c1.149,0,2.078,0.928,2.078,2.078v4.155h12.467v-14.545c0-2.303-1.854-4.156-4.155-4.156
		H277.987z M273.831,180.688v16.624h12.468v-16.624L273.831,180.688L273.831,180.688z M323.701,180.688v16.624h12.467v-16.624
		L323.701,180.688L323.701,180.688z M273.831,201.468v14.547c0,2.3,1.854,4.154,4.156,4.154h54.026c2.301,0,4.155-1.854,4.155-4.154
		v-14.547h-12.467v4.154c0,1.152-0.928,2.078-2.078,2.078h-33.246c-1.153,0-2.078-0.926-2.078-2.078v-4.154H273.831z"/>
	<path fill="#DD4814" d="M217,70c0,38.656-31.339,70-70,70s-70-31.344-70-70c0-38.66,31.342-70,70-70C185.66,0,217,31.34,217,70z"/>
	<path fill="#FFFFFF" d="M99.402,60.649c-5.164,0-9.346,4.187-9.346,9.351c0,5.16,4.182,9.344,9.346,9.344
		c5.16,0,9.345-4.184,9.345-9.344C108.747,64.836,104.562,60.649,99.402,60.649z"/>
	<path fill="#FFFFFF" d="M166.129,103.128c-4.468,2.582-6.002,8.295-3.418,12.763c2.578,4.469,8.289,6.004,12.76,3.423
		c4.47-2.582,6.002-8.297,3.422-12.768C176.312,102.082,170.598,100.551,166.129,103.128z"/>
	<path fill="#FFFFFF" d="M119.702,70c0-9.234,4.587-17.394,11.608-22.336l-6.833-11.446c-8.178,5.467-14.262,13.821-16.79,23.598
		c2.951,2.411,4.839,6.076,4.839,10.185c0,4.102-1.888,7.768-4.839,10.18c2.527,9.781,8.611,18.134,16.79,23.603l6.833-11.45
		C124.29,87.394,119.702,79.239,119.702,70z"/>
	<path fill="#FFFFFF" d="M147,42.698c14.262,0,25.962,10.935,27.19,24.88l13.318-0.195c-0.657-10.297-5.153-19.538-12.064-26.332
		c-3.554,1.339-7.658,1.138-11.206-0.911c-3.555-2.051-5.783-5.509-6.392-9.267c-3.454-0.951-7.088-1.47-10.847-1.47
		c-6.46,0-12.57,1.515-17.993,4.199l6.493,11.637C138.996,43.613,142.891,42.698,147,42.698z"/>
	<path fill="#FFFFFF" d="M147,97.297c-4.108,0-8.004-0.914-11.498-2.538l-6.495,11.635c5.424,2.688,11.533,4.208,17.993,4.208
		c3.759,0,7.395-0.524,10.847-1.481c0.609-3.753,2.839-7.211,6.392-9.265c3.55-2.047,7.652-2.252,11.206-0.912
		c6.911-6.795,11.408-16.036,12.064-26.332l-13.324-0.193C172.962,86.366,161.262,97.297,147,97.297z"/>
	<path fill="#FFFFFF" d="M166.127,36.867c4.471,2.577,10.184,1.051,12.762-3.418c2.583-4.472,1.053-10.182-3.418-12.764
		c-4.471-2.583-10.182-1.052-12.765,3.419C160.127,28.574,161.661,34.286,166.127,36.867z"/>
	<circle fill="#888888" cx="157" cy="301" r="80"/>
	<path fill="#FFFFFF" d="M199.793,337.634l-29.794-40.414v-33.902l8-8.317h-42l8,8.317v33.902l-30.79,40.414
		c-2.762,4.602-0.63,8.366,4.736,8.366h77.108C200.419,346,202.55,342.235,199.793,337.634z"/>
	<g>
		<path fill="#888888" d="M126.986,338c-2.2,0-2.909-1.432-1.576-3.182l24.164-31.717c1.333-1.75,2.424-4.982,2.424-7.182V282
			c0-2.2,1.8-4,4-4h2c2.2,0,4,1.8,4,4v13.85c0,2.2,1.068,5.449,2.373,7.22l23.374,31.711c1.305,1.771,0.573,3.22-1.627,3.22h-59.132
			V338z"/>
	</g>
	<g>
		<circle fill="#FFFFFF" cx="171" cy="238" r="7"/>
	</g>
	<path fill="#888888" d="M197,201c4.411,0,8,3.589,8,8s-3.589,8-8,8s-8-3.589-8-8S192.589,201,197,201 M197,195
		c-7.732,0-14,6.268-14,14s6.268,14,14,14s14-6.268,14-14S204.732,195,197,195L197,195z"/>
</g>
<g id="Grid" display="none">
	<g id="Grid_1_" display="inline">
	</g>
</g>
<g id="Labels">
</g>
</svg>
