<?xml version="1.0" encoding="utf-8"?>
<!-- Generator: Adobe Illustrator 17.0.2, SVG Export Plug-In . SVG Version: 6.00 Build 0)  -->
<!DOCTYPE svg PUBLIC "-//W3C//DTD SVG 1.1//EN" "http://www.w3.org/Graphics/SVG/1.1/DTD/svg11.dtd">
<svg version="1.1" id="Layer_1" xmlns="http://www.w3.org/2000/svg" xmlns:xlink="http://www.w3.org/1999/xlink" x="0px" y="0px"
	 width="320px" height="320px" viewBox="0 0 320 320" enable-background="new 0 0 320 320" xml:space="preserve">
<g id="BK">
</g>
<g id="Comp">
	<polygon fill="none" stroke="#B4B4B4" stroke-miterlimit="10" points="160,227 260,60 60,60 	"/>
	<path fill="#D63023" d="M320,60c0,33.134-26.863,60-60,60c-33.138,0-60-26.866-60-60c0-33.138,26.864-60,60-60
		C293.137,0,320,26.862,320,60z"/>
	<path id="rect1227_5_" fill="#FFFFFF" d="M232.987,28.831c-2.302,0-4.156,1.853-4.156,4.156v14.545h12.468v-4.155
		c0-1.15,0.925-2.078,2.078-2.078h33.247c1.149,0,2.078,0.928,2.078,2.078v4.155h12.467V32.987c0-2.303-1.854-4.156-4.155-4.156
		H232.987z M228.831,51.688v16.624h12.468V51.688H228.831z M278.701,51.688v16.624h12.467V51.688H278.701z M228.831,72.468v14.547
		c0,2.3,1.854,4.154,4.156,4.154h54.026c2.301,0,4.155-1.854,4.155-4.154V72.468h-12.467v4.154c0,1.152-0.928,2.078-2.078,2.078
		h-33.247c-1.153,0-2.078-0.926-2.078-2.078v-4.154H228.831z"/>
	<path fill="#DD4814" d="M120,60c0,33.134-26.862,60-60,60S0,93.134,0,60C0,26.863,26.864,0,60,0C93.138,0,120,26.863,120,60z"/>
	<circle fill="#FFFFFF" cx="19.202" cy="59.997" r="8.012"/>
	<path fill="#FFFFFF" d="M76.396,88.395c-3.83,2.213-5.144,7.11-2.93,10.939c2.21,3.83,7.105,5.147,10.937,2.934
		c3.831-2.213,5.145-7.112,2.933-10.944C85.125,87.499,80.227,86.186,76.396,88.395z"/>
	<path fill="#FFFFFF" d="M36.602,60c0-7.915,3.932-14.909,9.95-19.145l-5.857-9.811C33.686,35.73,28.471,42.891,26.304,51.27
		c2.529,2.067,4.147,5.208,4.147,8.73c0,3.516-1.618,6.658-4.147,8.725c2.166,8.384,7.381,15.543,14.391,20.231l5.857-9.814
		C40.534,74.909,36.602,67.919,36.602,60z"/>
	<path fill="#FFFFFF" d="M60,36.598c12.225,0,22.253,9.373,23.306,21.326l11.416-0.167c-0.563-8.826-4.417-16.747-10.341-22.57
		c-3.046,1.148-6.564,0.975-9.605-0.781c-3.047-1.758-4.957-4.722-5.479-7.943c-2.96-0.815-6.076-1.26-9.297-1.26
		c-5.537,0-10.774,1.298-15.422,3.599l5.566,9.974C53.14,37.383,56.478,36.598,60,36.598z"/>
	<path fill="#FFFFFF" d="M60,83.397c-3.521,0-6.86-0.783-9.855-2.176l-5.567,9.973c4.649,2.304,9.886,3.607,15.422,3.607
		c3.222,0,6.339-0.449,9.297-1.269c0.522-3.217,2.433-6.181,5.479-7.942c3.043-1.755,6.559-1.93,9.605-0.781
		c5.923-5.824,9.778-13.745,10.341-22.57l-11.421-0.166C82.253,74.028,72.225,83.397,60,83.397z"/>
	<path fill="#FFFFFF" d="M76.395,31.6c3.832,2.209,8.729,0.901,10.939-2.93c2.214-3.833,0.903-8.727-2.93-10.94
		c-3.832-2.214-8.727-0.901-10.942,2.931C71.252,24.492,72.566,29.388,76.395,31.6z"/>
	<circle fill="#FFFFFF" cx="200" cy="148" r="14"/>
	<circle fill="#888888" cx="160" cy="240" r="80"/>
	<path fill="#FFFFFF" d="M202.793,276.634l-29.794-40.414v-33.902l8-8.317h-42l8,8.317v33.902l-30.79,40.414
		c-2.762,4.602-0.63,8.366,4.736,8.366h77.108C203.419,285,205.55,281.235,202.793,276.634z"/>
	<g>
		<path fill="#888888" d="M129.987,277c-2.2,0-2.909-1.432-1.576-3.182l24.164-31.717c1.333-1.75,2.424-4.982,2.424-7.182V221
			c0-2.2,1.8-4,4-4h2c2.2,0,4,1.8,4,4v13.85c0,2.2,1.068,5.449,2.373,7.22l23.374,31.711c1.305,1.771,0.573,3.22-1.627,3.22h-59.132
			V277z"/>
	</g>
	<g>
		<circle fill="#FFFFFF" cx="174" cy="177" r="7"/>
	</g>
	<path fill="#888888" d="M200,140c4.411,0,8,3.589,8,8s-3.589,8-8,8s-8-3.589-8-8S195.589,140,200,140 M200,134
		c-7.732,0-14,6.268-14,14s6.268,14,14,14s14-6.268,14-14S207.732,134,200,134L200,134z"/>
</g>
<g id="Grid" display="none">
	<g id="Grid_1_" display="inline">
	</g>
</g>
<g id="Labels">
</g>
</svg>
