<?xml version="1.0" encoding="utf-8"?>
<!-- Generator: Adobe Illustrator 17.0.0, SVG Export Plug-In . SVG Version: 6.00 Build 0)  -->
<!DOCTYPE svg PUBLIC "-//W3C//DTD SVG 1.1//EN" "http://www.w3.org/Graphics/SVG/1.1/DTD/svg11.dtd">
<svg version="1.1" id="Layer_1" xmlns="http://www.w3.org/2000/svg" xmlns:xlink="http://www.w3.org/1999/xlink" x="0px" y="0px"
	 width="166px" height="200px" viewBox="0 0 166 200" enable-background="new 0 0 166 200" xml:space="preserve">
<g>
	<g opacity="0.3">
		<path fill="#888888" d="M160,6v188H6V6H160 M162,0H4C1.8,0,0,1.8,0,4v192c0,2.2,1.8,4,4,4h158c2.2,0,4-1.8,4-4V4
			C166,1.8,164.2,0,162,0L162,0z"/>
	</g>
	<rect x="92" y="28" opacity="0.3" fill-rule="evenodd" clip-rule="evenodd" fill="#888888" width="56" height="12"/>
	<rect x="92" y="52" opacity="0.3" fill-rule="evenodd" clip-rule="evenodd" fill="#888888" width="56" height="12"/>
	<rect x="92" y="76" opacity="0.3" fill-rule="evenodd" clip-rule="evenodd" fill="#888888" width="56" height="12"/>
	<rect x="18" y="112" opacity="0.3" fill-rule="evenodd" clip-rule="evenodd" fill="#888888" width="130" height="12"/>
	<rect x="18" y="136" opacity="0.3" fill-rule="evenodd" clip-rule="evenodd" fill="#888888" width="130" height="12"/>
	<rect x="18" y="160" opacity="0.3" fill-rule="evenodd" clip-rule="evenodd" fill="#888888" width="90" height="12"/>
	<g>
		<path fill="#DD4815" d="M78,58c0,16.567-13.431,30-30,30c-16.569,0-30-13.433-30-30c0-16.569,13.432-30,30-30
			C64.569,28,78,41.431,78,58z"/>
		<g>
			<circle fill="#FFFFFF" cx="27.601" cy="57.999" r="4.006"/>
			<circle fill="#FFFFFF" cx="58.2" cy="75.666" r="4.005"/>
			<path fill="#FFFFFF" d="M36.301,58c0-3.958,1.966-7.454,4.975-9.573l-2.928-4.906c-3.505,2.343-6.112,5.923-7.195,10.113
				c1.264,1.033,2.074,2.604,2.074,4.365c0,1.758-0.809,3.329-2.074,4.363c1.083,4.192,3.69,7.772,7.195,10.115l2.928-4.907
				C38.267,65.454,36.301,61.96,36.301,58z"/>
			<path fill="#FFFFFF" d="M48,46.299c6.112,0,11.126,4.686,11.653,10.663l5.708-0.084c-0.281-4.413-2.209-8.373-5.17-11.285
				c-1.523,0.574-3.282,0.488-4.802-0.39c-1.523-0.879-2.478-2.361-2.739-3.971c-1.48-0.408-3.038-0.63-4.649-0.63
				c-2.768,0-5.387,0.649-7.711,1.8l2.783,4.987C44.57,46.691,46.239,46.299,48,46.299z"/>
			<path fill="#FFFFFF" d="M48,69.699c-1.761,0-3.43-0.391-4.928-1.088l-2.784,4.986c2.325,1.152,4.943,1.804,7.711,1.804
				c1.611,0,3.169-0.225,4.649-0.635c0.261-1.608,1.217-3.09,2.739-3.971c1.522-0.878,3.279-0.965,4.802-0.391
				c2.962-2.912,4.889-6.873,5.17-11.285l-5.71-0.083C59.126,65.014,54.112,69.699,48,69.699z"/>
			<circle fill="#FFFFFF" cx="58.2" cy="40.333" r="4.004"/>
		</g>
	</g>
</g>
</svg>
