<?xml version="1.0" encoding="utf-8"?>
<!-- Generator: Adobe Illustrator 17.0.0, SVG Export Plug-In . SVG Version: 6.00 Build 0)  -->
<!DOCTYPE svg PUBLIC "-//W3C//DTD SVG 1.1//EN" "http://www.w3.org/Graphics/SVG/1.1/DTD/svg11.dtd">
<svg version="1.1" id="Layer_1" xmlns="http://www.w3.org/2000/svg" xmlns:xlink="http://www.w3.org/1999/xlink" x="0px" y="0px"
	 width="166px" height="200px" viewBox="0 0 166 200" enable-background="new 0 0 166 200" xml:space="preserve">
<g opacity="0.3">
	<path fill="#888888" d="M160,6v188H6V6H160 M162,0H4C1.8,0,0,1.8,0,4v192c0,2.2,1.8,4,4,4h158c2.2,0,4-1.8,4-4V4
		C166,1.8,164.2,0,162,0L162,0z"/>
</g>
<rect x="92" y="28" opacity="0.3" fill-rule="evenodd" clip-rule="evenodd" fill="#888888" width="56" height="12"/>
<rect x="92" y="52" opacity="0.3" fill-rule="evenodd" clip-rule="evenodd" fill="#888888" width="56" height="12"/>
<rect x="92" y="76" opacity="0.3" fill-rule="evenodd" clip-rule="evenodd" fill="#888888" width="56" height="12"/>
<rect x="18" y="112" opacity="0.3" fill-rule="evenodd" clip-rule="evenodd" fill="#888888" width="130" height="12"/>
<rect x="18" y="136" opacity="0.3" fill-rule="evenodd" clip-rule="evenodd" fill="#888888" width="130" height="12"/>
<rect x="18" y="160" opacity="0.3" fill-rule="evenodd" clip-rule="evenodd" fill="#888888" width="90" height="12"/>
<circle fill="#DD4815" cx="48" cy="58" r="30"/>
<g>
	<path opacity="0" fill="#FFFFFF" d="M28,38v18.672h5.333v2.667H28V78h40V59.339h-5.333v-2.667H68V38H28z M56.847,40.02l2.306,1.333
		l-2.667,4.611l-2.306-1.333L56.847,40.02z M46.667,38.006h2.667v5.333h-2.667V38.006z M39.153,40.02l2.667,4.611l-2.306,1.333
		l-2.667-4.611L39.153,40.02z M31.347,69.158l-1.333-2.319l4.611-2.667v0l1.333,2.32L31.347,69.158z M34.625,51.825l-4.611-2.667
		l1.333-2.319l4.611,2.667L34.625,51.825z M49.333,76.667h-2.667c-2.012,0-2.552-0.373-2.639-1.431
		c0.881,0.132,1.748,0.083,2.639,0.083h2.667c0.891,0,1.758,0.049,2.639-0.083C51.885,76.294,51.345,76.667,49.333,76.667z
		 M54.667,67.957V70c0,0.741-0.048,1.372-0.264,1.986c-0.216,0.615-0.69,1.201-1.264,1.514c-1.148,0.626-2.25,0.5-3.806,0.5h-2.667
		c-1.556,0-2.658,0.126-3.806-0.5c-0.574-0.313-1.048-0.899-1.264-1.514c-0.216-0.615-0.264-1.245-0.264-1.986v-2.043
		C38.122,65.802,36,62.147,36,58c0-6.612,5.388-12,12-12s12,5.388,12,12C60,62.147,57.878,65.802,54.667,67.957z M65.986,66.839
		l-1.333,2.319l-4.611-2.667l1.333-2.319L65.986,66.839z M61.375,51.825l-1.333-2.319l4.611-2.667l1.333,2.319L61.375,51.825z"/>
	<path opacity="0" fill="#FFFFFF" d="M48,48.667c-5.17,0-9.333,4.163-9.333,9.333c0,2.71,1.155,5.128,2.988,6.827
		c0.088,0.081,0.171,0.166,0.262,0.244c0.241,0.207,0.496,0.395,0.758,0.577c0.153,0.105,0.309,0.205,0.468,0.301
		c0.144,0.088,0.292,0.168,0.44,0.247c0.139,0.074,0.275,0.153,0.418,0.221v0.014v2.875V70c0,0.593,0.063,0.962,0.111,1.097
		c0.02,0.057,0.016,0.066,0.014,0.069c0.001-0.003,0.005-0.005,0.014,0c0.074,0.041,0.972,0.167,2.528,0.167h2.667
		c1.556,0,2.453-0.126,2.528-0.167c0.009-0.005,0.013-0.003,0.014,0c-0.002-0.003-0.006-0.013,0.014-0.069
		C51.937,70.962,52,70.593,52,70v-0.694v-2.875v-0.014c0.143-0.068,0.279-0.146,0.418-0.221c0.148-0.08,0.296-0.16,0.44-0.247
		c0.159-0.096,0.316-0.196,0.468-0.301c0.261-0.182,0.517-0.37,0.758-0.577c0.091-0.077,0.174-0.163,0.261-0.243
		c1.833-1.699,2.988-4.118,2.988-6.827C57.333,52.83,53.17,48.667,48,48.667z M48.316,59.333L48.666,66L44.4,56.667h3.239L47.333,50
		l4.267,9.333H48.316z"/>
	<path fill="#FFFFFF" d="M48,46c-6.612,0-12,5.388-12,12c0,4.147,2.122,7.802,5.333,9.957V70c0,0.741,0.048,1.372,0.264,1.986
		c0.216,0.615,0.69,1.201,1.264,1.514c1.148,0.626,2.25,0.5,3.806,0.5h2.667c1.556,0,2.658,0.126,3.806-0.5
		c0.574-0.313,1.048-0.899,1.264-1.514c0.216-0.615,0.264-1.245,0.264-1.986v-2.043C57.878,65.802,60,62.147,60,58
		C60,51.388,54.612,46,48,46z M54.345,64.827c-0.087,0.081-0.171,0.166-0.261,0.243c-0.241,0.207-0.496,0.396-0.758,0.577
		c-0.153,0.105-0.309,0.205-0.468,0.301c-0.143,0.087-0.291,0.167-0.44,0.247c-0.139,0.074-0.275,0.153-0.418,0.221v0.014v2.875V70
		c0,0.593-0.063,0.962-0.111,1.097c-0.02,0.057-0.016,0.066-0.014,0.069c-0.001-0.003-0.005-0.005-0.014,0
		c-0.074,0.04-0.972,0.167-2.528,0.167h-2.667c-1.556,0-2.453-0.126-2.528-0.167c-0.009-0.005-0.013-0.003-0.014,0
		c0.002-0.003,0.006-0.013-0.014-0.069C44.063,70.962,44,70.593,44,70v-0.694v-2.875v-0.014c-0.143-0.068-0.279-0.146-0.418-0.221
		c-0.149-0.08-0.297-0.16-0.44-0.247c-0.159-0.096-0.315-0.196-0.468-0.301c-0.261-0.182-0.517-0.37-0.758-0.577
		c-0.091-0.077-0.174-0.163-0.262-0.244c-1.833-1.699-2.988-4.117-2.988-6.827c0-5.17,4.163-9.333,9.333-9.333
		S57.333,52.83,57.333,58C57.333,60.71,56.178,63.128,54.345,64.827z"/>
	
		<rect x="36.67" y="41.66" transform="matrix(0.5006 0.8657 -0.8657 0.5006 56.8582 -12.5805)" fill="#FFFFFF" width="5.327" height="2.663"/>
	<polygon fill="#FFFFFF" points="34.625,64.172 30.014,66.839 31.347,69.158 35.958,66.492 34.625,64.172 	"/>
	<polygon fill="#FFFFFF" points="30.014,49.158 34.625,51.825 35.958,49.506 31.347,46.839 	"/>
	<rect x="28" y="56.672" fill="#FFFFFF" width="5.333" height="2.667"/>
	<polygon fill="#FFFFFF" points="60.042,66.492 64.653,69.158 65.986,66.839 61.375,64.172 	"/>
	<rect x="46.667" y="38.006" fill="#FFFFFF" width="2.667" height="5.333"/>
	<polygon fill="#FFFFFF" points="60.042,49.506 61.375,51.825 65.986,49.158 64.653,46.839 	"/>
	<rect x="62.667" y="56.672" fill="#FFFFFF" width="5.333" height="2.667"/>
	
		<rect x="55.335" y="40.328" transform="matrix(0.8657 0.5006 -0.5006 0.8657 29.1349 -22.5933)" fill="#FFFFFF" width="2.663" height="5.327"/>
	<polygon fill="#FFFFFF" points="47.639,56.667 44.4,56.667 48.666,66 48.316,59.333 51.6,59.333 47.333,50 	"/>
	<path fill="#FFFFFF" d="M49.333,75.319h-2.667c-0.891,0-1.758,0.049-2.639-0.083c0.087,1.058,0.627,1.431,2.639,1.431h2.667
		c2.012,0,2.552-0.373,2.639-1.431C51.091,75.368,50.224,75.319,49.333,75.319z"/>
</g>
</svg>
