<?xml version="1.0" encoding="utf-8"?>
<!-- Generator: Adobe Illustrator 17.0.0, SVG Export Plug-In . SVG Version: 6.00 Build 0)  -->
<!DOCTYPE svg PUBLIC "-//W3C//DTD SVG 1.1//EN" "http://www.w3.org/Graphics/SVG/1.1/DTD/svg11.dtd">
<svg version="1.1" id="Layer_1" xmlns="http://www.w3.org/2000/svg" xmlns:xlink="http://www.w3.org/1999/xlink" x="0px" y="0px"
	 width="166px" height="200px" viewBox="0 0 166 200" enable-background="new 0 0 166 200" xml:space="preserve">
<g>
	<g opacity="0.3">
		<path fill="#888888" d="M160,6v188H6V6H160 M162,0H4C1.8,0,0,1.8,0,4v192c0,2.2,1.8,4,4,4h158c2.2,0,4-1.8,4-4V4
			C166,1.8,164.2,0,162,0L162,0z"/>
	</g>
	<rect x="92" y="28" opacity="0.3" fill-rule="evenodd" clip-rule="evenodd" fill="#888888" width="56" height="12"/>
	<rect x="92" y="52" opacity="0.3" fill-rule="evenodd" clip-rule="evenodd" fill="#888888" width="56" height="12"/>
	<rect x="92" y="76" opacity="0.3" fill-rule="evenodd" clip-rule="evenodd" fill="#888888" width="56" height="12"/>
	<rect x="18" y="112" opacity="0.3" fill-rule="evenodd" clip-rule="evenodd" fill="#888888" width="130" height="12"/>
	<rect x="18" y="136" opacity="0.3" fill-rule="evenodd" clip-rule="evenodd" fill="#888888" width="130" height="12"/>
	<rect x="18" y="160" opacity="0.3" fill-rule="evenodd" clip-rule="evenodd" fill="#888888" width="90" height="12"/>
	<g id="_x37_3">
		<path fill="#DD4815" d="M63.184,32.134l0.001,0.002L50.084,58.007c-0.387,0.775-1.175,1.245-2.013,1.245l-0.002-0.001
			c-0.837,0-1.624-0.47-2.012-1.244L33.056,31.992l0.001,0.001C24.065,37.18,18,46.895,18,58c0,16.542,13.457,30,30,30
			s30-13.458,30-30C78,46.995,72.043,37.354,63.184,32.134z M40.481,73.192c-1.035,0-1.874-0.839-1.874-1.875
			c0-1.036,0.839-1.875,1.874-1.875c1.036,0,1.875,0.839,1.875,1.875C42.356,72.352,41.517,73.192,40.481,73.192z M40.481,65.574
			c-1.035,0-1.874-0.839-1.874-1.875c0-1.036,0.839-1.875,1.874-1.875c1.036,0,1.875,0.839,1.875,1.875
			C42.356,64.735,41.517,65.574,40.481,65.574z M69.15,58.001h-5.308l-5.369-0.02c-0.303,0-0.584-0.157-0.742-0.415
			c-0.16-0.258-0.175-0.579-0.039-0.85l5.369-10.666c0.15-0.301,0.456-0.483,0.782-0.483c0.326,0,0.631,0.183,0.782,0.483
			l5.308,10.686c0.135,0.27,0.121,0.592-0.037,0.85C69.734,57.844,69.453,58.001,69.15,58.001z M55.255,28.887L52.46,34.25v-0.001
			l3.343,6.919v-0.05l-6.311,12.32c-0.269,0.538-0.817,0.864-1.399,0.864h-0.001c-0.582,0-1.129-0.326-1.399-0.865l-6.213-12.288
			v0.05l3.343-6.831l-2.845-5.537V28.83C43.233,28.287,45.582,28,48,28C50.501,28.001,52.931,28.308,55.255,28.887"/>
	</g>
</g>
</svg>
