<?xml version="1.0" encoding="utf-8"?>
<!-- Generator: Adobe Illustrator 17.0.0, SVG Export Plug-In . SVG Version: 6.00 Build 0)  -->
<!DOCTYPE svg PUBLIC "-//W3C//DTD SVG 1.1//EN" "http://www.w3.org/Graphics/SVG/1.1/DTD/svg11.dtd">
<svg version="1.1" id="Layer_1" xmlns="http://www.w3.org/2000/svg" xmlns:xlink="http://www.w3.org/1999/xlink" x="0px" y="0px"
	 width="166px" height="200px" viewBox="0 0 166 200" enable-background="new 0 0 166 200" xml:space="preserve">
<g>
	<g opacity="0.3">
		<path fill="#888888" d="M160,6v188H6V6H160 M162,0H4C1.8,0,0,1.8,0,4v192c0,2.2,1.8,4,4,4h158c2.2,0,4-1.8,4-4V4
			C166,1.8,164.2,0,162,0L162,0z"/>
	</g>
	<rect x="92" y="28" opacity="0.3" fill-rule="evenodd" clip-rule="evenodd" fill="#888888" width="56" height="12"/>
	<rect x="92" y="52" opacity="0.3" fill-rule="evenodd" clip-rule="evenodd" fill="#888888" width="56" height="12"/>
	<rect x="92" y="76" opacity="0.3" fill-rule="evenodd" clip-rule="evenodd" fill="#888888" width="56" height="12"/>
	<rect x="18" y="112" opacity="0.3" fill-rule="evenodd" clip-rule="evenodd" fill="#888888" width="130" height="12"/>
	<rect x="18" y="136" opacity="0.3" fill-rule="evenodd" clip-rule="evenodd" fill="#888888" width="130" height="12"/>
	<rect x="18" y="160" opacity="0.3" fill-rule="evenodd" clip-rule="evenodd" fill="#888888" width="90" height="12"/>
	<g>
		<path fill="#782953" d="M48.001,77.102c-10.55,0-19.103-8.55-19.103-19.103c0-10.551,8.552-19.102,19.103-19.102
			c10.551,0,19.102,8.551,19.102,19.102C67.103,68.553,58.552,77.102,48.001,77.102z"/>
		<path fill="#782953" d="M78,58.001C78,74.568,64.569,88,48,88c-16.569,0-30-13.432-30-29.999C18,41.431,31.431,28,48,28
			C64.569,28,78,41.431,78,58.001z M48,35.297c-12.539,0-22.702,10.165-22.702,22.703c0,12.54,10.163,22.702,22.702,22.702
			c12.54,0,22.702-10.161,22.702-22.702C70.703,45.462,60.54,35.297,48,35.297z"/>
	</g>
</g>
</svg>
