<?xml version="1.0" encoding="utf-8"?>
<!-- Generator: Adobe Illustrator 17.0.0, SVG Export Plug-In . SVG Version: 6.00 Build 0)  -->
<!DOCTYPE svg PUBLIC "-//W3C//DTD SVG 1.1//EN" "http://www.w3.org/Graphics/SVG/1.1/DTD/svg11.dtd">
<svg version="1.1" id="Layer_1" xmlns="http://www.w3.org/2000/svg" xmlns:xlink="http://www.w3.org/1999/xlink" x="0px" y="0px"
	 width="166px" height="200px" viewBox="0 0 166 200" enable-background="new 0 0 166 200" xml:space="preserve">
<g>
	<g opacity="0.3">
		<path fill="#888888" d="M160,6v188H6V6H160 M162,0H4C1.8,0,0,1.8,0,4v192c0,2.2,1.8,4,4,4h158c2.2,0,4-1.8,4-4V4
			C166,1.8,164.2,0,162,0L162,0z"/>
	</g>
	<rect x="92" y="28" opacity="0.3" fill-rule="evenodd" clip-rule="evenodd" fill="#888888" width="56" height="12"/>
	<rect x="92" y="52" opacity="0.3" fill-rule="evenodd" clip-rule="evenodd" fill="#888888" width="56" height="12"/>
	<rect x="92" y="76" opacity="0.3" fill-rule="evenodd" clip-rule="evenodd" fill="#888888" width="56" height="12"/>
	<rect x="18" y="112" opacity="0.3" fill-rule="evenodd" clip-rule="evenodd" fill="#888888" width="130" height="12"/>
	<rect x="18" y="136" opacity="0.3" fill-rule="evenodd" clip-rule="evenodd" fill="#888888" width="130" height="12"/>
	<rect x="18" y="160" opacity="0.3" fill-rule="evenodd" clip-rule="evenodd" fill="#888888" width="90" height="12"/>
	<g>
		<path fill="#DD4815" d="M48,28c-16.569,0-30,13.43-30,29.998C18,74.567,31.431,88,48,88c16.568,0,30-13.433,30-30.002
			C78,41.43,64.568,28,48,28z"/>
		<g>
			<path fill="#FFFFFF" d="M31.44,76.049c-0.255,0.256-0.592,0.396-0.954,0.396l0,0c-0.362,0-0.702-0.141-0.956-0.397
				c-0.254-0.254-0.396-0.592-0.396-0.954c0-0.36,0.142-0.7,0.396-0.956c0.255-0.254,0.594-0.395,0.956-0.395
				c0.362,0,0.699,0.141,0.954,0.395c0.255,0.254,0.395,0.594,0.395,0.956C31.835,75.455,31.695,75.793,31.44,76.049z"/>
			<path fill="#FFFFFF" d="M37.327,55.875c-0.135-0.432-0.332-0.789-0.581-1.058c-0.25-0.268-0.551-0.47-0.899-0.598
				c-0.348-0.129-0.74-0.195-1.17-0.195c-0.43,0-0.821,0.066-1.161,0.195c-0.34,0.127-0.638,0.33-0.889,0.598
				c-0.248,0.27-0.444,0.626-0.579,1.058c-0.138,0.437-0.208,0.969-0.208,1.587v15.722h-2.713V57.219
				c0-0.804,0.108-1.554,0.323-2.227c0.216-0.675,0.555-1.27,1.01-1.773c0.454-0.502,1.034-0.895,1.722-1.172
				c0.687-0.278,1.52-0.418,2.474-0.418c0.954,0,1.794,0.141,2.494,0.418c0.702,0.277,1.29,0.67,1.744,1.172
				c0.452,0.503,0.796,1.097,1.02,1.773c0.22,0.673,0.335,1.423,0.335,2.227v2.168h-2.713v-1.925
				C37.534,56.846,37.465,56.313,37.327,55.875z"/>
			<path fill="#FFFFFF" d="M48.655,66.895c0,0.809-0.113,1.559-0.336,2.23c-0.222,0.675-0.564,1.27-1.018,1.773
				c-0.454,0.5-1.041,0.895-1.743,1.172c-0.701,0.276-1.542,0.417-2.494,0.417c-0.953,0-1.784-0.141-2.472-0.417
				c-0.69-0.277-1.269-0.671-1.725-1.172c-0.453-0.503-0.792-1.098-1.008-1.773c-0.215-0.673-0.325-1.423-0.325-2.23v-6.859h2.714
				v6.621c0,0.615,0.07,1.148,0.208,1.584c0.137,0.435,0.331,0.79,0.579,1.058c0.251,0.27,0.549,0.471,0.888,0.599
				c0.342,0.129,0.732,0.195,1.162,0.195c0.428,0,0.823-0.067,1.17-0.196c0.345-0.127,0.647-0.33,0.897-0.598
				c0.25-0.27,0.446-0.624,0.582-1.056c0.138-0.438,0.208-0.973,0.208-1.586v-6.621h2.713v6.859H48.655z"/>
			<path fill="#FFFFFF" d="M45.947,58.058c0-0.747,0.605-1.351,1.35-1.351c0.745,0,1.352,0.604,1.352,1.351
				c0,0.743-0.607,1.349-1.352,1.349C46.551,59.407,45.947,58.801,45.947,58.058z"/>
			<path fill="#FFFFFF" d="M54.139,38.907c-0.135-0.431-0.331-0.79-0.581-1.058c-0.249-0.27-0.552-0.471-0.897-0.598
				c-0.348-0.131-0.741-0.194-1.171-0.194c-0.428,0-0.819,0.063-1.161,0.192c-0.339,0.129-0.639,0.331-0.887,0.599
				c-0.249,0.268-0.445,0.624-0.58,1.058c-0.138,0.437-0.207,0.968-0.207,1.586v15.722h-2.714V40.253
				c0-0.804,0.109-1.554,0.324-2.228c0.216-0.677,0.555-1.272,1.009-1.775c0.453-0.5,1.033-0.894,1.723-1.172
				c0.689-0.276,1.521-0.418,2.473-0.418c0.952,0,1.791,0.142,2.493,0.418c0.704,0.278,1.29,0.671,1.743,1.172
				c0.455,0.503,0.797,1.098,1.021,1.773c0.222,0.675,0.334,1.425,0.334,2.229v2.165h-2.714v-1.925
				C54.346,39.878,54.276,39.344,54.139,38.907z"/>
			<path fill="#FFFFFF" d="M65.467,49.928c0,0.807-0.113,1.557-0.336,2.228c-0.222,0.676-0.564,1.273-1.017,1.773
				c-0.456,0.5-1.042,0.895-1.743,1.173c-0.703,0.275-1.542,0.415-2.493,0.415c-0.954,0-1.787-0.141-2.475-0.415
				c-0.688-0.278-1.268-0.673-1.723-1.173c-0.453-0.5-0.793-1.097-1.01-1.773c-0.213-0.673-0.323-1.423-0.323-2.228V43.07h2.714
				v6.619c0,0.615,0.07,1.148,0.207,1.585c0.135,0.434,0.331,0.789,0.581,1.058c0.249,0.268,0.549,0.469,0.887,0.598
				c0.341,0.129,0.731,0.196,1.16,0.196c0.43,0,0.824-0.067,1.172-0.196c0.346-0.129,0.647-0.33,0.896-0.598
				c0.249-0.27,0.446-0.625,0.582-1.058c0.137-0.437,0.208-0.971,0.208-1.585V43.07h2.712v6.858H65.467z"/>
		</g>
	</g>
</g>
</svg>
