<?xml version="1.0" encoding="utf-8"?>
<!-- Generator: Adobe Illustrator 17.0.0, SVG Export Plug-In . SVG Version: 6.00 Build 0)  -->
<!DOCTYPE svg PUBLIC "-//W3C//DTD SVG 1.1//EN" "http://www.w3.org/Graphics/SVG/1.1/DTD/svg11.dtd">
<svg version="1.1" id="Layer_1" xmlns="http://www.w3.org/2000/svg" xmlns:xlink="http://www.w3.org/1999/xlink" x="0px" y="0px"
	 width="166px" height="200px" viewBox="0 0 166 200" enable-background="new 0 0 166 200" xml:space="preserve">
<g>
	<g opacity="0.3">
		<path fill="#888888" d="M160,6v188H6V6H160 M162,0H4C1.8,0,0,1.8,0,4v192c0,2.2,1.8,4,4,4h158c2.2,0,4-1.8,4-4V4
			C166,1.8,164.2,0,162,0L162,0z"/>
	</g>
	<rect x="92" y="28" opacity="0.3" fill-rule="evenodd" clip-rule="evenodd" fill="#888888" width="56" height="12"/>
	<rect x="92" y="52" opacity="0.3" fill-rule="evenodd" clip-rule="evenodd" fill="#888888" width="56" height="12"/>
	<rect x="92" y="76" opacity="0.3" fill-rule="evenodd" clip-rule="evenodd" fill="#888888" width="56" height="12"/>
	<rect x="18" y="112" opacity="0.3" fill-rule="evenodd" clip-rule="evenodd" fill="#888888" width="130" height="12"/>
	<rect x="18" y="136" opacity="0.3" fill-rule="evenodd" clip-rule="evenodd" fill="#888888" width="130" height="12"/>
	<rect x="18" y="160" opacity="0.3" fill-rule="evenodd" clip-rule="evenodd" fill="#888888" width="90" height="12"/>
	<g id="_x33_8">
		<path fill="#DD4815" d="M47.999,28C31.457,28,18,41.458,18,57.999s13.458,30,29.999,30S78,74.541,78,57.999S64.542,28,47.999,28z
			 M70.186,54.276H51.704v-4.214c4.941-1.112,9.067-4.395,11.321-8.793C66.734,44.603,69.329,49.149,70.186,54.276z M44.204,42.171
			c-2.178-0.969-3.921-2.742-4.848-4.942c1.537-0.642,3.162-1.114,4.848-1.402V42.171z M51.704,35.81
			c1.72,0.286,3.374,0.765,4.94,1.419c-0.94,2.231-2.719,4.024-4.94,4.984V35.81z M32.975,41.269
			c2.239,4.371,6.328,7.641,11.229,8.772v4.235h-18.39C26.672,49.149,29.266,44.603,32.975,41.269z M25.824,61.776h18.38v4.162
			c-4.906,1.132-8.998,4.408-11.236,8.786C29.277,71.402,26.69,66.879,25.824,61.776z M44.204,80.173
			c-1.689-0.288-3.316-0.762-4.855-1.405c0.924-2.208,2.672-3.988,4.855-4.959V80.173z M51.704,73.766
			c2.226,0.961,4.009,2.761,4.947,5.001c-1.567,0.655-3.225,1.135-4.947,1.422V73.766z M63.033,74.724
			c-2.252-4.405-6.382-7.695-11.328-8.807v-4.141h18.472C69.311,66.879,66.724,71.402,63.033,74.724z"/>
	</g>
</g>
</svg>
