<?xml version="1.0" encoding="utf-8"?>
<!-- Generator: Adobe Illustrator 18.0.0, SVG Export Plug-In . SVG Version: 6.00 Build 0)  -->
<!DOCTYPE svg PUBLIC "-//W3C//DTD SVG 1.1//EN" "http://www.w3.org/Graphics/SVG/1.1/DTD/svg11.dtd">
<svg version="1.1" id="Layer_1" xmlns="http://www.w3.org/2000/svg" xmlns:xlink="http://www.w3.org/1999/xlink" x="0px" y="0px"
	 viewBox="0 0 44 44" enable-background="new 0 0 44 44" xml:space="preserve">
<circle fill="#888888" cx="22" cy="22" r="22"/>
<g>
	<path fill="#FFFFFF" d="M18.2,25.4c0-4.3,4-7.9,9-7.9c0.2,0,0.3,0,0.5,0c-1-3.7-4.9-6.5-9.5-6.5c-5.4,0-9.7,3.8-9.7,8.4
		c0,2.7,1.4,5,3.7,6.6l-0.7,2.6l2.9-1.5c1.2,0.4,2.5,0.7,3.8,0.7c0.1,0,0.3,0,0.4,0C18.4,27,18.2,26.2,18.2,25.4z M21.4,15.3
		c0.7,0,1.3,0.6,1.3,1.3c0,0.7-0.6,1.3-1.3,1.3c-0.7,0-1.3-0.6-1.3-1.3C20.1,15.8,20.7,15.3,21.4,15.3z M14.9,17.8
		c-0.7,0-1.3-0.6-1.3-1.3c0-0.7,0.6-1.3,1.3-1.3s1.3,0.6,1.3,1.3C16.2,17.2,15.6,17.8,14.9,17.8z"/>
	<path fill="#FFFFFF" d="M35.5,25.4c0-3.9-3.7-7.1-8.3-7.1S19,21.4,19,25.4s3.7,7.1,8.3,7.1c1.2,0,2.3-0.2,3.3-0.6l2.1,1.1l-0.1-2.2
		C34.4,29.5,35.5,27.5,35.5,25.4z M24.6,24.4c-0.6,0-1-0.4-1-1s0.4-1,1-1s1,0.4,1,1S25.2,24.4,24.6,24.4z M30.1,24.4
		c-0.6,0-1-0.4-1-1s0.4-1,1-1s1,0.4,1,1S30.6,24.4,30.1,24.4z"/>
</g>
</svg>
