<?xml version="1.0" encoding="utf-8"?>
<!-- Generator: Adobe Illustrator 18.0.0, SVG Export Plug-In . SVG Version: 6.00 Build 0)  -->
<!DOCTYPE svg PUBLIC "-//W3C//DTD SVG 1.1//EN" "http://www.w3.org/Graphics/SVG/1.1/DTD/svg11.dtd">
<svg version="1.1" id="Layer_1" xmlns="http://www.w3.org/2000/svg" xmlns:xlink="http://www.w3.org/1999/xlink" x="0px" y="0px"
	 viewBox="0 0 44 44" enable-background="new 0 0 44 44" xml:space="preserve">
<circle fill="#888888" cx="22" cy="22" r="22"/>
<g>
	<path fill="#FFFFFF" d="M19.8,31.4c-4.5,0.4-8.4-1.6-8.7-4.5c-0.3-3,3.1-5.7,7.6-6.1c4.5-0.4,8.4,1.6,8.7,4.5
		C27.7,28.2,24.3,30.9,19.8,31.4 M28.8,21.6c-0.4-0.1-0.6-0.2-0.4-0.7c0.4-1.1,0.5-2,0-2.7c-0.9-1.3-3.3-1.2-6.1,0
		c0,0-0.9,0.4-0.6-0.3c0.4-1.4,0.4-2.5-0.3-3.2c-1.5-1.5-5.5,0.1-8.9,3.5c-2.6,2.6-4,5.3-4,7.6c0,4.5,5.8,7.2,11.4,7.2
		c7.4,0,12.3-4.3,12.3-7.7C32.1,23.2,30.4,22.1,28.8,21.6"/>
	<path fill="#FFFFFF" d="M33.7,13.4c-1.8-2-4.4-2.7-6.8-2.2l0,0c-0.6,0.1-0.9,0.7-0.8,1.2c0.1,0.6,0.7,0.9,1.2,0.8
		c1.7-0.4,3.6,0.2,4.9,1.6c1.3,1.4,1.6,3.3,1.1,5l0,0c-0.2,0.5,0.1,1.1,0.7,1.3c0.5,0.2,1.1-0.1,1.3-0.7l0,0
		C36,18,35.5,15.3,33.7,13.4"/>
	<path fill="#FFFFFF" d="M31,15.8c-0.9-1-2.1-1.3-3.3-1.1c-0.5,0.1-0.8,0.6-0.7,1.1c0.1,0.5,0.6,0.8,1.1,0.7l0,0
		c0.6-0.1,1.2,0.1,1.6,0.5c0.4,0.5,0.5,1.1,0.4,1.7l0,0c-0.2,0.5,0.1,1,0.6,1.1c0.5,0.2,1-0.1,1.1-0.6C32.1,18.1,31.9,16.8,31,15.8"
		/>
	<path fill="#FFFFFF" d="M18.6,27.9c-0.4,0.7-1.4,1-2.1,0.7c-0.7-0.3-0.9-1.1-0.5-1.8c0.4-0.7,1.3-1,2-0.7
		C18.8,26.4,19.1,27.2,18.6,27.9 M20.3,23c-2.1-0.6-4.6,0.5-5.5,2.4s0,4.1,2.1,4.8c2.2,0.7,4.9-0.4,5.8-2.5
		C23.6,25.6,22.5,23.5,20.3,23"/>
</g>
</svg>
