<?xml version="1.0" encoding="utf-8"?>
<!-- Generator: Adobe Illustrator 17.0.2, SVG Export Plug-In . SVG Version: 6.00 Build 0)  -->
<!DOCTYPE svg PUBLIC "-//W3C//DTD SVG 1.1//EN" "http://www.w3.org/Graphics/SVG/1.1/DTD/svg11.dtd">
<svg version="1.1" id="Layer_1" xmlns="http://www.w3.org/2000/svg" xmlns:xlink="http://www.w3.org/1999/xlink" x="0px" y="0px"
	 width="100px" height="100px" viewBox="0 0 100 100" enable-background="new 0 0 100 100" xml:space="preserve">
<path id="path3759" fill="#DD4814" d="M34.615,7.707C3.838,7.745,0,8.649,0,30.769v46.154C0,100,3.846,100,38.461,100h15.385
	c34.615,0,38.462,0,38.462-23.077V65.385H80.769v7.692c0,15.385,0,15.385-30.769,15.385h-7.692c-30.769,0-30.769,0-30.769-15.385
	V34.615c0-13.928,0.246-15.237,23.077-15.362V7.707z"/>
<path id="path4984-3" fill="#DD4814" d="
	M45.988,13.732c0.806-3.222,51.29-15.844,53.707-13.427c2.417,2.417-10.204,52.901-13.427,53.707
	C83.045,54.818,45.182,16.954,45.988,13.732L45.988,13.732z"/>
<path id="path3789" fill="#DD4814" d="M64.649,22.606L33.444,53.811
	l12.745,12.745l31.205-31.205L64.649,22.606z"/>
</svg>
